<?xml version="1.0" encoding="UTF-8" standalone="no"?>
<!-- Created with Inkscape (http://www.inkscape.org/) -->

<svg
   width="200"
   height="200"
   viewBox="0 0 52.916665 52.916666"
   version="1.1"
   id="svg1"
   inkscape:version="1.3 (0e150ed6c4, 2023-07-21)"
   sodipodi:docname="Undeads.svg"
   inkscape:export-filename="..\..\..\Assets\Sprites\UI\Fractions\Undeads.png"
   inkscape:export-xdpi="96"
   inkscape:export-ydpi="96"
   xmlns:inkscape="http://www.inkscape.org/namespaces/inkscape"
   xmlns:sodipodi="http://sodipodi.sourceforge.net/DTD/sodipodi-0.dtd"
   xmlns="http://www.w3.org/2000/svg"
   xmlns:svg="http://www.w3.org/2000/svg">
  <sodipodi:namedview
     id="namedview1"
     pagecolor="#505050"
     bordercolor="#ffffff"
     borderopacity="1"
     inkscape:showpageshadow="0"
     inkscape:pageopacity="0"
     inkscape:pagecheckerboard="1"
     inkscape:deskcolor="#505050"
     inkscape:document-units="mm"
     inkscape:zoom="3.0324635"
     inkscape:cx="60.182092"
     inkscape:cy="112.61471"
     inkscape:window-width="1920"
     inkscape:window-height="1009"
     inkscape:window-x="-8"
     inkscape:window-y="-8"
     inkscape:window-maximized="1"
     inkscape:current-layer="layer1" />
  <defs
     id="defs1" />
  <g
     inkscape:label="Шар 1"
     inkscape:groupmode="layer"
     id="layer1">
    <g
       id="g24"
       transform="matrix(3.5751701,0,0,3.5751701,-99.037739,-8.2912337)">
      <path
         style="fill:#c5c5c5;fill-opacity:1;stroke:#929292;stroke-width:0.670814;stroke-dasharray:none;stroke-opacity:1"
         d="m 32.73851,15.722949 0.993762,-2.056798 0.530007,2.249623 0.861261,-2.442447 0.861261,2.378171 0.530006,-2.442446 0.861261,2.506722 0.72876,-2.506722 0.662509,2.442446 0.86126,-2.635271 c 0,0 0.06625,-4.3064193 -0.397505,-6.1703919 C 38.767337,5.1818627 37.839824,4.0249142 36.846061,3.3178902 35.852299,2.6108661 35.29793,2.6703833 34.858535,2.675141 34.392193,2.6801905 33.136014,2.5465912 32.208502,3.3178902 31.280991,4.0891892 31.21474,4.6676633 30.883485,6.2102613 30.552231,7.7528592 30.48598,13.987526 30.48598,13.987526 l 0.596259,1.735423 0.79501,-2.121072 z"
         id="path21"
         sodipodi:nodetypes="ccccccccccssssscccc" />
      <ellipse
         style="fill:#ffffff;fill-opacity:1;stroke:#a3a3a3;stroke-width:0.33564837;stroke-dasharray:none;stroke-opacity:1"
         id="path22"
         cx="33.114258"
         cy="5.8704429"
         rx="0.86816406"
         ry="0.84335935" />
      <ellipse
         style="fill:#ffffff;fill-opacity:1;stroke:#a3a3a3;stroke-width:0.33564837;stroke-dasharray:none;stroke-opacity:1"
         id="path24"
         cx="36.371941"
         cy="5.8787107"
         rx="0.88470054"
         ry="0.86816406" />
    </g>
  </g>
</svg>
