<?xml version="1.0" encoding="UTF-8" standalone="no"?>
<!-- Created with Inkscape (http://www.inkscape.org/) -->

<svg
   width="256"
   height="256"
   viewBox="0 0 67.733332 67.733333"
   version="1.1"
   id="svg1"
   inkscape:version="1.3 (0e150ed6c4, 2023-07-21)"
   sodipodi:docname="BarbedArmor.svg"
   inkscape:export-filename="..\..\Assets\Resources\SkillsSprites\BarbedArmor.png"
   inkscape:export-xdpi="96"
   inkscape:export-ydpi="96"
   xmlns:inkscape="http://www.inkscape.org/namespaces/inkscape"
   xmlns:sodipodi="http://sodipodi.sourceforge.net/DTD/sodipodi-0.dtd"
   xmlns="http://www.w3.org/2000/svg"
   xmlns:svg="http://www.w3.org/2000/svg">
  <sodipodi:namedview
     id="namedview1"
     pagecolor="#505050"
     bordercolor="#ffffff"
     borderopacity="1"
     inkscape:showpageshadow="0"
     inkscape:pageopacity="0"
     inkscape:pagecheckerboard="1"
     inkscape:deskcolor="#505050"
     inkscape:document-units="mm"
     inkscape:zoom="1.5162318"
     inkscape:cx="-10.882241"
     inkscape:cy="132.89525"
     inkscape:window-width="1920"
     inkscape:window-height="1009"
     inkscape:window-x="-8"
     inkscape:window-y="-8"
     inkscape:window-maximized="1"
     inkscape:current-layer="layer1" />
  <defs
     id="defs1" />
  <g
     inkscape:label="Шар 1"
     inkscape:groupmode="layer"
     id="layer1">
    <path
       style="fill:#86583b;stroke:#ffffff;stroke-width:0"
       d="m 0,24.779083 c 0,0 10.382785,-7.241774 21.289071,-9.423031 10.906286,-2.181258 19.893068,-1.919507 19.893068,-1.919507 0,0 -16.315805,3.315511 -19.544066,4.449765 C 18.409812,19.020564 0,30.450353 0,30.450353 c 0,0 30.537602,-11.168038 36.296121,-12.651293 5.758521,-1.483255 12.738544,-2.355758 12.738544,-2.355758 0,0 -14.309047,5.758519 -17.013809,6.805523 C 29.316098,23.295828 0.08725029,36.12162 0.08725029,36.12162 c 0,0 26.26233771,-10.121033 32.28260671,-11.168036 6.020271,-1.047004 20.067569,-0.610752 20.067569,-0.610752 0,0 -18.671563,4.362515 -22.772327,5.845769 C 25.564336,31.671858 0,45.108402 0,45.108402 c 0,0 23.208578,-7.067275 29.316098,-7.503525 6.107522,-0.436253 29.3161,1.745006 29.3161,1.745006 0,0 -24.255582,2.181257 -27.483842,3.05376 C 27.920092,43.276146 0,54.182433 0,54.182433 c 0,0 28.443594,-5.060519 33.155112,-5.40952 4.711514,-0.349002 30.537602,3.05376 30.537602,3.05376 0,0 -26.262338,0.785254 -29.403349,1.134255 C 31.148356,53.309929 0,67.706226 0,67.706226 0,67.706226 -8.5505286,56.53819 -9.0740306,50.86692 -9.5975322,45.195651 0,24.779083 0,24.779083 Z"
       id="path1" />
    <path
       style="fill:#86583b;stroke:#ffffff;stroke-width:0"
       d="m -0.17450059,67.531728 c 0,0 32.19535659,-8.637781 37.77937759,-8.550529 5.584018,0.08725 29.57785,7.590774 29.57785,7.590774 0,0 -26.34959,-3.05376 -29.665102,-2.704759 -3.315509,0.349002 -23.383078,7.765275 -23.383078,7.765275 0,0 -12.2150406,0.349001 -13.61104525,-0.523499 -1.39600468,-0.872503 -0.69800234,-3.577262 -0.69800234,-3.577262 z"
       id="path2" />
    <path
       style="fill:#86583b;stroke:#ffffff;stroke-width:0"
       d="m 0.01807012,24.961672 c 0,0 11.53701588,-9.871243 13.75804588,-10.364805 2.22103,-0.493563 9.747853,-2.159335 9.747853,-2.159335 0,0 -8.205471,-0.308476 -10.734977,0.370172 -2.529506,0.678648 -12.83261715,7.403432 -12.83261715,7.403432 0,0 8.08208095,-8.452252 10.48819615,-8.822424 2.406116,-0.370171 5.182403,-1.048819 5.182403,-1.048819 0,0 -4.195278,-0.6169528 -5.6759649,-0.3701716 -1.4806863,0.2467806 -10.24141534,6.2929176 -10.24141534,6.2929176 0,0 1.35729604,-3.023069 2.22102994,-3.578326 0.8637339,-0.555257 2.7762872,-1.850858 2.7762872,-1.850858 0,0 -3.3315447,0.678648 -4.01019276,1.295601 -0.67864802,0.616952 -2.03594394,2.097639 -2.03594394,2.097639 L -1.4626164,24.46811 Z"
       id="path3" />
  </g>
</svg>
