<?xml version="1.0" encoding="UTF-8" standalone="no"?>
<!-- Created with Inkscape (http://www.inkscape.org/) -->

<svg
   width="256"
   height="256"
   viewBox="0 0 67.733332 67.733333"
   version="1.1"
   id="svg1"
   xml:space="preserve"
   inkscape:version="1.3 (0e150ed6c4, 2023-07-21)"
   sodipodi:docname="FunAtmosphere.svg"
   inkscape:export-filename="..\..\Assets\Resources\SkillsSprites\FunAtmosphere.png"
   inkscape:export-xdpi="96"
   inkscape:export-ydpi="96"
   xmlns:inkscape="http://www.inkscape.org/namespaces/inkscape"
   xmlns:sodipodi="http://sodipodi.sourceforge.net/DTD/sodipodi-0.dtd"
   xmlns="http://www.w3.org/2000/svg"
   xmlns:svg="http://www.w3.org/2000/svg"><sodipodi:namedview
     id="namedview1"
     pagecolor="#505050"
     bordercolor="#ffffff"
     borderopacity="1"
     inkscape:showpageshadow="0"
     inkscape:pageopacity="0"
     inkscape:pagecheckerboard="1"
     inkscape:deskcolor="#505050"
     inkscape:document-units="mm"
     inkscape:zoom="1.5162318"
     inkscape:cx="-0.32976489"
     inkscape:cy="248.97249"
     inkscape:window-width="1920"
     inkscape:window-height="1009"
     inkscape:window-x="-8"
     inkscape:window-y="-8"
     inkscape:window-maximized="1"
     inkscape:current-layer="layer1" /><defs
     id="defs1" /><g
     inkscape:label="Шар 1"
     inkscape:groupmode="layer"
     id="layer1"><path
       style="fill:#653c00;fill-opacity:1;stroke:#823e00;stroke-width:0;stroke-dasharray:none"
       d="m 17.409742,12.520566 c 0,0 10.637532,-2.057257 14.651693,-2.057257 4.014163,0 13.949214,1.555487 13.949214,1.555487 0,0 -9.590628,7.534094 -13.049437,7.534094 -3.458808,0 -15.55147,-7.032324 -15.55147,-7.032324 z"
       id="path13" /><path
       style="fill:#dcdcdc;fill-opacity:1;stroke:#823e00;stroke-width:0;stroke-dasharray:none"
       d="m 18.011866,12.972159 c 0,0 0.652302,-0.451593 2.057258,-1.204248 1.404958,-0.752655 5.168235,-2.9604441 6.824077,-3.0607983 1.65584,-0.1003617 5.971065,-0.8530091 7.576729,-0.3010618 1.605668,0.5519474 4.566111,1.7561971 5.61983,1.7561971 1.053717,0 2.910268,0.150526 3.462211,0.80283 0.551952,0.652302 1.103897,2.659382 1.103897,2.659382 0,0 -16.558418,6.021245 -21.07435,4.265049 -4.515932,-1.756197 -5.569652,-4.91735 -5.569652,-4.91735 z"
       id="path12" /><path
       style="fill:#462900;fill-opacity:1;stroke:#823e00;stroke-width:0;stroke-dasharray:none"
       d="m 45.060503,18.898321 c 0,0 11.780209,-3.625218 11.780209,8.082346 0,11.707567 -11.460116,28.996946 -11.460116,28.996946 v -5.290014 c 0,0 9.117557,-17.70149 9.117557,-23.069687 0,-5.368196 -9.518272,-6.530443 -9.518272,-6.530443 z"
       id="path11" /><path
       style="fill:#804d00;fill-opacity:1;stroke:#823e00;stroke-width:0;stroke-dasharray:none"
       d="m 19.015408,61.694053 h 26.694178 c 0,0 4.014161,-9.633989 4.014161,-23.081434 0,-13.447441 -3.612745,-26.694176 -3.612745,-26.694176 0,0 -5.419121,3.010621 -13.648153,3.010621 -8.229031,0 -15.07517,-2.446194 -15.07517,-2.446194 0,0 -3.211331,10.619327 -3.211331,26.531166 0,15.91184 4.83906,22.680017 4.83906,22.680017 z"
       id="path5"
       sodipodi:nodetypes="ccscsczc" /><path
       d="m 47.728621,18.847105 c -0.52152,0.207871 -1.09672,0.433952 -1.769407,0.684226 -0.762799,0.283801 -1.610183,0.586606 -2.514155,0.889327 -0.451984,0.151356 -0.917834,0.302392 -1.39451,0.451387 -0.476676,0.148998 -0.964096,0.295199 -1.458394,0.437098 -0.494299,0.141905 -0.995572,0.279285 -1.500423,0.40936 -0.504852,0.13008 -1.013101,0.252968 -1.521438,0.36649 -0.508337,0.113521 -1.016684,0.217936 -1.521438,0.310171 -0.504752,0.09222 -1.006322,0.172502 -1.500422,0.238723 -0.494102,0.06622 -0.981174,0.118352 -1.457555,0.153828 -0.476382,0.03548 -0.942079,0.05464 -1.39367,0.05464 -0.451592,0 -0.917381,-0.0161 -1.39367,-0.04623 -0.476289,-0.03014 -0.962785,-0.07487 -1.456715,-0.131138 -0.493929,-0.05625 -0.995068,-0.124224 -1.499581,-0.202577 -0.504514,-0.07835 -1.012556,-0.166665 -1.520598,-0.2631 -0.508042,-0.09642 -1.016084,-0.201355 -1.520598,-0.311853 -0.504513,-0.110495 -1.005651,-0.226614 -1.499581,-0.347155 -0.98786,-0.241085 -1.947198,-0.49852 -2.850384,-0.755677 -0.903186,-0.257156 -1.750411,-0.514591 -2.512474,-0.755676 -0.612819,-0.193868 -1.122748,-0.364834 -1.611379,-0.52956 -0.0043,0.02475 -0.0083,0.04153 -0.01268,0.06639 -0.100362,0.580476 -0.201299,1.191959 -0.300085,1.83329 -0.04592,0.298148 -0.0894,0.62467 -0.134487,0.935559 0.568317,0.189757 1.11812,0.374825 1.784535,0.590922 0.977478,0.316965 2.043531,0.654622 3.148788,0.992717 1.105258,0.338096 2.249294,0.676593 3.383308,0.993558 0.567006,0.15848 1.131402,0.311155 1.68703,0.45643 0.555628,0.145273 1.102202,0.283415 1.634075,0.410201 0.531872,0.126777 1.049236,0.242462 1.544972,0.345474 0.495739,0.103014 0.969981,0.193346 1.417207,0.267305 0.447226,0.07396 0.86696,0.131853 1.253295,0.171475 0.386336,0.03963 0.73933,0.06053 1.052398,0.06053 0.313067,0 0.65562,-0.01781 1.022136,-0.05212 0.366517,-0.03431 0.757325,-0.08473 1.167557,-0.148786 0.410231,-0.06404 0.839345,-0.141954 1.283555,-0.231158 0.444209,-0.08921 0.903364,-0.190292 1.371815,-0.300085 0.468454,-0.109795 0.946856,-0.228077 1.429815,-0.353881 0.482961,-0.125802 0.970663,-0.25867 1.458394,-0.39591 0.975466,-0.274483 1.95039,-0.567125 2.886529,-0.859907 0.93614,-0.292781 1.833079,-0.586265 2.652008,-0.860748 0.818931,-0.274481 1.559973,-0.530204 2.18381,-0.749789 0.382749,-0.134732 0.336369,-0.121492 0.622025,-0.224433 -0.02598,-0.16123 -0.05029,-0.333032 -0.0765,-0.491737 -0.11113,-0.67342 -0.224172,-1.323531 -0.33707,-1.947608 -0.07695,-0.425406 -0.149713,-0.760001 -0.226115,-1.15999 z"
       style="fill:#995c00;stroke:#823e00;stroke-width:0"
       id="path7" /><path
       d="m 48.984437,26.762782 c -0.299268,0.129072 -0.420455,0.187442 -1.121324,0.469041 -0.56508,0.22704 -1.243649,0.492049 -2.006448,0.775848 -0.7628,0.283801 -1.610183,0.586608 -2.514155,0.889327 -0.451986,0.151356 -0.917834,0.302393 -1.394511,0.451388 -0.476675,0.148996 -0.964097,0.296038 -1.458394,0.43794 -0.494299,0.141905 -0.995573,0.279283 -1.500424,0.409358 -0.504851,0.13008 -1.013101,0.25297 -1.521438,0.36649 -0.508336,0.11352 -1.016683,0.217095 -1.521436,0.30933 -0.504755,0.09222 -1.006323,0.172504 -1.500425,0.238723 -0.494101,0.06622 -0.980331,0.118352 -1.456712,0.153828 -0.476381,0.03548 -0.942919,0.05464 -1.394511,0.05464 -0.451593,0 -0.916541,-0.0161 -1.392831,-0.04623 -0.476288,-0.03014 -0.963623,-0.07403 -1.457553,-0.130291 -0.493929,-0.05625 -0.99507,-0.12507 -1.499584,-0.203418 -0.504514,-0.07835 -1.012554,-0.166665 -1.520596,-0.2631 -0.508041,-0.09644 -1.016083,-0.200515 -1.520597,-0.311012 -0.504513,-0.110496 -1.005652,-0.227454 -1.499584,-0.347997 -0.987858,-0.241084 -1.947196,-0.497677 -2.850381,-0.754834 -0.903187,-0.257157 -1.749571,-0.51459 -2.511634,-0.755675 -0.762062,-0.241086 -1.439436,-0.466142 -2.003926,-0.65901 -0.369748,-0.126323 -0.326825,-0.115913 -0.591764,-0.210144 -0.0099,0.10342 -0.02139,0.19832 -0.0311,0.302606 -0.07526,0.808291 -0.143955,1.642805 -0.205099,2.501547 -0.0026,0.03652 -0.0043,0.07602 -0.0067,0.112642 0.740935,0.250106 1.606066,0.537594 2.563748,0.84814 0.977478,0.316964 2.043531,0.655462 3.148787,0.993557 1.105258,0.338096 2.249296,0.675752 3.383307,0.992717 0.567006,0.158481 1.131403,0.311997 1.68703,0.457273 0.555628,0.145272 1.103044,0.282572 1.634916,0.409358 0.531872,0.126778 1.048394,0.243302 1.544132,0.346317 0.495739,0.103012 0.970822,0.192503 1.418049,0.266461 0.447225,0.07396 0.866957,0.131853 1.253293,0.171477 0.386336,0.03963 0.73933,0.06053 1.052398,0.06053 0.313068,0 0.65478,-0.01781 1.021297,-0.05212 0.366518,-0.03431 0.757325,-0.08473 1.167555,-0.148786 0.410233,-0.06404 0.840188,-0.141954 1.284397,-0.231157 0.44421,-0.0892 0.902521,-0.189451 1.370975,-0.299244 0.468452,-0.109796 0.946855,-0.228917 1.429815,-0.354723 0.482959,-0.125801 0.970662,-0.258668 1.458394,-0.39591 0.975464,-0.274481 1.95123,-0.567125 2.88737,-0.859905 0.936139,-0.29278 1.833077,-0.585424 2.652008,-0.859906 0.81893,-0.274482 1.559132,-0.531047 2.182968,-0.750633 1.072363,-0.377462 1.559494,-0.560516 1.742508,-0.628749 -0.05918,-0.661616 -0.120239,-1.32105 -0.189968,-1.966099 -0.06572,-0.607903 -0.138425,-1.199463 -0.211825,-1.789582 z"
       style="fill:#995c00;stroke:#823e00;stroke-width:0"
       id="path8" /><path
       d="m 49.711533,35.682106 c -0.17494,0.07703 -0.572236,0.25527 -1.524799,0.637994 -0.56508,0.227041 -1.242809,0.491209 -2.005608,0.775008 -0.762799,0.283801 -1.610183,0.586607 -2.514155,0.889327 -0.451986,0.151356 -0.918676,0.303234 -1.395351,0.452228 -0.476677,0.148998 -0.963257,0.295199 -1.457554,0.437099 -0.494298,0.141906 -0.995572,0.279284 -1.500422,0.409359 -0.504852,0.13008 -1.013942,0.25297 -1.52228,0.36649 -0.508336,0.113521 -1.015843,0.217936 -1.520596,0.310171 -0.504754,0.09223 -1.006322,0.172503 -1.500424,0.238723 -0.4941,0.06622 -0.981172,0.118352 -1.457554,0.153828 -0.476381,0.03548 -0.942078,0.0538 -1.39367,0.0538 -0.451593,0 -0.917381,-0.0161 -1.39367,-0.04623 -0.47629,-0.03014 -0.962785,-0.07405 -1.456714,-0.130292 -0.493929,-0.05625 -0.995069,-0.124224 -1.499583,-0.202579 -0.504514,-0.07835 -1.012554,-0.166665 -1.520596,-0.2631 -0.508042,-0.09644 -1.016084,-0.201353 -1.520598,-0.311851 -0.504514,-0.110495 -1.005651,-0.226616 -1.499582,-0.347158 -0.98786,-0.241084 -1.947197,-0.498517 -2.850384,-0.755675 -0.903185,-0.257156 -1.75041,-0.51459 -2.512473,-0.755675 -0.762064,-0.241085 -1.439436,-0.466142 -2.003926,-0.659011 -0.886777,-0.302981 -1.198759,-0.422324 -1.418889,-0.504343 -0.01562,0.778533 -0.02942,1.561483 -0.02942,2.367896 0,0.21993 0.0099,0.419871 0.01171,0.636314 0.27637,0.09473 0.212628,0.07554 0.548894,0.189128 0.750675,0.253571 1.639226,0.549667 2.616705,0.86663 0.977477,0.316967 2.04353,0.654623 3.148786,0.992717 1.105258,0.338096 2.250137,0.676594 3.38415,0.993559 0.567004,0.158481 1.131401,0.311156 1.68703,0.456431 0.555627,0.145273 1.102201,0.282574 1.634073,0.409359 0.531871,0.126779 1.049236,0.243302 1.544974,0.346316 0.495738,0.103014 0.969981,0.192503 1.417207,0.266462 0.447226,0.07396 0.866958,0.132698 1.253294,0.172318 0.386336,0.03963 0.73933,0.06053 1.052397,0.06053 0.313069,0 0.655621,-0.01864 1.022139,-0.05296 0.366516,-0.03431 0.757324,-0.08473 1.167555,-0.148786 0.410231,-0.06404 0.839345,-0.141108 1.283556,-0.230316 0.444209,-0.08921 0.903362,-0.190292 1.371815,-0.300085 0.468452,-0.109797 0.946856,-0.228918 1.429815,-0.354723 0.48296,-0.125802 0.970663,-0.257828 1.458395,-0.395069 0.975463,-0.274482 1.950389,-0.567966 2.886529,-0.860746 0.936139,-0.292782 1.833077,-0.585425 2.652007,-0.859907 0.818931,-0.274482 1.559974,-0.530206 2.18381,-0.749791 1.089929,-0.383646 1.603228,-0.577047 1.771087,-0.639677 0.0071,-0.399947 0.02187,-0.791559 0.02187,-1.198658 0,-0.840464 -0.01382,-1.680124 -0.04034,-2.515834 -0.0021,-0.0668 -0.007,-0.132472 -0.0093,-0.199216 z"
       style="fill:#995c00;stroke:#823e00;stroke-width:0"
       id="path9" /><path
       d="m 49.391276,45.515131 c -0.292644,0.126502 -0.43688,0.194468 -1.164195,0.486691 -0.565081,0.227041 -1.242808,0.492049 -2.005607,0.77585 -0.7628,0.2838 -1.610183,0.586606 -2.514154,0.889326 -0.451986,0.151356 -0.917836,0.303234 -1.394512,0.452228 -0.476675,0.148997 -0.964097,0.295199 -1.458394,0.437099 -0.494299,0.141905 -0.995572,0.279284 -1.500424,0.409359 -0.504851,0.130079 -1.013101,0.25297 -1.521437,0.366489 -0.508337,0.113521 -1.016684,0.217097 -1.521438,0.309333 -0.504754,0.09222 -1.006322,0.173342 -1.500424,0.239563 -0.494101,0.06622 -0.981171,0.118352 -1.457553,0.153829 -0.476381,0.03548 -0.942077,0.0538 -1.393672,0.0538 -0.451592,0 -0.91738,-0.0161 -1.39367,-0.04623 -0.476288,-0.03014 -0.962782,-0.07403 -1.456711,-0.130292 -0.49393,-0.05625 -0.995071,-0.12507 -1.499584,-0.203419 -0.504514,-0.07835 -1.012556,-0.166665 -1.520597,-0.263098 -0.508042,-0.09644 -1.016082,-0.200516 -1.520596,-0.311013 -0.504514,-0.110495 -1.005655,-0.227455 -1.499584,-0.347998 -0.987859,-0.241085 -1.947199,-0.497677 -2.850384,-0.754834 -0.903186,-0.257157 -1.75041,-0.514591 -2.512472,-0.755675 -0.762063,-0.241085 -1.439437,-0.466142 -2.003927,-0.65901 -0.68566,-0.234267 -0.795003,-0.280253 -1.096949,-0.390867 0.0202,0.187099 0.03396,0.390724 0.05548,0.574111 0.09215,0.785405 0.195916,1.536389 0.309331,2.254418 0.01778,0.112513 0.03894,0.211072 0.05716,0.32194 0.709995,0.239145 1.506849,0.503978 2.404881,0.795183 0.977477,0.316963 2.04353,0.655461 3.148787,0.993556 1.105256,0.338098 2.249295,0.675753 3.383306,0.992718 0.567007,0.15848 1.131403,0.311996 1.687031,0.457272 0.555628,0.145273 1.102203,0.282572 1.634074,0.409358 0.531872,0.126779 1.049236,0.243304 1.544974,0.346317 0.495739,0.103013 0.969981,0.192503 1.417208,0.266461 0.447224,0.07396 0.866957,0.131853 1.253293,0.171477 0.386336,0.03963 0.73933,0.06135 1.052398,0.06135 0.313068,0 0.655619,-0.01864 1.022136,-0.05296 0.36652,-0.03431 0.757327,-0.08473 1.167557,-0.148786 0.410231,-0.06404 0.839347,-0.141954 1.283556,-0.231159 0.44421,-0.08921 0.903362,-0.189451 1.371816,-0.299244 0.468452,-0.109796 0.946853,-0.228917 1.429815,-0.354721 0.482959,-0.125802 0.970662,-0.25867 1.458394,-0.39591 0.975464,-0.274483 1.950389,-0.567125 2.886529,-0.859907 0.936139,-0.292781 1.833077,-0.585424 2.652008,-0.859906 0.81893,-0.274482 1.559971,-0.530207 2.183809,-0.749792 0.513726,-0.180827 0.501419,-0.180795 0.83469,-0.301765 0.102378,-0.62806 0.201032,-1.273245 0.290837,-1.940043 0.09408,-0.698559 0.179934,-1.417773 0.256375,-2.156071 1.71e-4,-0.0017 6.7e-4,-0.0034 8.41e-4,-0.005 z"
       style="fill:#995c00;stroke:#823e00;stroke-width:0"
       id="path10" /></g></svg>
