<?xml version="1.0" encoding="UTF-8" standalone="no"?>
<!-- Created with Inkscape (http://www.inkscape.org/) -->

<svg
   width="256"
   height="256"
   viewBox="0 0 67.733332 67.733333"
   version="1.1"
   id="svg1"
   inkscape:version="1.3 (0e150ed6c4, 2023-07-21)"
   sodipodi:docname="LongStrike.svg"
   inkscape:export-filename="..\..\Assets\Resources\SkillsSprites\LongStrike.png"
   inkscape:export-xdpi="96"
   inkscape:export-ydpi="96"
   xmlns:inkscape="http://www.inkscape.org/namespaces/inkscape"
   xmlns:sodipodi="http://sodipodi.sourceforge.net/DTD/sodipodi-0.dtd"
   xmlns="http://www.w3.org/2000/svg"
   xmlns:svg="http://www.w3.org/2000/svg">
  <sodipodi:namedview
     id="namedview1"
     pagecolor="#505050"
     bordercolor="#ffffff"
     borderopacity="1"
     inkscape:showpageshadow="0"
     inkscape:pageopacity="0"
     inkscape:pagecheckerboard="1"
     inkscape:deskcolor="#505050"
     inkscape:document-units="mm"
     inkscape:zoom="1.5162318"
     inkscape:cx="-14.17989"
     inkscape:cy="160.5955"
     inkscape:window-width="1920"
     inkscape:window-height="1009"
     inkscape:window-x="-8"
     inkscape:window-y="-8"
     inkscape:window-maximized="1"
     inkscape:current-layer="layer1" />
  <defs
     id="defs1" />
  <g
     inkscape:label="Шар 1"
     inkscape:groupmode="layer"
     id="layer1">
    <path
       d="m 29.318412,49.204395 v -4.18332 c -0.0538,0.03635 -0.08556,0.06481 -0.144768,0.103021 -0.233019,0.150354 -0.506763,0.314649 -0.815348,0.490274 -0.308586,0.175625 -0.651344,0.362683 -1.022294,0.557776 -0.37095,0.195092 -0.770048,0.398752 -1.190158,0.607515 -0.840222,0.417522 -1.765505,0.856669 -2.723154,1.294074 -0.957651,0.437405 -1.947323,0.872524 -2.916779,1.283419 -0.969455,0.410895 -1.91857,0.797097 -2.794208,1.135092 -0.437819,0.169002 -0.857771,0.325995 -1.252332,0.468068 -0.394558,0.14207 -0.76413,0.269903 -1.102228,0.379253 -0.338098,0.109346 -0.644615,0.200064 -0.913048,0.270895 -0.268432,0.07083 -0.498332,0.120929 -0.683898,0.147432 -0.37113,0.05302 -0.757368,0.116839 -1.144861,0.188294 -0.387491,0.07145 -0.776812,0.151042 -1.153744,0.238032 -0.376929,0.08698 -0.741468,0.181046 -1.080912,0.280663 -0.339444,0.09962 -0.6531124,0.205064 -0.9281469,0.314416 -0.1375156,0.05467 -0.2655489,0.110411 -0.3819155,0.166975 -0.1163752,0.05656 -0.2216766,0.113333 -0.3135273,0.171426 -0.091849,0.05809 -0.1705151,0.117492 -0.2344794,0.176747 -0.063971,0.05926 -0.1129377,0.118472 -0.1456623,0.178525 -0.032725,0.06005 -0.048967,0.120689 -0.047076,0.181188 0.00189,0.0605 0.021415,0.120603 0.06129,0.181187 0.039874,0.06058 0.099979,0.121789 0.1811884,0.182077 0.08121,0.06029 0.1840554,0.119761 0.3099747,0.179413 0.1259141,0.05964 0.2594268,0.115808 0.4005671,0.167868 0.1411421,0.05206 0.2896507,0.100563 0.4449774,0.144769 0.1553216,0.04422 0.3173548,0.08468 0.4858348,0.120792 0.16847,0.03611 0.34343,0.06729 0.524024,0.09503 0.180595,0.02776 0.36699,0.05192 0.558664,0.07105 0.191676,0.01913 0.38892,0.03328 0.590638,0.04352 0.201721,0.01031 0.408333,0.01667 0.619061,0.01777 0.210728,0.0011 0.425227,-0.0024 0.643929,-0.01066 0.218703,-0.0083 0.441382,-0.02203 0.667022,-0.03996 0.22564,-0.01794 0.454131,-0.04053 0.685673,-0.06839 0.231544,-0.02786 0.46614,-0.06057 0.70255,-0.09859 0.236409,-0.03804 0.474742,-0.08121 0.714983,-0.129678 0.240242,-0.04847 0.482605,-0.102488 0.725642,-0.161647 0.243037,-0.05916 0.487061,-0.123525 0.73186,-0.193622 0.244796,-0.07011 0.489887,-0.146057 0.73541,-0.227374 0.245522,-0.08131 0.491089,-0.168349 0.7363,-0.261125 0.980846,-0.37113 2.094552,-0.782065 3.24274,-1.219468 0.574091,-0.218701 1.157117,-0.443827 1.736387,-0.674127 0.579271,-0.230301 1.155062,-0.465741 1.715073,-0.704325 0.560008,-0.238585 1.103725,-0.480311 1.620037,-0.723865 0.516309,-0.243556 1.004886,-0.488425 1.453058,-0.733637 0.224088,-0.122597 0.437907,-0.245307 0.640377,-0.367705 0.02167,-0.01306 0.03987,-0.02597 0.06129,-0.03908 z"
       style="fill-opacity:0.313725;stroke:#000000;stroke-width:0"
       id="path3" />
    <path
       d="m 29.318412,44.210168 v -3.533172 c -0.03781,0.107868 -0.0758,0.216431 -0.127014,0.318855 -0.06877,0.137516 -0.149804,0.269038 -0.243362,0.392575 -0.09355,0.123543 -0.198882,0.238931 -0.317966,0.343726 -0.119091,0.104791 -0.251681,0.198487 -0.397017,0.279776 -0.07267,0.04065 -0.148893,0.07803 -0.228261,0.111907 -0.07937,0.03388 -0.161646,0.06497 -0.247803,0.09149 -1.378484,0.424148 -2.121232,0.662372 -2.518872,0.794919 -0.39764,0.132549 -0.450307,0.158983 -0.450307,0.158983 0,0 -0.550358,0.125776 -1.420197,0.317966 -0.869839,0.192194 -2.058698,0.450779 -3.337773,0.715872 -0.639539,0.132548 -1.30206,0.266834 -1.957546,0.395239 -0.655484,0.128406 -1.304607,0.251251 -1.918465,0.360602 -0.613856,0.109345 -1.192423,0.205278 -1.707078,0.280663 -0.514653,0.07538 -0.965509,0.129816 -1.323386,0.156318 -0.715751,0.05302 -1.410974,0.112973 -2.058796,0.189183 -0.323912,0.0381 -0.636222,0.08026 -0.932588,0.12789 -0.2963654,0.04763 -0.5766593,0.10022 -0.838439,0.159877 -0.2617798,0.05964 -0.5046019,0.126584 -0.724754,0.200728 -0.2201521,0.07415 -0.4182683,0.155786 -0.5897511,0.246913 -0.085748,0.04556 -0.164895,0.09362 -0.2371435,0.143892 -0.072255,0.05027 -0.1375156,0.102797 -0.1953989,0.158089 -0.057887,0.05529 -0.1083488,0.113453 -0.1509904,0.174083 -0.042642,0.06064 -0.077412,0.1238 -0.1039144,0.190071 -0.053023,0.132548 -0.095647,0.286459 -0.1225627,0.452971 -0.013406,0.08326 -0.022928,0.17012 -0.027534,0.258459 -0.00464,0.08833 -0.00498,0.177992 8.868e-4,0.269119 0.00584,0.09113 0.017772,0.183691 0.035526,0.275334 0.017754,0.09164 0.041559,0.182788 0.072823,0.272671 0.031281,0.08989 0.070004,0.177945 0.116358,0.263789 0.046337,0.08585 0.1004597,0.169157 0.1634168,0.24869 0.062957,0.07953 0.1346968,0.155545 0.2158278,0.226485 0.081124,0.07093 0.1718042,0.137121 0.2726713,0.197177 0.100855,0.06005 0.2118145,0.113848 0.3339543,0.160752 0.122133,0.04691 0.2547072,0.08664 0.3996803,0.118129 0.1449749,0.03149 0.3022627,0.05462 0.4716229,0.06839 0.1693636,0.01375 0.3509302,0.01865 0.5462295,0.01237 0.1952992,-0.0062 0.4042623,-0.02303 0.6270543,-0.05151 0.222792,-0.02848 0.459592,-0.06866 0.71143,-0.121686 0.251839,-0.05302 0.541495,-0.123336 0.86331,-0.207834 0.321813,-0.08449 0.675962,-0.183866 1.056931,-0.294873 0.761937,-0.222017 1.631434,-0.491361 2.56506,-0.789592 1.867252,-0.596459 3.990807,-1.30547 6.0254,-1.968203 1.017296,-0.331366 2.01237,-0.651402 2.941646,-0.939692 0.929277,-0.288289 1.793496,-0.545064 2.548183,-0.75051 0.377344,-0.102729 0.727033,-0.192785 1.044498,-0.267342 0.317465,-0.07456 0.602334,-0.133545 0.849099,-0.174972 0.125313,-0.02104 0.210321,-0.02312 0.315303,-0.03463 z"
       style="fill-opacity:0.313725;stroke:#000000;stroke-width:0"
       id="path2" />
    <path
       style="fill:#512b00;fill-opacity:1;stroke:#000000;stroke-width:0"
       d="M -5.3634328,65.373589 62.01752,17.76503 60.988225,16.315329 -6.6610565,64.113495 Z"
       id="path10" />
    <path
       style="fill:#6f6f6f;fill-opacity:1;stroke:#000000;stroke-width:0"
       d="m 61.938732,18.372927 -1.569119,-2.422488 7.664393,-3.474341 z"
       id="path11" />
    <path
       d="m 36.151167,17.481334 c -0.07062,-0.004 -0.134782,-0.0034 -0.190957,8.89e-4 -0.05619,0.0045 -0.105015,0.01255 -0.144769,0.02576 -0.07953,0.0265 -0.187254,0.07849 -0.314414,0.15099 -0.127169,0.07248 -0.273368,0.166098 -0.430767,0.277111 -0.157401,0.111013 -0.325364,0.238955 -0.495604,0.381028 -0.170241,0.142071 -0.343243,0.297946 -0.508927,0.46363 -0.165685,0.165685 -0.324338,0.3413 -0.468068,0.523136 -0.07186,0.09092 -0.140283,0.183554 -0.203393,0.277113 -0.06311,0.09357 -0.120998,0.18806 -0.173195,0.283329 -0.0522,0.09527 -0.09859,0.190837 -0.13767,0.28688 -0.03908,0.09604 -0.07122,0.192769 -0.09503,0.288659 -0.02382,0.09589 -0.03891,0.191191 -0.04531,0.285993 -0.0064,0.09481 -0.0034,0.18877 0.0098,0.281552 0.02652,0.185566 0.04763,0.385949 0.06662,0.597745 0.01899,0.211796 0.03583,0.435005 0.0524,0.666133 0.03314,0.462256 0.06689,0.956011 0.119898,1.453059 0.0265,0.248527 0.05787,0.498521 0.09682,0.745183 0.03893,0.246658 0.08489,0.490551 0.141228,0.728305 0.05634,0.237757 0.122924,0.469194 0.201618,0.691003 0.03934,0.11091 0.08216,0.219556 0.12789,0.325074 0.04574,0.105512 0.09441,0.207899 0.147433,0.307308 0.106046,0.198821 0.195921,0.39436 0.270894,0.58531 0.07497,0.19095 0.135797,0.377181 0.183853,0.557776 0.04806,0.180596 0.08308,0.355382 0.108366,0.523137 0.02526,0.167748 0.04044,0.328963 0.04708,0.481392 0.0067,0.152434 0.0052,0.296149 -0.0027,0.430767 -0.0079,0.134611 -0.02264,0.259602 -0.04086,0.373923 -0.01822,0.11433 -0.04041,0.218434 -0.06483,0.309975 -0.02444,0.09154 -0.05075,0.170876 -0.07727,0.237144 -0.01323,0.03314 -0.04254,0.06483 -0.08616,0.09592 -0.04362,0.03109 -0.101319,0.06155 -0.171426,0.09149 -0.140214,0.05985 -0.329603,0.118042 -0.552446,0.178524 -0.445689,0.120947 -1.025766,0.250871 -1.615596,0.416555 -0.294917,0.08284 -0.592278,0.1743 -0.876633,0.278888 -0.142173,0.0523 -0.281067,0.107919 -0.414779,0.166975 -0.133717,0.05906 -0.26233,0.1216 -0.383693,0.188293 -0.121359,0.06669 -0.23593,0.137069 -0.341059,0.212274 -0.105135,0.07521 -0.200978,0.155201 -0.285995,0.239809 -0.08501,0.0846 -0.159258,0.174238 -0.220268,0.269117 -0.03051,0.04744 -0.05796,0.09639 -0.08171,0.146556 -0.02375,0.05015 -0.04383,0.101525 -0.0604,0.154548 -0.0165,0.05302 -0.03969,0.106802 -0.07016,0.16077 -0.03047,0.05397 -0.0683,0.107816 -0.111906,0.16254 -0.04362,0.05473 -0.09329,0.109759 -0.14922,0.165205 -0.05591,0.05543 -0.11806,0.11127 -0.18563,0.166974 -0.135144,0.111426 -0.292954,0.222902 -0.469847,0.334843 -0.17689,0.111941 -0.37282,0.223836 -0.585309,0.334843 -0.21249,0.111013 -0.441086,0.221776 -0.683009,0.330402 -0.241923,0.108624 -0.496861,0.214949 -0.762057,0.319744 -0.265197,0.104791 -0.541034,0.207796 -0.823341,0.30731 -0.28231,0.09951 -0.571826,0.195875 -0.865086,0.288658 -0.293258,0.09278 -0.590241,0.181827 -0.888178,0.266453 -0.297936,0.08463 -0.59683,0.164843 -0.893507,0.239809 -0.296677,0.07497 -0.591118,0.14482 -0.880184,0.208721 -0.289068,0.0639 -0.572764,0.12184 -0.848211,0.173196 -0.275448,0.05136 -0.542879,0.09584 -0.798473,0.133219 -0.255591,0.03738 -0.499618,0.06775 -0.729194,0.0897 -0.229576,0.02195 -0.444757,0.03578 -0.642153,0.04085 -0.197396,0.0052 -0.377402,0.0017 -0.536459,-0.01152 -0.318113,-0.0265 -0.667561,-0.04024 -1.032063,-0.04085 -0.364504,-6.21e-4 -0.744012,0.01151 -1.12177,0.03553 -0.377758,0.02403 -0.753235,0.06003 -1.11111,0.107472 -0.178937,0.02372 -0.353514,0.0506 -0.521362,0.07994 -0.167851,0.02934 -0.328963,0.06114 -0.481392,0.09592 -0.152434,0.03479 -0.296029,0.07181 -0.42899,0.111907 -0.13296,0.0401 -0.25569,0.08353 -0.365041,0.128784 -0.109345,0.04526 -0.205283,0.09274 -0.286881,0.142999 -0.08161,0.05025 -0.148361,0.103003 -0.198063,0.158088 -0.02485,0.02753 -0.04522,0.05565 -0.06129,0.08437 -0.01598,0.02872 -0.02781,0.05804 -0.03463,0.08793 -0.0069,0.02989 -0.0091,0.06045 -0.0062,0.09149 0.0029,0.03102 0.01066,0.06289 0.02398,0.09503 0.01323,0.03214 0.03193,0.06459 0.05596,0.09769 0.02403,0.03312 0.0534,0.06691 0.08882,0.101251 0.07083,0.06868 0.164929,0.139371 0.284216,0.212275 0.05964,0.03645 0.126258,0.07174 0.19984,0.105702 0.0736,0.03394 0.154153,0.06657 0.240698,0.09769 0.173085,0.06225 0.371375,0.118644 0.591527,0.170533 0.220148,0.05189 0.462491,0.09857 0.722976,0.140334 0.260486,0.04177 0.539023,0.07913 0.833112,0.11103 0.294085,0.0319 0.603635,0.05854 0.924592,0.08083 0.320961,0.02229 0.65366,0.03946 0.99476,0.0524 0.3411,0.01289 0.690939,0.02176 1.045386,0.02576 0.354447,0.004 0.713507,0.0033 1.074696,-0.0017 0.361189,-0.005 0.724228,-0.01409 1.085354,-0.02753 0.361125,-0.01358 0.72034,-0.03145 1.074696,-0.0533 0.354354,-0.02184 0.703656,-0.04826 1.044496,-0.07817 0.340843,-0.02991 0.673274,-0.06356 0.993873,-0.10125 0.320596,-0.03769 0.629194,-0.07911 0.922816,-0.12435 0.293623,-0.04522 0.572306,-0.09405 0.832223,-0.146556 0.259917,-0.05251 0.501721,-0.109243 0.721201,-0.168763 0.219479,-0.05952 0.416554,-0.122012 0.588861,-0.188293 0.08616,-0.03314 0.170069,-0.06055 0.252245,-0.0826 0.08217,-0.02205 0.162591,-0.03908 0.240696,-0.05063 0.0781,-0.01152 0.154324,-0.01789 0.228261,-0.01954 0.07394,-0.0016 0.146143,0.0021 0.215827,0.0098 0.06969,0.0077 0.137155,0.01915 0.202505,0.03553 0.06535,0.01633 0.128268,0.03769 0.189182,0.06217 0.06091,0.02449 0.119434,0.05249 0.175859,0.08437 0.05643,0.03188 0.110755,0.06765 0.16254,0.106578 0.05177,0.03895 0.101233,0.08088 0.148326,0.12612 0.04709,0.04524 0.09185,0.09377 0.134113,0.144769 0.08454,0.102007 0.158999,0.215257 0.223821,0.33662 0.05146,0.09633 0.09195,0.201471 0.130555,0.307309 0.01,0.0275 0.0246,0.05189 0.03376,0.07994 0.04438,0.135969 0.07807,0.27786 0.10125,0.423662 0.0232,0.1458 0.03601,0.294991 0.0373,0.445864 0.0013,0.15087 -0.0089,0.303562 -0.0302,0.454749 -0.02133,0.151179 -0.0539,0.300908 -0.09859,0.447641 -0.01134,0.03745 -0.03058,0.07229 -0.04352,0.109242 v 3.533173 c 0.101732,-0.01117 0.22421,-0.03212 0.305533,-0.03376 0.08262,-0.0017 0.153844,0.0019 0.214051,0.01066 0.06021,0.0088 0.109208,0.02276 0.145662,0.04262 0.03646,0.01989 0.05801,0.04548 0.06483,0.07638 0.0069,0.0309 -0.0011,0.06715 -0.02221,0.108366 -0.02114,0.04122 -0.05557,0.08776 -0.103021,0.138564 -0.04745,0.05079 -0.108177,0.105547 -0.180301,0.165204 -0.107593,0.08898 -0.266642,0.1962 -0.424549,0.302868 v 4.183319 c 0.178561,-0.109243 0.351056,-0.219001 0.509815,-0.327738 0.177799,-0.121772 0.342866,-0.242523 0.492938,-0.363264 0.15008,-0.12074 0.285717,-0.241309 0.40501,-0.360601 0.119297,-0.119297 0.24622,-0.231608 0.38014,-0.338396 0.133924,-0.106784 0.274678,-0.207971 0.420996,-0.303756 0.146316,-0.09578 0.298255,-0.186386 0.454747,-0.272671 0.15649,-0.08628 0.317841,-0.167748 0.482281,-0.246026 0.164448,-0.07829 0.332548,-0.152847 0.502709,-0.224709 0.170155,-0.07186 0.342375,-0.141039 0.516032,-0.207833 0.347314,-0.13358 0.699227,-0.258424 1.047162,-0.381029 0.347936,-0.122614 0.691548,-0.243178 1.022293,-0.366817 0.330746,-0.123645 0.648391,-0.250558 0.944133,-0.387247 0.147879,-0.06834 0.290542,-0.139303 0.426326,-0.213162 0.135779,-0.07385 0.26489,-0.150938 0.386358,-0.231815 0.121463,-0.08087 0.235249,-0.165514 0.340171,-0.254907 0.104928,-0.08939 0.200727,-0.18303 0.286882,-0.28244 0.08616,-0.09941 0.171529,-0.21286 0.255795,-0.337507 0.08427,-0.124642 0.167662,-0.261089 0.249578,-0.406787 0.08191,-0.145697 0.162489,-0.30019 0.241585,-0.462741 0.0791,-0.162557 0.156903,-0.332827 0.232702,-0.508037 0.151609,-0.35042 0.296002,-0.721894 0.431656,-1.097789 0.135659,-0.375891 0.262384,-0.756618 0.378363,-1.124433 0.11598,-0.367818 0.220951,-0.72275 0.313527,-1.048939 0.09257,-0.326189 0.172588,-0.622957 0.238032,-0.873967 0.130881,-0.50202 0.203393,-0.820676 0.203393,-0.820676 0,0 0.03993,0.05161 0.103914,0.148326 0.06399,0.09671 0.152658,0.238685 0.249577,0.420109 0.04847,0.09071 0.09929,0.191445 0.150096,0.301093 0.05081,0.109655 0.101595,0.228213 0.150991,0.355271 0.0494,0.127066 0.09718,0.262918 0.141228,0.405897 0.04403,0.142981 0.08422,0.292908 0.119022,0.450307 0.03479,0.157402 0.06449,0.321733 0.08616,0.49205 0.02167,0.170309 0.0353,0.346732 0.03996,0.528467 0.0046,0.181733 2.41e-4,0.368791 -0.01598,0.56044 -0.01616,0.191648 -0.04426,0.387912 -0.08527,0.587974 -0.04101,0.200062 -0.09554,0.404092 -0.165204,0.611067 -0.06966,0.206974 -0.15448,0.417333 -0.256684,0.629718 -0.102213,0.212385 -0.221971,0.426747 -0.360602,0.643041 -0.06932,0.108142 -0.142946,0.217134 -0.222044,0.325962 -0.0791,0.10883 -0.163657,0.217496 -0.253131,0.326849 -0.08946,0.109346 -0.181274,0.215413 -0.275334,0.317968 -0.09407,0.102557 -0.190375,0.201599 -0.288659,0.29754 -0.196567,0.191879 -0.401373,0.370481 -0.611066,0.538236 -0.209692,0.167748 -0.424728,0.324415 -0.643041,0.470734 -0.218315,0.146315 -0.439263,0.282762 -0.661694,0.410338 -0.222427,0.127581 -0.445867,0.246411 -0.667908,0.357936 -0.222043,0.111528 -0.442769,0.215358 -0.659917,0.313527 -0.434297,0.196334 -0.854863,0.368522 -1.242561,0.527578 -0.3877,0.159051 -0.742988,0.305214 -1.04805,0.44853 -0.152537,0.07165 -0.292327,0.142294 -0.417445,0.214051 -0.125124,0.07176 -0.235428,0.14482 -0.328625,0.21938 -0.0466,0.03728 -0.08846,0.07528 -0.12612,0.113694 -0.03766,0.03841 -0.07109,0.07722 -0.09948,0.117234 -0.02838,0.04003 -0.05261,0.08068 -0.07105,0.122563 -0.01844,0.0419 -0.03116,0.08556 -0.03908,0.129678 -0.0079,0.04412 -0.01117,0.08924 -0.0081,0.135883 0.0031,0.04666 0.01272,0.09436 0.02753,0.143875 0.01478,0.04955 0.03518,0.100889 0.06217,0.153654 0.027,0.05277 0.0606,0.107094 0.100357,0.163417 0.03977,0.05634 0.08557,0.107764 0.136776,0.154548 0.05122,0.04677 0.107713,0.08855 0.169639,0.126121 0.06194,0.03757 0.128784,0.07078 0.200729,0.09948 0.07195,0.0287 0.148807,0.05352 0.230038,0.07372 0.08124,0.02019 0.166854,0.03608 0.256683,0.04797 0.08984,0.01186 0.183889,0.01976 0.281552,0.02398 0.195325,0.0084 0.405512,0.0021 0.627942,-0.01865 0.222431,-0.02071 0.456988,-0.05508 0.700772,-0.102144 0.243788,-0.04706 0.496442,-0.107008 0.755841,-0.177636 0.259397,-0.07062 0.525658,-0.15197 0.794919,-0.243362 0.269262,-0.09139 0.541971,-0.192628 0.815348,-0.301979 0.273375,-0.109346 0.547153,-0.227197 0.8189,-0.351719 0.271746,-0.124522 0.54121,-0.25568 0.805577,-0.392575 0.26437,-0.136897 0.524137,-0.278964 0.775381,-0.425437 0.251242,-0.14647 0.494158,-0.29705 0.726529,-0.450308 0.232371,-0.153259 0.453941,-0.309936 0.661692,-0.467181 0.207751,-0.157247 0.401708,-0.315853 0.579093,-0.474287 0.177385,-0.158433 0.338346,-0.31657 0.479615,-0.473398 0.07062,-0.07843 0.136674,-0.156113 0.197176,-0.233591 0.06052,-0.07746 0.115499,-0.15472 0.165205,-0.230927 0.04971,-0.07621 0.09639,-0.158244 0.141228,-0.246026 0.04484,-0.08778 0.08771,-0.181336 0.12789,-0.279775 0.08038,-0.196879 0.151885,-0.414239 0.21494,-0.64837 0.06306,-0.234132 0.11775,-0.484548 0.165204,-0.748735 0.04745,-0.264186 0.08724,-0.541624 0.120792,-0.82867 0.03355,-0.287047 0.06124,-0.583693 0.0826,-0.886403 0.02136,-0.302706 0.03711,-0.611642 0.04795,-0.922817 0.01083,-0.311172 0.0165,-0.62449 0.01865,-0.937027 0.0021,-0.312537 5.02e-4,-0.624298 -0.0045,-0.930811 -0.01,-0.613029 -0.03243,-1.207129 -0.0604,-1.753264 -0.02796,-0.546131 -0.06184,-1.043829 -0.09415,-1.465494 -0.06462,-0.843327 -0.12435,-1.380229 -0.12435,-1.380229 0,0 -0.01272,-0.152864 -0.0524,-0.388134 -0.01989,-0.11763 -0.04692,-0.255539 -0.08171,-0.405897 -0.03479,-0.150354 -0.07755,-0.313044 -0.130555,-0.478728 -0.05302,-0.165685 -0.11641,-0.334655 -0.190959,-0.498268 -0.03728,-0.08181 -0.07748,-0.161922 -0.120793,-0.239808 -0.04331,-0.07787 -0.08973,-0.153534 -0.13944,-0.225597 -0.04971,-0.07207 -0.102437,-0.141228 -0.158983,-0.20517 -0.05655,-0.06394 -0.116512,-0.123112 -0.1803,-0.176747 -0.06378,-0.05364 -0.131053,-0.101835 -0.202506,-0.142998 -0.07145,-0.04116 -0.146951,-0.07562 -0.226485,-0.102144 -0.31811,-0.106046 -0.715793,-0.258217 -1.133315,-0.427215 -0.417523,-0.169002 -0.854692,-0.354378 -1.252332,-0.526689 -0.795279,-0.344621 -1.431743,-0.635935 -1.431743,-0.635935 l -0.212273,-1.590727 c 0,0 0.02006,-0.0069 0.07638,-0.0533 0.05634,-0.04639 0.149065,-0.132256 0.294875,-0.291321 0.1458,-0.159052 0.344439,-0.391202 0.612843,-0.729196 0.268407,-0.337993 0.606139,-0.781925 1.030287,-1.36513 0.106046,-0.1458 0.202932,-0.297383 0.290435,-0.452971 0.0875,-0.15558 0.166252,-0.315322 0.236254,-0.478728 0.07,-0.1634 0.131208,-0.3299 0.184742,-0.499155 0.05354,-0.169261 0.09957,-0.341117 0.13767,-0.514256 0.0381,-0.173138 0.06866,-0.348081 0.09236,-0.523137 0.02372,-0.175054 0.04027,-0.350798 0.05063,-0.525801 0.01031,-0.175002 0.01444,-0.349264 0.01237,-0.522249 -0.0019,-0.172984 -0.0098,-0.344372 -0.0231,-0.513366 -0.01323,-0.169003 -0.03245,-0.335226 -0.05596,-0.498268 -0.02351,-0.163039 -0.05165,-0.322721 -0.08437,-0.47784 -0.03272,-0.155115 -0.07012,-0.305963 -0.11103,-0.451196 -0.04091,-0.145232 -0.08518,-0.284957 -0.133219,-0.418332 -0.04806,-0.133373 -0.0995,-0.260588 -0.153654,-0.38014 -0.05416,-0.119555 -0.111288,-0.231083 -0.170533,-0.334843 -0.05923,-0.103759 -0.120586,-0.199104 -0.183852,-0.285104 -0.06327,-0.08601 -0.128235,-0.162884 -0.194512,-0.229152 -0.06627,-0.06627 -0.140008,-0.131947 -0.219381,-0.197174 -0.07937,-0.06524 -0.164396,-0.130039 -0.254906,-0.193624 -0.18101,-0.127168 -0.382235,-0.250958 -0.595968,-0.368593 -0.213731,-0.11763 -0.439861,-0.2291 -0.670574,-0.333068 -0.230714,-0.103966 -0.466151,-0.199836 -0.698109,-0.285993 -0.231956,-0.08616 -0.460219,-0.162282 -0.677679,-0.226485 -0.217459,-0.0642 -0.423844,-0.116427 -0.611067,-0.154549 -0.187222,-0.0381 -0.355246,-0.06229 -0.496491,-0.07016 z m -0.178524,15.826447 a 1.7231094,1.7231094 0 0 1 0.245137,0.01777 1.7231094,1.7231094 0 0 1 0.239809,0.0524 1.7231094,1.7231094 0 0 1 0.230925,0.08527 1.7231094,1.7231094 0 0 1 0.215828,0.118128 1.7231094,1.7231094 0 0 1 0.196288,0.147433 1.7231094,1.7231094 0 0 1 0.174083,0.174081 1.7231094,1.7231094 0 0 1 0.147433,0.196288 1.7231094,1.7231094 0 0 1 0.118128,0.215828 1.7231094,1.7231094 0 0 1 0.08527,0.230926 1.7231094,1.7231094 0 0 1 0.0524,0.239808 1.7231094,1.7231094 0 0 1 0.01776,0.245137 1.7231094,1.7231094 0 0 1 -0.131449,0.659917 1.7231094,1.7231094 0 0 1 -0.373035,0.558664 1.7231094,1.7231094 0 0 1 -0.559551,0.373035 1.7231094,1.7231094 0 0 1 -0.65903,0.131448 1.7231094,1.7231094 0 0 1 -0.659915,-0.131448 1.7231094,1.7231094 0 0 1 -0.558664,-0.373035 1.7231094,1.7231094 0 0 1 -0.373923,-0.558664 1.7231094,1.7231094 0 0 1 -0.130555,-0.659917 1.7231094,1.7231094 0 0 1 0.130555,-0.659028 1.7231094,1.7231094 0 0 1 0.373923,-0.559551 1.7231094,1.7231094 0 0 1 0.558664,-0.373035 1.7231094,1.7231094 0 0 1 0.659915,-0.131449 z"
       style="fill-opacity:0.313725;stroke:#000000;stroke-width:0"
       id="path6" />
    <path
       style="fill:#000000;fill-opacity:1;stroke:#000000;stroke-width:0.449389;stroke-dasharray:none"
       d="m 33.549839,21.163419 0.80963,1.139317"
       id="path7" />
    <path
       style="fill:#000000;fill-opacity:1;stroke:#000000;stroke-width:0.449389;stroke-dasharray:none"
       d="m 34.375766,21.12895 -0.80963,1.139316"
       id="path7-1" />
    <path
       style="fill:#000000;fill-opacity:1;stroke:#000000;stroke-width:0.299863;stroke-dasharray:none"
       d="m 33.648843,19.719402 0.03192,0.932091"
       id="path7-8" />
    <path
       style="fill:#000000;fill-opacity:1;stroke:#000000;stroke-width:0.299863;stroke-dasharray:none"
       d="m 34.121415,20.003892 -0.869734,0.336711"
       id="path7-1-9" />
    <path
       d="m 48.107048,35.917459 v -4.18332 c -0.0538,0.03635 -0.08556,0.06481 -0.144768,0.103021 -0.233019,0.150355 -0.506763,0.31465 -0.815348,0.490275 -0.308586,0.175625 -0.651344,0.362683 -1.022294,0.557776 -0.37095,0.195091 -0.770048,0.398752 -1.190158,0.607514 -0.840222,0.417522 -1.765505,0.85667 -2.723154,1.294074 -0.957651,0.437405 -1.947323,0.872524 -2.916779,1.283419 -0.969455,0.410895 -1.91857,0.797097 -2.794208,1.135092 -0.437819,0.169003 -0.857771,0.325995 -1.252331,0.468068 -0.394559,0.142071 -0.764131,0.269903 -1.102229,0.379254 -0.338098,0.109345 -0.644614,0.200063 -0.913047,0.270894 -0.268433,0.07083 -0.498332,0.12093 -0.683898,0.147432 -0.371131,0.05302 -0.757369,0.11684 -1.144862,0.188294 -0.387491,0.07145 -0.776812,0.151042 -1.153743,0.238032 -0.37693,0.08698 -0.741469,0.181046 -1.080913,0.280664 -0.339444,0.09962 -0.653112,0.205063 -0.928147,0.314415 -0.137515,0.05467 -0.265549,0.110412 -0.381915,0.166975 -0.116375,0.05656 -0.221677,0.113333 -0.313527,0.171426 -0.09185,0.05809 -0.170516,0.117492 -0.23448,0.176747 -0.06397,0.05926 -0.112938,0.118472 -0.145662,0.178525 -0.03272,0.06005 -0.04897,0.120689 -0.04708,0.181188 0.0019,0.0605 0.02142,0.120604 0.06129,0.181187 0.03987,0.06059 0.09998,0.121789 0.181188,0.182077 0.08121,0.06029 0.184055,0.119761 0.309975,0.179413 0.125914,0.05964 0.259427,0.115808 0.400567,0.167869 0.141142,0.05206 0.289651,0.100562 0.444977,0.144768 0.155322,0.04422 0.317355,0.08468 0.485835,0.120792 0.16847,0.03611 0.34343,0.06729 0.524024,0.09503 0.180595,0.02776 0.36699,0.05192 0.558664,0.07105 0.191677,0.01913 0.38892,0.03327 0.590638,0.04352 0.201721,0.01031 0.408333,0.01667 0.619061,0.01777 0.210728,0.0011 0.425228,-0.0024 0.643929,-0.01066 0.218703,-0.0082 0.441382,-0.02203 0.667022,-0.03996 0.22564,-0.01794 0.454131,-0.04053 0.685673,-0.06839 0.231544,-0.02786 0.46614,-0.06057 0.70255,-0.09859 0.23641,-0.03804 0.474742,-0.08121 0.714983,-0.129678 0.240242,-0.04847 0.482606,-0.102488 0.725643,-0.161647 0.243037,-0.05916 0.48706,-0.123525 0.731859,-0.193621 0.244797,-0.07011 0.489888,-0.146058 0.73541,-0.227375 0.245522,-0.08131 0.491089,-0.168349 0.7363,-0.261125 0.980847,-0.37113 2.094552,-0.782065 3.24274,-1.219467 0.574091,-0.218702 1.157117,-0.443828 1.736388,-0.674128 0.57927,-0.230301 1.155062,-0.465741 1.715072,-0.704325 0.560008,-0.238585 1.103725,-0.480311 1.620037,-0.723865 0.516309,-0.243556 1.004886,-0.488425 1.453058,-0.733636 0.224088,-0.122597 0.437907,-0.245308 0.640377,-0.367705 0.02167,-0.01306 0.03987,-0.02597 0.06129,-0.03908 z"
       style="fill-opacity:0.313725;stroke:#000000;stroke-width:0"
       id="path3-4" />
    <path
       d="M 48.107048,30.923232 V 27.39006 c -0.03781,0.107868 -0.0758,0.216431 -0.127014,0.318856 -0.06877,0.137515 -0.149804,0.269038 -0.243362,0.392575 -0.09355,0.123542 -0.198882,0.238931 -0.317966,0.343725 -0.119091,0.104791 -0.251681,0.198488 -0.397017,0.279777 -0.07267,0.04065 -0.148893,0.07803 -0.228261,0.111906 -0.07937,0.03388 -0.161646,0.06497 -0.247803,0.09149 -1.378484,0.424148 -2.121232,0.662373 -2.518872,0.794919 -0.39764,0.132549 -0.450307,0.158983 -0.450307,0.158983 0,0 -0.550358,0.125777 -1.420197,0.317967 -0.869839,0.192193 -2.058698,0.450778 -3.337773,0.715871 -0.639539,0.132549 -1.30206,0.266835 -1.957545,0.395239 -0.655484,0.128407 -1.304607,0.251251 -1.918465,0.360602 -0.613857,0.109345 -1.192424,0.205278 -1.707079,0.280663 -0.514653,0.07538 -0.965508,0.129816 -1.323386,0.156319 -0.715751,0.05302 -1.410974,0.112972 -2.058796,0.189182 -0.323911,0.0381 -0.636222,0.08027 -0.932588,0.127891 -0.296365,0.04763 -0.576659,0.100219 -0.838439,0.159876 -0.26178,0.05964 -0.504602,0.126584 -0.724754,0.200729 -0.220152,0.07415 -0.418268,0.155785 -0.589751,0.246912 -0.08575,0.04556 -0.164895,0.09362 -0.237143,0.143892 -0.07226,0.05027 -0.137516,0.102798 -0.195399,0.158089 -0.05789,0.05529 -0.108349,0.113454 -0.150991,0.174083 -0.04264,0.06064 -0.07741,0.123801 -0.103914,0.190071 -0.05302,0.132549 -0.09565,0.286459 -0.122563,0.452972 -0.01341,0.08326 -0.02293,0.170119 -0.02753,0.258459 -0.0046,0.08833 -0.005,0.177991 8.87e-4,0.269118 0.0058,0.09113 0.01777,0.183691 0.03553,0.275334 0.01776,0.09164 0.04156,0.182789 0.07282,0.272671 0.03128,0.08989 0.07,0.177946 0.116358,0.263789 0.04634,0.08585 0.10046,0.169158 0.163417,0.24869 0.06296,0.07953 0.134696,0.155545 0.215827,0.226486 0.08112,0.07093 0.171805,0.13712 0.272672,0.197176 0.100855,0.06005 0.211814,0.113848 0.333954,0.160753 0.122133,0.0469 0.254707,0.08664 0.39968,0.118128 0.144975,0.03149 0.302263,0.05462 0.471623,0.06839 0.169364,0.01375 0.35093,0.01865 0.54623,0.01238 0.195299,-0.0062 0.404262,-0.02303 0.627054,-0.05151 0.222792,-0.02848 0.459592,-0.06866 0.71143,-0.121686 0.251839,-0.05302 0.541495,-0.123336 0.86331,-0.207834 0.321813,-0.08449 0.675962,-0.183867 1.056931,-0.294874 0.761937,-0.222017 1.631434,-0.491361 2.56506,-0.789592 1.867252,-0.596459 3.990808,-1.305469 6.0254,-1.968203 1.017296,-0.331366 2.01237,-0.651402 2.941646,-0.939691 0.929277,-0.28829 1.793496,-0.545064 2.548183,-0.750511 0.377344,-0.102729 0.727033,-0.192785 1.044498,-0.267342 0.317465,-0.07456 0.602334,-0.133545 0.849099,-0.174971 0.125313,-0.02104 0.210321,-0.02312 0.315303,-0.03463 z"
       style="fill-opacity:0.313725;stroke:#000000;stroke-width:0"
       id="path2-2" />
    <path
       d="m 54.939803,4.1943989 c -0.07062,-0.004 -0.134782,-0.0034 -0.190957,8.88e-4 -0.05619,0.0045 -0.105015,0.01255 -0.144769,0.02576 -0.07953,0.0265 -0.187254,0.07849 -0.314414,0.15099 -0.127169,0.07248 -0.273367,0.166098 -0.430767,0.277111 -0.157401,0.111013 -0.325364,0.238955 -0.495604,0.381029 -0.170241,0.14207 -0.343243,0.297945 -0.508927,0.463629 -0.165685,0.165685 -0.324338,0.3413 -0.468068,0.523136 -0.07186,0.09092 -0.140283,0.183554 -0.203393,0.277113 -0.06311,0.09357 -0.120998,0.18806 -0.173195,0.283329 -0.0522,0.09527 -0.09859,0.190837 -0.13767,0.28688 -0.03908,0.09604 -0.07122,0.192769 -0.09503,0.288659 -0.02382,0.09589 -0.03891,0.191192 -0.04531,0.285993 -0.0064,0.09481 -0.0034,0.18877 0.0098,0.281552 0.02652,0.185566 0.04763,0.38595 0.06662,0.597745 0.01899,0.211796 0.03583,0.435006 0.0524,0.666133 0.03314,0.462256 0.06689,0.956011 0.119898,1.4530591 0.0265,0.248527 0.05787,0.498521 0.09682,0.745183 0.03893,0.246658 0.08489,0.490551 0.141228,0.728305 0.05634,0.237757 0.122924,0.469194 0.201618,0.691003 0.03934,0.11091 0.08216,0.219556 0.12789,0.325074 0.04574,0.105513 0.09441,0.207899 0.147433,0.307309 0.106046,0.198821 0.195921,0.394359 0.270894,0.58531 0.07497,0.190949 0.135797,0.37718 0.183853,0.557776 0.04805,0.180595 0.08308,0.355381 0.108366,0.523136 0.02527,0.167748 0.04044,0.328963 0.04708,0.481392 0.0067,0.152434 0.0052,0.296149 -0.0027,0.430767 -0.0079,0.134611 -0.02264,0.259602 -0.04086,0.373924 -0.01822,0.11433 -0.04041,0.218433 -0.06483,0.309974 -0.02444,0.09154 -0.05075,0.170876 -0.07727,0.237144 -0.01323,0.03314 -0.04254,0.06483 -0.08616,0.09592 -0.04362,0.03109 -0.101319,0.06155 -0.171426,0.09149 -0.140214,0.05985 -0.329603,0.118042 -0.552446,0.178524 -0.445689,0.120948 -1.025766,0.250871 -1.615596,0.416555 -0.294917,0.08284 -0.592278,0.1743 -0.876633,0.278888 -0.142173,0.0523 -0.281067,0.107919 -0.414779,0.166975 -0.133717,0.05905 -0.26233,0.1216 -0.383693,0.188294 -0.121359,0.06669 -0.23593,0.137068 -0.341059,0.212273 -0.105135,0.07521 -0.200978,0.155201 -0.285995,0.239809 -0.08501,0.0846 -0.159258,0.174238 -0.220268,0.269117 -0.03051,0.04744 -0.05795,0.09639 -0.08171,0.146556 -0.02375,0.05015 -0.04383,0.101526 -0.0604,0.154548 -0.0165,0.05302 -0.03969,0.106802 -0.07016,0.16077 -0.03047,0.05397 -0.0683,0.107816 -0.111906,0.162541 -0.04362,0.05472 -0.09329,0.109758 -0.14922,0.165204 -0.05591,0.05543 -0.11806,0.111271 -0.18563,0.166975 -0.135144,0.111425 -0.292954,0.222902 -0.469847,0.334842 -0.17689,0.111941 -0.37282,0.223836 -0.585309,0.334843 -0.21249,0.111013 -0.441086,0.221777 -0.683009,0.330402 -0.241923,0.108624 -0.496861,0.21495 -0.762057,0.319744 -0.265197,0.104791 -0.541034,0.207796 -0.823341,0.307311 -0.28231,0.09951 -0.571826,0.195875 -0.865086,0.288657 -0.293258,0.09278 -0.590241,0.181828 -0.888178,0.266453 -0.297936,0.08463 -0.59683,0.164843 -0.893507,0.239809 -0.296677,0.07497 -0.591118,0.14482 -0.880184,0.208721 -0.289068,0.0639 -0.572763,0.121841 -0.84821,0.173196 -0.275449,0.05136 -0.54288,0.09584 -0.798474,0.133219 -0.255591,0.03738 -0.499618,0.06775 -0.729194,0.0897 -0.229575,0.02195 -0.444757,0.03578 -0.642153,0.04086 -0.197396,0.0052 -0.377402,0.0017 -0.536459,-0.01152 -0.318112,-0.0265 -0.667561,-0.04023 -1.032062,-0.04085 -0.364505,-6.21e-4 -0.744013,0.01151 -1.121771,0.03553 -0.377757,0.02403 -0.753235,0.06003 -1.11111,0.107472 -0.178937,0.02372 -0.353514,0.0506 -0.521361,0.07994 -0.167852,0.02934 -0.328964,0.06114 -0.481393,0.09592 -0.152434,0.03479 -0.296028,0.07181 -0.428989,0.111906 -0.132961,0.0401 -0.255691,0.08353 -0.365041,0.128785 -0.109346,0.04525 -0.205284,0.09274 -0.286882,0.142998 -0.0816,0.05026 -0.148361,0.103003 -0.198063,0.158089 -0.02485,0.02753 -0.04522,0.05565 -0.06129,0.08437 -0.01598,0.02872 -0.02781,0.05804 -0.03463,0.08793 -0.0069,0.02989 -0.0091,0.06045 -0.0062,0.09149 0.0029,0.03102 0.01066,0.06289 0.02398,0.09503 0.01324,0.03214 0.03193,0.06459 0.05596,0.09769 0.02403,0.03312 0.0534,0.06691 0.08882,0.101251 0.07083,0.06868 0.16493,0.139372 0.284216,0.212275 0.05964,0.03645 0.126258,0.07174 0.19984,0.105702 0.0736,0.03394 0.154153,0.06657 0.240698,0.09769 0.173085,0.06225 0.371375,0.118644 0.591527,0.170533 0.220148,0.05189 0.462491,0.09857 0.722977,0.140334 0.260485,0.04176 0.539022,0.07913 0.833111,0.11103 0.294085,0.0319 0.603635,0.05854 0.924592,0.08083 0.320961,0.02229 0.653661,0.03946 0.99476,0.0524 0.341101,0.01289 0.690939,0.02176 1.045386,0.02576 0.354447,0.004 0.713507,0.0033 1.074696,-0.0017 0.361189,-0.005 0.724228,-0.01409 1.085354,-0.02753 0.361126,-0.01358 0.72034,-0.03145 1.074696,-0.0533 0.354354,-0.02184 0.703656,-0.04826 1.044496,-0.07817 0.340843,-0.02991 0.673274,-0.06356 0.993873,-0.10125 0.320596,-0.03769 0.629194,-0.07911 0.922816,-0.12435 0.293623,-0.04522 0.572307,-0.09405 0.832223,-0.146556 0.259917,-0.05251 0.501721,-0.109243 0.721201,-0.168762 0.219479,-0.05952 0.416554,-0.122013 0.588861,-0.188294 0.08616,-0.03314 0.170069,-0.06055 0.252245,-0.0826 0.08217,-0.02205 0.162591,-0.03908 0.240696,-0.05063 0.0781,-0.01152 0.154324,-0.01789 0.228261,-0.01954 0.07394,-0.0016 0.146143,0.0021 0.215827,0.0098 0.0697,0.0077 0.137155,0.01915 0.202505,0.03553 0.06535,0.01633 0.128268,0.03769 0.189182,0.06217 0.06091,0.02449 0.119434,0.05249 0.175859,0.08437 0.05643,0.03188 0.110755,0.06765 0.16254,0.106578 0.05177,0.03895 0.101233,0.08088 0.148326,0.126121 0.04709,0.04524 0.09185,0.09377 0.134113,0.144768 0.08454,0.102007 0.158999,0.215257 0.223821,0.33662 0.05146,0.09634 0.09195,0.201472 0.130555,0.307309 0.01,0.0275 0.02459,0.05189 0.03376,0.07994 0.04438,0.135969 0.07807,0.277861 0.10125,0.423662 0.0232,0.1458 0.03601,0.294991 0.0373,0.445864 0.0013,0.150871 -0.0089,0.303562 -0.0302,0.454749 -0.02133,0.151179 -0.0539,0.300908 -0.09859,0.447641 -0.01134,0.03745 -0.03058,0.07229 -0.04352,0.109243 v 3.533172 c 0.101732,-0.01117 0.22421,-0.03212 0.305533,-0.03376 0.08262,-0.0017 0.153844,0.0019 0.214051,0.01066 0.06021,0.0088 0.109208,0.02276 0.145662,0.04262 0.03646,0.01989 0.05801,0.04548 0.06483,0.07638 0.0069,0.0309 -0.0011,0.06715 -0.02221,0.108366 -0.02114,0.04122 -0.05557,0.08776 -0.103021,0.138564 -0.04745,0.05079 -0.108177,0.105547 -0.180301,0.165204 -0.107593,0.08898 -0.266642,0.1962 -0.424549,0.302868 v 4.183319 c 0.178561,-0.109242 0.351056,-0.219 0.509815,-0.327738 0.177799,-0.121772 0.342866,-0.242523 0.492938,-0.363263 0.15008,-0.120741 0.285717,-0.24131 0.40501,-0.360602 0.119297,-0.119297 0.24622,-0.231607 0.38014,-0.338395 0.133924,-0.106785 0.274678,-0.207972 0.420996,-0.303757 0.146316,-0.09578 0.298255,-0.186386 0.454747,-0.272671 0.15649,-0.08628 0.317841,-0.167748 0.482281,-0.246026 0.164448,-0.07829 0.332548,-0.152846 0.502709,-0.224708 0.170155,-0.07186 0.342375,-0.141039 0.516032,-0.207834 0.347314,-0.13358 0.699227,-0.258423 1.047162,-0.381029 0.347936,-0.122614 0.691548,-0.243178 1.022293,-0.366816 0.330746,-0.123646 0.648391,-0.250558 0.944133,-0.387247 0.147879,-0.06834 0.290542,-0.139303 0.426326,-0.213162 0.135779,-0.07385 0.26489,-0.150939 0.386358,-0.231816 0.121463,-0.08087 0.235249,-0.165513 0.340171,-0.254906 0.104928,-0.08939 0.200727,-0.183031 0.286882,-0.282441 0.08616,-0.09941 0.171529,-0.212859 0.255795,-0.337507 0.08427,-0.124642 0.167662,-0.261089 0.249578,-0.406787 0.08192,-0.145697 0.162489,-0.30019 0.241585,-0.462741 0.0791,-0.162557 0.156903,-0.332826 0.232702,-0.508037 0.151609,-0.35042 0.296002,-0.721894 0.431656,-1.097789 0.135659,-0.375891 0.262384,-0.756617 0.378363,-1.124432 0.11598,-0.367819 0.220951,-0.72275 0.313527,-1.048939 0.09257,-0.32619 0.172588,-0.622957 0.238032,-0.873968 0.130881,-0.50202 0.203393,-0.820676 0.203393,-0.820676 0,0 0.03993,0.05161 0.103914,0.148326 0.06399,0.09671 0.152658,0.238686 0.249577,0.42011 0.04847,0.09071 0.09929,0.191444 0.150096,0.301092 0.05081,0.109655 0.101595,0.228213 0.150991,0.355272 0.0494,0.127065 0.09718,0.262917 0.141228,0.405897 0.04403,0.142981 0.08422,0.292907 0.119022,0.450307 0.03479,0.157401 0.06449,0.321732 0.08616,0.49205 0.02167,0.170309 0.0353,0.346731 0.03996,0.528466 0.0046,0.181733 2.41e-4,0.368791 -0.01598,0.56044 -0.01616,0.191649 -0.04426,0.387912 -0.08527,0.587974 -0.04101,0.200062 -0.09554,0.404092 -0.165204,0.611067 -0.06966,0.206974 -0.15448,0.417333 -0.256684,0.629718 -0.102213,0.212386 -0.221971,0.426747 -0.360602,0.643041 -0.06932,0.108142 -0.142946,0.217134 -0.222044,0.325962 -0.0791,0.10883 -0.163657,0.217497 -0.253131,0.326849 -0.08946,0.109346 -0.181274,0.215414 -0.275334,0.317969 -0.09407,0.102556 -0.190375,0.201598 -0.288659,0.297539 -0.196567,0.191879 -0.401373,0.370481 -0.611066,0.538236 -0.209692,0.167748 -0.424728,0.324415 -0.643041,0.470734 -0.218315,0.146316 -0.439262,0.282762 -0.661694,0.410338 -0.222427,0.127582 -0.445867,0.246411 -0.667908,0.357936 -0.222043,0.111528 -0.442769,0.215359 -0.659917,0.313527 -0.434297,0.196334 -0.854863,0.368522 -1.242561,0.527578 -0.3877,0.159051 -0.742988,0.305214 -1.04805,0.44853 -0.152537,0.07165 -0.292327,0.142294 -0.417445,0.214051 -0.125124,0.07176 -0.235428,0.14482 -0.328625,0.21938 -0.04659,0.03728 -0.08846,0.07528 -0.12612,0.113694 -0.03766,0.03841 -0.07109,0.07722 -0.09948,0.117235 -0.02838,0.04003 -0.05261,0.08068 -0.07105,0.122562 -0.01844,0.0419 -0.03116,0.08556 -0.03908,0.129678 -0.0079,0.04412 -0.01117,0.08924 -0.0081,0.135883 0.0031,0.04666 0.01272,0.09436 0.02753,0.143875 0.01478,0.04955 0.03518,0.10089 0.06217,0.153655 0.027,0.05277 0.0606,0.107094 0.100357,0.163416 0.03977,0.05634 0.08557,0.107765 0.136776,0.154549 0.05122,0.04677 0.107713,0.08855 0.169639,0.12612 0.06194,0.03757 0.128784,0.07078 0.200729,0.09948 0.07195,0.0287 0.148807,0.05352 0.230038,0.07372 0.08124,0.0202 0.166854,0.03608 0.256683,0.04797 0.08984,0.01186 0.183889,0.01976 0.281552,0.02398 0.195325,0.0084 0.405512,0.0021 0.627942,-0.01865 0.222431,-0.02071 0.456988,-0.05508 0.700772,-0.102144 0.243788,-0.04706 0.496442,-0.107008 0.755841,-0.177636 0.259397,-0.07062 0.525658,-0.15197 0.794919,-0.243362 0.269262,-0.09138 0.541971,-0.192628 0.815348,-0.301979 0.273375,-0.109345 0.547153,-0.227197 0.8189,-0.351719 0.271746,-0.124522 0.54121,-0.25568 0.805577,-0.392575 0.26437,-0.136897 0.524137,-0.278964 0.775381,-0.425437 0.251242,-0.14647 0.494158,-0.29705 0.726529,-0.450307 0.232371,-0.153259 0.453941,-0.309937 0.661692,-0.467182 0.207752,-0.157247 0.401708,-0.315853 0.579093,-0.474287 0.177385,-0.158432 0.338346,-0.316569 0.479615,-0.473398 0.07062,-0.07843 0.136674,-0.156112 0.197176,-0.233591 0.06052,-0.07746 0.115499,-0.15472 0.165205,-0.230927 0.0497,-0.07621 0.09639,-0.158243 0.141228,-0.246026 0.04484,-0.08778 0.08771,-0.181336 0.12789,-0.279775 0.08038,-0.196878 0.151885,-0.414239 0.21494,-0.64837 0.06306,-0.234132 0.11775,-0.484547 0.165204,-0.748735 0.04745,-0.264186 0.08724,-0.541623 0.120792,-0.82867 0.03355,-0.287047 0.06124,-0.583693 0.0826,-0.886402 0.02136,-0.302706 0.03711,-0.611643 0.04795,-0.922817 0.01083,-0.311173 0.0165,-0.62449 0.01865,-0.937028 0.0021,-0.312537 5.02e-4,-0.624297 -0.0045,-0.93081 -0.01,-0.61303 -0.03243,-1.20713 -0.0604,-1.753265 -0.02796,-0.546131 -0.06184,-1.043829 -0.09415,-1.465493 -0.06462,-0.843328 -0.12435,-1.38023 -0.12435,-1.38023 0,0 -0.01272,-0.152864 -0.0524,-0.388134 -0.01989,-0.117629 -0.04692,-0.255539 -0.08171,-0.405896 -0.03479,-0.150355 -0.07755,-0.313045 -0.130555,-0.478729 -0.05302,-0.165685 -0.11641,-0.334655 -0.190959,-0.498268 -0.03728,-0.08181 -0.07748,-0.161921 -0.120793,-0.239807 -0.04331,-0.07788 -0.08973,-0.153535 -0.13944,-0.225597 -0.04971,-0.07207 -0.102437,-0.141228 -0.158983,-0.20517 -0.05655,-0.06394 -0.116512,-0.123113 -0.1803,-0.176748 -0.06378,-0.05364 -0.131053,-0.101834 -0.202506,-0.142998 -0.07145,-0.04116 -0.146951,-0.07562 -0.226485,-0.102144 -0.31811,-0.106046 -0.715793,-0.258217 -1.133315,-0.427214 -0.417523,-0.169003 -0.854692,-0.354378 -1.252332,-0.52669 -0.795278,-0.34462 -1.431743,-0.635935 -1.431743,-0.635935 l -0.212273,-1.590727 c 0,0 0.02006,-0.0069 0.07638,-0.0533 0.05634,-0.04639 0.149065,-0.132256 0.294875,-0.291321 0.1458,-0.159051 0.344439,-0.391202 0.612843,-0.729195 0.268407,-0.337994 0.606139,-0.781926 1.030287,-1.365131 0.106046,-0.1458 0.202932,-0.297383 0.290435,-0.452971 0.0875,-0.155579 0.166252,-0.315321 0.236254,-0.478728 0.07,-0.1634 0.131208,-0.3299 0.184742,-0.499155 0.05354,-0.169261 0.09957,-0.341116 0.13767,-0.514256 0.0381,-0.173138 0.06866,-0.348081 0.09236,-0.523137 0.02372,-0.175054 0.04027,-0.350798 0.05063,-0.5258 0.01031,-0.1750031 0.01444,-0.3492651 0.01237,-0.5222501 -0.0019,-0.172984 -0.0098,-0.344372 -0.0231,-0.513366 -0.01323,-0.169003 -0.03245,-0.335226 -0.05596,-0.498268 -0.02351,-0.163039 -0.05165,-0.322721 -0.08437,-0.47784 -0.03272,-0.155115 -0.07012,-0.305963 -0.11103,-0.451196 -0.04091,-0.145232 -0.08518,-0.284956 -0.133219,-0.418331 -0.04805,-0.133374 -0.0995,-0.260589 -0.153654,-0.380141 -0.05416,-0.119554 -0.111288,-0.231083 -0.170533,-0.334842 -0.05923,-0.10376 -0.120586,-0.199105 -0.183852,-0.285105 -0.06327,-0.08601 -0.128234,-0.162884 -0.194512,-0.229151 -0.06627,-0.06627 -0.140008,-0.131947 -0.219381,-0.197175 -0.07937,-0.06524 -0.164396,-0.130039 -0.254906,-0.193623 -0.18101,-0.127169 -0.382235,-0.250959 -0.595968,-0.368594 -0.213731,-0.11763 -0.439861,-0.2291 -0.670574,-0.333067 -0.230714,-0.103966 -0.466151,-0.199837 -0.698109,-0.285994 -0.231956,-0.08616 -0.460219,-0.162282 -0.677679,-0.226485 -0.217459,-0.06419 -0.423844,-0.116427 -0.611067,-0.154548 -0.187222,-0.0381 -0.355246,-0.06229 -0.496491,-0.07016 z M 54.761279,20.020845 a 1.7231094,1.7231094 0 0 1 0.245137,0.01777 1.7231094,1.7231094 0 0 1 0.239809,0.0524 1.7231094,1.7231094 0 0 1 0.230925,0.08527 1.7231094,1.7231094 0 0 1 0.215828,0.118128 1.7231094,1.7231094 0 0 1 0.196288,0.147433 1.7231094,1.7231094 0 0 1 0.174083,0.174081 1.7231094,1.7231094 0 0 1 0.147433,0.196288 1.7231094,1.7231094 0 0 1 0.118128,0.215828 1.7231094,1.7231094 0 0 1 0.08527,0.230927 1.7231094,1.7231094 0 0 1 0.0524,0.239807 1.7231094,1.7231094 0 0 1 0.01776,0.245137 1.7231094,1.7231094 0 0 1 -0.131449,0.659917 1.7231094,1.7231094 0 0 1 -0.373035,0.558664 1.7231094,1.7231094 0 0 1 -0.559551,0.373035 1.7231094,1.7231094 0 0 1 -0.65903,0.131449 1.7231094,1.7231094 0 0 1 -0.659915,-0.131449 1.7231094,1.7231094 0 0 1 -0.558664,-0.373035 1.7231094,1.7231094 0 0 1 -0.373923,-0.558664 1.7231094,1.7231094 0 0 1 -0.130555,-0.659917 1.7231094,1.7231094 0 0 1 0.130555,-0.659028 1.7231094,1.7231094 0 0 1 0.373923,-0.559551 1.7231094,1.7231094 0 0 1 0.558664,-0.373035 1.7231094,1.7231094 0 0 1 0.659915,-0.131448 z"
       style="fill-opacity:0.313725;stroke:#000000;stroke-width:0"
       id="path6-0" />
    <path
       style="fill:#000000;fill-opacity:1;stroke:#000000;stroke-width:0.449389;stroke-dasharray:none"
       d="m 52.338475,7.8764829 0.80963,1.139317"
       id="path7-3" />
    <path
       style="fill:#000000;fill-opacity:1;stroke:#000000;stroke-width:0.449389;stroke-dasharray:none"
       d="m 53.164402,7.8420139 -0.80963,1.139317"
       id="path7-1-8" />
    <path
       style="fill:#000000;fill-opacity:1;stroke:#000000;stroke-width:0.299863;stroke-dasharray:none"
       d="m 52.437479,6.4324659 0.03192,0.932092"
       id="path7-8-4" />
    <path
       style="fill:#000000;fill-opacity:1;stroke:#000000;stroke-width:0.299863;stroke-dasharray:none"
       d="m 52.910051,6.7169559 -0.869734,0.336711"
       id="path7-1-9-3" />
    <path
       d="m 8.7895558,63.635584 v -4.227859 c -0.054372,0.03674 -0.086464,0.0655 -0.1463101,0.104118 -0.2354993,0.151955 -0.5121575,0.318 -0.824029,0.495495 -0.3118715,0.177494 -0.6582787,0.366544 -1.0331778,0.563714 -0.3748991,0.197168 -0.7782463,0.402997 -1.2028296,0.613983 -0.8491677,0.421967 -1.7843018,0.865791 -2.7521468,1.307852 -0.967847,0.442061 -1.9680562,0.881813 -2.9478342,1.297083 -0.9797757,0.415269 -1.9389961,0.805583 -2.8239565,1.147178 -0.4424807,0.170801 -0.8669043,0.329465 -1.2656653,0.473051 -0.3987598,0.143582 -0.7722658,0.272777 -1.1139638,0.383292 -0.341697,0.110509 -0.651478,0.202193 -0.922769,0.273777 -0.271291,0.07158 -0.503637,0.122218 -0.691179,0.149003 -0.375083,0.05359 -0.765432,0.118084 -1.157051,0.190298 -0.391617,0.07221 -0.785083,0.15265 -1.166028,0.240567 -0.380941,0.0879 -0.7493627,0.182973 -1.0924197,0.283651 -0.343059,0.100684 -0.660066,0.207247 -0.938029,0.317764 -0.13898,0.05526 -0.268377,0.111586 -0.385982,0.168752 -0.117613,0.05717 -0.224037,0.114539 -0.316865,0.173251 -0.09283,0.05872 -0.172331,0.118743 -0.236976,0.178629 -0.06465,0.05989 -0.11414,0.119734 -0.147213,0.180426 -0.03308,0.06069 -0.04948,0.121974 -0.04758,0.183117 0.0019,0.06115 0.02164,0.121888 0.06194,0.183116 0.0403,0.06123 0.101039,0.123086 0.183117,0.184016 0.08208,0.06093 0.186016,0.121035 0.313276,0.181323 0.127254,0.06028 0.262188,0.117041 0.404832,0.169656 0.142644,0.05262 0.292735,0.101634 0.449715,0.14631 0.156975,0.04469 0.320733,0.08559 0.491008,0.122078 0.170263,0.0365 0.347085,0.06801 0.5296027,0.09604 0.182518,0.02805 0.370897,0.05247 0.564612,0.0718 0.193716,0.01933 0.393059,0.03363 0.596926,0.04399 0.203868,0.01044 0.41268,0.01685 0.625652,0.01795 0.212972,0.0011 0.429754,-0.0024 0.650785,-0.01076 0.221031,-0.0083 0.446081,-0.02227 0.674123,-0.04038 0.228042,-0.01813 0.458967,-0.04095 0.692974,-0.06911 0.234009,-0.02815 0.471103,-0.06121 0.710029,-0.09964 0.238927,-0.03844 0.479798,-0.08208 0.722596,-0.131059 0.2428,-0.04899 0.4877435,-0.103576 0.7333688,-0.163368 0.2456241,-0.05979 0.4922463,-0.12484 0.7396515,-0.195683 0.2474032,-0.07086 0.4951028,-0.147613 0.7432398,-0.229795 0.248136,-0.08219 0.4963169,-0.170142 0.7441397,-0.263905 0.9912891,-0.375081 2.116852,-0.790392 3.2772637,-1.232452 C 2.066607,66.691823 2.6558403,66.4643 3.2412777,66.231549 3.8267161,65.998797 4.4086373,65.760848 4.9746102,65.519726 5.540581,65.2786 6.0900868,65.0343 6.6118952,64.788153 c 0.5218073,-0.24615 1.0155853,-0.493626 1.4685301,-0.741448 0.2264739,-0.123902 0.4425684,-0.247919 0.6471944,-0.37162 0.021904,-0.01321 0.040299,-0.02625 0.061941,-0.0395 z"
       style="fill-opacity:0.313725;stroke:#000000;stroke-width:0"
       id="path3-9" />
    <path
       d="m 8.7895558,58.588184 v -3.57079 c -0.038211,0.109016 -0.076598,0.218735 -0.1283667,0.322251 -0.069499,0.138979 -0.1513985,0.271901 -0.2459519,0.396754 -0.094545,0.124858 -0.2010013,0.241475 -0.3213522,0.347386 -0.1203591,0.105905 -0.2543603,0.2006 -0.4012435,0.282755 -0.073446,0.04108 -0.1504787,0.07887 -0.2306917,0.113098 -0.080222,0.03423 -0.163367,0.06566 -0.2504412,0.09245 -1.3931612,0.428664 -2.1438165,0.669426 -2.5456906,0.803383 -0.4018741,0.13396 -0.4551017,0.160675 -0.4551017,0.160675 0,0 -0.5562178,0.127117 -1.435317,0.321353 -0.8791004,0.194239 -2.0806166,0.455577 -3.37331,0.723493 -0.6463489,0.133959 -1.3159226,0.269675 -1.9783877,0.399447 -0.662463,0.129774 -1.3184971,0.253926 -1.9388909,0.364441 -0.620392,0.11051 -1.205119,0.207464 -1.725253,0.283651 -0.520133,0.07618 -0.975789,0.131198 -1.337476,0.157983 -0.723372,0.05359 -1.425996,0.114176 -2.080715,0.191197 -0.327361,0.03852 -0.6429967,0.08111 -0.9425187,0.129252 -0.29952,0.04813 -0.582798,0.10129 -0.847365,0.161579 -0.264566,0.06027 -0.509975,0.127932 -0.73247,0.202865 -0.222496,0.07494 -0.422722,0.157445 -0.596031,0.249542 -0.08666,0.04605 -0.16665,0.09461 -0.239668,0.145424 -0.07303,0.05081 -0.13898,0.103889 -0.19748,0.159772 -0.05851,0.05589 -0.109501,0.114661 -0.152597,0.175937 -0.0431,0.06128 -0.07824,0.125117 -0.105021,0.192095 -0.05359,0.13396 -0.09666,0.289508 -0.123867,0.457793 -0.01355,0.08415 -0.02316,0.171932 -0.02782,0.261211 -0.0047,0.08926 -0.005,0.179887 8.96e-4,0.271984 0.0059,0.0921 0.01795,0.185648 0.03591,0.278265 0.01794,0.09262 0.042,0.184735 0.0736,0.275574 0.03162,0.09085 0.07075,0.17984 0.117597,0.266597 0.04683,0.08677 0.101529,0.17096 0.165157,0.251339 0.06363,0.08038 0.13613,0.157201 0.218125,0.228897 0.08199,0.07169 0.173634,0.13858 0.275575,0.199275 0.101927,0.06069 0.214069,0.115061 0.337509,0.162465 0.123434,0.04741 0.257419,0.08756 0.403936,0.119385 0.146519,0.03182 0.305482,0.05521 0.476644,0.06911 0.171168,0.0139 0.354667,0.01884 0.552046,0.0125 0.197379,-0.0063 0.408566,-0.02328 0.63373,-0.05205 0.225164,-0.02878 0.4644847,-0.0694 0.7190047,-0.122982 0.25452,-0.05359 0.54726,-0.124649 0.872501,-0.210046 0.32524,-0.08539 0.68316,-0.185824 1.068184,-0.298014 0.770049,-0.224381 1.648804,-0.496592 2.592369,-0.797998 1.8871338,-0.602809 4.0332983,-1.319368 6.0895531,-1.989158 1.0281268,-0.334894 2.033795,-0.658337 2.9729653,-0.949697 0.9391714,-0.291358 1.8125913,-0.550867 2.5753143,-0.758501 0.3813605,-0.103827 0.7347729,-0.194838 1.0556177,-0.270188 0.3208457,-0.07536 0.6087478,-0.134967 0.8581397,-0.176834 0.1266463,-0.02126 0.2125605,-0.02337 0.3186597,-0.03501 z"
       style="fill-opacity:0.313725;stroke:#000000;stroke-width:0"
       id="path2-4" />
    <path
       d="m 15.69506,31.57477 c -0.07137,-0.0039 -0.136218,-0.0034 -0.192992,8.98e-4 -0.05679,0.0045 -0.106132,0.01269 -0.14631,0.02604 -0.08038,0.02679 -0.189248,0.07934 -0.317761,0.152598 -0.128524,0.07325 -0.276279,0.167867 -0.435354,0.280061 -0.159077,0.112195 -0.328828,0.241499 -0.500881,0.385085 -0.172052,0.143584 -0.346897,0.301119 -0.514345,0.468566 -0.167449,0.16745 -0.32779,0.344933 -0.473051,0.528707 -0.07262,0.09188 -0.141777,0.185507 -0.205559,0.280063 -0.06379,0.09457 -0.122287,0.190062 -0.175039,0.286345 -0.05275,0.09628 -0.09964,0.192869 -0.139136,0.289935 -0.03951,0.09706 -0.07198,0.194822 -0.09604,0.291731 -0.02407,0.0969 -0.03933,0.193228 -0.04579,0.289038 -0.0065,0.09582 -0.0034,0.190781 0.0099,0.284551 0.0268,0.187542 0.04813,0.390059 0.06733,0.604109 0.01919,0.21405 0.03622,0.439637 0.05296,0.673225 0.03349,0.467178 0.06761,0.96619 0.121174,1.46853 0.02679,0.251173 0.05849,0.503828 0.09784,0.753117 0.03934,0.249284 0.0858,0.495774 0.142733,0.736058 0.05694,0.240289 0.124231,0.47419 0.203763,0.69836 0.03976,0.112092 0.08303,0.221894 0.129252,0.328536 0.04622,0.106635 0.09541,0.210112 0.149003,0.310581 0.107174,0.200937 0.198007,0.398557 0.273778,0.591541 0.07577,0.192981 0.137242,0.381196 0.185809,0.563714 0.04857,0.182518 0.08397,0.359166 0.109521,0.528707 0.02554,0.169534 0.04087,0.332465 0.04758,0.486517 0.0068,0.154057 0.0052,0.299302 -0.0028,0.435354 -0.008,0.136043 -0.02287,0.262365 -0.04129,0.377904 -0.01842,0.115548 -0.04084,0.220759 -0.06552,0.313274 -0.0247,0.09252 -0.05129,0.172697 -0.0781,0.239669 -0.01337,0.03349 -0.04299,0.06552 -0.08708,0.09695 -0.04409,0.03142 -0.102396,0.06221 -0.173252,0.09245 -0.141707,0.06048 -0.333112,0.119298 -0.558328,0.180424 -0.450433,0.122234 -1.036686,0.253542 -1.632796,0.42099 -0.298058,0.08372 -0.598584,0.176155 -0.885967,0.281857 -0.143687,0.05286 -0.284059,0.109068 -0.419195,0.168752 -0.1351416,0.05968 -0.2651233,0.122895 -0.3877783,0.190299 -0.1226518,0.0674 -0.2384414,0.138527 -0.3446908,0.214533 -0.1062536,0.07601 -0.2031175,0.156854 -0.2890401,0.242363 -0.085912,0.08549 -0.1609522,0.176094 -0.2226122,0.271982 -0.03083,0.04794 -0.058569,0.09742 -0.082581,0.148116 -0.024002,0.05069 -0.044297,0.102605 -0.061043,0.156194 -0.016672,0.05359 -0.04011,0.10794 -0.070909,0.162481 -0.030798,0.05454 -0.06903,0.108965 -0.1130971,0.164272 -0.044088,0.05531 -0.094284,0.110927 -0.1508096,0.166963 -0.056502,0.05602 -0.1193162,0.112455 -0.1876056,0.168753 -0.1365847,0.112611 -0.2960753,0.225275 -0.4748518,0.338408 -0.1787733,0.113132 -0.3767887,0.226219 -0.5915396,0.338408 -0.2147528,0.112194 -0.4457828,0.224136 -0.6902815,0.333919 -0.2444987,0.10978 -0.5021508,0.217238 -0.770171,0.323148 -0.2680201,0.105907 -0.5467934,0.210009 -0.8321065,0.310583 -0.2853151,0.100569 -0.5779142,0.19796 -0.8742968,0.291731 -0.2963806,0.09376 -0.5965247,0.183763 -0.8976336,0.269289 -0.3011088,0.08553 -0.6031854,0.166598 -0.9030205,0.242363 -0.2998362,0.07577 -0.5974111,0.146361 -0.8895551,0.210942 -0.292146,0.06458 -0.5788611,0.123138 -0.857241,0.175041 -0.2783818,0.0519 -0.5486601,0.09685 -0.8069752,0.134637 -0.258312,0.03778 -0.5049372,0.06848 -0.736957,0.09066 -0.2320207,0.02219 -0.4494933,0.03617 -0.6489912,0.04129 -0.1994968,0.0053 -0.3814199,0.0016 -0.5421695,-0.01164 -0.3215003,-0.02679 -0.6746695,-0.04067 -1.043051,-0.04129 -0.3683855,-6.27e-4 -0.7519343,0.01164 -1.1337143,0.03591 -0.381779,0.02428 -0.761254,0.06068 -1.12294,0.108616 -0.180841,0.02397 -0.357277,0.05114 -0.526912,0.08079 -0.169638,0.02965 -0.332465,0.06179 -0.486518,0.09695 -0.154057,0.03516 -0.29918,0.07257 -0.433557,0.113098 -0.134376,0.04052 -0.258412,0.08441 -0.368927,0.130155 -0.11051,0.04574 -0.207469,0.09374 -0.289937,0.144522 -0.08247,0.05079 -0.14994,0.104097 -0.200171,0.159771 -0.02512,0.02782 -0.04571,0.05624 -0.06194,0.08527 -0.01615,0.02902 -0.02811,0.05866 -0.03501,0.08887 -0.007,0.0302 -0.0092,0.0611 -0.0063,0.09246 0.003,0.03136 0.01077,0.06356 0.02423,0.09604 0.01337,0.03247 0.03227,0.06528 0.05656,0.09873 0.02428,0.03347 0.05397,0.06762 0.08978,0.102332 0.07158,0.06941 0.166686,0.140856 0.287242,0.214535 0.06028,0.03684 0.127603,0.0725 0.201968,0.106828 0.07438,0.03431 0.155794,0.06727 0.243261,0.09873 0.174927,0.06291 0.375328,0.119907 0.597825,0.172347 0.222491,0.05244 0.467414,0.09962 0.730673,0.141829 0.263259,0.04221 0.544763,0.07997 0.841981,0.112212 0.297217,0.03224 0.6100621,0.05917 0.9344367,0.0817 0.3243776,0.02253 0.6606204,0.03988 1.0053509,0.05296 0.3447325,0.01303 0.6982953,0.02199 1.0565165,0.02604 0.3582201,0.0039 0.7211027,0.0033 1.086138,-0.0018 0.3650353,-0.005 0.7319384,-0.01424 1.0969091,-0.02782 0.3649706,-0.01372 0.7280098,-0.03179 1.086138,-0.05386 0.3581272,-0.02208 0.7111492,-0.04877 1.0556176,-0.079 0.3444716,-0.03023 0.6804429,-0.06423 1.004454,-0.102334 0.3240091,-0.0381 0.6358931,-0.07996 0.9326422,-0.125674 0.2967491,-0.04571 0.5783987,-0.09504 0.8410829,-0.148117 0.2626842,-0.05307 0.5070628,-0.110405 0.7288804,-0.170558 0.2218146,-0.06015 0.4209878,-0.123312 0.59513,-0.190298 0.087081,-0.03349 0.1718787,-0.0612 0.2549294,-0.08348 0.08305,-0.02229 0.1643233,-0.0395 0.2432594,-0.05117 0.078927,-0.01164 0.1559681,-0.01808 0.2306907,-0.01975 0.07473,-0.0016 0.1476995,0.0021 0.2181261,0.0099 0.070439,0.0078 0.1386147,0.01935 0.2046605,0.03591 0.066043,0.01651 0.1296341,0.0381 0.191196,0.06283 0.061565,0.02475 0.1207068,0.05305 0.1777314,0.08527 0.057024,0.03222 0.111934,0.06837 0.1642711,0.107713 0.052315,0.03936 0.1023125,0.08175 0.1499056,0.127463 0.047596,0.04572 0.092823,0.09478 0.13554,0.14631 0.085441,0.103094 0.1606923,0.217548 0.2262046,0.340204 0.052012,0.09736 0.092927,0.203616 0.1319445,0.31058 0.010127,0.02779 0.024858,0.05244 0.034118,0.08078 0.04485,0.137416 0.078896,0.280819 0.1023334,0.428173 0.023448,0.147351 0.036393,0.298131 0.037689,0.450611 0.00136,0.152477 -0.00908,0.306794 -0.030516,0.45959 -0.021558,0.152789 -0.054476,0.304112 -0.09964,0.452407 -0.011463,0.03785 -0.030902,0.07306 -0.043984,0.110406 v 3.57079 c 0.1028137,-0.0113 0.2265971,-0.03247 0.3087864,-0.03412 0.0835,-0.0016 0.1554816,0.0019 0.2163293,0.01076 0.060845,0.0089 0.1103712,0.023 0.1472142,0.04308 0.036843,0.02009 0.058621,0.04595 0.065522,0.0772 0.007,0.03122 -0.00104,0.06786 -0.022446,0.109519 -0.021361,0.04165 -0.056157,0.08869 -0.1041186,0.140039 -0.047962,0.05134 -0.1093282,0.10667 -0.1822206,0.166963 -0.1087384,0.08993 -0.2694818,0.198289 -0.4290695,0.306093 v 4.227858 c 0.1804508,-0.110408 0.354783,-0.221335 0.515232,-0.33123 0.179692,-0.123068 0.3465168,-0.245105 0.4981867,-0.367132 0.1516772,-0.122025 0.2887594,-0.243878 0.4093234,-0.36444 0.120567,-0.120567 0.24884,-0.234073 0.384186,-0.341998 0.13535,-0.107922 0.277602,-0.210185 0.425478,-0.306991 0.147874,-0.0968 0.301431,-0.18837 0.459589,-0.275574 0.158156,-0.0872 0.321226,-0.169534 0.487416,-0.248645 0.166198,-0.07913 0.336089,-0.154474 0.508062,-0.227101 0.171965,-0.07262 0.34602,-0.142541 0.521525,-0.210047 0.351011,-0.135003 0.706672,-0.261175 1.058311,-0.385085 0.351641,-0.12392 0.698911,-0.245767 1.033178,-0.370722 0.334267,-0.124963 0.655294,-0.253226 0.954185,-0.391371 0.149454,-0.06906 0.293636,-0.140786 0.430865,-0.215432 0.137225,-0.07463 0.267711,-0.152545 0.390471,-0.234282 0.122757,-0.08173 0.237755,-0.167276 0.343793,-0.257621 0.106046,-0.09034 0.202864,-0.184979 0.289936,-0.285448 0.08708,-0.100475 0.173356,-0.215126 0.258519,-0.3411 0.08517,-0.125969 0.169447,-0.263869 0.252235,-0.411118 0.08279,-0.147247 0.16422,-0.303386 0.244158,-0.467667 0.07994,-0.164288 0.158573,-0.33637 0.23518,-0.513448 0.153224,-0.35415 0.299152,-0.72958 0.436251,-1.109476 0.137104,-0.379894 0.265179,-0.764674 0.382391,-1.136403 0.117215,-0.371736 0.223305,-0.730446 0.316866,-1.060108 0.09355,-0.329662 0.174425,-0.62959 0.240566,-0.883272 0.132274,-0.507365 0.205558,-0.829414 0.205558,-0.829414 0,0 0.04035,0.05216 0.105021,0.149906 0.06466,0.09774 0.154283,0.241225 0.252233,0.424581 0.04899,0.09169 0.10035,0.193483 0.151695,0.304298 0.05135,0.110822 0.102678,0.230642 0.152599,0.359054 0.04992,0.128419 0.09821,0.265717 0.142731,0.410219 0.0445,0.144503 0.08512,0.296026 0.120289,0.455102 0.03516,0.159077 0.06518,0.325157 0.08708,0.497289 0.0219,0.172122 0.03568,0.350422 0.04038,0.534092 0.0047,0.183669 2.44e-4,0.372718 -0.01615,0.566407 -0.01633,0.193689 -0.04472,0.392043 -0.08617,0.594234 -0.04145,0.202192 -0.09656,0.408395 -0.166963,0.617574 -0.0704,0.209177 -0.156124,0.421776 -0.259417,0.636422 -0.103304,0.214647 -0.224334,0.431291 -0.364441,0.649888 -0.07005,0.109293 -0.144468,0.219445 -0.224408,0.329432 -0.07994,0.109988 -0.1654,0.219812 -0.255826,0.330329 -0.09041,0.110509 -0.183204,0.217707 -0.278265,0.321354 -0.09506,0.103648 -0.192402,0.203745 -0.291732,0.300707 -0.198661,0.193922 -0.405647,0.374426 -0.617573,0.543966 -0.211925,0.169534 -0.42925,0.327869 -0.649888,0.475747 -0.220639,0.147873 -0.443938,0.285773 -0.668738,0.414707 -0.224796,0.128939 -0.450615,0.249034 -0.675019,0.361746 -0.224407,0.112716 -0.447484,0.217652 -0.666943,0.316866 -0.438922,0.198424 -0.863966,0.372445 -1.255792,0.533194 -0.391827,0.160745 -0.750897,0.308464 -1.059208,0.453306 -0.154161,0.07242 -0.295439,0.143808 -0.421889,0.21633 -0.126456,0.07251 -0.237935,0.146361 -0.332124,0.221716 -0.0471,0.03767 -0.08941,0.07609 -0.127463,0.114904 -0.03805,0.03882 -0.07185,0.07804 -0.100538,0.118483 -0.02868,0.04046 -0.05317,0.08154 -0.07181,0.123867 -0.01863,0.04234 -0.0315,0.08647 -0.03951,0.131059 -0.008,0.04459 -0.0113,0.09018 -0.0081,0.13733 0.0031,0.04716 0.01285,0.09536 0.02782,0.145406 0.01494,0.05008 0.03556,0.101958 0.06283,0.15529 0.02729,0.05333 0.06125,0.108235 0.101426,0.165157 0.0402,0.05694 0.08648,0.108912 0.138232,0.156194 0.05176,0.04726 0.10886,0.08949 0.171444,0.127463 0.0626,0.03797 0.130157,0.07154 0.202866,0.100537 0.07272,0.02902 0.150392,0.05409 0.232488,0.0745 0.08211,0.02041 0.168631,0.03645 0.259416,0.04849 0.0908,0.01199 0.185847,0.01997 0.28455,0.02423 0.197405,0.0086 0.409829,0.0021 0.634627,-0.01884 0.224799,-0.02094 0.461853,-0.05568 0.708234,-0.103231 0.246384,-0.04757 0.501728,-0.108147 0.763887,-0.179527 0.262161,-0.07137 0.531257,-0.153588 0.803383,-0.245954 0.272129,-0.09235 0.547742,-0.194678 0.824031,-0.305194 0.276284,-0.110509 0.552977,-0.229615 0.827617,-0.355464 0.27464,-0.125847 0.546973,-0.258401 0.814154,-0.396753 0.267185,-0.138356 0.529717,-0.281934 0.783636,-0.429968 0.253918,-0.148029 0.49942,-0.300212 0.734265,-0.455102 0.234844,-0.15489 0.458774,-0.313235 0.668737,-0.472155 0.209963,-0.15892 0.405986,-0.319215 0.585259,-0.479337 0.179274,-0.160119 0.341948,-0.31994 0.484721,-0.478439 0.07137,-0.07926 0.138129,-0.157774 0.199276,-0.236077 0.06115,-0.07829 0.116728,-0.156367 0.166964,-0.233386 0.05024,-0.07701 0.09742,-0.159927 0.14273,-0.248645 0.04532,-0.08871 0.08865,-0.183267 0.129253,-0.282753 0.08124,-0.198975 0.153502,-0.418651 0.217228,-0.655273 0.06374,-0.236626 0.119004,-0.489707 0.166963,-0.756708 0.04796,-0.266999 0.08818,-0.547389 0.122078,-0.837492 0.03391,-0.290103 0.06189,-0.589908 0.08348,-0.89584 0.02159,-0.305929 0.0375,-0.618154 0.04846,-0.932642 0.01094,-0.314486 0.01667,-0.631139 0.01884,-0.947004 0.0021,-0.315864 5.08e-4,-0.630944 -0.0045,-0.940721 -0.01012,-0.619557 -0.03278,-1.219981 -0.06104,-1.771931 -0.02826,-0.551947 -0.06249,-1.054943 -0.09515,-1.481097 -0.06531,-0.852306 -0.125674,-1.394924 -0.125674,-1.394924 0,0 -0.01285,-0.154492 -0.05296,-0.392266 -0.0201,-0.118883 -0.04742,-0.25826 -0.08258,-0.410219 -0.03516,-0.151955 -0.07837,-0.316377 -0.131945,-0.483825 -0.05359,-0.16745 -0.117649,-0.338219 -0.192992,-0.503573 -0.03768,-0.08268 -0.07831,-0.163646 -0.122079,-0.242362 -0.04378,-0.07871 -0.0907,-0.155168 -0.140925,-0.227998 -0.05024,-0.07283 -0.103524,-0.142732 -0.160676,-0.207355 -0.05715,-0.06462 -0.117753,-0.124422 -0.182219,-0.178629 -0.06446,-0.05421 -0.13245,-0.102917 -0.204662,-0.144521 -0.07221,-0.0416 -0.148516,-0.07643 -0.228897,-0.103231 C 21.78605,46.176255 21.384133,46.022464 20.962165,45.851667 20.540197,45.680864 20.098373,45.493516 19.6965,45.31937 18.892753,44.97108 18.249513,44.676664 18.249513,44.676664 L 18.034979,43.069 c 0,0 0.02028,-0.007 0.0772,-0.05386 0.05694,-0.04688 0.150652,-0.133664 0.298015,-0.294423 0.147352,-0.160744 0.348106,-0.395368 0.619366,-0.736959 0.271265,-0.341591 0.612594,-0.790251 1.041258,-1.379664 0.107174,-0.147353 0.205092,-0.30055 0.293526,-0.457795 0.08843,-0.157235 0.168023,-0.318678 0.23877,-0.483825 0.07075,-0.165139 0.132606,-0.333412 0.186708,-0.50447 0.05411,-0.171062 0.100631,-0.344748 0.139137,-0.519731 0.03852,-0.174981 0.0694,-0.351787 0.09334,-0.528706 0.02397,-0.176918 0.0407,-0.354532 0.05117,-0.531399 0.01044,-0.176867 0.0146,-0.352983 0.0125,-0.52781 -0.0019,-0.174825 -0.0099,-0.348037 -0.02335,-0.518832 -0.01337,-0.170802 -0.03279,-0.338795 -0.05656,-0.503572 -0.02377,-0.164776 -0.0522,-0.326158 -0.08527,-0.482928 -0.03308,-0.156767 -0.07087,-0.309221 -0.112212,-0.456 -0.04135,-0.146778 -0.08609,-0.287991 -0.134636,-0.422785 -0.04856,-0.134793 -0.10056,-0.263364 -0.155291,-0.384187 -0.05474,-0.120828 -0.112473,-0.233545 -0.172348,-0.338408 -0.05986,-0.104864 -0.121869,-0.201225 -0.18581,-0.288141 -0.06394,-0.08693 -0.129599,-0.164619 -0.196583,-0.23159 -0.06699,-0.06699 -0.141498,-0.133352 -0.221716,-0.199275 -0.08021,-0.06594 -0.166147,-0.131423 -0.257621,-0.195685 -0.182937,-0.128523 -0.386305,-0.25363 -0.602313,-0.372518 -0.216006,-0.118882 -0.444543,-0.231538 -0.677714,-0.336613 -0.23317,-0.105073 -0.471113,-0.201966 -0.705541,-0.289038 -0.234425,-0.08708 -0.465119,-0.16401 -0.684895,-0.228898 -0.219773,-0.06487 -0.428356,-0.117666 -0.617573,-0.156193 -0.189214,-0.03852 -0.359028,-0.06295 -0.501777,-0.07091 z m -0.180426,15.99495 a 1.7414552,1.7414552 0 0 1 0.247747,0.01795 1.7414552,1.7414552 0 0 1 0.242362,0.05296 1.7414552,1.7414552 0 0 1 0.233384,0.08617 1.7414552,1.7414552 0 0 1 0.218126,0.119386 1.7414552,1.7414552 0 0 1 0.198378,0.149002 1.7414552,1.7414552 0 0 1 0.175936,0.175936 1.7414552,1.7414552 0 0 1 0.149003,0.198376 1.7414552,1.7414552 0 0 1 0.119385,0.218126 1.7414552,1.7414552 0 0 1 0.08617,0.233385 1.7414552,1.7414552 0 0 1 0.05296,0.24236 1.7414552,1.7414552 0 0 1 0.01794,0.247748 1.7414552,1.7414552 0 0 1 -0.132848,0.666943 1.7414552,1.7414552 0 0 1 -0.377006,0.564612 1.7414552,1.7414552 0 0 1 -0.565509,0.377006 1.7414552,1.7414552 0 0 1 -0.666039,0.132857 1.7414552,1.7414552 0 0 1 -0.666937,-0.132845 1.7414552,1.7414552 0 0 1 -0.564613,-0.377006 1.7414552,1.7414552 0 0 1 -0.377905,-0.564612 1.7414552,1.7414552 0 0 1 -0.131944,-0.666943 1.7414552,1.7414552 0 0 1 0.131944,-0.666045 1.7414552,1.7414552 0 0 1 0.377905,-0.565508 1.7414552,1.7414552 0 0 1 0.564613,-0.377007 1.7414552,1.7414552 0 0 1 0.66694,-0.132848 z"
       style="fill-opacity:0.313725;stroke:#000000;stroke-width:0"
       id="path6-8" />
    <path
       style="fill:#000000;fill-opacity:1;stroke:#000000;stroke-width:0.454173;stroke-dasharray:none"
       d="m 13.066035,35.296058 0.818249,1.151446"
       id="path7-5" />
    <path
       style="fill:#000000;fill-opacity:1;stroke:#000000;stroke-width:0.454173;stroke-dasharray:none"
       d="m 13.900754,35.261222 -0.818249,1.151447"
       id="path7-1-0" />
    <path
       style="fill:#000000;fill-opacity:1;stroke:#000000;stroke-width:0.303056;stroke-dasharray:none"
       d="m 13.166092,33.836667 0.03226,0.942015"
       id="path7-8-2" />
    <path
       style="fill:#000000;fill-opacity:1;stroke:#000000;stroke-width:0.303056;stroke-dasharray:none"
       d="m 13.643695,34.124185 -0.878994,0.340296"
       id="path7-1-9-8" />
  </g>
</svg>
