<?xml version="1.0" encoding="UTF-8" standalone="no"?>
<!-- Created with Inkscape (http://www.inkscape.org/) -->

<svg
   width="256"
   height="256"
   viewBox="0 0 67.733332 67.733333"
   version="1.1"
   id="svg1"
   inkscape:version="1.3 (0e150ed6c4, 2023-07-21)"
   sodipodi:docname="MagicWeakening.svg"
   inkscape:export-filename="..\..\Assets\Resources\SkillsSprites\MagicWeakening.png"
   inkscape:export-xdpi="96"
   inkscape:export-ydpi="96"
   xmlns:inkscape="http://www.inkscape.org/namespaces/inkscape"
   xmlns:sodipodi="http://sodipodi.sourceforge.net/DTD/sodipodi-0.dtd"
   xmlns="http://www.w3.org/2000/svg"
   xmlns:svg="http://www.w3.org/2000/svg">
  <sodipodi:namedview
     id="namedview1"
     pagecolor="#505050"
     bordercolor="#ffffff"
     borderopacity="1"
     inkscape:showpageshadow="0"
     inkscape:pageopacity="0"
     inkscape:pagecheckerboard="1"
     inkscape:deskcolor="#505050"
     inkscape:document-units="mm"
     inkscape:zoom="3.0324635"
     inkscape:cx="126.7946"
     inkscape:cy="130.75178"
     inkscape:window-width="1920"
     inkscape:window-height="1009"
     inkscape:window-x="-8"
     inkscape:window-y="-8"
     inkscape:window-maximized="1"
     inkscape:current-layer="layer1" />
  <defs
     id="defs1" />
  <g
     inkscape:label="Шар 1"
     inkscape:groupmode="layer"
     id="layer1">
    <path
       d="m 22.748224,37.688514 0.393808,-1.221845 -1.861246,1.241443 0.930928,-1.44784 -1.344335,0.930317 0.03736,-0.760668 -20.51169445,20.51169 1.08588185,2.016201 z"
       style="fill:#2d2d2d;stroke:#ffffff;stroke-width:0"
       id="path4" />
    <path
       d="m 25.703424,36.125851 32.646068,-8.857193 -0.574468,-2.117388 -33.045639,8.965599 -0.410984,0.641898 1.629265,-0.139145 -1.527121,0.793495 2.231841,-0.150959 z"
       style="fill:#2d2d2d;stroke:#ffffff;stroke-width:0"
       id="path3" />
    <path
       style="fill:#2d2d2d;stroke:#ffffff;stroke-width:0"
       d="m 20.017996,33.899285 -1.861316,-1.551096 2.688568,0.723843 z"
       id="path5" />
    <path
       style="fill:#2d2d2d;stroke:#ffffff;stroke-width:0"
       d="m 21.982721,31.624341 0.413626,-2.585161 0.723844,1.757909 z"
       id="path6" />
    <path
       style="fill:#2d2d2d;stroke:#ffffff;stroke-width:0"
       d="m 19.39756,30.383466 -1.344286,-2.378351 1.964722,1.447691 z"
       id="path7" />
    <path
       style="fill:#2d2d2d;stroke:#ffffff;stroke-width:0"
       d="m 23.327005,32.555001 1.344284,-1.240878 -0.206811,1.447692 z"
       id="path8" />
    <path
       d="m 64.667097,18.960887 -0.510334,2.537245 -2.192705,-2.697189 0.04011,4.418946 -1.660248,-2.705608 0.52576,2.74417 -1.274209,-2.441187 -0.449765,2.046597 -2.048334,-1.464858 a 5.4108378,5.4108378 0 0 0 -0.214383,0.489908 5.4108378,5.4108378 0 0 0 -0.214392,0.82141 5.4108378,5.4108378 0 0 0 -0.08368,0.845153 5.4108378,5.4108378 0 0 0 0.04955,0.847653 5.4108378,5.4108378 0 0 0 0.182191,0.829215 5.4108378,5.4108378 0 0 0 0.308792,0.790842 5.4108378,5.4108378 0 0 0 0.429358,0.732547 5.4108378,5.4108378 0 0 0 0.538784,0.656505 5.4108378,5.4108378 0 0 0 0.634321,0.564196 5.4108378,5.4108378 0 0 0 0.714742,0.457906 5.4108378,5.4108378 0 0 0 0.777649,0.340288 5.4108378,5.4108378 0 0 0 0.82159,0.214978 5.4108378,5.4108378 0 0 0 0.844975,0.08309 5.4108378,5.4108378 0 0 0 0.847653,-0.04955 5.4108378,5.4108378 0 0 0 0.829393,-0.1816 5.4108378,5.4108378 0 0 0 0.790665,-0.309383 5.4108378,5.4108378 0 0 0 0.732547,-0.429356 5.4108378,5.4108378 0 0 0 0.656682,-0.538199 5.4108378,5.4108378 0 0 0 0.564017,-0.634908 5.4108378,5.4108378 0 0 0 0.457907,-0.714742 5.4108378,5.4108378 0 0 0 0.340875,-0.777826 5.4108378,5.4108378 0 0 0 0.21439,-0.821413 5.4108378,5.4108378 0 0 0 0.08368,-0.845153 5.4108378,5.4108378 0 0 0 -0.05014,-0.847475 5.4108378,5.4108378 0 0 0 -0.1816,-0.829393 5.4108378,5.4108378 0 0 0 -0.0961,-0.287658 5.4108378,5.4108378 0 0 0 -0.112352,-0.282089 5.4108378,5.4108378 0 0 0 -0.127665,-0.275531 5.4108378,5.4108378 0 0 0 -0.1426,-0.267805 5.4108378,5.4108378 0 0 0 -0.157951,-0.259304 5.4108378,5.4108378 0 0 0 -0.172347,-0.249831 5.4108378,5.4108378 0 0 0 -0.185404,-0.240112 5.4108378,5.4108378 0 0 0 -0.199274,-0.22887 5.4108378,5.4108378 0 0 0 -0.211388,-0.21816 5.4108378,5.4108378 0 0 0 -0.223379,-0.204927 5.4108378,5.4108378 0 0 0 -0.23437,-0.192636 5.4108378,5.4108378 0 0 0 -0.24501,-0.179169 5.4108378,5.4108378 0 0 0 -0.254883,-0.165299 5.4108378,5.4108378 0 0 0 -0.143072,-0.08143 z"
       style="fill:#29ffcb;stroke:#ffffff;stroke-width:0"
       id="path12" />
    <path
       d="m 54.495459,12.546208 2.243146,1.518679 -0.314037,-1.6779 2.069972,1.787547 -0.485034,-2.368514 a 5.4108378,5.4108378 0 0 0 -0.212832,-0.0251 5.4108378,5.4108378 0 0 0 -0.302946,-0.0191 5.4108378,5.4108378 0 0 0 -0.302901,-0.0023 5.4108378,5.4108378 0 0 0 -0.303631,0.01498 5.4108378,5.4108378 0 0 0 -0.301845,0.03243 5.4108378,5.4108378 0 0 0 -0.299665,0.04871 5.4108378,5.4108378 0 0 0 -0.296325,0.0654 5.4108378,5.4108378 0 0 0 -0.292404,0.08229 5.4108378,5.4108378 0 0 0 -0.286728,0.09783 5.4108378,5.4108378 0 0 0 -0.280873,0.114724 5.4108378,5.4108378 0 0 0 -0.274419,0.12989 5.4108378,5.4108378 0 0 0 -0.35948,0.200422 z"
       style="fill:#29ffcb;stroke:#ffffff;stroke-width:0"
       id="path18" />
    <path
       d="m 55.171677,16.971188 a 5.4108378,5.4108378 0 0 0 -0.134784,0.245314 5.4108378,5.4108378 0 0 0 -0.175003,0.387656 5.4108378,5.4108378 0 0 0 -0.14347,0.399682 5.4108378,5.4108378 0 0 0 -0.111632,0.409895 5.4108378,5.4108378 0 0 0 -0.07932,0.417085 5.4108378,5.4108378 0 0 0 -0.022,0.314182 l 2.421757,0.690896 -0.264412,-2.078913 0.982927,0.909353 -0.345755,-1.344357 z"
       style="fill:#29ffcb;stroke:#ffffff;stroke-width:0"
       id="path17" />
    <path
       d="m 60.284523,14.284588 -0.04652,0.0059 -0.756273,1.07498 -0.05738,1.412969 0.800419,-2.31902 -0.03701,0.07025 0.0587,-0.132698 z"
       style="fill:#29ffcb;stroke:#ffffff;stroke-width:0"
       id="path21" />
    <path
       d="m 62.50214,12.235728 v 2.121541 l 0.03491,0.03491 0.06063,-0.05022 -0.03981,0.07103 0.008,0.008 -0.0196,0.01162 -1.510312,2.673975 2.361011,-1.337599 0.708609,-2.613342 a 5.4108378,5.4108378 0 0 0 -0.01039,-0.0092 5.4108378,5.4108378 0 0 0 -0.337463,-0.257844 5.4108378,5.4108378 0 0 0 -0.356448,-0.230896 5.4108378,5.4108378 0 0 0 -0.373597,-0.202108 5.4108378,5.4108378 0 0 0 -0.388908,-0.1721 5.4108378,5.4108378 0 0 0 -0.136577,-0.04777 z"
       style="fill:#29ffcb;stroke:#ffffff;stroke-width:0"
       id="path20" />
    <path
       d="m 65.258127,17.931965 1.019123,-2.538621 -1.484587,0.840899 -0.636341,2.346923 z"
       style="fill:#29ffcb;stroke:#ffffff;stroke-width:0"
       id="path16" />
  </g>
</svg>
