<?xml version="1.0" encoding="UTF-8" standalone="no"?>
<!-- Created with Inkscape (http://www.inkscape.org/) -->

<svg
   width="256"
   height="256"
   viewBox="0 0 67.733332 67.733333"
   version="1.1"
   id="svg1"
   inkscape:version="1.3 (0e150ed6c4, 2023-07-21)"
   sodipodi:docname="Necromancy.svg"
   inkscape:export-filename="..\..\Assets\Resources\SkillsSprites\Necromancy.png"
   inkscape:export-xdpi="96"
   inkscape:export-ydpi="96"
   xmlns:inkscape="http://www.inkscape.org/namespaces/inkscape"
   xmlns:sodipodi="http://sodipodi.sourceforge.net/DTD/sodipodi-0.dtd"
   xmlns="http://www.w3.org/2000/svg"
   xmlns:svg="http://www.w3.org/2000/svg">
  <sodipodi:namedview
     id="namedview1"
     pagecolor="#505050"
     bordercolor="#ffffff"
     borderopacity="1"
     inkscape:showpageshadow="0"
     inkscape:pageopacity="0"
     inkscape:pagecheckerboard="1"
     inkscape:deskcolor="#505050"
     inkscape:document-units="mm"
     inkscape:zoom="0.75811588"
     inkscape:cx="362.08185"
     inkscape:cy="46.826614"
     inkscape:window-width="1920"
     inkscape:window-height="1009"
     inkscape:window-x="-8"
     inkscape:window-y="-8"
     inkscape:window-maximized="1"
     inkscape:current-layer="layer1" />
  <defs
     id="defs1" />
  <g
     inkscape:label="Шар 1"
     inkscape:groupmode="layer"
     id="layer1">
    <path
       style="fill:#43695c;fill-opacity:1;stroke:#000000;stroke-width:0;stroke-dasharray:none;stroke-opacity:1"
       d="M 55.503579,0.12796108 C 46.119747,-2.5172318 38.226264,-1.7455263 34.329838,1.072962 30.433412,3.89145 19.282378,13.856832 15.522956,18.396344 11.763525,22.935846 2.6061476,31.237539 -2.3709713,30.83347 -7.3480849,30.42941 -12.3965,26.579108 -12.3965,26.579108 c 0,0 18.6850964,20.908184 21.8670914,22.769031 C 12.652586,51.208977 29.15682,40.220229 36.117823,33.58643 43.078837,26.952635 55.50358,0.12795848 55.503579,0.12796108 Z"
       id="path11-2" />
    <path
       style="fill:#000000;fill-opacity:1;stroke:#000000;stroke-width:0;stroke-dasharray:none;stroke-opacity:1"
       d="m 9.2089734,24.69021 c 0,0 -3.537478,3.013872 -4.7530896,3.685469 -1.2156261,0.671592 15.5610722,17.17072 15.5610722,17.17072 0,0 5.366305,-3.395026 5.942501,-3.877806 C 26.535611,41.185782 9.2089734,24.69021 9.2089734,24.69021 Z"
       id="path13-7" />
    <path
       style="fill:#71ea76;fill-opacity:0.737649;stroke:#000000;stroke-width:0;stroke-dasharray:none;stroke-opacity:1"
       d="m 21.246599,44.632944 c 0,0 -29.0242416,-28.285875 -31.0393609,-29.317761 -2.0151211,-1.031892 -33.1758301,-16.6676954 -33.1758301,-16.6676954 0,0 -11.317909,5.2185467 -13.98958,5.8106027 -2.671683,0.5920472 -6.053834,0.2019024 -5.919555,-0.7210747 0.13426,-0.9229849 3.719425,-1.8406556 6.055959,-3.80608122 2.336531,-1.96542568 3.540766,-3.06388478 2.448613,-3.96151518 -1.092136,-0.8976086 -16.223562,5.3200242 -17.619134,4.58205498 -1.395561,-0.7379594 -3.929796,-0.915594 -2.040485,-2.25829528 1.889304,-1.3427166 18.917429,-4.8389653 18.278857,-6.0526947 -0.638574,-1.2137233 -21.276162,5.7312806 -21.699059,3.822936 -0.422886,-1.9083372 20.516001,-5.4088153 20.869125,-6.8731112 0.353133,-1.464289 -14.346915,3.3641235 -16.05227,2.4791869 -1.70534,-0.884925 0.105742,-2.3026899 1.091032,-2.8598839 0.985358,-0.557172 13.458826,-1.812075 14.741281,-2.835488 1.282448,-1.02342 -3.15165,-4.075719 -4.644486,-5.808563 -1.492836,-1.732843 -1.965422,-2.336534 -0.983226,-3.047005 0.982188,-0.710469 5.307384,4.49123 8.880886,6.717821 3.573501,2.226581 10.901285,4.298887 14.987589,5.36456 4.086271,1.0657239 27.684184,15.6915243 32.0622495,19.7418765 4.3780882,4.0503335 32.9712295,32.4380285 31.3853415,33.6210905 -1.585874,1.183061 -3.638021,2.069016 -3.638009,2.069016 z"
       id="path26"
       sodipodi:nodetypes="cccscssscsssscssssccscc" />
    <path
       style="fill:#ea0000;fill-opacity:0.833049;stroke:#000000;stroke-width:0;stroke-dasharray:none;stroke-opacity:1"
       d="m 25.79981,41.383615 -2.303426,1.066244 -1.102024,-1.245645 1.417096,-2.104945 -2.286208,0.96979 -1.337317,-1.4714 1.149724,-2.022549 -2.369407,0.664014 -1.138837,-1.168017 1.272156,-1.679129 -2.315346,0.489932 -1.275249,-1.261363 1.178875,-1.542685 -1.338096,1.27694 -1.509823,-1.448627 1.356914,-1.296542 -1.713867,0.765765 -1.235295,-1.18523 0.751445,-1.76447 -1.771886,0.747745 -1.100462,-1.168768 0.793064,-1.611575 -1.7374266,0.554852 -1.159294,-1.225211 c 0,0 0.945432,-0.749873 1.096736,-0.868312 0.151379,-0.118385 1.6202996,1.215715 1.9520636,1.458695 0.331746,0.242987 9.222905,9.188037 9.458196,9.413793 0.235313,0.225775 3.000036,2.878433 3.355396,3.332302 0.355366,0.453854 1.912312,2.324364 1.912312,2.324364 z"
       id="path24-6" />
    <path
       style="fill:#ea0000;fill-opacity:0.833049;stroke:#000000;stroke-width:0;stroke-dasharray:none;stroke-opacity:1"
       d="m 4.090534,28.440492 2.3380174,-0.988096 1.059458,1.282048 -1.487163,2.056036 2.317555,-0.892275 1.287012,1.515598 -1.217164,1.982693 2.3904136,-0.583874 1.098886,1.205694 -1.327987,1.635335 2.330533,-0.411698 1.232052,1.303585 -1.230133,1.502132 1.380342,-1.231163 1.460196,1.498621 -1.39978,1.250137 1.738662,-0.707634 1.194704,1.226158 -0.810412,1.738178 1.796049,-0.687674 1.06049,1.205156 -0.846877,1.58396 1.75514,-0.496039 1.117392,1.263532 c 0,0 -0.97012,0.717643 -1.125351,0.830902 -0.155258,0.113224 -1.578457,-1.269576 -1.901827,-1.523593 C 17.977363,43.744181 9.3923864,34.504883 9.1648204,34.27133 8.9371464,34.037843 6.2633964,31.293528 5.9235194,30.827958 5.5836344,30.362378 4.0905448,28.440531 4.0905448,28.440531 Z"
       id="path24-2-3" />
    <path
       style="fill:#71ea76;fill-opacity:1;stroke:#000000;stroke-width:0;stroke-dasharray:none;stroke-opacity:1"
       d="m 31.660823,6.2263783 c 0,0 -0.971946,1.3269722 -0.620055,3.4722177 0.351883,2.145235 1.560159,4.810884 1.560159,4.810884 0,0 -1.429818,1.49021 -3.064169,0.52464 -1.63437,-0.965568 -3.068396,-3.395931 -3.068396,-3.395931 0,0 0.648687,-2.0890493 1.702207,-3.1871105 1.053542,-1.0980454 3.490254,-2.2247025 3.490254,-2.2247002 z"
       id="path25" />
    <path
       style="fill:#71ea76;fill-opacity:1;stroke:#000000;stroke-width:0;stroke-dasharray:none;stroke-opacity:1"
       d="m 44.208535,17.326354 c 0,0 -1.285643,1.025986 -3.443612,0.763109 -2.157945,-0.262862 -4.871277,-1.359869 -4.871277,-1.359869 0,0 -1.429805,1.490216 -0.397471,3.083245 1.032324,1.593024 3.519899,2.925327 3.519899,2.925327 0,0 2.060452,-0.734498 3.113997,-1.83255 1.053541,-1.098047 2.078465,-3.579263 2.078465,-3.579263 z"
       id="path25-1" />
    <path
       style="fill:#548174;fill-opacity:1;stroke:#000000;stroke-width:0;stroke-dasharray:none;stroke-opacity:1"
       d="M 68.30945,9.6637838 C 71.039506,19.581255 70.174236,27.904242 67.175387,31.996905 64.176535,36.089564 53.590438,47.789897 48.776722,51.726874 43.96301,55.663857 35.145083,65.271567 35.539177,70.525261 c 0.394093,5.253689 4.423651,10.604914 4.423651,10.604914 0,0 -21.938124,-19.848933 -23.8808,-23.218116 C 14.139356,54.542872 25.839792,37.20129 32.883799,29.900054 39.927806,22.598816 68.30945,9.6637838 68.30945,9.6637838 Z"
       id="path11" />
    <ellipse
       style="fill:#71ea76;fill-opacity:1;stroke:#000000;stroke-width:0;stroke-dasharray:none;stroke-opacity:1"
       id="path12"
       cx="-16.136986"
       cy="-53.402611"
       rx="2.2464762"
       ry="3.7061176"
       transform="rotate(136.53651)" />
    <ellipse
       style="fill:#71ea76;fill-opacity:1;stroke:#000000;stroke-width:0;stroke-dasharray:none;stroke-opacity:1"
       id="path12-0"
       cx="-16.435106"
       cy="-65.060524"
       rx="2.2059305"
       ry="3.7061176"
       transform="rotate(136.53651)" />
    <path
       style="fill:#000000;fill-opacity:1;stroke:#000000;stroke-width:0;stroke-dasharray:none;stroke-opacity:1"
       d="m 42.374546,58.008601 c 0,0 -3.202665,3.712688 -3.919092,4.990874 -0.71643,1.278192 -18.015156,-16.528763 -18.015156,-16.528763 0,0 3.616632,-5.639718 4.129723,-6.244498 0.513114,-0.604742 17.804525,17.782387 17.804525,17.782387 z"
       id="path13" />
    <path
       style="fill:#ea0000;fill-opacity:0.833049;stroke:#000000;stroke-width:0;stroke-dasharray:none;stroke-opacity:1"
       d="m 24.869648,40.396489 -1.139846,2.423314 1.307081,1.170751 2.229987,-1.481472 -1.037976,2.405771 1.54374,1.420453 2.141319,-1.199927 -0.715902,2.49553 1.224941,1.209092 1.779786,-1.331317 -0.531877,2.439628 1.322533,1.353603 1.635233,-1.233774 -1.355886,1.40348 1.518586,1.602303 1.376698,-1.423202 -0.819013,1.80324 1.24248,1.31097 1.866446,-0.781421 -0.800374,1.864582 1.225982,1.168606 1.705412,-0.826297 -0.596635,1.829481 1.285149,1.231032 c 0,0 0.797269,-0.992619 0.923205,-1.151487 0.125863,-0.158951 -1.27215,-1.717361 -1.526352,-2.068951 C 40.420162,55.67889 31.040269,46.240429 30.803605,45.99072 30.566947,45.740992 27.786154,42.806926 27.309601,42.429066 26.833053,42.051206 24.869672,40.39645 24.869672,40.39645 Z"
       id="path24" />
    <path
       style="fill:#ea0000;fill-opacity:0.833049;stroke:#000000;stroke-width:0;stroke-dasharray:none;stroke-opacity:1"
       d="m 38.669583,65.797827 1.017746,-2.163731 -1.167066,-1.045337 -1.99111,1.322776 0.926784,-2.148066 -1.378375,-1.268295 -1.911938,1.071392 0.639213,-2.228209 -1.093723,-1.079575 -1.58914,1.188708 0.474905,-2.178295 -1.180865,-1.208606 -1.460068,1.101612 1.210648,-1.25314 -1.355919,-1.430664 -1.229225,1.270751 0.73128,-1.610079 -1.109384,-1.17054 -1.666512,0.697717 0.714635,-1.664848 -1.094651,-1.043425 -1.522729,0.737785 0.532723,-1.63351 -1.147484,-1.099162 c 0,0 -0.711865,0.88629 -0.824314,1.028139 -0.112382,0.141923 1.13588,1.533399 1.362852,1.847326 0.226973,0.313926 8.60209,8.741338 8.813402,8.964298 0.211306,0.222978 2.694225,2.842746 3.119726,3.18013 0.425504,0.337384 2.178564,1.814882 2.178564,1.814882 z"
       id="path24-2" />
    <path
       style="fill:#82ff79;fill-opacity:0.616695;stroke:#000000;stroke-width:0;stroke-dasharray:none;stroke-opacity:1"
       id="path20"
       d="m 21.257968,45.537886 c 0.391159,0.672067 0.751002,1.367546 1.08218,2.072246 0.473417,0.919009 0.855192,1.869059 1.116788,2.868473 0.375457,1.270261 0.344845,2.614324 0.328721,3.926436 -0.0052,1.433044 -0.01768,2.861245 -0.154685,4.288745 -0.08298,0.842948 -0.230138,1.685477 -0.237074,2.534872 -0.0041,0.510756 0.04257,0.778038 0.100694,1.290703 0.199763,1.159188 0.427283,2.316869 0.737388,3.452331 0.08294,0.303684 0.157806,0.61071 0.268141,0.905548 0.126494,0.337977 0.293871,0.659244 0.440821,0.988862 1.265338,2.501025 3.154101,4.603768 5.035382,6.653829 0.869034,0.941132 1.812014,1.820821 2.898511,2.507508 0.440467,0.278419 0.88697,0.501248 1.347219,0.742556 1.280766,0.621041 2.572976,1.217155 3.853058,1.84 1.539576,0.697612 3.07653,1.400609 4.616798,2.096921 1.547835,0.716074 3.039089,1.537356 4.502986,2.409944 1.462251,0.82577 2.820604,1.807703 4.096908,2.895497 1.078413,1.069147 2.075287,2.226492 2.957255,3.462893 0.683912,1.023954 1.29052,2.093116 1.814216,3.206942 0.428173,0.94562 0.708011,1.950969 0.921643,2.964458 0.155448,0.769063 0.125249,1.548925 0.05278,2.324225 -0.06826,1.273105 -0.09477,2.547045 -0.134581,3.821095 -0.05446,1.25258 -0.239188,2.49369 -0.318523,3.74482 -0.03612,0.7177 -0.08708,1.43484 -0.03676,2.15336 0.0094,0.13499 0.01174,0.27171 0.04195,0.40357 0.03917,0.17231 0.109711,0.33591 0.164566,0.50382 0.401569,1.21099 0.789917,2.42437 1.218324,3.62617 0.296644,0.80685 0.615046,1.6043 1.084352,2.32643 0,0 8.039556,-2.23704 8.039556,-2.23704 v 0 c -0.469616,-0.65091 -0.902124,-1.32763 -1.179494,-2.08665 -0.431651,-1.16851 -0.886819,-2.33601 -1.091477,-3.57141 -0.152085,-0.92205 -0.31745,-1.84302 -0.229966,-2.78337 0.04336,-0.63778 0.147924,-1.26036 0.21145,-1.89545 0.04251,-0.42544 0.04274,-0.77906 0.05075,-1.20696 0.0041,-0.22066 0.0073,-0.44134 0.01109,-0.66202 0.03824,-1.275965 0.100515,-2.552438 0.332359,-3.810748 0.07906,-0.87014 0.125109,-1.751625 -0.10159,-2.605119 -0.309647,-1.047509 -0.677164,-2.079811 -1.126757,-3.07597 -0.550803,-1.162547 -1.080452,-2.34995 -1.901095,-3.353817 -0.309058,-0.394097 -0.603498,-0.799835 -0.92162,-1.186661 -0.688579,-0.83738 -1.440334,-1.625633 -2.191029,-2.40653 -0.391665,-0.351507 -0.884136,-0.804425 -1.297264,-1.132164 -0.886297,-0.70297 -1.866034,-1.28006 -2.807744,-1.902934 -0.957431,-0.603473 -1.943547,-1.14951 -2.957796,-1.652618 -0.27147,-0.134704 -0.550774,-0.253016 -0.822212,-0.387707 -0.27629,-0.137083 -0.54715,-0.284965 -0.82072,-0.427417 -1.477909,-0.736864 -2.993771,-1.391239 -4.464428,-2.143361 -1.291062,-0.615684 -2.579481,-1.237004 -3.882502,-1.827392 -1.655157,-0.742098 -3.245321,-1.62377 -4.588671,-2.86248 -0.810123,-0.756889 -1.227249,-1.108442 -1.965044,-1.959855 -1.15189,-1.329154 -2.094415,-2.834226 -2.77958,-4.453699 -0.251773,-0.702439 -0.408515,-1.091881 -0.599754,-1.802881 -0.296126,-1.100965 -0.470429,-2.234404 -0.502582,-3.374209 -0.05015,-1.229756 0.0027,-2.458305 0.106563,-3.684555 0.104498,-1.449824 0.168554,-2.899123 0.167305,-4.353077 0.009,-1.399866 -0.03623,-2.798668 -0.234646,-4.186722 C 31.203916,47.495258 30.83203,46.499458 30.365453,45.538406 30.07689,44.826377 29.70181,44.132458 29.555622,43.373392 Z" />
    <path
       style="fill:#82ff79;fill-opacity:0.616695;stroke:#000000;stroke-width:0;stroke-dasharray:none;stroke-opacity:1"
       id="path21"
       d="m 28.090546,53.891682 c 0.64466,1.445541 1.087135,2.973604 1.517499,4.493703 0.411899,1.48487 0.718818,3.000545 0.886159,4.533082 0.07066,0.647145 0.131727,1.633944 0.176253,2.283967 0.05155,1.121668 0.09393,2.2538 0.04342,3.376733 -0.06072,1.349128 -0.253714,2.694649 -0.430774,4.031833 -0.165156,1.258837 -0.359805,2.525018 -0.347172,3.799035 0.0045,0.471356 0.04439,0.9418 0.07957,1.411841 0.03571,0.476252 0.05119,0.956082 0.13311,1.426585 0.09393,0.539533 0.262039,1.063482 0.393065,1.595195 0.46537,1.627902 0.955487,3.245872 1.506732,4.846719 0.344047,0.999137 0.548877,1.620627 0.967915,2.574764 0.154719,0.352276 0.332116,0.694144 0.498164,1.041215 0.762884,1.357889 1.68802,2.713275 2.77238,3.839257 0.202015,0.209163 0.421904,0.400294 0.632883,0.600423 1.395342,1.198649 3.102842,1.923427 4.713998,2.775186 1.415804,0.709376 2.671965,1.668564 3.95402,2.585437 1.238846,0.815775 2.349881,1.786613 3.368137,2.860923 1.416697,1.44253 2.461753,3.12779 3.36678,4.92197 0.487218,1.06048 0.840227,2.17803 1.051202,3.32563 0.02774,0.15023 0.181907,1.20556 0.205485,1.36541 0.102634,1.11428 -0.158915,2.19523 -0.632999,3.19695 0,0 8.166596,-1.43162 8.166596,-1.43162 v 0 c 0.390776,-1.16074 0.572889,-2.36994 0.390852,-3.59246 -0.03764,-0.23988 -0.06204,-0.48221 -0.113008,-0.71959 -0.05025,-0.23396 -0.127852,-0.46119 -0.190228,-0.69223 -0.321299,-1.19014 -0.69231,-2.36865 -1.251382,-3.47289 -0.162,-0.30878 -0.315715,-0.62205 -0.485962,-0.92639 -0.281908,-0.50392 -0.824973,-1.36898 -1.125822,-1.85748 -0.506424,-0.82239 -1.005358,-1.65231 -1.633218,-2.39093 -1.002991,-1.141107 -2.118718,-2.187636 -3.373526,-3.050013 -1.354001,-0.909476 -2.672063,-1.876567 -4.126638,-2.627388 -0.675898,-0.364474 -0.937073,-0.511166 -1.621987,-0.857299 -1.028681,-0.519866 -2.086941,-0.993501 -2.981391,-1.738224 -1.355601,-1.219829 -2.563419,-2.59056 -3.551965,-4.127999 -0.550208,-0.902634 -0.707877,-1.117645 -1.1881,-2.096905 -0.941914,-1.920811 -1.622765,-3.967487 -2.06859,-6.058138 -0.161552,-1.086886 -0.308262,-1.839415 -0.342763,-2.927293 -0.05421,-1.708999 0.204477,-3.411111 0.322754,-5.111246 0.157008,-1.361641 0.312908,-2.723487 0.472433,-4.084826 0.05201,-0.443761 0.138873,-0.884397 0.161446,-1.330608 0.02253,-0.443865 -0.09088,-1.745169 -0.123724,-2.176913 -0.09906,-1.164114 -0.163979,-2.336929 -0.345815,-3.492187 -0.133389,-0.847545 -0.284818,-1.452388 -0.48869,-2.285915 -0.09498,-0.388281 -0.194734,-0.775384 -0.292103,-1.163071 -0.350948,-1.530496 -0.719997,-3.078716 -0.714966,-4.658455 z" />
    <path
       style="fill:#82ff79;fill-opacity:0.616695;stroke:#000000;stroke-width:0;stroke-dasharray:none;stroke-opacity:1"
       id="path23"
       d="m 24.045215,50.837856 c 0.958439,0.651563 2.125147,0.81609 3.227355,1.081599 0.262073,0.06315 0.521749,0.135825 0.782635,0.203717 1.787186,0.519447 2.85841,1.535052 4.088425,2.853902 1.054019,1.140857 2.205794,2.200312 3.105702,3.475211 0.221573,0.313841 0.413094,0.647827 0.61963,0.971759 0.98671,1.643694 1.678608,3.442319 1.990819,5.336638 0.05923,0.359496 0.08616,0.723583 0.129233,1.085369 0.11297,1.827992 -0.306663,3.608812 -0.935936,5.310387 -0.369192,1.076858 -0.797858,2.135753 -1.115807,3.229152 -0.217168,0.772784 -0.413492,1.596215 -0.355622,2.40741 0.01357,0.189776 0.05208,0.376978 0.07808,0.56548 0.180101,1.091627 0.506708,2.153753 0.853725,3.202368 0.287836,0.948445 0.84842,1.748856 1.391049,2.562553 0.528155,0.910384 1.121873,1.78044 1.6657,2.680906 0.466565,0.881695 1.008155,1.717942 1.447924,2.613554 0.462448,0.995599 0.922509,1.99278 1.351878,3.003219 0.591849,1.363024 0.466771,2.457477 0.179999,3.872534 -0.209681,1.337119 -0.70254,2.595132 -1.260977,3.819339 -0.362928,0.61552 -0.625571,1.282647 -0.957859,1.913347 -0.07862,0.14924 -0.167409,0.29286 -0.25108,0.43931 -0.07972,0.15603 -0.159366,0.31206 -0.23905,0.46815 0,0 8.161208,-1.34597 8.161208,-1.34597 v 0 c 0.495386,-0.931705 0.9767,-1.874672 1.337083,-2.868341 0.509591,-1.300063 1.015377,-2.612574 1.19074,-4.008204 0.08932,-0.76979 0.189048,-1.538517 0.194734,-2.314979 0.0019,-0.269592 0.01175,-0.541156 -0.02288,-0.80855 -0.01561,-0.120997 -0.295326,-1.066283 -0.330278,-1.186424 -0.06039,-0.183077 -0.109611,-0.370209 -0.181107,-0.549283 -0.34616,-0.866979 -0.912771,-1.635006 -1.252585,-2.505664 -0.425105,-0.925044 -0.760374,-1.898361 -1.352858,-2.736133 -0.27629,-0.431236 -0.592613,-0.828918 -0.871698,-1.258084 -0.284959,-0.438162 -0.29914,-0.502493 -0.566331,-0.95141 -0.09339,-0.156765 -0.191062,-0.310968 -0.28666,-0.466418 -0.478216,-0.776126 -0.963875,-1.549399 -1.269977,-2.413876 -0.402034,-0.949283 -0.785326,-1.917367 -0.863583,-2.957224 -0.0024,-0.899569 0.06551,-1.800683 0.330278,-2.666029 0.35436,-1.063365 0.721936,-2.123355 0.999393,-3.210366 0.453304,-1.818741 0.673358,-3.703926 0.545872,-5.578255 -0.05367,-0.384538 -0.08796,-0.772304 -0.161028,-1.153657 -0.09855,-0.514608 -0.460687,-1.825791 -0.609065,-2.313535 -0.120843,-0.397251 -0.232425,-0.798651 -0.38701,-1.184023 -0.23312,-0.581246 -0.778553,-1.542794 -1.075212,-2.087043 -0.221088,-0.362201 -0.997346,-1.644686 -1.239951,-2.001945 -0.657219,-0.967865 -1.441021,-1.846142 -2.243973,-2.693404 -0.626511,-0.610241 -1.255649,-1.216041 -1.923847,-1.781246 -0.247407,-0.209299 -0.490065,-0.42574 -0.754237,-0.613439 -0.613113,-0.4356 -0.899242,-0.532348 -1.570103,-0.844101 -0.264087,-0.08312 -0.525225,-0.176321 -0.792286,-0.249346 -0.886902,-0.242447 -1.874927,-0.31811 -2.65396,-0.844961 z" />
  </g>
</svg>
