<?xml version="1.0" encoding="UTF-8" standalone="no"?>
<!-- Created with Inkscape (http://www.inkscape.org/) -->

<svg
   width="256"
   height="256"
   viewBox="0 0 67.733332 67.733333"
   version="1.1"
   id="svg1"
   inkscape:version="1.3 (0e150ed6c4, 2023-07-21)"
   sodipodi:docname="ShadowDance.svg"
   inkscape:export-filename="..\..\Assets\Resources\SkillsSprites\ShadowDance.png"
   inkscape:export-xdpi="96"
   inkscape:export-ydpi="96"
   xmlns:inkscape="http://www.inkscape.org/namespaces/inkscape"
   xmlns:sodipodi="http://sodipodi.sourceforge.net/DTD/sodipodi-0.dtd"
   xmlns="http://www.w3.org/2000/svg"
   xmlns:svg="http://www.w3.org/2000/svg">
  <sodipodi:namedview
     id="namedview1"
     pagecolor="#505050"
     bordercolor="#ffffff"
     borderopacity="1"
     inkscape:showpageshadow="0"
     inkscape:pageopacity="0"
     inkscape:pagecheckerboard="1"
     inkscape:deskcolor="#505050"
     inkscape:document-units="mm"
     inkscape:zoom="0.53606888"
     inkscape:cx="-138.97468"
     inkscape:cy="226.64998"
     inkscape:window-width="1920"
     inkscape:window-height="1009"
     inkscape:window-x="-8"
     inkscape:window-y="-8"
     inkscape:window-maximized="1"
     inkscape:current-layer="layer1" />
  <defs
     id="defs1" />
  <g
     inkscape:label="Шар 1"
     inkscape:groupmode="layer"
     id="layer1">
    <path
       style="fill:#301111;fill-opacity:1;stroke:#000000;stroke-width:0;stroke-dasharray:none;stroke-opacity:1"
       d="m 63.878507,69.941251 c -4.84312,-4.338632 1.715271,-8.576359 -13.318586,-9.080853 -15.033857,-0.50449 -39.148565,9.080853 -41.1665335,12.91499 -2.0179666,3.834138 -2.9260506,21.894945 5.0449195,23.610216 7.970972,1.715275 37.937788,-1.614371 44.59708,-6.558392 6.65929,-4.944019 4.84312,-20.885961 4.84312,-20.885961 z"
       id="path13" />
    <path
       style="fill:#452d2d;fill-opacity:1;stroke:#000000;stroke-width:0;stroke-dasharray:none;stroke-opacity:1"
       d="m 15.144596,71.959218 c 3.228748,8.979955 5.953004,17.35452 1.513476,17.859011 -4.439529,0.504493 -20.1796751,0 -22.5003381,4.43953 -2.320662,4.439525 15.8410436,21.390451 31.3793921,22.500341 15.538351,1.10988 50.953673,-8.37457 51.861763,-19.372496 0.90809,-10.997922 -1.91707,-16.950925 -7.264682,-17.657212 -5.347616,-0.706287 -9.181753,1.816169 -13.318586,1.210781 -4.136834,-0.605389 -8.576359,-7.970971 -8.576359,-10.089837 0,-2.118866 0.100906,-4.035935 0.100906,-4.035935 z"
       id="path12" />
    <path
       style="fill:#452d2d;fill-opacity:1;stroke:#000000;stroke-width:0;stroke-dasharray:none;stroke-opacity:1"
       d="m 14.236512,89.919127 c 0,0 -3.834141,12.914993 3.834137,27.242563 7.668274,14.32757 39.350362,15.94194 45.807858,9.28265 6.457498,-6.65929 5.852105,-36.928808 3.22875,-43.184503 -2.623361,-6.255701 -34.507244,2.421558 -41.973723,4.439525 -7.466478,2.017968 -10.897022,2.219765 -10.897022,2.219765 z"
       id="path11" />
    <path
       d="m 45.219027,71.606674 c -0.324691,-0.0023 -0.666608,0.0034 -1.023455,0.01689 -0.356846,0.01357 -0.728455,0.03454 -1.113885,0.06254 -0.770861,0.056 -1.595568,0.139502 -2.459335,0.245935 -0.863768,0.106434 -1.767025,0.236001 -2.695127,0.382844 -0.928104,0.146846 -1.880849,0.311244 -2.844716,0.488487 -0.963867,0.177243 -1.938733,0.366924 -2.909792,0.564548 -0.971058,0.197625 -1.938983,0.403045 -2.888661,0.611031 -0.949679,0.207986 -1.881606,0.418759 -2.781331,0.627088 -1.799451,0.416661 -3.470178,0.823574 -4.898387,1.181496 -1.428211,0.357921 -2.613833,0.666664 -3.442226,0.885699 -0.828392,0.219035 -1.299813,0.349038 -1.299813,0.349038 0,0 0.108429,0.286088 0.275513,0.777524 0.167081,0.491434 0.393511,1.187805 0.627934,2.008878 0.117211,0.410537 0.236228,0.852418 0.351575,1.315027 0.115347,0.46261 0.226898,0.945647 0.327912,1.440105 0.101021,0.494458 0.191157,0.999945 0.265372,1.506026 0.07421,0.506083 0.132388,1.01277 0.167335,1.510252 0.01998,0.284465 0.02916,0.558346 0.02788,0.819778 -0.0013,0.261433 -0.01292,0.510555 -0.03549,0.745406 -0.02252,0.234853 -0.05595,0.456171 -0.09973,0.660894 -0.04378,0.204725 -0.09808,0.3935 -0.163118,0.56455 -0.06504,0.171049 -0.141023,0.324232 -0.22734,0.458061 -0.08632,0.133827 -0.183135,0.247527 -0.290725,0.340588 -0.05379,0.04653 -0.109918,0.08771 -0.169027,0.123394 -0.05912,0.03567 -0.120646,0.06605 -0.185085,0.09042 -0.06444,0.02437 -0.132225,0.04314 -0.201986,0.05578 -0.06977,0.01259 -0.142119,0.01899 -0.2172,0.01943 -0.02877,1.7e-4 -0.05454,0.0075 -0.0786,0.02113 -0.02406,0.01357 -0.04643,0.03346 -0.06593,0.06 -0.03897,0.05309 -0.06895,0.131652 -0.09042,0.234102 -0.02147,0.102443 -0.0338,0.228533 -0.03887,0.376928 -0.0051,0.148399 -0.0026,0.31952 0.0077,0.51046 0.02049,0.38188 0.07091,0.845091 0.146207,1.376721 0.0753,0.531629 0.175207,1.13162 0.296641,1.785764 0.121431,0.654145 0.264489,1.362563 0.423412,2.111986 0.158931,0.749425 0.333693,1.539605 0.521447,2.357075 0.375508,1.634939 0.800063,3.378641 1.238963,5.122351 0.438901,1.74371 0.892123,3.48775 1.325169,5.12235 0.433044,1.6346 0.84637,3.15976 1.204313,4.46737 0.715887,2.61523 1.21192,4.35919 1.21192,4.35919 l 7.366101,-0.70651 c 0,-0.0505 -0.06117,-0.27764 -0.172407,-0.64822 -0.111242,-0.37059 -0.272774,-0.88471 -0.474965,-1.50941 -0.404382,-1.2494 -0.970359,-2.94072 -1.616738,-4.81049 -0.64638,-1.86977 -1.373314,-3.91759 -2.09931,-5.87959 -0.362997,-0.981 -0.725933,-1.94053 -1.078388,-2.84556 -0.352454,-0.90503 -0.694236,-1.7563 -1.01585,-2.519345 -0.09374,-0.222419 -0.193483,-0.439677 -0.29833,-0.652442 C 23.923336,97.57948 23.813116,97.371708 23.699426,97.168535 23.472049,96.762191 23.229388,96.374844 22.980219,96.006478 22.73105,95.638112 22.47585,95.288575 22.22298,94.95767 c -0.16302,-0.213333 -0.319966,-0.406331 -0.478346,-0.604271 -2.83e-4,3.4e-5 -0.04141,0.0051 -0.04141,0.0051 l -3.22925,-2.825277 1.261783,-4.388773 -0.252696,-6.40695 13.520429,2.723863 15.790453,-7.869874 2.724709,2.976556 -1.04881,0.798652 c 0.09052,0.154172 0.175426,0.306649 0.270443,0.45975 0.205343,0.330876 0.420008,0.655175 0.642299,0.950774 0.111144,0.147794 0.224551,0.287966 0.338899,0.419186 0.114349,0.131227 0.229644,0.253091 0.346503,0.362562 0.116868,0.109476 0.235427,0.206489 0.354112,0.289036 0.118683,0.08254 0.237674,0.150689 0.357491,0.201142 0.239633,0.100906 0.492246,0.185963 0.752167,0.258611 0.259922,0.07264 0.527337,0.133205 0.797806,0.183392 0.270467,0.05019 0.543432,0.08987 0.814706,0.123393 0.271276,0.03353 0.540538,0.06018 0.802877,0.08282 0.524678,0.04529 1.022295,0.07502 1.452782,0.111553 0.215244,0.01827 0.413664,0.03861 0.590748,0.06339 0.177085,0.02478 0.332259,0.0542 0.461442,0.09127 0.08741,0.02509 0.175734,0.06493 0.262837,0.116622 0.0871,0.05171 0.173166,0.115266 0.25692,0.185084 0.167507,0.139649 0.325521,0.307104 0.461441,0.468204 0.135921,0.161106 0.249516,0.315619 0.329603,0.430172 0.08009,0.114562 0.126763,0.188464 0.126763,0.188464 0,0 -0.295441,3.123443 -0.590747,6.423007 -0.147647,1.649782 -0.29577,3.343537 -0.40651,4.713304 -0.110735,1.369765 -0.184238,2.415509 -0.184238,2.768654 0,0.706289 0.02756,1.772834 0.07268,2.840494 0.02257,0.53383 0.04955,1.06821 0.07945,1.55758 0.0299,0.48937 0.06261,0.93378 0.09719,1.28883 l 1.115575,11.44309 13.08772,-0.0414 -11.704242,-35.012166 c 0,0 -0.131227,0.0627 -0.367632,0.148743 -0.118208,0.04301 -0.262656,0.09186 -0.430172,0.141988 -0.167515,0.05011 -0.357628,0.101135 -0.567929,0.148743 -0.210302,0.04761 -0.44053,0.09212 -0.687092,0.127612 -0.246565,0.03551 -0.509676,0.06228 -0.785974,0.07606 -0.276299,0.01374 -0.565908,0.01423 -0.865416,-0.0034 -0.299508,-0.01753 -0.609228,-0.0531 -0.92542,-0.111553 -0.206704,-0.03822 -0.411352,-0.08831 -0.61441,-0.149593 -0.20306,-0.06128 -0.404303,-0.134203 -0.603425,-0.217198 -0.199124,-0.083 -0.395852,-0.176362 -0.590747,-0.279739 -0.194896,-0.103376 -0.387692,-0.21649 -0.578071,-0.338897 -0.190379,-0.122442 -0.378133,-0.253768 -0.563704,-0.393863 -0.185571,-0.140091 -0.368863,-0.288947 -0.549336,-0.445384 -0.180473,-0.156445 -0.358194,-0.320432 -0.533278,-0.491867 -0.175085,-0.171438 -0.347816,-0.349878 -0.517222,-0.534969 -0.169404,-0.185092 -0.336038,-0.377289 -0.499474,-0.574691 -0.163428,-0.197401 -0.323704,-0.400128 -0.480879,-0.608495 -0.314351,-0.416735 -0.615882,-0.854038 -0.903448,-1.306575 -0.287564,-0.452537 -0.561322,-0.920265 -0.819777,-1.397849 -0.258456,-0.477583 -0.501484,-0.96513 -0.728505,-1.457009 -0.02837,-0.06149 -0.06365,-0.120187 -0.105632,-0.175787 -0.042,-0.05559 -0.09104,-0.108184 -0.146208,-0.158032 -0.110342,-0.09971 -0.246155,-0.188501 -0.406507,-0.266215 -0.160354,-0.07772 -0.345078,-0.14418 -0.551872,-0.201142 -0.206795,-0.05696 -0.435737,-0.10367 -0.685402,-0.141138 -0.249665,-0.03747 -0.519829,-0.06614 -0.808793,-0.08535 -0.288963,-0.01923 -0.596504,-0.02904 -0.921194,-0.03127 z"
       style="fill-opacity:0.25098;stroke:#000000;stroke-width:0"
       id="path17" />
    <path
       style="fill:#000000;fill-opacity:0.25098;stroke:#000000;stroke-width:0;stroke-dasharray:none;stroke-opacity:1"
       d="m 10.059324,45.395557 c 0,0 6.706518,-11.558039 7.990745,-12.842265 1.284227,-1.284227 5.779019,-6.563825 5.779019,-6.563825 0,0 0.142692,5.350944 0,6.349787 -0.142691,0.998842 -3.709988,7.848051 -3.709988,7.848051 0,0 6.421134,-3.49595 6.920557,-4.922869 0.499418,-1.426918 2.996527,-10.202466 2.996527,-10.202466 0,0 3.70999,6.84921 4.566136,7.348631 0.856152,0.49942 8.561513,5.493635 8.347474,4.494792 C 42.735756,35.906551 40.596209,32.053915 40.268291,31.120604 39.940367,30.187295 37.493582,23.30098 37.493582,23.30098 L 51.442784,40.251907 50.298424,10.650095 19.905063,16.928536 6.2066459,42.184992 Z"
       id="path14" />
    <path
       style="fill:#000000;fill-opacity:1;stroke:#000000;stroke-width:0"
       d="M 30.535036,8.2092328 9.9439645,32.028562 -4.2624223,69.980495 25.811118,81.861062 59.782484,75.938316 56.971874,48.431617 53.569113,26.793546 Z"
       id="path1"
       sodipodi:nodetypes="cccccccc" />
    <path
       style="fill:#421919;fill-opacity:1;stroke:#000000;stroke-width:0;stroke-dasharray:none;stroke-opacity:1"
       d="m 62.284537,82.852165 c -0.856151,1.42692 -0.142691,6.991901 -0.998841,12.984956 -0.856151,5.993059 0,17.265719 1.997687,22.117239 1.997686,4.85153 33.532586,5.13691 36.529104,-2.42576 2.996543,-7.56267 4.280773,-27.682221 -3.424598,-32.391051 -7.70536,-4.708829 -13.12765,-2.853837 -16.98033,-5.850365 -3.85268,-2.996527 -0.14269,-4.280757 -1.28423,-5.707676 -1.14153,-1.426918 -3.139217,-2.853837 -3.139217,-2.853837 z"
       id="path10" />
    <path
       style="fill:#421919;fill-opacity:1;stroke:#000000;stroke-width:0;stroke-dasharray:none;stroke-opacity:1"
       d="m 17.479302,91.984441 c 4.566138,2.568454 12.271499,27.254149 10.416502,29.251829 -1.854993,1.99769 -53.509439,11.12997 -57.647502,0.85615 -4.138063,-10.27381 2.849567,-26.200335 4.901717,-28.729513 3.156532,-3.890275 3.506691,-5.215388 6.950106,-8.217533 8.4002769,-7.323789 12.5484809,-9.570493 12.5484809,-9.570493 z"
       id="path9"
       sodipodi:nodetypes="csssscc" />
    <path
       style="fill:#ffffff;fill-opacity:1;stroke:#000000;stroke-width:0;stroke-dasharray:none;stroke-opacity:1"
       d="m 29.679455,8.0102959 c 0,0 -15.41072,15.2680271 -17.33706,19.6914741 -1.926341,4.423447 -2.209625,16.120591 -2.209625,16.120591 0,0 5.134807,-8.843307 6.419034,-11.340414 1.284228,-2.497107 8.133436,-8.204781 8.133436,-8.204781 0,0 0.574586,6.531692 -0.142692,8.918239 -0.312094,1.038409 -3.221089,5.74463 -3.221089,5.74463 0,0 4.78056,-2.920345 5.860889,-6.315397 1.060281,-3.33205 2.497109,-9.703045 2.497109,-9.703045 0,0 3.11644,5.164559 5.136905,7.634014 1.926342,2.354414 7.038402,5.236934 7.038402,5.236934 0,0 -2.20926,-3.569396 -3.422143,-7.564768 -1.000169,-3.294667 -1.761265,-6.01964 -1.761265,-6.01964 0,0 4.423447,2.211724 7.990743,7.705359 3.567295,5.493637 7.063245,9.27497 7.063245,9.27497 0,0 0.142691,-8.347473 -1.569608,-11.129962 C 48.443431,25.276008 29.679455,8.0102959 29.679455,8.0102959 Z"
       id="path5"
       sodipodi:nodetypes="cscscscscscscscsc" />
    <path
       style="fill:#000000;fill-opacity:0.25098;stroke:#000000;stroke-width:0;stroke-dasharray:none;stroke-opacity:1"
       d="m -11.69437,79.930189 c 0,0 -5.246715,3.834137 -6.053902,5.145817 -0.807187,1.311676 36.121616,20.381474 37.635092,20.280574 1.513477,-0.10091 -0.706289,-8.87906 -0.706289,-8.87906 z"
       id="path23"
       sodipodi:nodetypes="csscc" />
    <path
       style="fill:#000000;fill-opacity:0.25098;stroke:#000000;stroke-width:0;stroke-dasharray:none;stroke-opacity:1"
       d="m 62.163236,83.209387 c 0,0 -0.353146,1.008984 -0.353146,2.32066 0,1.31168 -0.655837,5.347615 -0.100906,5.398064 0.554945,0.05045 14.579815,-10.846574 14.932955,-12.662743 0.35315,-1.816174 1.66483,-5.347616 1.66483,-5.902554 0,-0.554944 -1.86662,-2.572911 -1.86662,-2.572911 0,0 -3.783692,-1.160333 -6.255699,-0.302697 -2.472013,0.85764 -8.021421,13.722181 -8.021421,13.722181 z"
       id="path24" />
    <path
       style="fill:#000000;fill-opacity:0.333333;stroke:#000000;stroke-width:0;stroke-dasharray:none;stroke-opacity:1"
       d="m 15.299831,76.607162 c 0,0 -3.824634,-21.035478 -3.901127,-23.330258 -0.07649,-2.294784 2.753737,-21.035482 2.753737,-21.035482 0,0 16.139949,-15.222038 16.445922,-17.669804 0.305966,-2.447765 0.38246,-0.229477 0.841416,0.229479 0.458956,0.458956 16.13995,16.522413 16.6754,17.440325 0.53545,0.917912 3.136201,19.352643 3.365679,20.423538 0.229478,1.0709 -0.248603,16.331184 -0.248603,16.331184 L 53.680021,63.450427 56.452878,30.023135 30.751346,5.8514558 9.1804165,30.17612 6.7326529,61.844077 13.444885,74.905201 c 0,0 1.109142,1.300374 1.854946,1.701961 z"
       id="path26" />
    <path
       style="fill:#471b1b;fill-opacity:1;stroke:#000000;stroke-width:0;stroke-dasharray:none;stroke-opacity:1"
       d="m 14.034714,78.013121 c 0,0 -3.834139,-20.482371 -4.5404275,-24.518306 -0.7062876,-4.035934 3.1278505,-22.197638 3.1278505,-22.197638 0,0 10.190735,-10.493431 12.814091,-13.217687 2.623359,-2.724255 5.145817,-7.567378 5.145817,-7.567378 0,0 5.246716,6.760191 6.356598,7.870073 1.109884,1.109882 11.906007,11.401516 12.713193,12.511398 0.807187,1.109882 3.329648,20.986861 3.632345,21.794046 0.302692,0.807186 -1.311681,15.841043 0.201793,19.372488 1.513477,3.53144 10.291635,13.923975 10.291635,13.923975 0,0 2.421561,-7.163785 5.044919,-10.089838 2.623355,-2.926052 4.944019,-5.246716 4.944019,-5.246716 l 3.430542,0.706292 c 0,0 -23.912908,-63.2632771 -25.628184,-65.4830412 C 49.853634,3.6510249 30.98564,1.5321589 30.98564,1.5321589 c 0,0 -12.612296,15.0338561 -18.464401,19.1706891 -5.8521071,4.136832 -6.9619891,4.944021 -6.9619891,4.944021 0,0 -6.15480002,25.930878 -6.15480002,27.242557 0,1.311681 -11.40151588,28.150645 -11.40151588,28.150645 0,0 -0.706288,2.623356 4.4395269,3.73324 5.145818,1.109882 21.5922531,-6.76019 21.5922531,-6.76019 z"
       id="path3" />
    <path
       style="fill:#471b1b;fill-opacity:1;stroke:#000000;stroke-width:0;stroke-dasharray:none;stroke-opacity:1"
       d="m 13.883366,77.458178 c 0,0 5.690152,18.932412 5.140514,19.184658 -3.113061,1.428678 -29.255224,-12.172222 -29.406572,-12.87851 -0.151342,-0.706287 24.266058,-6.306148 24.266058,-6.306148 z"
       id="path8"
       sodipodi:nodetypes="cssc" />
    <path
       d="M 9.3523685,100.42607 C 8.3837439,99.939801 7.3811469,99.432947 6.3436979,98.903142 c -0.820754,-0.419143 -1.699669,-0.885301 -2.54723,-1.323477 -0.01161,0.0121 -0.02561,0.02303 -0.03634,0.03549 -0.0342,0.03976 -0.06301,0.08185 -0.08705,0.125929 -0.04808,0.08815 -0.09183,0.190774 -0.130148,0.305093 -0.03832,0.114316 -0.07152,0.239979 -0.100579,0.372703 -0.02904,0.132715 -0.05408,0.272438 -0.07438,0.415805 -0.02028,0.143362 -0.03614,0.290686 -0.04816,0.436933 -0.02404,0.292492 -0.0322,0.582629 -0.0262,0.840062 0.0061,0.25744 0.02627,0.48203 0.05832,0.64231 0.01603,0.0801 0.04329,0.15587 0.0786,0.22987 0.03531,0.074 0.07853,0.14642 0.127613,0.21805 0.09816,0.14324 0.218696,0.28489 0.338899,0.44115 0.0601,0.0781 0.120122,0.15975 0.177477,0.24678 0.05734,0.087 0.112338,0.18007 0.161417,0.27974 0.04908,0.0997 0.0923,0.20593 0.127613,0.322 0.03531,0.11606 0.06257,0.24154 0.0786,0.37777 0.01603,0.13623 0.02066,0.25557 0.01689,0.36087 -0.0038,0.10531 -0.01647,0.19657 -0.03549,0.27721 -0.01904,0.0806 -0.04457,0.15073 -0.07438,0.21297 -0.0298,0.0622 -0.06367,0.11641 -0.09973,0.16649 -0.07212,0.10017 -0.152161,0.18298 -0.22227,0.27213 -0.03506,0.0446 -0.06771,0.0908 -0.09551,0.14199 -0.0278,0.0512 -0.05073,0.10745 -0.06676,0.17156 -0.01603,0.0641 -0.02278,0.1321 -0.02366,0.20284 -8.77e-4,0.0708 0.0041,0.14426 0.01276,0.21889 0.01703,0.14924 0.04672,0.30305 0.06676,0.4513 0.01,0.0741 0.01815,0.14661 0.02028,0.21635 0.0021,0.0697 -0.0012,0.13685 -0.01276,0.19945 -0.01145,0.0626 -0.03161,0.12053 -0.06254,0.17325 -0.03093,0.0527 -0.07322,0.10022 -0.129297,0.14029 -0.11219,0.0801 -0.741328,0.63297 -1.621809,1.41729 -0.880482,0.78432 -2.01164402,1.80015 -3.129525,2.80584 -2.235762,2.01138 -4.415818,3.98226 -4.415818,3.98226 l 0.448765,4.03889 7.116015,-3.3332 z"
       style="fill-opacity:0.313725;stroke:#000000;stroke-width:0"
       id="path37" />
    <path
       d="m 50.469835,79.36668 1.04881,-0.798651 -2.724708,-2.976557 -15.790453,7.869875 -13.520429,-2.723863 0.252695,6.40695 -1.261783,4.388772 3.229251,2.825278 c 0,0 0.04113,-0.0051 0.04141,-0.0051 -0.08728,-0.109083 -0.178947,-0.228537 -0.263681,-0.332982 -0.238478,-0.293959 -0.465038,-0.569853 -0.671035,-0.827384 -0.205997,-0.257532 -0.391378,-0.496743 -0.5468,-0.718363 -0.155415,-0.221619 -0.280875,-0.425651 -0.367633,-0.611876 -0.04337,-0.0931 -0.07691,-0.181856 -0.09973,-0.266217 -0.02281,-0.08436 -0.03466,-0.164343 -0.03466,-0.240017 0,-0.151343 0.02237,-0.304365 0.06169,-0.459753 0.03931,-0.155382 0.09487,-0.312804 0.162267,-0.472428 0.134792,-0.319248 0.314678,-0.647201 0.494402,-0.984579 0.08987,-0.16869 0.179437,-0.339479 0.263683,-0.512995 0.08424,-0.173518 0.16333,-0.349667 0.23072,-0.528209 0.0674,-0.178541 0.123802,-0.359655 0.163118,-0.543419 0.03932,-0.183765 0.06169,-0.370294 0.06169,-0.559478 0,-0.189185 -0.01259,-0.41019 -0.03466,-0.651598 -0.02206,-0.241408 -0.05343,-0.503034 -0.09127,-0.774987 -0.07567,-0.543905 -0.17715,-1.127197 -0.27805,-1.66322 -0.201795,-1.072043 -0.403127,-1.954791 -0.403127,-1.954791 0,0 0.687195,0.163494 1.778159,0.403129 0.545481,0.119811 1.191432,0.259045 1.903237,0.405663 0.711807,0.146617 1.489039,0.300799 2.296226,0.452146 0.807186,0.151343 1.644615,0.299548 2.476237,0.433553 0.831623,0.134007 1.658163,0.253603 2.443278,0.348195 0.392558,0.0473 0.774146,0.08839 1.141775,0.121692 0.367627,0.0333 0.720893,0.05866 1.054724,0.07521 0.333832,0.01655 0.648621,0.02409 0.939787,0.02113 0.291167,-0.0029 0.559018,-0.01619 0.798651,-0.04141 0.239634,-0.02522 0.50064,-0.07292 0.780057,-0.141137 0.279416,-0.06821 0.577024,-0.157116 0.889079,-0.262837 0.312055,-0.105731 0.638577,-0.228167 0.976128,-0.365942 0.337552,-0.137769 0.686145,-0.290327 1.042048,-0.454681 0.355904,-0.164355 0.718885,-0.341053 1.085996,-0.526518 0.367111,-0.185464 0.738483,-0.3795 1.109658,-0.580605 0.742352,-0.402215 1.485824,-0.830659 2.20157,-1.262628 0.715747,-0.431972 1.403931,-0.867469 2.035924,-1.285448 0.631994,-0.417978 1.207627,-0.818721 1.698717,-1.178959 0.491091,-0.360238 0.896908,-0.680194 1.189946,-0.938942 0.146519,-0.129379 0.265284,-0.243098 0.351575,-0.338899 0.08629,-0.0958 0.140811,-0.173965 0.159733,-0.23072 0.01892,-0.05675 0.04313,-0.08931 0.07353,-0.100579 0.0304,-0.01128 0.06699,-0.0012 0.108184,0.02788 0.04118,0.02906 0.08732,0.07691 0.138603,0.141138 0.05129,0.06422 0.10748,0.144981 0.168181,0.239172 0.121398,0.188395 0.26091,0.431793 0.415805,0.709066 0.154891,0.277272 0.325047,0.587976 0.507924,0.912744 0.09826,0.17449 0.208434,0.355104 0.313545,0.534123 z"
       style="fill-opacity:0.25098;stroke:#000000;stroke-width:0"
       id="path19" />
    <path
       style="fill:#000000;fill-opacity:0.313725;stroke:#000000;stroke-width:0;stroke-dasharray:none;stroke-opacity:1"
       d="m 15.970683,90.459886 c 0,0 -2.001273,-0.649062 -2.650335,-0.540885 -0.649062,0.108184 -1.02768,0.378621 -1.35221,0.973594 -0.324533,0.594973 0.486796,2.001273 0.270441,2.001273 -0.216354,0 -1.298124,-0.324531 -2.001276,-0.162267 -0.7031495,0.162267 -1.4062991,0.757239 -1.4062991,0.757239 l -0.09997,0.08056 5.4501031,2.218284 c 0,0 2.438203,-4.398326 2.275656,-4.761667 -0.162545,-0.363337 -0.486099,-0.566139 -0.486099,-0.566139 z"
       id="path38" />
    <path
       d="m 50.469835,79.36668 c -0.105109,-0.179019 -0.215287,-0.359633 -0.313545,-0.534123 -0.182877,-0.324768 -0.353029,-0.635472 -0.507924,-0.912744 -0.154892,-0.277273 -0.294412,-0.520671 -0.415805,-0.709066 -0.06069,-0.0942 -0.116901,-0.174953 -0.168181,-0.239172 -0.05129,-0.06422 -0.09741,-0.112076 -0.138603,-0.141138 -0.0412,-0.02906 -0.07778,-0.03915 -0.108184,-0.02788 -0.0304,0.01129 -0.05461,0.04381 -0.07353,0.100579 -0.01892,0.05675 -0.07343,0.134923 -0.159732,0.23072 -0.08629,0.0958 -0.205057,0.209525 -0.351575,0.338899 -0.293039,0.258748 -0.698856,0.578704 -1.189947,0.938942 -0.49109,0.360238 -1.066723,0.760981 -1.698717,1.178959 -0.631993,0.417979 -1.320177,0.853476 -2.035924,1.285448 -0.715746,0.431969 -1.459218,0.860413 -2.201569,1.262628 -0.371176,0.201105 -0.742548,0.395141 -1.109658,0.580605 -0.367112,0.185465 -0.730093,0.362163 -1.085997,0.526518 -0.355902,0.164354 -0.704496,0.316907 -1.042047,0.454681 -0.337552,0.137768 -0.664074,0.260216 -0.976129,0.365942 -0.312055,0.105731 -0.609662,0.194626 -0.889079,0.262837 -0.279417,0.06821 -0.540423,0.115919 -0.780056,0.141137 -0.239634,0.02522 -0.507484,0.03845 -0.798652,0.04141 -0.291165,0.0029 -0.605955,-0.0046 -0.939787,-0.02113 -0.333831,-0.01655 -0.687097,-0.04192 -1.054724,-0.07521 -0.367628,-0.0333 -0.749217,-0.0744 -1.141774,-0.121692 -0.785115,-0.09459 -1.611656,-0.214189 -2.443279,-0.348195 -0.831621,-0.134007 -1.66905,-0.282207 -2.476237,-0.433553 -0.807187,-0.151342 -1.584419,-0.305528 -2.296225,-0.452146 -0.711805,-0.146616 -1.357756,-0.285847 -1.903238,-0.405663 -1.090964,-0.239634 -1.778159,-0.403129 -1.778159,-0.403129 0,0 0.201332,0.882748 0.403128,1.954791 0.100906,0.536023 0.202374,1.119315 0.278049,1.66322 0.03783,0.271953 0.0692,0.533579 0.09127,0.774987 0.02208,0.241408 0.03465,0.462413 0.03465,0.651598 0,0.189184 -0.02239,0.375713 -0.06169,0.559478 -0.03932,0.183764 -0.09571,0.364878 -0.163118,0.543419 -0.0674,0.178542 -0.146469,0.354691 -0.23072,0.528209 -0.08424,0.173516 -0.173819,0.344305 -0.263682,0.512995 -0.179724,0.337378 -0.359609,0.665331 -0.494403,0.984579 -0.0674,0.159618 -0.122951,0.317041 -0.162267,0.472428 -0.03932,0.155383 -0.06169,0.308405 -0.06169,0.459753 0,0.07567 0.01178,0.15566 0.03465,0.240017 0.02282,0.08436 0.05634,0.173104 0.09973,0.266217 0.08676,0.186225 0.21221,0.390257 0.367633,0.611876 0.155415,0.22162 0.340803,0.460831 0.5468,0.718363 0.205997,0.257531 0.432557,0.533425 0.671036,0.827384 0.08473,0.104438 0.176395,0.223894 0.26368,0.332982 0.03891,-0.0046 2.69172,-0.312812 5.671685,-0.694699 1.500861,-0.192338 3.074298,-0.402074 4.417507,-0.598353 0.671604,-0.09814 1.285677,-0.192988 1.804358,-0.280585 0.51868,-0.08759 0.942119,-0.168114 1.232202,-0.237482 0.07252,-0.01734 0.155301,-0.04607 0.24847,-0.0862 0.09317,-0.04013 0.196145,-0.09153 0.308473,-0.152962 0.224656,-0.122853 0.486765,-0.286962 0.779212,-0.48595 0.292447,-0.198989 0.615881,-0.432473 0.964296,-0.695544 0.348414,-0.263072 0.721327,-0.555377 1.113884,-0.870487 0.785115,-0.63022 1.64719,-1.352649 2.537933,-2.118747 0.890742,-0.766097 1.810252,-1.575973 2.71203,-2.381584 0.901778,-0.805608 1.785631,-1.606627 2.603853,-2.355383 0.818221,-0.748756 1.570792,-1.445458 2.210866,-2.040995 1.280147,-1.191072 2.109451,-1.9793 2.109451,-1.9793 z"
       style="fill-opacity:0.25098;stroke:#000000;stroke-width:0"
       id="path18" />
    <path
       d="m 65.379191,47.698264 c -0.02514,0.867357 -0.05241,1.735896 -0.08282,2.568358 -0.07135,1.953089 -0.151392,3.741382 -0.213819,5.041214 -0.06242,1.299831 -0.107334,2.111141 -0.107334,2.111141 0,0 -0.32113,-1.551503 -0.813862,-3.879158 -0.492733,-2.327656 -1.157375,-5.431451 -1.84408,-8.534992 -0.343348,-1.551771 -0.691852,-3.103861 -1.02768,-4.558645 -0.335827,-1.454785 -0.658971,-2.81252 -0.949929,-3.976348 -0.145471,-0.581914 -0.28263,-1.115199 -0.409889,-1.588004 -0.127253,-0.472804 -0.244671,-0.885147 -0.349039,-1.224597 -0.01292,-0.04192 -0.02131,-0.05752 -0.0338,-0.09719 0.05356,-0.141939 0.208449,-0.549596 0.525671,-1.445176 0.182824,-0.516142 0.397175,-1.132301 0.627934,-1.818726 0.119288,-0.354851 0.249932,-0.770245 0.376084,-1.158675 0.268408,1.132378 1.380781,5.818576 2.761893,11.784526 0.560377,2.42064 1.054626,4.617357 1.540677,6.776273 z"
       style="fill-opacity:0.25098;stroke:#000000;stroke-width:0"
       id="path22-8" />
    <path
       style="fill:#471b1b;fill-opacity:1;stroke:#000000;stroke-width:0;stroke-dasharray:none;stroke-opacity:1"
       d="m 57.290323,24.919278 c 0.713462,0 5.850366,-24.82837912 5.850366,-24.82837912 0,0 0.713461,12.98495712 0.428077,18.26455512 -0.285383,5.279597 -4.138063,15.410718 -4.138063,15.410718 z"
       id="path20" />
    <path
       d="m 0.91974488,45.625022 c 0.02514,0.867357 0.05242,1.735895 0.08282,2.568357 0.07135,1.953089 0.151392,3.741382 0.21382,5.041215 0.06242,1.299831 0.107333,2.11114 0.107333,2.11114 0,0 0.32113,-1.551502 0.813863,-3.879157 0.492732,-2.327657 1.157375,-5.431452 1.844079,-8.534993 0.343349,-1.551771 0.691853,-3.10386 1.02768,-4.558645 0.335828,-1.454784 0.658971,-2.812519 0.949929,-3.976347 0.145472,-0.581915 0.28263,-1.115199 0.40989,-1.588004 0.127253,-0.472805 0.24467,-0.885148 0.349038,-1.224598 0.01292,-0.04192 0.02131,-0.05752 0.03381,-0.09719 -0.05356,-0.141939 -0.208449,-0.549597 -0.525672,-1.445177 -0.182823,-0.516142 -0.397174,-1.1323 -0.627934,-1.818725 -0.119288,-0.354851 -0.249931,-0.770246 -0.376083,-1.158675 -0.268409,1.132377 -1.380782,5.818576 -2.761893,11.784525 -0.560378,2.420641 -1.054626,4.617357 -1.54067802,6.776273 z"
       style="fill-opacity:0.25098;stroke:#000000;stroke-width:0"
       id="path22" />
    <path
       style="fill:#471b1b;fill-opacity:1;stroke:#000000;stroke-width:0;stroke-dasharray:none;stroke-opacity:1"
       d="m 9.3677435,24.067759 c -0.7134616,0 -5.8503646,-24.82837812 -5.8503646,-24.82837812 0,0 -0.713462,12.98495512 -0.428078,18.26455312 0.285383,5.279597 4.138063,15.410718 4.138063,15.410718 z"
       id="path20-8" />
    <path
       style="fill:#b4dfe0;fill-opacity:1;stroke:#000000;stroke-width:0;stroke-dasharray:none;stroke-opacity:1"
       d="m 14.45841,109.19304 c -0.803171,-0.0574 -5.2015015,0.40158 -5.7943181,0.0383 -0.592818,-0.36334 -0.650189,-3.49954 -1.032651,-3.93937 -0.382463,-0.43984 -0.611942,-1.09003 -1.166513,-1.05178 -0.554572,0.0383 -1.09002,1.39599 -1.415114,1.87407 -0.325095,0.47808 0.09561,2.92585 0.325094,3.6334 0.229477,0.70756 1.472483,1.98881 2.371272,2.33303 0.898789,0.34422 3.5186621,0.65019 4.4365741,0.59282 0.917913,-0.0574 3.996741,-0.0383 4.398328,-0.76493 0.401587,-0.72668 -2.122672,-2.71549 -2.122672,-2.71549 z"
       id="path34" />
    <path
       style="fill:#000000;fill-opacity:0.313725;stroke:#000000;stroke-width:0;stroke-dasharray:none;stroke-opacity:1"
       d="m 14.455309,109.20537 c -0.803171,-0.0574 -5.2015005,0.40159 -5.7943181,0.0382 -0.592818,-0.36334 -0.650189,-3.49954 -1.03265,-3.93937 -0.382464,-0.43983 -0.611943,-1.09002 -1.166514,-1.05178 -0.554572,0.0383 -1.09002,1.396 -1.415114,1.87407 -0.325094,0.47808 0.09561,2.92585 0.325094,3.6334 0.229477,0.70756 1.472483,1.98881 2.371272,2.33303 0.898789,0.34422 3.5186631,0.65019 4.4365741,0.59282 0.917913,-0.0574 3.996742,-0.0382 4.398328,-0.76493 0.401587,-0.72668 -2.122672,-2.71549 -2.122672,-2.71549 z"
       id="path34-1" />
    <path
       style="fill:#3a1515;fill-opacity:1;stroke:#000000;stroke-width:0;stroke-dasharray:none;stroke-opacity:1"
       d="m 17.485161,124.10292 c -0.919504,-3.19122 1.406301,-11.7372 2.704424,-14.27935 1.298124,-2.54216 5.192494,-7.57239 6.652882,-8.05919 1.460389,-0.48679 3.028955,-0.81133 3.353485,-0.4327 0.324532,0.37861 -2.488069,14.65797 -3.678016,16.28063 -1.189946,1.62265 -9.032775,6.49061 -9.032775,6.49061 z"
       id="path32" />
    <path
       style="fill:#4d4d4d;fill-opacity:1;stroke:#000000;stroke-width:0;stroke-dasharray:none;stroke-opacity:1"
       d="M 12.804927,109.79509 C 23.514618,100.59948 26.997796,98.273251 28.582933,95.948124 30.168066,93.622994 28.24389,90.985989 24.917285,91.58598 21.590679,92.18597 0.31594888,109.05632 3.1439929,111.8563 c 4.377181,4.33376 9.6609341,-2.06121 9.6609341,-2.06121 z"
       id="path29"
       sodipodi:nodetypes="csssc" />
    <path
       style="fill:#b4dfe0;fill-opacity:1;stroke:#000000;stroke-width:0;stroke-dasharray:none;stroke-opacity:1"
       d="m 30.215896,101.46728 c 0,0 -0.382462,-4.130611 -3.136197,-5.660462 -2.753736,-1.529856 -9.102626,-5.43098 -11.014942,-5.277992 -1.912316,0.152978 -2.830228,1.070895 -2.830228,1.835823 0,0.764924 0.152978,1.606345 0.152978,1.606345 0,0 -0.764927,-0.152994 -1.912319,-0.152994 -1.14739,0 -1.9888085,1.376868 -2.0653005,1.988812 -0.07649,0.611939 0.6119395,1.453356 0.6119395,1.453356 0,0 -1.0708951,-0.152978 -1.8358221,-0.07649 -0.764928,0.07649 -1.453361,1.529851 -1.682839,2.065301 -0.229478,0.53545 0.691654,1.217271 0.610521,1.217271 -0.08113,0 -1.095291,-0.500321 -1.406301,-0.3651 -0.311008,0.13522 -1.33869,1.31165 -1.311645,1.51448 0.02705,0.20283 0.06576,0.7538 0.432709,1.50096 1.330681,2.70894 6.7239551,4.72687 9.1709981,6.49714 0.611172,0.44214 1.491606,2.639 2.638997,3.28919 1.147389,0.65018 5.583963,3.78638 5.583963,3.78638 0,0 4.972025,-4.66605 6.425381,-6.73135 1.453362,-2.0653 1.568099,-8.49069 1.568099,-8.49069 z"
       id="path28"
       sodipodi:nodetypes="cssscsscsssssssscscc" />
    <path
       style="fill:#4a1d1d;fill-opacity:1;stroke:#000000;stroke-width:0;stroke-dasharray:none;stroke-opacity:1"
       d="m 81.904529,117.1796 c -11.899459,5.40885 -51.708577,-15.79384 -51.708577,-15.79384 0,0 -6.318138,14.91118 -11.077924,19.88732 -4.759785,4.97614 1.759331,6.78347 9.548072,9.81242 7.78874,3.02895 39.824492,5.99866 49.560419,2.9697 9.73592,-3.02895 3.67801,-16.8756 3.67801,-16.8756 z"
       id="path27"
       sodipodi:nodetypes="ccsssc" />
    <path
       style="fill:#9a9a9a;fill-opacity:1;stroke:#000000;stroke-width:0;stroke-dasharray:none;stroke-opacity:1"
       d="m 4.3765539,108.49346 -15.0419459,15.04195 c 0,0 6.2223199,-0.24132 8.1701939,-2.1892 1.94787198,-1.94787 14.1844511,-10.35347 14.1844511,-10.35347 z"
       id="path30" />
    <path
       style="fill:#45f000;fill-opacity:1;stroke:#000000;stroke-width:0;stroke-dasharray:none;stroke-opacity:1"
       d="m 10.519039,111.83203 c -3.2126921,-0.4972 -8.6971871,-0.45397 -9.63807512,0.30598 -0.994404,0.80317 -0.07649,-10e-6 -1.87407,1.83582 -0.91330898,0.93274 -0.87966498,0.61194 -0.87966498,0.61194 0,0 -1.491607,2.60075 -0.573695,3.44217 0.917912,0.84142 6.501875,-2.1418 7.49628,-2.71549 0.994405,-0.5737 5.4692251,-3.48042 5.4692251,-3.48042 z"
       id="path33"
       sodipodi:nodetypes="csscssc" />
    <path
       style="fill:#000000;fill-opacity:0.313725;stroke:#000000;stroke-width:0;stroke-dasharray:none;stroke-opacity:1"
       d="m 7.8800429,113.7061 1.6828366,-1.22388 c 0,0 1.7899995,0.26212 3.1219305,0.18099 1.331928,-0.0811 2.001273,-0.0947 2.325804,-0.16903 0.324531,-0.0744 0.919504,-0.19607 0.919504,-0.19607 0,0 0.412425,0.46651 0.635539,0.57469 0.223115,0.10819 1.358972,0.84514 1.358972,0.84514 l -4.631324,2.00127 -6.0849551,-0.78428 z"
       id="path35" />
    <path
       style="fill:#ffffff;fill-opacity:1;stroke:#000000;stroke-width:0"
       d="m 16.41276,53.954929 c 0,0 7.596148,3.704011 13.823556,3.704011 6.227408,0 12.907835,-3.458644 12.907835,-3.458644 0,0 -6.779524,7.216002 -12.498485,7.216002 -5.718958,0 -14.232906,-7.461369 -14.232906,-7.461369 z"
       id="path2" />
    <path
       style="fill:#ffffff;fill-opacity:1;stroke:#000000;stroke-width:0"
       d="m 15.549026,36.618557 c 0,0 -1.110515,1.912554 3.763412,2.652897 4.873927,0.740344 8.328861,1.110515 7.588517,1.295601 -0.740341,0.185084 -7.896994,1.233906 -9.994633,0.370171 -2.097639,-0.863732 -1.357296,-4.318669 -1.357296,-4.318669 z"
       id="path4" />
    <path
       style="fill:#ffffff;fill-opacity:1;stroke:#000000;stroke-width:0"
       d="m 45.62736,36.380926 c 0,0 1.110515,1.912554 -3.763412,2.652897 -4.873927,0.740344 -8.328861,1.110515 -7.588517,1.295601 0.740341,0.185084 7.896994,1.233906 9.994633,0.370171 2.097639,-0.863732 1.357296,-4.318669 1.357296,-4.318669 z"
       id="path4-7" />
    <circle
       style="fill:#000000;fill-opacity:0.4485597;stroke:#000000;stroke-width:0"
       id="path6"
       cx="52.934544"
       cy="60.954933"
       r="10.488196" />
    <circle
       style="fill:#000000;fill-opacity:0.44856;stroke:#000000;stroke-width:0"
       id="path6-5"
       cx="57.904472"
       cy="49.119812"
       r="10.488196" />
    <circle
       style="fill:#000000;fill-opacity:0.44856;stroke:#000000;stroke-width:0"
       id="path6-5-0"
       cx="60.826561"
       cy="61.315228"
       r="10.488196" />
    <circle
       style="fill:#000000;fill-opacity:0.44856;stroke:#000000;stroke-width:0"
       id="path6-5-0-4"
       cx="62.188759"
       cy="44.612671"
       r="10.488196" />
    <circle
       style="fill:#000000;fill-opacity:0.44856;stroke:#000000;stroke-width:0"
       id="path6-5-0-4-8"
       cx="58.469242"
       cy="33.796684"
       r="10.488196" />
    <circle
       style="fill:#000000;fill-opacity:0.44856;stroke:#000000;stroke-width:0"
       id="path6-5-0-4-9"
       cx="57.58403"
       cy="26.487812"
       r="10.488196" />
    <circle
       style="fill:#000000;fill-opacity:0.44856;stroke:#000000;stroke-width:0"
       id="path6-5-0-4-3"
       cx="58.906948"
       cy="17.670002"
       r="10.488196" />
    <circle
       style="fill:#000000;fill-opacity:0.44856;stroke:#000000;stroke-width:0"
       id="path6-5-0-4-2"
       cx="47.766193"
       cy="13.398614"
       r="10.488196" />
    <circle
       style="fill:#000000;fill-opacity:0.44856;stroke:#000000;stroke-width:0"
       id="path6-5-0-4-0"
       cx="46.471531"
       cy="24.010201"
       r="10.488196" />
    <circle
       style="fill:#000000;fill-opacity:0.44856;stroke:#000000;stroke-width:0"
       id="path6-5-0-4-98"
       cx="33.48114"
       cy="15.946209"
       r="10.488196" />
    <circle
       style="fill:#000000;fill-opacity:0.44856;stroke:#000000;stroke-width:0"
       id="path6-5-0-4-4"
       cx="36.855068"
       cy="7.564878"
       r="10.488196" />
    <circle
       style="fill:#000000;fill-opacity:0.44856;stroke:#000000;stroke-width:0"
       id="path6-5-0-4-5"
       cx="59.000282"
       cy="8.4771185"
       r="10.488196" />
    <circle
       style="fill:#000000;fill-opacity:0.44856;stroke:#000000;stroke-width:0"
       id="path6-5-0-4-38"
       cx="46.707859"
       cy="6.7852559"
       r="10.488196" />
    <circle
       style="fill:#000000;fill-opacity:0.44856;stroke:#000000;stroke-width:0"
       id="path6-5-0-4-48"
       cx="26.536892"
       cy="6.2204838"
       r="10.488196" />
    <circle
       style="fill:#000000;fill-opacity:0.44856;stroke:#000000;stroke-width:0"
       id="path6-5-0-4-23"
       cx="16.120556"
       cy="17.272226"
       r="10.488196" />
    <circle
       style="fill:#000000;fill-opacity:0.44856;stroke:#000000;stroke-width:0"
       id="path6-5-0-4-7"
       cx="24.189447"
       cy="15.904478"
       r="10.488196" />
    <circle
       style="fill:#000000;fill-opacity:0.44856;stroke:#000000;stroke-width:0"
       id="path6-5-0-4-78"
       cx="43.566666"
       cy="18.724659"
       r="10.488196" />
    <circle
       style="fill:#000000;fill-opacity:0.44856;stroke:#000000;stroke-width:0"
       id="path6-5-0-4-04"
       cx="51.706116"
       cy="29.355274"
       r="10.488196" />
    <circle
       style="fill:#000000;fill-opacity:0.44856;stroke:#000000;stroke-width:0"
       id="path6-5-0-4-33"
       cx="15.945558"
       cy="23.000948"
       r="10.488196" />
    <circle
       style="fill:#000000;fill-opacity:0.44856;stroke:#000000;stroke-width:0"
       id="path6-5-0-4-73"
       cx="7.4058838"
       cy="28.543722"
       r="10.488196" />
    <circle
       style="fill:#000000;fill-opacity:0.44856;stroke:#000000;stroke-width:0"
       id="path6-5-0-4-71"
       cx="3.4880896"
       cy="41.56171"
       r="10.488196" />
    <circle
       style="fill:#000000;fill-opacity:0.44856;stroke:#000000;stroke-width:0"
       id="path6-5-0-4-6"
       cx="4.8453856"
       cy="48.165844"
       r="10.488196" />
    <circle
       style="fill:#000000;fill-opacity:0.44856;stroke:#000000;stroke-width:0"
       id="path6-5-0-4-24"
       cx="5.5132952"
       cy="57.541077"
       r="10.488196" />
    <circle
       style="fill:#000000;fill-opacity:0.44856;stroke:#000000;stroke-width:0"
       id="path6-5-0-4-95"
       cx="12.354407"
       cy="66.752983"
       r="10.488196" />
    <circle
       style="fill:#000000;fill-opacity:0.44856;stroke:#000000;stroke-width:0"
       id="path6-5-0-4-01"
       cx="4.1621242"
       cy="62.206562"
       r="10.488196" />
    <circle
       style="fill:#000000;fill-opacity:0.44856;stroke:#000000;stroke-width:0"
       id="path6-5-0-4-05"
       cx="5.424284"
       cy="32.133648"
       r="10.488196" />
    <circle
       style="fill:#000000;fill-opacity:0.44856;stroke:#000000;stroke-width:0"
       id="path6-5-0-4-00"
       cx="2.9754999"
       cy="19.207771"
       r="10.488196" />
    <circle
       style="fill:#000000;fill-opacity:0.44856;stroke:#000000;stroke-width:0"
       id="path6-5-0-4-88"
       cx="5.3186955"
       cy="7.0369368"
       r="10.488196" />
    <circle
       style="fill:#000000;fill-opacity:0.44856;stroke:#000000;stroke-width:0"
       id="path6-5-0-4-51"
       cx="17.94136"
       cy="7.8411379"
       r="10.488196" />
    <circle
       style="fill:#000000;fill-opacity:0.44856;stroke:#000000;stroke-width:0"
       id="path6-5-0-4-41"
       cx="7.4095583"
       cy="18.383968"
       r="10.488196" />
    <circle
       style="fill:#000000;fill-opacity:0.44856;stroke:#000000;stroke-width:0"
       id="path6-5-0-4-57"
       cx="59.595184"
       cy="6.3512239"
       r="10.488196" />
    <circle
       style="fill:#000000;fill-opacity:0.44856;stroke:#000000;stroke-width:0"
       id="path6-5-0-4-89"
       cx="64.867752"
       cy="17.924784"
       r="10.488196" />
    <circle
       style="fill:#000000;fill-opacity:0.44856;stroke:#000000;stroke-width:0"
       id="path6-5-0-4-79"
       cx="66.738861"
       cy="37.993835"
       r="10.488196" />
    <circle
       style="fill:#000000;fill-opacity:0.44856;stroke:#000000;stroke-width:0"
       id="path6-5-0-4-1"
       cx="65.081375"
       cy="61.046967"
       r="10.488196" />
    <circle
       style="fill:#000000;fill-opacity:0.44856;stroke:#000000;stroke-width:0"
       id="path6-5-0-4-69"
       cx="10.682723"
       cy="27.797176"
       r="10.488196" />
    <circle
       style="fill:#000000;fill-opacity:0.44856;stroke:#000000;stroke-width:0"
       id="path6-5-0-4-691"
       cx="6.5255737"
       cy="44.273853"
       r="10.488196" />
    <circle
       style="fill:#000000;fill-opacity:0.44856;stroke:#000000;stroke-width:0"
       id="path6-5-0-4-32"
       cx="42.528011"
       cy="23.662083"
       r="10.488196" />
    <circle
       style="fill:#000000;fill-opacity:0.44856;stroke:#000000;stroke-width:0"
       id="path6-5-0-4-12"
       cx="28.475536"
       cy="17.93581"
       r="10.488196" />
    <circle
       style="fill:#000000;fill-opacity:0.44856;stroke:#000000;stroke-width:0"
       id="path6-5-0-4-22"
       cx="25.569447"
       cy="17.89653"
       r="10.488196" />
    <circle
       style="fill:#000000;fill-opacity:0.44856;stroke:#000000;stroke-width:0"
       id="path6-5-0-4-77"
       cx="4.4316077"
       cy="5.0356598"
       r="10.488196" />
    <circle
       style="fill:#000000;fill-opacity:0.44856;stroke:#000000;stroke-width:0"
       id="path6-5-0-4-235"
       cx="15.014367"
       cy="2.4831638"
       r="10.488196" />
    <circle
       style="fill:#000000;fill-opacity:0.44856;stroke:#000000;stroke-width:0"
       id="path6-5-0-4-46"
       cx="26.603851"
       cy="0.84103119"
       r="10.488196" />
    <circle
       style="fill:#000000;fill-opacity:0.44856;stroke:#000000;stroke-width:0"
       id="path6-5-0-4-83"
       cx="41.965038"
       cy="1.7925518"
       r="10.488196" />
    <circle
       style="fill:#000000;fill-opacity:0.44856;stroke:#000000;stroke-width:0"
       id="path6-5-0-4-74"
       cx="59.407288"
       cy="3.4678373"
       r="10.488196" />
    <circle
       style="fill:#000000;fill-opacity:0.44856;stroke:#000000;stroke-width:0"
       id="path6-5-0-4-56"
       cx="64.038391"
       cy="16.230471"
       r="10.488196" />
    <circle
       style="fill:#000000;fill-opacity:0.44856;stroke:#000000;stroke-width:0"
       id="path6-5-0-4-44"
       cx="66.862251"
       cy="33.074791"
       r="10.488196" />
    <circle
       style="fill:#000000;fill-opacity:0.44856;stroke:#000000;stroke-width:0"
       id="path6-5-0-4-49"
       cx="60.65712"
       cy="43.29163"
       r="10.488196" />
    <circle
       style="fill:#000000;fill-opacity:0.44856;stroke:#000000;stroke-width:0"
       id="path6-5-0-4-64"
       cx="5.5856514"
       cy="33.691093"
       r="10.488196" />
    <circle
       style="fill:#000000;fill-opacity:0.44856;stroke:#000000;stroke-width:0"
       id="path6-5-0-4-239"
       cx="1.1424444"
       cy="5.5507007"
       r="10.488196" />
    <circle
       style="fill:#000000;fill-opacity:0.44856;stroke:#000000;stroke-width:0"
       id="path6-5-0-4-885"
       cx="62.58971"
       cy="2.2695367"
       r="10.488196" />
    <circle
       style="fill:#000000;fill-opacity:0.44856;stroke:#000000;stroke-width:0"
       id="path6-5-0-4-82"
       cx="-1.4561826"
       cy="19.819824"
       r="10.488196" />
    <circle
       style="fill:#000000;fill-opacity:0.44856;stroke:#000000;stroke-width:0"
       id="path6-5-0-4-19"
       cx="24.062382"
       cy="-1.3855505"
       r="10.488196" />
    <circle
       style="fill:#000000;fill-opacity:0.44856;stroke:#000000;stroke-width:0"
       id="path6-5-0-4-70"
       cx="44.291656"
       cy="-2.5961015"
       r="10.488196" />
    <circle
       style="fill:#000000;fill-opacity:0.44856;stroke:#000000;stroke-width:0"
       id="path6-5-0-4-057"
       cx="15.415168"
       cy="0.48621184"
       r="10.488196" />
  </g>
</svg>
