<?xml version="1.0" encoding="UTF-8" standalone="no"?>
<!-- Created with Inkscape (http://www.inkscape.org/) -->

<svg
   width="256"
   height="256"
   viewBox="0 0 67.733332 67.733333"
   version="1.1"
   id="svg1"
   inkscape:version="1.3 (0e150ed6c4, 2023-07-21)"
   sodipodi:docname="Swap.svg"
   inkscape:export-filename="..\..\Assets\Resources\SkillsSprites\Swap.png"
   inkscape:export-xdpi="69.75"
   inkscape:export-ydpi="69.75"
   xmlns:inkscape="http://www.inkscape.org/namespaces/inkscape"
   xmlns:sodipodi="http://sodipodi.sourceforge.net/DTD/sodipodi-0.dtd"
   xmlns="http://www.w3.org/2000/svg"
   xmlns:svg="http://www.w3.org/2000/svg">
  <sodipodi:namedview
     id="namedview1"
     pagecolor="#505050"
     bordercolor="#ffffff"
     borderopacity="1"
     inkscape:showpageshadow="0"
     inkscape:pageopacity="0"
     inkscape:pagecheckerboard="1"
     inkscape:deskcolor="#505050"
     inkscape:document-units="mm"
     inkscape:zoom="2.1442755"
     inkscape:cx="75.783172"
     inkscape:cy="138.27514"
     inkscape:window-width="1920"
     inkscape:window-height="1009"
     inkscape:window-x="-8"
     inkscape:window-y="-8"
     inkscape:window-maximized="1"
     inkscape:current-layer="layer1" />
  <defs
     id="defs1" />
  <g
     inkscape:label="Шар 1"
     inkscape:groupmode="layer"
     id="layer1">
    <path
       d="m 50.620763,55.141747 -7.78229,-6.28048 a 14.999999,14.999999 0 0 1 -0.0055,0.0068 14.999999,14.999999 0 0 1 -0.01842,0.02365 14.999999,14.999999 0 0 1 -0.01915,0.02373 14.999999,14.999999 0 0 1 -0.01915,0.02373 14.999999,14.999999 0 0 1 -0.05485,0.06796 14.999999,14.999999 0 0 1 -0.05562,0.06733 14.999999,14.999999 0 0 1 -0.05562,0.06733 14.999999,14.999999 0 0 1 -0.05616,0.06624 14.999999,14.999999 0 0 1 -0.05648,0.06664 14.999999,14.999999 0 0 1 -0.05726,0.06601 14.999999,14.999999 0 0 1 -0.05726,0.06601 14.999999,14.999999 0 0 1 -0.05765,0.0657 14.999999,14.999999 0 0 1 -0.05818,0.06461 14.999999,14.999999 0 0 1 -0.0585,0.06501 14.999999,14.999999 0 0 1 -0.05889,0.06469 14.999999,14.999999 0 0 1 -0.05935,0.06367 14.999999,14.999999 0 0 1 -0.05935,0.06367 14.999999,14.999999 0 0 1 -0.06006,0.06375 14.999999,14.999999 0 0 1 -0.06013,0.06304 14.999999,14.999999 0 0 1 -0.06098,0.06235 14.999999,14.999999 0 0 1 -0.06098,0.06235 14.999999,14.999999 0 0 1 -0.06137,0.06204 14.999999,14.999999 0 0 1 -0.06176,0.06172 14.999999,14.999999 0 0 1 -0.06215,0.06141 14.999999,14.999999 0 0 1 -0.06257,0.06107 14.999999,14.999999 0 0 1 -0.06264,0.06034 14.999999,14.999999 0 0 1 -0.06337,0.06042 14.999999,14.999999 0 0 1 -0.06345,0.05969 14.999999,14.999999 0 0 1 -0.06385,0.05937 14.999999,14.999999 0 0 1 -0.06425,0.05904 14.999999,14.999999 0 0 1 -0.06466,0.05872 14.999999,14.999999 0 0 1 -0.06505,0.0584 14.999999,14.999999 0 0 1 -0.06546,0.05807 14.999999,14.999999 0 0 1 -0.06554,0.05734 14.999999,14.999999 0 0 1 -2.112832,1.540131 14.999999,14.999999 0 0 1 -2.348119,1.150367 14.999999,14.999999 0 0 1 -2.511913,0.724673 14.999999,14.999999 0 0 1 -2.60007,0.27767 14.999999,14.999999 0 0 1 -2.608298,-0.177869 14.999999,14.999999 0 0 1 -2.538096,-0.628552 14.999999,14.999999 0 0 1 -2.390424,-1.059214 14.999999,14.999999 0 0 1 -2.170329,-1.458656 14.999999,14.999999 0 0 1 -1.883684,-1.813022 14.999999,14.999999 0 0 1 -1.540533,-2.113156 14.999999,14.999999 0 0 1 -1.149966,-2.347796 14.999999,14.999999 0 0 1 -0.725074,-2.512236 14.999999,14.999999 0 0 1 -0.277671,-2.600071 14.999999,14.999999 0 0 1 0.177869,-2.608298 14.999999,14.999999 0 0 1 0.628552,-2.538096 14.999999,14.999999 0 0 1 1.059214,-2.390424 14.999999,14.999999 0 0 1 1.458656,-2.170329 14.999999,14.999999 0 0 1 0.06949,-0.07209 l -7.783044,-6.280995 a 25,25 0 0 0 -0.06824,0.0731 25,25 0 0 0 -2.0361951,2.928758 25,25 0 0 0 -1.599071,3.18856 25,25 0 0 0 -1.1288223,3.383453 25,25 0 0 0 -0.6357664,3.509764 25,25 0 0 0 -0.1297331,3.564865 25,25 0 0 0 0.3783871,3.546615 25,25 0 0 0 0.8799537,3.456671 25,25 0 0 0 1.362613,3.29635 25,25 0 0 0 1.8178771,3.068765 25,25 0 0 0 2.236037,2.779363 25,25 0 0 0 2.609088,2.432307 25,25 0 0 0 2.928434,2.036597 25,25 0 0 0 3.188885,1.598669 25,25 0 0 0 3.383452,1.128823 25,25 0 0 0 3.509764,0.635765 25,25 0 0 0 3.564541,0.130136 25,25 0 0 0 3.54694,-0.37879 25,25 0 0 0 3.45667,-0.879953 25,25 0 0 0 3.29635,-1.362613 25,25 0 0 0 3.068765,-1.817876 25,25 0 0 0 2.779364,-2.236038 25,25 0 0 0 0.06685,-0.06226 25,25 0 0 0 0.06677,-0.06299 25,25 0 0 0 0.06644,-0.06258 25,25 0 0 0 0.06637,-0.06331 25,25 0 0 0 0.06597,-0.06364 25,25 0 0 0 0.06597,-0.06364 25,25 0 0 0 0.06524,-0.06356 25,25 0 0 0 0.06517,-0.06428 25,25 0 0 0 0.06516,-0.06429 25,25 0 0 0 0.06507,-0.06503 25,25 0 0 0 0.06435,-0.06494 25,25 0 0 0 0.06436,-0.06494 25,25 0 0 0 0.06397,-0.06525 25,25 0 0 0 0.06429,-0.06565 25,25 0 0 0 0.06358,-0.06556 25,25 0 0 0 0.06352,-0.06628 25,25 0 0 0 0.06272,-0.06625 25,25 0 0 0 0.06305,-0.06666 25,25 0 0 0 0.06272,-0.06626 25,25 0 0 0 0.06227,-0.06729 25,25 0 0 0 0.06227,-0.06729 25,25 0 0 0 0.06188,-0.0676 25,25 0 0 0 0.06155,-0.0672 25,25 0 0 0 0.06149,-0.06792 25,25 0 0 0 0.06149,-0.06792 25,25 0 0 0 0.06064,-0.06861 25,25 0 0 0 0.06064,-0.06861 25,25 0 0 0 0.06064,-0.06861 25,25 0 0 0 0.06025,-0.06892 25,25 0 0 0 0.05986,-0.06923 25,25 0 0 0 0.05947,-0.06955 25,25 0 0 0 0.05947,-0.06955 25,25 0 0 0 0.05908,-0.06986 25,25 0 0 0 0.05908,-0.06986 25,25 0 0 0 0.05869,-0.07018 25,25 0 0 0 0.05854,-0.07095 25,25 0 0 0 0.05822,-0.07055 25,25 0 0 0 0.05785,-0.07086 25,25 0 0 0 0.05745,-0.07118 25,25 0 0 0 0.01915,-0.02373 25,25 0 0 0 0.01947,-0.02413 25,25 0 0 0 0.01915,-0.02373 25,25 0 0 0 0.0049,-0.0061 z"
       style="fill:#f2ff29;fill-opacity:1;stroke:#ffffff;stroke-width:0"
       id="path5" />
    <path
       d="M 54.075305,8.2294962 A 25,25 0 0 0 51.146546,6.193301 25,25 0 0 0 47.957986,4.5942301 25,25 0 0 0 44.574533,3.4654073 25,25 0 0 0 41.06477,2.8296415 25,25 0 0 0 37.499904,2.6999078 25,25 0 0 0 33.953691,3.0786191 25,25 0 0 0 30.496618,3.9582486 25,25 0 0 0 27.200269,5.3208614 25,25 0 0 0 24.131503,7.1387378 25,25 0 0 0 21.352542,9.3750993 25,25 0 0 0 18.9881,11.910793 l 7.783094,6.281129 a 14.999999,14.999999 0 0 1 1.743549,-1.811586 14.999999,14.999999 0 0 1 2.113156,-1.540534 14.999999,14.999999 0 0 1 2.347795,-1.149966 14.999999,14.999999 0 0 1 2.512237,-0.725074 14.999999,14.999999 0 0 1 2.600072,-0.27767 14.999999,14.999999 0 0 1 2.608699,0.178193 14.999999,14.999999 0 0 1 2.537695,0.628228 14.999999,14.999999 0 0 1 2.390825,1.059539 14.999999,14.999999 0 0 1 2.169927,1.458331 14.999999,14.999999 0 0 1 0.714286,0.614957 14.999999,14.999999 0 0 1 0.674393,0.657808 14.999999,14.999999 0 0 1 0.631444,0.699507 14.999999,14.999999 0 0 1 0.586974,0.737331 14.999999,14.999999 0 0 1 0.538964,0.77296 14.999999,14.999999 0 0 1 0.489513,0.805433 14.999999,14.999999 0 0 1 0.437821,0.834107 14.999999,14.999999 0 0 1 0.384765,0.860351 14.999999,14.999999 0 0 1 0.329792,0.882391 14.999999,14.999999 0 0 1 0.274183,0.901927 14.999999,14.999999 0 0 1 0.216252,0.916934 14.999999,14.999999 0 0 1 0.158739,0.928955 14.999999,14.999999 0 0 1 0.100435,0.937019 14.999999,14.999999 0 0 1 0.04102,0.941527 14.999999,14.999999 0 0 1 -0.01847,0.941999 14.999999,14.999999 0 0 1 -0.07721,0.939086 14.999999,14.999999 0 0 1 -0.136013,0.932136 14.999999,14.999999 0 0 1 -0.194401,0.922203 14.999999,14.999999 0 0 1 -0.251724,0.908479 14.999999,14.999999 0 0 1 -0.308461,0.889918 14.999999,14.999999 0 0 1 -0.363577,0.869344 14.999999,14.999999 0 0 1 -0.417626,0.844983 14.999999,14.999999 0 0 1 -0.469884,0.816755 14.999999,14.999999 0 0 1 -0.520197,0.786111 14.999999,14.999999 0 0 1 -0.01751,0.02505 14.999999,14.999999 0 0 1 -0.01758,0.02433 14.999999,14.999999 0 0 1 -0.01751,0.02505 14.999999,14.999999 0 0 1 -0.0179,0.02473 14.999999,14.999999 0 0 1 -0.01798,0.02467 14.999999,14.999999 0 0 1 -0.01758,0.02433 14.999999,14.999999 0 0 1 -0.01798,0.02467 14.999999,14.999999 0 0 1 -0.0179,0.02473 14.999999,14.999999 0 0 1 -0.01837,0.02435 14.999999,14.999999 0 0 1 -0.01758,0.02433 14.999999,14.999999 0 0 1 -0.01837,0.02436 14.999999,14.999999 0 0 1 -0.0179,0.02473 14.999999,14.999999 0 0 1 -0.01837,0.02435 14.999999,14.999999 0 0 1 -0.01804,0.02395 14.999999,14.999999 0 0 1 -0.01837,0.02436 14.999999,14.999999 0 0 1 -0.01837,0.02435 14.999999,14.999999 0 0 1 -0.01875,0.02405 14.999999,14.999999 0 0 1 -0.01837,0.02435 14.999999,14.999999 0 0 1 -0.01804,0.02395 14.999999,14.999999 0 0 1 -0.01875,0.02405 14.999999,14.999999 0 0 1 -0.01875,0.02405 14.999999,14.999999 0 0 1 -0.01875,0.02405 14.999999,14.999999 0 0 1 -0.01875,0.02405 14.999999,14.999999 0 0 1 -0.01842,0.02365 14.999999,14.999999 0 0 1 -0.01875,0.02405 14.999999,14.999999 0 0 1 -0.01875,0.02405 14.999999,14.999999 0 0 1 -0.01915,0.02373 14.999999,14.999999 0 0 1 -0.01363,0.01689 l 7.782289,6.28048 a 25,25 0 0 0 0.01388,-0.01802 25,25 0 0 0 0.01947,-0.02413 25,25 0 0 0 0.01915,-0.02373 25,25 0 0 0 0.01907,-0.02446 25,25 0 0 0 0.01915,-0.02373 25,25 0 0 0 0.01875,-0.02405 25,25 0 0 0 0.01907,-0.02446 25,25 0 0 0 0.01915,-0.02373 25,25 0 0 0 0.01875,-0.02405 25,25 0 0 0 0.01907,-0.02446 25,25 0 0 0 0.01875,-0.02405 25,25 0 0 0 0.01907,-0.02446 25,25 0 0 0 0.01875,-0.02405 25,25 0 0 0 0.01875,-0.02405 25,25 0 0 0 0.0187,-0.02476 25,25 0 0 0 0.01875,-0.02405 25,25 0 0 0 0.01875,-0.02405 25,25 0 0 0 0.0187,-0.02476 25,25 0 0 0 0.01875,-0.02405 25,25 0 0 0 0.01837,-0.02435 25,25 0 0 0 0.0187,-0.02476 25,25 0 0 0 0.01837,-0.02435 25,25 0 0 0 0.01875,-0.02405 25,25 0 0 0 0.0187,-0.02476 25,25 0 0 0 0.01837,-0.02435 25,25 0 0 0 0.01837,-0.02435 25,25 0 0 0 0.01831,-0.02507 25,25 0 0 0 0.01837,-0.02435 25,25 0 0 0 0.01837,-0.02436 25,25 0 0 0 0.0187,-0.02476 25,25 0 0 0 0.0179,-0.02473 25,25 0 0 0 0.01837,-0.02436 25,25 0 0 0 0.01823,-0.02514 25,25 0 0 0 0.0179,-0.02473 25,25 0 0 0 0.01837,-0.02436 25,25 0 0 0 0.01823,-0.02514 25,25 0 0 0 0.0179,-0.02473 25,25 0 0 0 0.698137,-1.009069 25,25 0 0 0 0.64759,-1.041891 25,25 0 0 0 0.596553,-1.072456 25,25 0 0 0 0.54244,-1.100852 25,25 0 0 0 0.487989,-1.125539 25,25 0 0 0 0.432238,-1.148616 25,25 0 0 0 0.375423,-1.167905 25,25 0 0 0 0.317309,-1.185586 25,25 0 0 0 0.25926,-1.199231 25,25 0 0 0 0.199588,-1.210865 25,25 0 0 0 0.140303,-1.218864 25,25 0 0 0 0.08052,-1.224609 25,25 0 0 0 0.02001,-1.226965 25,25 0 0 0 -0.0402,-1.226415 A 25,25 0 0 0 63.233758,25.030122 25,25 0 0 0 63.073665,23.813203 25,25 0 0 0 62.85397,22.605956 25,25 0 0 0 62.574983,21.411289 25,25 0 0 0 62.23799,20.230901 25,25 0 0 0 61.843453,19.069152 25,25 0 0 0 61.392334,17.928146 25,25 0 0 0 60.885995,16.81031 25,25 0 0 0 60.32555,15.719197 25,25 0 0 0 59.711879,14.656186 25,25 0 0 0 59.047229,13.625077 25,25 0 0 0 58.332154,12.62765 25,25 0 0 0 57.569148,11.666578 25,25 0 0 0 56.760295,10.744211 25,25 0 0 0 55.906883,9.8622483 25,25 0 0 0 55.011398,9.0233672 25,25 0 0 0 54.075532,8.2295868 Z"
       style="fill:#0071f4;fill-opacity:1;stroke:#ffffff;stroke-width:0"
       id="path4" />
    <path
       style="fill:#f2ff29;fill-opacity:1;stroke:#ffffff;stroke-width:0"
       d="M 5.0605169,25.389835 23.328686,35.936968 19.528098,21.75298 Z"
       id="path7" />
    <path
       style="fill:#0071f4;fill-opacity:1;stroke:#ffffff;stroke-width:0"
       d="M 64.491553,42.842183 46.223385,32.29505 50.023973,46.479038 Z"
       id="path7-4" />
  </g>
</svg>
