<?xml version="1.0" encoding="UTF-8" standalone="no"?>
<!-- Created with Inkscape (http://www.inkscape.org/) -->

<svg
   width="256"
   height="256"
   viewBox="0 0 67.733332 67.733333"
   version="1.1"
   id="svg1"
   inkscape:version="1.3 (0e150ed6c4, 2023-07-21)"
   sodipodi:docname="Wave.svg"
   inkscape:export-filename="..\..\Assets\Resources\SkillsSprites\Wave.png"
   inkscape:export-xdpi="96"
   inkscape:export-ydpi="96"
   xmlns:inkscape="http://www.inkscape.org/namespaces/inkscape"
   xmlns:sodipodi="http://sodipodi.sourceforge.net/DTD/sodipodi-0.dtd"
   xmlns="http://www.w3.org/2000/svg"
   xmlns:svg="http://www.w3.org/2000/svg">
  <sodipodi:namedview
     id="namedview1"
     pagecolor="#505050"
     bordercolor="#ffffff"
     borderopacity="1"
     inkscape:showpageshadow="0"
     inkscape:pageopacity="0"
     inkscape:pagecheckerboard="1"
     inkscape:deskcolor="#505050"
     inkscape:document-units="mm"
     inkscape:zoom="1.7123067"
     inkscape:cx="72.708936"
     inkscape:cy="219.29482"
     inkscape:window-width="1920"
     inkscape:window-height="1009"
     inkscape:window-x="-8"
     inkscape:window-y="-8"
     inkscape:window-maximized="1"
     inkscape:current-layer="layer1" />
  <defs
     id="defs1" />
  <g
     inkscape:label="Шар 1"
     inkscape:groupmode="layer"
     id="layer1">
    <path
       style="fill:#0080fe;fill-opacity:1;stroke:#000000;stroke-width:0;stroke-dasharray:none"
       d="m -13.852324,66.722722 c 0,0 7.701956,-12.000722 15.9412587,-19.523566 8.2393023,-7.522839 53.2106063,-29.532287 55.1808733,-29.711401 1.970268,-0.179116 -11.568302,39.54474 -2.791654,43.306163 8.776649,3.761421 12.961493,5.228801 12.961493,6.303494 0,1.07469 -49.230337,1.774693 -81.291971,-0.37469 z"
       id="path1"
       sodipodi:nodetypes="cssssc" />
    <path
       style="fill:#ffffff;fill-opacity:1;stroke:#000000;stroke-width:0;stroke-dasharray:none"
       d="m 56.411328,19.130523 c -1.701595,1.791152 -8.328861,22.926754 -8.239304,28.658443 0.08956,5.731688 1.253808,4.364602 1.253808,1.164249 -10e-7,-3.492747 3.134517,-15.493471 4.11965,-19.165333 0.985137,-3.671864 2.865846,-10.657359 2.865846,-10.657359 z"
       id="path2"
       sodipodi:nodetypes="csssc" />
  </g>
</svg>
