<?xml version="1.0" encoding="UTF-8" standalone="no"?>
<!-- Created with Inkscape (http://www.inkscape.org/) -->

<svg
   width="200"
   height="200"
   viewBox="0 0 52.916665 52.916666"
   version="1.1"
   id="svg1"
   inkscape:version="1.3 (0e150ed6c4, 2023-07-21)"
   sodipodi:docname="Hook.svg"
   inkscape:export-filename="..\..\Assets\Sprites\AttackProjectiles\Hook.png"
   inkscape:export-xdpi="96"
   inkscape:export-ydpi="96"
   xmlns:inkscape="http://www.inkscape.org/namespaces/inkscape"
   xmlns:sodipodi="http://sodipodi.sourceforge.net/DTD/sodipodi-0.dtd"
   xmlns="http://www.w3.org/2000/svg"
   xmlns:svg="http://www.w3.org/2000/svg">
  <sodipodi:namedview
     id="namedview1"
     pagecolor="#505050"
     bordercolor="#ffffff"
     borderopacity="1"
     inkscape:showpageshadow="0"
     inkscape:pageopacity="0"
     inkscape:pagecheckerboard="1"
     inkscape:deskcolor="#505050"
     inkscape:document-units="mm"
     inkscape:zoom="1.5162318"
     inkscape:cx="-97.280643"
     inkscape:cy="26.051426"
     inkscape:window-width="1920"
     inkscape:window-height="1009"
     inkscape:window-x="-8"
     inkscape:window-y="-8"
     inkscape:window-maximized="1"
     inkscape:current-layer="layer1" />
  <defs
     id="defs1" />
  <g
     inkscape:label="Шар 1"
     inkscape:groupmode="layer"
     id="layer1">
    <path
       style="fill:#343434;fill-opacity:1;stroke:#000000;stroke-width:0;stroke-dasharray:none;stroke-opacity:1"
       d="m 30.705254,37.8433 c 0,0 -13.199847,-6.019342 -16.478915,-11.710635 C 10.947274,20.44137 7.1541849,8.7461831 12.752405,4.060982 18.350624,-0.62422407 37.352927,1.642241 39.18423,2.6871445 41.015534,3.7320461 41.366941,13.543071 41.366941,13.543071 l 2.256468,2.182881 -7.408629,-0.546161 -2.245399,1.703455 -0.819767,-1.42282 -5.480032,-1.554886 5.751005,-0.419542 1.250544,-2.052226 1.214374,1.707671 3.601489,0.383539 c 0,0 -0.758401,-7.3046359 -2.50565,-7.9854009 -2.527811,-0.984889 -17.56719,0.458355 -19.210938,1.072478 -1.643744,0.614121 -3.971156,4.7977699 -3.704398,6.2831139 0.266758,1.485345 1.802549,5.250971 2.57367,7.700607 0.771123,2.449637 7.569527,7.951488 9.668985,9.328474 2.099465,1.376992 10.242075,7.752383 10.242075,7.752383 z"
       id="path11"
       sodipodi:nodetypes="csssccccccccccssssscc" />
    <path
       style="fill:#343434;fill-opacity:1;stroke:#000000;stroke-width:0"
       d="m 30.639872,37.80011 4.314841,2.491175 h 4.118141 c 0,0 -0.758677,-1.387598 -2.276033,-2.411811 -1.517356,-1.024216 -8.307518,-6.410828 -8.307518,-6.410828 z"
       id="path1" />
    <ellipse
       style="fill:#343434;fill-opacity:0;stroke:#343434;stroke-width:1.46374;stroke-dasharray:none;stroke-opacity:1"
       id="path2"
       cx="36.793358"
       cy="43.786415"
       rx="2.7224414"
       ry="4.1845694" />
    <ellipse
       style="fill:#343434;fill-opacity:0;stroke:#343434;stroke-width:1.46374;stroke-dasharray:none;stroke-opacity:1"
       id="path2-4"
       cx="36.890335"
       cy="52.187702"
       rx="2.7224414"
       ry="4.1845694" />
  </g>
</svg>
