<?xml version="1.0" encoding="UTF-8" standalone="no"?>
<!-- Created with Inkscape (http://www.inkscape.org/) -->

<svg
   width="256"
   height="256"
   viewBox="0 0 67.733332 67.733333"
   version="1.1"
   id="svg1"
   inkscape:version="1.3 (0e150ed6c4, 2023-07-21)"
   sodipodi:docname="NecromancerProjectile.svg"
   xmlns:inkscape="http://www.inkscape.org/namespaces/inkscape"
   xmlns:sodipodi="http://sodipodi.sourceforge.net/DTD/sodipodi-0.dtd"
   xmlns="http://www.w3.org/2000/svg"
   xmlns:svg="http://www.w3.org/2000/svg">
  <sodipodi:namedview
     id="namedview1"
     pagecolor="#505050"
     bordercolor="#ffffff"
     borderopacity="1"
     inkscape:showpageshadow="0"
     inkscape:pageopacity="0"
     inkscape:pagecheckerboard="1"
     inkscape:deskcolor="#505050"
     inkscape:document-units="mm"
     inkscape:zoom="2.8284271"
     inkscape:cx="66.291261"
     inkscape:cy="99.878833"
     inkscape:window-width="1920"
     inkscape:window-height="1009"
     inkscape:window-x="-8"
     inkscape:window-y="-8"
     inkscape:window-maximized="1"
     inkscape:current-layer="layer1" />
  <defs
     id="defs1" />
  <g
     inkscape:label="Шар 1"
     inkscape:groupmode="layer"
     id="layer1">
    <path
       sodipodi:type="spiral"
       style="fill:none;fill-rule:evenodd;stroke:#00dcac;stroke-width:1.665;stroke-dasharray:none;stroke-opacity:1"
       id="path1"
       sodipodi:cx="33.067863"
       sodipodi:cy="32.631611"
       sodipodi:expansion="1"
       sodipodi:revolution="8.3068514"
       sodipodi:radius="17.969782"
       sodipodi:argument="-51.05088"
       sodipodi:t0="0"
       d="m 33.067863,32.631611 c 0.230083,-0.230082 0.423661,0.196632 0.382412,0.382412 -0.111782,0.503452 -0.756642,0.584385 -1.147235,0.382411 -0.698681,-0.361283 -0.780531,-1.299459 -0.382412,-1.912059 0.584256,-0.899016 1.84964,-0.98249 2.676883,-0.382411 1.102585,0.79981 1.186926,2.402435 0.382412,3.441707 -1.0124,1.307818 -2.956476,1.392642 -4.206531,0.382411 -1.513984,-1.223526 -1.599102,-3.511218 -0.382411,-4.971355 1.433828,-1.72072 4.066398,-1.806027 5.736178,-0.382411 1.927827,1.643621 2.013263,4.621871 0.382411,6.501002 -1.853078,2.135189 -5.177548,2.220716 -7.265826,0.382411 -2.342733,-2.062301 -2.428327,-5.733374 -0.38241,-8.03065 2.271354,-2.550411 6.289313,-2.636055 8.795473,-0.38241 2.758192,2.480283 2.843875,6.84534 0.38241,9.560297 -2.689115,2.966052 -7.401434,3.051766 -10.325121,0.38241 -3.173974,-2.897871 -3.259714,-7.957584 -0.38241,-11.089944 3.106568,-3.381948 8.513778,-3.467708 11.854769,-0.38241 3.589963,3.315216 3.675738,9.070009 0.382409,12.619592 -3.523823,3.798012 -9.626271,3.883802 -13.384416,0.382409 -4.006089,-3.732398 -4.091891,-10.182559 -0.382409,-14.149239 3.940945,-4.214192 10.73887,-4.300003 14.914064,-0.382409 4.422314,4.149467 4.508134,11.295199 0.382408,15.678887 -4.35797,4.630454 -11.851544,4.716282 -16.44371,0.382409 -4.838611,-4.566456 -4.924444,-12.407905 -0.382409,-17.208535 4.774925,-5.046779 12.964277,-5.132619 17.973358,-0.382409 5.254961,4.983382 5.340805,13.520661 0.382409,18.738183 -5.191827,5.463151 -14.077054,5.549 -19.503006,0.382408 -5.671352,-5.400262 -5.757205,-14.633456 -0.382408,-20.26783 5.608687,-5.87956 15.189865,-5.965416 21.032653,-0.382408 6.087777,5.817105 6.173636,15.746282 0.382408,21.797477 -6.025515,6.296 -16.302705,6.381861 -22.562301,0.382408 -6.504228,-6.233918 -6.590092,-16.859134 -0.382408,-23.327125 6.442316,-6.712461 17.415568,-6.798327 24.091949,-0.382407 6.9207,6.650708 7.006568,17.972006 0.382407,24.856772 -1.479348,1.537548 -3.23447,2.804926 -5.158086,3.727853" />
    <path
       style="fill:#00dcac;fill-opacity:1;stroke:#01ffc8;stroke-width:0;stroke-dasharray:none;stroke-opacity:1"
       d="m 40.938219,49.70871 c 0,0 -2.222775,0.762045 -4.705937,0.763461 -1.793413,10e-4 -7.854124,-1.633819 -7.854124,-1.633819 l 1.483254,-1.396005 c 0,0 4.486728,1.083121 6.539731,1.373514 1.713979,0.24244 3.860936,-0.629434 3.860936,-0.629434 z"
       id="path2"
       sodipodi:nodetypes="csccscc" />
  </g>
</svg>
