<?xml version="1.0" encoding="UTF-8" standalone="no"?>
<!-- Created with Inkscape (http://www.inkscape.org/) -->

<svg
   width="200"
   height="200"
   viewBox="0 0 52.916665 52.916666"
   version="1.1"
   id="svg1"
   xml:space="preserve"
   inkscape:version="1.3 (0e150ed6c4, 2023-07-21)"
   sodipodi:docname="RaptorPaws.svg"
   inkscape:export-filename="..\..\Assets\Sprites\AttackProjectiles\RaptorPaws.png"
   inkscape:export-xdpi="96"
   inkscape:export-ydpi="96"
   xmlns:inkscape="http://www.inkscape.org/namespaces/inkscape"
   xmlns:sodipodi="http://sodipodi.sourceforge.net/DTD/sodipodi-0.dtd"
   xmlns="http://www.w3.org/2000/svg"
   xmlns:svg="http://www.w3.org/2000/svg"><sodipodi:namedview
     id="namedview1"
     pagecolor="#505050"
     bordercolor="#ffffff"
     borderopacity="1"
     inkscape:showpageshadow="0"
     inkscape:pageopacity="0"
     inkscape:pagecheckerboard="1"
     inkscape:deskcolor="#505050"
     inkscape:document-units="mm"
     inkscape:zoom="1.5162318"
     inkscape:cx="111.7903"
     inkscape:cy="54.411207"
     inkscape:window-width="1920"
     inkscape:window-height="1009"
     inkscape:window-x="-8"
     inkscape:window-y="-8"
     inkscape:window-maximized="1"
     inkscape:current-layer="layer1" /><defs
     id="defs1" /><g
     inkscape:label="Шар 1"
     inkscape:groupmode="layer"
     id="layer1"><path
       style="fill:#336700;fill-opacity:1;stroke:#000000;stroke-width:0"
       d="m 31.117376,9.1216786 c 0,0 -3.38923,-5.1230533 -5.981583,-6.2452586 -2.592348,-1.122203 -2.979262,-1.2731225 -3.886603,-1.3486146 -0.907338,-0.075495 -1.147235,-0.013607 -1.365847,0.081186 -0.218619,0.094792 -0.829996,0.7796182 -0.829996,0.7796182 0,0 1.708259,0.4624535 2.358272,0.9190556 0.650012,0.456604 3.056613,2.1282344 3.652422,3.2077848 0.595817,1.0795498 2.450998,3.817135 2.450998,3.817135 0,0 -1.18018,1.276799 -0.965477,2.099024 0.214698,0.822228 1.385073,2.63116 3.48599,4.565885 2.100916,1.934726 2.938572,2.652513 3.381576,3.308371 0.442997,0.655859 1.624974,2.410622 1.52436,2.615689 -0.1006,0.205064 -2.557492,-1.760632 -3.02952,-2.201749 -0.472032,-0.441118 -1.986761,-2.176548 -2.356264,-2.488041 -0.369498,-0.311491 -3.716281,-2.989173 -4.300518,-3.329694 -0.584244,-0.340521 -1.427729,-0.634623 -2.015856,-0.692692 -0.588122,-0.05806 -0.632631,0.176016 -0.878317,0.02704 -0.245695,-0.14898 -1.414158,-1.305941 -1.744964,-1.586477 C 20.28524,12.369403 18.449341,11.075051 17.778038,10.744198 17.10674,10.413346 12.85452,8.4707826 11.374531,8.3178773 9.8945489,8.1649738 9.4689173,8.4590115 9.4689173,8.4590115 c 0,0 2.4240127,1.6696965 3.0411417,1.9889395 0.61713,0.319243 2.836091,1.57105 3.449336,2.331388 0.61324,0.760334 2.805098,2.402937 2.870859,2.677657 0.06579,0.274719 -0.270857,0.259227 -0.22638,0.659698 0.04448,0.40047 0.0193,0.967314 0.651897,1.584491 0.632592,0.617175 4.242455,3.917818 5.128484,4.594979 0.886028,0.67716 5.49609,3.937225 5.96232,4.326105 0.466228,0.388882 2.085444,1.795433 2.362071,2.381637 0.276618,0.586205 0.733147,1.522586 1.28642,2.219077 0.553272,0.696493 1.495412,1.244036 1.559236,1.659984 0.06379,0.415951 -0.80491,2.275085 -1.340806,2.369859 -0.535895,0.09479 -3.565477,-0.996501 -4.215498,-1.294463 -0.650017,-0.297964 -3.872998,-2.654492 -4.393396,-3.054983 -0.520394,-0.400492 -3.890416,-2.652555 -4.50948,-2.98921 -0.619062,-0.336654 -2.230571,-1.197638 -2.946375,-1.294404 -0.71581,-0.09677 -1.667673,0.537749 -1.874677,0.419721 -0.206999,-0.118028 -2.679381,-1.747092 -3.551875,-2.143733 -0.8725,-0.396639 -2.638788,-0.905529 -3.4048998,-0.97908 -0.7661117,-0.07356 -5.8464006,-0.90181 -5.8464006,-0.90181 0,0 3.2732835,2.174675 4.0026225,2.551963 0.7293385,0.377284 3.8285379,1.936741 4.1980369,2.248232 0.369498,0.311492 2.24992,1.213115 2.431757,1.580702 0.181849,0.367587 1.265137,2.344829 2.356232,3.122601 1.091092,0.77777 2.412402,1.565226 2.870907,1.725821 0.458494,0.160593 11.710045,5.450393 12.120171,5.810253 0.410121,0.359858 1.555381,1.30788 2.025482,1.572945 0.470104,0.265068 2.282795,1.350478 2.379517,1.586507 0.09672,0.236028 2.402688,2.588643 3.006261,3.261921 0.603572,0.673279 2.251734,3.768759 3.470522,4.267951 1.218795,0.499192 5.475024,-0.537567 6.132833,-1.280439 0.657808,-0.742866 1.42013,-2.449172 1.199644,-3.799552 -0.22049,-1.35038 -1.644231,-4.329773 -1.826038,-5.331918 C 47.657028,39.329704 47.208195,39.414807 46.995446,38.134072 46.782692,36.85334 45.73061,32.437358 45.394132,31.427767 45.057647,30.418174 42.863639,25.252547 41.76661,23.230611 40.669576,21.208672 35.862842,13.167412 34.440206,11.580479 33.017569,9.9935456 32.716625,9.7527666 32.215953,9.5092426 31.715278,9.2657176 31.117374,9.1216546 31.117374,9.1216546 Z"
       id="path1" /><path
       style="fill:#000000;fill-opacity:1;stroke:#000000;stroke-width:0"
       d="m 16.262998,27.057938 c 0,0 -3.462181,-2.242759 -4.23763,-2.511671 C 11.249922,24.277353 8.5085647,23.729728 7.2869245,23.599126 6.065294,23.468528 3.3745913,22.977409 3.3745913,22.977409 c 0,0 3.1679854,2.071284 3.6024655,2.307061 0.4344815,0.235776 4.2317972,2.219412 4.3964332,2.343145 0.164639,0.123717 0.602027,0.465692 0.921559,0.625476 0.319525,0.159769 1.541128,1.009338 1.752529,1.074616 0.21138,0.06527 1.738925,0.232916 2.120834,-0.32429 0.381914,-0.557233 0.174459,-1.705818 0.09459,-1.94547 z"
       id="path2" /><path
       style="fill:#000000;fill-opacity:1;stroke:#000000;stroke-width:0"
       d="m 9.2623125,8.4274491 c 0,0 1.7157785,-0.4793799 3.9446245,0.4102983 2.228846,0.8896782 3.835596,1.5415806 4.255611,1.7476476 0.42001,0.206068 2.545807,1.630675 2.999492,1.977413 0.453687,0.346736 1.983146,1.60291 2.042566,1.812924 0.05944,0.210012 -0.180338,1.139201 -0.534998,1.521562 -0.354663,0.382364 -3.074372,-0.213621 -3.148666,-0.313676 -0.07428,-0.100054 -2.669111,-2.293899 -3.256016,-3.068092 C 14.978021,11.741329 13.850218,11.5274 12.881503,10.73512 11.912786,9.9428406 9.2623125,8.4274491 9.2623125,8.4274491 Z"
       id="path3" /><path
       style="fill:#000000;fill-opacity:1;stroke:#000000;stroke-width:0"
       d="m 27.525322,10.381909 c 0,0 -2.056366,-3.120651 -2.255613,-3.4863052 C 25.070454,6.5299508 24.524932,5.7444657 24.234746,5.5122967 23.944564,5.2801279 21.948104,3.6510782 21.586341,3.4092327 21.224576,3.1673872 20.028995,2.7184985 19.698183,2.5966012 19.367361,2.4747051 18.36911,2.2154179 18.36911,2.2154179 c 0,0 1.046658,-0.5745355 1.723784,-0.6673664 0.677125,-0.092826 2.46664,0.1490817 2.956092,0.4296245 0.489447,0.2805443 1.804974,0.6984855 2.180283,0.9035733 0.375305,0.2050884 0.375305,0.2050884 0.375305,0.2050884 0,0 1.76819,1.3194981 2.298246,1.9656885 0.530063,0.6461899 2.890193,3.1690544 3.201618,4.0686734 0.311428,0.8996174 -0.323148,1.5341434 -0.783606,1.8320544 -0.460451,0.297911 -2.104887,0.251396 -2.79551,-0.570845 z"
       id="path4" /></g></svg>
