<?xml version="1.0" encoding="UTF-8" standalone="no"?>
<!-- Created with Inkscape (http://www.inkscape.org/) -->

<svg
   width="256"
   height="256"
   viewBox="0 0 67.733334 67.733333"
   version="1.1"
   id="svg1"
   inkscape:version="1.3 (0e150ed6c4, 2023-07-21)"
   sodipodi:docname="Wave.svg"
   inkscape:export-filename="..\..\Assets\Sprites\AttackProjectiles\Wave.png"
   inkscape:export-xdpi="30.963808"
   inkscape:export-ydpi="30.963808"
   xmlns:inkscape="http://www.inkscape.org/namespaces/inkscape"
   xmlns:sodipodi="http://sodipodi.sourceforge.net/DTD/sodipodi-0.dtd"
   xmlns="http://www.w3.org/2000/svg"
   xmlns:svg="http://www.w3.org/2000/svg">
  <sodipodi:namedview
     id="namedview1"
     pagecolor="#505050"
     bordercolor="#ffffff"
     borderopacity="1"
     inkscape:showpageshadow="0"
     inkscape:pageopacity="0"
     inkscape:pagecheckerboard="1"
     inkscape:deskcolor="#505050"
     inkscape:document-units="mm"
     inkscape:zoom="3.0324635"
     inkscape:cx="119.21001"
     inkscape:cy="116.24212"
     inkscape:window-width="1920"
     inkscape:window-height="1009"
     inkscape:window-x="-8"
     inkscape:window-y="-8"
     inkscape:window-maximized="1"
     inkscape:current-layer="layer1" />
  <defs
     id="defs1" />
  <g
     inkscape:label="Шар 1"
     inkscape:groupmode="layer"
     id="layer1">
    <path
       style="fill:#0081e5;fill-opacity:1;stroke:#000000;stroke-width:0"
       d="m 9.4085292,20.143507 c 0,0 1.2030578,-5.49088 2.7454398,-7.650214 1.542382,-2.159335 12.308207,-6.046137 14.683475,-6.2929179 2.375268,-0.2467811 13.572961,0.9871242 16.164163,1.9125533 2.591199,0.9254292 12.246512,4.3495166 13.449569,5.6451176 1.203058,1.295601 2.498659,5.552575 2.498659,5.552575 z"
       id="path9" />
    <path
       style="fill:#0081e5;fill-opacity:1;stroke:#000000;stroke-width:0"
       d="M 9.1176558,21.029111 C 10.949912,12.357397 12.956668,14.33323 15.835928,9.8327201 18.715188,5.3322102 27.003965,0.39262628 29.883224,0.39262628 c 2.87926,0 12.651293,4.82981532 15.879554,7.13495482 3.22826,2.305139 11.255287,5.3786579 11.95329,7.4642609 0.698002,2.085601 0.523502,7.46426 0.523502,7.46426 0,0 -33.765863,14.379677 -38.82638,9.440092 C 14.352673,26.956612 9.1176558,21.029111 9.1176558,21.029111 Z"
       id="path3" />
    <path
       style="fill:#018fff;fill-opacity:1;stroke:#000000;stroke-width:0"
       d="m 57.746775,17.274677 c 0,0 -0.06169,-0.308477 -0.493562,-0.802039 -0.431866,-0.493562 -0.431866,-0.555258 -1.357294,-0.925429 -0.92543,-0.370172 -14.930257,-3.763412 -17.089593,-3.825107 -2.159333,-0.0617 -8.575641,-1.110515 -11.907187,-0.616953 -3.331545,0.493562 -11.47532,2.467811 -12.52414,3.146459 -1.04882,0.678648 -3.023069,2.344421 -4.010193,3.825107 -0.9871245,1.480687 -1.2956006,3.146459 -1.2956006,3.640021 0,0.493562 0.5552572,1.357296 0.2467811,2.22103 C 9.0075101,24.8015 20.297745,32.451714 20.297745,32.451714 L 38.37446,30.971027 54.538623,25.418453 Z"
       id="path8" />
    <path
       style="fill:#018fff;fill-opacity:1;stroke:#000000;stroke-width:0"
       d="m 56.389481,16.164162 c 2.34442,1.110515 2.467811,3.825107 3.825105,5.675965 1.357297,1.850858 0.863735,1.727467 -0.740341,3.454935 -1.604079,1.727468 -1.480688,3.331545 -1.233906,4.56545 0.24678,1.233906 2.34442,2.221029 3.454935,4.071887 1.110514,1.850859 3.084763,3.084764 1.110514,5.182405 -1.974249,2.09764 -4.935622,1.233905 -5.059013,3.578325 -0.123389,2.34442 0.863735,2.221029 2.591202,4.935622 1.727467,2.714593 4.935622,3.331546 1.974249,6.169528 -2.961372,2.837981 -4.935622,3.454934 -7.650212,3.825107 -2.714593,0.370171 -5.059013,-4.565451 -5.059013,-4.565451 0,0 6.169527,-37.757507 6.78648,-36.893773 z"
       id="path5" />
    <path
       style="fill:#018fff;fill-opacity:1;stroke:#000000;stroke-width:0"
       d="M 9.6244626,50.713515 C 7.4034329,47.13519 3.2081541,46.888407 6.539699,41.952785 9.8712437,37.017163 9.3776815,37.017163 9.1309006,34.425964 8.8841195,31.834762 3.5783258,33.192058 4.5654502,29.983903 5.5525746,26.775748 9.1309006,25.665234 9.2542909,22.950642 9.3776815,20.23605 10.734978,17.891629 10.734978,17.891629 l 3.454935,37.263946 c 0,0 -0.493562,2.961373 -2.837983,2.837982 C 9.0075101,57.870166 9.0075101,56.019308 9.2542909,55.032184 9.501072,54.045061 11.845493,53.304717 11.105149,51.700638 10.364806,50.096562 9.6244626,50.713515 9.6244626,50.713515 Z"
       id="path4" />
    <path
       style="fill:#d9d9d9;fill-opacity:1;stroke:#000000;stroke-width:0"
       d="m 12.092274,21.469955 c 0,0 13.449569,-7.280042 20.976393,-7.280042 7.526824,0 21.223174,5.552575 21.593347,6.66309 0.37017,1.110514 -19.125536,-4.565451 -21.346567,-4.565451 -2.221029,0 -20.48283,6.292918 -21.099783,5.922746 -0.616953,-0.370171 -0.12339,-0.740343 -0.12339,-0.740343 z"
       id="path2" />
    <path
       style="fill:#018fff;fill-opacity:1;stroke:#000000;stroke-width:0"
       d="m 11.105149,57.746775 c 0,0 11.22854,-1.850858 14.436694,-2.714591 3.208155,-0.863735 2.961373,-1.604076 8.513947,-1.233905 5.552575,0.37017 5.799357,1.357296 8.637339,2.221029 2.837982,0.863735 4.378404,-0.484497 5.861659,-0.266372 1.483254,0.218128 4.013514,1.701382 5.278643,1.788633 1.265129,0.08725 4.100764,-0.04363 4.537014,-1.134255 C 58.806698,55.316686 53.92068,43.450647 53.92068,43.450647 l 3.315513,-21.638074 -34.551117,7.329024 -12.389541,-6.980023 2.268507,31.933607 z"
       id="path6" />
    <path
       style="fill:#018fff;fill-opacity:1;stroke:#000000;stroke-width:0"
       d="m 9.5936151,50.682667 c 0,0 0.3547477,0.663223 0.4935619,1.002549 0.138815,0.339323 0.339324,0.724918 0.169662,1.249328 -0.169662,0.524412 -0.9254289,1.82001 -0.9254289,1.912554 0,0.09254 0.4318669,0.709496 0.4318669,0.709496 l 3.701717,-5.105284 -3.377817,-0.956275 z"
       id="path7" />
    <path
       style="fill:#0081e5;fill-opacity:1;stroke:#000000;stroke-width:0"
       d="m 12.084165,12.564042 c 0,0 2.922885,-3.1410104 3.839013,-3.9262631 0.916129,-0.7852526 5.235018,-4.0135134 5.235018,-4.0135134 l 3.010135,0.1745006 -7.808901,7.6344009 z"
       id="path10" />
    <path
       style="fill:#0081e5;fill-opacity:1;stroke:#000000;stroke-width:0"
       d="m 57.623386,14.868561 c 0,0 -3.763412,-8.2671667 -5.737661,-9.5010722 C 49.911476,4.1335832 36.832079,1.4189913 34.734439,1.4189913 c -2.097638,0 -4.133583,1.1105149 -4.133583,1.1105149 L 54.230145,14.251608 Z"
       id="path11" />
    <path
       style="fill:#0081e5;fill-opacity:1;stroke:#000000;stroke-width:0"
       d="m 36.431058,1.6040771 c 0,0 -3.763409,-1.04881964 -5.213249,-0.98712436 -1.44984,0.0616953 -1.69662,1.54238186 -1.69662,1.54238186 l 7.619365,1.0796673 z"
       id="path12" />
    <ellipse
       style="fill:#64eaff;fill-opacity:1;stroke:#000000;stroke-width:0"
       id="path13"
       cx="43.136478"
       cy="6.3635783"
       rx="0.38383058"
       ry="0.34330851" />
    <ellipse
       style="fill:#64eaff;fill-opacity:1;stroke:#000000;stroke-width:0"
       id="path13-8"
       cx="25.324892"
       cy="7.7459774"
       rx="0.38383058"
       ry="0.34330851" />
    <ellipse
       style="fill:#64eaff;fill-opacity:1;stroke:#000000;stroke-width:0"
       id="path13-5"
       cx="39.102524"
       cy="9.7697287"
       rx="0.38383058"
       ry="0.34330851" />
    <ellipse
       style="fill:#64eaff;fill-opacity:1;stroke:#000000;stroke-width:0"
       id="path13-1"
       cx="33.483932"
       cy="4.7205415"
       rx="0.38383058"
       ry="0.34330851" />
    <ellipse
       style="fill:#64eaff;fill-opacity:1;stroke:#000000;stroke-width:0"
       id="path13-7"
       cx="17.072964"
       cy="11.051852"
       rx="0.38383058"
       ry="0.34330851" />
    <ellipse
       style="fill:#64eaff;fill-opacity:1;stroke:#000000;stroke-width:0"
       id="path13-72"
       cx="45.949245"
       cy="11.210253"
       rx="0.38383058"
       ry="0.34330851" />
    <ellipse
       style="fill:#64eaff;fill-opacity:1;stroke:#000000;stroke-width:0"
       id="path13-89"
       cx="51.550323"
       cy="9.1730833"
       rx="0.38383058"
       ry="0.34330851" />
    <ellipse
       style="fill:#64eaff;fill-opacity:1;stroke:#000000;stroke-width:0"
       id="path13-59"
       cx="31.395"
       cy="9.60495"
       rx="0.38383058"
       ry="0.34330851" />
    <ellipse
       style="fill:#64eaff;fill-opacity:1;stroke:#000000;stroke-width:0"
       id="path13-9"
       cx="27.94684"
       cy="4.1306486"
       rx="0.38383058"
       ry="0.34330851" />
    <ellipse
       style="fill:#64eaff;fill-opacity:1;stroke:#000000;stroke-width:0"
       id="path13-74"
       cx="52.71151"
       cy="12.976713"
       rx="0.38383058"
       ry="0.34330851" />
    <ellipse
       style="fill:#64eaff;fill-opacity:1;stroke:#000000;stroke-width:0"
       id="path13-79"
       cx="20.214968"
       cy="7.4907346"
       rx="0.38383058"
       ry="0.34330851" />
    <ellipse
       style="fill:#64eaff;fill-opacity:1;stroke:#000000;stroke-width:0"
       id="path13-94"
       cx="21.77825"
       cy="10.368935"
       rx="0.38383058"
       ry="0.34330851" />
    <ellipse
       style="fill:#64eaff;fill-opacity:1;stroke:#000000;stroke-width:0"
       id="path13-77"
       cx="38.704521"
       cy="4.6917443"
       rx="0.38383058"
       ry="0.34330851" />
  </g>
</svg>
