<?xml version="1.0" encoding="UTF-8" standalone="no"?>
<!-- Created with Inkscape (http://www.inkscape.org/) -->

<svg
   width="256"
   height="256"
   viewBox="0 0 67.733332 67.733333"
   version="1.1"
   id="svg1"
   inkscape:version="1.3 (0e150ed6c4, 2023-07-21)"
   sodipodi:docname="PoisonedEffect.svg"
   xmlns:inkscape="http://www.inkscape.org/namespaces/inkscape"
   xmlns:sodipodi="http://sodipodi.sourceforge.net/DTD/sodipodi-0.dtd"
   xmlns="http://www.w3.org/2000/svg"
   xmlns:svg="http://www.w3.org/2000/svg">
  <sodipodi:namedview
     id="namedview1"
     pagecolor="#505050"
     bordercolor="#ffffff"
     borderopacity="1"
     inkscape:showpageshadow="0"
     inkscape:pageopacity="0"
     inkscape:pagecheckerboard="1"
     inkscape:deskcolor="#505050"
     inkscape:document-units="mm"
     inkscape:zoom="1.5162318"
     inkscape:cx="8.903652"
     inkscape:cy="190.27434"
     inkscape:window-width="1920"
     inkscape:window-height="1009"
     inkscape:window-x="-8"
     inkscape:window-y="-8"
     inkscape:window-maximized="1"
     inkscape:current-layer="layer1" />
  <defs
     id="defs1" />
  <g
     inkscape:label="Шар 1"
     inkscape:groupmode="layer"
     id="layer1">
    <path
       d="m 36.983407,30.605755 c -0.721048,-0.01194 -1.418294,-0.01265 -2.057792,0.0015 -0.319748,0.007 -0.624835,0.01828 -0.911519,0.0332 -0.286684,0.01493 -0.554932,0.03379 -0.800103,0.05743 -0.24517,0.02364 -0.467174,0.05211 -0.662381,0.08538 -0.195208,0.03325 -0.363652,0.07112 -0.500445,0.114868 -0.136806,0.04375 -0.276145,0.09699 -0.417182,0.157567 -0.141039,0.06056 -0.283658,0.128639 -0.42723,0.203406 -0.143568,0.07477 -0.288052,0.156021 -0.432453,0.242401 -0.144393,0.08638 -0.288782,0.178124 -0.432307,0.273491 -0.287043,0.190732 -0.570444,0.396514 -0.843757,0.607583 -0.273312,0.211068 -0.536537,0.427064 -0.782474,0.63762 -0.245932,0.210554 -0.474397,0.415755 -0.679312,0.604947 -0.204918,0.189193 -0.386136,0.362591 -0.536388,0.509568 -0.300508,0.293959 -0.478095,0.482695 -0.478095,0.482695 0,0 -0.101344,0.101766 -0.269704,0.291935 -0.168351,0.190182 -0.403796,0.468461 -0.671967,0.821526 -0.134066,0.176535 -0.276236,0.371736 -0.422424,0.583871 -0.146203,0.212135 -0.296089,0.441247 -0.445812,0.685574 -0.149716,0.244324 -0.299084,0.504159 -0.443773,0.777263 -0.144692,0.273101 -0.284695,0.559419 -0.415786,0.857887 -0.262177,0.596935 -0.523405,1.219643 -0.773116,1.847515 -0.249708,0.627874 -0.487931,1.260887 -0.704481,1.879659 -0.108283,0.309389 -0.211298,0.615196 -0.307401,0.9148 -0.09611,0.299606 -0.185553,0.593096 -0.266901,0.877914 -0.08136,0.284817 -0.1543,0.561245 -0.218316,0.82627 -0.064,0.265027 -0.119119,0.518591 -0.163205,0.758819 -0.04409,0.24023 -0.0741,0.465019 -0.0942,0.675562 -0.02015,0.210542 -0.03026,0.406834 -0.0336,0.590192 -0.0033,0.183358 2e-4,0.354056 0.0063,0.512729 0.0062,0.158674 0.01493,0.305625 0.02354,0.442121 0.0086,0.13649 0.01704,0.262592 0.02062,0.379409 0.0037,0.116819 0.0028,0.224439 -0.0056,0.324079 -0.0084,0.09964 -0.02475,0.191159 -0.05239,0.276125 -0.02768,0.08496 -0.06678,0.163275 -0.120946,0.236078 -0.05415,0.0728 -0.103241,0.155652 -0.147432,0.24767 -0.04419,0.09202 -0.08343,0.19335 -0.11703,0.303003 -0.0336,0.109652 -0.06153,0.227373 -0.0839,0.353061 -0.02238,0.125689 -0.03917,0.2593 -0.04971,0.399433 -0.01071,0.140143 -0.01528,0.287023 -0.01335,0.440011 0.0018,0.152982 0.01019,0.312121 0.02522,0.47637 0.01493,0.164241 0.03671,0.333544 0.06548,0.507462 0.02859,0.173919 0.06437,0.352343 0.107229,0.534334 0.04301,0.181994 0.08663,0.341164 0.130026,0.481641 0.04342,0.140478 0.08645,0.26195 0.127199,0.36887 0.08164,0.213842 0.154704,0.368474 0.207314,0.495868 0.02633,0.06369 0.04767,0.120928 0.06207,0.174955 0.01423,0.05403 0.02222,0.105244 0.02185,0.157567 -5.33e-4,0.05232 -0.0093,0.105841 -0.02786,0.164417 -0.01848,0.05858 -0.04658,0.122175 -0.08617,0.194975 -0.07921,0.145588 -0.175851,0.331175 -0.265856,0.535915 -0.04502,0.102363 -0.08828,0.209502 -0.127234,0.31881 -0.03897,0.109319 -0.07342,0.220968 -0.100519,0.331985 -0.02712,0.111022 -0.04683,0.221332 -0.0562,0.328822 -0.0095,0.107492 -0.0084,0.212173 0.0056,0.310904 0.01405,0.09873 0.04112,0.191387 0.08461,0.276126 0.02164,0.04236 0.0479,0.08278 0.07807,0.120683 0.03017,0.03788 0.06476,0.07368 0.104067,0.106455 0.07865,0.06551 0.158743,0.113605 0.238451,0.149663 0.07971,0.03606 0.158761,0.05958 0.235667,0.0764 0.153773,0.03367 0.297857,0.03924 0.41717,0.05743 0.05965,0.0091 0.113376,0.02157 0.158621,0.04215 0.04526,0.02058 0.08202,0.04937 0.109002,0.0917 0.02694,0.04231 0.04412,0.09804 0.04897,0.172321 0.0049,0.07428 -0.0023,0.167034 -0.0235,0.283504 -0.08459,0.4659 -0.247397,1.310425 -0.388169,2.125749 -0.07038,0.407663 -0.135138,0.808204 -0.182255,1.15035 -0.02357,0.171073 -0.0427,0.327611 -0.05577,0.463197 -0.013,0.135576 -0.01995,0.249897 -0.01943,0.337252 4.83e-4,0.08736 0.004,0.168351 0.01282,0.243982 0.0086,0.07565 0.02174,0.146396 0.0412,0.212365 0.01932,0.06597 0.04503,0.127146 0.07784,0.185489 0.03277,0.05835 0.07331,0.113744 0.122333,0.166524 0.049,0.05278 0.106825,0.103031 0.174657,0.152298 0.06783,0.04925 0.145465,0.09767 0.234813,0.145448 0.08935,0.04777 0.190324,0.09499 0.303874,0.14334 0.113569,0.04835 0.239781,0.09764 0.380216,0.148609 0.280873,0.101907 0.577165,0.185699 0.864698,0.260317 0.287534,0.07461 0.566073,0.140003 0.812151,0.205513 0.123036,0.03276 0.23817,0.06571 0.341822,0.09961 0.103663,0.0339 0.196039,0.06861 0.274298,0.105911 0.03369,0.01598 0.05338,0.03464 0.0816,0.05164 0.0555,0.0086 0.614325,0.09571 1.456668,0.201825 0.441392,0.05561 0.942641,0.113832 1.452915,0.16389 0.510274,0.05004 1.029333,0.09158 1.507282,0.113815 0.238973,0.01107 0.532255,0.0098 0.86264,-0.001 0.330389,-0.01089 0.698053,-0.03139 1.085201,-0.05849 0.774304,-0.05422 1.62747,-0.134752 2.420895,-0.218161 0.54289,-0.05707 0.96852,-0.108616 1.411065,-0.160729 0.06044,-0.02169 0.116836,-0.04453 0.179443,-0.06534 0.279265,-0.09281 0.574797,-0.176766 0.835644,-0.248197 0.260852,-0.07143 0.486998,-0.13022 0.628694,-0.173902 0.141689,-0.04368 0.431837,-0.112076 0.796603,-0.201298 0.364768,-0.08922 0.804282,-0.199225 1.244484,-0.327241 0.220102,-0.064 0.440455,-0.132555 0.651736,-0.204986 0.21128,-0.07243 0.413751,-0.149207 0.597755,-0.229226 0.184006,-0.08002 0.349607,-0.163539 0.48788,-0.250306 0.06915,-0.04338 0.131309,-0.08736 0.185538,-0.132274 0.05424,-0.04491 0.100571,-0.09068 0.137631,-0.137017 0.03704,-0.04633 0.07117,-0.09996 0.103172,-0.160202 0.03198,-0.06024 0.06184,-0.126812 0.0894,-0.199192 0.05512,-0.14478 0.102222,-0.312076 0.143638,-0.494814 0.0414,-0.182736 0.07711,-0.381013 0.109986,-0.587557 0.03288,-0.206545 0.06255,-0.421423 0.09214,-0.63762 0.02963,-0.216196 0.0591,-0.433832 0.09067,-0.645523 0.03156,-0.211692 0.06518,-0.417713 0.103944,-0.610745 0.03875,-0.193032 0.08237,-0.373065 0.133557,-0.533283 0.02557,-0.08011 0.05318,-0.155231 0.08285,-0.224482 0.02968,-0.06926 0.0617,-0.132556 0.09611,-0.189179 0.06882,-0.113253 0.138562,-0.217274 0.208334,-0.314595 0.06976,-0.09732 0.1393,-0.187914 0.207821,-0.273491 0.136999,-0.171162 0.269583,-0.322876 0.388381,-0.472153 0.0594,-0.07465 0.115097,-0.149048 0.166648,-0.224486 0.05153,-0.07544 0.0989,-0.151964 0.140406,-0.232388 0.0415,-0.08043 0.07716,-0.164399 0.106403,-0.253995 0.02928,-0.08959 0.05195,-0.184767 0.06676,-0.287718 0.02967,-0.205902 0.06699,-0.401727 0.114254,-0.592829 0.04728,-0.191102 0.104454,-0.37754 0.17348,-0.565425 0.06901,-0.187886 0.150366,-0.377082 0.245238,-0.57333 0.09488,-0.19625 0.203659,-0.399819 0.328495,-0.616015 0.124845,-0.216196 0.302616,-0.48127 0.502651,-0.765669 0.200037,-0.284402 0.42212,-0.588195 0.635295,-0.881602 0.213171,-0.293409 0.417583,-0.5762 0.581826,-0.81942 0.08215,-0.121614 0.153984,-0.233493 0.21223,-0.331456 0.05824,-0.09797 0.10289,-0.182334 0.129517,-0.249252 0.02664,-0.06692 0.04203,-0.120788 0.05,-0.165997 0.0079,-0.04521 0.0086,-0.08178 0.004,-0.113288 -0.0091,-0.06305 -0.03699,-0.106737 -0.05919,-0.163363 -0.01107,-0.02831 -0.02116,-0.05977 -0.02628,-0.09853 -0.0051,-0.03876 -0.0056,-0.08448 0.0012,-0.141759 0.0069,-0.05726 0.02122,-0.125917 0.0463,-0.209729 0.02512,-0.08382 0.06067,-0.183027 0.110144,-0.30142 0.09899,-0.236786 0.263856,-0.615018 0.46093,-1.100817 0.09853,-0.242896 0.204768,-0.512827 0.315541,-0.805191 0.110777,-0.292362 0.226107,-0.607319 0.34092,-0.940621 0.114816,-0.333301 0.229509,-0.685038 0.340168,-1.050755 0.110653,-0.365714 0.21707,-0.745465 0.315383,-1.135067 0.09832,-0.389603 0.188278,-0.789122 0.26605,-1.194087 0.07776,-0.404965 0.143111,-0.815484 0.192154,-1.227285 0.04902,-0.411803 0.08733,-0.815746 0.115518,-1.20937 0.02819,-0.393624 0.04649,-0.776684 0.05573,-1.146661 0.0093,-0.369978 0.0093,-0.726756 0.0015,-1.067618 -0.0079,-0.340862 -0.0235,-0.665961 -0.04653,-0.972238 -0.02304,-0.306278 -0.05317,-0.593771 -0.08954,-0.859996 -0.03634,-0.266224 -0.07916,-0.511245 -0.126988,-0.731945 -0.04776,-0.220699 -0.100888,-0.417323 -0.158252,-0.587032 -0.05729,-0.169704 -0.118943,-0.312536 -0.183958,-0.42578 -0.06502,-0.113253 -0.156285,-0.246167 -0.267606,-0.393111 -0.111321,-0.146941 -0.242672,-0.307585 -0.388838,-0.475845 -0.146168,-0.168264 -0.30671,-0.343974 -0.47628,-0.521162 -0.169581,-0.177186 -0.348415,-0.355863 -0.52993,-0.529593 -0.18151,-0.173725 -0.365671,-0.342725 -0.547675,-0.50061 -0.181998,-0.157883 -0.361645,-0.30456 -0.532682,-0.434213 -0.171038,-0.129657 -0.333687,-0.24242 -0.482305,-0.331456 -0.148609,-0.08903 -0.283396,-0.154721 -0.39814,-0.190759 -0.114745,-0.03604 -0.374495,-0.07848 -0.745705,-0.123827 -0.371211,-0.04537 -0.853597,-0.09362 -1.41367,-0.141232 -0.560077,-0.04762 -1.197695,-0.09423 -1.87903,-0.137017 -0.681334,-0.04279 -1.406238,-0.08136 -2.141232,-0.112234 -0.734991,-0.03088 -1.480295,-0.0545 -2.201341,-0.06639 z"
       style="fill:#d4d4d4;stroke:#01ffc8;stroke-width:0"
       id="path11" />
    <path
       style="fill:#767676;fill-opacity:0.679727;stroke:#01ffc8;stroke-width:0"
       d="m 24.936881,55.92516 c 0,0 0.01475,-1.790806 0.02354,-2.183909 0.0084,-0.393106 0.145132,-1.310347 0.145132,-1.310347 0,0 1.103306,0.0728 1.377067,0.203832 0.273768,0.131028 0.670316,0.713409 0.716063,1.062835 0.04567,0.349426 -0.02744,0.888124 -0.109933,1.106517 -0.08243,0.218388 0.08975,0.407661 0.01054,0.553255 -0.07921,0.145588 -0.201636,1.601534 -0.201636,1.601534 l -0.688411,1.150193 z"
       id="path12"
       sodipodi:nodetypes="cscssssccc" />
    <path
       style="fill:#767676;fill-opacity:0.679727;stroke:#01ffc8;stroke-width:0"
       d="m 23.435543,53.712241 c 0.337545,-0.370622 0.983456,-0.823604 0.673141,-1.070684 -0.310314,-0.247082 -1.187097,-0.535345 -1.206227,-0.288261 -0.01918,0.24708 0.533086,1.358945 0.533086,1.358945 z"
       id="path15" />
    <path
       style="fill:#767676;fill-opacity:0.679727;stroke:#01ffc8;stroke-width:0"
       d="m 43.081728,52.518015 c -0.110566,0.452981 -0.392003,1.606027 -0.0123,1.400127 0.379696,-0.205901 1.608284,-1.358947 1.381302,-1.441308 -0.226974,-0.08236 -1.368995,0.04119 -1.368995,0.04119 z"
       id="path14" />
    <path
       style="fill:#767676;fill-opacity:0.679727;stroke:#01ffc8;stroke-width:0"
       d="m 38.723144,55.359449 c 0,0 0.1543,-0.02059 0.337542,-0.370622 0.394485,-0.753561 0.157901,-1.153046 0.813859,-1.647208 0.655959,-0.494163 0.90109,-0.823604 1.518794,-0.823604 0.617701,0 1.366076,-0.535342 0.968219,0.08236 -0.39785,0.617703 -0.708974,1.069817 -0.936916,1.595821 -0.266687,0.61542 -0.772574,1.405552 -1.072588,1.753692 -0.670372,0.777916 -2.003072,2.292173 -2.373692,2.292173 -0.370622,0 -0.434525,-2.100189 -0.434525,-2.100189 z"
       id="path13"
       sodipodi:nodetypes="cssssssscc" />
    <path
       style="fill:#000000;fill-opacity:1;stroke:#01ffc8;stroke-width:0"
       d="m 33.73898,44.080949 c 0.177003,-0.844445 0.133873,-1.980078 -0.370995,-2.41686 -0.504881,-0.436781 -2.369172,-0.553257 -3.330093,-0.553257 -0.96092,0 -2.79127,0.698852 -3.282845,1.281228 -0.491575,0.582376 -0.943475,1.718009 -1.135378,2.504215 -0.191903,0.786209 -1.069344,2.591574 -0.230626,2.853641 0.838714,0.26207 2.274022,0.465902 3.813872,-0.116467 1.539851,-0.582376 2.122227,-0.582376 2.686941,-1.106513 0.564715,-0.52414 1.346789,-1.222991 1.605414,-1.805367 0.258622,-0.582374 0.243724,-0.640613 0.243724,-0.640613 z"
       id="path2" />
    <path
       style="fill:#000000;fill-opacity:1;stroke:#000000;stroke-width:0"
       d="m 26.955214,56.412922 -0.06773,0.595988 c 0,0 3.562394,-0.988797 5.296185,-0.988797 1.733787,0 5.905716,1.300338 5.905716,1.300338 l 0.01352,-0.65017 c 0,0 -2.925768,-1.219069 -5.865081,-1.219069 -2.939315,0 -5.28264,0.96171 -5.28264,0.96171 z"
       id="path27" />
    <path
       style="fill:#000000;fill-opacity:1;stroke:#01ffc8;stroke-width:0"
       d="m 39.35619,47.313136 c 0,0 -0.946706,-0.05824 -1.264036,-0.786207 -0.31734,-0.727971 -0.918752,-1.48506 -0.639485,-2.271267 0.279261,-0.786208 0.56631,-1.485058 1.152348,-2.096554 0.58604,-0.611493 2.43267,-1.019158 3.451828,-1.019158 1.019157,0 2.515458,0.669734 2.903175,0.990039 0.387721,0.320308 0.541602,1.718009 0.442765,2.242149 -0.09883,0.524137 -0.610556,2.62069 -1.008355,3.057472 -0.397797,0.436781 -1.429103,0.844447 -2.448951,0.72797 -1.019842,-0.116468 -2.589287,-0.844444 -2.589289,-0.844444 z"
       id="path3" />
    <path
       style="fill:#000000;fill-opacity:1;stroke:#01ffc8;stroke-width:0"
       d="m 35.330433,44.838037 c 0,0 -0.297602,0.145588 -0.269865,-0.08736 0.02773,-0.232952 -0.230883,0.349424 -0.412013,0.495018 -0.181128,0.145588 -0.370061,0.203832 -0.673393,0.611495 -0.303336,0.407663 -2.409717,3.668967 -2.261366,4.134869 0.148346,0.4659 0.448715,0.786207 0.776128,0.757089 0.327413,-0.02912 1.084502,-0.02912 1.271362,-0.436782 0.186864,-0.407662 1.56915,-5.474334 1.56915,-5.474334 z"
       id="path4" />
    <path
       style="fill:#000000;fill-opacity:1;stroke:#01ffc8;stroke-width:0"
       d="m 35.446907,44.838037 c 0,0 -1.144295,4.688127 -1.054872,5.037551 0.08944,0.349428 0.20085,0.72797 0.536069,0.78621 0.335211,0.05824 0.93318,0.232949 1.272742,-0.203834 0.339561,-0.436782 0.299889,-0.990037 0.26022,-1.543296 -0.03966,-0.553254 0.06234,-2.999234 -0.12156,-3.319543 -0.183896,-0.320304 -0.232729,-1.193869 -0.398953,-0.990037 -0.166226,0.203831 -0.493646,0.232949 -0.493646,0.232949 z"
       id="path5" />
    <path
       style="fill:#000000;fill-opacity:1;stroke:#01ffc8;stroke-width:0"
       d="m 26.208136,58.232683 c 0,0 -1.025358,-1.048276 -1.10126,-1.572414 -0.07596,-0.524139 -0.354238,-0.815326 -0.0056,-0.931803 0.348741,-0.116467 0.594997,0.902684 0.864865,0.990042 0.269865,0.08735 0.751358,0.262068 0.751358,0.262068 0,0 -0.07315,-0.05824 -0.21667,0.291187 -0.143533,0.349426 -0.313419,1.164752 -0.313419,1.164752 z"
       id="path6" />
    <path
       style="fill:#000000;fill-opacity:1;stroke:#01ffc8;stroke-width:0"
       d="m 37.987032,58.290921 c 0,0 0.439067,-0.844443 0.379451,-1.077395 -0.05959,-0.23295 -0.112129,-0.495018 -0.112129,-0.495018 0,0 0.757776,0.116467 1.192493,-0.232952 0.434712,-0.349426 0.84169,-0.465901 0.84169,-0.465901 0,0 -0.395047,0.902682 -0.90932,1.339465 -0.514277,0.436782 -1.392191,0.931801 -1.392189,0.931801 z"
       id="path7" />
    <path
       style="fill:#ffffff;fill-opacity:1;stroke:#01ffc8;stroke-width:0"
       d="m 27.176519,54.818977 c 0,0 -0.726811,1.426822 -0.543611,1.630652 0.183206,0.203834 2.847441,-1.048276 5.919816,-0.990037 3.072377,0.05824 5.621092,1.42682 5.641723,1.222989 0.02062,-0.203832 0.500969,-1.455939 0.368209,-1.747128 -0.132767,-0.291187 -1.740271,-1.519336 -1.863158,-1.526239 -0.268115,-0.01511 -0.706174,0.438547 -0.706174,0.438547 0,0 -0.14471,-0.523564 -0.323069,-0.54296 -0.440979,-0.04795 -0.899239,0.582374 -0.899239,0.582374 0,0 -0.305617,-0.738413 -0.724996,-0.727969 -0.737498,0.01837 -1.106501,1.395331 -1.091829,1.25211 0.05605,-0.547034 -0.21643,-1.258534 -0.531723,-1.28123 -0.739706,-0.05324 -0.968246,1.222991 -1.128744,1.164754 -0.160518,-0.05824 0.132784,-1.017673 -0.362733,-1.01916 -0.58725,-0.0017 -0.571291,0.703571 -0.716725,0.669734 -0.174674,-0.04064 0.0761,-0.669734 -0.396206,-0.524137 -0.472318,0.145588 -0.630749,0.436781 -0.630749,0.436781 z"
       id="path8"
       sodipodi:nodetypes="cssssscscssssssscc" />
    <path
       style="fill:#ffffff;fill-opacity:1;stroke:#01ffc8;stroke-width:0"
       d="m 26.708985,57.057571 c 0,0 -0.271724,0.18531 -0.402877,0.638293 -0.13115,0.452982 -0.308524,0.926554 -0.164399,0.926554 0.144131,0 0.0317,0.123545 0.268159,0.08236 0.236545,-0.04119 0.33852,-0.205903 0.440982,-0.288263 0.102469,-0.08236 1.799442,-0.370622 2.10327,-0.350032 0.303823,0.02058 0.52934,-0.14413 0.770422,-0.288261 0.241082,-0.14413 0.36608,0.102943 0.63878,0.08236 0.272695,-0.02058 0.714164,-0.22649 0.714164,-0.22649 0,0 0.125477,0.32944 0.520749,0.144131 0.39527,-0.185312 0.574089,-0.411803 0.868352,-0.267673 0.294261,0.144131 0.73265,0.288263 0.819552,0.185313 0.08689,-0.10296 0.237028,0.04119 0.510216,0.102943 0.273185,0.06175 0.539879,-0.102943 0.539879,-0.102943 0,0 0.108493,0.06175 0.432394,0 0.323924,-0.06177 0.396724,0.06175 0.571985,0.102943 0.175271,0.04119 -0.151086,-0.308851 0.462543,-0.123546 0.613654,0.18531 1.709311,0.926554 1.848418,0.947145 0.139108,0.02058 0.504854,-0.803014 0.504854,-0.803014 0.07586,-0.226492 0,0 0,0 0,0 0.100519,-0.411803 -0.105858,-0.494163 -0.206387,-0.08236 -3.450952,-1.276585 -5.711006,-1.276585 -2.135611,0 -5.630573,1.008915 -5.630573,1.008915 z"
       id="path9"
       sodipodi:nodetypes="cssssssscsssscssssccssc" />
    <path
       d="m 46.325138,51.421906 c 0.14954,-0.207185 0.302828,-0.41795 0.422055,-0.594507 0.08215,-0.121613 0.154142,-0.234236 0.212389,-0.332199 0.05824,-0.09797 0.102258,-0.181777 0.128885,-0.248695 0.02664,-0.06692 0.04194,-0.120893 0.04992,-0.166103 0.0079,-0.04521 0.0091,-0.08195 0.0046,-0.113463 -0.0091,-0.06305 -0.0368,-0.106755 -0.059,-0.163381 -0.01107,-0.02831 -0.02122,-0.05926 -0.02633,-0.09802 -0.0051,-0.03876 -0.006,-0.08522 9.08e-4,-0.142497 0.0069,-0.05726 0.02122,-0.125846 0.0463,-0.209665 0.02512,-0.08382 0.06035,-0.182947 0.109827,-0.301339 0.09899,-0.236786 0.264011,-0.615179 0.461085,-1.100976 0.09853,-0.242896 0.205088,-0.512718 0.315861,-0.805082 0.110776,-0.292363 0.225555,-0.60702 0.340368,-0.940323 0.114816,-0.3333 0.229708,-0.685338 0.340366,-1.051054 0.110654,-0.365715 0.217548,-0.744958 0.315861,-1.13456 0.09832,-0.389602 0.188169,-0.789498 0.265941,-1.194461 0.07776,-0.404966 0.143375,-0.815339 0.192421,-1.22714 0.04902,-0.411803 0.08708,-0.815361 0.115273,-1.208985 0.02819,-0.393624 0.04612,-0.777288 0.05536,-1.147265 0.0093,-0.369978 0.0097,-0.726531 0.0018,-1.067393 -0.0079,-0.340862 -0.02327,-0.665814 -0.0463,-0.972089 -0.02304,-0.306278 -0.05348,-0.594224 -0.08986,-0.860449 -0.03634,-0.266224 -0.07925,-0.510864 -0.127075,-0.731564 -0.04776,-0.220699 -0.100572,-0.417539 -0.157936,-0.587248 -0.05729,-0.169704 -0.119242,-0.312441 -0.184252,-0.425685 -0.06509,-0.113258 -0.156515,-0.246072 -0.267829,-0.393016 -0.111321,-0.146941 -0.242306,-0.307348 -0.388472,-0.475608 -0.146168,-0.168264 -0.306944,-0.344708 -0.476514,-0.521896 -0.169581,-0.177186 -0.348552,-0.355429 -0.530067,-0.529159 -0.18151,-0.173726 -0.365308,-0.343136 -0.547311,-0.501021 -0.181997,-0.157883 -0.361751,-0.304202 -0.532788,-0.433855 -0.04484,-0.03399 -0.08259,-0.05559 -0.126162,-0.08713 0.166068,0.32895 0.35303,0.703003 0.558202,1.161787 0.121912,0.272598 0.244838,0.559684 0.361243,0.852281 0.116397,0.292598 0.226612,0.590709 0.323122,0.884047 0.09651,0.293339 0.179212,0.582 0.241434,0.85682 0.03111,0.137403 0.05731,0.271102 0.07716,0.400272 0.01985,0.129166 0.03407,0.253614 0.04085,0.372134 0.02708,0.474083 0.05006,1.047166 0.06444,1.660086 0.0144,0.612922 0.02015,1.265803 0.01001,1.902428 -0.0051,0.318313 -0.01475,0.632226 -0.02814,0.934875 -0.01352,0.302651 -0.03118,0.594206 -0.05447,0.866803 -0.02327,0.272597 -0.05162,0.527011 -0.08622,0.755162 -0.0346,0.228153 -0.07512,0.429732 -0.122527,0.599048 -0.0474,0.169317 -0.104049,0.447344 -0.166998,0.804175 -0.06297,0.35683 -0.132749,0.792938 -0.205127,1.278874 -0.144763,0.971869 -0.301859,2.143344 -0.44747,3.281143 -0.145606,1.137798 -0.279318,2.242321 -0.376675,3.078736 -0.0051,0.04382 -0.0033,0.03483 -0.0081,0.07716 z"
       style="fill-opacity:0.44856;stroke:#000000;stroke-width:0"
       id="path17" />
    <g
       id="g28">
      <path
         style="fill:#bcff57;fill-opacity:0.603567;stroke:#000000;stroke-width:0"
         id="path19"
         d="m 31.055446,56.670978 c 0.200367,-0.550566 0.496409,-1.058356 0.698686,-1.608634 0.21394,-0.582009 0.294712,-0.939203 0.461545,-1.553714 0.09514,-0.335111 0.180092,-0.673289 0.285442,-1.005332 0.115308,-0.363412 0.250741,-0.720133 0.376257,-1.080148 0.298569,-0.856377 0.612021,-1.707623 0.900642,-2.567402 0.407568,-1.214128 0.423922,-1.333481 0.759404,-2.54219 0.08784,-0.381147 0.186187,-0.760019 0.263497,-1.143437 0.238339,-1.182049 0.457977,-2.576273 0.299859,-3.783166 -0.04583,-0.349583 -0.135946,-0.691911 -0.203908,-1.037863 -0.616487,-2.054895 -1.111496,-4.149428 -1.836946,-6.170881 -0.462647,-1.289167 -0.663904,-1.669927 -1.226972,-2.919773 -0.223964,-0.458257 -0.444509,-0.918199 -0.671895,-1.374767 -0.799933,-1.606228 -0.463669,-0.867196 -1.178093,-2.365795 -0.371815,-0.779931 -0.716866,-1.569821 -1.054784,-2.364776 -0.618986,-1.529118 -0.853169,-3.188853 -0.880843,-4.831533 -0.006,-0.348958 0.01054,-0.697942 0.01581,-1.046915 0.08826,-1.294004 0.317142,-2.727919 0.981907,-3.868687 0.113903,-0.195464 0.255891,-0.373154 0.383831,-0.559726 0.465027,-0.614067 1.063042,-1.085631 1.667245,-1.551224 0,0 -3.293967,-2.066333 -3.293967,-2.066333 v 0 c -0.60614,0.515039 -1.231332,1.014994 -1.745301,1.627037 -0.150717,0.203587 -0.326017,0.391086 -0.45214,0.610756 -0.189669,0.330362 -0.387493,1.005696 -0.474772,1.361686 -0.222138,0.90604 -0.337467,1.836595 -0.353649,2.768935 0.0014,1.088302 0.009,2.170038 0.107492,3.254995 0.05513,0.607011 0.134084,1.300645 0.27632,1.897646 0.06388,0.268145 0.158919,0.527898 0.238366,0.791841 1.051501,2.151189 2.352448,4.169284 3.392987,6.327046 0.524849,1.147576 0.807596,1.715444 1.255613,2.896601 0.726578,1.915537 1.286444,3.906777 1.506176,5.947786 0.08137,0.64068 0.158322,1.157128 0.19858,1.79665 0.08715,1.384237 -0.06061,2.758637 -0.332791,4.116543 -0.272388,1.1943 -0.277807,1.361081 -0.683838,2.542206 -0.528784,1.538225 -1.305533,2.971301 -1.860584,4.499525 -0.401272,0.993204 -0.780685,2.041322 -1.554444,2.814324 z" />
      <path
         style="fill:#bcff57;fill-opacity:0.603567;stroke:#000000;stroke-width:0"
         id="path20"
         d="m 33.748206,55.870135 c 0.248214,-0.492147 0.303435,-1.062237 0.391062,-1.599303 0.149487,-0.916139 0.133276,-0.870932 0.25439,-1.856914 0.110882,-1.214569 0.244659,-2.435775 0.232659,-3.657637 -0.03666,-3.735696 -0.126356,0.819176 -0.107931,-3.437613 0.0028,-0.675794 0.03806,-1.351063 0.0571,-2.026592 0.06708,-2.077885 0.306978,-4.143287 0.493004,-6.212027 0.148574,-1.652262 0.26294,-3.305537 0.349717,-4.961991 0.134997,-2.267206 -0.193457,-4.515882 -0.511438,-6.752952 -0.05259,-0.367789 -0.108142,-0.735165 -0.15776,-1.103363 -0.08577,-0.636497 -0.13714,-1.196582 -0.248705,-1.826809 -0.132468,-0.748265 -0.261483,-1.188002 -0.422493,-1.947928 -0.08622,-0.40696 -0.162204,-0.816021 -0.243311,-1.224035 -0.228078,-1.197883 -0.311015,-2.412551 -0.379471,-3.627223 0,0 -3.269988,-1.62839 -3.269988,-1.62839 v 0 c 0.155337,1.224835 0.301475,2.450661 0.429973,3.678666 0.0924,0.782975 0.157128,1.430211 0.289852,2.201053 0.223185,1.296203 0.590129,2.566315 0.748838,3.874632 0.137193,1.095124 0.24963,2.191982 0.376708,3.288231 0.110197,0.950687 0.163433,1.243992 0.247446,2.215701 0.03736,0.43213 0.06233,0.86524 0.09351,1.297861 0.06112,1.542948 0.08478,1.598105 0.05346,3.211052 -0.05269,2.712616 -0.348476,5.409432 -0.57234,8.111216 -0.103312,1.256371 -0.22204,2.511544 -0.312182,3.768933 -0.119839,1.671813 -0.07632,3.36134 -0.440666,5.007956 -0.209386,0.899112 -0.182883,0.890324 -0.45831,1.709588 -0.100291,0.298301 -0.281455,0.87168 -0.489844,1.139031 -0.02849,0.03653 -0.07059,0.05991 -0.105893,0.08988 z" />
      <path
         style="fill:#bcff57;fill-opacity:0.603567;stroke:#000000;stroke-width:0"
         id="path21"
         d="m 35.908289,56.167479 c 0.08246,0.01739 0.284309,0.06411 0.354708,0.05693 0.482073,-0.04929 0.749526,-0.436489 1.022564,-0.788315 0.154511,-0.199102 0.300726,-0.404517 0.451085,-0.606774 0.63087,-0.888 1.373219,-1.715588 1.868903,-2.694056 0.306907,-0.605831 0.435716,-1.070666 0.653417,-1.717443 0.109529,-0.326183 0.218816,-0.65244 0.328555,-0.978545 0.354437,-1.053282 0.341546,-1.027756 0.721386,-2.085734 0.269893,-0.751757 0.558904,-1.499957 0.792056,-2.264535 0.122702,-0.402367 0.22295,-0.811242 0.334431,-1.216864 0.320672,-1.673305 0.610515,-3.410104 0.275912,-5.108516 -0.208276,-1.057209 -0.49319,-1.62787 -0.894015,-2.62566 -0.743689,-1.696071 -1.768804,-3.251806 -2.542052,-4.932663 -0.124792,-0.271259 -0.233357,-0.549687 -0.350033,-0.824529 -0.746085,-1.984441 -0.841446,-4.110582 -0.991799,-6.201703 -0.09873,-1.792043 0.09156,-3.578441 0.560233,-5.309982 0.190719,-0.704611 0.494517,-1.549844 0.732317,-2.240433 0.671582,-1.842466 1.394465,-3.693427 2.461585,-5.349686 0.157286,-0.244133 0.335456,-0.474166 0.503185,-0.711245 0,0 -3.295629,-1.9136419 -3.295629,-1.9136419 v 0 c -1.058487,2.0215939 -2.022645,4.0973419 -2.835069,6.2303849 -0.326272,1.00193 -0.439338,1.276492 -0.679708,2.31303 -0.407735,1.758269 -0.60621,3.558904 -0.658445,5.361461 0.0033,0.39563 -0.0028,0.791437 0.0093,1.186886 0.0251,0.803349 0.07742,1.323663 0.173743,2.118651 0.06715,0.55433 0.190835,1.484448 0.318757,2.035258 0.07019,0.302171 0.172848,0.595867 0.25927,0.8938 0.114658,0.284991 0.215149,0.576102 0.343978,0.854973 0.808683,1.750522 2.071002,3.256877 2.836746,5.031605 0.412309,1.025246 0.628253,1.424584 0.848931,2.502216 0.339192,1.656352 0.177652,3.353366 -0.208358,4.984289 -0.114887,0.395793 -0.21797,0.795197 -0.344652,1.187374 -0.300113,0.929087 -0.488656,1.324894 -0.842073,2.228992 -0.709369,1.814694 -0.09676,0.28364 -0.776739,2.056271 -0.122071,0.31822 -0.250342,0.634025 -0.375513,0.951036 -0.282039,0.699894 -0.362774,0.955328 -0.707997,1.60849 -0.501206,0.94827 -1.143046,1.819569 -1.859901,2.614725 -0.321496,0.311744 -0.746841,0.854137 -1.256809,0.877785 -0.220011,0.01019 -0.433565,-0.121367 -0.626181,-0.206017 z" />
      <path
         style="fill:#bcff57;fill-opacity:0.603567;stroke:#000000;stroke-width:0"
         id="path22"
         d="m 35.938371,55.62393 c 0.05204,-0.713553 -0.03049,-1.425617 0.04233,-2.140371 0.109107,-1.071412 0.37297,-2.187643 0.687531,-3.212455 0.181453,-0.591151 0.408889,-1.167194 0.613337,-1.750792 0.950938,-2.773936 1.957337,-5.529439 2.729616,-8.360778 0.435786,-1.597689 0.479148,-1.909764 0.807512,-3.469492 0.06722,-0.469452 0.181852,-0.934528 0.201686,-1.408351 0.019,-0.454767 -0.02598,-0.911567 -0.08571,-1.362787 -0.117029,-0.884075 -0.31246,-1.559765 -0.758452,-2.338033 -0.542679,-0.946991 -1.033373,-1.374595 -1.77917,-2.172966 -1.179216,-1.233619 -2.661127,-2.172845 -3.730074,-3.515881 -0.609858,-0.766236 -0.678474,-1.041287 -1.117891,-1.943569 -0.17746,-0.490186 -0.378695,-0.972407 -0.532382,-1.470558 -0.707492,-2.293226 -1.039376,-4.710762 -1.163976,-7.10173 -0.0258,-0.495248 -0.02659,-0.991479 -0.03987,-1.487213 0.02445,-0.917395 0.01405,-1.275012 0.104313,-2.14586 0.03727,-0.359415 0.09908,-0.891194 0.255232,-1.23954 0.215572,-0.480891 0.515307,-0.7505459 0.864514,-1.1501229 0,0 -3.244791,-1.987906 -3.244791,-1.987906 v 0 c -0.401531,0.3579234 -0.918611,0.7234398 -1.141247,1.248499 -0.150507,0.354939 -0.08434,1.095659 -0.06469,1.4326229 0.05285,0.906185 0.110952,1.390813 0.202668,2.326699 0.352263,3.374919 0.673414,6.770001 1.48443,10.072853 0.367812,0.943976 0.40039,1.237643 1.021076,2.034137 0.238009,0.305424 0.516518,0.577883 0.79445,0.847482 0.997194,0.967313 2.146263,1.762296 3.125204,2.750147 0.706381,0.74596 1.16302,1.147465 1.701224,2.01874 0.666439,1.078865 1.004115,2.333767 1.054341,3.596208 0.01934,0.486295 -0.03588,0.972695 -0.05385,1.459048 -0.176452,1.550852 -0.192532,2.004915 -0.529231,3.582264 -0.610468,2.85988 -1.636155,5.603953 -2.869616,8.250087 -0.230577,0.576517 -0.472114,1.148773 -0.691738,1.729545 -0.303999,0.803887 -0.776743,2.21519 -1.068686,3.054605 -0.119066,0.342366 -0.249028,0.68099 -0.36224,1.025338 -0.341953,1.040088 0.0042,0.136455 -0.230249,0.733149 z" />
      <path
         style="fill:#bcff57;fill-opacity:0.603567;stroke:#000000;stroke-width:0"
         id="path23"
         d="m 33.444626,54.292065 c 0.259166,-0.783895 0.396787,-1.603266 0.641934,-2.39075 0.359183,-1.153804 0.733804,-1.96681 1.153469,-3.108527 0.208736,-0.567866 0.399093,-1.142319 0.598642,-1.713482 0.586879,-1.843683 0.935295,-3.755242 1.014246,-5.689618 0.07112,-1.742702 -0.110267,-3.481322 -0.26994,-5.213226 -0.121807,-1.380891 -0.333731,-2.761881 -0.703378,-4.100136 -0.366295,-1.326106 -0.903011,-2.597152 -1.421695,-3.868055 -0.837151,-2.056322 -1.558696,-4.21366 -1.63535,-6.453946 -0.01493,-0.43479 0.02059,-0.869853 0.03086,-1.304779 0.184037,-1.194537 0.186398,-1.6203 0.643839,-2.786706 0.40691,-1.037566 0.961789,-1.919762 1.574414,-2.844313 0.376195,-0.567742 1.608193,-2.2786 1.99688,-2.821754 3.108391,-4.1813574 -0.969632,1.288311 1.977554,-2.6158169 0.786855,-1.042341 0.936279,-1.3045934 1.738391,-2.299935 0.612565,-0.7601258 0.790333,-0.9333528 1.419027,-1.6171805 0.70706,-0.6662513 0.361473,-0.3648647 1.0294,-0.9125236 0,0 -3.401627,-2.0885131 -3.401627,-2.0885131 v 0 c -0.557602,0.6571109 -0.271027,0.300503 -0.852119,1.0758867 -1.548468,2.2816192 -3.081029,4.5748394 -4.692164,6.8130564 -1.342874,1.820148 -2.790475,3.61158 -3.743317,5.680096 -0.21738,0.471904 -0.422129,0.95293 -0.56719,1.451835 -0.128797,0.44298 -0.16714,0.907389 -0.250704,1.361081 -0.01475,0.448069 -0.05636,0.896053 -0.0443,1.344198 0.02505,0.92785 0.168052,1.783976 0.36344,2.689031 0.2854,1.32198 0.692188,2.615306 1.220774,3.860296 0.542832,1.262083 1.12394,2.513942 1.499366,3.839856 0.344405,1.216375 0.323976,1.497322 0.544865,2.734859 0.08236,0.461397 0.177195,0.920479 0.265798,1.38072 0.212212,1.239237 0.388404,2.089981 0.473525,3.362065 0.171214,2.55874 -0.15906,5.051294 -1.008859,7.472368 -0.211766,0.558257 -0.405617,1.123649 -0.635302,1.674782 -0.298278,0.715725 -1.031678,2.254797 -1.418679,2.960328 -0.201607,0.367544 -0.4325,0.718254 -0.651618,1.075629 -0.119383,0.194703 -0.232269,0.393898 -0.363859,0.580563 -0.06367,0.09032 -0.146765,0.165243 -0.220144,0.247876 z" />
      <path
         style="fill:#bcff57;fill-opacity:0.603567;stroke:#000000;stroke-width:0"
         id="path24"
         d="m 33.118924,56.740231 c 0.627152,-1.313131 1.368544,-2.467748 2.328218,-3.572535 0.932325,-1.073301 1.577205,-1.633478 2.605662,-2.60277 0.519723,-0.485967 1.694058,-1.533441 2.146896,-2.13995 0.277322,-0.371432 0.496784,-0.784647 0.703522,-1.19953 0.378521,-0.759615 0.662266,-1.633623 0.875904,-2.453391 0.09834,-0.377321 0.166929,-0.761775 0.250404,-1.142663 0.05178,-0.802675 0.135418,-1.352884 0.006,-2.148514 C 41.851429,40.34901 41.301474,39.325111 40.814746,38.304844 40.615035,37.886223 40.417745,37.466456 40.219241,37.047264 39.76238,36.071431 39.42871,35.044659 39.001423,34.056799 38.692955,33.343633 38.353244,32.644391 38.028941,31.938289 37.014506,29.729576 36.001228,27.522114 35.020749,25.298091 33.3132,21.303934 32.343911,17.054165 31.231791,12.870015 31.09084,12.227104 30.912899,11.591198 30.808919,10.94128 30.58698,9.5540581 30.530749,8.0291471 31.017944,6.6844428 c 0.325049,-0.8971692 0.611634,-1.1388679 1.191519,-1.8728813 0.83749,-0.8325686 1.826358,-1.471968 2.877061,-2.0005506 0.310634,-0.1562673 0.633899,-0.2860479 0.950854,-0.4290701 0,0 -3.103346,-2.03913708 -3.103346,-2.03913708 v 0 C 31.58728,1.1090769 30.197283,1.8460375 29.092042,2.9541314 28.462605,3.7753432 28.179213,3.986967 27.885131,5.0087266 27.60094,5.9961258 27.636737,6.8113763 27.754753,7.8295423 c 0.196022,1.6912108 0.389412,2.1070238 0.862617,3.7943107 0.523776,1.899166 0.70246,2.493342 1.172048,4.412996 0.320358,1.309594 0.642828,2.913814 1.050077,4.209441 0.518049,1.648149 0.863797,2.277828 1.584348,3.866415 1.035115,2.171724 2.089693,4.34015 2.939889,6.593583 0.589333,1.562013 0.661091,2.036246 1.175967,3.528474 0.157145,0.455463 0.334228,0.903806 0.501344,1.355708 0.164997,0.407022 0.321765,0.817472 0.494963,1.221067 0.425317,0.991085 0.942228,1.951493 1.172923,3.016016 0.192688,0.889162 0.135823,1.181106 0.125091,2.097176 -0.0617,0.381399 -0.105911,0.766044 -0.185125,1.144196 -0.172478,0.823434 -0.409343,1.647226 -0.770486,2.410311 -0.615903,1.301379 -1.564752,2.378049 -2.546956,3.412445 -2.359131,2.357671 -0.167227,0.197778 -2.680774,2.581474 -0.418922,0.397281 -0.830041,0.802706 -1.243713,1.205448 -0.310104,0.301911 -1.201176,1.198592 -1.62507,1.550442 -0.101362,0.08413 -0.219523,0.145676 -0.329284,0.21852 z" />
      <path
         style="fill:#bcff57;fill-opacity:0.603567;stroke:#000000;stroke-width:0"
         id="path25"
         d="m 36.618393,57.006177 c 0.09286,-0.180537 0.17211,-0.368741 0.278578,-0.541606 0.166999,-0.271161 0.37299,-0.516964 0.540254,-0.787958 0.285438,-0.462433 0.535055,-0.946234 0.816936,-1.410842 0.338573,-0.558048 0.705142,-1.098781 1.044114,-1.656588 0.737707,-1.213953 1.503163,-2.578578 2.205719,-3.81223 0.747889,-1.34765 1.23552,-2.189705 1.917159,-3.556027 0.258065,-0.517289 0.51819,-1.034522 0.741927,-1.567559 0.203917,-0.485823 0.472717,-0.963062 0.539627,-1.485677 0.168914,-1.319199 -0.278578,-2.635701 -0.582098,-3.883712 -0.667066,-2.216035 -1.703724,-4.285384 -2.76788,-6.330256 -2.580847,-4.959346 1.091384,2.109775 -1.787913,-3.435323 -1.13904,-2.160642 -2.248955,-4.336861 -3.434742,-6.472588 -0.439183,-0.791021 -0.89689,-1.57163 -1.340015,-2.360452 -1.28904,-2.294688 -1.106026,-1.979602 -2.268153,-4.169461 -0.670036,-1.293632 -1.310236,-2.602943 -1.938159,-3.917491 -0.283714,-0.593944 -0.584296,-1.211601 -0.790268,-1.8393939 -0.09816,-0.299184 -0.161466,-0.608697 -0.242195,-0.913045 -0.0479,-0.7320656 -0.176057,-1.164371 0.19261,-1.859956 0.465008,-0.8773639 1.374716,-1.6658644 2.127848,-2.2523012 1.004889,-0.7824813 1.71886,-1.1477096 2.802864,-1.7730437 0,0 -2.834381,-1.823788 -2.834381,-1.823788 v 0 c -0.979442,0.6834728 -1.703088,1.1841585 -2.686328,1.8894388 -0.629066,0.4512306 -2.16796,1.4855433 -2.664281,2.1769393 -0.48368,0.6737862 -0.345952,1.2798579 -0.321694,2.0252105 0.228267,0.9062727 0.222213,1.0636253 0.626561,1.9229723 0.297822,0.63296 0.85806,1.5351629 1.208557,2.1152999 0.792807,1.312234 1.035226,1.699782 1.878555,3.071223 1.03492,1.717968 1.518391,2.488716 2.511664,4.274998 0.425703,0.765576 0.833592,1.540933 1.245608,2.313965 1.107709,2.078312 2.171921,4.177885 3.137906,6.326585 0.493588,1.087753 1.01502,2.26793 1.552771,3.339201 1.050948,2.093638 2.315406,4.095585 3.006958,6.352683 0.325397,1.438577 0.624293,2.134306 0.430747,3.608419 -0.0682,0.519505 -0.267935,1.01387 -0.434736,1.510575 -0.612215,1.82311 -1.47678,3.54842 -2.367644,5.247335 -0.367965,0.63501 -0.712594,1.284129 -1.103898,1.905027 -0.646386,1.025639 -1.636327,2.413491 -2.453668,3.333875 -0.733488,0.825956 -1.584516,1.566786 -2.441562,2.261861 z" />
      <path
         style="fill:#bcff57;fill-opacity:0.603567;stroke:#000000;stroke-width:0"
         id="path26"
         d="m 35.389918,56.454254 c 0.05044,-0.09571 0.164259,-0.301828 0.177113,-0.38727 0.07668,-0.509899 -0.02561,-0.853473 -0.169441,-1.363873 -0.09557,-0.33916 -0.219051,-0.669822 -0.328033,-1.004911 -0.114675,-0.352578 -0.22862,-0.705394 -0.34293,-1.058096 -0.325985,-0.992617 -0.61454,-1.998464 -0.971307,-2.980919 -0.628174,-1.729841 -0.305862,-0.673168 -0.888507,-2.425711 -0.13584,-0.408601 -0.258897,-0.821342 -0.388344,-1.232015 -0.315254,-1.030979 -0.504922,-2.091339 -0.654719,-3.156777 -0.11522,-0.819498 -0.1742,-1.245548 -0.214019,-2.072848 -0.01651,-0.343574 -0.01388,-0.687801 -0.02092,-1.031699 -4.6e-4,-1.286783 0.199404,-2.55441 0.76335,-3.720175 0.387516,-0.801057 0.506233,-0.891946 1.036612,-1.613306 0.749566,-0.999541 1.812626,-1.699844 2.62155,-2.64157 0.436275,-0.5079 0.428222,-0.574579 0.71721,-1.148543 0.195458,-0.506921 0.29724,-1.02909 0.01762,-1.533337 -0.32385,-0.583999 -0.95175,-0.924244 -1.490179,-1.270535 -1.319809,-0.755159 -2.636258,-1.516217 -3.959423,-2.265473 -0.181727,-0.102907 -0.370949,-0.192006 -0.554926,-0.290832 -0.165787,-0.08905 -0.657497,-0.366517 -0.494313,-0.272775 1.008725,0.579445 2.012724,1.167417 3.030989,1.729926 0.128867,0.07119 -0.243752,-0.165453 -0.36075,-0.254828 -0.107211,-0.0819 -0.207596,-0.172373 -0.311396,-0.258576 -0.147327,-0.134031 -0.420901,-0.36429 -0.524993,-0.536662 -0.256946,-0.425483 -0.331328,-0.860764 -0.392113,-1.355625 -0.09248,-0.752783 -0.07597,-1.504683 -0.08266,-2.260905 0.02895,-1.17255 0.08065,-2.344333 0.126268,-3.516298 0.02143,-0.551283 0.03667,-1.564338 0.138545,-2.124255 0.05679,-0.312144 0.169388,-0.611509 0.254075,-0.917264 0.123896,-0.258609 0.229699,-0.526694 0.371693,-0.775828 0.408085,-0.716024 1.035283,-1.344184 1.710147,-1.812059 0.29022,-0.173813 0.147433,-0.09927 0.425995,-0.228054 0,0 -3.559127,-2.306348 -3.559127,-2.306348 v 0 c -0.268712,0.194172 -0.131783,0.08829 -0.408857,0.320155 -0.847407,0.834494 -1.423399,1.907377 -1.823718,3.018447 -0.08708,0.331178 -0.208931,0.655117 -0.261263,0.993527 -0.05364,0.346849 -0.04284,0.700717 -0.05498,1.051474 -0.05359,1.548859 -0.04642,3.100263 -0.134734,4.648187 -0.04207,0.731913 -0.09409,1.463253 -0.131537,2.195412 -0.0297,0.580503 -0.146097,1.293628 0.244486,1.794317 0.08088,0.10368 0.194926,0.176562 0.292385,0.264841 1.445817,1.307405 2.366377,1.577874 4.592274,2.857988 0.151261,0.08699 0.309276,0.161677 0.46398,0.242377 0.174569,0.09105 0.69262,0.37423 0.523818,0.272905 -0.925335,-0.555467 -1.862779,-1.090506 -2.79417,-1.635757 0.51867,0.303524 1.444335,0.756743 1.678483,1.356183 0.142989,0.366097 0.05789,0.532801 -0.0053,0.911348 -0.06984,0.179752 -0.122422,0.367194 -0.209516,0.539246 -0.217515,0.429699 -0.516109,0.796685 -0.830953,1.157447 -0.648598,0.743196 -1.389428,1.398463 -2.029475,2.149703 -0.497976,0.650913 -0.77087,0.936354 -1.125332,1.677156 -0.138158,0.288743 -0.24134,0.593498 -0.341111,0.89764 -0.105226,0.320783 -0.206123,0.644388 -0.273279,0.975247 -0.150225,0.740127 -0.134013,1.258498 -0.157409,2.010348 0.01686,1.116426 -0.0028,0.987877 0.08498,2.102362 0.02733,0.346895 0.04611,0.695088 0.09551,1.039535 0.160324,1.117812 0.510489,2.201467 0.81355,3.284857 1.310393,4.275564 -0.550271,-1.762372 0.780632,2.449387 0.120155,0.380258 0.223565,0.765675 0.343698,1.145938 0.315905,0.999926 0.683527,1.983176 1.001229,2.98254 0.180124,0.640518 0.375862,1.261033 0.484425,1.918707 0.04937,0.299077 0.101696,0.671644 -9.31e-4,0.978119 -0.03416,0.101994 -0.163152,0.223137 -0.235188,0.299085 z" />
      <path
         style="fill:#bcff57;fill-opacity:0.603567;stroke:#000000;stroke-width:0"
         id="path19-6"
         d="m 35.429453,57.284808 c -0.200367,-0.550566 -0.496408,-1.058356 -0.698685,-1.608634 -0.21394,-0.582009 -0.294712,-0.939203 -0.461546,-1.553715 -0.09514,-0.335111 -0.180091,-0.673289 -0.285442,-1.005332 -0.115307,-0.363412 -0.25074,-0.720132 -0.376256,-1.080147 -0.29857,-0.856377 -0.612021,-1.707623 -0.900642,-2.567402 -0.407568,-1.214128 -0.423922,-1.333481 -0.759404,-2.542191 -0.08784,-0.381146 -0.186187,-0.760018 -0.263497,-1.143436 -0.238339,-1.182049 -0.457977,-2.576273 -0.299859,-3.783167 0.04583,-0.349582 0.135946,-0.69191 0.203908,-1.037862 0.616487,-2.054896 1.111496,-4.149428 1.836945,-6.170882 0.462648,-1.289166 0.663905,-1.669927 1.226973,-2.919773 0.223964,-0.458256 0.444509,-0.918198 0.671895,-1.374767 0.799932,-1.606227 0.463669,-0.867196 1.178093,-2.365794 0.371815,-0.779931 0.716866,-1.569821 1.054784,-2.364777 0.618986,-1.529117 0.853169,-3.188852 0.880843,-4.831532 0.006,-0.348959 -0.01054,-0.697942 -0.01581,-1.046915 -0.08826,-1.294004 -0.317142,-2.727919 -0.981907,-3.868688 -0.113903,-0.195463 -0.255891,-0.373153 -0.383831,-0.559725 -0.465027,-0.614067 -1.063042,-1.085631 -1.667245,-1.551224 0,0 3.293967,-2.066333 3.293967,-2.066333 v 0 c 0.60614,0.515039 1.231332,1.014994 1.745301,1.627037 0.150717,0.203587 0.326016,0.391086 0.45214,0.610756 0.189669,0.330362 0.387493,1.005696 0.474772,1.361685 0.222138,0.906041 0.337467,1.836596 0.353648,2.768935 -0.0014,1.088303 -0.009,2.170039 -0.107492,3.254995 -0.05513,0.607012 -0.134083,1.300645 -0.276319,1.897647 -0.06388,0.268145 -0.158919,0.527898 -0.238367,0.791841 -1.0515,2.151189 -2.352447,4.169284 -3.392987,6.327045 -0.524848,1.147576 -0.807596,1.715444 -1.255612,2.896601 -0.726579,1.915537 -1.286444,3.906777 -1.506176,5.947787 -0.08137,0.64068 -0.158322,1.157127 -0.198581,1.79665 -0.08715,1.384237 0.06061,2.758637 0.332792,4.116542 0.272388,1.1943 0.277806,1.361081 0.683838,2.542207 0.528784,1.538224 1.305533,2.9713 1.860584,4.499524 0.401272,0.993204 0.780685,2.041322 1.554444,2.814324 z" />
      <path
         style="fill:#bcff57;fill-opacity:0.603567;stroke:#000000;stroke-width:0"
         id="path20-3"
         d="m 32.736694,56.483965 c -0.248214,-0.492148 -0.303435,-1.062238 -0.391062,-1.599304 -0.149487,-0.916138 -0.133276,-0.870932 -0.25439,-1.856913 -0.110882,-1.214569 -0.244659,-2.435776 -0.232659,-3.657637 0.03666,-3.735697 0.126356,0.819176 0.107931,-3.437614 -0.0028,-0.675794 -0.03806,-1.351062 -0.0571,-2.026591 -0.06708,-2.077885 -0.306977,-4.143287 -0.493003,-6.212027 -0.148574,-1.652263 -0.26294,-3.305537 -0.349717,-4.961991 -0.134997,-2.267206 0.193457,-4.515882 0.511438,-6.752952 0.05259,-0.367789 0.108142,-0.735165 0.15776,-1.103364 0.08576,-0.636496 0.13714,-1.196581 0.248705,-1.826809 0.132468,-0.748265 0.261483,-1.188001 0.422493,-1.947927 0.08622,-0.40696 0.162203,-0.816021 0.243311,-1.224036 0.228077,-1.197883 0.311015,-2.41255 0.379471,-3.627222 0,0 3.269987,-1.62839 3.269987,-1.62839 v 0 c -0.155336,1.224835 -0.301474,2.45066 -0.429972,3.678666 -0.0924,0.782975 -0.157128,1.430211 -0.289853,2.201053 -0.223184,1.296203 -0.590128,2.566314 -0.748837,3.874631 -0.137193,1.095125 -0.249631,2.191983 -0.376708,3.288232 -0.110197,0.950687 -0.163434,1.243992 -0.247446,2.215701 -0.03736,0.43213 -0.06234,0.86524 -0.09351,1.297861 -0.06112,1.542948 -0.08478,1.598104 -0.05346,3.211052 0.05269,2.712616 0.348476,5.409431 0.57234,8.111215 0.103312,1.256372 0.222039,2.511545 0.312182,3.768933 0.119839,1.671814 0.07631,3.361341 0.440665,5.007957 0.209387,0.899111 0.182884,0.890324 0.458311,1.709588 0.100291,0.2983 0.281455,0.87168 0.489844,1.139031 0.02849,0.03653 0.07059,0.05991 0.105893,0.08987 z" />
      <path
         style="fill:#bcff57;fill-opacity:0.603567;stroke:#000000;stroke-width:0"
         id="path21-5"
         d="m 30.57661,56.781308 c -0.08246,0.01739 -0.284309,0.06411 -0.354707,0.05692 -0.482073,-0.04928 -0.749526,-0.436484 -1.022564,-0.788309 -0.154511,-0.199102 -0.300726,-0.404517 -0.451085,-0.606774 -0.63087,-0.888001 -1.373219,-1.715588 -1.868903,-2.694056 C 26.572444,52.143258 26.443635,51.678422 26.225934,51.031646 26.116405,50.705462 26.007118,50.379205 25.897379,50.053101 25.542942,48.999819 25.555833,49.025345 25.175993,47.967366 24.9061,47.21561 24.617089,46.46741 24.383937,45.702832 24.261235,45.300464 24.160986,44.891589 24.049506,44.485967 23.728834,42.812663 23.43899,41.075864 23.773594,39.377452 c 0.208276,-1.05721 0.493189,-1.62787 0.894015,-2.62566 0.743689,-1.696071 1.768803,-3.251806 2.542051,-4.932663 0.124793,-0.271259 0.233358,-0.549688 0.350034,-0.82453 0.746085,-1.984441 0.841446,-4.110581 0.991799,-6.201702 0.09873,-1.792043 -0.09156,-3.578441 -0.560233,-5.309983 -0.190719,-0.704611 -0.494517,-1.549843 -0.732317,-2.240433 -0.671582,-1.842465 -1.394465,-3.693427 -2.461585,-5.349685 -0.157286,-0.244133 -0.335456,-0.474166 -0.503185,-0.711245 0,0 3.295629,-1.9136419 3.295629,-1.9136419 v 0 c 1.058486,2.0215939 2.022645,4.0973409 2.835069,6.2303839 0.326272,1.00193 0.439338,1.276493 0.679707,2.313031 0.407735,1.758269 0.606211,3.558904 0.658446,5.361461 -0.0033,0.39563 0.0028,0.791437 -0.0093,1.186886 -0.0251,0.803349 -0.07742,1.323662 -0.173743,2.118651 -0.06715,0.55433 -0.190835,1.484447 -0.318758,2.035257 -0.07019,0.302172 -0.172847,0.595867 -0.259269,0.893801 -0.114658,0.28499 -0.215149,0.576102 -0.343978,0.854973 -0.808683,1.750521 -2.071002,3.256876 -2.836746,5.031604 -0.412309,1.025247 -0.628253,1.424584 -0.848932,2.502217 -0.339191,1.656352 -0.177651,3.353366 0.208359,4.984288 0.114886,0.395794 0.21797,0.795198 0.344652,1.187375 0.300113,0.929086 0.488656,1.324894 0.842073,2.228992 0.709369,1.814693 0.09676,0.28364 0.776739,2.056271 0.12207,0.31822 0.250342,0.634025 0.375512,0.951036 0.28204,0.699894 0.362775,0.955327 0.707998,1.60849 0.501205,0.94827 1.143046,1.819569 1.859901,2.614724 0.321496,0.311745 0.746841,0.854138 1.256809,0.877786 0.22001,0.01019 0.433565,-0.121368 0.626181,-0.206017 z" />
      <path
         style="fill:#bcff57;fill-opacity:0.603567;stroke:#000000;stroke-width:0"
         id="path22-9"
         d="m 30.546529,56.23776 c -0.05204,-0.713553 0.03049,-1.425617 -0.04233,-2.140371 -0.109108,-1.071412 -0.37297,-2.187643 -0.687532,-3.212456 -0.181452,-0.59115 -0.408889,-1.167193 -0.613336,-1.750791 -0.950938,-2.773936 -1.957338,-5.52944 -2.729616,-8.360778 -0.435787,-1.59769 -0.479149,-1.909764 -0.807512,-3.469493 -0.06722,-0.469451 -0.181853,-0.934527 -0.201686,-1.408351 -0.019,-0.454766 0.02598,-0.911566 0.08571,-1.362786 0.117029,-0.884075 0.31246,-1.559766 0.758452,-2.338033 0.542679,-0.946992 1.033373,-1.374595 1.77917,-2.172966 1.179216,-1.233619 2.661127,-2.172846 3.730074,-3.515881 0.609858,-0.766237 0.678474,-1.041288 1.117891,-1.94357 0.17746,-0.490186 0.378695,-0.972406 0.532382,-1.470557 0.707491,-2.293226 1.039376,-4.710763 1.163975,-7.10173 0.0258,-0.495248 0.02659,-0.991479 0.03987,-1.487214 -0.02445,-0.917394 -0.01405,-1.275012 -0.104313,-2.145859 -0.03727,-0.359415 -0.09908,-0.891194 -0.255232,-1.23954 -0.215572,-0.480891 -0.515308,-0.750546 -0.864514,-1.1501229 0,0 3.24479,-1.9879063 3.24479,-1.9879063 v 0 c 0.401532,0.3579233 0.918612,0.7234393 1.141248,1.2484993 0.150506,0.354939 0.08434,1.0956579 0.06469,1.4326229 -0.05285,0.906184 -0.110952,1.390813 -0.202668,2.326699 -0.352263,3.374919 -0.673414,6.770001 -1.48443,10.072853 -0.367812,0.943975 -0.40039,1.237643 -1.021076,2.034136 -0.238009,0.305425 -0.516518,0.577884 -0.79445,0.847483 -0.997194,0.967313 -2.146264,1.762296 -3.125204,2.750147 -0.706381,0.74596 -1.16302,1.147465 -1.701224,2.01874 -0.666439,1.078865 -1.004115,2.333766 -1.054341,3.596208 -0.01934,0.486295 0.03588,0.972694 0.05385,1.459048 0.176452,1.550851 0.192532,2.004915 0.529231,3.582264 0.610468,2.85988 1.636155,5.603953 2.869616,8.250087 0.230577,0.576517 0.472114,1.148772 0.691738,1.729545 0.303998,0.803886 0.776743,2.21519 1.068686,3.054605 0.119066,0.342365 0.249028,0.680989 0.36224,1.025338 0.341953,1.040087 -0.0042,0.136455 0.230249,0.733149 z" />
      <path
         style="fill:#bcff57;fill-opacity:0.603567;stroke:#000000;stroke-width:0"
         id="path23-8"
         d="m 33.040274,54.905894 c -0.259166,-0.783895 -0.396788,-1.603266 -0.641934,-2.390749 -0.359183,-1.153805 -0.733804,-1.96681 -1.153469,-3.108527 -0.208736,-0.567867 -0.399093,-1.142319 -0.598642,-1.713483 -0.586879,-1.843682 -0.935295,-3.755241 -1.014246,-5.689618 -0.07112,-1.742702 0.110267,-3.481321 0.26994,-5.213225 0.121807,-1.380891 0.333731,-2.761881 0.703378,-4.100136 0.366295,-1.326106 0.903011,-2.597152 1.421695,-3.868056 0.837151,-2.056321 1.558696,-4.213659 1.63535,-6.453945 0.01493,-0.434791 -0.02059,-0.869853 -0.03086,-1.304779 -0.184037,-1.194537 -0.186398,-1.6203 -0.643839,-2.786707 -0.40691,-1.037565 -0.961789,-1.919761 -1.574414,-2.844313 -0.376195,-0.567741 -1.608193,-2.2786 -1.99688,-2.821753 C 26.307961,8.4292451 30.385984,13.898914 27.438799,9.9947861 26.651944,8.9524441 26.50252,8.6901921 25.700407,7.6948508 25.087842,6.934725 24.910075,6.7614979 24.281381,6.0776703 23.574321,5.411419 23.919908,5.7128056 23.251981,5.1651467 c 0,0 3.401627,-2.0885132 3.401627,-2.0885132 v 0 c 0.557602,0.657111 0.271027,0.3005031 0.852119,1.0758868 1.548468,2.2816191 3.081028,4.5748398 4.692163,6.8130557 1.342875,1.820149 2.790476,3.61158 3.743318,5.680097 0.217379,0.471903 0.422129,0.95293 0.56719,1.451834 0.128797,0.442981 0.167139,0.90739 0.250704,1.361081 0.01475,0.448069 0.05636,0.896054 0.0443,1.344199 -0.02505,0.92785 -0.168052,1.783975 -0.36344,2.689031 -0.2854,1.32198 -0.692188,2.615306 -1.220774,3.860296 -0.542833,1.262083 -1.12394,2.513942 -1.499366,3.839856 -0.344405,1.216374 -0.323976,1.497322 -0.544865,2.734859 -0.08236,0.461397 -0.177195,0.920478 -0.265798,1.380719 -0.212212,1.239238 -0.388404,2.089982 -0.473525,3.362066 -0.171214,2.558739 0.15906,5.051294 1.008859,7.472368 0.211766,0.558257 0.405617,1.123648 0.635302,1.674781 0.298277,0.715726 1.031678,2.254798 1.418678,2.960329 0.201608,0.367543 0.432501,0.718253 0.651619,1.075629 0.119383,0.194702 0.232269,0.393898 0.363858,0.580563 0.06367,0.09031 0.146766,0.165242 0.220145,0.247876 z" />
      <path
         style="fill:#bcff57;fill-opacity:0.603567;stroke:#000000;stroke-width:0"
         id="path24-3"
         d="m 33.365976,57.354061 c -0.627152,-1.313131 -1.368544,-2.467749 -2.328218,-3.572535 -0.932326,-1.073302 -1.577205,-1.633478 -2.605662,-2.602771 -0.519723,-0.485967 -1.694058,-1.53344 -2.146896,-2.139949 -0.277322,-0.371432 -0.496785,-0.784647 -0.703522,-1.199531 -0.378521,-0.759614 -0.662266,-1.633622 -0.875904,-2.45339 -0.09834,-0.377321 -0.166929,-0.761775 -0.250404,-1.142663 -0.05178,-0.802675 -0.135419,-1.352884 -0.006,-2.148514 0.184073,-1.131869 0.734028,-2.155768 1.220755,-3.176034 0.199712,-0.418621 0.397002,-0.838388 0.595505,-1.25758 0.456862,-0.975833 0.790531,-2.002606 1.217819,-2.990465 0.308468,-0.713166 0.648179,-1.412408 0.972482,-2.118511 1.014435,-2.208712 2.027713,-4.416174 3.008192,-6.640197 1.707549,-3.994157 2.676838,-8.243926 3.788958,-12.428077 0.140951,-0.64291 0.318892,-1.278816 0.422871,-1.928734 0.22194,-1.387222 0.278171,-2.9121329 -0.209024,-4.2568376 C 35.141907,6.4011032 34.855322,6.1594045 34.275437,5.4253912 33.437946,4.5928226 32.449079,3.9534232 31.398375,3.4248405 31.087741,3.2685733 30.764477,3.1387927 30.447522,2.9957705 c 0,0 3.103345,-2.03913708 3.103345,-2.03913708 v 0 c 1.346753,0.76627318 2.736749,1.50323378 3.841991,2.61132768 0.629437,0.8212117 0.912829,1.0328355 1.206911,2.0545952 0.284191,0.9873991 0.248394,1.8026497 0.130378,2.8208158 -0.196022,1.6912109 -0.389413,2.1070239 -0.862618,3.7943109 -0.523775,1.899166 -0.702459,2.493341 -1.172048,4.412996 -0.320357,1.309593 -0.642828,2.913813 -1.050076,4.20944 -0.51805,1.64815 -0.863798,2.277829 -1.584348,3.866415 -1.035115,2.171725 -2.089694,4.340151 -2.939889,6.593583 -0.589334,1.562014 -0.661091,2.036246 -1.175967,3.528474 -0.157145,0.455464 -0.334228,0.903807 -0.501344,1.355709 -0.164997,0.407022 -0.321765,0.817472 -0.494964,1.221067 -0.425316,0.991084 -0.942228,1.951493 -1.172922,3.016016 -0.192688,0.889161 -0.135823,1.181105 -0.125092,2.097175 0.0617,0.3814 0.105912,0.766045 0.185125,1.144197 0.172479,0.823434 0.409344,1.647226 0.770487,2.410311 0.615902,1.301379 1.564752,2.378049 2.546956,3.412444 2.359131,2.357672 0.167227,0.197778 2.680774,2.581474 0.418921,0.397281 0.830041,0.802707 1.243713,1.205448 0.310103,0.301912 1.201176,1.198593 1.62507,1.550443 0.101362,0.08413 0.219522,0.145676 0.329284,0.218519 z" />
      <path
         style="fill:#bcff57;fill-opacity:0.603567;stroke:#000000;stroke-width:0"
         id="path25-4"
         d="M 29.866507,57.620007 C 29.773647,57.43947 29.694397,57.251266 29.587929,57.078401 29.42093,56.80724 29.214939,56.561437 29.047675,56.290443 28.762237,55.82801 28.51262,55.344209 28.230739,54.879601 27.892165,54.321553 27.525597,53.78082 27.186625,53.223012 c -0.737707,-1.213952 -1.503163,-2.578578 -2.20572,-3.81223 -0.747888,-1.34765 -1.235519,-2.189705 -1.917158,-3.556027 -0.258065,-0.517289 -0.51819,-1.034521 -0.741927,-1.567558 -0.203917,-0.485823 -0.472717,-0.963063 -0.539627,-1.485677 -0.168914,-1.3192 0.278578,-2.635701 0.582098,-3.883712 0.667066,-2.216035 1.703724,-4.285384 2.767879,-6.330256 2.580848,-4.959346 -1.091383,2.109774 1.787914,-3.435323 1.13904,-2.160642 2.248955,-4.336861 3.434742,-6.472588 0.439183,-0.791021 0.89689,-1.57163 1.340015,-2.360452 1.28904,-2.294688 1.106026,-1.979602 2.268152,-4.169461 0.670037,-1.293632 1.310237,-2.602943 1.93816,-3.917492 0.283714,-0.593943 0.584296,-1.2116 0.790268,-1.839393 0.09817,-0.299184 0.161466,-0.6086979 0.242195,-0.9130449 0.0479,-0.732066 0.176057,-1.164371 -0.19261,-1.8599563 C 36.275998,6.7424778 35.36629,5.9539773 34.613158,5.3675405 33.608268,4.5850593 32.894297,4.2198309 31.810294,3.5944968 c 0,0 2.834381,-1.823788 2.834381,-1.823788 v 0 c 0.979442,0.6834729 1.703088,1.1841585 2.686328,1.8894389 0.629066,0.4512306 2.16796,1.4855433 2.664281,2.1769392 0.48368,0.6737863 0.345952,1.2798579 0.321694,2.0252106 -0.228267,0.9062726 -0.222213,1.0636256 -0.626562,1.9229716 -0.297821,0.6329609 -0.858059,1.5351639 -1.208556,2.1153009 -0.792808,1.312233 -1.035226,1.699782 -1.878555,3.071222 -1.03492,1.717968 -1.518391,2.488717 -2.511664,4.274999 -0.425703,0.765576 -0.833592,1.540933 -1.245608,2.313965 -1.107709,2.078312 -2.171921,4.177885 -3.137906,6.326585 -0.493588,1.087753 -1.01502,2.267929 -1.552772,3.3392 -1.050947,2.093639 -2.315405,4.095586 -3.006957,6.352684 -0.325397,1.438577 -0.624293,2.134306 -0.430748,3.608418 0.0682,0.519506 0.267936,1.01387 0.434737,1.510576 0.612215,1.82311 1.47678,3.54842 2.367644,5.247335 0.367965,0.63501 0.712594,1.284129 1.103898,1.905026 0.646386,1.02564 1.636327,2.413492 2.453667,3.333876 0.733489,0.825955 1.584517,1.566785 2.441563,2.261861 z" />
      <path
         style="fill:#bcff57;fill-opacity:0.603567;stroke:#000000;stroke-width:0"
         id="path26-4"
         d="m 31.094981,57.068083 c -0.05044,-0.09571 -0.164259,-0.301827 -0.177112,-0.387269 -0.07668,-0.5099 0.02561,-0.853473 0.16944,-1.363874 0.09557,-0.339159 0.219052,-0.669822 0.328033,-1.00491 0.114676,-0.352579 0.228621,-0.705395 0.342931,-1.058096 0.325985,-0.992618 0.614539,-1.998464 0.971307,-2.980919 0.628174,-1.729842 0.305862,-0.673168 0.888507,-2.425711 0.13584,-0.408601 0.258897,-0.821342 0.388344,-1.232015 0.315253,-1.030979 0.504922,-2.09134 0.654719,-3.156777 0.11522,-0.819498 0.1742,-1.245549 0.214019,-2.072848 0.01651,-0.343574 0.01388,-0.687801 0.02092,-1.031699 4.6e-4,-1.286784 -0.199404,-2.55441 -0.76335,-3.720176 -0.387516,-0.801057 -0.506233,-0.891945 -1.036612,-1.613305 -0.749567,-0.999542 -1.812626,-1.699844 -2.62155,-2.64157 -0.436275,-0.507901 -0.428222,-0.574579 -0.71721,-1.148544 -0.195458,-0.506921 -0.29724,-1.029089 -0.01762,-1.533337 0.323849,-0.583998 0.95175,-0.924244 1.490179,-1.270534 1.319809,-0.755159 2.636258,-1.516218 3.959423,-2.265473 0.181727,-0.102908 0.370949,-0.192007 0.554925,-0.290832 0.165787,-0.08905 0.657498,-0.366518 0.494314,-0.272775 -1.008726,0.579445 -2.012724,1.167416 -3.030989,1.729926 -0.128867,0.07119 0.243752,-0.165453 0.36075,-0.254828 0.10721,-0.0819 0.207596,-0.172374 0.311396,-0.258576 0.147327,-0.134031 0.420901,-0.36429 0.524992,-0.536662 0.256946,-0.425484 0.331328,-0.860764 0.392114,-1.355626 0.09248,-0.752782 0.07596,-1.504683 0.08266,-2.260904 -0.02895,-1.17255 -0.08065,-2.344333 -0.126267,-3.516299 -0.02143,-0.551282 -0.03667,-1.564337 -0.138546,-2.124254 -0.05678,-0.312144 -0.169387,-0.611509 -0.254074,-0.917264 -0.123897,-0.258609 -0.229699,-0.526695 -0.371694,-0.775828 -0.408084,-0.716024 -1.035282,-1.344185 -1.710146,-1.812059 -0.29022,-0.173814 -0.147433,-0.09927 -0.425995,-0.228055 0,0 3.559127,-2.306347 3.559127,-2.306347 v 0 c 0.268712,0.194172 0.131783,0.08829 0.408857,0.320155 0.847407,0.834494 1.423399,1.907377 1.823718,3.018446 0.08708,0.331179 0.208931,0.655118 0.261263,0.993528 0.05364,0.346849 0.04284,0.700717 0.05498,1.051474 0.05359,1.548858 0.04642,3.100263 0.134733,4.648187 0.04207,0.731913 0.09409,1.463253 0.131537,2.195411 0.0297,0.580504 0.146098,1.293628 -0.244486,1.794317 -0.08088,0.103681 -0.194925,0.176563 -0.292385,0.264842 -1.445817,1.307405 -2.366376,1.577873 -4.592273,2.857988 -0.151261,0.08699 -0.309276,0.161677 -0.46398,0.242376 -0.174569,0.09105 -0.692621,0.37423 -0.523818,0.272905 0.925335,-0.555466 1.862779,-1.090505 2.794169,-1.635756 -0.518669,0.303524 -1.444334,0.756743 -1.678482,1.356182 -0.142989,0.366098 -0.05789,0.532802 0.0053,0.911349 0.06983,0.179752 0.122422,0.367194 0.209516,0.539246 0.217515,0.429699 0.516109,0.796685 0.830953,1.157447 0.648598,0.743196 1.389428,1.398462 2.029475,2.149703 0.497976,0.650912 0.77087,0.936354 1.125331,1.677156 0.138159,0.288742 0.241341,0.593498 0.341112,0.89764 0.105226,0.320782 0.206122,0.644387 0.273278,0.975246 0.150226,0.740128 0.134014,1.258499 0.157409,2.010348 -0.01686,1.116427 0.0028,0.987877 -0.08497,2.102363 -0.02733,0.346895 -0.04611,0.695088 -0.09551,1.039534 -0.160324,1.117812 -0.51049,2.201468 -0.81355,3.284858 -1.310393,4.275564 0.550271,-1.762372 -0.780632,2.449387 -0.120155,0.380258 -0.223565,0.765674 -0.343698,1.145937 -0.315905,0.999926 -0.683527,1.983177 -1.001229,2.982541 -0.180125,0.640518 -0.375862,1.261032 -0.484425,1.918707 -0.04937,0.299077 -0.101696,0.671643 9.31e-4,0.978118 0.03416,0.101995 0.163152,0.223137 0.235188,0.299086 z" />
    </g>
  </g>
</svg>
