<?xml version="1.0" encoding="UTF-8" standalone="no"?>
<!-- Created with Inkscape (http://www.inkscape.org/) -->

<svg
   width="256"
   height="256"
   viewBox="0 0 67.733332 67.733333"
   version="1.1"
   id="svg1"
   inkscape:version="1.3 (0e150ed6c4, 2023-07-21)"
   sodipodi:docname="AntiMage.svg"
   inkscape:export-filename="..\Assets\Sprites\Units\AntiMage.png"
   inkscape:export-xdpi="96"
   inkscape:export-ydpi="96"
   xmlns:inkscape="http://www.inkscape.org/namespaces/inkscape"
   xmlns:sodipodi="http://sodipodi.sourceforge.net/DTD/sodipodi-0.dtd"
   xmlns="http://www.w3.org/2000/svg"
   xmlns:svg="http://www.w3.org/2000/svg">
  <sodipodi:namedview
     id="namedview1"
     pagecolor="#505050"
     bordercolor="#ffffff"
     borderopacity="1"
     inkscape:showpageshadow="0"
     inkscape:pageopacity="0"
     inkscape:pagecheckerboard="1"
     inkscape:deskcolor="#505050"
     inkscape:document-units="mm"
     inkscape:zoom="2.1442755"
     inkscape:cx="81.845825"
     inkscape:cy="166.72298"
     inkscape:window-width="1920"
     inkscape:window-height="1009"
     inkscape:window-x="-8"
     inkscape:window-y="-8"
     inkscape:window-maximized="1"
     inkscape:current-layer="layer1" />
  <defs
     id="defs1" />
  <g
     inkscape:label="Шар 1"
     inkscape:groupmode="layer"
     id="layer1">
    <ellipse
       style="fill:#c39e5b;fill-opacity:1;stroke:#01ffc8;stroke-width:0"
       id="path1-2"
       cx="52.869747"
       cy="28.940777"
       rx="4.750536"
       ry="5.768508" />
    <ellipse
       style="fill:#c39e5b;fill-opacity:1;stroke:#01ffc8;stroke-width:0"
       id="path1-2-8"
       cx="14.760446"
       cy="28.49291"
       rx="4.750536"
       ry="5.768508" />
    <path
       style="fill:#c9a76b;fill-opacity:1;stroke:#000000;stroke-width:0;stroke-dasharray:none;stroke-opacity:1"
       d="m 23.444204,45.901284 c 0,0 0.925429,0.431866 1.542382,2.652898 0.616953,2.221029 0.802038,6.663089 0.493562,7.218346 -0.308476,0.555257 -12.709226,0.987124 -16.5960285,2.529507 -3.8868024,1.54238 -4.3186693,0.987123 -5.9844415,3.454934 -1.6657725,2.467811 -7.0332612,17.027895 -7.5268235,18.940449 -0.4935622,1.912554 74.9597575,0 74.9597575,0 0,0 -2.529506,-18.015021 -4.68884,-20.667916 -2.159336,-2.652898 -2.035945,-2.159336 -4.44206,-2.652898 C 58.795596,56.883043 43.927035,58.425423 42.44635,56.327785 40.965662,54.230145 44.235512,45.16094 44.235512,45.16094 Z"
       id="path13" />
    <path
       d="m 42.347778,52.050335 c 0.009,-0.04952 0.0113,-0.09343 0.0207,-0.143144 0.1193,-0.633822 0.26566,-1.282752 0.42375,-1.915128 0.15809,-0.632376 0.32795,-1.248673 0.49351,-1.816944 0.16556,-0.56827 0.327,-1.088633 0.46871,-1.530139 0.28341,-0.883013 0.48782,-1.450041 0.48782,-1.450041 l -20.79149,0.740524 c 0,0 0.0576,0.02713 0.15399,0.102319 0.0964,0.07519 0.23179,0.198393 0.38602,0.391191 0.0771,0.0964 0.15905,0.210411 0.2434,0.344165 0.0844,0.133753 0.17111,0.287127 0.25787,0.463537 0.0867,0.17641 0.17351,0.375595 0.25786,0.599964 0.0844,0.224368 0.16628,0.474263 0.2434,0.751892 0.0771,0.277628 0.14733,0.589902 0.21084,0.925008 0.0635,0.335106 0.11985,0.692709 0.1695,1.061434 0.0889,0.660636 0.14781,1.351662 0.1912,2.013314 a 19.002144,23.074032 0 0 0 1.41748,0.802535 19.002144,23.074032 0 0 0 3.19929,1.04128 19.002144,23.074032 0 0 0 3.30006,0.350366 19.002144,23.074032 0 0 0 3.29954,-0.350366 19.002144,23.074032 0 0 0 3.19929,-1.04128 19.002144,23.074032 0 0 0 2.36729,-1.340487 z"
       style="fill:#ba9145;fill-opacity:1;stroke:#000000;stroke-width:0"
       id="path14" />
    <ellipse
       style="fill:#c9a76b;fill-opacity:1;stroke:#01ffc8;stroke-width:0"
       id="path1"
       cx="33.562229"
       cy="28.009653"
       rx="19.002144"
       ry="23.074032" />
    <path
       style="fill:#000000;fill-opacity:0.21176471;stroke:#ffffff;stroke-width:0;stroke-dasharray:none;stroke-opacity:1"
       d="m 19.480283,22.919794 c 0,0 -0.07712,0.354748 0,0.447291 0.07712,0.09254 1.69662,0.84831 1.897129,0.863734 0.20051,0.01543 2.544931,0.09254 2.807135,0.04627 0.262205,-0.04627 2.359844,-0.616952 2.544931,-0.771191 0.185084,-0.154238 0.416444,-0.817462 0.416444,-0.817462 z"
       id="path31" />
    <path
       style="fill:#000000;fill-opacity:0.211765;stroke:#ffffff;stroke-width:0;stroke-dasharray:none;stroke-opacity:1"
       d="m 47.712239,22.857016 c 0,0 0.07712,0.354748 0,0.447291 -0.07712,0.09254 -1.69662,0.84831 -1.897129,0.863734 -0.20051,0.01543 -2.544931,0.09254 -2.807135,0.04627 C 42.74577,24.168041 40.648131,23.597359 40.463044,23.44312 40.27796,23.288882 40.0466,22.625658 40.0466,22.625658 Z"
       id="path31-2" />
    <ellipse
       style="fill:#ffffff;fill-opacity:1;stroke:#01ffc8;stroke-width:0"
       id="path3"
       cx="23.448515"
       cy="20.921318"
       rx="4.9078293"
       ry="2.6779909" />
    <path
       d="m 11.599325,81.531761 c 0.3322,10e-4 0.61471,0.006 0.95343,0.007 2.01175,0.005 4.13549,0.002 6.33398,-0.007 3.86689,-0.0164 8.0014,-0.0588 12.13053,-0.108 l 3.84989,-3.85041 -13.06018,-13.06019 -11.50369,-6.64197 c -0.19722,0.049 -0.4041493,0.0966 -0.582909,0.14831 -0.30441,0.088 -0.58028,0.18007 -0.82321,0.27647 -0.48585,0.1928 -0.91779,0.35265 -1.30483,0.48989 -0.38704,0.13725 -0.72956,0.25177 -1.03611,0.35347 -0.30655,0.1017 -0.57729,0.19083 -0.82166,0.27699 -0.24437,0.0861 -0.46198,0.16931 -0.66249,0.25993 -0.20051,0.0906 -0.38366,0.18878 -0.55862,0.30386 -0.17497,0.11507 -0.3418,0.24715 -0.50953,0.40669 -0.16773,0.15954 -0.3364,0.3465 -0.51521,0.57051 -0.17882,0.224 -0.36798,0.48527 -0.5762,0.79375 -0.10411,0.15423 -0.22253,0.35574 -0.35346,0.59841 -0.12302,0.22799 -0.25894,0.49856 -0.40205,0.79427 l 3.27474,12.22096 z"
       style="fill:#000000;fill-opacity:0.211765;stroke:#ffffff;stroke-width:0"
       id="path29" />
    <path
       d="m 61.416955,57.406101 -15.10192,8.71885 -11.44788,11.44788 3.74396,3.74395 c 2.6536,-0.0403 5.36791,-0.0767 7.88634,-0.12144 4.41241,-0.0784 8.53291,-0.16093 12.06593,-0.23564 0.0886,-0.002 0.0599,-0.002 0.14779,-0.004 l 3.97909,-3.97908 3.961,-14.78308 c -0.0578,-0.17137 -0.11526,-0.36483 -0.17312,-0.52141 -0.13791,-0.37325 -0.27575,-0.70263 -0.41289,-0.98031 -0.13715,-0.27767 -0.2738,-0.5034 -0.40876,-0.66921 -0.53984,-0.66322 -0.93691,-1.13 -1.26659,-1.46451 -0.16484,-0.16725 -0.3127,-0.30153 -0.45321,-0.41082 -0.1405,-0.1093 -0.2738,-0.19349 -0.40876,-0.26097 -0.13495,-0.0675 -0.27191,-0.11787 -0.42012,-0.15968 -0.14822,-0.0418 -0.30756,-0.0752 -0.48783,-0.10749 -0.30856,-0.0553 -0.72587,-0.12189 -1.20303,-0.21342 z"
       style="fill:#000000;fill-opacity:0.211765;stroke:#ffffff;stroke-width:0"
       id="path28" />
    <path
       style="fill:#000000;fill-opacity:0.21176471;stroke:#ffffff;stroke-width:0;stroke-dasharray:none;stroke-opacity:1"
       d="m 39.885995,43.3872 c 0,0 0.0617,0.401021 -0.03085,0.539835 -0.09254,0.138813 -4.889351,2.221029 -5.845627,2.251876 -0.956278,0.03085 -6.246646,-1.696619 -6.385462,-1.804585 C 27.485242,44.26636 27.51609,43.849917 27.51609,43.849917 Z"
       id="path26" />
    <path
       style="fill:#000000;fill-opacity:0.212947;stroke:#ffffff;stroke-width:0;stroke-dasharray:none;stroke-opacity:1"
       d="m 29.861412,34.24574 0.965208,8.212434 c 0,0 1.014072,0.01459 1.052457,0.01091 0.198902,-0.01906 3.936527,0.186182 3.936527,0.186182 l 1.243959,-8.736712 c 0,0 -1.583888,2.229723 -3.519538,2.229723 -1.295561,0 -1.928313,-0.460712 -2.299126,-0.722462 C 30.870085,35.16406 29.861412,34.24574 29.861412,34.24574 Z"
       id="path24"
       sodipodi:nodetypes="ccsccssc" />
    <path
       d="m 23.208811,19.285415 a 3.0534509,1.6661366 0 0 0 -0.530329,0.0256 3.0534509,1.6661366 0 0 0 -0.514181,0.07498 3.0534509,1.6661366 0 0 0 -0.482529,0.122925 3.0534509,1.6661366 0 0 0 -0.436019,0.166542 3.0534509,1.6661366 0 0 0 -0.375946,0.205114 3.0534509,1.6661366 0 0 0 -0.305537,0.237917 3.0534509,1.6661366 0 0 0 -0.224793,0.263152 3.0534509,1.6661366 0 0 0 -0.138234,0.280813 3.0534509,1.6661366 0 0 0 -0.04586,0.289105 3.0534509,1.6661366 0 0 0 0.04586,0.289467 3.0534509,1.6661366 0 0 0 0.138234,0.280455 3.0534509,1.6661366 0 0 0 0.224793,0.263151 3.0534509,1.6661366 0 0 0 0.305537,0.237916 3.0534509,1.6661366 0 0 0 0.375946,0.205475 3.0534509,1.6661366 0 0 0 0.436019,0.166541 3.0534509,1.6661366 0 0 0 0.482529,0.122925 3.0534509,1.6661366 0 0 0 0.514181,0.07497 3.0534509,1.6661366 0 0 0 0.530329,0.02524 3.0534509,1.6661366 0 0 0 0.529684,-0.02524 3.0534509,1.6661366 0 0 0 0.51418,-0.07497 3.0534509,1.6661366 0 0 0 0.482528,-0.122925 3.0534509,1.6661366 0 0 0 0.43602,-0.166541 3.0534509,1.6661366 0 0 0 0.376591,-0.205475 3.0534509,1.6661366 0 0 0 0.304892,-0.237916 3.0534509,1.6661366 0 0 0 0.225438,-0.263151 3.0534509,1.6661366 0 0 0 0.137589,-0.280455 3.0534509,1.6661366 0 0 0 0.04651,-0.289467 3.0534509,1.6661366 0 0 0 -0.0065,-0.104537 3.0534509,1.6661366 0 0 0 -0.01809,-0.104175 3.0534509,1.6661366 0 0 0 -0.02971,-0.103463 3.0534509,1.6661366 0 0 0 -0.04199,-0.102012 3.0534509,1.6661366 0 0 0 -0.05361,-0.100575 3.0534509,1.6661366 0 0 0 -0.0646,-0.09841 3.0534509,1.6661366 0 0 0 -0.07623,-0.09625 3.0534509,1.6661366 0 0 0 -0.0872,-0.093 3.0534509,1.6661366 0 0 0 -0.09754,-0.09013 3.0534509,1.6661366 0 0 0 -0.107875,-0.08651 3.0534509,1.6661366 0 0 0 -0.117562,-0.08291 3.0534509,1.6661366 0 0 0 -0.127254,-0.07859 3.0534509,1.6661366 0 0 0 -0.135651,-0.0739 3.0534509,1.6661366 0 0 0 -0.143402,-0.06921 3.0534509,1.6661366 0 0 0 -0.1518,-0.06416 3.0534509,1.6661366 0 0 0 -0.158905,-0.05875 3.0534509,1.6661366 0 0 0 -0.164718,-0.05335 3.0534509,1.6661366 0 0 0 -0.171178,-0.04757 3.0534509,1.6661366 0 0 0 -0.1757,-0.04146 3.0534509,1.6661366 0 0 0 -0.180867,-0.03533 3.0534509,1.6661366 0 0 0 -0.184098,-0.0292 3.0534509,1.6661366 0 0 0 -0.187326,-0.02306 3.0534509,1.6661366 0 0 0 -0.189265,-0.01621 3.0534509,1.6661366 0 0 0 -0.191202,-0.01013 3.0534509,1.6661366 0 0 0 -0.191204,-0.0032 z"
       style="fill:#e000f2;fill-opacity:1;stroke:#00e5b3;stroke-width:0;stroke-opacity:1"
       id="path7" />
    <path
       d="m 23.191525,19.770506 a 1.3182882,1.2889928 0 0 0 -0.228963,0.0198 1.3182882,1.2889928 0 0 0 -0.221991,0.05801 1.3182882,1.2889928 0 0 0 -0.208325,0.0951 1.3182882,1.2889928 0 0 0 -0.188246,0.128845 1.3182882,1.2889928 0 0 0 -0.16231,0.158684 1.3182882,1.2889928 0 0 0 -0.131912,0.184064 1.3182882,1.2889928 0 0 0 -0.09705,0.203584 1.3182882,1.2889928 0 0 0 -0.05969,0.21725 1.3182882,1.2889928 0 0 0 -0.0198,0.223663 1.3182882,1.2889928 0 0 0 0.0198,0.223944 1.3182882,1.2889928 0 0 0 0.05969,0.216971 1.3182882,1.2889928 0 0 0 0.09705,0.203584 1.3182882,1.2889928 0 0 0 0.131912,0.184063 1.3182882,1.2889928 0 0 0 0.16231,0.158963 1.3182882,1.2889928 0 0 0 0.188246,0.128844 1.3182882,1.2889928 0 0 0 0.208325,0.0951 1.3182882,1.2889928 0 0 0 0.221991,0.05801 1.3182882,1.2889928 0 0 0 0.228963,0.01953 1.3182882,1.2889928 0 0 0 0.228685,-0.01953 1.3182882,1.2889928 0 0 0 0.22199,-0.05801 1.3182882,1.2889928 0 0 0 0.208326,-0.0951 1.3182882,1.2889928 0 0 0 0.188246,-0.128844 1.3182882,1.2889928 0 0 0 0.162588,-0.158963 1.3182882,1.2889928 0 0 0 0.131633,-0.184063 1.3182882,1.2889928 0 0 0 0.09732,-0.203584 1.3182882,1.2889928 0 0 0 0.0594,-0.216971 1.3182882,1.2889928 0 0 0 0.02009,-0.223944 1.3182882,1.2889928 0 0 0 -0.0028,-0.08087 1.3182882,1.2889928 0 0 0 -0.0077,-0.0806 1.3182882,1.2889928 0 0 0 -0.01282,-0.08004 1.3182882,1.2889928 0 0 0 -0.01813,-0.07892 1.3182882,1.2889928 0 0 0 -0.02315,-0.07781 1.3182882,1.2889928 0 0 0 -0.02789,-0.07614 1.3182882,1.2889928 0 0 0 -0.03291,-0.07446 1.3182882,1.2889928 0 0 0 -0.03765,-0.07195 1.3182882,1.2889928 0 0 0 -0.04211,-0.06972 1.3182882,1.2889928 0 0 0 -0.04657,-0.06694 1.3182882,1.2889928 0 0 0 -0.05075,-0.06414 1.3182882,1.2889928 0 0 0 -0.05494,-0.0608 1.3182882,1.2889928 0 0 0 -0.05856,-0.05718 1.3182882,1.2889928 0 0 0 -0.06191,-0.05355 1.3182882,1.2889928 0 0 0 -0.06554,-0.04964 1.3182882,1.2889928 0 0 0 -0.0686,-0.04545 1.3182882,1.2889928 0 0 0 -0.07111,-0.04127 1.3182882,1.2889928 0 0 0 -0.0739,-0.03681 1.3182882,1.2889928 0 0 0 -0.07586,-0.03207 1.3182882,1.2889928 0 0 0 -0.07809,-0.02733 1.3182882,1.2889928 0 0 0 -0.07949,-0.02259 1.3182882,1.2889928 0 0 0 -0.08087,-0.01785 1.3182882,1.2889928 0 0 0 -0.08171,-0.01255 1.3182882,1.2889928 0 0 0 -0.08255,-0.0078 1.3182882,1.2889928 0 0 0 -0.08255,-0.0025 z"
       style="fill:#000000;fill-opacity:1;stroke:#00e5b3;stroke-width:0;stroke-opacity:1"
       id="path7-1" />
    <ellipse
       style="fill:#ffffff;fill-opacity:1;stroke:#01ffc8;stroke-width:0"
       id="path4"
       cx="43.799648"
       cy="20.936663"
       rx="4.7333283"
       ry="2.8104136" />
    <path
       d="m 43.847465,19.221224 a 3.011813,1.7485246 0 0 0 -0.523097,0.02687 3.011813,1.7485246 0 0 0 -0.507169,0.07869 3.011813,1.7485246 0 0 0 -0.475949,0.129002 3.011813,1.7485246 0 0 0 -0.430073,0.174777 3.011813,1.7485246 0 0 0 -0.37082,0.215255 3.011813,1.7485246 0 0 0 -0.301371,0.249684 3.011813,1.7485246 0 0 0 -0.221727,0.276163 3.011813,1.7485246 0 0 0 -0.136349,0.294699 3.011813,1.7485246 0 0 0 -0.04524,0.303402 3.011813,1.7485246 0 0 0 0.04524,0.30378 3.011813,1.7485246 0 0 0 0.136349,0.294323 3.011813,1.7485246 0 0 0 0.221727,0.276163 3.011813,1.7485246 0 0 0 0.301371,0.249681 3.011813,1.7485246 0 0 0 0.37082,0.215635 3.011813,1.7485246 0 0 0 0.430073,0.174777 3.011813,1.7485246 0 0 0 0.475949,0.129002 3.011813,1.7485246 0 0 0 0.507169,0.07869 3.011813,1.7485246 0 0 0 0.523097,0.02647 3.011813,1.7485246 0 0 0 0.522461,-0.02647 3.011813,1.7485246 0 0 0 0.507169,-0.07869 3.011813,1.7485246 0 0 0 0.475948,-0.129002 3.011813,1.7485246 0 0 0 0.430075,-0.174777 3.011813,1.7485246 0 0 0 0.371456,-0.215635 3.011813,1.7485246 0 0 0 0.300733,-0.249681 3.011813,1.7485246 0 0 0 0.222365,-0.276163 3.011813,1.7485246 0 0 0 0.135712,-0.294323 3.011813,1.7485246 0 0 0 0.04588,-0.30378 3.011813,1.7485246 0 0 0 -0.0064,-0.109708 3.011813,1.7485246 0 0 0 -0.01784,-0.109326 3.011813,1.7485246 0 0 0 -0.02931,-0.108574 3.011813,1.7485246 0 0 0 -0.04142,-0.107058 3.011813,1.7485246 0 0 0 -0.05288,-0.105553 3.011813,1.7485246 0 0 0 -0.06372,-0.103272 3.011813,1.7485246 0 0 0 -0.07519,-0.101004 3.011813,1.7485246 0 0 0 -0.08601,-0.0976 3.011813,1.7485246 0 0 0 -0.09621,-0.09458 3.011813,1.7485246 0 0 0 -0.106404,-0.09079 3.011813,1.7485246 0 0 0 -0.11596,-0.08701 3.011813,1.7485246 0 0 0 -0.125518,-0.08247 3.011813,1.7485246 0 0 0 -0.133802,-0.07755 3.011813,1.7485246 0 0 0 -0.141445,-0.07263 3.011813,1.7485246 0 0 0 -0.14973,-0.06733 3.011813,1.7485246 0 0 0 -0.156738,-0.06166 3.011813,1.7485246 0 0 0 -0.162473,-0.05599 3.011813,1.7485246 0 0 0 -0.168843,-0.04994 3.011813,1.7485246 0 0 0 -0.173304,-0.04351 3.011813,1.7485246 0 0 0 -0.178402,-0.03708 3.011813,1.7485246 0 0 0 -0.181587,-0.03064 3.011813,1.7485246 0 0 0 -0.184771,-0.02421 3.011813,1.7485246 0 0 0 -0.186685,-0.01703 3.011813,1.7485246 0 0 0 -0.188595,-0.0106 3.011813,1.7485246 0 0 0 -0.188596,-0.0035 z"
       style="fill:#e000f2;fill-opacity:1;stroke:#00e5b3;stroke-width:0;stroke-opacity:1"
       id="path7-0" />
    <path
       d="m 43.883397,19.68494 a 1.3003116,1.2714157 0 0 0 -0.22584,0.01953 1.3003116,1.2714157 0 0 0 -0.218964,0.05722 1.3003116,1.2714157 0 0 0 -0.205484,0.0938 1.3003116,1.2714157 0 0 0 -0.185679,0.127088 1.3003116,1.2714157 0 0 0 -0.160097,0.15652 1.3003116,1.2714157 0 0 0 -0.130113,0.181554 1.3003116,1.2714157 0 0 0 -0.09573,0.200807 1.3003116,1.2714157 0 0 0 -0.05887,0.214288 1.3003116,1.2714157 0 0 0 -0.01953,0.220614 1.3003116,1.2714157 0 0 0 0.01953,0.22089 1.3003116,1.2714157 0 0 0 0.05887,0.214012 1.3003116,1.2714157 0 0 0 0.09573,0.200808 1.3003116,1.2714157 0 0 0 0.130113,0.181552 1.3003116,1.2714157 0 0 0 0.160097,0.156796 1.3003116,1.2714157 0 0 0 0.185679,0.127087 1.3003116,1.2714157 0 0 0 0.205484,0.0938 1.3003116,1.2714157 0 0 0 0.218964,0.05722 1.3003116,1.2714157 0 0 0 0.22584,0.01926 1.3003116,1.2714157 0 0 0 0.225567,-0.01926 1.3003116,1.2714157 0 0 0 0.218963,-0.05722 1.3003116,1.2714157 0 0 0 0.205485,-0.0938 1.3003116,1.2714157 0 0 0 0.185679,-0.127087 1.3003116,1.2714157 0 0 0 0.160371,-0.156796 1.3003116,1.2714157 0 0 0 0.129839,-0.181552 1.3003116,1.2714157 0 0 0 0.096,-0.200808 1.3003116,1.2714157 0 0 0 0.05859,-0.214012 1.3003116,1.2714157 0 0 0 0.01981,-0.22089 1.3003116,1.2714157 0 0 0 -0.0027,-0.07977 1.3003116,1.2714157 0 0 0 -0.0076,-0.0795 1.3003116,1.2714157 0 0 0 -0.01265,-0.07895 1.3003116,1.2714157 0 0 0 -0.01788,-0.07785 1.3003116,1.2714157 0 0 0 -0.02283,-0.07675 1.3003116,1.2714157 0 0 0 -0.02751,-0.0751 1.3003116,1.2714157 0 0 0 -0.03246,-0.07345 1.3003116,1.2714157 0 0 0 -0.03714,-0.07097 1.3003116,1.2714157 0 0 0 -0.04154,-0.06877 1.3003116,1.2714157 0 0 0 -0.04594,-0.06602 1.3003116,1.2714157 0 0 0 -0.05006,-0.06326 1.3003116,1.2714157 0 0 0 -0.05419,-0.05997 1.3003116,1.2714157 0 0 0 -0.05776,-0.0564 1.3003116,1.2714157 0 0 0 -0.06107,-0.05282 1.3003116,1.2714157 0 0 0 -0.06464,-0.04896 1.3003116,1.2714157 0 0 0 -0.06766,-0.04483 1.3003116,1.2714157 0 0 0 -0.07014,-0.04071 1.3003116,1.2714157 0 0 0 -0.07289,-0.03631 1.3003116,1.2714157 0 0 0 -0.07483,-0.03164 1.3003116,1.2714157 0 0 0 -0.07702,-0.02695 1.3003116,1.2714157 0 0 0 -0.0784,-0.02228 1.3003116,1.2714157 0 0 0 -0.07977,-0.01761 1.3003116,1.2714157 0 0 0 -0.0806,-0.01238 1.3003116,1.2714157 0 0 0 -0.08142,-0.0076 1.3003116,1.2714157 0 0 0 -0.08142,-0.0025 z"
       style="fill:#000000;fill-opacity:1;stroke:#00e5b3;stroke-width:0;stroke-opacity:1"
       id="path7-1-9" />
    <path
       style="fill:#ff0707;fill-opacity:1;stroke:#01ffc8;stroke-width:0"
       d="m 34.084924,7.7291358 c 0,0 -3.228261,1.5705053 -3.141009,4.6242652 0.08725,3.05376 2.355757,8.201527 2.355757,8.201527 0,0 3.490011,-6.456521 3.402762,-8.376028 -0.08725,-1.919506 -2.61751,-4.4497642 -2.61751,-4.4497642 z"
       id="path5" />
    <path
       style="fill:#ff0707;fill-opacity:1;stroke:#01ffc8;stroke-width:0"
       d="m 14.483549,29.141599 c 0,0 1.657756,0.1745 2.006757,-1.483257 0.349001,-1.657755 1.134254,-3.751761 1.134254,-3.751761 0,0 -0.436252,2.792009 0.26175,3.839013 0.698003,1.047003 2.87926,1.657754 4.188014,0.785251 1.308755,-0.872503 2.96651,-4.188013 2.96651,-4.188013 0,0 -0.436251,3.839012 0.785253,4.275265 1.221504,0.43625 4.100763,0.523502 4.100763,0.523502 0,0 -3.577261,0.785251 -3.751762,1.919504 -0.174501,1.134256 -0.698002,4.537017 -0.698002,4.537017 0,0 -2.268508,-4.275265 -3.839013,-4.275265 -1.570505,0 -3.141011,5.322269 -3.141011,5.322269 0,0 -0.436251,-4.275265 -1.570505,-4.362516 -1.134254,-0.08725 -2.006757,0.610753 -2.006757,0.610753 0,0 -0.349001,-3.22826 -0.436251,-3.751762 z"
       id="path6" />
    <path
       style="fill:#ff0707;fill-opacity:1;stroke:#01ffc8;stroke-width:0"
       d="m 52.596599,29.177255 c 0,0 -1.657756,0.1745 -2.006757,-1.483257 -0.349001,-1.657755 -1.134254,-3.751761 -1.134254,-3.751761 0,0 0.436252,2.792009 -0.26175,3.839013 -0.698003,1.047003 -2.87926,1.657754 -4.188014,0.785251 -1.308755,-0.872503 -2.96651,-4.188013 -2.96651,-4.188013 0,0 0.436251,3.839012 -0.785253,4.275265 -1.221504,0.43625 -4.100763,0.523502 -4.100763,0.523502 0,0 3.577261,0.785251 3.751762,1.919504 0.174501,1.134256 0.698002,4.537017 0.698002,4.537017 0,0 2.268508,-4.275265 3.839013,-4.275265 1.570505,0 3.141011,5.322269 3.141011,5.322269 0,0 0.436251,-4.275265 1.570505,-4.362516 1.134254,-0.08725 2.006757,0.610753 2.006757,0.610753 0,0 0.349001,-3.22826 0.436251,-3.751762 z"
       id="path6-2" />
    <path
       style="fill:#f20000;fill-opacity:1;stroke:#00e5b3;stroke-width:0;stroke-opacity:1"
       d="m 27.516092,43.865339 c 0,0 2.961373,-1.665772 4.565449,-1.665772 1.604079,0 7.95869,1.17221 7.95869,1.17221 0,0 -4.750535,1.665772 -6.354611,1.789163 -1.604079,0.123391 -6.169528,-1.295601 -6.169528,-1.295601 z"
       id="path8" />
    <path
       style="fill:#f20000;fill-opacity:1;stroke:#000000;stroke-width:0.1;stroke-opacity:1;stroke-dasharray:none"
       d="m 27.500667,43.849917 12.524142,-0.47814"
       id="path9" />
    <path
       style="fill:none;fill-opacity:1;stroke:#000000;stroke-width:0.4;stroke-dasharray:none;stroke-opacity:1"
       d="m 32.252669,24.604583 c 0,0 -0.479877,7.067272 -0.785254,7.678026 -0.305374,0.610751 -1.701379,0.828876 -1.396002,1.832255 0.305374,1.00338 1.745003,1.483255 1.745003,1.483255"
       id="path10" />
    <path
       style="fill:none;fill-opacity:1;stroke:#000000;stroke-width:0.4;stroke-dasharray:none;stroke-opacity:1"
       d="m 34.620788,24.619799 c 0,0 0.479877,7.067272 0.785254,7.678026 0.305374,0.610751 1.701379,0.828876 1.396002,1.832255 -0.305374,1.00338 -1.745003,1.483255 -1.745003,1.483255"
       id="path10-2" />
    <circle
       style="fill:#000000;fill-opacity:1;stroke:#000000;stroke-width:0;stroke-dasharray:none;stroke-opacity:1"
       id="path11"
       cx="34.785603"
       cy="35.67992"
       r="0.39807948" />
    <circle
       style="fill:#000000;fill-opacity:1;stroke:#000000;stroke-width:0;stroke-dasharray:none;stroke-opacity:1"
       id="path11-0"
       cx="32.067345"
       cy="35.677746"
       r="0.39807948" />
    <path
       style="fill:#5f5f5f;fill-opacity:1;stroke:#000000;stroke-width:0;stroke-dasharray:none;stroke-opacity:1"
       d="m 34.41054,35.521055 c 0,0 1.54238,-0.462716 1.758315,0.154236 0.215931,0.616953 -1.588654,4.411213 -1.588654,4.411213 0,0 0.802037,-3.300696 0.601528,-3.747987 -0.20051,-0.447291 -0.771189,-0.817462 -0.771189,-0.817462 z"
       id="path12" />
    <path
       style="fill:#5f5f5f;fill-opacity:1;stroke:#000000;stroke-width:0;stroke-dasharray:none;stroke-opacity:1"
       d="m 32.466785,35.579105 c 0,0 -1.54238,-0.462716 -1.758315,0.154236 -0.215931,0.616953 1.588654,4.411213 1.588654,4.411213 0,0 -0.802037,-3.300696 -0.601528,-3.747987 0.20051,-0.447291 0.771189,-0.817462 0.771189,-0.817462 z"
       id="path12-9" />
    <path
       style="fill:none;fill-opacity:1;stroke:#000000;stroke-width:0.4;stroke-dasharray:none;stroke-opacity:1"
       d="m 32.331685,35.854416 c 0,0 0.834333,0.22358 1.096082,0.22358 0.261753,0 1.17788,-0.196313 1.17788,-0.196313"
       id="path15"
       sodipodi:nodetypes="csc" />
    <path
       style="fill:#565656;fill-opacity:1;stroke:#ffffff;stroke-width:0;stroke-dasharray:none;stroke-opacity:1"
       d="M 38.352483,86.191512 9.5598873,57.398916 3.1230802,33.376425 25.935173,46.546991 58.858861,79.47068 Z"
       id="path16" />
    <path
       style="fill:#737373;fill-opacity:1;stroke:#ffffff;stroke-width:0;stroke-dasharray:none;stroke-opacity:1"
       d="M 32.070154,88.098715 60.86275,59.306119 67.299557,35.283628 44.487464,48.454194 11.563775,81.377883 Z"
       id="path16-0" />
    <path
       style="fill:#ff0707;fill-opacity:1;stroke:#ffffff;stroke-width:0;stroke-dasharray:none;stroke-opacity:1"
       d="m 63.387337,57.825131 -5.332084,8.497287 8.452252,-4.256974 c 0,0 -0.255892,-2.372794 -3.120168,-4.240313 z"
       id="path17" />
    <path
       style="fill:#ff0707;fill-opacity:1;stroke:#ffffff;stroke-width:0;stroke-dasharray:none;stroke-opacity:1"
       d="m 5.8334461,59.393362 4.1583603,9.129241 -7.8131998,-5.340066 c 0,0 0.5682394,-2.317916 3.6548395,-3.789175 z"
       id="path17-2" />
    <circle
       style="fill:#000000;fill-opacity:1;stroke:#ffffff;stroke-width:0;stroke-dasharray:none;stroke-opacity:1"
       id="path19"
       cx="54.251354"
       cy="34.06543"
       r="0.13688645" />
    <path
       style="fill:#5f5f5f;fill-opacity:1;stroke:#ffffff;stroke-width:0;stroke-dasharray:none;stroke-opacity:1"
       d="m 54.378746,34.005803 c 0,0 -1.505069,0.152685 -1.505069,1.068816 0,0.916128 4.078951,3.72995 4.078951,3.72995 0,0 -1.265129,-3.533637 -1.941319,-3.686326 -0.676188,-0.152688 -1.505067,0.06544 -1.330566,-0.283564 0.174501,-0.349002 0.698003,-0.828876 0.698003,-0.828876 z"
       id="path18" />
    <circle
       style="fill:#000000;fill-opacity:1;stroke:#ffffff;stroke-width:0;stroke-dasharray:none;stroke-opacity:1"
       id="path19-1"
       cx="57.29961"
       cy="29.383472"
       r="0.13688645" />
    <path
       style="fill:#5f5f5f;fill-opacity:1;stroke:#ffffff;stroke-width:0;stroke-dasharray:none;stroke-opacity:1"
       d="m 57.427002,29.323845 c 0,0 -1.505069,0.152685 -1.505069,1.068816 0,0.916128 4.078951,3.72995 4.078951,3.72995 0,0 -1.265129,-3.533637 -1.941319,-3.686326 -0.676188,-0.152688 -1.505067,0.06544 -1.330566,-0.283564 0.174501,-0.349002 0.698003,-0.828876 0.698003,-0.828876 z"
       id="path18-9" />
    <path
       d="m 54.124346,42.877067 c 0.0845,0.07775 0.15559,0.152179 0.24546,0.230993 0.239,0.209605 0.49386,0.420793 0.74879,0.625285 0.50987,0.408986 1.0201,0.789525 1.4025,1.067635 0.3824,0.27811 0.63717,0.454236 0.63717,0.454236 0,0 -0.0791,-0.220824 -0.20826,-0.554488 -0.12917,-0.333664 -0.30861,-0.780202 -0.50901,-1.231449 -0.1002,-0.225624 -0.2055,-0.452639 -0.31264,-0.667143 -0.10715,-0.214504 -0.21613,-0.416871 -0.32298,-0.593246 -0.0523,-0.08625 -0.10104,-0.14213 -0.15193,-0.214457 z"
       style="fill:#5f5f5f;stroke:#ffffff;stroke-width:0;fill-opacity:1"
       id="path23" />
    <path
       d="m 59.281136,39.899987 c 0.0881,0.06507 0.20934,0.162019 0.28783,0.219109 0.38241,0.27811 0.63769,0.453719 0.63769,0.453719 0,0 -0.0791,-0.220825 -0.20825,-0.554488 -0.0451,-0.116501 -0.12169,-0.290542 -0.17777,-0.429948 z"
       style="fill:#5f5f5f;stroke:#ffffff;stroke-width:0;fill-opacity:1"
       id="path22" />
    <circle
       style="fill:#000000;fill-opacity:1;stroke:#ffffff;stroke-width:0;stroke-dasharray:none;stroke-opacity:1"
       id="path19-1-4"
       cx="54.457874"
       cy="23.877865"
       r="0.13688645" />
    <path
       style="fill:#5f5f5f;fill-opacity:1;stroke:#ffffff;stroke-width:0;stroke-dasharray:none;stroke-opacity:1"
       d="m 54.585268,23.818238 c 0,0 -1.505069,0.152685 -1.505069,1.068816 0,0.916128 4.078951,3.72995 4.078951,3.72995 0,0 -1.265129,-3.533637 -1.941319,-3.686326 -0.676188,-0.152688 -1.505067,0.06544 -1.330566,-0.283564 0.174501,-0.349002 0.698003,-0.828876 0.698003,-0.828876 z"
       id="path18-9-7" />
    <circle
       style="fill:#000000;fill-opacity:1;stroke:#ffffff;stroke-width:0;stroke-dasharray:none;stroke-opacity:1"
       id="path19-3"
       cx="-13.364444"
       cy="33.601875"
       r="0.13688645"
       transform="scale(-1,1)" />
    <path
       style="fill:#5f5f5f;fill-opacity:1;stroke:#ffffff;stroke-width:0;stroke-dasharray:none;stroke-opacity:1"
       d="m 13.237054,33.542248 c 0,0 1.505069,0.152685 1.505069,1.068816 0,0.916128 -4.078952,3.72995 -4.078952,3.72995 0,0 1.26513,-3.533637 1.94132,-3.686326 0.676188,-0.152688 1.505067,0.06544 1.330566,-0.283564 -0.174501,-0.349002 -0.698003,-0.828876 -0.698003,-0.828876 z"
       id="path18-2" />
    <circle
       style="fill:#000000;fill-opacity:1;stroke:#ffffff;stroke-width:0;stroke-dasharray:none;stroke-opacity:1"
       id="path19-34"
       cx="-13.372394"
       cy="23.343245"
       r="0.13688645"
       transform="scale(-1,1)" />
    <path
       style="fill:#5f5f5f;fill-opacity:1;stroke:#ffffff;stroke-width:0;stroke-dasharray:none;stroke-opacity:1"
       d="m 13.245002,23.283619 c 0,0 1.505069,0.152685 1.505069,1.068816 0,0.916128 -4.078951,3.72995 -4.078951,3.72995 0,0 1.265129,-3.533637 1.941319,-3.686326 0.676188,-0.152688 1.505067,0.06544 1.330566,-0.283564 -0.174501,-0.349002 -0.698003,-0.828876 -0.698003,-0.828876 z"
       id="path18-3" />
    <circle
       style="fill:#000000;fill-opacity:1;stroke:#ffffff;stroke-width:0;stroke-dasharray:none;stroke-opacity:1"
       id="path19-34-0"
       cx="-10.211737"
       cy="28.627562"
       r="0.13688645"
       transform="scale(-1,1)" />
    <path
       style="fill:#5f5f5f;fill-opacity:1;stroke:#ffffff;stroke-width:0;stroke-dasharray:none;stroke-opacity:1"
       d="m 10.084345,28.567935 c 0,0 1.505069,0.152685 1.505069,1.068816 0,0.916128 -4.0789513,3.72995 -4.0789513,3.72995 0,0 1.265129,-3.533637 1.941319,-3.686326 0.6761883,-0.152688 1.5050673,0.06544 1.3305663,-0.283564 -0.174501,-0.349002 -0.698003,-0.828876 -0.698003,-0.828876 z"
       id="path18-3-0" />
    <path
       d="m 14.246022,39.806249 c -0.002,0.0012 -0.002,0.0035 -0.005,0.0047 -0.0637,0.03102 -0.17199,0.04139 -0.30696,0.04548 -0.13496,0.0041 -0.29656,0.0023 -0.46663,0.0088 -0.17007,0.0065 -0.34876,0.02126 -0.5178,0.05943 -0.0423,0.0095 -0.0869,0.03239 -0.13333,0.06666 -0.0464,0.03427 -0.0945,0.07977 -0.14417,0.135392 -0.0993,0.111236 -0.20425,0.261841 -0.3111,0.438216 -0.10684,0.176375 -0.21583,0.378742 -0.32297,0.593246 -0.10715,0.214504 -0.21245,0.441519 -0.31265,0.667143 -0.2004,0.451247 -0.37984,0.897268 -0.50901,1.230932 -0.12917,0.333664 -0.20826,0.555005 -0.20826,0.555005 0,0 0.25477,-0.176126 0.63717,-0.454236 0.38241,-0.27811 0.89263,-0.658649 1.4025,-1.067635 0.25494,-0.204492 0.50979,-0.41568 0.74879,-0.625285 0.239,-0.209605 0.46199,-0.417603 0.65319,-0.613916 0.1912,-0.196313 0.35046,-0.381086 0.46199,-0.545703 0.0207,-0.0306 0.0307,-0.05665 0.0481,-0.08578 z"
       style="fill:#444444;stroke:#ffffff;stroke-width:0;fill-opacity:1"
       id="path21" />
    <path
       d="m 8.6908123,36.598693 c -0.0392,0.08485 -0.08,0.166942 -0.11783,0.252181 -0.2004,0.451248 -0.37984,0.897786 -0.50901,1.23145 -0.12917,0.333664 -0.20826,0.554488 -0.20826,0.554488 0,0 0.25529,-0.176126 0.63769,-0.454236 0.346,-0.251632 0.80838,-0.600805 1.26866,-0.965316 z"
       style="fill:#444444;stroke:#ffffff;stroke-width:0;fill-opacity:1"
       id="path20" />
    <path
       style="fill:#000000;fill-opacity:1;stroke:#ffffff;stroke-width:0;stroke-dasharray:none;stroke-opacity:1"
       d="m 19.544065,17.580934 c 0,0 6.347459,-0.196313 7.023649,-0.1745 0.676191,0.02181 2.552071,-0.654378 2.552071,-0.654378 0,0 -2.37757,-0.894315 -3.511824,-1.003378 -1.134254,-0.109063 -4.58064,0.04363 -5.191393,0.261751 -0.610752,0.218126 -0.872503,1.570505 -0.872503,1.570505 z"
       id="path25" />
    <path
       style="fill:#000000;fill-opacity:1;stroke:#ffffff;stroke-width:0;stroke-dasharray:none;stroke-opacity:1"
       d="m 48.294415,17.490107 c 0,0 -6.347459,-0.196313 -7.023649,-0.1745 -0.676191,0.02181 -2.552071,-0.654378 -2.552071,-0.654378 0,0 2.37757,-0.894315 3.511824,-1.003378 1.134254,-0.109063 4.58064,0.04363 5.191393,0.261751 0.610752,0.218126 0.872503,1.570505 0.872503,1.570505 z"
       id="path25-4" />
    <path
       style="fill:#000000;fill-opacity:0.211765;stroke:#ffffff;stroke-width:0;stroke-dasharray:none;stroke-opacity:1"
       d="m 38.744633,16.626876 c 0,0 -0.154239,0.493563 0.03085,0.678648 0.185084,0.185086 2.128485,0.647801 2.282724,0.647801 0.154239,0 -0.03085,0 0.185084,0 0.215935,0 6.971567,0.308476 7.033263,0.09254 0.0617,-0.215934 -0.03085,-0.678648 -0.03085,-0.678648 z"
       id="path27" />
    <path
       style="fill:#000000;fill-opacity:0.211765;stroke:#ffffff;stroke-width:0;stroke-dasharray:none;stroke-opacity:1"
       d="m 29.123853,16.755153 c 0,0 0.154239,0.493563 -0.03085,0.678648 -0.185084,0.185086 -2.128485,0.647801 -2.282724,0.647801 -0.154239,0 0.03085,0 -0.185084,0 -0.215935,0 -6.971567,0.308476 -7.033263,0.09254 -0.0617,-0.215934 0.03085,-0.678648 0.03085,-0.678648 z"
       id="path27-4" />
    <path
       style="fill:#000000;fill-opacity:1;stroke:#ffffff;stroke-width:0;stroke-dasharray:none;stroke-opacity:1"
       d="m 40.047883,22.641451 c 0,0 0.196316,0.479877 0.545317,0.654377 0.348999,0.174501 1.832255,0.67619 2.421194,0.719815 0.588939,0.04362 2.028568,0.02181 2.704759,-0.08725 0.67619,-0.109063 1.875882,-0.807065 1.984944,-1.003379 0.109063,-0.196313 0.130876,-0.741627 0.130876,-0.741627 0,0 -1.87588,1.199692 -2.246694,1.286942 -0.370816,0.08725 -2.159447,0.196313 -2.399384,0.152688 -0.239938,-0.04363 -1.483254,-0.218126 -1.832256,-0.327189 -0.349001,-0.109063 -1.308756,-0.654377 -1.308756,-0.654377 z"
       id="path30" />
    <path
       style="fill:#000000;fill-opacity:1;stroke:#ffffff;stroke-width:0;stroke-dasharray:none;stroke-opacity:1"
       d="m 27.152777,22.662556 c 0,0 -0.196316,0.479877 -0.545317,0.654377 -0.348999,0.174501 -1.832255,0.67619 -2.421194,0.719815 -0.588939,0.04362 -2.028568,0.02181 -2.704759,-0.08725 -0.67619,-0.109063 -1.875882,-0.807065 -1.984944,-1.003379 -0.109063,-0.196313 -0.130876,-0.741627 -0.130876,-0.741627 0,0 1.87588,1.199692 2.246694,1.286942 0.370816,0.08725 2.159447,0.196313 2.399384,0.152688 0.239938,-0.04363 1.483254,-0.218126 1.832256,-0.327189 0.349001,-0.109063 1.308756,-0.654377 1.308756,-0.654377 z"
       id="path30-6" />
  </g>
</svg>
