<?xml version="1.0" encoding="UTF-8" standalone="no"?>
<!-- Created with Inkscape (http://www.inkscape.org/) -->

<svg
   width="256"
   height="256"
   viewBox="0 0 67.733332 67.733333"
   version="1.1"
   id="svg1"
   xml:space="preserve"
   inkscape:version="1.3 (0e150ed6c4, 2023-07-21)"
   sodipodi:docname="Assassin.svg"
   inkscape:export-filename="..\Assets\Sprites\Units\Assassin.png"
   inkscape:export-xdpi="96"
   inkscape:export-ydpi="96"
   xmlns:inkscape="http://www.inkscape.org/namespaces/inkscape"
   xmlns:sodipodi="http://sodipodi.sourceforge.net/DTD/sodipodi-0.dtd"
   xmlns="http://www.w3.org/2000/svg"
   xmlns:svg="http://www.w3.org/2000/svg"><sodipodi:namedview
     id="namedview1"
     pagecolor="#505050"
     bordercolor="#ffffff"
     borderopacity="1"
     inkscape:showpageshadow="0"
     inkscape:pageopacity="0"
     inkscape:pagecheckerboard="1"
     inkscape:deskcolor="#505050"
     inkscape:document-units="mm"
     inkscape:zoom="1.4142136"
     inkscape:cx="70.357124"
     inkscape:cy="187.02974"
     inkscape:window-width="1920"
     inkscape:window-height="1009"
     inkscape:window-x="-8"
     inkscape:window-y="-8"
     inkscape:window-maximized="1"
     inkscape:current-layer="layer1" /><defs
     id="defs1" /><g
     inkscape:label="Шар 1"
     inkscape:groupmode="layer"
     id="layer1"><path
       style="fill:#301111;fill-opacity:1;stroke:#000000;stroke-width:0;stroke-dasharray:none;stroke-opacity:1"
       d="m 50.096562,40.965662 c -2.961372,-2.652898 1.048819,-5.244097 -8.143777,-5.552575 -9.192596,-0.308475 -23.937765,5.552575 -25.171671,7.896995 -1.233905,2.34442 -1.789162,13.387874 3.084764,14.436693 4.873927,1.048821 23.197424,-0.987123 27.269312,-4.010192 4.071887,-3.023068 2.961372,-12.770921 2.961372,-12.770921 z"
       id="path13" /><path
       style="fill:#452d2d;fill-opacity:1;stroke:#000000;stroke-width:0;stroke-dasharray:none;stroke-opacity:1"
       d="m 20.297745,42.199567 c 1.974249,5.49088 3.640021,10.611588 0.925429,10.920064 -2.714592,0.308477 -12.3390545,0 -13.7580458,2.714593 -1.4189914,2.71459 9.6861578,13.079396 19.1872288,13.758044 9.501074,0.678649 31.156113,-5.120708 31.711371,-11.845493 0.55526,-6.724785 -1.17221,-10.364806 -4.442058,-10.796672 -3.269851,-0.431866 -5.614271,1.110514 -8.143777,0.740344 -2.529507,-0.370171 -5.244097,-4.873927 -5.244097,-6.169528 0,-1.295601 0.0617,-2.467811 0.0617,-2.467811 z"
       id="path12" /><path
       style="fill:#452d2d;fill-opacity:1;stroke:#000000;stroke-width:0;stroke-dasharray:none;stroke-opacity:1"
       d="m 19.742488,53.181326 c 0,0 -2.344421,7.896995 2.34442,16.657725 4.68884,8.760727 24.061156,9.747853 28.009654,5.675963 3.948499,-4.071887 3.578326,-22.58047 1.97425,-26.405575 -1.604079,-3.825108 -21.099785,1.480685 -25.665235,2.71459 -4.56545,1.233906 -6.663089,1.357297 -6.663089,1.357297 z"
       id="path11" /><ellipse
       style="fill:#b4dfe0;fill-opacity:1;stroke:#000000;stroke-width:0;stroke-dasharray:none;stroke-opacity:1"
       id="path1"
       cx="29.852442"
       cy="28.18955"
       rx="15.268801"
       ry="19.805817" /><path
       style="fill:#ffffff;fill-opacity:1;stroke:#000000;stroke-width:0.2;stroke-dasharray:none;stroke-opacity:1"
       d="m 27.190596,23.252313 c 0,0 0.916128,0.872503 -1.570506,1.396005 -2.486633,0.523499 -4.66789,0.218125 -5.496769,-0.479878 -0.828876,-0.698002 -0.479875,-2.006756 0.610754,-2.443008 1.090628,-0.436252 4.087076,0.300991 4.69783,0.649991 0.610751,0.349002 1.758691,0.87689 1.758691,0.87689 z"
       id="path2-9"
       sodipodi:nodetypes="cssssc" /><path
       style="fill:#ffffff;fill-opacity:1;stroke:#000000;stroke-width:0.2;stroke-dasharray:none;stroke-opacity:1"
       d="m 33.760023,23.098412 c 0,0 -0.916128,0.872503 1.570506,1.396005 2.486633,0.523499 4.66789,0.218125 5.496769,-0.479878 0.828876,-0.698002 0.479875,-2.006756 -0.610754,-2.443008 -1.090628,-0.436252 -4.087076,0.300991 -4.69783,0.649991 -0.610751,0.349002 -1.758691,0.87689 -1.758691,0.87689 z"
       id="path2-9-5"
       sodipodi:nodetypes="cssssc" /><circle
       style="fill:#000000;fill-opacity:1;stroke:#000000;stroke-width:0;stroke-dasharray:none;stroke-opacity:1"
       id="path6"
       cx="22.183386"
       cy="23.339455"
       r="1.177879" /><circle
       style="fill:#000000;fill-opacity:1;stroke:#000000;stroke-width:0;stroke-dasharray:none;stroke-opacity:1"
       id="path6-4"
       cx="36.97398"
       cy="23.408545"
       r="1.177879" /><path
       d="m 38.687044,41.984001 c -0.198535,-0.0014 -0.407604,0.0021 -0.625801,0.01033 -0.218197,0.0083 -0.445421,0.02112 -0.681096,0.03824 -0.47135,0.03424 -0.975625,0.0853 -1.503784,0.150379 -0.528159,0.06508 -1.080464,0.144305 -1.647961,0.234094 -0.567498,0.08979 -1.150063,0.190313 -1.739429,0.29869 -0.589366,0.108377 -1.185457,0.224359 -1.77922,0.345198 -0.593763,0.12084 -1.18561,0.246446 -1.7663,0.373621 -0.58069,0.127175 -1.150526,0.256054 -1.700671,0.383439 -1.100292,0.254771 -2.121874,0.503582 -2.995166,0.722437 -0.873293,0.218854 -1.598253,0.407638 -2.104782,0.541569 -0.506528,0.133931 -0.794783,0.213423 -0.794783,0.213423 0,0 0.0663,0.174931 0.168465,0.475424 0.102163,0.300492 0.240616,0.726295 0.383956,1.228348 0.07167,0.251027 0.144444,0.521219 0.214974,0.804086 0.07053,0.282867 0.138739,0.578225 0.200505,0.880566 0.06177,0.302341 0.116885,0.611426 0.162264,0.920874 0.04538,0.309449 0.08095,0.619268 0.102319,0.923458 0.01222,0.173939 0.01783,0.341406 0.01705,0.501261 -7.72e-4,0.159856 -0.0079,0.312184 -0.0217,0.455786 -0.01377,0.143603 -0.03421,0.27893 -0.06098,0.40411 -0.02677,0.125181 -0.05997,0.240609 -0.09974,0.345199 -0.03977,0.10459 -0.08623,0.198255 -0.139009,0.280086 -0.05278,0.08183 -0.11198,0.151353 -0.177767,0.208256 -0.03289,0.02845 -0.06721,0.05363 -0.103353,0.07545 -0.03615,0.02181 -0.07377,0.04039 -0.113172,0.05529 -0.0394,0.0149 -0.08085,0.02638 -0.123506,0.03411 -0.04266,0.0077 -0.0869,0.01161 -0.132809,0.01188 -0.01759,1.04e-4 -0.03335,0.0046 -0.04806,0.01292 -0.01471,0.0083 -0.02839,0.02046 -0.04031,0.03669 -0.02383,0.03246 -0.04216,0.0805 -0.05529,0.143144 -0.01313,0.06264 -0.02067,0.139739 -0.02377,0.230476 -0.0031,0.09074 -0.0016,0.195374 0.0047,0.312126 0.01253,0.233504 0.04336,0.516739 0.0894,0.841809 0.04604,0.32507 0.107132,0.69194 0.181384,1.091923 0.07425,0.399983 0.161724,0.833152 0.258899,1.291394 0.09718,0.458243 0.20404,0.941406 0.318844,1.441256 0.229608,0.999699 0.489206,2.0659 0.757576,3.132108 0.26837,1.066208 0.545497,2.132616 0.810287,3.132109 0.264789,0.999493 0.517521,1.932063 0.736389,2.731616 0.437736,1.599106 0.74104,2.665471 0.74104,2.665471 L 29.86071,69.53064 c 0,-0.03085 -0.0374,-0.169761 -0.10542,-0.396359 -0.06802,-0.226597 -0.16679,-0.540961 -0.290422,-0.922941 -0.247263,-0.76396 -0.593335,-1.798133 -0.98857,-2.941422 -0.395235,-1.14329 -0.839726,-2.395447 -1.283643,-3.59513 -0.221958,-0.599841 -0.443879,-1.186556 -0.659391,-1.739945 -0.215511,-0.553389 -0.424497,-1.073904 -0.621151,-1.540475 -0.05732,-0.136 -0.118307,-0.268845 -0.182417,-0.398942 -0.06411,-0.130096 -0.131505,-0.25714 -0.201022,-0.381372 -0.139032,-0.248463 -0.287409,-0.48531 -0.439766,-0.710551 -0.152357,-0.225241 -0.308401,-0.438969 -0.463021,-0.641304 -0.09968,-0.130444 -0.195646,-0.248455 -0.292489,-0.369487 -1.73e-4,2.1e-5 -0.02532,0.0031 -0.02532,0.0031 l -1.974556,-1.727543 0.771529,-2.683557 -0.154513,-3.917591 8.267196,1.665532 9.655224,-4.81211 1.666049,1.820044 -0.641305,0.488343 c 0.05535,0.09427 0.107266,0.187504 0.165365,0.281119 0.125559,0.202317 0.256818,0.400613 0.39274,0.58136 0.06796,0.09037 0.137304,0.176079 0.207223,0.256315 0.06992,0.08024 0.140418,0.154755 0.211873,0.221692 0.07146,0.06694 0.143954,0.12626 0.216525,0.176734 0.07257,0.05047 0.145328,0.09214 0.218591,0.12299 0.146526,0.0617 0.300989,0.113709 0.45992,0.15813 0.158932,0.04442 0.322445,0.08145 0.487826,0.112137 0.16538,0.03069 0.332287,0.05495 0.49816,0.07545 0.165874,0.0205 0.330517,0.0368 0.490927,0.05064 0.320819,0.02769 0.625092,0.04587 0.888317,0.06821 0.131613,0.01117 0.252939,0.02361 0.361219,0.03876 0.10828,0.01515 0.203163,0.03314 0.282153,0.05581 0.05345,0.01534 0.107454,0.0397 0.160714,0.07131 0.05326,0.03162 0.105884,0.07048 0.157096,0.113171 0.102424,0.08539 0.199043,0.187782 0.282153,0.286288 0.08311,0.09851 0.152569,0.192988 0.201539,0.263033 0.04897,0.07005 0.07751,0.115238 0.07751,0.115238 0,0 -0.18065,1.909859 -0.361218,3.927409 -0.09028,1.008775 -0.180851,2.044438 -0.248564,2.881995 -0.06771,0.837556 -0.112654,1.476986 -0.112654,1.69292 0,0.431867 0.01685,1.084014 0.04444,1.736845 0.0138,0.326415 0.0303,0.653165 0.04858,0.952396 0.01828,0.299232 0.03828,0.570968 0.05943,0.788066 l 0.682129,6.996989 8.002612,-0.02532 -7.156669,-21.408512 c 0,0 -0.08024,0.03834 -0.224792,0.09095 -0.07228,0.0263 -0.160604,0.05617 -0.263033,0.08682 -0.102429,0.03064 -0.218675,0.06184 -0.347266,0.09095 -0.128591,0.02911 -0.269366,0.05633 -0.420129,0.07803 -0.150764,0.02171 -0.311646,0.03808 -0.480591,0.04651 -0.168946,0.0084 -0.34603,0.0087 -0.529167,-0.0021 -0.183137,-0.01072 -0.372518,-0.03247 -0.565857,-0.06821 -0.126391,-0.02337 -0.251525,-0.054 -0.375687,-0.09147 -0.124163,-0.03747 -0.247215,-0.08206 -0.36897,-0.132808 -0.121756,-0.05075 -0.242047,-0.107838 -0.361218,-0.171049 -0.119171,-0.06321 -0.237058,-0.132375 -0.353467,-0.207222 -0.116409,-0.07485 -0.231213,-0.15515 -0.344682,-0.240813 -0.113469,-0.08566 -0.225545,-0.176679 -0.335897,-0.272334 -0.110352,-0.09566 -0.219021,-0.195931 -0.326078,-0.300757 -0.107057,-0.104827 -0.212675,-0.213936 -0.31626,-0.327112 -0.103584,-0.113176 -0.205474,-0.230697 -0.305408,-0.3514 -0.09993,-0.120703 -0.197932,-0.244662 -0.294038,-0.37207 -0.192213,-0.254817 -0.376587,-0.52221 -0.552422,-0.798918 -0.175834,-0.276708 -0.343226,-0.562705 -0.501261,-0.854728 -0.158035,-0.292023 -0.306637,-0.590138 -0.445451,-0.890902 -0.01735,-0.0376 -0.03892,-0.07349 -0.06459,-0.107487 -0.02568,-0.03399 -0.05567,-0.06615 -0.0894,-0.09663 -0.06747,-0.06097 -0.150514,-0.115261 -0.248563,-0.16278 -0.09805,-0.04752 -0.211001,-0.08816 -0.337447,-0.12299 -0.126447,-0.03483 -0.266436,-0.06339 -0.419096,-0.0863 -0.15266,-0.02291 -0.317854,-0.04044 -0.494544,-0.05219 -0.176689,-0.01176 -0.364738,-0.01776 -0.563273,-0.01912 z"
       style="fill-opacity:0.25098;stroke:#000000;stroke-width:0"
       id="path17" /><path
       style="fill:#000000;fill-opacity:0.25098041;stroke:#000000;stroke-width:0;stroke-dasharray:none;stroke-opacity:1"
       d="m 17.188308,25.956962 c 0,0 4.100763,-7.067274 4.886016,-7.852526 0.785253,-0.785253 3.533637,-4.013514 3.533637,-4.013514 0,0 0.08725,3.271886 0,3.882638 -0.08725,0.610752 -2.268508,4.798766 -2.268508,4.798766 0,0 3.926264,-2.137632 4.231641,-3.010135 0.305374,-0.872503 1.832255,-6.238396 1.832255,-6.238396 0,0 2.268509,4.188015 2.792008,4.493391 0.523502,0.305375 5.235019,3.359136 5.104143,2.748384 -0.130876,-0.610752 -1.439122,-2.966483 -1.639631,-3.537165 -0.200512,-0.570681 -1.696622,-4.781384 -1.696622,-4.781384 L 42.49262,22.811828 41.79289,4.7115158 23.208578,8.5505286 14.83255,23.993831 Z"
       id="path14" /><path
       style="fill:#421919;fill-opacity:1;stroke:#000000;stroke-width:0;stroke-dasharray:none;stroke-opacity:1"
       d="m 49.121914,48.860164 c -0.523502,0.872504 -0.08725,4.275265 -0.610751,7.939776 -0.523502,3.664513 0,10.557287 1.221505,13.523796 1.221504,2.966511 20.503819,3.141011 22.336074,-1.483255 1.832255,-4.624265 2.61751,-16.926557 -2.094008,-19.805816 C 65.26322,46.155406 61.947707,47.289659 59.59195,45.457403 57.236193,43.625148 59.5047,42.839893 58.806698,41.96739 58.108696,41.094887 56.887191,40.222384 56.887191,40.222384 Z"
       id="path10" /><path
       style="fill:#421919;fill-opacity:1;stroke:#000000;stroke-width:0;stroke-dasharray:none;stroke-opacity:1"
       d="m 21.725323,54.444182 c 2.792009,1.570506 7.503526,16.664808 6.36927,17.88631 -1.134253,1.221504 -32.7188585,6.805525 -35.249117,0.523502 -2.5302585,-6.282021 1.7423952,-16.020446 2.9972018,-17.566936 1.9300916,-2.378746 2.1441997,-3.188999 4.24970923,-5.024689 C 5.228817,45.784168 7.765276,44.410399 7.765276,44.410399 Z"
       id="path9"
       sodipodi:nodetypes="csssscc" /><path
       style="fill:#313131;fill-opacity:1;stroke:#000000;stroke-width:0;stroke-dasharray:none;stroke-opacity:1"
       d="m 14.683475,31.032722 c 0,0 4.873927,0.431866 7.094957,-0.0617 2.221029,-0.493562 5.997766,-4.180685 6.539697,-4.688841 1.089345,-1.021453 2.455944,-0.770283 3.701716,0.0617 0.619929,0.414017 1.542384,3.084765 2.406119,3.39324 0.863732,0.308478 1.110514,0.308478 1.110514,0.308478 l 9.501071,0.555257 c 0,0 -1.201295,17.758101 -14.411139,17.747067 C 15.451798,48.335243 14.930256,34.179181 14.683475,31.032722 Z"
       id="path2"
       sodipodi:nodetypes="cssssccsc" /><path
       style="fill:#183239;fill-opacity:1;stroke:#000000;stroke-width:0;stroke-dasharray:none;stroke-opacity:1"
       d="m 29.185224,3.0973855 c 0,0 -9.423033,9.3357815 -10.600912,12.0405405 -1.177878,2.704759 -1.351095,9.85709 -1.351095,9.85709 0,0 3.139726,-5.407325 3.924979,-6.934205 0.785253,-1.52688 4.973267,-5.016892 4.973267,-5.016892 0,0 0.351336,3.993866 -0.08725,5.453143 -0.190833,0.634945 -1.969566,3.512609 -1.969566,3.512609 0,0 2.923119,-1.785673 3.583697,-3.86161 0.648319,-2.037414 1.526881,-5.93302 1.526881,-5.93302 0,0 1.905577,3.157919 3.14101,4.667891 1.17788,1.439629 4.303698,3.202174 4.303698,3.202174 0,0 -1.350873,-2.182542 -2.092502,-4.62555 -0.611563,-2.014556 -1.076942,-3.680767 -1.076942,-3.680767 0,0 2.704759,1.35238 4.886016,4.711516 2.181257,3.359137 4.318889,5.671269 4.318889,5.671269 0,0 0.08725,-5.104142 -0.959752,-6.805522 C 40.658637,13.654671 29.185224,3.0973855 29.185224,3.0973855 Z"
       id="path5"
       sodipodi:nodetypes="cscscscscscscscsc" /><path
       style="fill:#000000;fill-opacity:0.25098;stroke:#000000;stroke-width:0;stroke-dasharray:none;stroke-opacity:1"
       d="m 3.8868021,47.073494 c 0,0 -3.20815409,2.34442 -3.70171628,3.146459 -0.4935622,0.802037 22.08690818,12.462445 23.01233718,12.400749 0.92543,-0.0617 -0.431867,-5.429184 -0.431867,-5.429184 z"
       id="path23"
       sodipodi:nodetypes="csscc" /><path
       style="fill:#000000;fill-opacity:0.25098;stroke:#000000;stroke-width:0;stroke-dasharray:none;stroke-opacity:1"
       d="m 49.047743,49.078591 c 0,0 -0.215934,0.616953 -0.215934,1.41899 0,0.802039 -0.401018,3.26985 -0.0617,3.300698 0.339326,0.03085 8.914969,-6.632242 9.130901,-7.742756 0.215934,-1.110517 1.017974,-3.269851 1.017974,-3.609173 0,-0.339326 -1.141365,-1.573231 -1.141365,-1.573231 0,0 -2.313573,-0.709497 -3.825105,-0.185087 -1.511536,0.524412 -4.904775,8.390559 -4.904775,8.390559 z"
       id="path24" /><path
       style="fill:#000000;fill-opacity:0.33333334;stroke:#000000;stroke-width:0;stroke-dasharray:none;stroke-opacity:1"
       d="m 20.392665,45.041597 c 0,0 -2.338609,-12.862345 -2.385381,-14.26551 -0.04677,-1.403168 1.683798,-12.862347 1.683798,-12.862347 0,0 9.868927,-9.3076613 10.056017,-10.8043706 0.187086,-1.4967095 0.233859,-0.1403165 0.514492,0.1403165 0.280633,0.280633 9.868927,10.1027881 10.196333,10.6640541 0.327406,0.561266 1.91766,11.833359 2.057977,12.488168 0.140316,0.654812 -0.152011,9.985859 -0.152011,9.985859 L 43.8606,36.996785 45.55609,16.557347 29.840642,1.7773423 16.650891,16.650891 l -1.496709,19.363676 4.104258,7.98635 c 0,0 0.678196,0.795126 1.134225,1.04068 z"
       id="path26" /><path
       style="fill:#471b1b;fill-opacity:1;stroke:#000000;stroke-width:0;stroke-dasharray:none;stroke-opacity:1"
       d="m 19.619097,45.901284 c 0,0 -2.34442,-12.524142 -2.776287,-14.991953 -0.431867,-2.467811 1.912553,-13.572959 1.912553,-13.572959 0,0 6.231223,-6.416309 7.835299,-8.0820808 1.604078,-1.6657725 3.146459,-4.6271457 3.146459,-4.6271457 0,0 3.208155,4.1335835 3.886803,4.8122312 0.678649,0.6786483 7.280042,6.9715663 7.773604,7.6502143 0.493562,0.678648 2.035945,12.832617 2.221032,13.326178 0.185084,0.493562 -0.80204,9.686158 0.123388,11.845494 0.92543,2.159333 6.292919,8.513948 6.292919,8.513948 0,0 1.480687,-4.380365 3.084764,-6.169528 1.604076,-1.789163 3.023068,-3.208155 3.023068,-3.208155 l 2.09764,0.431869 c 0,0 -14.621779,-38.6829382 -15.670601,-40.0402341 -1.048819,-1.35729599 -12.585835,-2.65289674 -12.585835,-2.65289674 0,0 -7.711909,9.19259584 -11.290235,11.72210184 -3.578326,2.529506 -4.256974,3.023069 -4.256974,3.023069 0,0 -3.763412,15.855684 -3.763412,16.657723 0,0.80204 -6.9715657,17.212982 -6.9715657,17.212982 0,0 -0.4318669,1.604076 2.7145922,2.282725 3.1464588,0.678648 13.2027885,-4.133583 13.2027885,-4.133583 z"
       id="path3" /><path
       style="fill:#471b1b;fill-opacity:1;stroke:#000000;stroke-width:0;stroke-dasharray:none;stroke-opacity:1"
       d="m 19.526554,45.561959 c 0,0 3.479298,11.576405 3.143216,11.730643 C 20.766259,58.166181 4.7813838,49.84978 4.6888407,49.417914 4.596298,48.986048 19.526554,45.561959 19.526554,45.561959 Z"
       id="path8"
       sodipodi:nodetypes="cssc" /><path
       d="m 16.756033,59.605897 c -0.592275,-0.297334 -1.205323,-0.607255 -1.839681,-0.931209 -0.501858,-0.256289 -1.039279,-0.541326 -1.557528,-0.809253 -0.0071,0.0074 -0.01566,0.01408 -0.02222,0.0217 -0.02091,0.02431 -0.03853,0.05005 -0.05323,0.077 -0.0294,0.0539 -0.05615,0.116651 -0.07958,0.186552 -0.02343,0.0699 -0.04373,0.146738 -0.0615,0.227893 -0.01776,0.08115 -0.03307,0.166585 -0.04548,0.254248 -0.0124,0.08766 -0.0221,0.177743 -0.02945,0.267167 -0.0147,0.178847 -0.01969,0.356254 -0.01602,0.513664 0.0037,0.15741 0.01606,0.294742 0.03566,0.392741 0.0098,0.049 0.02647,0.09531 0.04806,0.140559 0.02159,0.04525 0.04802,0.08953 0.07803,0.133326 0.06002,0.08759 0.133724,0.174202 0.207223,0.269751 0.03675,0.04777 0.07345,0.09768 0.10852,0.150895 0.03506,0.05321 0.06869,0.110106 0.0987,0.171049 0.03001,0.06094 0.05644,0.125915 0.07803,0.196887 0.02159,0.07097 0.03826,0.147695 0.04806,0.230994 0.0098,0.0833 0.01263,0.15627 0.01033,0.220658 -0.0023,0.06439 -0.01007,0.120193 -0.0217,0.169499 -0.01164,0.04931 -0.02725,0.09217 -0.04548,0.130224 -0.01822,0.03805 -0.03893,0.07118 -0.06098,0.101803 -0.0441,0.06125 -0.09304,0.111886 -0.135909,0.166398 -0.02144,0.02726 -0.0414,0.0555 -0.0584,0.08682 -0.017,0.03131 -0.03102,0.0657 -0.04082,0.104904 -0.0098,0.0392 -0.01393,0.08077 -0.01447,0.124023 -5.36e-4,0.04326 0.0025,0.08821 0.0078,0.133842 0.01041,0.09126 0.02857,0.185304 0.04082,0.275952 0.0061,0.04532 0.0111,0.08965 0.0124,0.132292 0.0013,0.04264 -7.08e-4,0.08368 -0.0078,0.121956 -0.007,0.03828 -0.01933,0.0737 -0.03824,0.105937 -0.01891,0.03223 -0.04477,0.06128 -0.07906,0.08578 -0.0686,0.049 -0.453292,0.387034 -0.991671,0.866614 -0.538379,0.479579 -1.230039,1.100717 -1.913578,1.715657 -1.3670774,1.22988 -2.7000934,2.434994 -2.7000934,2.434994 l 0.274402,2.469616 4.3511544,-2.038118 z"
       style="fill-opacity:0.313725;stroke:#000000;stroke-width:0"
       id="path37" /><path
       d="m 41.897701,46.728931 0.641305,-0.488343 -1.666049,-1.820044 -9.655224,4.81211 -8.267196,-1.665532 0.154513,3.917591 -0.771529,2.683557 1.974556,1.727543 c 0,0 0.02515,-0.0031 0.02532,-0.0031 -0.05337,-0.0667 -0.109419,-0.139741 -0.16123,-0.203605 -0.14582,-0.179744 -0.284352,-0.348442 -0.410311,-0.505912 -0.125959,-0.15747 -0.239312,-0.303738 -0.334346,-0.43925 -0.09503,-0.135511 -0.171744,-0.260268 -0.224793,-0.374137 -0.02652,-0.05693 -0.04703,-0.111198 -0.06098,-0.162781 -0.01395,-0.05158 -0.02119,-0.100489 -0.02119,-0.146761 0,-0.09254 0.01368,-0.186107 0.03772,-0.28112 0.02404,-0.09501 0.05801,-0.191267 0.09922,-0.288871 0.08242,-0.195207 0.192413,-0.395737 0.302307,-0.60203 0.05495,-0.103147 0.109718,-0.207578 0.161231,-0.313676 0.05151,-0.106099 0.09987,-0.213807 0.141076,-0.322978 0.04121,-0.109171 0.0757,-0.219915 0.09974,-0.332279 0.02404,-0.112365 0.03772,-0.22642 0.03772,-0.342098 0,-0.115679 -0.0077,-0.250815 -0.02119,-0.398426 -0.01349,-0.147611 -0.03267,-0.307585 -0.05581,-0.473873 -0.04627,-0.332576 -0.10832,-0.689236 -0.170016,-1.016992 -0.12339,-0.655511 -0.246496,-1.195276 -0.246496,-1.195276 0,0 0.420192,0.09997 1.087272,0.246497 0.33354,0.07326 0.728513,0.158396 1.163753,0.248047 0.435241,0.08965 0.910487,0.183926 1.404049,0.276469 0.493562,0.09254 1.005616,0.183161 1.514119,0.2651 0.508504,0.08194 1.0139,0.155068 1.493966,0.212907 0.240033,0.02892 0.473359,0.05405 0.698149,0.07441 0.224789,0.02036 0.440797,0.03587 0.644921,0.04599 0.204125,0.01012 0.396606,0.01473 0.574642,0.01292 0.178037,-0.0018 0.341817,-0.0099 0.488343,-0.02532 0.146526,-0.01542 0.306121,-0.04459 0.476973,-0.0863 0.170852,-0.04171 0.352827,-0.09607 0.543636,-0.160714 0.190809,-0.06465 0.390464,-0.139515 0.596863,-0.223759 0.206399,-0.08424 0.41955,-0.177523 0.63717,-0.278019 0.217621,-0.100496 0.439569,-0.20854 0.664043,-0.321944 0.224473,-0.113404 0.451552,-0.232049 0.678511,-0.355017 0.453918,-0.245938 0.908521,-0.507914 1.346171,-0.772046 0.43765,-0.264133 0.858447,-0.530422 1.244885,-0.785999 0.386439,-0.255577 0.738415,-0.500615 1.038697,-0.720886 0.300282,-0.220271 0.548423,-0.415911 0.727604,-0.574125 0.08959,-0.07911 0.16221,-0.148645 0.214974,-0.207223 0.05276,-0.05858 0.0861,-0.106373 0.09767,-0.141076 0.01157,-0.0347 0.02637,-0.05461 0.04496,-0.0615 0.01859,-0.0069 0.04096,-7.21e-4 0.06615,0.01705 0.02518,0.01777 0.05339,0.04703 0.08475,0.0863 0.03136,0.03927 0.06572,0.08865 0.102836,0.146244 0.07423,0.115196 0.159536,0.264024 0.254248,0.433565 0.09471,0.169541 0.198753,0.359524 0.310575,0.558106 0.06008,0.106694 0.127449,0.217132 0.19172,0.326595 z"
       style="fill-opacity:0.25098;stroke:#000000;stroke-width:0"
       id="path19" /><path
       style="fill:#000000;fill-opacity:0.313725;stroke:#000000;stroke-width:0;stroke-dasharray:none;stroke-opacity:1"
       d="m 20.802864,53.511978 c 0,0 -1.223698,-0.396875 -1.620573,-0.330729 -0.396875,0.06615 -0.628385,0.231511 -0.826822,0.595313 -0.198438,0.363802 0.297656,1.223698 0.165364,1.223698 -0.132292,0 -0.79375,-0.198438 -1.223698,-0.09922 -0.429948,0.09922 -0.859896,0.463021 -0.859896,0.463021 l -0.06113,0.04926 3.332517,1.356391 c 0,0 1.490863,-2.689399 1.391472,-2.911567 -0.09939,-0.222166 -0.29723,-0.346171 -0.29723,-0.346171 z"
       id="path38" /><path
       d="m 41.897701,46.728931 c -0.06427,-0.109463 -0.131639,-0.219901 -0.19172,-0.326595 -0.111822,-0.198582 -0.215863,-0.388565 -0.310575,-0.558106 -0.09471,-0.169541 -0.180021,-0.318369 -0.254248,-0.433565 -0.03711,-0.0576 -0.07148,-0.106977 -0.102836,-0.146244 -0.03136,-0.03927 -0.05956,-0.06853 -0.08475,-0.0863 -0.02519,-0.01777 -0.04756,-0.02394 -0.06615,-0.01705 -0.01859,0.0069 -0.03339,0.02679 -0.04496,0.0615 -0.01157,0.0347 -0.0449,0.0825 -0.09767,0.141076 -0.05276,0.05858 -0.125384,0.128116 -0.214974,0.207223 -0.179181,0.158214 -0.427322,0.353854 -0.727604,0.574125 -0.300282,0.220271 -0.652258,0.465309 -1.038697,0.720886 -0.386438,0.255577 -0.807235,0.521866 -1.244885,0.785999 -0.43765,0.264132 -0.892253,0.526108 -1.346171,0.772046 -0.226959,0.122968 -0.454038,0.241613 -0.678511,0.355017 -0.224474,0.113404 -0.446422,0.221448 -0.664043,0.321944 -0.21762,0.100496 -0.430771,0.193776 -0.63717,0.278019 -0.206399,0.08424 -0.406054,0.159112 -0.596863,0.223759 -0.190809,0.06465 -0.372784,0.119006 -0.543636,0.160714 -0.170852,0.04171 -0.330447,0.07088 -0.476973,0.0863 -0.146526,0.01542 -0.310306,0.02351 -0.488343,0.02532 -0.178036,0.0018 -0.370517,-0.0028 -0.574642,-0.01292 -0.204124,-0.01012 -0.420132,-0.02563 -0.644921,-0.04599 -0.22479,-0.02036 -0.458116,-0.04549 -0.698149,-0.07441 -0.480066,-0.05784 -0.985462,-0.130968 -1.493966,-0.212907 -0.508503,-0.08194 -1.020557,-0.172558 -1.514119,-0.2651 -0.493562,-0.09254 -0.968808,-0.186818 -1.404049,-0.276469 -0.43524,-0.08965 -0.830213,-0.174784 -1.163753,-0.248047 -0.66708,-0.146526 -1.087272,-0.246497 -1.087272,-0.246497 0,0 0.123106,0.539765 0.246496,1.195276 0.0617,0.327756 0.123744,0.684416 0.170016,1.016992 0.02313,0.166288 0.04231,0.326262 0.05581,0.473873 0.0135,0.147611 0.02119,0.282747 0.02119,0.398426 0,0.115678 -0.01369,0.229733 -0.03772,0.342098 -0.02404,0.112364 -0.05852,0.223108 -0.09974,0.332279 -0.04121,0.109171 -0.08956,0.216879 -0.141076,0.322978 -0.05151,0.106098 -0.106283,0.210529 -0.161231,0.313676 -0.109894,0.206293 -0.219886,0.406823 -0.302307,0.60203 -0.04121,0.0976 -0.07518,0.193858 -0.09922,0.288871 -0.02404,0.09501 -0.03772,0.188577 -0.03772,0.28112 0,0.04627 0.0072,0.09518 0.02119,0.146761 0.01395,0.05158 0.03445,0.105846 0.06098,0.162781 0.05305,0.113869 0.129758,0.238626 0.224793,0.374137 0.09503,0.135512 0.208387,0.28178 0.334346,0.43925 0.125959,0.15747 0.264491,0.326168 0.410311,0.505912 0.05181,0.06386 0.107859,0.136902 0.16123,0.203605 0.02379,-0.0028 1.645878,-0.191272 3.468006,-0.42478 0.917716,-0.117607 1.879809,-0.245852 2.701127,-0.365869 0.410659,-0.06001 0.78614,-0.118004 1.103292,-0.171566 0.317152,-0.05356 0.576068,-0.102795 0.753442,-0.145211 0.04434,-0.0106 0.09496,-0.02817 0.151929,-0.05271 0.05697,-0.02454 0.119935,-0.05597 0.188619,-0.09353 0.137368,-0.07512 0.297637,-0.175466 0.476457,-0.297139 0.178819,-0.121674 0.376586,-0.26444 0.589628,-0.425297 0.213041,-0.160858 0.441062,-0.339591 0.681095,-0.532268 0.480066,-0.385354 1.00719,-0.82709 1.551843,-1.295528 0.544653,-0.468437 1.106896,-0.963644 1.658297,-1.456242 0.551401,-0.492597 1.091841,-0.982388 1.592151,-1.440222 0.500309,-0.457834 0.960476,-0.883839 1.351855,-1.247986 0.782758,-0.728292 1.289844,-1.210262 1.289844,-1.210262 z"
       style="fill-opacity:0.25098;stroke:#000000;stroke-width:0"
       id="path18" /><path
       d="m 51.01417,27.364974 c -0.01537,0.530354 -0.03205,1.06143 -0.05064,1.570447 -0.04363,1.194235 -0.09257,2.287704 -0.130742,3.082499 -0.03817,0.794794 -0.06563,1.290877 -0.06563,1.290877 0,0 -0.196358,-0.948681 -0.497644,-2.371948 -0.301286,-1.423268 -0.707688,-3.321113 -1.12758,-5.218803 -0.209944,-0.948845 -0.42304,-1.897885 -0.628385,-2.787427 -0.205345,-0.889542 -0.402934,-1.719742 -0.580843,-2.431376 -0.08895,-0.355817 -0.172817,-0.681899 -0.250631,-0.971 -0.07781,-0.289101 -0.149606,-0.541232 -0.213423,-0.748792 -0.0079,-0.02563 -0.01303,-0.03517 -0.02067,-0.05943 0.03275,-0.08679 0.127458,-0.336056 0.321427,-0.883667 0.111789,-0.3156 0.242856,-0.692356 0.383956,-1.112077 0.07294,-0.216977 0.152823,-0.470974 0.22996,-0.708483 0.164121,0.692403 0.844292,3.557824 1.688786,7.205761 0.342648,1.480124 0.644861,2.823327 0.942062,4.143417 z"
       style="fill-opacity:0.25098;stroke:#000000;stroke-width:0"
       id="path22-8" /><path
       style="fill:#471b1b;fill-opacity:1;stroke:#000000;stroke-width:0;stroke-dasharray:none;stroke-opacity:1"
       d="m 46.068154,13.436545 c 0.436253,0 3.577262,-15.1815509 3.577262,-15.1815509 0,0 0.436253,7.9397766 0.261752,11.1680375 -0.1745,3.2282604 -2.530258,9.4230314 -2.530258,9.4230314 z"
       id="path20" /><path
       d="m 11.599824,26.09727 c 0.01537,0.530354 0.03205,1.06143 0.05064,1.570447 0.04363,1.194235 0.09257,2.287704 0.130742,3.082499 0.03817,0.794794 0.06563,1.290877 0.06563,1.290877 0,0 0.196358,-0.948681 0.497644,-2.371948 0.301286,-1.423268 0.707688,-3.321113 1.12758,-5.218803 0.209944,-0.948845 0.42304,-1.897885 0.628385,-2.787427 0.205345,-0.889542 0.402934,-1.719742 0.580843,-2.431376 0.08895,-0.355817 0.172817,-0.681899 0.250631,-0.971 0.07781,-0.289101 0.149606,-0.541232 0.213423,-0.748792 0.0079,-0.02563 0.01303,-0.03517 0.02067,-0.05943 -0.03275,-0.08679 -0.127458,-0.336056 -0.321427,-0.883667 -0.111789,-0.3156 -0.242856,-0.692356 -0.383956,-1.112077 -0.07294,-0.216977 -0.152823,-0.470974 -0.22996,-0.708483 -0.164121,0.692403 -0.844292,3.557824 -1.688786,7.205761 -0.342648,1.480124 -0.644861,2.823327 -0.942062,4.143417 z"
       style="fill-opacity:0.25098;stroke:#000000;stroke-width:0"
       id="path22" /><path
       style="fill:#471b1b;fill-opacity:1;stroke:#000000;stroke-width:0;stroke-dasharray:none;stroke-opacity:1"
       d="m 16.765434,12.915875 c -0.436253,0 -3.577262,-15.1815501 -3.577262,-15.1815501 0,0 -0.436253,7.9397766 -0.261752,11.1680376 0.1745,3.2282595 2.530258,9.4230305 2.530258,9.4230305 z"
       id="path20-8" /><path
       style="fill:#b4dfe0;fill-opacity:1;stroke:#000000;stroke-width:0;stroke-dasharray:none;stroke-opacity:1"
       d="m 19.87817,64.966539 c -0.491107,-0.03508 -3.180507,0.245555 -3.542991,0.02339 -0.362484,-0.222168 -0.397564,-2.139825 -0.631424,-2.408766 -0.233861,-0.268939 -0.374178,-0.666504 -0.713276,-0.643118 -0.339098,0.02339 -0.666503,0.853594 -0.865285,1.145918 -0.198782,0.292328 0.05846,1.789036 0.198782,2.221678 0.140316,0.432644 0.900364,1.216077 1.449937,1.426551 0.549573,0.210476 2.15152,0.397565 2.712785,0.362484 0.561267,-0.03508 2.443846,-0.02339 2.6894,-0.467719 0.245554,-0.444336 -1.297928,-1.660414 -1.297928,-1.660414 z"
       id="path34" /><path
       style="fill:#000000;fill-opacity:0.313725;stroke:#000000;stroke-width:0;stroke-dasharray:none;stroke-opacity:1"
       d="m 19.876274,64.97408 c -0.491107,-0.03508 -3.180507,0.245555 -3.542991,0.02339 -0.362484,-0.222168 -0.397564,-2.139825 -0.631424,-2.408766 -0.233861,-0.268939 -0.374178,-0.666504 -0.713276,-0.643118 -0.339098,0.02339 -0.666503,0.853594 -0.865285,1.145918 -0.198782,0.292328 0.05846,1.789036 0.198782,2.221678 0.140316,0.432644 0.900364,1.216077 1.449937,1.426551 0.549573,0.210476 2.15152,0.397565 2.712785,0.362484 0.561267,-0.03508 2.443846,-0.02339 2.6894,-0.467719 0.245554,-0.444336 -1.297928,-1.660414 -1.297928,-1.660414 z"
       id="path34-1" /><path
       style="fill:#3a1515;fill-opacity:1;stroke:#000000;stroke-width:0;stroke-dasharray:none;stroke-opacity:1"
       d="m 21.728906,74.083332 c -0.56224,-1.951302 0.859896,-7.176822 1.653646,-8.731249 0.79375,-1.554428 3.175,-4.630209 4.067968,-4.927865 0.892969,-0.297656 1.852084,-0.496094 2.050521,-0.264583 0.198438,0.23151 -1.521354,8.96276 -2.248958,9.954947 -0.727604,0.992188 -5.523177,3.96875 -5.523177,3.96875 z"
       id="path32" /><path
       style="fill:#4d4d4d;fill-opacity:1;stroke:#000000;stroke-width:0;stroke-dasharray:none;stroke-opacity:1"
       d="m 18.867132,65.33467 c 6.548543,-5.62274 8.678366,-7.045135 9.647613,-8.466856 0.969245,-1.421723 -0.207311,-3.034145 -2.241396,-2.667275 -2.034085,0.36687 -15.042722,10.682401 -13.313487,12.39448 2.676469,2.649917 5.90727,-1.260349 5.90727,-1.260349 z"
       id="path29"
       sodipodi:nodetypes="csssc" /><path
       style="fill:#b4dfe0;fill-opacity:1;stroke:#000000;stroke-width:0;stroke-dasharray:none;stroke-opacity:1"
       d="m 29.513236,60.24255 c 0,0 -0.23386,-2.525697 -1.917658,-3.461139 -1.683798,-0.935445 -5.565888,-3.320825 -6.735192,-3.227279 -1.169304,0.09354 -1.73057,0.654809 -1.73057,1.122532 0,0.46772 0.09354,0.982215 0.09354,0.982215 0,0 -0.467722,-0.09355 -1.169305,-0.09355 -0.701582,0 -1.216076,0.841899 -1.262848,1.216078 -0.04677,0.374176 0.374177,0.888669 0.374177,0.888669 0,0 -0.65481,-0.09354 -1.122532,-0.04677 -0.467722,0.04677 -0.888671,0.935442 -1.028988,1.262848 -0.140316,0.327406 0.422919,0.74431 0.373309,0.74431 -0.04961,0 -0.669726,-0.305924 -0.859896,-0.223242 -0.190169,0.08268 -0.818555,0.802018 -0.802018,0.926042 0.01654,0.124023 0.04021,0.460914 0.264584,0.917773 0.813658,1.656411 4.111427,2.89029 5.607694,3.972741 0.373707,0.270352 0.912057,1.613641 1.61364,2.011204 0.701582,0.397563 3.414368,2.315223 3.414368,2.315223 0,0 3.040192,-2.853102 3.928861,-4.115951 0.888672,-1.262848 0.958829,-5.191712 0.958829,-5.191712 z"
       id="path28"
       sodipodi:nodetypes="cssscsscsssssssscscc" /><path
       style="fill:#4a1d1d;fill-opacity:1;stroke:#000000;stroke-width:0;stroke-dasharray:none;stroke-opacity:1"
       d="m 61.118749,69.849999 c -7.276041,3.307292 -31.617708,-9.657291 -31.617708,-9.657291 0,0 -3.863286,9.117582 -6.773703,12.16029 -2.910416,3.042708 1.07576,4.147815 5.83826,5.999898 4.7625,1.852083 24.351068,3.667936 30.304193,1.815853 5.953125,-1.852083 2.248958,-10.31875 2.248958,-10.31875 z"
       id="path27"
       sodipodi:nodetypes="ccsssc" /><path
       style="fill:#9a9a9a;fill-opacity:1;stroke:#000000;stroke-width:0;stroke-dasharray:none;stroke-opacity:1"
       d="m 13.713523,64.538779 -9.1975422,9.197542 c 0,0 3.8046973,-0.147558 4.9957429,-1.338606 1.1910453,-1.191046 8.6732193,-6.330729 8.6732193,-6.330729 z"
       id="path30" /><path
       style="fill:#45f000;fill-opacity:1;stroke:#000000;stroke-width:0;stroke-dasharray:none;stroke-opacity:1"
       d="m 17.469404,66.58018 c -1.964431,-0.304019 -5.317978,-0.277588 -5.893293,0.187089 -0.608038,0.491107 -0.04677,-2e-6 -1.145918,1.122531 -0.5584517,0.570334 -0.5378798,0.374178 -0.5378798,0.374178 0,0 -0.9120573,1.590252 -0.3507911,2.104747 0.5612659,0.514493 3.9756339,-1.309621 4.5836719,-1.660414 0.608039,-0.350789 3.34421,-2.128131 3.34421,-2.128131 z"
       id="path33"
       sodipodi:nodetypes="csscssc" /><path
       style="fill:#000000;fill-opacity:0.313725;stroke:#000000;stroke-width:0;stroke-dasharray:none;stroke-opacity:1"
       d="m 15.855765,67.726096 1.028987,-0.748353 c 0,0 1.094512,0.160277 1.908933,0.110668 0.81442,-0.04961 1.223698,-0.05788 1.422135,-0.103355 0.198438,-0.04547 0.56224,-0.119888 0.56224,-0.119888 0,0 0.252181,0.285253 0.388606,0.351399 0.136426,0.06615 0.830957,0.516765 0.830957,0.516765 l -2.831868,1.223698 -3.720703,-0.479557 z"
       id="path35" /></g></svg>
