<?xml version="1.0" encoding="UTF-8" standalone="no"?>
<!-- Created with Inkscape (http://www.inkscape.org/) -->

<svg
   width="256"
   height="256"
   viewBox="0 0 67.733332 67.733333"
   version="1.1"
   id="svg1"
   xml:space="preserve"
   inkscape:version="1.3 (0e150ed6c4, 2023-07-21)"
   sodipodi:docname="BeerBarrel.svg"
   inkscape:export-filename="..\Assets\Sprites\Units\BeerBarrel.png"
   inkscape:export-xdpi="96"
   inkscape:export-ydpi="96"
   xmlns:inkscape="http://www.inkscape.org/namespaces/inkscape"
   xmlns:sodipodi="http://sodipodi.sourceforge.net/DTD/sodipodi-0.dtd"
   xmlns="http://www.w3.org/2000/svg"
   xmlns:svg="http://www.w3.org/2000/svg"><sodipodi:namedview
     id="namedview1"
     pagecolor="#505050"
     bordercolor="#ffffff"
     borderopacity="1"
     inkscape:showpageshadow="0"
     inkscape:pageopacity="0"
     inkscape:pagecheckerboard="1"
     inkscape:deskcolor="#505050"
     inkscape:document-units="mm"
     inkscape:zoom="2.1442755"
     inkscape:cx="95.370207"
     inkscape:cy="142.006"
     inkscape:window-width="1920"
     inkscape:window-height="1009"
     inkscape:window-x="-8"
     inkscape:window-y="-8"
     inkscape:window-maximized="1"
     inkscape:current-layer="layer1" /><defs
     id="defs1"><rect
       x="-97.00246"
       y="239.708"
       width="243.43887"
       height="72.285487"
       id="rect4" /></defs><g
     inkscape:label="Шар 1"
     inkscape:groupmode="layer"
     id="layer1"><ellipse
       style="fill:#884300;fill-opacity:1;stroke:#000000;stroke-width:0"
       id="path4-2-5-0"
       cx="37.338547"
       cy="41.674431"
       rx="3.7953877"
       ry="4.7115159" /><path
       style="fill:#7b3d00;fill-opacity:1;stroke:#000000;stroke-width:0"
       d="m 13.399449,40.607527 c -1.919507,2.443009 -4.0135148,10.295535 -3.228261,12.127791 0.785252,1.832255 3.402762,2.530258 4.886016,1.745006 1.483254,-0.785254 3.751762,-2.006758 6.369272,-1.832258 2.617507,0.174501 6.631022,4.013515 7.939775,4.886018 1.308756,0.872503 5.147768,3.664511 6.631022,2.268506 1.483257,-1.396003 1.483257,-1.396003 1.483257,-1.396003 L 35.299273,43.137785 Z"
       id="path3" /><path
       style="fill:#6c3500;fill-opacity:1;stroke:#000000;stroke-width:0"
       d="m 35.52168,28.394234 c -1.919507,2.443009 -4.013516,10.295535 -3.228266,12.127791 0.78526,1.832255 3.402767,2.530258 4.886021,1.745006 1.483254,-0.785254 3.751762,-2.006758 6.369272,-1.832258 2.617507,0.174501 6.631022,4.013515 7.939775,4.886018 1.308756,0.872503 5.147768,3.664511 6.631023,2.268506 1.483257,-1.396003 1.483257,-1.396003 1.483257,-1.396003 L 57.421504,30.924492 Z"
       id="path3-0" /><path
       style="fill:#944a00;fill-opacity:1;stroke:#000000;stroke-width:0"
       d="m 17.521459,12.832617 c 0,0 12.339055,-4.503755 17.521457,-4.8739267 5.182404,-0.3701716 16.9662,0.8020386 16.9662,0.8020386 0,0 5.922747,2.0359441 8.205472,12.2773601 2.282725,10.241415 -8.390557,16.719418 -16.657724,21.65504 -8.267166,4.935622 -24.55472,3.084764 -24.55472,3.084764 z"
       id="path2" /><ellipse
       style="fill:#af5700;fill-opacity:1;stroke:#000000;stroke-width:0"
       id="path1-1"
       cx="22.060835"
       cy="28.945425"
       rx="13.551292"
       ry="17.101057" /><ellipse
       style="fill:#6d3600;stroke:#000000;stroke-width:0"
       id="path1"
       cx="21.797289"
       cy="28.828739"
       rx="11.407976"
       ry="14.396298" /><ellipse
       style="fill:#884300;fill-opacity:1;stroke:#000000;stroke-width:0"
       id="path4"
       cx="33.859642"
       cy="57.272335"
       rx="3.7953877"
       ry="4.7115159" /><ellipse
       style="fill:#884300;fill-opacity:1;stroke:#000000;stroke-width:0"
       id="path4-2"
       cx="12.74624"
       cy="54.104057"
       rx="3.7953877"
       ry="4.7115159" /><ellipse
       style="fill:#884300;fill-opacity:1;stroke:#000000;stroke-width:0"
       id="path4-2-5"
       cx="55.900276"
       cy="45.938877"
       rx="3.7953877"
       ry="4.7115159" /><text
       xml:space="preserve"
       transform="matrix(0.21984521,-0.0543937,0.1418225,0.16172524,19.541062,-24.562894)"
       id="text4"
       style="font-size:42.6667px;font-family:'Matura MT Script Capitals';-inkscape-font-specification:'Matura MT Script Capitals';white-space:pre;shape-inside:url(#rect4);display:inline;fill:#ffa750;fill-opacity:1;stroke:#000000;stroke-width:0"><tspan
         x="-97.001953"
         y="274.62138"
         id="tspan1">Beer</tspan></text></g></svg>
