<?xml version="1.0" encoding="UTF-8" standalone="no"?>
<!-- Created with Inkscape (http://www.inkscape.org/) -->

<svg
   width="200"
   height="200"
   viewBox="0 0 52.916666 52.916666"
   version="1.1"
   id="svg1"
   inkscape:version="1.3 (0e150ed6c4, 2023-07-21)"
   sodipodi:docname="Butcher.svg"
   inkscape:export-filename="..\Assets\Sprites\Units\Butcher.png"
   inkscape:export-xdpi="96"
   inkscape:export-ydpi="96"
   xmlns:inkscape="http://www.inkscape.org/namespaces/inkscape"
   xmlns:sodipodi="http://sodipodi.sourceforge.net/DTD/sodipodi-0.dtd"
   xmlns="http://www.w3.org/2000/svg"
   xmlns:svg="http://www.w3.org/2000/svg">
  <sodipodi:namedview
     id="namedview1"
     pagecolor="#505050"
     bordercolor="#ffffff"
     borderopacity="1"
     inkscape:showpageshadow="0"
     inkscape:pageopacity="0"
     inkscape:pagecheckerboard="1"
     inkscape:deskcolor="#505050"
     inkscape:document-units="mm"
     inkscape:zoom="2.1442755"
     inkscape:cx="106.09644"
     inkscape:cy="177.91557"
     inkscape:window-width="1920"
     inkscape:window-height="1009"
     inkscape:window-x="-8"
     inkscape:window-y="-8"
     inkscape:window-maximized="1"
     inkscape:current-layer="layer1" />
  <defs
     id="defs1" />
  <g
     inkscape:label="Шар 1"
     inkscape:groupmode="layer"
     id="layer1">
    <path
       d="m 35.416854,18.798791 -14.644316,0.344222 c 0,0 0.09751,0.129864 0.243513,0.350031 0.146012,0.220165 0.340488,0.530642 0.5346,0.892433 0.09707,0.180896 0.193734,0.374619 0.284454,0.576195 0.09072,0.201576 0.17542,0.411045 0.247567,0.623484 0.07215,0.212437 0.132043,0.427887 0.173379,0.64137 0.02067,0.106742 0.03638,0.213076 0.04705,0.318238 0.01066,0.105163 0.01623,0.209272 0.01537,0.311627 -8.15e-4,0.102354 -0.01424,0.202349 -0.03848,0.300596 -0.02425,0.09825 -0.05927,0.194483 -0.104491,0.288411 -0.04522,0.09393 -0.100392,0.185828 -0.164138,0.275215 -0.06376,0.08939 -0.136525,0.176397 -0.216375,0.261029 -0.07985,0.08463 -0.167155,0.166718 -0.260677,0.246378 -0.09352,0.07966 -0.192808,0.156789 -0.29757,0.231261 -0.209529,0.148944 -0.439444,0.28733 -0.679352,0.414219 -0.23991,0.126889 -0.489809,0.242378 -0.740654,0.345482 -0.250846,0.1031 -0.502451,0.193823 -0.744793,0.271408 -0.242337,0.07758 -0.475798,0.142203 -0.690186,0.192535 -0.214388,0.05034 -0.409838,0.08646 -0.576829,0.107811 -0.166992,0.02136 -0.404132,0.03542 -0.69424,0.04495 -0.290106,0.0095 -0.633233,0.01448 -1.012378,0.01743 -0.75829,0.0059 -1.660398,0.0041 -2.570381,0.01542 -0.454992,0.0056 -0.911794,0.0145 -1.353592,0.02937 -0.441801,0.01489 -0.868398,0.03565 -1.26293,0.06503 -0.394529,0.02939 -0.757143,0.06775 -1.0703292,0.116895 -0.156594,0.02458 -0.300783,0.05157 -0.4306505,0.08206 -0.1298672,0.0305 -0.2451959,0.06423 -0.3440779,0.101303 -0.3955279,0.148331 -0.8597107,0.311596 -1.3522728,0.502715 -0.246281,0.09556 -0.4995039,0.19804 -0.7551582,0.309396 -0.2556546,0.111357 -0.5137175,0.231617 -0.7688222,0.36217 -0.2551046,0.130554 -0.5072629,0.271564 -0.7518942,0.424717 -0.2446312,0.153151 -0.4817306,0.318405 -0.7059651,0.497554 -0.1121174,0.08957 -0.2208436,0.182436 -0.3260011,0.279148 -0.1051574,0.09672 -0.2064906,0.197275 -0.3034479,0.30155 -0.096957,0.104275 -0.1896809,0.212248 -0.2771975,0.324511 -0.087516,0.11226 -0.1698942,0.228419 -0.2467297,0.349093 -0.3073418,0.482697 -0.6486882,0.957501 -0.99202,1.437053 -0.171666,0.239776 -0.3441003,0.480757 -0.5127188,0.724468 -0.1686187,0.243712 -0.3336334,0.49025 -0.4911746,0.741043 -0.1575414,0.250794 -0.3074745,0.505784 -0.4459088,0.766809 -0.1384342,0.261024 -0.2656331,0.528417 -0.3769302,0.802819 -0.1112971,0.274402 -0.2070336,0.556042 -0.28316374,0.846971 -0.0380649,0.145465 -0.0711437,0.293226 -0.0989114,0.443413 -0.0277677,0.150185 -0.0497776,0.302662 -0.0662443,0.457963 -0.0658664,0.621204 -0.17127042,1.39782 -0.28641433,2.244188 -0.11514394,0.846366 -0.24039496,1.762712 -0.34652233,2.664125 -0.0530638,0.450707 -0.10136812,0.897378 -0.14124757,1.329952 -0.0398794,0.432572 -0.0714074,0.850997 -0.0908158,1.244169 -0.0194084,0.393176 -0.026511,0.761546 -0.0181617,1.094057 0.004174,0.166253 0.0121355,0.323258 0.0246154,0.470359 0.0124803,0.147102 0.029345,0.283944 0.0510418,0.409235 0.0867877,0.501165 0.21768729,1.154472 0.37092415,1.869448 0.15323687,0.714978 0.32908566,1.491904 0.5047901,2.240244 0.1757043,0.748339 0.3515028,1.46818 0.505693,2.069428 0.1541904,0.601251 0.2865209,1.08384 0.3752153,1.357551 0.00555,0.0171 0.023035,0.03385 0.051937,0.05015 0.028901,0.01629 0.069196,0.03204 0.1207097,0.04756 0.1030278,0.03098 0.2507837,0.06042 0.4397984,0.08831 0.3780297,0.05577 0.9218043,0.105697 1.6080577,0.149924 0.6862536,0.04423 1.5150705,0.08255 2.4619158,0.116357 0.9468448,0.0338 2.0120812,0.0629 3.1718855,0.08741 0.5399738,0.01139 1.261154,0.01323 1.839705,0.0228 l -0.819845,-13.361577 1.915404,-2.50924 -1.067538,15.871594 c 1.899768,0.0313 3.831545,0.06131 6.035222,0.07545 2.885652,0.01845 5.958908,0.02377 9.029546,0.02069 3.070637,-0.0031 6.138484,-0.0145 9.013049,-0.03022 2.666655,-0.01456 5.103594,-0.03303 7.285444,-0.05105 l -1.95517,-14.828087 2.863003,4.885791 -0.902016,9.942369 c 0.16833,-0.0013 0.397741,-0.0024 0.562208,-0.0038 4.594871,-0.03888 7.654272,-0.07652 7.654272,-0.07652 0,0 0.185446,-0.325457 0.461976,-0.853935 0.138266,-0.264236 0.299271,-0.579072 0.4716,-0.929481 0.172329,-0.350406 0.355945,-0.736101 0.53896,-1.142046 0.183017,-0.405943 0.365421,-0.832333 0.535744,-1.263181 0.170323,-0.430847 0.328218,-0.866177 0.46247,-1.291296 0.06712,-0.212558 0.128706,-0.422428 0.182429,-0.627811 0.05373,-0.205384 0.09985,-0.40631 0.13725,-0.60069 0.03739,-0.194379 0.06587,-0.382455 0.08405,-0.562001 0.01816,-0.179543 0.02576,-0.35087 0.02174,-0.51175 -0.008,-0.321763 -0.03799,-0.741243 -0.08695,-1.235085 -0.04898,-0.493842 -0.116679,-1.061794 -0.200636,-1.679747 -0.08396,-0.617955 -0.184037,-1.286321 -0.29701,-1.980418 -0.112974,-0.694096 -0.239006,-1.414288 -0.375033,-2.136557 -0.136026,-0.72227 -0.282103,-1.446221 -0.435219,-2.148695 -0.153115,-0.702476 -0.313327,-1.383182 -0.477566,-2.017895 -0.164239,-0.634711 -0.332688,-1.223586 -0.502088,-1.742565 -0.0847,-0.259489 -0.169266,-0.501402 -0.254137,-0.722963 -0.08487,-0.221562 -0.169813,-0.42263 -0.254108,-0.600268 -0.168592,-0.355277 -0.319662,-0.697352 -0.460504,-1.025086 -0.140842,-0.327733 -0.27144,-0.641173 -0.39828,-0.940474 -0.126838,-0.299299 -0.250209,-0.584116 -0.376791,-0.85409 -0.126582,-0.269978 -0.256508,-0.525117 -0.396577,-0.76488 -0.140072,-0.239764 -0.290332,-0.464181 -0.45764,-0.672842 -0.08366,-0.104329 -0.171509,-0.204634 -0.26455,-0.301023 -0.09304,-0.09638 -0.191276,-0.189148 -0.295421,-0.277481 -0.104145,-0.08834 -0.214095,-0.172228 -0.331065,-0.252396 -0.116968,-0.08017 -0.241007,-0.156526 -0.372517,-0.228417 -0.131508,-0.07189 -0.270443,-0.13938 -0.418212,-0.202885 -0.147769,-0.06351 -0.303973,-0.122926 -0.469721,-0.177931 -0.165746,-0.05501 -0.35352,-0.103022 -0.559903,-0.144842 -0.206384,-0.04181 -0.431402,-0.07723 -0.672329,-0.108233 -0.481851,-0.06202 -1.026811,-0.104736 -1.610276,-0.137782 -1.166924,-0.06608 -2.488557,-0.09365 -3.769431,-0.157994 -0.640437,-0.03218 -1.270477,-0.07329 -1.866277,-0.13358 -0.2979,-0.03014 -0.58725,-0.0654 -0.864852,-0.10614 -0.2776,-0.04073 -0.54354,-0.08728 -0.794749,-0.140993 -0.251206,-0.05371 -0.487879,-0.114557 -0.706601,-0.18362 -0.218721,-0.06907 -0.419746,-0.146173 -0.599887,-0.232965 -0.180141,-0.08678 -0.339131,-0.183191 -0.474598,-0.29009 -0.06774,-0.05345 -0.129855,-0.10922 -0.185277,-0.168144 -0.05542,-0.05891 -0.104172,-0.121105 -0.146523,-0.185799 -0.08469,-0.129388 -0.153965,-0.261031 -0.208764,-0.394692 -0.0548,-0.13366 -0.09534,-0.269326 -0.123526,-0.405612 -0.02818,-0.136285 -0.04354,-0.273536 -0.04837,-0.4108 -0.0048,-0.137263 8.34e-4,-0.274194 0.01614,-0.410787 0.01522,-0.136591 0.03964,-0.272346 0.07164,-0.406619 0.03199,-0.134274 0.07154,-0.267473 0.117038,-0.397778 0.04549,-0.130307 0.09717,-0.257977 0.152876,-0.382669 0.0557,-0.124692 0.115456,-0.24599 0.178097,-0.36342 0.125286,-0.234858 0.261351,-0.453911 0.394687,-0.649831 0.133336,-0.195918 0.264118,-0.368659 0.379256,-0.512457 0.230278,-0.287594 0.397838,-0.457828 0.397838,-0.457828 z"
       style="fill:#dde49b;fill-opacity:1;stroke:#000000;stroke-width:0"
       id="path8" />
    <circle
       style="fill:#000000;fill-opacity:1;stroke:#000000;stroke-width:0;stroke-dasharray:none;stroke-opacity:1"
       id="path9-5"
       cx="34.926437"
       cy="38.243107"
       r="0.50509512"
       transform="rotate(0.48027992)" />
    <path
       style="fill:none;fill-opacity:1;stroke:#000000;stroke-width:0.4;stroke-dasharray:none;stroke-opacity:1"
       d="m 11.926112,40.323153 c 0,0 3.929641,2.20087 5.842127,2.18489 2.610556,-0.02181 3.511604,-0.63438 5.244098,-2.159333 1.085097,-0.955109 1.974249,-5.059013 1.974249,-5.059013"
       id="path10"
       sodipodi:nodetypes="cssc" />
    <path
       style="fill:none;fill-opacity:1;stroke:#000000;stroke-width:0.4;stroke-dasharray:none;stroke-opacity:1"
       d="m 40.460103,39.876073 c 0,0 -2.900733,2.665961 -4.795124,2.403016 -2.828682,-0.392626 -3.206228,-0.525317 -5.244098,-2.159333 -1.127795,-0.904294 -1.974249,-5.059013 -1.974249,-5.059013"
       id="path10-7"
       sodipodi:nodetypes="cssc" />
    <path
       d="M 35.359082,24.423832 33.870801,39.17642 c 0,0 -1.353448,-0.02689 -3.388424,-0.05581 -1.017488,-0.01446 -2.205621,-0.02957 -3.479891,-0.04186 -1.27427,-0.01229 -2.634611,-0.02198 -3.997689,-0.02584 -0.259625,-7.42e-4 -0.505063,0.0018 -0.764294,0.0016 l -0.12299,0.306958 -0.338997,0.463021 -0.06201,0.555004 -0.709518,0.432015 c 0,0 0.03101,0.431772 0.03101,0.586011 0,0.01928 -0.0068,0.0398 -0.0186,0.06046 -0.01181,0.02067 -0.02833,0.04156 -0.04858,0.06253 -0.04049,0.04193 -0.09484,0.08326 -0.148828,0.119889 -0.107967,0.07326 -0.216008,0.127124 -0.216008,0.127124 l -0.49351,0.37052 c 0,0 -0.01506,0.07723 -0.03049,0.173633 -0.01543,0.0964 -0.03101,0.211754 -0.03101,0.288871 0,0.01928 -0.0095,0.0373 -0.02635,0.05374 -0.01687,0.01645 -0.04136,0.03122 -0.07028,0.04496 -0.05784,0.02747 -0.134755,0.04983 -0.211874,0.06718 -0.154238,0.0347 -0.308508,0.05013 -0.308508,0.05013 l -0.339514,0.247013 v 0.586011 l -0.307992,0.03049 -0.154512,-0.0615 -0.246497,-0.123506 -0.09302,-0.49351 0.09302,-0.370004 -0.648022,-0.771012 -0.308509,-1.172538 -0.206189,-1.594735 c -0.587645,0.01015 -1.237354,0.01517 -1.753381,0.03101 -0.518383,0.01591 -0.995483,0.03504 -1.420585,0.05736 -0.425104,0.02232 -0.798667,0.04799 -1.109493,0.07751 -0.310826,0.02952 -0.558771,0.06275 -0.734322,0.100253 -0.08778,0.01875 -0.15772,0.03853 -0.207739,0.05943 -0.05002,0.0209 -0.08028,0.04302 -0.08992,0.06614 -0.01928,0.04627 -0.04081,0.150417 -0.06408,0.305408 -0.02327,0.154991 -0.04836,0.360953 -0.07493,0.609782 -0.05314,0.497659 -0.111972,1.168098 -0.17415,1.951819 -0.06218,0.783721 -0.127598,1.680632 -0.19327,2.631364 -0.06567,0.950732 -0.131713,1.955134 -0.195336,2.953825 -0.127247,1.99738 -0.244935,3.971795 -0.33073,5.446696 -0.08579,1.474899 -0.140043,2.450496 -0.140043,2.450496 l 32.575273,0.49351 -0.925525,-2.653068 c 0,0 0.01188,-0.570338 0.0041,-1.456242 -0.0039,-0.442951 -0.01262,-0.965125 -0.02997,-1.533756 -0.01735,-0.568633 -0.04361,-1.183913 -0.08217,-1.81436 -0.01928,-0.315224 -0.04167,-0.634211 -0.0677,-0.952913 -0.02603,-0.318704 -0.05566,-0.637164 -0.0894,-0.951364 -0.03374,-0.314198 -0.07127,-0.624328 -0.113688,-0.926041 -0.04242,-0.301713 -0.08954,-0.59519 -0.141594,-0.876432 -0.05206,-0.281244 -0.109423,-0.550262 -0.172082,-0.803052 -0.06266,-0.252791 -0.130412,-0.489029 -0.204639,-0.705384 -0.07423,-0.216353 -0.15457,-0.412524 -0.241329,-0.58446 -0.04338,-0.08597 -0.0887,-0.165895 -0.135392,-0.239262 -0.04669,-0.07337 -0.09508,-0.14022 -0.145211,-0.199988 -0.100254,-0.119534 -0.209626,-0.237627 -0.327112,-0.353983 -0.117486,-0.116357 -0.243069,-0.231044 -0.374654,-0.343648 -0.131584,-0.112606 -0.269311,-0.222964 -0.411861,-0.331246 -0.14255,-0.108283 -0.289901,-0.214424 -0.440283,-0.31781 -0.300764,-0.206776 -0.61378,-0.403285 -0.927075,-0.587045 -0.313296,-0.18376 -0.626829,-0.354914 -0.927592,-0.51108 -0.300765,-0.156166 -0.588976,-0.29717 -0.852145,-0.421163 C 36.441612,39.641555 36.20348,39.534445 36.00297,39.447205 35.601952,39.272723 35.351331,39.17642 35.351331,39.17642 l 1.234033,-14.463717 c 0,0 -0.112794,-0.01074 -0.322461,-0.05219 -0.104834,-0.02073 -0.233704,-0.04917 -0.38499,-0.08785 -0.151284,-0.03868 -0.325069,-0.08713 -0.518831,-0.148828 z m -7.534424,21.336166 c 0.01807,6.77e-4 0.03835,0.0065 0.0615,0.01809 0.04627,0.02314 0.10243,0.06044 0.164848,0.108521 0.06242,0.04808 0.131306,0.106496 0.203605,0.171566 0.144598,0.130137 0.302542,0.2868 0.449068,0.437182 0.293052,0.300764 0.540019,0.578259 0.540019,0.578259 l 0.308508,0.678512 -0.679028,0.98702 2.34456,0.37052 -0.863513,1.172021 0.246496,1.172022 0.49351,0.617016 -0.555005,0.49351 0.246497,0.679029 -0.98702,0.246496 c 0,0 -0.185076,0.15431 -0.401009,0.31626 -0.107967,0.08097 -0.223518,0.163962 -0.327629,0.230477 -0.10411,0.06651 -0.196687,0.116351 -0.258382,0.131775 -0.03085,0.0077 -0.06752,0.01068 -0.108004,0.0098 -0.04049,-8.43e-4 -0.08499,-0.0052 -0.131258,-0.0124 -0.09254,-0.01446 -0.192711,-0.03967 -0.285254,-0.06666 -0.185086,-0.05398 -0.338997,-0.115755 -0.338997,-0.115755 l -1.296045,-0.678511 -1.233516,0.98702 c 0,0 -0.35489,-0.185076 -0.732772,-0.40101 -0.188942,-0.107965 -0.383545,-0.223518 -0.542603,-0.327628 -0.07953,-0.05206 -0.150192,-0.10135 -0.206706,-0.145211 -0.05651,-0.04386 -0.09882,-0.08232 -0.121956,-0.113171 -0.01157,-0.01542 -0.03157,-0.0241 -0.05891,-0.02636 -0.02734,-0.0023 -0.06244,0.0021 -0.103353,0.01137 -0.08182,0.01856 -0.188184,0.05822 -0.311092,0.113171 -0.122908,0.05495 -0.262355,0.124764 -0.408761,0.203088 -0.146404,0.07832 -0.299859,0.165045 -0.452168,0.253732 -0.30462,0.177372 -0.603625,0.362586 -0.826307,0.503328 -0.22268,0.140742 -0.368969,0.237195 -0.368969,0.237195 l 3.331579,-6.478158 1.295528,-0.740006 1.912545,-0.49351 c 0,0 -0.01924,-0.08142 -0.04237,-0.199988 -0.02314,-0.11857 -0.05021,-0.274398 -0.06563,-0.42478 -0.0077,-0.07519 -0.0124,-0.149131 -0.0124,-0.216008 0,-0.06688 0.0045,-0.126949 0.01602,-0.174666 0.01157,-0.04772 0.02985,-0.08306 0.05684,-0.100769 0.0135,-0.0089 0.02947,-0.01308 0.04754,-0.0124 z"
       style="fill:#797979;stroke:#000000;stroke-width:0"
       id="path16" />
    <g
       id="g3"
       transform="matrix(1.3903678,0.01165499,-0.01165499,1.3903678,-12.379127,-0.04581407)">
      <path
         style="fill:#a4a4a4;fill-opacity:1;stroke:#ffffff;stroke-width:0;stroke-dasharray:none"
         d="M 20.667917,14.49839 24.389566,0.60900511 h 8.802491 L 36.933035,14.570526 Z"
         id="path1" />
      <path
         style="fill:#a4a4a4;fill-opacity:1;stroke:#000000;stroke-width:0.5;stroke-dasharray:none;stroke-opacity:1"
         d="m 25.455273,4.297077 1.26513,1.5923177"
         id="path2" />
      <path
         style="fill:#a4a4a4;fill-opacity:1;stroke:#000000;stroke-width:0.5;stroke-dasharray:none;stroke-opacity:1"
         d="m 26.683536,4.2769569 -1.26513,1.5923177"
         id="path2-0" />
      <path
         style="fill:#a4a4a4;fill-opacity:1;stroke:#000000;stroke-width:0.5;stroke-dasharray:none;stroke-opacity:1"
         d="m 30.43522,4.8609603 1.992053,0.409578"
         id="path2-6" />
      <path
         style="fill:#a4a4a4;fill-opacity:1;stroke:#000000;stroke-width:0.49985017;stroke-dasharray:none;stroke-opacity:1"
         d="m 31.364402,4.0574342 0.05131,2.0330757"
         id="path2-0-4" />
    </g>
    <circle
       style="fill:#000000;fill-opacity:1;stroke:#000000;stroke-width:0;stroke-dasharray:none;stroke-opacity:1"
       id="path9"
       cx="19.62504"
       cy="38.426922"
       r="0.50509512"
       transform="rotate(0.48027991)" />
    <circle
       style="fill:#000000;fill-opacity:1;stroke:#000000;stroke-width:0;stroke-dasharray:none;stroke-opacity:1"
       id="path9-0"
       cx="27.79431"
       cy="52.317081"
       r="0.50509512"
       transform="rotate(0.48027991)" />
    <path
       style="display:none;fill:#924300;fill-opacity:1;stroke:#000000;stroke-width:0;stroke-dasharray:none;stroke-opacity:1"
       d="M 37.459475,48.085406 39.83917,58.667377 40.372799,58.387525 36.82512,42.611791 Z"
       id="path28" />
    <path
       style="display:none;fill:#924300;fill-opacity:1;stroke:#000000;stroke-width:0;stroke-dasharray:none;stroke-opacity:1"
       d="m 35.961764,47.59852 2.984922,13.273276 1.804517,-0.405804 -2.839271,-12.625605 z"
       id="path29" />
    <path
       style="display:inline;fill:#4e4e4e;fill-opacity:1;stroke:#000000;stroke-width:0;stroke-dasharray:none;stroke-opacity:1"
       d="M 41.191384,53.187493 35.046671,23.259117 22.612659,29.909869 33.812766,56.821347 Z"
       id="path27"
       sodipodi:nodetypes="ccccc" />
    <path
       style="fill:#909090;fill-opacity:1;stroke:#000000;stroke-width:0;stroke-dasharray:none;stroke-opacity:1"
       d="m 17.184776,39.084116 c 0,0 -4.061678,2.565274 -5.023653,6.306291 -0.961977,3.741022 -1.068864,19.880848 -1.068864,19.880848 h 1.057502 c 0,0 0.06184,-16.978638 0.888625,-19.659682 1.014282,-3.28903 4.275238,-5.598958 4.275238,-5.598958 z"
       id="path17"
       sodipodi:nodetypes="csccscc" />
    <path
       style="fill:#343434;fill-opacity:1;stroke:#000000;stroke-width:0;stroke-dasharray:none;stroke-opacity:1"
       d="m 16.753133,54.187397 c 0,0 -7.1266072,-7.126611 -7.8767788,-11.627626 -0.7501691,-4.501016 -0.3750845,-13.034194 4.4072448,-14.722072 4.78233,-1.687881 16.597496,4.407243 17.535207,5.532498 0.937713,1.125254 -1.219024,7.595465 -1.219024,7.595465 l 0.937714,1.969196 -4.68856,-2.15674 -1.875423,0.562626 -0.187543,-1.125252 -3.188219,-2.34428 3.844617,1.125255 1.312796,-1.031484 0.375086,1.40657 2.250507,1.125252 c 0,0 1.28248,-4.938071 0.310933,-5.805917 -1.405574,-1.255546 -11.543735,-3.972949 -12.762761,-3.972949 -1.219025,0 -3.750846,2.156734 -3.938389,3.188218 -0.187544,1.031484 -0.103652,3.855468 -0.197423,5.637118 -0.09377,1.781652 2.992759,7.015064 4.024238,8.421629 1.031482,1.40657 4.780396,7.535287 4.780396,7.535287 z"
       id="path11"
       sodipodi:nodetypes="csssccccccccccssssscc" />
    <path
       style="fill:#909090;fill-opacity:1;stroke:#000000;stroke-width:0.695;stroke-dasharray:none;stroke-opacity:1"
       d="m 24.61354,15.988616 h 6.944492"
       id="path18"
       sodipodi:nodetypes="cc" />
    <path
       style="fill:none;fill-opacity:1;stroke:#000000;stroke-width:0.395;stroke-dasharray:none;stroke-opacity:1"
       d="m 24.102893,21.158196 c 0.06544,0.130875 0.785253,1.52688 0.58894,1.963132 -0.196313,0.436251 -1.483255,1.984944 -1.483255,1.984944"
       id="path19" />
    <path
       style="fill:none;fill-opacity:1;stroke:#000000;stroke-width:0.36;stroke-dasharray:none;stroke-opacity:1"
       d="m 32.787184,21.091823 c -0.06544,0.130875 -0.785253,1.52688 -0.58894,1.963132 0.196313,0.436251 1.483255,1.984944 1.483255,1.984944"
       id="path19-9" />
  </g>
</svg>
