<?xml version="1.0" encoding="UTF-8" standalone="no"?>
<!-- Created with Inkscape (http://www.inkscape.org/) -->

<svg
   width="256"
   height="256"
   viewBox="0 0 67.733332 67.733333"
   version="1.1"
   id="svg1"
   xml:space="preserve"
   inkscape:version="1.3 (0e150ed6c4, 2023-07-21)"
   sodipodi:docname="Demon.svg"
   xmlns:inkscape="http://www.inkscape.org/namespaces/inkscape"
   xmlns:sodipodi="http://sodipodi.sourceforge.net/DTD/sodipodi-0.dtd"
   xmlns="http://www.w3.org/2000/svg"
   xmlns:svg="http://www.w3.org/2000/svg"><sodipodi:namedview
     id="namedview1"
     pagecolor="#505050"
     bordercolor="#ffffff"
     borderopacity="1"
     inkscape:showpageshadow="0"
     inkscape:pageopacity="0"
     inkscape:pagecheckerboard="1"
     inkscape:deskcolor="#505050"
     inkscape:document-units="mm"
     inkscape:zoom="2.9683221"
     inkscape:cx="409.15371"
     inkscape:cy="128.1869"
     inkscape:window-width="1920"
     inkscape:window-height="1009"
     inkscape:window-x="-8"
     inkscape:window-y="-8"
     inkscape:window-maximized="1"
     inkscape:current-layer="layer1" /><defs
     id="defs1" /><g
     inkscape:label="Шар 1"
     inkscape:groupmode="layer"
     id="layer1"><path
       style="fill:#4e2100;fill-opacity:1;stroke:#000000;stroke-width:0"
       d="m 21.303421,49.648558 c 0.713086,5.882954 -0.445678,7.309125 -0.534814,8.82443 -0.08913,1.515306 0.178272,2.050122 0.178272,3.119748 0,1.069628 -0.267407,2.139256 -0.445679,2.495798 -0.178271,0.356542 -0.267406,1.693577 -0.267406,1.693577 l 0.267406,0.980493 1.2479,0.534815 c 0,0 0.980492,0 1.782713,0 0.80222,0 3.119748,0 3.119748,0 0,0 0.623948,-0.534815 0.178271,-1.069628 -0.445678,-0.534816 -1.426171,-1.337035 -1.426171,-1.337035 0,0 -0.713085,-0.802222 -0.713085,-1.247899 0,-0.445678 -0.267407,-0.802222 0.267408,-1.069629 0.534813,-0.267406 0.267406,0.267407 1.069626,-0.534812 0.802222,-0.802222 2.495798,-1.069629 0.980493,-2.495799 -1.515306,-1.42617 -1.782713,-0.267407 -1.515306,-1.693577 0.267406,-1.42617 -0.62395,-1.604444 1.158764,-2.317528 1.782712,-0.713086 2.763205,-0.891357 2.941476,-1.42617 0.178271,-0.534815 -1.337035,-1.87185 -0.80222,-2.317528 0.534813,-0.445677 0.980491,-1.693576 1.871848,-0.802222 0.891358,0.891358 1.515306,0.623951 1.42617,2.763208 -0.08913,2.139254 0.445678,2.406661 -0.534812,2.852341 -0.980493,0.445677 -3.030615,-1.871851 -1.782715,0.802219 1.247899,2.67407 2.050121,2.941476 2.139256,3.743698 0.08914,0.802222 0.178271,2.139257 0.08914,2.495799 -0.08914,0.356542 -0.623951,0.08913 0.178271,1.604441 0.802222,1.515306 -0.356542,1.515306 1.247899,1.693577 1.604441,0.178271 4.367647,0.178271 4.367647,0.178271 0,0 0.534815,0.356544 0.891357,-0.356542 0.356542,-0.713084 1.871848,-0.445678 -0.178271,-2.050119 -2.050121,-1.604444 -3.11975,-0.802222 -2.67407,-1.782715 0.445678,-0.98049 1.782713,-0.178271 1.782713,-1.337034 0,-1.158764 -0.267407,-1.960984 -0.267407,-2.495797 0,-0.534815 -0.623951,-1.337034 -0.891357,-1.782714 -0.267407,-0.445678 -1.158764,-0.356542 0.08914,-1.158764 1.2479,-0.80222 1.69358,0.623951 1.604441,-1.069626 -0.08913,-1.693579 -1.247896,-2.852343 -1.42617,-3.208885 -0.178271,-0.356542 0.267409,-0.623948 0,-1.515306 -0.267406,-0.891357 1.515309,-0.445677 -1.158761,-1.247899 -2.67407,-0.802222 -3.565427,-1.2479 -4.813326,-1.069629 -1.2479,0.178271 -1.337035,0.534816 -3.208883,0.802222 -1.87185,0.267407 -3.565427,0.267407 -4.100241,0.267407 -0.534814,0 -1.693577,0.267406 -1.693577,0.267406 z"
       id="path17" /><path
       style="fill:#2b0707;fill-opacity:1;stroke:#000000;stroke-width:0"
       d="m 16.648013,21.237187 c -2.205995,2.899308 -5.924672,10.210605 -6.239814,17.017676 -0.315143,6.807067 0.315142,15.441964 4.853188,13.92928 4.538048,-1.512681 4.159877,-2.269024 3.844734,-7.059184 -0.315143,-4.790159 -0.630284,-10.084548 0.567256,-12.416599 1.197541,-2.332051 3.214449,-5.987701 2.458109,-1.008454 -0.756341,4.979244 -1.701768,2.205995 -1.57571,8.193693 0.126055,5.987701 -3.907763,11.029977 3.97079,11.849346 7.878553,0.81937 16.387391,1.827824 16.576476,-1.701768 0.189084,-3.529592 -1.134512,-4.033819 -2.079937,-7.563411 -0.945428,-3.529592 -0.693314,-5.420444 -1.701769,-8.760952 -1.008454,-3.340505 -2.710222,-5.861642 -1.134512,-5.861642 1.57571,0 9.517293,7.752495 13.17294,6.176785 3.65565,-1.57571 2.89931,-2.521138 -0.441198,-5.420445 -3.340507,-2.899307 -5.609529,-3.97079 -8.887007,-4.72713 C 36.75408,23.128038 16.648013,21.237187 16.648013,21.237187 Z"
       id="path16" /><path
       style="fill:#000000;fill-opacity:0.316872;stroke:#000000;stroke-width:0"
       d="m 14.239421,25.158538 c 0,0 -0.534814,1.069628 -0.668518,1.470738 -0.133703,0.401111 3.676846,1.559875 5.169868,1.960986 1.493023,0.401108 5.348139,0.601665 6.105792,0.311973 0.757652,-0.28969 2.050121,-1.738143 2.317527,-1.983268 0.267407,-0.245123 0.557099,-0.646233 0.73537,-0.490246 0.178271,0.155988 0.267406,0.267407 0.779936,0.423395 0.51253,0.155988 2.651786,0.200554 3.186599,0.155988 0.534816,-0.04457 3.387156,-0.423395 3.387156,-0.423395 l 3.119747,-2.986045 -1.225616,-0.111419 -12.568126,1.292467 z"
       id="path20" /><path
       style="fill:#5d2121;fill-opacity:1;stroke:#000000;stroke-width:0"
       d="m 15.576079,19.093134 c -0.882398,3.466563 -3.403535,5.987701 0.693313,7.437353 4.096847,1.449655 7.56341,1.449655 8.887007,0.819369 1.323596,-0.630282 1.26057,-1.638739 2.269024,-2.079937 1.008454,-0.441198 0.441198,0.945425 2.962336,0.945425 2.521138,0 6.933126,-0.504227 7.374326,-2.205992 0.441198,-1.701769 -1.071483,-3.781706 -2.39508,-4.790162 -1.323599,-1.008455 -1.323599,-1.827824 -2.83628,-1.449653 -1.512681,0.378169 -16.954646,1.323597 -16.954646,1.323597 z"
       id="path10" /><path
       style="fill:#9c1e1e;fill-opacity:1;stroke:#000000;stroke-width:0"
       d="m 18.034188,18.399821 c 0,0 -2.205995,0.441198 2.962336,-2.142966 5.16833,-2.584165 3.907762,-1.260568 7.815523,-0.504227 3.907763,0.75634 4.727133,-7.8155261 4.727133,-7.1222141 0,0.693314 1.764797,3.9707931 1.197541,6.8070711 -0.567256,2.83628 -1.512684,2.016911 -0.819369,5.483474 0.693311,3.466563 -4.790162,0 -7.248271,2.205995 -2.458109,2.205993 -9.832434,0.252113 -10.966945,-4.285935 -1.134512,-4.538046 6.870098,-17.90007069 6.870098,-17.90007069 0,0 -1.701767,6.74404059 -2.521137,8.82397859 -0.819369,2.0799371 -2.205995,5.4204451 -2.39508,6.6810121 -0.189085,1.26057 0.378171,1.953882 0.378171,1.953882 z"
       id="path9" /><ellipse
       style="fill:#ee9e9e;fill-opacity:1;stroke:#000000;stroke-width:0"
       id="path11"
       cx="21.877975"
       cy="19.821253"
       rx="0.61280757"
       ry="1.0919118" /><ellipse
       style="fill:#ee9e9e;fill-opacity:1;stroke:#000000;stroke-width:0"
       id="path12"
       cx="29.465651"
       cy="19.286436"
       rx="0.53481394"
       ry="1.0250599" /><path
       style="fill:#ee9e9e;fill-opacity:1;stroke:#000000;stroke-width:0"
       d="m 24.021887,21.488214 c 0,0 -0.126056,0.504227 0.81937,0.81937 0.945427,0.315142 1.134512,0.189085 2.01691,0 0.882399,-0.189086 1.134512,-1.197541 1.134512,-1.197541 0,0 -0.252113,0.630284 -0.756343,0.693313 -0.504227,0.06303 -1.386623,0.504228 -1.890852,0.252114 -0.504227,-0.252114 -1.323597,-0.567256 -1.323597,-0.567256 z"
       id="path15" /><path
       style="fill:#ff931a;fill-opacity:1;stroke:#000000;stroke-width:0"
       d="M 8.0222088,44.122147 0.89135648,60.255701 c 0,0 4.81332542,-3.298018 7.21998812,-2.852341 2.4066624,0.44568 2.8523414,-1.604441 1.7827133,-2.584934 -1.069628,-0.98049 -3.5654266,-3.476289 -0.62395,-2.22839 2.9414771,1.2479 6.2394961,-2.139256 6.2394961,-2.139256 0,0 0,0.980493 -0.802221,-0.623949 -0.802221,-1.604444 -0.713085,-4.456784 -1.515306,-3.387156 -0.802221,1.069629 -2.139256,2.67407 -2.941477,2.139257 -0.8022211,-0.534816 -0.8913561,-3.298021 0.178272,-5.615546 1.069627,-2.317528 4.545918,-6.596038 4.545918,-6.596038 0,0 -6.0612251,5.437274 -6.9525812,7.754799 z"
       id="path18" /><path
       style="fill:#ff931a;fill-opacity:1;stroke:#000000;stroke-width:0"
       d="m 17.861428,43.926728 c 0,0 46.617947,-48.0441167 46.885353,-40.2001793 0.267409,7.8439373 1.515306,27.6320513 1.515306,27.6320513 0,0 -2.852341,-10.161464 -4.011105,-12.924669 -1.158761,-2.763205 -3.387153,-3.476291 -3.387153,-3.476291 0,0 0.178271,-1.337034 -0.623949,2.139256 -0.802221,3.476291 -37.615246,29.949579 -38.77401,30.484392 -1.158764,0.534816 -1.604442,-3.65456 -1.604442,-3.65456 z"
       id="path19" /></g></svg>
