<?xml version="1.0" encoding="UTF-8" standalone="no"?>
<!-- Created with Inkscape (http://www.inkscape.org/) -->

<svg
   width="256"
   height="256"
   viewBox="0 0 67.733332 67.733333"
   version="1.1"
   id="svg1"
   xml:space="preserve"
   inkscape:version="1.3 (0e150ed6c4, 2023-07-21)"
   sodipodi:docname="Fishman.svg"
   inkscape:export-filename="..\Assets\Sprites\Units\Fishman.png"
   inkscape:export-xdpi="96"
   inkscape:export-ydpi="96"
   xmlns:inkscape="http://www.inkscape.org/namespaces/inkscape"
   xmlns:sodipodi="http://sodipodi.sourceforge.net/DTD/sodipodi-0.dtd"
   xmlns="http://www.w3.org/2000/svg"
   xmlns:svg="http://www.w3.org/2000/svg"><sodipodi:namedview
     id="namedview1"
     pagecolor="#505050"
     bordercolor="#ffffff"
     borderopacity="1"
     inkscape:showpageshadow="0"
     inkscape:pageopacity="0"
     inkscape:pagecheckerboard="1"
     inkscape:deskcolor="#505050"
     inkscape:document-units="mm"
     inkscape:zoom="3.0324635"
     inkscape:cx="110.96589"
     inkscape:cy="139.65543"
     inkscape:window-width="1920"
     inkscape:window-height="1009"
     inkscape:window-x="-8"
     inkscape:window-y="-8"
     inkscape:window-maximized="1"
     inkscape:current-layer="layer1" /><defs
     id="defs1" /><g
     inkscape:label="Шар 1"
     inkscape:groupmode="layer"
     id="layer1"><path
       style="fill:#fc85e6;fill-opacity:1;stroke:#000000;stroke-width:0"
       d="m 29.911579,35.301557 2.551777,1.053993 -1.664201,5.214502 -3.106514,-0.05547 z"
       id="path18" /><path
       d="m 29.603361,53.086165 c -9.99e-4,-5.42e-4 -0.05116,-0.02842 -0.05116,-0.02842 0,0 -0.267847,-0.06559 -0.557043,0.01491 -0.289197,0.08049 -0.676205,0.0348 -1.154343,0.140834 -0.478138,0.106039 -1.036749,0.199778 -1.603574,0.276415 -0.283412,0.03832 -0.53884,0.15702 -0.825626,0.17768 -0.286787,0.02067 -0.539214,0.172512 -0.816843,0.168652 -0.277628,-0.0039 -0.545867,-0.03467 -0.840666,-0.06672 -0.2948,-0.03205 -0.539739,-0.174256 -0.836888,-0.226314 -0.594298,-0.10411 -1.156854,-0.207493 -1.671624,-0.342452 -0.514769,-0.134958 -1.014785,-0.246903 -1.331455,-0.347157 -0.31667,-0.100255 -0.526175,-0.05785 -0.526175,-0.05785 10e-5,0.01539 0.0048,0.03882 0.0047,0.05374 -0.0012,0.100363 -0.0091,0.190095 -0.02377,0.268201 -0.01471,0.07811 -0.03673,0.144502 -0.06615,0.198437 -0.05884,0.107871 -0.221674,0.307607 -0.461471,0.577743 -0.239797,0.270136 -0.556523,0.610747 -0.922424,0.999939 -0.731803,0.778383 -1.66071,1.751769 -2.567802,2.747119 -0.453546,0.497675 -0.901629,1.000662 -1.316716,1.487765 -0.415086,0.487102 -0.797022,0.958326 -1.118794,1.391646 -0.160887,0.21666 -0.30681,0.423971 -0.434082,0.619084 -0.127273,0.195113 -0.236176,0.378055 -0.322978,0.546219 -0.0868,0.168165 -0.151728,0.321522 -0.191203,0.457337 -0.03947,0.135815 -0.05347,0.253852 -0.03876,0.351916 0.05884,0.392256 0.08855,0.897253 0.130224,1.436605 0.02084,0.269676 0.0443,0.548242 0.07648,0.825273 0.03218,0.277031 0.07267,0.552748 0.126607,0.817521 0.05393,0.264773 0.121627,0.518473 0.207739,0.751375 0.04306,0.116451 0.09061,0.227474 0.143661,0.33228 0.05305,0.104806 0.111345,0.20333 0.175699,0.294039 0.06435,0.09071 0.134917,0.173886 0.211874,0.248047 0.07696,0.07416 0.160285,0.139142 0.251147,0.194303 0.09086,0.05516 0.189003,0.100133 0.295073,0.133842 0.10607,0.03371 0.220034,0.05634 0.342614,0.06615 0.24516,0.01961 0.446213,0.02432 0.611849,0.01344 0.165637,-0.01088 0.295879,-0.0371 0.399459,-0.08062 0.05179,-0.02176 0.09687,-0.04823 0.136426,-0.07855 0.03955,-0.03032 0.07386,-0.06472 0.103353,-0.103869 0.05899,-0.0783 0.0999,-0.17468 0.131775,-0.289905 0.06374,-0.23045 0.09083,-0.536562 0.150895,-0.927592 0.03003,-0.195515 0.06819,-0.412245 0.123507,-0.651123 0.05531,-0.238878 0.127762,-0.500063 0.225826,-0.784448 0.09806,-0.284386 0.217916,-0.556694 0.358117,-0.818555 0.140201,-0.261862 0.300687,-0.513222 0.479041,-0.756543 0.178354,-0.243321 0.375038,-0.478686 0.587561,-0.70745 0.212523,-0.228765 0.440971,-0.451018 0.683679,-0.66921 0.242709,-0.218193 0.499519,-0.432285 0.768429,-0.643889 0.26891,-0.211603 0.549648,-0.420936 0.840775,-0.629935 0.582255,-0.417998 1.205378,-0.834591 1.8526,-1.266073 0.161806,-0.10787 0.328482,-0.207883 0.499711,-0.300757 0.171229,-0.09287 0.346889,-0.178821 0.52555,-0.257348 0.17866,-0.07853 0.360569,-0.149624 0.544669,-0.214458 0.1841,-0.06483 0.370042,-0.123393 0.557589,-0.175183 0.375095,-0.10358 0.755297,-0.181364 1.132231,-0.236678 0.376933,-0.05531 0.75079,-0.08799 1.113627,-0.100252 0.362837,-0.01226 0.714676,-0.0044 1.047481,0.02119 0.332805,0.02559 0.646439,0.0689 0.933276,0.127124 0.286838,0.05823 0.547112,0.131388 0.772046,0.217041 0.112468,0.04283 0.216055,0.08875 0.310059,0.13746 0.094,0.04871 0.178116,0.100577 0.251664,0.154512 0.147096,0.107871 0.30422,0.246132 0.466638,0.408244 0.162419,0.162112 0.330034,0.348097 0.499195,0.550354 0.16916,0.202257 0.339624,0.420751 0.506945,0.649056 0.167322,0.228305 0.331957,0.46616 0.48886,0.706417 0.156902,0.240257 0.305997,0.482774 0.4439,0.720886 0.137903,0.238112 0.264332,0.471628 0.374654,0.693498 0.110322,0.22187 0.204892,0.432203 0.279053,0.623734 0.07416,0.191532 0.128194,0.364501 0.157613,0.511597 0.02942,0.147096 0.04004,0.325801 0.03927,0.526066 -7.66e-4,0.200265 -0.01323,0.421935 -0.03101,0.654224 -0.03555,0.464578 -0.09176,0.972351 -0.116272,1.438155 -0.01226,0.232902 -0.01647,0.455316 -0.0062,0.656807 0.01027,0.201491 0.03465,0.381783 0.08061,0.530717 0.02298,0.07447 0.0514,0.141074 0.08578,0.198438 0.03438,0.05736 0.07505,0.105527 0.122473,0.143143 0.04742,0.03762 0.101701,0.06487 0.163815,0.0801 0.06211,0.01523 0.131871,0.01859 0.210323,0.0088 0.156902,-0.01961 0.317331,-0.06745 0.478524,-0.13901 0.161192,-0.07156 0.323303,-0.167024 0.482657,-0.281636 0.159354,-0.114612 0.316286,-0.248611 0.467672,-0.397392 0.151386,-0.148781 0.297309,-0.312212 0.434599,-0.486275 0.13729,-0.174064 0.265858,-0.358345 0.382922,-0.548804 0.117064,-0.190459 0.22245,-0.38701 0.313159,-0.584977 0.09071,-0.197967 0.166567,-0.397691 0.224793,-0.594279 0.05823,-0.196588 0.09873,-0.390388 0.118339,-0.576709 0.01961,-0.186322 0.01246,-0.415139 -0.01757,-0.675928 -0.03003,-0.260789 -0.0829,-0.553518 -0.153996,-0.866097 -0.0711,-0.312579 -0.160486,-0.645328 -0.264066,-0.98702 -0.103581,-0.341692 -0.221333,-0.692119 -0.348816,-1.040246 -0.127484,-0.348128 -0.264922,-0.693892 -0.407727,-1.025777 -0.142806,-0.331886 -0.290736,-0.650129 -0.440284,-0.943095 -0.149547,-0.292967 -0.300325,-0.56083 -0.448034,-0.7922 -0.147709,-0.23137 -0.292658,-0.425996 -0.429948,-0.573092 -0.137289,-0.147096 -0.292656,-0.281755 -0.460437,-0.410311 -0.167781,-0.128555 -0.347592,-0.251136 -0.533301,-0.373103 -0.185708,-0.121968 -0.377369,-0.243707 -0.568441,-0.371037 -0.191071,-0.12733 -0.381987,-0.259982 -0.565857,-0.404627 -0.18387,-0.144644 -0.360928,-0.300996 -0.525032,-0.474906 -0.164104,-0.173911 -0.315228,-0.365715 -0.447001,-0.580843 -0.06589,-0.107564 -0.12697,-0.220955 -0.182418,-0.341065 -0.05545,-0.120109 -0.104872,-0.246706 -0.148311,-0.380855 -0.04344,-0.134149 -0.08073,-0.275615 -0.110588,-0.425297 -0.01964,-0.09847 -0.03072,-0.206396 -0.04393,-0.312126 z"
       style="fill:#fc85e6;fill-opacity:1;stroke:#000000;stroke-width:0"
       id="path24"
       sodipodi:nodetypes="scsssscsssscccsssssssssssssssssssssssssssssssssssssssssssssssssssssssssssssscssssssssssssssssssssssssscs" /><path
       style="fill:#000000;fill-opacity:0.3137255;stroke:#000000;stroke-width:0"
       d="m 30.352195,35.489057 0.676191,5.376799 c 0,0 -0.109064,0.719815 -0.229032,0.719815 -0.11997,0 -1.35238,-1.406912 -1.7341,-3.391856 -0.38172,-1.984943 0.763439,-2.911977 0.839785,-2.890165 0.07634,0.0218 0.447156,0.185407 0.447156,0.185407 z"
       id="path25" /><path
       style="fill:#340000;fill-opacity:1;stroke:#000000;stroke-width:0"
       d="m 48.134602,31.88994 c 0,0 5.186767,-3.994088 7.461178,-4.16051 2.274411,-0.166418 4.312949,1.999477 4.604293,2.718199 0.20629,0.508899 0.02773,2.967828 -0.277366,3.439352 -0.313542,0.484575 -4.992609,1.386838 -8.071386,0.443788 -3.078774,-0.943048 -3.716719,-2.440829 -3.716719,-2.440829 z"
       id="path16"
       sodipodi:nodetypes="cssssc" /><path
       d="m 36.594149,9.9141235 c -0.506869,0.00153 -1.022802,0.014987 -1.543575,0.040824 -0.520774,0.025838 -1.046703,0.064405 -1.573031,0.1162721 -0.526328,0.05187 -1.053116,0.116751 -1.576648,0.19637 -0.523531,0.07962 -1.043593,0.173574 -1.555977,0.28267 -0.512385,0.109097 -1.017099,0.233324 -1.509986,0.373621 -0.492886,0.140297 -0.97415,0.297035 -1.439188,0.470256 -0.465038,0.17322 -0.913715,0.363155 -1.342554,0.571024 -0.214419,0.103935 -0.424065,0.212125 -0.627869,0.325045 -0.203803,0.11292 -0.402134,0.230313 -0.594279,0.352433 -0.192144,0.12212 -0.378147,0.249319 -0.557588,0.380855 -0.179441,0.131537 -0.352104,0.267593 -0.517798,0.408761 -0.165694,0.141168 -0.324004,0.287201 -0.474906,0.438216 -0.150903,0.151015 -0.294364,0.307111 -0.429432,0.468189 -0.135067,0.161077 -0.262149,0.327321 -0.380338,0.498677 -0.118189,0.171356 -0.227362,0.347834 -0.327629,0.529684 -0.100266,0.181849 -0.191551,0.369164 -0.272851,0.561722 -0.0813,0.192559 -0.152651,0.39028 -0.213941,0.593763 -0.12258,0.406965 -0.250249,0.861302 -0.381889,1.355989 -0.131639,0.494687 -0.267164,1.029791 -0.405143,1.598869 -0.275958,1.138156 -0.561978,2.411477 -0.846977,3.767212 -0.284998,1.355735 -0.569011,2.794052 -0.841292,4.260722 -0.272281,1.46667 -0.53269,2.961844 -0.770495,4.432804 -0.237806,1.47096 -0.453015,2.917438 -0.634587,4.286044 -0.09079,0.684302 -0.173332,1.349273 -0.24598,1.987992 -0.07265,0.638718 -0.135795,1.251092 -0.187585,1.830896 -0.05179,0.579803 -0.09219,1.126967 -0.120406,1.634525 -0.02821,0.507558 -0.04408,0.975866 -0.04599,1.397848 -0.0019,0.421982 0.0101,0.797787 0.03721,1.120862 0.0271,0.323075 0.06932,0.593247 0.128157,0.804085 0.235354,0.84335 0.505206,1.731074 0.769979,2.601392 0.264773,0.870317 0.524782,1.723333 0.740523,2.498038 0.107871,0.387353 0.204351,0.755075 0.285254,1.095541 0.0809,0.340466 0.146041,0.653469 0.190169,0.931726 0.04085,0.257563 0.05921,0.47707 0.06046,0.668693 0,0 0.187692,0.06666 0.504362,0.166915 0.31667,0.100254 0.762155,0.234011 1.276924,0.368969 0.51477,0.134959 1.099139,0.271061 1.693437,0.375171 0.297149,0.05206 0.596619,0.09611 0.891419,0.128158 0.294799,0.03205 0.584851,0.05195 0.862479,0.05581 0.277629,0.0039 0.562774,-0.0062 0.849561,-0.02687 0.286786,-0.02067 0.574933,-0.05212 0.858345,-0.09043 0.566825,-0.07664 1.11453,-0.181282 1.592668,-0.287321 0.478138,-0.106039 0.886959,-0.213029 1.176156,-0.293522 0.289196,-0.08049 0.458886,-0.134876 0.458886,-0.134876 0,0 0.05016,0.02788 0.05116,0.02842 -0.0069,-0.05499 -0.01822,-0.105228 -0.02325,-0.162264 -0.05884,-0.666834 -0.103113,-1.304476 -0.117823,-1.906343 -0.0074,-0.300934 -0.0071,-0.592489 0.0021,-0.874882 0.0092,-0.282394 0.02743,-0.5552 0.05684,-0.817521 0.02942,-0.262322 0.06967,-0.514276 0.12299,-0.754993 0.05332,-0.240717 0.119602,-0.470234 0.200505,-0.687813 0.0809,-0.21758 0.17671,-0.42359 0.288871,-0.6165 0.112161,-0.192911 0.240994,-0.372793 0.38809,-0.539502 0.07355,-0.08335 0.135184,-0.200075 0.186552,-0.345715 0.05137,-0.145641 0.0921,-0.32027 0.123507,-0.520382 0.03141,-0.200112 0.0535,-0.425542 0.06718,-0.672311 0.01367,-0.246768 0.01889,-0.514856 0.01705,-0.800467 -0.0037,-0.571223 -0.03596,-1.212169 -0.08837,-1.891875 -0.0524,-0.679706 -0.124902,-1.398228 -0.208256,-2.123901 -0.08335,-0.725674 -0.177354,-1.458701 -0.273885,-2.167826 -0.09653,-0.709126 -0.195386,-1.394105 -0.287321,-2.024166 -0.18387,-1.260123 -0.340621,-2.299788 -0.399459,-2.868559 -0.01471,-0.142193 -0.01348,-0.27871 0.0021,-0.409794 0.01555,-0.131084 0.04525,-0.256899 0.08785,-0.376721 0.0426,-0.119822 0.09791,-0.233692 0.164331,-0.342098 0.06642,-0.108407 0.143962,-0.211154 0.230993,-0.307992 0.08703,-0.09684 0.183415,-0.187735 0.287838,-0.272851 0.104423,-0.08512 0.216784,-0.16447 0.33538,-0.237712 0.118596,-0.07324 0.243552,-0.140325 0.373104,-0.201538 0.129552,-0.06121 0.26372,-0.116849 0.401009,-0.165881 0.274579,-0.09806 0.561269,-0.171206 0.847494,-0.219625 0.286224,-0.04842 0.572265,-0.0717 0.844393,-0.06925 0.136063,0.0012 0.268645,0.0086 0.396358,0.02274 0.127713,0.01417 0.250241,0.03525 0.366386,0.06253 0.116144,0.02727 0.225753,0.06076 0.327112,0.101286 0.101358,0.04053 0.194664,0.08766 0.278019,0.141594 1.333672,0.86296 8.629447,5.413106 8.629447,5.413106 L 53.664425,17.62063 c 0,0 -0.362715,-0.372269 -0.998906,-0.950846 -0.318095,-0.289289 -0.704664,-0.630072 -1.14825,-1.00149 -0.443587,-0.371417 -0.944158,-0.773588 -1.490865,-1.185457 -0.546707,-0.411869 -1.139361,-0.833726 -1.766817,-1.244369 -0.313729,-0.205321 -0.636112,-0.40793 -0.965833,-0.605131 -0.329721,-0.1972 -0.66684,-0.388704 -1.009757,-0.572574 -0.342918,-0.18387 -0.69158,-0.359703 -1.044898,-0.525033 -0.353318,-0.16533 -0.711364,-0.320407 -1.072286,-0.461987 -0.360921,-0.14158 -0.724644,-0.269786 -1.090373,-0.382406 -0.365728,-0.11262 -0.733484,-0.209386 -1.101224,-0.287838 -0.36774,-0.07845 -0.761108,-0.148765 -1.176156,-0.209806 -0.415048,-0.06104 -0.851858,-0.113122 -1.305863,-0.155029 -0.454006,-0.041907 -0.925121,-0.073519 -1.409733,-0.094568 -0.484613,-0.021049 -0.982447,-0.031505 -1.489315,-0.029972 z"
       style="fill:#ff9d33;stroke:#000000;stroke-width:0;fill-opacity:1"
       id="path23" /><path
       style="fill:#dedede;fill-opacity:1;stroke:#000000;stroke-width:0"
       d="m 49.493701,32.638829 0.776627,-0.665681 0.443788,1.220418 1.109469,-1.331363 1.220418,2.218937 1.109468,-2.218937 0.99852,2.218937 1.442309,-2.440832 0.77663,2.218939 0.554733,-2.107993 1.220417,1.886099 0.33284,-1.331363 0.332838,1.220414 0.221894,-1.220414 0.443788,1.553257 c 0,0 0.859841,1.026258 -3.245194,1.580991 -4.105037,0.554732 -5.075819,0.08321 -5.519606,-0.02773 -0.443788,-0.110947 -2.995566,-0.887571 -2.995566,-0.887571 z"
       id="path4"
       sodipodi:nodetypes="cccccccccccccccsscc" /><path
       d="m 23.62878,38.564405 -0.208962,-0.09068 -0.473122,-0.109078 -5.432361,23.73167 c 0.122034,-0.120102 0.237494,-0.242132 0.367983,-0.359441 0.173141,-0.15565 0.361271,-0.307315 0.548034,-0.459323 z"
       style="fill-opacity:0.313725;stroke:#000000;stroke-width:0"
       id="path20" /><path
       d="m 29.990837,10.628352 c -0.260552,0.05852 -0.516503,0.124578 -0.772108,0.19122 l -6.293181,27.494305 0.404125,0.175449 0.218162,0.0506 -0.0092,0.04008 0.04929,0.02168 z"
       style="fill-opacity:0.313725;stroke:#000000;stroke-width:0"
       id="path19" /><path
       style="fill:#fffffe;fill-opacity:1;stroke:#000000;stroke-width:0"
       d="m 50.381277,31.529361 1.442308,1.44231 0.332842,-2.329886 1.553257,1.997044 0.887572,-2.662726 1.442311,2.218938 1.220414,-2.551777 1.220418,2.662726 0.554732,-1.997045 0.332844,1.442309 0.332838,-0.887575 0.221894,1.109469 0.443787,-0.665682 c 0,0 0.221895,-2.440829 -2.218937,-3.328404 -2.440832,-0.887575 -9.097644,0 -9.097644,0 z"
       id="path3" /><path
       style="fill:#ffba6e;fill-opacity:1;stroke:#000000;stroke-width:0"
       d="m 53.376841,17.328161 c 0,0 6.323972,4.215982 6.989653,10.207113 0.665682,5.99113 -0.332842,2.551778 -2.77367,2.218935 -2.440833,-0.332838 -8.542911,2.329887 -8.542911,2.329887 0,0 3.328408,1.664202 5.436398,1.775151 2.107989,0.110947 4.881664,-1.10947 5.65829,-0.665681 0.776627,0.443787 0.99852,2.440828 0,2.995564 -0.998521,0.554732 -12.536996,1.553257 -14.312146,1.220414 -1.77515,-0.332838 -5.325451,-1.997045 -6.102078,-4.215978 -0.776627,-2.218939 -1.220415,-6.656814 0,-9.097645 1.220414,-2.440832 3.661246,-5.436397 5.991129,-6.213026 2.329888,-0.776628 5.880185,-0.998521 7.655335,-0.554734 z"
       id="path1" /><path
       style="fill:#512b00;fill-opacity:1;stroke:#000000;stroke-width:0"
       d="m 17.742053,67.417449 7.34883,-32.106839 0.691537,0.159962 -7.378097,32.234702 z"
       id="path10-0" /><circle
       style="fill:#ff0909;fill-opacity:1;stroke:#000000;stroke-width:0"
       id="path2"
       cx="48.439709"
       cy="23.929499"
       r="1.5532562" /><ellipse
       style="fill:#ff0909;fill-opacity:1;stroke:#000000;stroke-width:0"
       id="path2-9"
       cx="49.378807"
       cy="23.241674"
       rx="0.97078538"
       ry="1.0262587"
       transform="matrix(1,0,0.32432407,0.94594603,0,0)" /><ellipse
       style="fill:#303030;fill-opacity:1;stroke:#000000;stroke-width:0"
       id="path2-9-1"
       cx="49.471985"
       cy="23.418324"
       rx="0.58128554"
       ry="0.61450177"
       transform="matrix(1,0,0.32432407,0.94594603,0,0)" /><path
       style="fill:#000000;fill-opacity:0.313725;stroke:#000000;stroke-width:0"
       d="m 19.468705,32.985541 c 0,0 4.798452,0.970785 5.464133,1.192678 0.66568,0.221894 1.470046,0.124807 1.081732,1.372967 -0.388314,1.248151 -6.545865,-2.565645 -6.545865,-2.565645 z"
       id="path15" /><path
       style="fill:#fc85e6;fill-opacity:1;stroke:#000000;stroke-width:0"
       d="m 25.945227,35.61661 c 0,0 0.388314,-0.305106 -0.110946,-0.748893 -0.499261,-0.443787 -1.137205,0.24963 -1.137205,0.24963 l -0.332841,0.804367 z"
       id="path7" /><path
       style="fill:#000000;fill-opacity:0.360784;stroke:#000000;stroke-width:0"
       d="m 25.947348,35.612477 c 0,0 0.388314,-0.305107 -0.110946,-0.748894 -0.499261,-0.443787 -1.137205,0.24963 -1.137205,0.24963 l -0.332841,0.804367 z"
       id="path7-6" /><path
       d="m 25.994407,35.562343 c -0.166754,-0.05899 -0.308366,-0.106725 -0.511234,-0.182021 -0.356708,-0.132386 -0.761878,-0.286611 -1.189377,-0.452094 -0.427498,-0.165483 -0.877236,-0.342605 -1.323427,-0.51912 -0.892382,-0.353031 -1.770173,-0.705785 -2.424751,-0.970557 -0.654577,-0.264773 -1.085551,-0.440924 -1.085551,-0.440924 0,0 -0.08849,0.303424 -0.222106,0.783937 -0.06681,0.240256 -0.145212,0.524585 -0.229332,0.837164 -0.08412,0.312578 -0.174107,0.653667 -0.264816,1.006698 -0.09072,0.35303 -0.182188,0.718027 -0.268761,1.079638 -0.08657,0.361611 -0.168137,0.719632 -0.239846,1.057954 -0.03586,0.16916 -0.0691,0.333502 -0.09922,0.490864 -0.03012,0.157362 -0.05711,0.307886 -0.08017,0.449466 -0.02305,0.141579 -0.04251,0.274425 -0.05717,0.396239 -0.01465,0.121818 -0.02467,0.232465 -0.02957,0.330529 -0.0024,0.04903 -0.0013,0.100455 0.0033,0.153764 0.0046,0.05331 0.01259,0.109001 0.02365,0.16625 0.01119,0.05725 0.02541,0.115906 0.04271,0.176764 0.01729,0.06086 0.0374,0.123815 0.06045,0.187934 0.02307,0.06413 0.04913,0.129417 0.07754,0.196477 0.02841,0.06706 0.05931,0.13536 0.09265,0.205019 0.03334,0.06966 0.06924,0.140981 0.107107,0.212906 0.03787,0.07192 0.07762,0.144964 0.119593,0.218819 0.08396,0.147709 0.176067,0.298677 0.274016,0.452094 0.09795,0.153416 0.202178,0.308795 0.310815,0.465237 0.108632,0.156442 0.221726,0.313706 0.337757,0.470494 0.116033,0.156787 0.234712,0.313414 0.35484,0.467865 0.120128,0.15445 0.241795,0.307261 0.362727,0.456694 0.120929,0.149432 0.240999,0.295247 0.359442,0.43698 0.236886,0.283467 0.465724,0.549329 0.672885,0.785909 0.41432,0.473159 0.742586,0.83074 0.879875,0.987642 0.03432,0.03923 0.07089,0.0751 0.109077,0.107106 0.0382,0.03201 0.07838,0.06038 0.119593,0.08543 0.04123,0.02505 0.08343,0.04669 0.126829,0.06505 0.0434,0.01838 0.08799,0.03339 0.132737,0.04535 0.04475,0.01195 0.09013,0.02049 0.135366,0.02628 0.04524,0.0058 0.09047,0.0086 0.135365,0.0085 0.0449,-7.7e-5 0.08902,-0.0028 0.132737,-0.0085 0.0437,-0.0057 0.08646,-0.01394 0.128138,-0.02497 0.04168,-0.01106 0.08275,-0.02463 0.121564,-0.04074 0.03881,-0.01611 0.0753,-0.03494 0.1104,-0.05586 0.0351,-0.02092 0.06869,-0.0442 0.09922,-0.06966 0.03053,-0.02546 0.05833,-0.05308 0.08346,-0.08279 0.02513,-0.02973 0.04748,-0.06156 0.06636,-0.09528 0.01888,-0.03372 0.03419,-0.06898 0.04599,-0.106457 0.01183,-0.03746 0.01979,-0.07735 0.02365,-0.118284 0.0038,-0.04093 0.0036,-0.08335 -0.0013,-0.12748 -0.0024,-0.02206 -0.0019,-0.05352 0.0013,-0.09397 0.0032,-0.04045 0.0093,-0.0896 0.01774,-0.147193 0.01695,-0.115206 0.04424,-0.263829 0.08017,-0.440267 0.03594,-0.176439 0.08003,-0.380661 0.13208,-0.608487 0.05203,-0.227826 0.111494,-0.479084 0.176763,-0.748453 0.130548,-0.538739 0.285188,-1.150707 0.451437,-1.79655 0.16625,-0.645842 0.344096,-1.325407 0.523064,-1.999597 0.178966,-0.67419 0.358962,-1.342964 0.527663,-1.966742 0.168701,-0.623779 0.326499,-1.202715 0.46195,-1.697325 0.0029,-0.01068 0.0017,-0.0071 0.0046,-0.01774 z"
       style="fill:#fc85e6;fill-opacity:1;stroke:#000000;stroke-width:0"
       id="path9" /><path
       style="fill:#512b00;fill-opacity:1;stroke:#000000;stroke-width:0"
       d="M 25.160051,35.244237 32.508882,3.1373995 33.200418,3.2973609 25.822321,35.532062 Z"
       id="path10" /><path
       style="fill:#6f6f6f;fill-opacity:1;stroke:#000000;stroke-width:0"
       d="m 32.296392,3.2587803 1.132673,0.2115841 0.119237,-3.35738392 z"
       id="path11" /><circle
       style="fill:#303030;fill-opacity:1;stroke:#000000;stroke-width:0"
       id="path12"
       cx="48.565258"
       cy="24.210762"
       r="0.86296409" /><path
       style="fill:#000000;fill-opacity:0.313725;stroke:#000000;stroke-width:0"
       d="m 32.168653,65.572717 h 3.019836 c 0,0 -0.530465,0.915312 -1.001989,1.32096 -0.471524,0.405648 -0.773161,0.620607 -1.234282,0.752358 -0.461125,0.131748 -0.579008,-0.09361 -0.693422,-0.280835 -0.114418,-0.187223 -0.131747,-0.873706 -0.131747,-0.873706 0,0 0.01733,-0.707286 0.04161,-0.918777 z"
       id="path13" /><path
       style="fill:#000000;fill-opacity:0.313725;stroke:#000000;stroke-width:0"
       d="m 12.693403,66.790197 2.588893,0.235356 c 0,0 -0.127484,0.362835 -0.225548,0.431479 -0.09806,0.06864 -0.549159,0.196129 -1.108124,0.147097 -0.558966,-0.04903 -0.862965,-0.235352 -1.255221,-0.813932 z"
       id="path14" /><path
       style="fill:#fc85e6;fill-opacity:1;stroke:#000000;stroke-width:0"
       d="m 20.715048,20.052844 c 0,0 0.431482,-0.98064 -2.039734,-2.628118 -2.471216,-1.647477 -8.002031,-3.922564 -8.002031,-3.922564 0,0 6.354554,-4.001016 10.551698,-10.434021 4.197143,-6.4330053 7.374419,7.962805 7.374419,7.962805 z"
       id="path17" /><ellipse
       style="fill:#000000;fill-opacity:1;stroke:#000000;stroke-width:0"
       id="path21"
       cx="24.177872"
       cy="19.641911"
       rx="4.5417042"
       ry="1.728372"
       transform="matrix(0.95354651,0.30124582,0.58384095,0.81186806,0,0)" /></g></svg>
