<?xml version="1.0" encoding="UTF-8" standalone="no"?>
<!-- Created with Inkscape (http://www.inkscape.org/) -->

<svg
   width="256"
   height="256"
   viewBox="0 0 67.733332 67.733333"
   version="1.1"
   id="svg1"
   xml:space="preserve"
   inkscape:version="1.3 (0e150ed6c4, 2023-07-21)"
   sodipodi:docname="HolyPrincess.svg"
   inkscape:export-filename="..\Assets\Sprites\Units\Heroes\Holy princess.png"
   inkscape:export-xdpi="96"
   inkscape:export-ydpi="96"
   xmlns:inkscape="http://www.inkscape.org/namespaces/inkscape"
   xmlns:sodipodi="http://sodipodi.sourceforge.net/DTD/sodipodi-0.dtd"
   xmlns="http://www.w3.org/2000/svg"
   xmlns:svg="http://www.w3.org/2000/svg"><sodipodi:namedview
     id="namedview1"
     pagecolor="#505050"
     bordercolor="#ffffff"
     borderopacity="1"
     inkscape:showpageshadow="0"
     inkscape:pageopacity="0"
     inkscape:pagecheckerboard="1"
     inkscape:deskcolor="#505050"
     inkscape:document-units="mm"
     inkscape:zoom="1.4142136"
     inkscape:cx="114.90485"
     inkscape:cy="121.97592"
     inkscape:window-width="1920"
     inkscape:window-height="1009"
     inkscape:window-x="-8"
     inkscape:window-y="-8"
     inkscape:window-maximized="1"
     inkscape:current-layer="layer1" /><defs
     id="defs1"><linearGradient
       id="swatch1"
       inkscape:swatch="solid"><stop
         style="stop-color:#fefefe;stop-opacity:0;"
         offset="0"
         id="stop1" /></linearGradient></defs><g
     inkscape:label="Шар 1"
     inkscape:groupmode="layer"
     id="layer1"><path
       style="fill:#d3d3d3;fill-opacity:1;stroke:#00020f;stroke-width:0;stroke-dasharray:none;stroke-opacity:1"
       d="m 26.183802,0.59781246 c 0,0 0.532566,0.99114524 0.0083,1.95198964 -0.52425,0.9608469 -2.105568,11.4806809 -1.813276,14.7380819 0.292296,3.257402 1.450607,12.996772 2.443593,15.865211 0.992985,2.868439 4.216598,13.946758 5.254677,16.261351 1.038078,2.314593 3.673168,9.665376 4.22631,11.773225 0.553162,2.107872 0.414626,4.493905 -0.187559,5.72716 -0.602174,1.233265 -2.806687,4.343134 -6.196178,5.57241 -3.389451,1.229318 -9.096034,2.158472 -11.098898,2.106897 -2.002863,-0.05157 -8.681852,-0.874147 -11.8999389,-1.749439 -3.2180862,-0.875293 -4.5112385,-1.426598 -4.7295415,-2.169145 -0.218296,-0.742548 6.8445747,-1.89578 6.8445747,-1.89578 0,0 -4.4874228,-1.034396 -5.6846069,-2.079653 C 2.1540706,65.654864 -0.01875541,63.582388 0.53832859,62.902973 1.0954096,62.223551 4.696684,63.185804 5.6008747,63.036416 6.505068,62.88703 8.5948836,62.55542 8.5948836,62.55542 c 0,0 -3.9812119,-1.773703 -4.6425886,-2.552327 C 3.2909198,59.22447 1.5463666,56.685098 1.1844616,55.652099 0.82255659,54.619099 0.21205559,53.90037 0.86187259,53.451513 1.5116906,53.002661 4.1874893,55.060336 4.8849408,55.395882 5.5823915,55.731429 8.2376144,56.672396 8.587958,56.477914 8.9382954,56.283421 5.2810786,52.584797 4.6976374,51.533757 4.1141954,50.482718 2.7928396,44.799957 3.0987896,43.096562 3.4047382,41.393168 3.654032,39.01614 4.3366864,38.848715 c 0.682652,-0.167424 2.8695833,4.470782 3.6056523,5.701502 0.7360654,1.230721 4.7191223,6.405432 5.4584303,6.911643 0.73931,0.506208 -2.297699,-4.647226 -2.516,-5.389774 -0.218298,-0.742547 -3.0388464,-8.554444 -2.9905118,-9.832799 0.048334,-1.278356 -0.5008752,-6.173476 0.799456,-9.133949 1.3003319,-2.960471 3.0289408,-6.387838 3.8223648,-6.546244 0.793421,-0.158405 0.480295,5.056766 0.847979,6.703507 0.367684,1.646738 1.47652,7.200697 2.023889,8.694809 0.547367,1.494116 2.147613,5.805793 2.985433,7.156302 0.837815,1.350509 1.893935,3.443562 2.346033,3.368868 0.452116,-0.07469 -1.492698,-3.578149 -1.573171,-4.643985 -0.08047,-1.065835 -2.30856,-7.937464 -2.382553,-10.45232 -0.074,-2.514854 -0.754551,-8.535704 -0.232844,-10.834802 0.521709,-2.299095 0.807777,-7.181959 2.269753,-10.073517 1.461975,-2.8915597 4.05616,-7.3634841 5.194147,-8.3301096 1.13799,-0.9666277 2.18903,-1.55006894 2.18903,-1.55006894 z"
       id="path12" /><path
       style="fill:#d3d3d3;fill-opacity:1;stroke:#00020f;stroke-width:0;stroke-dasharray:none;stroke-opacity:1"
       d="m 44.202005,0.52920205 c 0,0 -0.532566,0.99114495 -0.0083,1.95198995 0.52425,0.960847 2.105568,11.48068 1.813276,14.738082 -0.292296,3.257402 -1.450607,12.996772 -2.443593,15.865211 -0.992985,2.868439 -4.216598,13.946758 -5.254677,16.261351 -1.038078,2.314593 -3.673168,9.665376 -4.22631,11.773225 -0.553162,2.107872 -0.414626,4.493905 0.187559,5.72716 0.602174,1.233265 2.806687,4.343134 6.196178,5.57241 3.389451,1.229318 9.096035,2.158472 11.098898,2.106897 2.002864,-0.05157 8.681853,-0.874147 11.899939,-1.749439 3.218087,-0.875293 4.511239,-1.426598 4.729542,-2.169145 0.218296,-0.742548 -6.844575,-1.89578 -6.844575,-1.89578 0,0 4.487423,-1.034396 5.684607,-2.079653 1.197188,-1.045257 3.370014,-3.117733 2.81293,-3.797148 -0.557081,-0.679422 -4.158356,0.282831 -5.062546,0.133443 -0.904194,-0.149386 -2.994009,-0.480996 -2.994009,-0.480996 0,0 3.981212,-1.773703 4.642588,-2.552327 0.661376,-0.778623 2.405929,-3.317995 2.767834,-4.350994 0.361905,-1.033 0.972406,-1.751729 0.322589,-2.200586 -0.649818,-0.448852 -3.325617,1.608823 -4.023068,1.944369 -0.697451,0.335547 -3.352674,1.276514 -3.703018,1.082032 -0.350337,-0.194493 3.30688,-3.893117 3.890321,-4.944157 0.583442,-1.051039 1.904798,-6.7338 1.598848,-8.437195 -0.305949,-1.703394 -0.555243,-4.080422 -1.237897,-4.247847 -0.682652,-0.167424 -2.869583,4.470782 -3.605652,5.701502 -0.736066,1.230721 -4.719122,6.405432 -5.458431,6.911643 -0.739309,0.506208 2.297699,-4.647226 2.516,-5.389774 0.218298,-0.742547 3.038847,-8.554444 2.990512,-9.832799 -0.04833,-1.278356 0.500875,-6.173476 -0.799456,-9.133949 -1.300332,-2.960471 -3.028941,-6.387838 -3.822365,-6.546244 -0.79342,-0.158405 -0.480294,5.056766 -0.847979,6.703507 -0.367684,1.646738 -1.476519,7.200697 -2.023888,8.694809 -0.547367,1.494116 -2.147613,5.805793 -2.985433,7.156302 -0.837815,1.350509 -1.893935,3.443562 -2.346033,3.368868 -0.452116,-0.07469 1.492698,-3.578149 1.573171,-4.643985 0.08047,-1.065835 2.30856,-7.937464 2.382553,-10.45232 0.074,-2.514854 0.754551,-8.535704 0.232844,-10.834802 -0.521709,-2.299095 -0.807777,-7.18196 -2.269753,-10.073517 -1.461975,-2.89156 -4.05616,-7.363484 -5.194148,-8.33011 -1.13799,-0.966628 -2.18903,-1.55006895 -2.18903,-1.55006895 z"
       id="path12-7" /><rect
       style="fill:#ffe4b1;fill-opacity:1;stroke:#001ce7;stroke-width:0"
       id="rect1"
       width="22.190269"
       height="28.750168"
       x="24.087194"
       y="21.054647"
       rx="11.095135"
       ry="14.375084" /><rect
       style="fill:#ffe4b1;fill-opacity:1;stroke:#001ce7;stroke-width:0"
       id="rect1-5"
       width="7.2237535"
       height="9.3592424"
       x="19.153864"
       y="32.068771"
       rx="3.6118767"
       ry="4.6796212" /><path
       d="m 40.018484,47.222861 c -0.01697,0.0094 -0.03335,0.02016 -0.05036,0.02945 -0.182661,0.09977 -0.367255,0.193741 -0.55438,0.282178 -0.187124,0.08844 -0.376344,0.171192 -0.567681,0.247975 -0.191336,0.07679 -0.384736,0.147545 -0.580032,0.212346 -0.195295,0.0648 -0.392904,0.123749 -0.591909,0.176242 -0.199003,0.05249 -0.399425,0.09885 -0.601884,0.138714 -0.202459,0.03986 -0.406671,0.07334 -0.612335,0.100235 -0.205665,0.0269 -0.412745,0.04719 -0.621362,0.06081 -0.208615,0.01361 -0.41907,0.02042 -0.630387,0.02042 -0.211316,0 -0.421296,-0.0069 -0.629913,-0.02042 -0.208615,-0.01361 -0.415697,-0.0339 -0.621361,-0.06081 -0.205663,-0.0269 -0.409875,-0.06038 -0.612335,-0.100235 -0.20246,-0.03986 -0.403356,-0.08622 -0.60236,-0.138714 -0.199003,-0.05249 -0.396137,-0.111441 -0.591433,-0.176242 -0.195296,-0.0648 -0.388697,-0.135564 -0.580033,-0.212346 -0.191336,-0.07679 -0.380556,-0.159537 -0.567681,-0.247975 -0.187124,-0.08843 -0.372192,-0.182411 -0.554855,-0.282178 -0.0056,-0.003 -0.01105,-0.0065 -0.01663,-0.0095 v 9.176958 c 0,0.217043 0.005,0.431501 0.0152,0.642739 0.01018,0.211236 0.02526,0.419339 0.04513,0.623736 0.01985,0.204396 0.0446,0.405363 0.07364,0.601885 0.02904,0.196521 0.0625,0.38862 0.100235,0.576232 0.03774,0.18761 0.07948,0.370537 0.125412,0.548204 0.04594,0.177667 0.096,0.350162 0.14964,0.51685 0.05364,0.166688 0.111112,0.327499 0.171968,0.482173 0.06085,0.154675 0.125295,0.303017 0.192868,0.444644 0.06758,0.141626 0.138072,0.276721 0.211871,0.404265 0.0738,0.127544 0.150868,0.247658 0.230399,0.360085 0.07954,0.112428 0.161779,0.217257 0.246548,0.313532 0.08477,0.09628 0.171762,0.184086 0.261277,0.263175 0.0895,0.0791 0.181287,0.149102 0.275052,0.209971 0.09376,0.06086 0.189881,0.112777 0.287403,0.15439 0.09752,0.04162 0.196593,0.07321 0.297379,0.09453 0.100786,0.02133 0.203323,0.03231 0.306881,0.03231 h 3.60513 c 0.103557,0 0.20562,-0.01098 0.306406,-0.03231 0.100786,-0.02133 0.200333,-0.05292 0.297855,-0.09453 0.09752,-0.04162 0.193163,-0.09352 0.286928,-0.15439 0.09376,-0.06086 0.185538,-0.130881 0.275052,-0.209971 0.08951,-0.07909 0.176982,-0.1669 0.261751,-0.263175 0.08477,-0.09628 0.167019,-0.201104 0.24655,-0.313532 0.07953,-0.112427 0.156123,-0.232541 0.229923,-0.360085 0.0738,-0.127544 0.144772,-0.262639 0.212345,-0.404265 0.06758,-0.141627 0.132015,-0.289969 0.19287,-0.444644 0.06085,-0.154674 0.11785,-0.315485 0.171491,-0.482173 0.05364,-0.166688 0.103704,-0.339183 0.14964,-0.51685 0.04594,-0.177667 0.08814,-0.360594 0.125887,-0.548204 0.03774,-0.187612 0.07119,-0.379711 0.100236,-0.576232 0.02904,-0.196522 0.0533,-0.397489 0.07315,-0.601885 0.01985,-0.204397 0.03495,-0.4125 0.04513,-0.623736 0.01018,-0.211238 0.01568,-0.425696 0.01568,-0.642739 z"
       style="fill:#ffe4b1;fill-opacity:1;stroke:#001ce7;stroke-width:0"
       id="path2-6" /><path
       style="fill:#ffd78b;fill-opacity:1;stroke:#00020f;stroke-width:0;stroke-dasharray:none;stroke-opacity:1"
       d="m 29.922232,24.059621 c 0,0 9.322109,13.865257 9.582798,14.684563 0.260689,0.819306 1.173097,9.179945 1.173097,9.179945 l -0.0032,0.01345 0.776837,-0.612253 3.255445,-8.706507 -11.112725,-16.379418 z"
       id="path7"
       sodipodi:nodetypes="cscccccc" /><path
       d="m 39.987484,50.507384 v -2.122352 c -0.01693,0.01021 -0.03327,0.02193 -0.05024,0.03204 -0.182216,0.108527 -0.366361,0.210754 -0.553029,0.306958 -0.186669,0.0962 -0.375429,0.186225 -0.5663,0.269751 -0.19087,0.08353 -0.383799,0.160503 -0.578619,0.230993 -0.19482,0.07049 -0.391949,0.134617 -0.590467,0.19172 -0.198519,0.0571 -0.398453,0.107535 -0.60042,0.150895 -0.201966,0.04336 -0.405681,0.07978 -0.610844,0.109038 -0.205163,0.02926 -0.41174,0.05134 -0.619849,0.06614 -0.208108,0.01481 -0.41805,0.02222 -0.628852,0.02222 -0.210802,0 -0.42027,-0.0074 -0.628379,-0.02222 -0.208107,-0.01481 -0.414685,-0.03688 -0.619847,-0.06614 -0.205164,-0.02926 -0.408878,-0.06568 -0.610845,-0.109038 -0.201966,-0.04336 -0.402374,-0.09379 -0.600893,-0.150895 -0.198518,-0.0571 -0.395173,-0.121228 -0.589993,-0.19172 -0.19482,-0.07049 -0.38775,-0.147468 -0.57862,-0.230993 -0.190869,-0.08353 -0.379631,-0.173547 -0.566299,-0.269751 -0.186669,-0.0962 -0.371287,-0.198431 -0.553504,-0.306958 -0.0056,-0.0033 -0.01149,-0.007 -0.01706,-0.01034 v 1.903759 c 0.06569,0.04109 0.129896,0.08557 0.196191,0.125057 0.182216,0.108528 0.366835,0.211271 0.553504,0.307475 0.186669,0.0962 0.375428,0.186226 0.566299,0.269751 0.19087,0.08353 0.383799,0.160502 0.578619,0.230994 0.19482,0.07049 0.391475,0.134099 0.589994,0.191202 0.198519,0.0571 0.398926,0.107536 0.600893,0.150896 0.201966,0.04336 0.405681,0.07978 0.610844,0.109037 0.205163,0.02926 0.41174,0.05134 0.619849,0.06615 0.208108,0.01481 0.417575,0.02222 0.628378,0.02222 0.210803,0 0.420744,-0.0074 0.628853,-0.02222 0.208108,-0.01481 0.414685,-0.03688 0.619847,-0.06615 0.205164,-0.02926 0.408878,-0.06568 0.610846,-0.109037 0.201966,-0.04336 0.401899,-0.09379 0.600418,-0.150896 0.19852,-0.0571 0.395647,-0.120711 0.590467,-0.191202 0.19482,-0.07049 0.38775,-0.147469 0.578621,-0.230994 0.190869,-0.08353 0.379629,-0.173547 0.566298,-0.269751 0.14314,-0.07377 0.283593,-0.154603 0.424132,-0.235644 z"
       style="fill:#ffd78b;fill-opacity:1;stroke:#001ce7;stroke-width:0"
       id="path3" /><path
       style="fill:#000000;fill-opacity:1;stroke:#00020f;stroke-width:0;stroke-dasharray:none;stroke-opacity:1"
       d="m 45.983717,28.092577 c 0,0 -3.609993,-3.788266 -7.576531,-0.222839 -3.966535,3.565426 2.362094,3.387154 3.743698,3.387154 1.381601,0 3.342587,-0.04457 3.699129,-0.802221 0.356543,-0.757653 0.133704,-2.362094 0.133704,-2.362094 z"
       id="path4-0-7" /><path
       style="fill:#000000;fill-opacity:1;stroke:#00020f;stroke-width:0;stroke-dasharray:none;stroke-opacity:1"
       d="m 46.280102,27.217551 c 0,0 -3.737334,-3.788266 -7.84379,-0.222839 -4.106453,3.565426 2.445416,3.387154 3.875755,3.387154 1.430337,0 3.460496,-0.04457 3.829615,-0.802221 0.369119,-0.757653 0.13842,-2.362094 0.13842,-2.362094 z"
       id="path4-0-0-8" /><path
       style="fill:#ededed;fill-opacity:1;stroke:#00020f;stroke-width:0;stroke-dasharray:none;stroke-opacity:1"
       d="m 45.751797,27.792911 c 0,0 -3.609993,-3.788266 -7.576531,-0.222839 -3.966535,3.565426 2.362094,3.387154 3.743698,3.387154 1.381601,0 3.342587,-0.04457 3.699129,-0.802221 0.356543,-0.757653 0.133704,-2.362094 0.133704,-2.362094 z"
       id="path4-7" /><g
       id="g13"
       transform="matrix(0.84114889,0,0,0.84114889,2.6326658,9.0079811)"><path
         style="fill:#000000;fill-opacity:1;stroke:#00020f;stroke-width:0;stroke-dasharray:none;stroke-opacity:1"
         d="m 27.657374,28.193202 c 0,0 3.609993,-3.788266 7.576531,-0.222839 3.966535,3.565426 -2.362094,3.387154 -3.743698,3.387154 -1.381601,0 -3.342587,-0.04457 -3.699129,-0.802221 -0.356543,-0.757653 -0.133704,-2.362094 -0.133704,-2.362094 z"
         id="path4-0" /><path
         style="fill:#000000;fill-opacity:1;stroke:#00020f;stroke-width:0;stroke-dasharray:none;stroke-opacity:1"
         d="m 27.244221,27.536052 c 0,0 3.737334,-3.788266 7.84379,-0.222839 4.106453,3.565426 -2.445416,3.387154 -3.875755,3.387154 -1.430337,0 -3.460496,-0.04457 -3.829615,-0.802221 -0.369119,-0.757653 -0.13842,-2.362094 -0.13842,-2.362094 z"
         id="path4-0-0" /><path
         style="fill:#ffffff;fill-opacity:1;stroke:#00020f;stroke-width:0;stroke-dasharray:none;stroke-opacity:1"
         d="m 27.729905,27.932201 c 0,0 3.609993,-3.788266 7.576531,-0.222839 3.966535,3.565426 -2.362094,3.387154 -3.743698,3.387154 -1.381601,0 -3.342587,-0.04457 -3.699129,-0.802221 -0.356543,-0.757653 -0.133704,-2.362094 -0.133704,-2.362094 z"
         id="path4" /><g
         id="g7"
         transform="matrix(0.95698854,0,0,0.95698854,4.2110514,4.5805253)"><circle
           style="fill:#4afdff;fill-opacity:1;stroke:#001ce7;stroke-width:0"
           id="path5"
           cx="29.214211"
           cy="25.351948"
           r="2.0724039" /><circle
           style="fill:#000000;fill-opacity:1;stroke:#001ce7;stroke-width:0"
           id="path5-5"
           cx="29.227961"
           cy="25.311071"
           r="0.98516381" /></g></g><g
       id="g6"
       transform="translate(0.06685174,3.5412196)"><circle
         style="fill:#4afdff;fill-opacity:1;stroke:#001ce7;stroke-width:0"
         id="path5-9"
         cx="41.705872"
         cy="25.072405"
         r="2.0724039" /><circle
         style="fill:#000000;fill-opacity:1;stroke:#001ce7;stroke-width:0"
         id="path5-5-2"
         cx="41.653461"
         cy="25.052876"
         r="0.98516381" /></g><path
       style="fill:#e7c981;fill-opacity:1;stroke:#001ce7;stroke-width:0"
       d="m 41.425709,51.545603 c 0,0 -2.045178,0.893811 -2.583908,0.303772 -0.538734,-0.59004 1.180078,-0.333501 1.821427,-2.052313 0.641347,-1.718811 1.026155,-4.566395 1.000501,-5.002511 -0.02564,-0.436117 -0.307846,-4.771626 -0.71831,-5.97736 -0.410461,-1.205734 -3.258045,-5.592551 -3.899393,-6.721322 -0.641347,-1.128773 -5.387318,-8.080981 -6.003012,-8.13229 -0.615694,-0.0513 -0.513078,1.026158 -0.513078,0.436117 0,-0.59004 0.122246,3.031617 -0.288215,4.164432 -0.304879,0.841418 -1.373763,2.111128 -2.21531,3.520112 -0.605256,1.013367 -1.626755,2.423096 -2.062871,2.448749 -0.436117,0.02564 -0.07697,2.668006 -0.46177,3.104123 -0.384809,0.436116 -0.71831,-2.180583 -1.026157,-2.462775 l -0.307847,-0.282194 c 0,0 -0.590039,-0.102616 -1.026156,0.179577 -0.436115,0.282194 -1.103117,1.43662 -0.769617,2.719315 0.333502,1.282695 0.769617,2.514083 1.410965,2.821929 0.641347,0.307848 1.359658,0.07697 1.667505,0 0.307846,-0.07697 2.719313,6.875246 5.849089,7.952711 3.129777,1.077464 -2.437121,-0.538732 -2.437121,-0.538732 l 1.590543,1.949697 c 0,0 -0.538732,-0.02564 -0.923541,-0.07697 -0.384808,-0.0513 -0.564385,0.205232 -0.564385,0.205232 0,0 1.564888,0.667002 1.770118,1.000502 0.205232,0.333501 -1.564888,-0.205232 -2.026657,-0.205232 -0.461771,0 -2.770623,-0.513078 -3.488932,-0.718308 -0.718308,-0.205231 -3.822432,-1.564886 -4.79728,-2.616697 -0.974849,-1.051811 -2.36016,-2.9502 -2.56539,-4.309857 -0.205232,-1.359657 -0.307848,-4.822933 -0.282194,-5.361666 0.02565,-0.538732 0.102616,-3.411969 0.564386,-4.617703 0.461771,-1.205733 2.462775,-6.952208 3.052815,-7.927055 0.590039,-0.97485 2.796275,-4.002011 3.155429,-4.309858 0.359156,-0.307847 0.38481,-0.3335 0.38481,-0.3335 l 0.0513,-0.02565 c 0,0 2.257545,-1.847081 3.206739,-1.949696 0.949194,-0.102616 1.334003,0.05131 1.667502,0.153922 0.333502,0.102617 0.521171,0.154528 0.521171,0.154528 0,0 1.814006,-2.176807 3.990812,-2.031685 2.176806,0.145119 4.208492,0.3628 5.369455,1.015842 1.160963,0.653042 3.918251,2.829848 4.643853,3.77313 0.725602,0.943283 4.208491,5.514576 5.079213,7.183459 0.870724,1.668886 2.902408,4.861535 3.337771,6.748101 0.435355,1.886563 0.653037,8.416981 -0.07255,9.795628 -0.725607,1.378642 -0.653046,-0.435364 -0.580485,-1.233526 0.07254,-0.798161 -0.725597,2.902408 -1.596321,4.063372 -0.870723,1.160962 -3.410332,3.192649 -3.773132,3.482888 -0.3628,0.290242 -1.451203,0.507924 -1.814004,0.507924 -0.362801,0 0.653042,-0.362804 0.798162,-0.798163 0.145121,-0.43536 -0.3628,-0.58048 -0.580482,-0.217681 -0.21768,0.362801 -1.160963,0.870723 -1.959125,1.160963 -0.798162,0.29024 -2.829847,0.145121 -2.829847,0.145121 0,0 1.088401,-0.798164 1.233523,-1.088403"
       id="path6"
       sodipodi:nodetypes="csssssssssssscsssssccscsssssssssccsccssssssssssssscc" /><path
       style="fill:#ff7f7d;fill-opacity:1;stroke:#00020f;stroke-width:0;stroke-dasharray:none;stroke-opacity:1"
       d="m 32.491153,43.600008 c 0,0 1.039969,-0.504227 1.481169,-0.97694 0.441198,-0.472712 2.426595,-0.75634 3.025363,-0.315142 0.59877,0.441198 1.292084,0.693311 1.701768,0.819369 0.409686,0.126056 -1.260568,0.724826 -1.481167,1.102998 -0.220601,0.378169 -2.489623,0.535742 -2.99385,0.252114 -0.50423,-0.283628 -1.733283,-0.882399 -1.733283,-0.882399 z"
       id="path9" /><path
       style="fill:#ffe4b1;fill-opacity:1;stroke:#00020f;stroke-width:0;stroke-dasharray:none;stroke-opacity:1"
       d="m 39.994197,53.35764 c 0,0 -0.06122,5.907786 4.350789,5.561027 2.14527,-0.168606 9.002702,0.490247 10.161466,0.935924 1.158764,0.445678 3.609993,1.158764 4.233944,2.050119 0.623949,0.891357 2.45123,6.016657 2.45123,6.016657 h -26.25045 v -5.303571 z"
       id="path10"
       sodipodi:nodetypes="cssscccc" /><path
       style="fill:#ffe4b1;fill-opacity:1;stroke:#00020f;stroke-width:0;stroke-dasharray:none;stroke-opacity:1"
       d="m 30.46177,53.258511 c 0,0 -0.348656,6.649301 -4.490519,5.767732 -1.287136,-0.273959 -9.002702,0.490247 -10.161466,0.935924 -1.158764,0.445678 -3.609993,1.158764 -4.233944,2.050119 -0.623949,0.891357 -2.4512302,6.016657 -2.4512302,6.016657 H 35.375061 v -5.303571 z"
       id="path10-6"
       sodipodi:nodetypes="cssscccc" /><path
       style="fill:#ffffff;fill-opacity:1;stroke:#00020f;stroke-width:0;stroke-dasharray:none;stroke-opacity:1"
       d="m 27.44888,58.080692 c 0,0 1.796309,5.830131 2.804763,6.901614 1.008457,1.071483 4.47502,2.741737 5.357416,2.741737 H 9.20215 c 0,0 2.01691,-5.451959 2.426594,-5.861645 0.409685,-0.409684 3.025365,-1.670251 4.475019,-2.016908 1.449653,-0.346657 3.338947,-0.514193 5.82857,-0.734788 2.489623,-0.220602 4.760204,-0.431239 5.516547,-1.03001 z"
       id="path11"
       sodipodi:nodetypes="csccsssc" /><path
       style="fill:#ffffff;fill-opacity:1;stroke:#00020f;stroke-width:0;stroke-dasharray:none;stroke-opacity:1"
       d="m 42.940402,58.081001 c 0,0 -1.796309,5.830131 -2.804763,6.901614 -1.008457,1.071483 -4.475021,2.741737 -5.357417,2.741737 h 26.40891 c 0,0 -2.022928,-5.446028 -2.426594,-5.861645 -0.558513,-0.575049 -2.049714,-1.438741 -4.359264,-2.033444 -1.443439,-0.371683 -3.388556,-0.596876 -5.878179,-0.817471 -2.489623,-0.220602 -4.82635,-0.33202 -5.582693,-0.930791 z"
       id="path11-9"
       sodipodi:nodetypes="csccsssc" /><path
       style="fill:#ffbb38;fill-opacity:0;stroke:#ffd78b;stroke-width:0.369054;stroke-dasharray:none;stroke-opacity:1"
       d="m 35.544732,35.839187 1.725715,1.854135 -1.725715,1.285534"
       id="path13" /><path
       style="fill:#ffd78b;fill-opacity:1;stroke:#ffd78b;stroke-width:0;stroke-dasharray:none;stroke-opacity:1"
       d="m 30.288042,54.590774 c 0,0 9.748932,-3.211549 9.73724,-4.088526 -0.01169,-0.87698 0,-2.128134 0,-2.128134 l -2.397074,1.765649 -4.911077,-0.152011 h -2.29476 v 3.644114 c 0,0 -0.08832,0.784034 -0.134329,0.958908 z"
       id="path14"
       sodipodi:nodetypes="cscccccc" /></g></svg>
