<?xml version="1.0" encoding="UTF-8" standalone="no"?>
<!-- Created with Inkscape (http://www.inkscape.org/) -->

<svg
   width="200"
   height="200"
   viewBox="0 0 52.916665 52.916666"
   version="1.1"
   id="svg1"
   inkscape:version="1.3 (0e150ed6c4, 2023-07-21)"
   sodipodi:docname="Invoker.svg"
   xmlns:inkscape="http://www.inkscape.org/namespaces/inkscape"
   xmlns:sodipodi="http://sodipodi.sourceforge.net/DTD/sodipodi-0.dtd"
   xmlns="http://www.w3.org/2000/svg"
   xmlns:svg="http://www.w3.org/2000/svg">
  <sodipodi:namedview
     id="namedview1"
     pagecolor="#505050"
     bordercolor="#ffffff"
     borderopacity="1"
     inkscape:showpageshadow="0"
     inkscape:pageopacity="0"
     inkscape:pagecheckerboard="1"
     inkscape:deskcolor="#505050"
     inkscape:document-units="mm"
     inkscape:zoom="2.8284271"
     inkscape:cx="146.90143"
     inkscape:cy="113.66741"
     inkscape:window-width="1920"
     inkscape:window-height="1009"
     inkscape:window-x="-8"
     inkscape:window-y="-8"
     inkscape:window-maximized="1"
     inkscape:current-layer="layer1" />
  <defs
     id="defs1" />
  <g
     inkscape:label="Шар 1"
     inkscape:groupmode="layer"
     id="layer1">
    <rect
       style="fill:#850303;fill-opacity:1;stroke:#373737;stroke-width:0;stroke-dasharray:none"
       id="rect1"
       width="18.846064"
       height="21.463572"
       x="17.17572"
       y="10.926035"
       rx="9.4230318"
       ry="9.2485313" />
    <path
       style="fill:#fe0000;fill-opacity:1;stroke:#000000;stroke-width:0;stroke-dasharray:none;stroke-opacity:1"
       d="m 37.46999,9.0816348 c -1.672878,1.4304702 -4.14077,0.4160388 -4.931292,-0.5084491 -0.790519,-0.92449 -1.971852,-3.4201035 -2.049381,-4.2683556 -0.07753,-0.8482515 0.01784,-1.8062447 0.78825,-2.4650132 0.770408,-0.6587685 1.709579,-0.5854078 2.450645,-0.3426469 0.741069,0.2427597 3.251716,2.2875968 3.944937,3.1428597 0.693224,0.8552637 1.227596,3.2181786 -0.203159,4.4416051 z"
       id="path12-2-4" />
    <ellipse
       style="fill:#ffffff;fill-opacity:1;stroke:#373737;stroke-width:0;stroke-dasharray:none"
       id="path1"
       cx="22.192614"
       cy="16.946302"
       rx="2.7483842"
       ry="1.6141304" />
    <ellipse
       style="fill:#ffffff;fill-opacity:1;stroke:#373737;stroke-width:0;stroke-dasharray:none"
       id="path1-8"
       cx="30.489861"
       cy="16.845449"
       rx="2.7483842"
       ry="1.6141304" />
    <ellipse
       style="fill:#000000;fill-opacity:1;stroke:#373737;stroke-width:0;stroke-dasharray:none"
       id="path1-8-8"
       cx="26.357929"
       cy="28.114639"
       rx="2.4423006"
       ry="1.4343669" />
    <path
       style="fill:#000000;fill-opacity:1;stroke:#373737;stroke-width:0;stroke-dasharray:none"
       d="m 18.856838,15.067778 c 0,0 -0.174501,-3.359136 -1.43963,-4.886017 -1.265129,-1.5268799 -6.369271,-2.6611336 -6.369271,-2.6611336 0,0 5.714894,-1.3523795 7.503525,0.043625 1.788631,1.3960048 3.926263,4.4061396 3.926263,4.4061396 0,0 -2.181257,0.785253 -3.620887,3.097386 z"
       id="path2" />
    <path
       style="fill:#000000;fill-opacity:1;stroke:#373737;stroke-width:0;stroke-dasharray:none"
       d="m 34.353025,15.060911 c 0,0 0.174501,-3.359137 1.43963,-4.886017 1.265129,-1.5268803 6.369271,-2.661134 6.369271,-2.661134 0,0 -5.714894,-1.3523796 -7.503525,0.043625 -1.788631,1.3960048 -3.926263,4.40614 -3.926263,4.40614 0,0 2.181257,0.785253 3.620887,3.097386 z"
       id="path2-9" />
    <path
       style="fill:#850303;fill-opacity:1;stroke:#000000;stroke-width:0;stroke-dasharray:none;stroke-opacity:1"
       d="m 19.793228,29.684847 c 1.657756,1.17788 1.483255,0.74163 2.181257,1.396005 0.698003,0.654378 1.003379,3.533638 -0.785252,4.275265 -1.788631,0.741627 -8.245153,0.654378 -10.033784,1.308756 -1.7886308,0.654375 -10.81903592,7.808899 -11.29891252,9.117655 -0.47987663,1.308754 -1.78863108,9.510281 -1.78863108,9.510281 H 54.867847 L 52.773839,44.081146 c 0,0 -6.631022,-6.805522 -9.33578,-8.114276 C 40.733297,34.658114 32.27002,36.05412 31.048516,34.745366 29.827011,33.43661 31.40089,29.970081 31.40089,29.970081 Z"
       id="path4" />
    <ellipse
       style="fill:#000000;fill-opacity:1;stroke:#000000;stroke-width:0;stroke-dasharray:none;stroke-opacity:1"
       id="path6"
       cx="17.347355"
       cy="63.58675"
       rx="2.7605743"
       ry="9.0797844"
       transform="matrix(0.91787149,-0.39687773,0.46842411,0.88350374,0,0)" />
    <ellipse
       style="fill:#000000;fill-opacity:1;stroke:#000000;stroke-width:0;stroke-dasharray:none;stroke-opacity:1"
       id="path6-1"
       cx="-30.724195"
       cy="41.217758"
       rx="2.7605743"
       ry="9.0797844"
       transform="matrix(-0.91787149,-0.39687773,-0.46842411,0.88350374,0,0)" />
    <path
       style="fill:#ffffff;fill-opacity:1;stroke:#000000;stroke-width:0;stroke-dasharray:none;stroke-opacity:1"
       d="m 10.015512,45.135145 c 0,0 2.753839,2.567365 6.584676,1.506358 3.830842,-1.061006 7.025042,-2.044223 8.081236,-3.229909 1.056193,-1.185687 4.096481,-5.730494 4.096481,-5.730494 0,0 -3.612552,3.345248 -5.205583,4.056809 -1.59303,0.711561 -5.415731,2.212468 -6.917099,1.932214 -1.501371,-0.280258 -4.154203,-2.145408 -4.937076,-1.646863 -0.782872,0.498547 -1.702635,3.111885 -1.702635,3.111885 z"
       id="path5" />
    <path
       style="fill:#ffffff;fill-opacity:1;stroke:#000000;stroke-width:0;stroke-dasharray:none;stroke-opacity:1"
       d="m 8.0886534,50.353477 c 0,0 2.7800396,2.591791 6.6473226,1.52069 3.86729,-1.071101 7.091879,-2.063672 8.158121,-3.260639 1.066243,-1.196967 4.135456,-5.785014 4.135456,-5.785014 0,0 -3.646922,3.377075 -5.255109,4.095406 -1.608187,0.718331 -5.467257,2.233517 -6.982909,1.950597 -1.515655,-0.282925 -4.193726,-2.165819 -4.9840475,-1.662531 -0.7903204,0.50329 -1.7188341,3.141491 -1.7188341,3.141491 z"
       id="path5-9" />
    <path
       style="fill:#ffffff;fill-opacity:1;stroke:#000000;stroke-width:0;stroke-dasharray:none;stroke-opacity:1"
       d="m 5.6622862,55.630378 c 0,0 2.5772833,2.402763 6.1625128,1.409781 3.585237,-0.992982 6.574647,-1.913162 7.563125,-3.022831 0.988479,-1.109668 3.833845,-5.363095 3.833845,-5.363095 0,0 -3.380941,3.130775 -4.871838,3.796716 -1.490897,0.665941 -5.068514,2.070619 -6.473625,1.808334 -1.405113,-0.262291 -3.8878641,-2.00786 -4.6205455,-1.541278 -0.73268,0.466584 -1.5934743,2.912373 -1.5934743,2.912373 z"
       id="path5-9-5" />
    <path
       style="fill:#ffffff;fill-opacity:1;stroke:#000000;stroke-width:0;stroke-dasharray:none;stroke-opacity:1"
       d="m 44.032174,45.315319 c 0,0 -2.75384,2.567365 -6.584676,1.506358 -3.830842,-1.061006 -7.025042,-2.044223 -8.081236,-3.229909 -1.056193,-1.185687 -4.096481,-5.730494 -4.096481,-5.730494 0,0 3.612552,3.345248 5.205583,4.056809 1.59303,0.711561 5.415731,2.212468 6.917099,1.932214 1.501371,-0.280258 4.154202,-2.145408 4.937076,-1.646863 0.782872,0.498547 1.702635,3.111885 1.702635,3.111885 z"
       id="path5-7" />
    <path
       style="fill:#ffffff;fill-opacity:1;stroke:#000000;stroke-width:0;stroke-dasharray:none;stroke-opacity:1"
       d="m 47.180536,50.359151 c 0,0 -2.78004,2.591791 -6.647322,1.52069 -3.867291,-1.071101 -7.091879,-2.063672 -8.158122,-3.260639 -1.066243,-1.196967 -4.135455,-5.785014 -4.135455,-5.785014 0,0 3.646922,3.377075 5.255109,4.095406 1.608187,0.718331 5.467257,2.233517 6.982909,1.950597 1.515655,-0.282925 4.193725,-2.165819 4.984047,-1.662531 0.790321,0.50329 1.718834,3.141491 1.718834,3.141491 z"
       id="path5-9-8" />
    <path
       style="fill:#ffffff;fill-opacity:1;stroke:#000000;stroke-width:0;stroke-dasharray:none;stroke-opacity:1"
       d="m 49.519654,55.46155 c 0,0 -2.577284,2.402763 -6.162513,1.409781 -3.585237,-0.992982 -6.574647,-1.913162 -7.563125,-3.022831 -0.988479,-1.109668 -3.833845,-5.363095 -3.833845,-5.363095 0,0 3.380941,3.130775 4.871838,3.796716 1.490897,0.665941 5.068514,2.070619 6.473625,1.808334 1.405113,-0.262291 3.887864,-2.00786 4.620545,-1.541278 0.732681,0.466584 1.593475,2.912373 1.593475,2.912373 z"
       id="path5-9-5-8" />
    <path
       style="fill:#7800c0;fill-opacity:1;stroke:#000000;stroke-width:0;stroke-dasharray:none;stroke-opacity:1"
       d="m 27.388872,53.722761 c -1.857549,-1.748283 -2.18535,-3.223393 -2.18535,-4.917041 0,-1.693645 1.91218,-4.152165 1.91218,-4.152165 0,0 1.966818,1.693649 2.021447,3.933632 0.05464,2.239981 -1.038041,5.080939 -1.748277,5.135574 z"
       id="path7" />
    <path
       sodipodi:type="spiral"
       style="fill:none;fill-rule:evenodd;stroke:#000000;stroke-width:0.18;stroke-dasharray:none"
       id="path8"
       sodipodi:cx="27.057699"
       sodipodi:cy="47.310047"
       sodipodi:expansion="1"
       sodipodi:revolution="8.151063"
       sodipodi:radius="2.677171"
       sodipodi:argument="-7.9917192"
       sodipodi:t0="0"
       d="m 27.057699,47.310047 c -0.0068,-0.04894 0.06262,-0.03329 0.08133,-0.01127 0.05072,0.05965 0.0014,0.145148 -0.05879,0.173941 -0.107746,0.0515 -0.228841,-0.02452 -0.266548,-0.128845 -0.05534,-0.153095 0.05047,-0.313958 0.198904,-0.359156 0.197843,-0.06024 0.39962,0.07635 0.451763,0.268964 0.06562,0.242383 -0.102193,0.485549 -0.339022,0.544371 -0.286833,0.07124 -0.571632,-0.12801 -0.636979,-0.409082 -0.07701,-0.331235 0.15381,-0.65781 0.479142,-0.729586 0.375608,-0.08287 0.744051,0.179599 0.822193,0.549201 0.08879,0.419964 -0.205381,0.830337 -0.61926,0.914801 -0.46431,0.09475 -0.916656,-0.231159 -1.007409,-0.68932 -0.100752,-0.508646 0.256931,-1.003 0.759379,-1.100016 0.552978,-0.106773 1.089363,0.2827 1.192624,0.829438 0.112812,0.597304 -0.308468,1.175739 -0.899498,1.285231 -0.641627,0.118865 -1.262128,-0.334233 -1.377838,-0.969557 -0.124931,-0.685947 0.359996,-1.348527 1.039616,-1.470446 0.730266,-0.131005 1.434933,0.38576 1.563054,1.109676 0.137087,0.774582 -0.411522,1.521346 -1.179736,1.655661 -0.818897,0.143176 -1.607765,-0.437282 -1.748268,-1.249795 -0.149271,-0.863211 0.463042,-1.694188 1.319854,-1.840876 0.907525,-0.155369 1.780616,0.488802 1.933483,1.389914 0.161473,0.951837 -0.514561,1.867047 -1.459972,2.026091 -0.996149,0.167579 -1.953481,-0.54032 -2.118699,-1.530032 -0.173689,-1.04046 0.566078,-2.039918 1.600092,-2.211306 1.08477,-0.179802 2.126356,0.591836 2.303913,1.670151 0.185916,1.129079 -0.617593,2.212797 -1.74021,2.396521 -1.17339,0.192032 -2.299241,-0.643352 -2.489129,-1.81027 -0.19815,-1.217699 0.669109,-2.385686 1.88033,-2.581736 1.262007,-0.204271 2.472131,0.694865 2.674343,1.950388 0.210392,1.306317 -0.720622,2.558579 -2.020448,2.766951 -1.350624,0.216516 -2.645028,-0.746378 -2.859558,-2.090507 -0.22264,-1.394933 0.772135,-2.731477 2.160566,-2.952166 0.838017,-0.133201 1.706893,0.156193 2.302428,0.759518"
       transform="translate(0.09354433,2.0898643)" />
    <path
       d="m 26.951133,43.327627 c 0,0 -0.04071,0.05247 -0.112138,0.148828 -0.07143,0.09636 -0.173652,0.23686 -0.296106,0.412378 -0.06123,0.08776 -0.127248,0.184032 -0.197404,0.288354 -0.07016,0.104323 -0.144125,0.216644 -0.220658,0.33538 -0.07653,0.118737 -0.155801,0.244171 -0.236162,0.375171 -0.08036,0.131001 -0.162276,0.267647 -0.243912,0.408761 -0.08164,0.141114 -0.163036,0.286555 -0.243396,0.435632 -0.08036,0.149077 -0.159628,0.30193 -0.236162,0.45682 -0.07653,0.15489 -0.150502,0.311703 -0.220658,0.470255 -0.03508,0.07928 -0.0688,0.158957 -0.101803,0.238745 -0.03301,0.07979 -0.06499,0.159747 -0.0956,0.239779 -0.03061,0.08003 -0.05995,0.160288 -0.08785,0.240296 -0.0279,0.08001 -0.05471,0.160065 -0.07958,0.239778 -0.02487,0.07971 -0.04772,0.159078 -0.06925,0.238229 -0.02152,0.07915 -0.04157,0.157841 -0.05943,0.236161 -0.01786,0.07832 -0.03367,0.156358 -0.04754,0.233577 -0.01387,0.07722 -0.02557,0.153593 -0.03514,0.229444 -0.0096,0.07585 -0.01728,0.151096 -0.02222,0.225309 -0.0049,0.07421 -0.0072,0.147319 -0.0072,0.219625 0,0.144612 0.0018,0.28802 0.0057,0.430464 0.0039,0.142444 0.01,0.284177 0.0186,0.424781 0.0086,0.140603 0.01949,0.280521 0.03359,0.419612 0.0141,0.139091 0.03127,0.277056 0.05168,0.414962 0.02041,0.137907 0.04432,0.275328 0.07183,0.412378 0.02752,0.13705 0.05863,0.273789 0.09405,0.410311 0.03542,0.136522 0.07524,0.272956 0.119372,0.409277 0.02207,0.06816 0.04485,0.136467 0.06925,0.204639 0.02439,0.06817 0.05017,0.136414 0.077,0.204639 0.02682,0.06822 0.05488,0.13632 0.08423,0.204638 0.02935,0.06832 0.06,0.136704 0.09198,0.205156 0.03198,0.06845 0.06503,0.137044 0.09974,0.205672 0.03471,0.06863 0.07098,0.137345 0.10852,0.206189 0.03754,0.06884 0.07684,0.137604 0.117306,0.206706 0.04047,0.0691 0.08208,0.138339 0.125573,0.207739 0.0435,0.0694 0.08877,0.139033 0.135393,0.208773 0.04663,0.06974 0.09484,0.139686 0.144694,0.209806 0.04986,0.07012 0.101326,0.140299 0.154512,0.21084 0.05319,0.07054 0.107714,0.141387 0.164331,0.21239 0.05662,0.071 0.115036,0.142434 0.175183,0.21394 0.06015,0.07151 0.122257,0.14344 0.186035,0.215491 0.06378,0.07205 0.129379,0.144405 0.196888,0.217041 0.06751,0.07264 0.136915,0.145328 0.208256,0.218591 0.07134,0.07326 0.144869,0.146728 0.220141,0.220659 0.07527,0.07393 0.152207,0.148603 0.231511,0.223242 0.03032,-0.0023 0.06122,-0.0085 0.0925,-0.01809 0.03128,-0.0096 0.06298,-0.02315 0.09508,-0.03979 0.03211,-0.01664 0.06486,-0.03658 0.09767,-0.05994 0.03281,-0.02337 0.06583,-0.04977 0.09922,-0.07958 0.03338,-0.02981 0.06694,-0.06324 0.100769,-0.09922 0.03383,-0.03597 0.06765,-0.07493 0.101803,-0.116788 0.03415,-0.04186 0.0685,-0.08639 0.102836,-0.133842 0.03434,-0.04746 0.06895,-0.09761 0.103353,-0.150379 0.0344,-0.05277 0.0685,-0.108075 0.102836,-0.165881 0.03434,-0.05781 0.06869,-0.11831 0.102836,-0.180868 0.03415,-0.06256 0.06849,-0.127277 0.10232,-0.194303 0.03383,-0.06703 0.06738,-0.13601 0.100769,-0.207223 0.06677,-0.142425 0.132671,-0.293141 0.196887,-0.450618 0.06421,-0.157478 0.126424,-0.32169 0.187068,-0.49196 0.06064,-0.170269 0.119648,-0.346814 0.1757,-0.527616 0.05605,-0.180802 0.109241,-0.36593 0.15968,-0.555005 0.05044,-0.189075 0.09779,-0.381621 0.141594,-0.576709 0.04381,-0.195088 0.08425,-0.392853 0.120406,-0.591695 0.03615,-0.198842 0.06812,-0.399111 0.0956,-0.599447 0.01374,-0.100168 0.02634,-0.200122 0.03772,-0.30024 0.01138,-0.100118 0.0216,-0.200455 0.03049,-0.30024 0.0089,-0.09979 0.01646,-0.199003 0.02274,-0.298173 0.0063,-0.09917 0.01145,-0.19835 0.01499,-0.296623 0.0035,-0.09827 0.0055,-0.195912 0.0062,-0.293005 6.65e-4,-0.09709 -2.51e-4,-0.193241 -0.0026,-0.288871 -0.0023,-0.09563 -0.0072,-0.190612 -0.01447,-0.284737 -0.0073,-0.09412 -0.01705,-0.187563 -0.02894,-0.280087 -0.01189,-0.09252 -0.02567,-0.184091 -0.04186,-0.274918 -0.01618,-0.09083 -0.03462,-0.180717 -0.05478,-0.269751 -0.02015,-0.08903 -0.04235,-0.177438 -0.06615,-0.264584 -0.0238,-0.08715 -0.04936,-0.17322 -0.07648,-0.258382 -0.02712,-0.08516 -0.05566,-0.169098 -0.08578,-0.252181 -0.03012,-0.08308 -0.06177,-0.165589 -0.09457,-0.246496 -0.0328,-0.08091 -0.06665,-0.160626 -0.101803,-0.239262 -0.03515,-0.07864 -0.07134,-0.155758 -0.10852,-0.232027 -0.03718,-0.07627 -0.07532,-0.151502 -0.114205,-0.22531 -0.03889,-0.07381 -0.07859,-0.146308 -0.118856,-0.217557 -0.08054,-0.142499 -0.163915,-0.279652 -0.248047,-0.411345 -0.08413,-0.131693 -0.169113,-0.25815 -0.254248,-0.378271 -0.08514,-0.120122 -0.170182,-0.234313 -0.253731,-0.342098 -0.08355,-0.107785 -0.16557,-0.209174 -0.244947,-0.303858 -0.07938,-0.09468 -0.15631,-0.182217 -0.228926,-0.263033 -0.07262,-0.08082 -0.140854,-0.154991 -0.204122,-0.221175 -0.06327,-0.06618 -0.121267,-0.124397 -0.172599,-0.175183 -0.05133,-0.05079 -0.096,-0.09405 -0.132809,-0.128674 -0.07362,-0.06924 -0.115755,-0.10542 -0.115755,-0.10542 z m 0.164331,1.330151 c 0,0 0.03086,0.02631 0.08475,0.077 0.05389,0.05069 0.131138,0.125319 0.223759,0.222209 0.04631,0.04844 0.09619,0.102591 0.149345,0.161747 0.05315,0.05916 0.10933,0.123447 0.167432,0.192753 0.0581,0.06931 0.118161,0.143829 0.179317,0.222725 0.06116,0.0789 0.123719,0.162188 0.186035,0.250114 0.06232,0.08793 0.124452,0.180073 0.186035,0.276469 0.06158,0.0964 0.122429,0.196968 0.181385,0.301274 0.05896,0.104306 0.116098,0.212356 0.170532,0.324011 0.05443,0.111655 0.105978,0.227271 0.153996,0.345715 0.02401,0.05922 0.0472,0.11902 0.06925,0.179834 0.02205,0.06082 0.04319,0.122665 0.06304,0.185002 0.01985,0.06234 0.03839,0.125347 0.05581,0.189136 0.01742,0.06379 0.03382,0.128099 0.04858,0.19327 0.01475,0.06517 0.02794,0.130921 0.03979,0.197404 0.01185,0.06648 0.0223,0.133812 0.03101,0.201538 0.0087,0.06772 0.01586,0.135741 0.02119,0.204638 0.0053,0.0689 0.0086,0.138774 0.01033,0.208773 0.0034,0.139999 0.0026,0.281947 -0.0026,0.425814 -0.0052,0.143867 -0.01437,0.289551 -0.02739,0.435632 -0.01302,0.146081 -0.03001,0.292609 -0.05013,0.43925 -0.02011,0.146641 -0.04382,0.293185 -0.07028,0.438733 -0.02646,0.145547 -0.05579,0.290249 -0.08785,0.433048 -0.03207,0.1428 -0.06643,0.283799 -0.103353,0.422197 -0.03692,0.138398 -0.07628,0.274351 -0.117306,0.406693 -0.04103,0.132343 -0.08377,0.260873 -0.128157,0.385507 -0.04439,0.124633 -0.09046,0.245431 -0.13746,0.360701 -0.047,0.11527 -0.0953,0.225443 -0.144177,0.329696 -0.04887,0.104252 -0.09832,0.202458 -0.148311,0.294039 -0.04999,0.09158 -0.10053,0.176475 -0.150895,0.253731 -0.02518,0.03863 -0.05031,0.07533 -0.07545,0.110071 -0.02514,0.03474 -0.04994,0.06755 -0.07493,0.09819 -0.025,0.03064 -0.05017,0.05893 -0.07493,0.08527 -0.02476,0.02633 -0.04946,0.05053 -0.0739,0.07235 -0.02444,0.02182 -0.04833,0.04129 -0.07235,0.05839 -0.02402,0.0171 -0.04781,0.03175 -0.07131,0.04393 -0.0235,0.01218 -0.04687,0.02189 -0.06976,0.02894 -0.0229,0.007 -0.0455,0.01173 -0.0677,0.01344 -0.116096,-0.109268 -0.22629,-0.217791 -0.330729,-0.325045 -0.104439,-0.107253 -0.203254,-0.213364 -0.296623,-0.318843 -0.09337,-0.10548 -0.181182,-0.210248 -0.264066,-0.314193 -0.08288,-0.103946 -0.16059,-0.20689 -0.233578,-0.309542 -0.07299,-0.102652 -0.141478,-0.204843 -0.205155,-0.306441 -0.06368,-0.101598 -0.122813,-0.203073 -0.177767,-0.303858 -0.05495,-0.100784 -0.105628,-0.201062 -0.152445,-0.301273 -0.04682,-0.100211 -0.08941,-0.200363 -0.128675,-0.30024 -0.03927,-0.09988 -0.07518,-0.199423 -0.107487,-0.299207 -0.03231,-0.09978 -0.0614,-0.199792 -0.08733,-0.299723 -0.02593,-0.09993 -0.04859,-0.199923 -0.06873,-0.30024 -0.02014,-0.100318 -0.03777,-0.200846 -0.05271,-0.30179 -0.01494,-0.100945 -0.0274,-0.202047 -0.03772,-0.303858 -0.01032,-0.101811 -0.01851,-0.204039 -0.02481,-0.306958 -0.0063,-0.102918 -0.01058,-0.206826 -0.01344,-0.311092 -0.0029,-0.104266 -0.0041,-0.208857 -0.0041,-0.31471 0,-0.05293 0.0021,-0.106908 0.0057,-0.16123 0.0036,-0.05432 0.009,-0.109327 0.01602,-0.164848 0.007,-0.05552 0.01568,-0.111425 0.02584,-0.167948 0.01015,-0.05652 0.02155,-0.113721 0.03462,-0.171049 0.01307,-0.05733 0.02765,-0.114663 0.04341,-0.172599 0.01576,-0.05794 0.03295,-0.116318 0.05116,-0.174667 0.03641,-0.116697 0.07714,-0.234236 0.121957,-0.3514 0.04482,-0.117163 0.09334,-0.233792 0.144694,-0.349849 0.05135,-0.116057 0.105726,-0.231306 0.161747,-0.344682 0.05602,-0.113375 0.113777,-0.225226 0.172599,-0.334346 0.05882,-0.109121 0.118528,-0.215552 0.178284,-0.318844 0.05976,-0.103292 0.119462,-0.203317 0.178284,-0.299206 0.05882,-0.09589 0.117095,-0.18749 0.173116,-0.274402 0.112041,-0.173825 0.216291,-0.328345 0.305924,-0.45682 0.08963,-0.128475 0.164238,-0.231257 0.216524,-0.30179 0.05229,-0.07053 0.08217,-0.108521 0.08217,-0.108521 z"
       style="fill:#850303;fill-opacity:1;stroke:#000000;stroke-width:0"
       id="path9" />
    <path
       style="fill:#850303;fill-opacity:1;stroke:#000000;stroke-width:0.3;stroke-dasharray:none;stroke-opacity:1"
       d="m 25.444058,18.9895 c 0,0 -1.30962,3.928862 -1.239462,4.607058 0.07016,0.678197 0.233861,0.748355 0.233861,0.748355"
       id="path10" />
    <path
       style="fill:#850303;fill-opacity:1;stroke:#000000;stroke-width:0.3;stroke-dasharray:none;stroke-opacity:1"
       d="m 27.461338,18.955289 c 0,0 1.30962,3.928862 1.239462,4.607058 -0.07016,0.678197 -0.233861,0.748355 -0.233861,0.748355"
       id="path10-2" />
    <path
       style="fill:#ffffff;fill-opacity:1;stroke:#000000;stroke-width:0;stroke-dasharray:none;stroke-opacity:1"
       d="m 24.532001,29.068901 0.467722,-0.643118 0.07016,0.654812 c 0,0 0.724969,0.11693 1.134225,0.11693 0.409257,0 1.262848,-0.175395 1.262848,-0.175395 l -0.01169,-0.724969 0.795126,0.724969 c 0,0 -1.625333,1.239462 -3.718388,0.04677 z"
       id="path11" />
    <path
       style="fill:#0cfe00;fill-opacity:1;stroke:#000000;stroke-width:0;stroke-dasharray:none;stroke-opacity:1"
       d="m 43.857361,31.212136 c 1.721832,1.371155 4.152777,0.271132 4.91052,-0.680407 0.757745,-0.951539 1.851171,-3.486901 1.89902,-4.337344 0.04785,-0.850442 -0.08093,-1.804519 -0.873881,-2.435972 -0.792951,-0.631454 -1.728986,-0.525328 -2.461119,-0.256827 -0.732136,0.2685 -3.169817,2.399795 -3.832738,3.278753 -0.662924,0.878957 -1.114422,3.259099 0.358198,4.431797 z"
       id="path12" />
    <path
       style="fill:#0001fe;fill-opacity:1;stroke:#000000;stroke-width:0;stroke-dasharray:none;stroke-opacity:1"
       d="m 9.0073472,27.011917 c -1.721832,1.371155 -4.152777,0.271132 -4.91052,-0.680407 -0.757745,-0.951539 -1.851171,-3.486901 -1.89902,-4.337344 -0.04785,-0.850442 0.08093,-1.804519 0.873881,-2.435972 0.792951,-0.631454 1.728986,-0.525328 2.461119,-0.256827 0.732136,0.2685 3.169817,2.399795 3.832738,3.278753 0.6629238,0.878957 1.1144218,3.259099 -0.358198,4.431797 z"
       id="path12-2" />
    <path
       style="fill:#00d2fb;fill-opacity:1;stroke:#000000;stroke-width:0;stroke-dasharray:none;stroke-opacity:1"
       d="m -11.309803,28.012163 c 1.5865784,-1.949528 0.359932,-4.738734 -0.717439,-5.615526 -1.07737,-0.876794 -3.959227,-2.156095 -4.92976,-2.22104 -0.970533,-0.06494 -2.061546,0.07054 -2.792207,0.968354 -0.730662,0.897811 -0.620822,1.967948 -0.323096,2.807219 0.297725,0.839273 2.70189,3.64867 3.69753,4.416307 0.99564,0.76764 3.708032,1.312047 5.064972,-0.355314 z"
       id="path12-6" />
  </g>
</svg>
