<?xml version="1.0" encoding="UTF-8" standalone="no"?>
<!-- Created with Inkscape (http://www.inkscape.org/) -->

<svg
   width="256"
   height="256"
   viewBox="0 0 67.733332 67.733333"
   version="1.1"
   id="svg1"
   xml:space="preserve"
   inkscape:version="1.3 (0e150ed6c4, 2023-07-21)"
   sodipodi:docname="LoneSamurai.svg"
   inkscape:export-filename="..\Assets\Sprites\Units\Heroes\Lone samurai.png"
   inkscape:export-xdpi="96"
   inkscape:export-ydpi="96"
   xmlns:inkscape="http://www.inkscape.org/namespaces/inkscape"
   xmlns:sodipodi="http://sodipodi.sourceforge.net/DTD/sodipodi-0.dtd"
   xmlns="http://www.w3.org/2000/svg"
   xmlns:svg="http://www.w3.org/2000/svg"><sodipodi:namedview
     id="namedview1"
     pagecolor="#505050"
     bordercolor="#ffffff"
     borderopacity="1"
     inkscape:showpageshadow="0"
     inkscape:pageopacity="0"
     inkscape:pagecheckerboard="1"
     inkscape:deskcolor="#505050"
     inkscape:document-units="mm"
     inkscape:zoom="2.9683222"
     inkscape:cx="58.282083"
     inkscape:cy="142.3363"
     inkscape:window-width="1920"
     inkscape:window-height="1009"
     inkscape:window-x="-8"
     inkscape:window-y="-8"
     inkscape:window-maximized="1"
     inkscape:current-layer="layer1"
     showgrid="false" /><defs
     id="defs1" /><g
     inkscape:label="Шар 1"
     inkscape:groupmode="layer"
     id="layer1"><rect
       style="fill:#f5e4a2;fill-opacity:1;stroke:#ffd78b;stroke-width:0"
       id="rect1"
       width="29.018576"
       height="38.151722"
       x="14.702479"
       y="21.197454"
       rx="14.509288"
       ry="19.075861"
       transform="matrix(0.94858282,-0.31652905,0.31977392,0.94749387,0,0)" /><path
       style="fill:#f5e4a2;fill-opacity:1;stroke:#000000;stroke-width:0;stroke-dasharray:none;stroke-opacity:1"
       d="m 54.818427,48.17782 c 2.050119,4.947028 4.724189,4.412215 5.392706,4.189375 0.668518,-0.222837 6.328632,-1.782712 6.863445,-1.738143 0.534816,0.04457 0.668518,0.04457 0.668518,0.04457 v 17.158613 c 0,0 -41.633706,0.970523 -41.893757,0 -0.26005,-0.970521 1.693577,-5.793817 2.317528,-6.284063 0.623948,-0.490246 6.328632,-2.986043 7.621098,-3.342587 1.292468,-0.356542 6.818878,-0.668517 7.130851,-1.42617 0.311976,-0.757653 0.267409,-4.456782 -0.04457,-5.303571 -0.311976,-0.846788 11.944177,-3.29802 11.944177,-3.29802 z"
       id="path22" /><path
       d="m 52.597282,42.50911 c -0.123273,0.16185 -0.247947,0.32279 -0.377253,0.478234 -0.155976,0.187503 -0.316499,0.370211 -0.481068,0.548009 -0.164571,0.177799 -0.333068,0.35027 -0.506031,0.517943 -0.172963,0.167675 -0.350403,0.33018 -0.531558,0.48731 -0.181156,0.15713 -0.366238,0.308808 -0.555386,0.454973 -0.189148,0.146167 -0.382274,0.286721 -0.579211,0.421502 -0.196938,0.134783 -0.397376,0.263919 -0.601903,0.386898 -0.204528,0.122979 -0.413246,0.239835 -0.625163,0.350591 -0.211917,0.110757 -0.427047,0.215602 -0.646154,0.313716 -0.219106,0.09812 -0.442184,0.189519 -0.668276,0.274573 -0.226093,0.08505 -0.455254,0.163855 -0.688133,0.235428 -0.232881,0.07157 -0.469091,0.136344 -0.708557,0.194015 -0.239464,0.05768 -0.479405,0.107474 -0.719333,0.149768 -0.23993,0.04231 -0.479877,0.07662 -0.719902,0.103818 -0.240026,0.0272 -0.480152,0.04716 -0.719901,0.05957 -0.239751,0.01239 -0.479094,0.01745 -0.718201,0.01531 -0.239106,-0.0021 -0.477838,-0.01142 -0.715929,-0.0278 -0.23355,-0.01607 -0.466694,-0.03971 -0.698913,-0.06921 0.0046,0.01755 0.0065,0.03523 0.01135,0.05276 0.05546,0.203016 0.121869,0.405645 0.199122,0.606442 l 4.462368,11.598415 c 0.07725,0.200798 0.163774,0.395346 0.258689,0.583182 0.09491,0.187836 0.197925,0.368619 0.309177,0.542905 0.111251,0.174285 0.230569,0.341913 0.356831,0.502059 0.126261,0.160146 0.259431,0.312958 0.399378,0.458376 0.139947,0.145418 0.286781,0.28346 0.439089,0.413561 0.152308,0.130102 0.310351,0.25228 0.473693,0.366475 0.163343,0.114194 0.331843,0.220555 0.504896,0.318255 0.173051,0.0977 0.35069,0.186581 0.532127,0.267198 0.181436,0.08062 0.366889,0.152628 0.555383,0.215572 0.188496,0.06295 0.379879,0.116998 0.574107,0.16168 0.194227,0.04468 0.390786,0.08025 0.589423,0.10608 0.198636,0.02584 0.399616,0.04183 0.601336,0.04823 0.201721,0.0063 0.404668,0.0029 0.608144,-0.01075 0.203477,-0.01364 0.407071,-0.03723 0.61098,-0.07148 0.20391,-0.03425 0.407964,-0.079 0.610981,-0.13445 0.203017,-0.05546 0.405077,-0.12187 0.605874,-0.199122 0.200798,-0.07725 0.395347,-0.163205 0.583183,-0.258121 0.187837,-0.09491 0.369185,-0.198495 0.543471,-0.309745 0.174286,-0.11125 0.341346,-0.230569 0.501493,-0.35683 0.160145,-0.126262 0.313527,-0.259431 0.458943,-0.399378 0.145418,-0.139947 0.282894,-0.286782 0.412994,-0.439089 0.130101,-0.152308 0.252847,-0.310352 0.367042,-0.473695 0.114194,-0.163341 0.219988,-0.331844 0.317687,-0.504894 0.0977,-0.173053 0.187149,-0.35069 0.267766,-0.532126 0.08061,-0.181436 0.152627,-0.366324 0.215572,-0.554819 0.06295,-0.188494 0.11643,-0.380444 0.161112,-0.574673 0.04468,-0.194228 0.08025,-0.390786 0.106091,-0.589423 0.02583,-0.198637 0.0424,-0.399617 0.04879,-0.601336 0.0063,-0.201719 0.0029,-0.404666 -0.01075,-0.608144 -0.01363,-0.203476 -0.0378,-0.407071 -0.07205,-0.61098 -0.03426,-0.203909 -0.07899,-0.407964 -0.13445,-0.61098 -0.05546,-0.203016 -0.121301,-0.405076 -0.198555,-0.605875 L 53.145292,43.600592 c -0.07725,-0.200797 -0.163772,-0.395346 -0.258688,-0.583182 -0.08875,-0.175624 -0.186259,-0.344504 -0.289322,-0.5083 z"
       style="fill:#f5e4a2;stroke:#ffd78b;stroke-width:0"
       id="path2" /><path
       d="m 54.109491,46.071508 -0.927533,-2.410451 c -0.07725,-0.200799 -0.163772,-0.395347 -0.258687,-0.583183 -0.08875,-0.175623 -0.186259,-0.344504 -0.289322,-0.508299 -0.123273,0.161849 -0.247949,0.322789 -0.377254,0.478233 -0.155975,0.187504 -0.3165,0.370211 -0.481069,0.54801 -0.164571,0.177798 -0.333067,0.350269 -0.50603,0.517942 -0.172963,0.167675 -0.350404,0.330182 -0.531559,0.487311 -0.181155,0.157129 -0.366237,0.308808 -0.555385,0.454973 -0.189147,0.146166 -0.382274,0.286721 -0.579211,0.421503 -0.196938,0.134782 -0.397376,0.263917 -0.601904,0.386897 -0.204528,0.122978 -0.413246,0.239833 -0.625162,0.35059 -0.211917,0.110757 -0.427048,0.215602 -0.646154,0.313716 -0.219105,0.09812 -0.442185,0.189519 -0.668276,0.274573 -0.226094,0.08505 -0.455254,0.163855 -0.688133,0.235428 -0.23288,0.07157 -0.469091,0.136345 -0.708556,0.194016 -0.239465,0.05768 -0.479405,0.107473 -0.719334,0.149767 -0.23993,0.0423 -0.479877,0.07662 -0.719902,0.103818 -0.240025,0.0272 -0.480152,0.04716 -0.719901,0.05957 -0.239751,0.01239 -0.479095,0.01746 -0.718202,0.01531 -0.239104,-0.0021 -0.477838,-0.01142 -0.715929,-0.0278 -0.233549,-0.01607 -0.466692,-0.03972 -0.698912,-0.06922 0.0046,0.01755 0.0065,0.03523 0.01134,0.05276 0.05546,0.203016 0.121869,0.405644 0.199122,0.606442 l 1.015464,2.63964 c 0.11728,0.01849 0.234034,0.04051 0.351725,0.05559 0.236706,0.03034 0.474435,0.05339 0.712527,0.06978 0.23809,0.01638 0.476257,0.02567 0.715362,0.0278 0.239106,0.0021 0.479017,-0.003 0.718767,-0.01531 0.239751,-0.01239 0.479877,-0.03179 0.719903,-0.05899 0.240025,-0.0272 0.47997,-0.06209 0.719901,-0.104378 0.23993,-0.04231 0.479869,-0.09209 0.719335,-0.149766 0.239464,-0.05767 0.475675,-0.122444 0.708554,-0.194017 0.232879,-0.07157 0.462041,-0.149806 0.688133,-0.234861 0.226093,-0.08506 0.448605,-0.177025 0.667711,-0.27514 0.219104,-0.09811 0.434802,-0.202392 0.64672,-0.313148 0.211917,-0.110758 0.420067,-0.228179 0.624595,-0.351159 0.204528,-0.122979 0.405533,-0.251547 0.602471,-0.38633 0.196938,-0.134782 0.390065,-0.275337 0.579211,-0.421501 0.189149,-0.146167 0.37423,-0.297845 0.555385,-0.454974 0.181156,-0.157129 0.358596,-0.319636 0.531559,-0.48731 0.172964,-0.167673 0.341461,-0.340711 0.506029,-0.518511 0.164572,-0.177798 0.325095,-0.360505 0.481071,-0.54801 0.0897,-0.107825 0.17472,-0.220371 0.261524,-0.331301 z"
       style="fill:#f0d979;fill-opacity:1;stroke:#ffd78b;stroke-width:0"
       id="path3" /><g
       id="g6"
       transform="matrix(1.1972854,0,0,1.1972854,-8.8533908,0.65422638)"><path
         style="fill:#ffffff;fill-opacity:1;stroke:#000000;stroke-width:0.381787;stroke-dasharray:none;stroke-opacity:1"
         d="m 30.642236,24.258693 c 0,0 0.670411,-2.193382 2.750829,-2.750828 2.080419,-0.557445 5.246423,0 5.246423,0 0,0 -3.142657,2.214959 -4.437237,2.561841 -1.294573,0.34688 -3.560015,0.188987 -3.560015,0.188987 z"
         id="path4" /><circle
         style="fill:#ff0505;fill-opacity:1;stroke:#000000;stroke-width:0;stroke-dasharray:none;stroke-opacity:1"
         id="path5"
         cx="34.21553"
         cy="22.621471"
         r="1.3926882" /><path
         style="fill:#ffffff;fill-opacity:0;stroke:#000000;stroke-width:0.382;stroke-dasharray:none;stroke-opacity:1"
         d="m 30.621113,24.276317 c 0,0 0.670411,-2.193382 2.750829,-2.750828 2.080419,-0.557445 5.246423,0 5.246423,0 0,0 -3.142657,2.214959 -4.437237,2.561841 -1.294573,0.34688 -3.560015,0.188987 -3.560015,0.188987 z"
         id="path4-6" /></g><g
       id="g5"
       transform="matrix(1.1972854,0,0,1.1972854,-8.8533908,0.65422638)"><path
         style="fill:#ffffff;fill-opacity:1;stroke:#000000;stroke-width:0.420102;stroke-dasharray:none;stroke-opacity:1"
         d="m 51.07935,17.933547 c 0,0 -1.772972,-1.772431 -3.854103,-0.991895 -2.081132,0.780537 -4.478697,3.381265 -4.478697,3.381265 0,0 3.895259,0.200779 5.190283,-0.284924 1.295017,-0.485698 3.142517,-2.104446 3.142517,-2.104446 z"
         id="path4-4" /><ellipse
         style="fill:#ff0505;fill-opacity:1;stroke:#000000;stroke-width:0;stroke-dasharray:none;stroke-opacity:1"
         id="path5-6"
         cx="-28.276484"
         cy="40.465485"
         transform="matrix(-0.85436258,0.51967738,0.56004235,0.82846398,0,0)"
         rx="1.4793867"
         ry="1.4471797" /><path
         style="fill:#ffffff;fill-opacity:0;stroke:#000000;stroke-width:0.420337;stroke-dasharray:none;stroke-opacity:1"
         d="m 51.10703,17.937647 c 0,0 -1.772973,-1.77243 -3.854103,-0.991894 -2.081132,0.780535 -4.478698,3.381263 -4.478698,3.381263 0,0 3.895259,0.200781 5.190283,-0.284921 1.295016,-0.485702 3.142518,-2.104448 3.142518,-2.104448 z"
         id="path4-6-3" /></g><path
       style="fill:#000000;fill-opacity:1;stroke:#000000;stroke-width:0;stroke-dasharray:none;stroke-opacity:1"
       d="m 49.17236,17.906613 c 0,0 -1.276815,1.625845 -2.739442,2.434518 -1.462627,0.80868 -4.357143,2.09413 -4.815098,1.775365 -1.135474,-0.790362 1.029155,-1.486617 2.588641,-1.803738 0.94794,-0.192763 2.769267,-1.314319 3.695938,-1.658106 0.926666,-0.343798 1.269961,-0.748039 1.269961,-0.748039 z"
       id="path6"
       sodipodi:nodetypes="cssscc" /><path
       style="fill:#000000;fill-opacity:1;stroke:#000000;stroke-width:0;stroke-dasharray:none;stroke-opacity:1"
       d="m 27.047529,24.526893 c 0,0 1.933093,0.732654 3.603199,0.669611 1.67011,-0.06304 4.812569,-0.457439 5.040052,-0.966935 0.56403,-1.263267 -1.649113,-0.74136 -3.148257,-0.207385 -0.911261,0.324579 -3.050124,0.304988 -4.021181,0.489264 -0.971058,0.184264 -1.473813,0.01544 -1.473813,0.01544 z"
       id="path6-73"
       sodipodi:nodetypes="cssscc" /><g
       id="g20"
       transform="translate(0.62394958,2.584934)"><path
         style="fill:#000000;fill-opacity:1;stroke:#000000;stroke-width:0;stroke-dasharray:none;stroke-opacity:1"
         d="m 30.108018,25.823603 c 0.449209,0.515296 0.721549,0.569018 1.009762,0.396511 0.288211,-0.172513 0.23905,-0.413522 0.135926,-0.513584 -0.103107,-0.100059 -0.331934,-0.05639 -0.408947,0.06569 -0.077,0.12203 -0.120045,0.287366 -0.236655,0.222541 -0.116604,-0.06483 -0.500108,-0.171122 -0.500108,-0.171122 z"
         id="path7" /><path
         style="fill:#000000;fill-opacity:1;stroke:#000000;stroke-width:0;stroke-dasharray:none;stroke-opacity:1"
         d="m 31.699441,23.500503 c -0.658871,0.182225 -0.825074,0.404555 -0.794153,0.739023 0.03091,0.334469 0.269524,0.394333 0.404311,0.344636 0.134809,-0.0497 0.194349,-0.274931 0.117598,-0.397147 -0.07677,-0.122175 -0.207201,-0.232498 -0.09834,-0.309615 0.108858,-0.07711 0.370558,-0.376937 0.370558,-0.376937 z"
         id="path7-9" /><path
         style="fill:#000000;fill-opacity:1;stroke:#000000;stroke-width:0;stroke-dasharray:none;stroke-opacity:1"
         d="m 32.863703,26.085209 c 0.183994,-0.658377 0.07935,-0.915487 -0.223087,-1.061636 -0.302426,-0.146162 -0.476861,0.02733 -0.503863,0.168416 -0.02701,0.14112 0.135168,0.308364 0.279463,0.305701 0.144268,-0.0026 0.306081,-0.05746 0.315938,0.07558 0.0098,0.133039 0.131591,0.511934 0.131591,0.511934 z"
         id="path7-9-7" /><circle
         style="fill:#000000;fill-opacity:0;stroke:#000000;stroke-width:0.0992008;stroke-dasharray:none;stroke-opacity:1"
         id="path8"
         cx="31.508514"
         cy="25.156372"
         r="0.91739082" /><circle
         style="fill:#000000;fill-opacity:0;stroke:#000000;stroke-width:0.119729;stroke-dasharray:none;stroke-opacity:1"
         id="path9"
         cx="31.470776"
         cy="25.141647"
         r="0.2735534" /></g><g
       id="g21"
       transform="translate(0.62394958,2.584934)"><path
         style="fill:#000000;fill-opacity:1;stroke:#000000;stroke-width:0;stroke-dasharray:none;stroke-opacity:1"
         d="m 45.074477,21.392198 c 0.462012,0.529983 0.742115,0.585234 1.038544,0.407812 0.296425,-0.177431 0.245863,-0.425308 0.139799,-0.528224 -0.106055,-0.102907 -0.341394,-0.05799 -0.420602,0.06756 -0.07919,0.125508 -0.123468,0.295556 -0.243401,0.228884 -0.119927,-0.06669 -0.514363,-0.176001 -0.514363,-0.176001 z"
         id="path7-4" /><path
         style="fill:#000000;fill-opacity:1;stroke:#000000;stroke-width:0;stroke-dasharray:none;stroke-opacity:1"
         d="m 46.71126,19.00288 c -0.677651,0.187419 -0.84859,0.416086 -0.816788,0.760089 0.03178,0.344002 0.277206,0.405573 0.415836,0.354458 0.138651,-0.05113 0.199887,-0.282767 0.120949,-0.408466 -0.07895,-0.125657 -0.213107,-0.239127 -0.101131,-0.31844 0.111958,-0.07931 0.381119,-0.387681 0.381119,-0.387681 z"
         id="path7-9-6" /><path
         style="fill:#000000;fill-opacity:1;stroke:#000000;stroke-width:0;stroke-dasharray:none;stroke-opacity:1"
         d="m 47.908709,21.661259 c 0.189238,-0.677144 0.08161,-0.94158 -0.229446,-1.091895 -0.311046,-0.15033 -0.490454,0.0281 -0.518225,0.173217 -0.02779,0.145142 0.13902,0.317152 0.287429,0.314413 0.148379,-0.0027 0.314805,-0.05911 0.324943,0.07774 0.01009,0.136832 0.135342,0.526525 0.135342,0.526525 z"
         id="path7-9-7-4" /><circle
         style="fill:#000000;fill-opacity:0;stroke:#000000;stroke-width:0.102028;stroke-dasharray:none;stroke-opacity:1"
         id="path8-1"
         cx="46.5149"
         cy="20.705944"
         r="0.94353986" /><circle
         style="fill:#000000;fill-opacity:0;stroke:#000000;stroke-width:0.123141;stroke-dasharray:none;stroke-opacity:1"
         id="path9-0"
         cx="46.476086"
         cy="20.690802"
         r="0.28135067" /></g><path
       style="fill:#000000;fill-opacity:0;stroke:#000000;stroke-width:0.766;stroke-dasharray:none;stroke-opacity:1"
       d="m 40.154812,30.006754 -1.64205,5.08476 3.519927,-0.628728"
       id="path11" /><path
       style="fill:#000000;fill-opacity:1;stroke:#000000;stroke-width:0;stroke-dasharray:none;stroke-opacity:1"
       d="m 45.360026,12.445251 c 0,0 -3.24731,0.569026 -5.520308,0.821615 -1.61459,0.179422 -9.20434,9.401467 -10.851453,11.256707 -1.674547,1.88614 -2.819986,5.853635 -2.560606,21.497237 0.02174,1.311039 0.593824,9.6023 0.08951,9.904889 -0.504316,0.302587 -0.788035,-6.15354 -1.104353,-6.548132 -0.970307,-1.210415 -0.738781,3.767045 -1.306124,4.227292 -0.738961,0.59947 0.226215,-4.230133 -1.072813,-5.887884 -0.29366,-0.374753 -1.39407,8.146901 -1.645241,4.436865 l -0.288952,-4.268091 c 0,0 0.02223,-4.221974 0.05878,-8.141977 0.03286,-3.524531 0.98862,-12.601139 1.435528,-15.307828 0.708894,-4.293395 4.506503,-10.016442 7.527921,-11.685369 2.037044,-1.125193 4.977042,-3.9835943 9.69522,-3.6315115 1.77535,0.1324812 5.542901,3.3261875 5.5429,3.3261875 z"
       id="path15"
       sodipodi:nodetypes="zsssssssscsssszz" /><g
       id="g19"
       transform="matrix(1.590117,0.28999157,-0.28999157,1.590117,-115.72831,-28.541085)"><path
         style="fill:#000000;fill-opacity:1;stroke:#000000;stroke-width:0;stroke-dasharray:none;stroke-opacity:1"
         d="m 99.141131,8.2004801 0.02228,2.2283919 0.311975,0.245123 0.08913,-0.9359248 1.381604,2.4066628 0.37883,-0.222839 z"
         id="path16" /><path
         style="fill:#000000;fill-opacity:1;stroke:#000000;stroke-width:0;stroke-dasharray:none;stroke-opacity:1"
         d="m 102.06032,10.76313 0.0891,-0.40111 -0.5571,-0.155988 -0.22284,0.22284 0.31198,0.245123 z"
         id="path17" /><path
         style="fill:#000000;fill-opacity:1;stroke:#000000;stroke-width:0;stroke-dasharray:none;stroke-opacity:1"
         d="m 102.52828,10.852266 0.31198,0.155987 c 0,0 0.75765,-0.378826 0.77994,-0.668517 0.0223,-0.289691 -0.73537,-1.337035 -0.73537,-1.337035 l 0.49025,-0.3342587 -0.15599,-0.289691 c 0,0 -0.22284,0.289691 -0.4234,0.267407 -0.20055,-0.022283 -0.35654,-0.2896907 -0.35654,-0.2896907 l -0.17827,0.089135 c 0,0 0.22284,0.3342587 0.0446,0.4679622 -0.17827,0.1337034 -1.6713,1.1141962 -1.6713,1.1141962 l 0.17827,0.289691 1.78272,-1.1364803 c 0,0 0.62395,0.8913573 0.57938,1.0250603 -0.0446,0.133704 -0.64624,0.646234 -0.64624,0.646234 z"
         id="path18" /><path
         style="fill:#000000;fill-opacity:1;stroke:#000000;stroke-width:0;stroke-dasharray:none;stroke-opacity:1"
         d="m 100.38903,7.2645557 0.33426,0.4679622 -0.84679,0.534814 0.20055,0.3119747 0.86908,-0.534814 0.26741,0.5125302 -1.13649,0.7130852 0.20056,0.2896909 2.58493,-1.6267257 -0.24512,-0.3119747 -1.00277,0.6239494 -0.31198,-0.4011105 0.91364,-0.6239494 -0.26741,-0.311975 -0.8245,0.534814 -0.28969,-0.4456782 z"
         id="path19" /></g><path
       style="fill:#000000;fill-opacity:1;stroke:#000000;stroke-width:0;stroke-dasharray:none;stroke-opacity:1"
       d="m 40.310327,41.036342 c 0,0 -0.102832,-1.026934 0.558194,-1.300064 0.66104,-0.273118 5.172615,-1.785479 5.902888,-1.971434 0.635908,-0.108459 1.540218,0.486265 1.324585,0.65156 -0.215631,0.16532 -7.785641,2.620024 -7.785641,2.620024 z"
       id="path20"
       sodipodi:nodetypes="cscscc" /><path
       style="fill:#f0d979;fill-opacity:1;stroke:#000000;stroke-width:0;stroke-dasharray:none;stroke-opacity:1"
       d="m 54.075144,46.071574 c -5.210181,6.74259 -11.011496,10.274671 -10.987974,9.808445 0.219732,-4.355296 -0.985228,-6.355421 -0.985228,-6.355421 z"
       id="path21"
       sodipodi:nodetypes="cscc" /><path
       style="fill:#e88aff;fill-opacity:1;stroke:#000000;stroke-width:0;stroke-dasharray:none;stroke-opacity:1"
       d="m 25.762869,67.755557 c 0,0 0.740583,-4.947732 2.332052,-6.208299 1.591466,-1.26057 7.169483,-3.308993 7.973094,-3.466566 0.803614,-0.15757 6.791315,-1.229053 6.791315,-1.229053 0,0 4.916217,5.420445 6.681012,6.807071 1.764795,1.386625 7.212036,-12.491614 7.212036,-12.491614 l 1.943449,1.244668 c 1.118149,-0.0036 4.111999,-0.822998 4.111999,-0.822998 0,0 3.308993,-1.039969 3.939277,-1.008454 0.630284,0.03151 1.134511,0.157571 1.134511,0.157571 l 0,17.837044 H 25.652569 Z"
       id="path23" /><path
       style="fill:#9c9c9c;fill-opacity:1;stroke:#000000;stroke-width:0;stroke-dasharray:none;stroke-opacity:1"
       d="M 4.159876,42.229045 19.458851,68.727647 H 22.81629 L 7.6717839,42.496594 Z"
       id="path24" /><path
       style="fill:#cfcfcf;fill-opacity:1;stroke:#000000;stroke-width:0;stroke-dasharray:none;stroke-opacity:1"
       d="m 4.1632635,42.241372 15.2698915,26.515359 2.210668,0.6617 L 6.5281086,43.170789 Z"
       id="path24-9" /><path
       style="fill:#cfcfcf;fill-opacity:1;stroke:#000000;stroke-width:0;stroke-dasharray:none;stroke-opacity:1"
       d="M 6.5514706,43.21965 6.0605727,42.36939 4.1559498,42.228015 4.4091955,42.66665 Z"
       id="path25" /></g></svg>
