<?xml version="1.0" encoding="UTF-8" standalone="no"?>
<!-- Created with Inkscape (http://www.inkscape.org/) -->

<svg
   width="200"
   height="200"
   viewBox="0 0 52.916665 52.916666"
   version="1.1"
   id="svg1"
   inkscape:version="1.3 (0e150ed6c4, 2023-07-21)"
   sodipodi:docname="MageImp.svg"
   inkscape:export-filename="..\Assets\Sprites\Units\Summons\RangedImp.png"
   inkscape:export-xdpi="96"
   inkscape:export-ydpi="96"
   xmlns:inkscape="http://www.inkscape.org/namespaces/inkscape"
   xmlns:sodipodi="http://sodipodi.sourceforge.net/DTD/sodipodi-0.dtd"
   xmlns="http://www.w3.org/2000/svg"
   xmlns:svg="http://www.w3.org/2000/svg">
  <sodipodi:namedview
     id="namedview1"
     pagecolor="#505050"
     bordercolor="#ffffff"
     borderopacity="1"
     inkscape:showpageshadow="0"
     inkscape:pageopacity="0"
     inkscape:pagecheckerboard="1"
     inkscape:deskcolor="#505050"
     inkscape:document-units="mm"
     inkscape:zoom="3.0324635"
     inkscape:cx="44.683143"
     inkscape:cy="93.158581"
     inkscape:window-width="1920"
     inkscape:window-height="1009"
     inkscape:window-x="-8"
     inkscape:window-y="-8"
     inkscape:window-maximized="1"
     inkscape:current-layer="layer1" />
  <defs
     id="defs1" />
  <g
     inkscape:label="Шар 1"
     inkscape:groupmode="layer"
     id="layer1">
    <path
       style="fill:#000b84;fill-opacity:1;stroke:#000000;stroke-width:0"
       d="m 20.152833,26.525267 c -1.086409,2.557916 -1.302017,13.298133 -0.715145,14.642182 0.58687,1.344048 0.71537,1.611777 1.513182,1.393957 0.797804,-0.217825 0.983666,-12.566527 0.857081,-13.254802 -0.126584,-0.688273 -0.435374,-2.059406 -1.655118,-2.781337 z"
       id="path9-9" />
    <path
       style="fill:#24b6cb;fill-opacity:1;stroke:#000000;stroke-width:0"
       d="M 21.393582,9.1900481 C 18.953317,8.213941 13.682343,3.6750491 13.682343,3.6750491 L 11.046858,16.559648 c 0,0 8.443316,-2.342655 9.907475,-2.245044 1.464159,0.09761 1.708187,-4.3924772 0.439249,-5.1245559 z"
       id="path8-2" />
    <path
       style="fill:#000751;fill-opacity:1;stroke:#000000;stroke-width:0"
       d="m 37.278865,8.866264 c 3.695582,0.7990456 7.890569,5.493435 7.890569,5.493435 0,0 -3.895344,0.29964 -6.092717,1.498209 -2.197376,1.198567 -3.196181,2.097492 -2.297254,2.696776 0.898924,0.599283 8.989256,-2.197374 8.989256,-0.898925 0,1.298447 -1.09869,7.491044 -6.692002,8.19021 -5.593314,0.699163 -11.086749,-0.09988 -13.284122,-1.198568 -2.197374,-1.098685 -2.397135,-3.49582 -3.196181,-3.595703 -0.799044,-0.09988 -0.499401,3.895343 0.699165,4.694389 1.198567,0.799045 3.895345,2.297258 5.393554,4.494628 1.49821,2.197374 2.696776,3.795464 1.79785,6.492241 -0.898925,2.696776 -2.896538,5.193792 -4.694388,5.193792 -1.797852,0 -2.297255,-1.797851 -3.595702,-2.197374 -1.298449,-0.399522 -2.497015,-1.498208 -3.395941,-0.599284 -0.898927,0.898925 3.695583,8.29009 3.395941,9.588539 -0.299643,1.298448 -1.697971,2.297255 -2.497015,1.997614 C 18.900832,50.4166 17.402623,40.82806 16.303937,40.52842 c -1.098687,-0.299644 -1.398329,0.399523 -1.598091,1.098685 -0.199761,0.699167 0.599284,9.58854 -0.499402,10.187823 -1.098687,0.599285 -2.397136,1.797852 -3.296061,0.599285 -0.898925,-1.198568 1.498208,-13.783527 2.397133,-15.381615 0.898928,-1.598089 3.395942,-5.892955 3.495822,-8.290092 0.09988,-2.397134 0.499405,-7.590925 -0.699163,-8.589732 -1.198567,-0.998807 -3.096299,-4.894151 -2.097494,-6.891763 0.998808,-1.997612 4.194987,-5.0939113 6.39236,-5.3935533 2.197373,-0.2996408 6.29248,-1.3983288 9.288898,-0.9988051 2.996418,0.3995223 7.590926,1.9976114 7.590926,1.9976114 z"
       id="path1" />
    <path
       style="fill:#000751;fill-opacity:1;stroke:#000000;stroke-width:0"
       d="m 36.588761,8.95474 c 0,0 2.048161,-2.2247269 2.930991,-2.6484843 0.882828,-0.4237575 2.61317,-0.7415756 3.813815,-0.7415756 1.20065,0 2.401295,0.7768886 3.001617,1.3418984 0.600323,0.565011 1.130018,1.2006468 0.741576,1.3418998 C 46.688317,8.3897302 46.123304,7.224397 45.38173,6.9772056 44.640153,6.7300131 43.474821,6.1650033 42.380114,6.4475084 41.285406,6.7300131 40.932276,6.6947007 39.943508,7.2950229 38.954742,7.8953463 37.82472,9.0606797 37.506903,9.2372452 37.189083,9.4138114 36.588761,8.95474 36.588761,8.95474 Z"
       id="path2" />
    <circle
       style="fill:#ffffff;fill-opacity:1;stroke:#000000;stroke-width:0"
       id="path3"
       cx="47.165043"
       cy="8.0542564"
       r="1.1476768" />
    <path
       style="fill:#c6c6c6;fill-opacity:1;stroke:#000000;stroke-width:0"
       d="m 35.20552,8.5773518 c 1.306586,0.141253 2.012849,-3.7431914 1.800973,-4.5907074 -0.21188,-0.8475148 -0.670951,-1.9775349 -1.412526,-2.5425448 -0.741576,-0.56501 -3.496001,-1.34189886 -3.496001,-1.34189886 0,0 1.659716,1.41252476 1.90691,1.76565616 0.247192,0.3531313 0.635634,1.4125256 0.600322,1.8715962 -0.03531,0.4590703 -0.03531,0.4590703 -0.03531,0.4590703 0,0 -1.02408,1.4831517 -1.306586,2.2247269 -0.282502,0.7415769 -0.282502,1.3772126 0.07062,1.624404 0.353131,0.2471925 0.988767,0.706263 1.871594,0.5296975 z"
       id="path4-3" />
    <path
       style="fill:#ffffff;fill-opacity:1;stroke:#000000;stroke-width:0"
       d="m 33.55183,9.4844372 c 1.306586,0.1412536 2.012848,-3.7431915 1.800973,-4.5907066 -0.211881,-0.8475151 -0.67095,-1.9775355 -1.412526,-2.5425452 -0.741576,-0.5650102 -3.496,-1.341899 -3.496,-1.341899 0,0 1.659714,1.4125249 1.906908,1.7656563 0.247193,0.3531312 0.635636,1.4125252 0.600322,1.8715961 -0.03531,0.4590705 -0.03531,0.4590705 -0.03531,0.4590705 0,0 -1.024079,1.4831515 -1.306586,2.2247272 -0.282501,0.7415763 -0.282501,1.3772121 0.07063,1.6244035 0.353132,0.2471929 0.988769,0.7062632 1.871594,0.5296972 z"
       id="path4" />
    <path
       style="fill:#9c9df0;fill-opacity:1;stroke:#000000;stroke-width:0"
       d="m 45.156949,14.347212 c 0.524371,-0.01248 0.549341,0.124852 0.499403,0.249703 -0.04995,0.124851 -0.848987,0.212246 -1.236022,0.274672 -0.38704,0.06243 -1.960156,0.299641 -2.347195,0.399521 -0.387037,0.09988 -2.434591,0.78656 -3.008903,1.023777 -0.574316,0.237217 -2.472045,1.585604 -2.297254,1.822821 0.174789,0.237216 2.272284,-0.06242 2.584408,-0.162306 0.31213,-0.09988 2.571927,-0.611768 2.933996,-0.699164 0.362065,-0.08739 1.772879,-0.337098 2.222344,-0.362068 0.449462,-0.02497 1.0862,-0.04994 1.273477,0.08739 0.187276,0.137336 0.337095,0.06242 0.312124,0.312128 -0.02496,0.2497 -1.648029,0.224731 -1.972639,0.312126 -0.324613,0.08739 -2.546958,0.574314 -3.008904,0.661708 -0.461948,0.08739 -2.659321,0.499404 -2.996421,0.51189 -0.337095,0.01248 -1.797851,0 -1.985124,-0.324612 -0.187277,-0.324612 -0.0749,-0.873955 0.11237,-1.086202 0.187276,-0.212246 1.435783,-1.248507 1.935189,-1.473241 0.499402,-0.22473 1.860275,-0.774072 2.322223,-0.898923 0.461947,-0.124852 1.398328,-0.461949 2.060037,-0.561829 0.661708,-0.09988 1.772882,-0.249702 2.010098,-0.249702 0.237216,0 0.586798,0.162307 0.586798,0.162307 z"
       id="path5" />
    <circle
       style="fill:#6dc4e8;fill-opacity:1;stroke:#000000;stroke-width:0"
       id="path6"
       cx="35.441078"
       cy="11.620882"
       r="0.86517167" />
    <ellipse
       style="fill:#6dc4e8;fill-opacity:1;stroke:#000000;stroke-width:0"
       id="path7"
       cx="43.275948"
       cy="21.940285"
       rx="0.20305049"
       ry="0.40610099"
       transform="rotate(27.795094)" />
    <path
       style="fill:#24b6cb;fill-opacity:1;stroke:#000000;stroke-width:0"
       d="M 19.999518,10.214653 C 17.502502,9.2158463 12.10895,4.5713975 12.10895,4.5713975 L 9.4121732,17.75564 c 0,0 8.6396728,-2.397137 10.1378808,-2.297255 1.498212,0.09988 1.747912,-4.494628 0.449464,-5.243732 z"
       id="path8" />
    <path
       style="fill:#ffd010;fill-opacity:1;stroke:#000000;stroke-width:0"
       d="m 25.096708,8.6770833 7.436876,14.2333787 c 0.30775,0.588879 0.951098,0.25394 0.657559,-0.332532 L 25.992656,8.1957906 26.854215,7.731693 24.979588,4.0812063 25.949715,7.007669 25.334029,7.3311013 23.694517,4.7411672 24.84375,7.5817816 24.402894,7.8081692 22.5353,5.4736859 l 1.836309,3.575871 z"
       id="path10"
       sodipodi:nodetypes="cssccccccccccc" />
    <path
       style="fill:#000b84;fill-opacity:1;stroke:#000000;stroke-width:0"
       d="m 18.204931,30.795148 c 3.008185,-0.821803 12.692841,-7.918378 13.488666,-9.321429 0.795823,-1.403052 0.946493,-1.692259 0.212203,-2.213968 -0.734281,-0.521704 -11.827284,7.689723 -12.352735,8.262282 -0.525448,0.572568 -1.533842,1.760676 -1.348134,3.273115 z"
       id="path9" />
    <circle
       style="fill:#8600f9;fill-opacity:1;stroke:#000000;stroke-width:0"
       id="path12"
       cx="23.257151"
       cy="3.8650289"
       r="2.9311283" />
    <path
       style="fill:#00f9f5;fill-opacity:0.630324;stroke:#000000;stroke-width:0"
       id="path11"
       d="m 19.305842,4.0825882 c -0.449399,0.4693843 -0.940631,0.8962235 -1.392905,1.3631123 -0.501011,0.5870418 -0.803056,1.1594564 -1.021884,1.8939721 -0.181237,0.6022323 -0.1912,1.2280803 -0.20894,1.8506003 -0.03267,0.700535 -0.05442,1.3997791 -0.02988,2.1009541 0.01421,0.76854 0.200169,1.522634 0.413018,2.257242 0.191147,0.722645 0.439435,1.428823 0.681712,2.135646 0.0907,0.329657 0.240598,0.633148 0.39012,0.938152 0.07608,0.167273 0.206989,0.299117 0.305676,0.451806 0.08788,0.158559 0.207967,0.293036 0.328197,0.427183 0.139927,0.155394 0.281969,0.307673 0.446787,0.436704 0.259966,0.175329 0.565069,0.232516 0.868497,0.280275 0.219523,0.02136 0.439774,0.04128 0.660252,0.05095 0.341176,0.06525 0.687408,0.0511 1.032384,0.0596 0.35894,0.02512 0.720393,9.52e-4 1.077755,-0.0365 0.121129,-0.01528 0.186157,-0.01901 0.30272,-0.05033 1.693845,-0.454889 3.386378,-0.914646 5.07947,-1.372326 0.04161,-0.01125 0.166227,-0.04571 0.124615,-0.03447 -8.122506,2.196489 -4.822782,1.304955 0.226349,-0.05717 -1.626289,0.439493 -3.252577,0.878987 -4.878866,1.318482 0.350388,-0.116329 -0.154081,0.04534 0.193825,-0.04735 0.0269,-0.0072 0.05047,-0.02442 0.07746,-0.03123 0.178835,-0.04485 -0.0061,0.03102 0.14373,-0.03683 0.149621,-0.03961 -0.01751,-0.0022 0.169729,-0.01703 0.198342,-0.01568 -0.03992,-0.02457 0.201251,-0.02409 0.279498,5.5e-4 -0.02839,0.0199 0.220349,2.24e-4 0.0668,-0.0072 0.130981,0.02303 0.197076,0.02209 0.05155,-7.25e-4 0.100218,-0.02708 0.151668,-0.03023 0.02883,-0.0018 0.141448,0.01051 0.16939,0.01326 1.784902,-0.397706 0.740119,-0.163463 5.160124,-1.427489 0.01261,-0.0036 0.147118,-0.127944 0.15685,-0.134234 0.05224,-0.03377 0.11256,-0.05343 0.165941,-0.08536 0.08852,-0.07552 0.163255,-0.17419 0.258665,-0.241695 0.02885,-0.02052 0.0635,-0.03139 0.09428,-0.04884 0.0775,-0.04392 0.102623,-0.06452 0.174696,-0.115796 0.181023,-0.1445 0.322078,-0.331039 0.50302,-0.473859 0.285081,-0.211279 0.498809,-0.448054 0.697804,-0.740075 0.330221,-0.529271 0.524056,-1.129604 0.744939,-1.709417 0.389381,-1.213054 0.911048,-2.380546 1.419743,-3.5474341 0.424592,-0.956416 0.915505,-1.8815702 1.38758,-2.8150315 0.36443,-0.7718877 0.918514,-1.4198815 1.494258,-2.0400981 0.364138,-0.3784916 0.705312,-0.7773477 1.076218,-1.150094 0.169939,-0.1810399 0.341302,-0.3602483 0.553745,-0.4925781 0.122887,-0.076582 0.253599,-0.139824 0.38007,-0.2103369 0.333203,-0.1885508 0.696709,-0.31358 1.034969,-0.4916131 0.03758,-0.023529 0.07232,-0.05226 0.112644,-0.070671 0.02294,-0.010445 0.170935,-0.043999 0.19886,-0.048144 0.03301,-0.00485 0.131906,-0.017306 0.09973,-0.00849 -5.260004,1.4411209 -6.477546,1.8460585 -4.766592,1.2804154 0.423624,-0.1020772 0.860175,-0.058729 1.288107,-0.012602 0.259818,0.040648 0.135612,0.019802 0.372721,0.061852 0,0 4.788119,-1.8887707 4.788119,-1.8887707 v 0 c -0.272004,-0.053645 -0.132266,-0.029768 -0.419367,-0.070569 -0.413385,-0.068333 -0.831555,-0.1142686 -1.247762,-0.1559525 -1.829817,-0.097105 -3.70888,0.5143327 -5.305856,1.4092312 -0.03099,0.017362 -0.06125,0.036067 -0.09187,0.054095 -0.02672,0.019592 -0.05151,0.042061 -0.07997,0.058968 -0.03162,0.018707 -0.06632,0.031567 -0.09949,0.047335 -0.326771,0.1559548 -0.645037,0.3296035 -0.950521,0.5242011 -0.355674,0.2391866 -0.673886,0.5181413 -0.943036,0.8535999 -0.307611,0.3829368 -0.624665,0.7579953 -0.929488,1.142708 -0.327168,0.433096 -0.635548,0.8780335 -0.931335,1.3332005 -0.0929,0.1429467 -0.190737,0.282937 -0.276283,0.4304046 -0.07215,0.1243683 -0.130828,0.2560775 -0.196245,0.3841086 -0.131716,0.2812223 -0.235031,0.4928864 -0.35298,0.7811754 -0.275367,0.673053 -0.516786,1.360557 -0.825309,2.0200851 -0.487306,1.208879 -0.991509,2.412913 -1.598754,3.567598 -0.298958,0.562648 -0.577592,1.154694 -1.013028,1.627196 -0.232542,0.235652 -0.48623,0.445362 -0.743264,0.653911 -0.173862,0.157714 -0.355432,0.309669 -0.55754,0.430336 -0.179452,0.122134 -0.329588,0.28784 -0.540084,0.359129 -0.08382,0.04478 -0.154506,0.102468 -0.2472,0.127818 -0.02903,0.0079 -0.117332,0.02631 -0.08834,0.01833 5.127672,-1.40911 6.532313,-1.839986 4.837185,-1.320994 -0.161872,0.115382 -0.158889,0.03416 -0.311386,0.07075 -0.02972,0.0071 -0.05528,0.026 -0.08293,0.03895 -0.03261,0.0057 -0.0652,0.01139 -0.0978,0.01709 -0.344047,-0.02871 0.106919,2.24e-4 -0.220037,0.0062 -0.302983,0.0055 0.08407,-0.02617 -0.202175,-0.02657 -0.02697,-3e-6 -0.05267,0.01443 -0.07963,0.01449 -0.02817,2.6e-5 -0.05552,-0.0095 -0.08328,-0.01429 -0.185003,-0.02884 0.006,-0.0115 -0.170507,0.0089 -0.03337,0.0038 -0.06755,-0.0067 -0.100745,-0.0016 -0.03299,0.0051 -0.0623,0.02481 -0.09493,0.03175 -0.03492,0.0074 -0.07102,0.0074 -0.10652,0.01117 -1.693836,0.457024 -3.387675,0.914047 -5.081513,1.371071 16.247672,-4.374765 -11.598452,3.12236 4.493914,-1.20135 0.104076,-0.02797 -0.431694,0.115365 -0.30922,0.09437 -0.344062,0.08068 -0.693311,0.118603 -1.046181,0.133038 -0.127407,-0.0044 -0.254609,-0.01505 -0.382081,-0.01666 -0.189844,-0.0024 -0.380198,0.03199 -0.567801,-0.01552 -0.220613,-0.05195 -0.450448,-0.07264 -0.676737,-0.07049 -0.257542,-0.007 -0.513788,-0.02495 -0.769539,-0.05137 -0.173282,-0.0765 -0.257448,-0.184001 -0.38881,-0.316427 -0.103496,-0.107646 -0.205297,-0.218249 -0.287478,-0.343472 -0.09729,-0.151822 -0.214729,-0.282243 -0.325282,-0.42439 -0.186011,-0.268033 -0.390948,-0.524095 -0.53191,-0.820765 -0.316183,-0.654062 -0.609949,-1.32283 -0.782385,-2.031342 -0.146212,-0.71651 -0.315384,-1.435911 -0.315108,-2.17153 C 21.49971,9.4149799 21.49945,8.7277539 21.5528,8.0411899 21.60182,7.4552871 21.667996,6.8675195 21.831411,6.3007904 21.892971,6.1098066 21.93488,5.959196 22.02084,5.7765973 22.214799,5.3645819 22.485604,4.9897551 22.804551,4.6662798 23.326802,4.1748785 23.864176,3.6941001 24.467782,3.3033093 Z" />
    <path
       style="fill:#00f9f5;fill-opacity:0.630324;stroke:#000000;stroke-width:0"
       id="path11-0"
       d="m 18.514162,5.8480403 c -0.449399,0.4693844 -0.940632,0.896224 -1.392906,1.3631128 -0.50101,0.5870414 -0.803056,1.1594558 -1.021884,1.8939718 -0.181238,0.602232 -0.1912,1.2280811 -0.20894,1.8506011 -0.03267,0.700534 -0.05442,1.399778 -0.02988,2.100952 0.01421,0.768543 0.200168,1.522636 0.413017,2.257244 0.191147,0.722644 0.439436,1.428822 0.681712,2.135645 0.09069,0.329658 0.240598,0.633149 0.390119,0.938152 0.07608,0.167273 0.206991,0.299118 0.305678,0.451807 0.08788,0.158559 0.207967,0.293036 0.328196,0.427183 0.139927,0.155393 0.281969,0.307673 0.446788,0.436704 0.259966,0.175329 0.565069,0.232515 0.868497,0.280274 0.219522,0.02136 0.439774,0.04128 0.660251,0.05095 0.341177,0.06525 0.687407,0.0511 1.032384,0.0596 0.358941,0.02512 0.720393,9.52e-4 1.077756,-0.0365 0.121128,-0.01528 0.186157,-0.01901 0.302723,-0.05032 1.693845,-0.454889 3.386377,-0.914645 5.079469,-1.372326 0.04161,-0.01125 0.166228,-0.04571 0.124615,-0.03447 -8.122505,2.196491 -4.822781,1.304955 0.226353,-0.05716 -1.62629,0.439493 -3.252577,0.878988 -4.878865,1.318481 0.350388,-0.116329 -0.154081,0.04534 0.193824,-0.04735 0.02689,-0.0072 0.05047,-0.02442 0.07746,-0.03123 0.178833,-0.04485 -0.0061,0.03102 0.143729,-0.03683 0.149622,-0.03961 -0.01751,-0.0022 0.169729,-0.01702 0.198342,-0.01568 -0.03992,-0.02457 0.201251,-0.02409 0.279499,5.5e-4 -0.02839,0.0199 0.220349,2.25e-4 0.06679,-0.0072 0.130981,0.02303 0.197077,0.02209 0.05155,-7.26e-4 0.100218,-0.02708 0.151667,-0.03023 0.02883,-0.0018 0.141449,0.01051 0.16939,0.01326 1.784901,-0.397706 0.74012,-0.163463 5.160125,-1.427488 0.01262,-0.0036 0.147117,-0.127945 0.156849,-0.134235 0.05224,-0.03377 0.11256,-0.05343 0.165941,-0.08536 0.08852,-0.07552 0.163255,-0.174189 0.258666,-0.241695 0.02885,-0.02052 0.06349,-0.03139 0.09428,-0.04884 0.0775,-0.04392 0.102623,-0.06452 0.174696,-0.115796 0.181023,-0.1445 0.322078,-0.331038 0.50302,-0.473858 0.285081,-0.21128 0.498808,-0.448054 0.697804,-0.740075 0.33022,-0.529271 0.524056,-1.129605 0.744939,-1.709418 0.389381,-1.213053 0.911047,-2.380545 1.419742,-3.547434 0.424593,-0.956416 0.915506,-1.8815701 1.38758,-2.8150301 0.364431,-0.7718892 0.918515,-1.4198818 1.494259,-2.0400984 0.364137,-0.3784926 0.705312,-0.7773477 1.076217,-1.1500937 0.16994,-0.1810402 0.341303,-0.3602495 0.553745,-0.4925795 0.122888,-0.076582 0.253599,-0.1398236 0.38007,-0.2103366 0.333202,-0.1885508 0.696708,-0.3135799 1.03497,-0.4916134 0.03757,-0.023525 0.07232,-0.05226 0.112643,-0.07067 0.02294,-0.010445 0.170935,-0.043998 0.198859,-0.048144 0.03301,-0.00485 0.131907,-0.017307 0.09973,-0.00849 -5.260004,1.4411211 -6.477546,1.8460586 -4.766593,1.2804154 0.423624,-0.1020768 0.860175,-0.058729 1.288108,-0.012601 0.259818,0.040647 0.135612,0.019802 0.372721,0.061851 0,0 4.788118,-1.8887694 4.788118,-1.8887694 v 0 C 41.568196,3.2467243 41.707935,3.2706043 41.420833,3.2298003 41.007448,3.1614673 40.589277,3.115532 40.173071,3.0738479 c -1.829817,-0.097105 -3.70888,0.5143329 -5.305857,1.4092314 -0.03098,0.017381 -0.06125,0.036069 -0.09187,0.054093 -0.02673,0.019574 -0.05151,0.042064 -0.07997,0.058966 -0.03162,0.018707 -0.06634,0.031539 -0.0995,0.047307 -0.32677,0.1559569 -0.645039,0.3295982 -0.950521,0.5241997 -0.355673,0.2391875 -0.673886,0.5181414 -0.943037,0.8536009 -0.30761,0.3829364 -0.624664,0.7579944 -0.929488,1.1427074 -0.327167,0.4330958 -0.635547,0.8780336 -0.931335,1.3332006 -0.0929,0.142947 -0.190735,0.282938 -0.276283,0.430405 -0.07215,0.124368 -0.130827,0.256077 -0.196243,0.384109 -0.131717,0.281223 -0.235032,0.492885 -0.352981,0.7811751 -0.275367,0.673053 -0.516787,1.360557 -0.82531,2.020085 -0.487305,1.20888 -0.991508,2.412914 -1.598752,3.567598 -0.29896,0.562648 -0.577593,1.154694 -1.01303,1.627196 -0.232541,0.235652 -0.486229,0.445362 -0.743264,0.65391 -0.17386,0.157714 -0.355431,0.309669 -0.557538,0.430336 -0.179453,0.122134 -0.329588,0.287841 -0.540085,0.35913 -0.08382,0.04478 -0.154505,0.102469 -0.247203,0.127809 -0.02903,0.0079 -0.117333,0.02631 -0.08835,0.01834 5.127672,-1.40911 6.532313,-1.839986 4.837186,-1.320994 -0.161872,0.115382 -0.158888,0.03416 -0.311383,0.07076 -0.02972,0.0071 -0.05528,0.026 -0.08293,0.03895 -0.03261,0.0057 -0.06519,0.01138 -0.0978,0.01709 -0.344047,-0.02871 0.106919,2.24e-4 -0.220038,0.0062 -0.302982,0.0055 0.08407,-0.02617 -0.202175,-0.02657 -0.02697,-3e-6 -0.05267,0.01443 -0.07963,0.01449 -0.02816,2.6e-5 -0.05552,-0.0095 -0.08328,-0.01429 -0.185003,-0.02884 0.006,-0.0115 -0.170507,0.0089 -0.03337,0.0038 -0.06755,-0.0067 -0.100735,-0.0016 -0.03299,0.0051 -0.0623,0.02481 -0.09493,0.03175 -0.03492,0.0074 -0.07102,0.0074 -0.106521,0.01117 -1.693836,0.457023 -3.387675,0.914047 -5.081512,1.37107 16.247672,-4.374765 -11.598453,3.122359 4.493914,-1.20135 0.10408,-0.02796 -0.431694,0.115364 -0.309221,0.09437 -0.344061,0.08068 -0.69331,0.118603 -1.046181,0.133038 -0.127407,-0.0044 -0.254609,-0.01505 -0.38208,-0.01666 -0.189845,-0.0024 -0.380199,0.03199 -0.567802,-0.01552 -0.220613,-0.05195 -0.450447,-0.07264 -0.676735,-0.07049 -0.257543,-0.007 -0.513789,-0.02495 -0.76954,-0.05137 -0.173283,-0.07649 -0.257448,-0.184002 -0.388811,-0.316427 -0.103496,-0.107646 -0.205297,-0.21825 -0.287477,-0.343471 -0.09729,-0.151823 -0.214729,-0.282244 -0.325282,-0.424392 -0.186011,-0.268033 -0.390948,-0.524095 -0.53191,-0.820765 -0.316183,-0.654062 -0.609948,-1.322828 -0.782385,-2.03134 -0.14621,-0.716511 -0.315384,-1.435912 -0.315107,-2.171532 -0.01157,-0.687862 -0.01183,-1.375088 0.04152,-2.0616521 0.04902,-0.585903 0.115196,-1.173671 0.278609,-1.740399 0.06156,-0.190984 0.103471,-0.341595 0.189431,-0.5241936 0.193958,-0.4120151 0.464763,-0.7868418 0.78371,-1.1103173 0.522252,-0.4914015 1.059625,-0.9721796 1.663231,-1.3629703 z" />
    <path
       style="fill:#00f9f5;fill-opacity:0.630324;stroke:#000000;stroke-width:0"
       id="path11-0-6"
       d="m 20.878586,4.9423658 c -0.449399,0.4693843 -0.940631,0.8962235 -1.392906,1.3631123 -0.501011,0.5870418 -0.803056,1.1594564 -1.021883,1.8939718 -0.181238,0.602232 -0.191201,1.228081 -0.208941,1.8506011 -0.03267,0.700535 -0.05441,1.399778 -0.02988,2.100953 0.01421,0.768541 0.200167,1.522635 0.413017,2.257243 0.191146,0.722645 0.439434,1.428822 0.681711,2.135645 0.0907,0.329658 0.240598,0.633149 0.39012,0.938153 0.07608,0.167273 0.20699,0.299117 0.305677,0.451806 0.08788,0.158559 0.207967,0.293036 0.328197,0.427183 0.139927,0.155394 0.281969,0.307674 0.446787,0.436704 0.259966,0.175329 0.56507,0.232516 0.868496,0.280275 0.219523,0.02136 0.439775,0.04128 0.660252,0.05095 0.341178,0.06524 0.687408,0.0511 1.032385,0.0596 0.35894,0.02512 0.720393,9.52e-4 1.077755,-0.0365 0.121128,-0.01528 0.186157,-0.01901 0.30272,-0.05032 1.693845,-0.454889 3.386377,-0.914646 5.079469,-1.372326 0.04161,-0.01125 0.166227,-0.04571 0.124615,-0.03447 -8.122505,2.196489 -4.822781,1.304955 0.22635,-0.05717 -1.62629,0.439493 -3.252577,0.878988 -4.878865,1.318481 0.350391,-0.116319 -0.154083,0.04534 0.193823,-0.04735 0.0269,-0.0072 0.05047,-0.02442 0.07746,-0.03123 0.178834,-0.04485 -0.0061,0.03102 0.143729,-0.03683 0.149622,-0.03961 -0.01751,-0.0022 0.16973,-0.01703 0.198342,-0.01568 -0.03992,-0.02457 0.20125,-0.02409 0.279499,5.5e-4 -0.02839,0.0199 0.22035,2.24e-4 0.0668,-0.0072 0.13098,0.02303 0.197075,0.02209 0.05155,-7.26e-4 0.100219,-0.02708 0.151668,-0.03023 0.02883,-0.0018 0.14145,0.01051 0.169391,0.01326 1.784901,-0.397705 0.740119,-0.163462 5.160124,-1.427487 0.01261,-0.0036 0.147117,-0.127945 0.15685,-0.134235 0.05224,-0.03377 0.11256,-0.05343 0.16594,-0.08536 0.08852,-0.07552 0.163256,-0.17419 0.258666,-0.241695 0.02885,-0.02052 0.06349,-0.03139 0.09428,-0.04884 0.0775,-0.04392 0.102623,-0.06452 0.174697,-0.115797 0.181023,-0.1445 0.322077,-0.331036 0.503019,-0.473856 0.285081,-0.211279 0.498809,-0.448055 0.697804,-0.740076 0.330221,-0.529271 0.524056,-1.129604 0.74494,-1.709417 0.38938,-1.213054 0.911047,-2.380546 1.419741,-3.547434 0.424594,-0.9564161 0.915506,-1.8815701 1.38758,-2.8150315 0.364431,-0.7718878 0.918516,-1.4198817 1.494259,-2.0400979 0.364138,-0.3784916 0.705312,-0.7773477 1.076218,-1.1500941 0.169939,-0.1810398 0.341302,-0.3602491 0.553745,-0.4925782 0.122887,-0.076582 0.253599,-0.139824 0.38007,-0.210337 0.333202,-0.1885507 0.696708,-0.3135799 1.03497,-0.4916133 0.03757,-0.023526 0.07232,-0.05227 0.112643,-0.07067 0.02294,-0.010445 0.170935,-0.043999 0.198859,-0.048144 0.03301,-0.00485 0.131911,-0.017298 0.09973,-0.00849 -5.260005,1.4411214 -6.477547,1.8460589 -4.766593,1.2804154 0.423624,-0.1020769 0.860175,-0.058729 1.288108,-0.012602 0.259818,0.040648 0.135612,0.019802 0.37272,0.061852 0,0 4.788119,-1.8887697 4.788119,-1.8887697 v 0 C 43.932628,2.3410363 44.072368,2.3649153 43.785266,2.3241123 43.37188,2.2557789 42.95371,2.2098441 42.537503,2.1681603 c -1.829816,-0.097105 -3.70888,0.5143329 -5.305855,1.409231 -0.03098,0.017381 -0.06125,0.036069 -0.09188,0.054094 -0.02673,0.019574 -0.05151,0.042064 -0.07997,0.058966 -0.03162,0.018707 -0.06632,0.031536 -0.0995,0.047307 -0.326769,0.1559569 -0.645039,0.3295985 -0.95052,0.5242006 -0.355674,0.2391876 -0.673886,0.5181415 -0.943038,0.8536 -0.30761,0.3829364 -0.624664,0.7579957 -0.929488,1.1427083 -0.327166,0.4330959 -0.635548,0.8780337 -0.931334,1.3332007 -0.0929,0.1429468 -0.190737,0.2829371 -0.276283,0.430405 -0.07215,0.124368 -0.130828,0.256077 -0.196244,0.384108 -0.131717,0.281223 -0.235031,0.492886 -0.352981,0.781176 -0.275367,0.673053 -0.516786,1.3605571 -0.825309,2.0200851 -0.487306,1.208879 -0.991508,2.412913 -1.598754,3.567598 -0.298958,0.562648 -0.577593,1.154694 -1.013028,1.627196 -0.232542,0.235652 -0.486231,0.445362 -0.743264,0.65391 -0.173862,0.157714 -0.355432,0.309669 -0.557539,0.430336 -0.179453,0.122134 -0.329589,0.28784 -0.540085,0.359129 -0.08382,0.04478 -0.154506,0.102469 -0.2472,0.127819 -0.02903,0.0079 -0.117332,0.02631 -0.08834,0.01833 5.127672,-1.40911 6.532312,-1.839986 4.837185,-1.320995 -0.161873,0.115383 -0.158888,0.03416 -0.311386,0.07075 -0.02972,0.0071 -0.05528,0.026 -0.08293,0.03895 -0.03261,0.0057 -0.0652,0.01139 -0.09779,0.01708 -0.344046,-0.02871 0.10692,2.24e-4 -0.220038,0.0062 -0.302983,0.0055 0.08407,-0.02617 -0.202175,-0.02657 -0.02697,-4e-6 -0.05267,0.01443 -0.07963,0.01449 -0.02817,2.7e-5 -0.05552,-0.0095 -0.08328,-0.01429 -0.185004,-0.02884 0.006,-0.0115 -0.170512,0.0089 -0.03337,0.0038 -0.06755,-0.0067 -0.100731,-0.0016 -0.03299,0.0051 -0.0623,0.02481 -0.09493,0.03175 -0.03492,0.0074 -0.07101,0.0074 -0.10652,0.01117 -1.693836,0.457023 -3.387674,0.914047 -5.081513,1.371071 16.247672,-4.374766 -11.598452,3.122359 4.493915,-1.20135 0.104077,-0.02797 -0.431694,0.115365 -0.309221,0.09437 -0.344061,0.08068 -0.69331,0.118603 -1.046181,0.133038 -0.127407,-0.0044 -0.254609,-0.01505 -0.38208,-0.01666 -0.189845,-0.0024 -0.380198,0.03199 -0.567801,-0.01552 -0.220613,-0.05195 -0.450448,-0.07264 -0.676736,-0.07049 -0.257542,-0.007 -0.51379,-0.02495 -0.76954,-0.05137 -0.173283,-0.07649 -0.257449,-0.184001 -0.38881,-0.316427 -0.103497,-0.107647 -0.205298,-0.21825 -0.287479,-0.343472 -0.09729,-0.151822 -0.214728,-0.282243 -0.325281,-0.42439 -0.186011,-0.268033 -0.390947,-0.524096 -0.53191,-0.820767 -0.316183,-0.654061 -0.609948,-1.322828 -0.782384,-2.03134 -0.146212,-0.71651 -0.315384,-1.435911 -0.315109,-2.171532 -0.01157,-0.687861 -0.01183,-1.3750881 0.04152,-2.0616521 0.04902,-0.585903 0.115196,-1.1736699 0.278611,-1.7403989 0.06156,-0.1909838 0.103469,-0.3415944 0.189429,-0.5241931 0.193959,-0.4120154 0.464764,-0.7868422 0.783711,-1.1103175 0.522251,-0.4914013 1.059626,-0.9721797 1.663231,-1.3629705 z" />
    <path
       style="fill:#00f9f5;fill-opacity:0.630324;stroke:#000000;stroke-width:0"
       id="path11-0-6-0"
       d="m 20.803207,2.6974347 c -0.449399,0.4693844 -0.940632,0.8962239 -1.392906,1.3631127 -0.50101,0.5870415 -0.803056,1.1594564 -1.021884,1.8939721 -0.181236,0.6022314 -0.1912,1.2280806 -0.20894,1.8506004 -0.03267,0.700535 -0.05441,1.399778 -0.02988,2.100953 0.01421,0.7685411 0.200168,1.5226351 0.413017,2.2572431 0.191147,0.722645 0.439436,1.428822 0.681712,2.135646 0.0907,0.329657 0.240598,0.633148 0.39012,0.938152 0.07608,0.167273 0.20699,0.299118 0.305676,0.451807 0.08788,0.158559 0.207967,0.293036 0.328197,0.427183 0.139927,0.155393 0.28197,0.307673 0.446788,0.436704 0.259965,0.175329 0.565069,0.232516 0.868496,0.280274 0.219523,0.02136 0.439775,0.04128 0.660252,0.05095 0.341176,0.06524 0.687408,0.0511 1.032384,0.0596 0.35894,0.02512 0.720393,9.52e-4 1.077755,-0.0365 0.121127,-0.01528 0.186157,-0.01901 0.302723,-0.05032 1.693845,-0.454889 3.386377,-0.914645 5.079469,-1.372325 0.04161,-0.01125 0.166228,-0.04571 0.124616,-0.03447 -8.122505,2.19649 -4.822782,1.304955 0.226348,-0.05717 -1.626289,0.439493 -3.252576,0.878988 -4.878864,1.318482 0.350388,-0.116329 -0.154082,0.04534 0.193823,-0.04735 0.0269,-0.0072 0.05047,-0.02442 0.07746,-0.03123 0.178833,-0.04485 -0.0061,0.03102 0.143728,-0.03683 0.149623,-0.03961 -0.01751,-0.0022 0.16973,-0.01703 0.198342,-0.01568 -0.03992,-0.02457 0.20125,-0.02409 0.2795,5.5e-4 -0.02839,0.0199 0.22035,2.24e-4 0.0668,-0.0072 0.13098,0.02303 0.197076,0.02209 0.05155,-7.25e-4 0.100219,-0.02708 0.151667,-0.03023 0.02883,-0.0018 0.141449,0.01051 0.169391,0.01326 1.784901,-0.397705 0.740119,-0.163462 5.160124,-1.427488 0.01261,-0.0036 0.147118,-0.127944 0.15685,-0.134234 0.05224,-0.03377 0.11256,-0.05343 0.165941,-0.08536 0.08852,-0.07552 0.163255,-0.17419 0.258665,-0.241695 0.02885,-0.02052 0.06349,-0.03139 0.09428,-0.04884 0.0775,-0.04392 0.102623,-0.06452 0.174697,-0.115797 0.181022,-0.1445 0.322077,-0.331037 0.50302,-0.473857 0.285081,-0.211279 0.498807,-0.448055 0.697803,-0.740075 0.330221,-0.529271 0.524057,-1.129604 0.74494,-1.709417 0.38938,-1.213054 0.911047,-2.3805461 1.419742,-3.5474341 0.424593,-0.9564165 0.915506,-1.8815705 1.387579,-2.8150314 0.364431,-0.7718893 0.918516,-1.4198819 1.49426,-2.0400985 0.364137,-0.3784917 0.705311,-0.7773474 1.076217,-1.1500935 0.16994,-0.1810403 0.341302,-0.360249 0.553746,-0.4925787 0.122888,-0.07658 0.253596,-0.1398282 0.38007,-0.2103328 0.333204,-0.1885489 0.696707,-0.3135836 1.03497,-0.49161615 0.03756,-0.023535 0.07232,-0.052264 0.112641,-0.070674 0.02295,-0.010417 0.170934,-0.044 0.198861,-0.04814 0.03301,-0.00487 0.131909,-0.017302 0.09973,-0.00848 -5.260003,1.44112165 -6.477545,1.84605925 -4.766592,1.28041615 0.423624,-0.1020769 0.860176,-0.058729 1.288108,-0.012602 0.259817,0.040648 0.135612,0.019804 0.37272,0.061852 0,0 4.788118,-1.88876965 4.788118,-1.88876965 v 0 c -0.272017,-0.053676 -0.132279,-0.029798 -0.41938,-0.0706 -0.413385,-0.068333 -0.831556,-0.1142679 -1.247762,-0.1559522 -1.829816,-0.097104 -3.70888,0.5143335 -5.305856,1.40923205 -0.03099,0.017362 -0.06125,0.036067 -0.09187,0.054095 -0.02672,0.019593 -0.05151,0.042061 -0.07997,0.058968 -0.03162,0.018707 -0.06632,0.031567 -0.09949,0.047335 -0.326771,0.1559541 -0.645037,0.3296028 -0.950521,0.5242004 -0.355673,0.2391866 -0.673885,0.5181413 -0.943037,0.8536002 -0.30761,0.3829365 -0.624664,0.7579951 -0.929487,1.1427076 -0.327168,0.4330962 -0.635549,0.8780328 -0.931335,1.3332007 -0.0929,0.1429468 -0.190736,0.282937 -0.276283,0.4304047 -0.07215,0.1243682 -0.130827,0.2560775 -0.196245,0.3841085 -0.131716,0.2812225 -0.235031,0.4928863 -0.35298,0.7811752 -0.275367,0.6730536 -0.516786,1.3605567 -0.825309,2.0200857 -0.487307,1.2088778 -0.991509,2.4129118 -1.598755,3.5675968 -0.298958,0.562648 -0.577592,1.154694 -1.013028,1.627196 -0.232542,0.235652 -0.486229,0.445362 -0.743264,0.653911 -0.173861,0.157713 -0.355431,0.309668 -0.557539,0.430335 -0.179452,0.122134 -0.329588,0.28784 -0.540085,0.35913 -0.08382,0.04478 -0.154506,0.102468 -0.2472,0.127818 -0.02902,0.0079 -0.117332,0.02631 -0.08834,0.01833 5.127672,-1.40911 6.532313,-1.839986 4.837186,-1.320995 -0.161873,0.115383 -0.158889,0.03416 -0.311383,0.07076 -0.02972,0.0071 -0.05528,0.026 -0.08293,0.03895 -0.03261,0.0057 -0.06519,0.01138 -0.09779,0.01708 -0.344046,-0.02871 0.10692,2.25e-4 -0.220037,0.0062 -0.302983,0.0055 0.08407,-0.02617 -0.202175,-0.02657 -0.02697,-3e-6 -0.05267,0.01443 -0.07963,0.01449 -0.02817,2.6e-5 -0.05552,-0.0095 -0.08328,-0.01429 -0.185003,-0.02884 0.006,-0.0115 -0.170507,0.0089 -0.03337,0.0038 -0.06755,-0.0067 -0.100732,-0.0016 -0.03299,0.0051 -0.0623,0.02481 -0.09493,0.03175 -0.03492,0.0074 -0.07102,0.0074 -0.106521,0.01117 -1.693836,0.457024 -3.387675,0.914047 -5.081512,1.371072 16.247671,-4.374767 -11.598453,3.122359 4.493914,-1.201351 0.10408,-0.02796 -0.431695,0.115365 -0.309221,0.09437 -0.344061,0.08068 -0.69331,0.118603 -1.046181,0.133037 -0.127408,-0.0044 -0.254609,-0.01505 -0.382081,-0.01666 -0.189844,-0.0024 -0.380198,0.03199 -0.567801,-0.01552 -0.220613,-0.05195 -0.450447,-0.07264 -0.676736,-0.07049 -0.257542,-0.007 -0.513788,-0.02495 -0.769538,-0.05137 -0.173284,-0.07649 -0.257449,-0.184002 -0.38881,-0.316427 -0.103497,-0.107647 -0.205298,-0.218249 -0.287479,-0.343471 -0.09729,-0.151822 -0.214728,-0.282243 -0.325281,-0.42439 -0.186012,-0.268034 -0.390949,-0.524096 -0.531911,-0.820767 -0.316183,-0.654061 -0.609948,-1.322828 -0.782385,-2.031341 -0.146212,-0.71651 -0.315384,-1.4359108 -0.315108,-2.1715308 -0.01158,-0.687861 -0.01183,-1.3750875 0.04152,-2.0616519 0.04902,-0.5859024 0.115196,-1.1736701 0.27861,-1.7403987 0.06156,-0.1909838 0.10347,-0.3415947 0.18943,-0.5241935 0.193958,-0.412015 0.464763,-0.7868418 0.78371,-1.1103171 0.522252,-0.4914017 1.059625,-0.9721797 1.663231,-1.3629705 z" />
  </g>
</svg>
