<?xml version="1.0" encoding="UTF-8" standalone="no"?>
<!-- Created with Inkscape (http://www.inkscape.org/) -->

<svg
   width="256"
   height="256"
   viewBox="0 0 67.733332 67.733333"
   version="1.1"
   id="svg1"
   sodipodi:docname="Necromancer.svg"
   inkscape:version="1.3 (0e150ed6c4, 2023-07-21)"
   inkscape:export-filename="..\Assets\Sprites\Units\Necromancer.png"
   inkscape:export-xdpi="96"
   inkscape:export-ydpi="96"
   xmlns:inkscape="http://www.inkscape.org/namespaces/inkscape"
   xmlns:sodipodi="http://sodipodi.sourceforge.net/DTD/sodipodi-0.dtd"
   xmlns="http://www.w3.org/2000/svg"
   xmlns:svg="http://www.w3.org/2000/svg">
  <sodipodi:namedview
     id="namedview1"
     pagecolor="#505050"
     bordercolor="#ffffff"
     borderopacity="1"
     inkscape:showpageshadow="0"
     inkscape:pageopacity="0"
     inkscape:pagecheckerboard="1"
     inkscape:deskcolor="#505050"
     inkscape:document-units="mm"
     inkscape:zoom="4"
     inkscape:cx="137.125"
     inkscape:cy="213.125"
     inkscape:window-width="1920"
     inkscape:window-height="1009"
     inkscape:window-x="-8"
     inkscape:window-y="-8"
     inkscape:window-maximized="1"
     inkscape:current-layer="layer1" />
  <defs
     id="defs1" />
  <g
     inkscape:label="Шар 1"
     inkscape:groupmode="layer"
     id="layer1">
    <path
       style="fill:#f8eac8;fill-opacity:1;stroke:#000000;stroke-width:0;stroke-dasharray:none;stroke-opacity:1"
       d="m 23.937768,45.469418 c 0,0 2.714591,5.86105 2.961373,8.699034 0.246781,2.837982 0.678648,5.182402 -0.431867,5.429184 -1.110515,0.246779 -13.819742,-0.0617 -17.0278976,1.54238 -3.208152,1.604079 -9.19259599,8.637339 -9.19259599,8.637339 H 59.782721 c 0,0 -2.837982,-8.267165 -4.935621,-9.254291 -2.09764,-0.987124 -16.534334,-0.123392 -16.657725,-1.97425 -0.12339,-1.850858 -0.616952,-6.971564 -0.24678,-8.575643 0.370171,-1.604076 1.233905,-6.601394 1.233905,-6.601394 l -15.608904,1.97425 z"
       id="path8" />
    <path
       d="m 37.879426,50.168035 c 0.0112,-0.06673 0.0156,-0.159666 0.0289,-0.217558 0.0925,-0.401019 0.21578,-1.013835 0.34881,-1.707906 0.13303,-0.694071 0.27559,-1.469263 0.4067,-2.194181 0.2622,-1.449838 0.478,-2.699061 0.478,-2.699061 l -15.60886,1.97404 0.37052,0.123507 c 0,0 0.16953,0.366332 0.42788,0.960148 0.25835,0.593816 0.6054,1.414918 0.96015,2.324923 0.17737,0.455002 0.3565,0.93239 0.52761,1.414384 0.17111,0.481993 0.33393,0.968524 0.47853,1.442806 0.009,0.02883 0.0136,0.05447 0.0222,0.0832 l 4.86378,4.245735 z"
       style="fill:#f3deab;fill-opacity:1;stroke:#ffffff;stroke-width:0"
       id="path9" />
    <path
       style="fill:#faf2de;fill-opacity:1;stroke:#ffffff;stroke-width:0"
       d="m 23.444204,45.654502 8.035356,5.564976 10.226446,-7.786005 c 0,0 2.837981,-5.059013 3.331543,-10.858368 C 45.531111,26.775748 44.173817,16.040771 41.089053,12.832617 38.004289,9.6244626 33.068667,5.6759652 27.639483,6.9098707 22.210298,8.1437762 17.891629,10.488196 17.027895,15.670599 c -0.863733,5.182404 -1.110515,11.598711 0.370172,16.657724 1.480687,5.059013 6.046137,13.326179 6.046137,13.326179 z"
       id="path1"
       sodipodi:nodetypes="cccsssssc" />
    <path
       style="fill:#ffffff;fill-opacity:1;stroke:#000000;stroke-width:0.5;stroke-dasharray:none;stroke-opacity:1"
       d="m 42.867782,18.13083 c 0,0 -0.57104,-0.339772 -2.485753,-0.07927 -1.914713,0.260503 -3.405727,1.399675 -4.569913,1.653488 -1.164186,0.253813 -3.630741,0.05266 -3.630741,0.05266 0,0 1.460621,3.415327 4.652245,4.167885 3.191626,0.752558 8.688643,-0.442616 8.688643,-0.442616 z"
       id="path3"
       sodipodi:nodetypes="csscscc" />
    <path
       style="fill:#ffffff;fill-opacity:1;stroke:#000000;stroke-width:0.5;stroke-dasharray:none;stroke-opacity:1"
       d="m 17.311421,20.875221 c 0,0 0.48887,-0.450043 2.416201,-0.589258 1.927332,-0.139215 3.620912,0.668631 4.812413,0.677363 1.191501,0.0087 3.563823,-0.695852 3.563823,-0.695852 0,0 -0.7263,3.64285 -3.694659,5.036281 -2.968361,1.393432 -8.593679,1.355406 -8.593679,1.355406 z"
       id="path3-3"
       sodipodi:nodetypes="csscscc" />
    <path
       style="fill:#ffffff;fill-opacity:1;stroke:#000000;stroke-width:0;stroke-dasharray:none;stroke-opacity:1"
       d="m 39.257551,59.398958 c 0,0 -0.496093,-1.885156 0.429948,-4.960937 0.926042,-3.075782 11.509375,-8.73125 11.509375,-8.73125 0,0 -6.250781,6.515364 -6.746875,7.904427 -0.496093,1.389062 -0.727604,7.408333 -0.727604,7.408333 z"
       id="path27" />
    <path
       style="fill:#ffffff;fill-opacity:1;stroke:#000000;stroke-width:0;stroke-dasharray:none;stroke-opacity:1"
       d="m 25.697657,59.729687 c 0,0 0.496093,-1.885156 -0.429948,-4.960937 -0.926042,-3.075782 -11.509375,-8.73125 -11.509375,-8.73125 0,0 6.250781,6.515364 6.746875,7.904427 0.496093,1.389062 0.727604,7.408333 0.727604,7.408333 z"
       id="path27-2" />
    <path
       style="fill:#f3deab;fill-opacity:1;stroke:#000000;stroke-width:0;stroke-dasharray:none;stroke-opacity:1"
       d="m 31.186961,55.903629 -4.010192,2.398406 c 0,0 -0.01543,-1.981962 -0.246782,-3.717142 -0.231357,-1.73518 -0.624665,-2.976795 -0.624665,-2.976795 0,0 4.434348,2.413825 4.557739,2.753151 0.123391,0.339322 0.3239,1.54238 0.3239,1.54238 z"
       id="path10" />
    <path
       style="fill:#969696;fill-opacity:1;stroke:#000000;stroke-width:0;stroke-dasharray:none;stroke-opacity:1"
       d="m 39.241849,59.260334 c -0.888672,-2.19829 -1.169305,-1.870887 -1.075762,-2.666013 0.09355,-0.795125 1.683798,-2.899873 1.403165,-2.899873 -0.280633,0 -14.078421,0.795126 -14.078421,0.795126 0,0 0.701582,1.262849 1.028989,2.011204 0.327403,0.748353 -1.028989,3.274052 -1.028989,3.274052 0,0 -17.6798792,0.608036 -20.5797535,1.543481 C 2.0112032,62.253754 -3.8820899,71.88882 -3.8820899,71.88882 H 65.761665 c 0,0 -0.09354,-9.027028 -3.086962,-11.178548 -2.993419,-2.15152 -23.432854,-1.449938 -23.432854,-1.449938 z"
       id="path28" />
    <path
       style="fill:#666666;fill-opacity:1;stroke:#000000;stroke-width:0;stroke-dasharray:none;stroke-opacity:1"
       d="m 26.730293,61.786031 -1.496709,2.26845 c 0,0 -7.34323,1.543481 -8.95687,1.637028 C 14.663074,65.785052 6.5247173,63.937551 6.0102233,63.446445 5.4957297,62.955336 5.07478,61.271538 5.07478,61.271538 l 1.0991461,-0.210473 z"
       id="path29" />
    <path
       style="fill:#787878;fill-opacity:1;stroke:#000000;stroke-width:0;stroke-dasharray:none;stroke-opacity:1"
       d="m 39.616025,59.58774 -0.491109,-0.07016 c 0,0 -0.724968,0.748353 -1.052372,1.192689 -0.327406,0.444336 -1.192691,2.361993 -1.192691,2.361993 0,0 9.845542,2.829716 11.41241,2.782946 1.566868,-0.04677 8.652849,-1.379778 9.097185,-1.637027 0.444336,-0.257247 0.748355,-2.011201 0.748355,-2.011201 z"
       id="path32" />
    <path
       style="fill:#56887d;fill-opacity:1;stroke:#000000;stroke-width:0;stroke-dasharray:none;stroke-opacity:1"
       d="m 42.094951,62.019894 c 0,0 -0.09355,5.706202 -0.654812,7.062597 -0.561266,1.356391 -6.969053,6.641647 -8.325445,6.73519 -1.356392,0.09355 -5.19171,-3.040189 -5.799749,-4.723987 -0.608039,-1.683797 -1.449937,-8.652851 -2.198292,-9.167346 -0.748354,-0.514493 -1.917658,-1.122532 -1.73057,-0.280633 0.187089,0.841898 1.262849,8.652851 1.824115,10.056016 0.561266,1.403164 5.799749,5.986838 7.10937,6.080381 1.309619,0.09355 9.681837,-5.986835 10.383419,-7.39 0.701583,-1.403168 1.403165,-8.231902 0.982216,-8.418991 -0.42095,-0.18709 -1.590252,0.04677 -1.590252,0.04677 z"
       id="path31" />
    <path
       d="m 43.693431,64.919359 c 0.01715,-0.188639 0.03966,-0.389406 0.05323,-0.568441 0.03289,-0.433921 0.05479,-0.834526 0.06356,-1.178739 0.0088,-0.344214 0.0047,-0.631857 -0.01499,-0.839226 -0.0099,-0.103684 -0.02353,-0.187412 -0.04134,-0.248047 -0.01781,-0.06063 -0.03984,-0.09838 -0.06615,-0.11007 -0.05262,-0.02339 -0.116877,-0.04017 -0.189136,-0.05168 -0.07226,-0.01151 -0.152786,-0.01744 -0.237195,-0.01964 -0.168818,-0.0044 -0.354111,0.0073 -0.526583,0.02481 -0.344944,0.03508 -0.637687,0.09353 -0.637687,0.09353 0,0 -0.0057,0.356456 -0.02325,0.912606 -0.01288,0.408497 -0.04091,0.988268 -0.06873,1.549776 0.562463,0.148493 1.129844,0.293943 1.688269,0.435116 z"
       style="fill:#3e635b;fill-opacity:1;stroke:#000000;stroke-width:0"
       id="path34" />
    <path
       d="m 23.825393,64.341616 c 0.408051,-0.08428 1.410767,-0.285254 1.410767,-0.285254 l 0.460954,-0.698665 c -0.0013,-0.0051 -0.0028,-0.01199 -0.0041,-0.01705 -0.04842,-0.188002 -0.09697,-0.362226 -0.145211,-0.519865 -0.04825,-0.157639 -0.09626,-0.298586 -0.144177,-0.42013 -0.04791,-0.121543 -0.09572,-0.223624 -0.143144,-0.30334 -0.04742,-0.07972 -0.09482,-0.136826 -0.141594,-0.168982 -0.103247,-0.07098 -0.223359,-0.1388 -0.337963,-0.20929 l -1.388546,-0.04909 c 0.04758,0.218784 0.146934,0.84549 0.28112,1.706872 0.04247,0.272606 0.103569,0.654344 0.151928,0.964799 z"
       style="fill:#37554f;fill-opacity:1;stroke:#000000;stroke-width:0"
       id="path33" />
    <ellipse
       style="fill:#36ff59;fill-opacity:1;stroke:#000000;stroke-width:0;stroke-dasharray:none;stroke-opacity:1"
       id="path4-3"
       cx="-19.046371"
       cy="25.161121"
       rx="1.1198491"
       ry="2.2920594"
       transform="matrix(-0.99568882,0.09275657,0.09275657,0.99568882,0,0)" />
    <ellipse
       style="fill:#36ff59;fill-opacity:1;stroke:#000000;stroke-width:0;stroke-dasharray:none;stroke-opacity:1"
       id="path4"
       cx="36.771103"
       cy="25.677486"
       rx="1.1198491"
       ry="2.2920594"
       transform="rotate(-6.5569561)" />
    <path
       style="fill:#000000;fill-opacity:0.22998296;stroke:#000000;stroke-width:0;stroke-dasharray:none;stroke-opacity:1"
       d="m 38.306404,46.070583 -1.403165,1.122534 c 0,0 4.677217,-9.868929 5.191712,-11.459183 0.514493,-1.590252 0.701583,-4.349811 0.561266,-6.781964 -0.140316,-2.43215 -2.208289,-10.256263 -3.026005,-11.998722 -0.819415,-1.74608 -2.781768,-4.143349 -4.091389,-5.312653 -1.309622,-1.169304 -4.542576,-2.8753131 -5.852198,-3.0624016 -1.309618,-0.1870887 -2.875798,1.8760746 -2.875798,1.8760746 0,0 -0.432298,-0.310383 -1.079084,-0.6458123 -0.617249,-0.3201111 -3.935913,1.0894593 -4.777812,1.9313583 -0.841899,0.841899 -3.928862,9.822155 -3.928862,9.822155 L 17.820196,9.3076611 28.9052,5.4255714 40.738557,10.14956 46.959255,27.689122 42.328811,44.573875 Z"
       id="path49"
       sodipodi:nodetypes="ccssssscssccccccc" />
    <path
       style="fill:#c9c9c9;fill-opacity:1;stroke:#ffffff;stroke-width:0"
       d="m 26.087837,8.027027 1.221504,1.1342536 0.261753,-1.4832549 c 0,0 1.221502,-0.7852527 3.22826,-0.1745004 2.006756,0.610752 4.973265,1.7450056 6.282021,3.4027617 1.308753,1.657755 4.449765,4.711515 5.584018,8.201527 1.134253,3.490012 1.745006,9.074031 2.006756,12.738542 0.261752,3.664513 -7.023648,15.312427 -7.023648,15.312427 0,0 7.72165,0.479877 8.157903,-1.090629 0.436251,-1.570506 3.490011,-10.819035 3.751763,-13.698297 0.26175,-2.879259 0.05757,-7.850735 -0.785254,-11.953289 C 47.99361,16.623214 46.546704,11.28158 43.582939,8.8966973 37.434994,3.9495686 27.88141,2.0030261 27.086639,3.0692543 26.336653,4.0754015 26.319735,4.0837061 25.486845,3.3757952 24.596127,2.6187339 14.221798,7.6780257 12.738543,10.644536 c -1.483255,2.96651 -3.0537605,9.772032 -2.268508,15.792303 0.785253,6.02027 3.490012,22.074324 5.235018,23.906579 1.745006,1.832256 8.201527,-0.785251 8.812279,-2.792007 0.610752,-2.006759 -1.657755,-6.020271 -3.05376,-8.812281 -1.396005,-2.792011 -2.87926,-6.369273 -3.05376,-9.335781 -0.174501,-2.96651 -1.308755,-8.288778 -0.785253,-11.342538 0.523502,-3.053761 1.221504,-6.543772 2.87926,-7.416275 1.657755,-0.8725031 5.584018,-2.617509 5.584018,-2.617509 z"
       id="path2"
       sodipodi:nodetypes="cccsssscssssssssssssssc" />
    <path
       style="fill:#00cbb8;fill-opacity:1;stroke:#000000;stroke-width:0;stroke-dasharray:none;stroke-opacity:1"
       d="m 36.924113,41.333211 c 0,0 -0.818807,-0.369444 -3.113188,-0.456356 -2.294381,-0.08691 -5.032713,0.517173 -5.220275,0.731281 -0.187562,0.214108 -0.08754,0.368125 -0.0037,0.461765 0.08384,0.09364 0.463618,0.229197 1.650277,0.216087 1.18666,-0.01311 6.686898,-0.952772 6.686898,-0.952772 z"
       id="path5"
       sodipodi:nodetypes="cszzscc" />
    <path
       style="fill:#00deb4;fill-opacity:1;stroke:#000000;stroke-width:0;stroke-dasharray:none;stroke-opacity:1"
       d="m 29.098106,42.178522 c 0,0 -0.602679,0.176664 -0.619135,0.501613 -0.01645,0.324948 2.905853,0.488312 3.5476,0.364149 0.641748,-0.124173 4.742075,-1.191097 4.882454,-1.404349 0.140383,-0.21325 0.05146,-0.350996 -0.275734,-0.35219 -0.327186,-0.0012 -7.535185,0.890777 -7.535185,0.890777 z"
       id="path6" />
    <path
       style="fill:none;fill-opacity:1;stroke:#000000;stroke-width:0.5;stroke-dasharray:none;stroke-opacity:1"
       d="m 32.698494,29.120168 c 0,0 1.72747,3.454937 1.542383,3.886804 -0.185087,0.431866 -2.837982,1.418992 -2.837982,1.418992"
       id="path7" />
    <path
       style="fill:#548174;fill-opacity:1;stroke:#000000;stroke-width:0;stroke-dasharray:none;stroke-opacity:1"
       d="m 37.636101,61.92707 c 1.396005,-2.61751 3.22826,-4.188013 4.66789,-4.449765 1.43963,-0.26175 5.976646,-0.610751 7.765277,-0.479875 1.788631,0.130873 5.540394,-0.130876 6.500146,-1.308756 0.959752,-1.177878 1.17788,-3.097385 1.17788,-3.097385 0,0 0.654375,8.506905 0.392626,9.597533 -0.261752,1.090628 -6.151147,2.399382 -9.074031,2.530258 -2.922884,0.130876 -11.429788,-2.79201 -11.429788,-2.79201 z"
       id="path11" />
    <path
       style="fill:#548174;fill-opacity:1;stroke:#000000;stroke-width:0;stroke-dasharray:none;stroke-opacity:1"
       d="m 26.734521,61.761615 c -1.396005,-2.61751 -3.22826,-4.188013 -4.66789,-4.449765 -1.43963,-0.26175 -5.976646,-0.610751 -7.765277,-0.479875 -1.788631,0.130873 -5.540394,-0.130876 -6.500146,-1.308756 -0.959752,-1.177878 -1.17788,-3.097385 -1.17788,-3.097385 0,0 -0.654375,8.506905 -0.392626,9.597533 0.261752,1.090628 6.151147,2.399382 9.074031,2.530258 2.922884,0.130876 11.429788,-2.79201 11.429788,-2.79201 z"
       id="path11-2" />
    <ellipse
       style="fill:#71ea76;fill-opacity:1;stroke:#000000;stroke-width:0;stroke-dasharray:none;stroke-opacity:1"
       id="path12"
       cx="45.363644"
       cy="62.100399"
       rx="0.64786667"
       ry="1.0688162" />
    <ellipse
       style="fill:#71ea76;fill-opacity:1;stroke:#000000;stroke-width:0;stroke-dasharray:none;stroke-opacity:1"
       id="path12-0"
       cx="45.277668"
       cy="58.738346"
       rx="0.63617361"
       ry="1.0688162" />
    <path
       style="fill:#000000;fill-opacity:1;stroke:#000000;stroke-width:0;stroke-dasharray:none;stroke-opacity:1"
       d="m 52.655551,56.952628 c 0,0 1.406912,-0.141782 1.810444,-0.267203 0.403534,-0.125423 0.491889,7.033681 0.491889,7.033681 0,0 -1.875853,0.463021 -2.103231,0.487825 -0.227375,0.02479 -0.199102,-7.254303 -0.199102,-7.254303 z"
       id="path13" />
    <path
       style="fill:#ea0000;fill-opacity:0.83304942;stroke:#000000;stroke-width:0;stroke-dasharray:none;stroke-opacity:1"
       d="m 52.825715,64.111848 0.719336,-0.28112 -0.04134,-0.504362 -0.760677,-0.132291 0.694531,-0.297657 -0.04134,-0.60358 -0.686263,-0.173633 0.644922,-0.380339 -0.01654,-0.496093 -0.636654,-0.07441 0.595313,-0.405144 -0.0083,-0.545703 -0.587045,-0.06615 0.56224,-0.02479 v -0.636654 l -0.570508,0.02479 0.529167,-0.214974 V 58.77884 l -0.545703,-0.206705 0.537434,-0.231511 -0.02479,-0.487825 -0.520898,-0.165365 0.487825,-0.264583 -0.02479,-0.51263 c 0,0 -0.363802,0.04961 -0.42168,0.05788 -0.05788,0.0083 -0.07441,0.611849 -0.09095,0.735873 -0.01654,0.124023 0.07442,3.960481 0.07442,4.0597 0,0.09922 0,1.265039 0.02479,1.438672 0.02479,0.173633 0.107487,0.909505 0.107487,0.909505 z"
       id="path24" />
    <path
       style="fill:#ea0000;fill-opacity:0.833049;stroke:#000000;stroke-width:0;stroke-dasharray:none;stroke-opacity:1"
       d="m 54.811041,56.641468 -0.719336,0.28112 0.04134,0.504362 0.760677,0.132291 -0.694531,0.297657 0.04134,0.60358 0.686263,0.173633 -0.644922,0.380339 0.01654,0.496093 0.636654,0.07441 -0.595313,0.405144 0.0083,0.545703 0.587045,0.06615 -0.56224,0.02479 v 0.636654 l 0.570508,-0.02479 -0.529167,0.214974 v 0.520898 l 0.545703,0.206705 -0.537434,0.231511 0.02479,0.487825 0.520898,0.165365 -0.487825,0.264583 0.02479,0.51263 c 0,0 0.363802,-0.04961 0.42168,-0.05788 0.05788,-0.0083 0.07441,-0.611849 0.09095,-0.735873 0.01654,-0.124023 -0.07442,-3.960481 -0.07442,-4.0597 0,-0.09922 0,-1.265039 -0.02479,-1.438672 -0.02479,-0.173633 -0.107487,-0.909505 -0.107487,-0.909505 z"
       id="path24-2" />
    <path
       style="fill:#82ff79;fill-opacity:0.616695;stroke:#000000;stroke-width:0;stroke-dasharray:none;stroke-opacity:1"
       id="path16"
       d="m 54.839716,60.774293 c -0.0033,-0.04699 -0.0059,-0.05002 0.0019,-0.100364 0.0099,-0.06374 0.02638,-0.126341 0.03662,-0.190034 0.02482,-0.154623 0.02037,-0.149725 0.0321,-0.317844 0.0033,-0.0658 0.0084,-0.131527 0.0098,-0.19739 0.0019,-0.08028 -0.0024,-0.160613 -2.65e-4,-0.240885 0.0055,-0.226276 0.01593,-0.248036 0.02904,-0.47037 0.0095,-0.161693 0.01191,-0.297895 0.01627,-0.459648 -0.0036,-0.214558 0.03391,-0.427006 0.04083,-0.640911 0.0016,-0.04653 -7.94e-4,-0.170193 -0.0016,-0.219689 0.0024,-0.176691 -0.01341,-0.352377 -0.03045,-0.528042 -0.03467,-0.241813 -0.07951,-0.48243 -0.102984,-0.725686 -0.01754,-0.175082 -0.01,-0.310245 0.103349,-0.450043 0.105312,-0.103266 0.226904,-0.190478 0.358637,-0.256489 0.09412,-0.05197 0.18936,-0.104236 0.286877,-0.149789 0.115356,-0.05389 -0.0037,0.01423 0.114988,-0.05819 0.01826,-0.01069 0.03583,-0.02262 0.05477,-0.03205 0.03705,-0.01844 0.07621,-0.03235 0.113919,-0.04941 0.05951,-0.02692 0.117668,-0.05511 0.178644,-0.07859 0.145256,-0.06986 0.282445,-0.152136 0.420502,-0.235019 0.02604,-0.01712 0.05113,-0.03574 0.07808,-0.05135 0.140821,-0.08157 0.0136,0.0067 0.158919,-0.08405 0.08815,-0.05504 0.169987,-0.121261 0.251542,-0.185354 0.08604,-0.06511 0.160475,-0.143026 0.231518,-0.223761 0.02471,-0.02808 0.05219,-0.05417 0.07286,-0.08535 0.0292,-0.04405 0.05058,-0.09281 0.07595,-0.139176 0.02741,-0.0501 0.05493,-0.100137 0.0824,-0.150207 0.107416,-0.206036 0.215728,-0.415692 0.295201,-0.634704 0.03545,-0.09769 0.06781,-0.222228 0.09552,-0.322553 0.07085,-0.279144 0.112768,-0.564087 0.147466,-0.849567 0.01111,-0.151815 0.03023,-0.307398 0.01127,-0.459594 -0.01614,-0.129458 -0.03263,-0.161833 -0.07197,-0.288293 -0.119107,-0.292568 -0.283697,-0.566359 -0.472344,-0.819205 -0.128064,-0.153493 -0.248367,-0.31224 -0.35096,-0.483886 -0.127796,-0.273847 -0.115882,-0.574471 -0.07249,-0.866011 0.03054,-0.147756 0.07101,-0.294327 0.140168,-0.429257 0.01423,-0.02777 0.07361,-0.119764 0.09141,-0.147722 0.08172,-0.119782 0.168878,-0.23485 0.263297,-0.344853 0.144082,-0.154966 0.322916,-0.265231 0.500272,-0.376753 0.08894,-0.05157 0.169161,-0.117726 0.257582,-0.169984 0.08814,-0.05209 0.183722,-0.0957 0.276763,-0.138086 0.12706,-0.05907 0.262535,-0.09791 0.390773,-0.153961 0.1176,-0.05689 0.05826,-0.02965 0.178028,-0.0817 0.105886,-0.05398 0.220115,-0.08595 0.33174,-0.124605 0.10488,-0.03631 0.208507,-0.07791 0.312467,-0.116835 0.187169,-0.07669 0.369639,-0.162534 0.546645,-0.260234 0.175813,-0.118223 0.336516,-0.257265 0.506699,-0.383542 0.01635,-0.01349 0.139102,-0.113607 0.155741,-0.131998 0.02804,-0.03099 0.05078,-0.06641 0.07515,-0.100359 0.07544,-0.105101 0.140451,-0.214355 0.203319,-0.327234 0.06914,-0.136832 0.123828,-0.279757 0.175376,-0.423871 0,0 -2.110345,-1.144489 -2.110345,-1.144489 v 0 c -0.02196,0.134622 -0.05423,0.266679 -0.121248,0.387104 -0.04248,0.07867 -0.06138,0.119866 -0.113967,0.192516 -0.07853,0.108489 -0.18633,0.186491 -0.282001,0.278625 -0.157017,0.13163 -0.327305,0.242564 -0.507825,0.339391 -0.163531,0.09477 -0.330158,0.185415 -0.510646,0.244173 -0.100071,0.04166 -0.201742,0.0776 -0.302522,0.117224 -0.11317,0.0445 -0.223216,0.09786 -0.34185,0.127728 -0.192582,0.07467 -0.37932,0.163758 -0.567264,0.249187 -0.199128,0.0928 -0.384611,0.209002 -0.566652,0.331761 -0.184529,0.130791 -0.361292,0.273312 -0.537877,0.414539 -0.121222,0.115461 -0.225748,0.244946 -0.29655,0.397959 -0.104958,0.218271 -0.197237,0.447255 -0.218033,0.690743 -0.01347,0.170074 -0.01807,0.340008 -0.02675,0.510392 -0.0029,0.05655 -0.0051,0.113135 -0.0082,0.169672 -0.0027,0.04898 -0.0098,0.09781 -0.0093,0.146857 5.29e-4,0.03803 0.0081,0.07563 0.01209,0.113448 0.0081,0.0344 0.01241,0.0699 0.02421,0.103203 0.02694,0.076 0.05925,0.110077 0.10527,0.175345 0.07125,0.101057 0.14465,0.199953 0.228639,0.29111 0.0625,0.07074 0.128011,0.138938 0.187592,0.212162 0.131951,0.162168 0.243467,0.341283 0.327634,0.532667 0.02781,0.07767 0.05475,0.141676 0.06935,0.222731 0.02577,0.143103 0.01206,0.289804 0.01437,0.434023 -0.0048,0.279397 -0.03214,0.557278 -0.09066,0.830895 -0.07529,0.314539 -0.175086,0.624451 -0.354312,0.897085 -0.02964,0.04205 -0.05608,0.08655 -0.08892,0.126151 -0.02903,0.03501 -0.06414,0.0645 -0.09606,0.0969 -0.09223,0.09362 -0.183243,0.188875 -0.290172,0.266292 -0.153005,0.110831 -0.320622,0.19539 -0.48384,0.289991 -0.137605,0.07807 -0.284155,0.137187 -0.430091,0.1978 -0.11955,0.0616 -0.245303,0.110623 -0.360799,0.180308 -0.127553,0.06793 -0.246338,0.15054 -0.37066,0.223933 -0.158896,0.09596 -0.325483,0.183309 -0.431747,0.340797 -0.01704,0.02716 -0.03604,0.05317 -0.05108,0.08148 -0.0872,0.164102 -0.115323,0.356957 -0.09996,0.540141 0.03321,0.23762 0.07977,0.474441 0.09125,0.714132 0.0029,0.03 0.0076,0.05988 0.0088,0.09 0.0011,0.03005 -0.0013,0.06012 -0.0021,0.09019 1.77e-4,0.02773 -5.29e-4,0.05548 5.29e-4,0.08318 0.0031,0.07486 0.0081,0.08983 0.01815,0.165262 0.0043,0.03209 0.0081,0.06423 0.01217,0.09635 0.0387,0.299551 0.07574,0.600239 0.08658,0.902216 7.94e-4,0.31382 0.0033,0.136297 -0.0083,0.453091 -0.0062,0.16837 -0.0065,0.297016 -0.02746,0.464746 -0.0091,0.07241 -0.02498,0.143806 -0.03697,0.215791 -0.0098,0.05853 -0.01886,0.117158 -0.0283,0.175739 -0.02649,0.108387 -0.03516,0.158626 -0.072,0.259451 -0.03549,0.09713 -0.08617,0.187767 -0.127937,0.282114 z" />
    <path
       style="fill:#82ff79;fill-opacity:0.616695;stroke:#000000;stroke-width:0;stroke-dasharray:none;stroke-opacity:1"
       id="path17"
       d="m 54.842063,62.804404 c -0.07221,-0.355102 -0.216091,-0.68857 -0.337487,-1.028509 -0.08297,-0.240903 -0.160742,-0.491361 -0.135067,-0.749821 0.01196,-0.120285 0.04251,-0.191887 0.08,-0.30529 0.08919,-0.215958 0.205306,-0.41911 0.367067,-0.589182 0.122614,-0.12891 0.186304,-0.172278 0.325181,-0.283752 0.353806,-0.26121 0.770382,-0.406289 1.176023,-0.564042 0.442505,-0.174294 0.874572,-0.373144 1.305097,-0.574799 0.315613,-0.154054 0.648173,-0.301652 0.895432,-0.559766 0.04054,-0.04232 0.075,-0.09007 0.112498,-0.135112 0.07709,-0.123179 0.121259,-0.180612 0.173556,-0.318765 0.116597,-0.308001 0.137898,-0.64752 0.165304,-0.972108 0.02897,-0.358121 0.02199,-0.71846 0.0094,-1.077219 -0.0024,-0.06888 -0.0019,-0.138004 -0.0085,-0.206592 -0.0065,-0.06582 -0.02085,-0.130625 -0.03127,-0.195937 -0.115856,-0.382982 -0.351163,-0.706782 -0.587303,-1.023237 -0.210487,-0.267851 -0.398032,-0.550531 -0.567122,-0.84587 -0.12506,-0.217694 -0.195863,-0.45674 -0.194775,-0.708877 2.64e-4,-0.06316 0.0076,-0.126098 0.01135,-0.189148 0.04717,-0.324001 0.129175,-0.65542 0.303668,-0.936977 0.03077,-0.04966 0.06843,-0.09471 0.102648,-0.142065 0.185549,-0.223118 0.426828,-0.390438 0.682188,-0.524251 0,0 -1.984049,-1.287094 -1.984049,-1.287094 v 0 c -0.03849,0.02447 -0.07859,0.04663 -0.115483,0.07346 -0.06264,0.04556 -0.142137,0.122997 -0.196908,0.175797 -0.130498,0.125794 -0.259107,0.254225 -0.367168,0.40045 -0.03578,0.05713 -0.07474,0.112389 -0.107325,0.171402 -0.172334,0.31211 -0.267677,0.659744 -0.342676,1.005816 -0.01238,0.06758 -0.02783,0.134676 -0.03716,0.202748 -0.03749,0.273439 -0.02008,0.554863 0.104841,0.804553 0.177324,0.31021 0.389266,0.59682 0.596241,0.887537 0.222076,0.307136 0.484545,0.590835 0.633384,0.944382 0.02,0.06029 0.04392,0.119417 0.06004,0.180859 0.106984,0.407778 0.112469,0.84673 0.07768,1.263893 -0.06113,0.408855 -0.126907,0.78059 -0.375981,1.122246 -0.07614,0.09598 -0.107198,0.142788 -0.19876,0.226579 -0.19898,0.182089 -0.441031,0.31092 -0.680437,0.430395 -0.07168,0.03503 -0.142473,0.07194 -0.215048,0.105084 -0.361662,0.165143 -0.738756,0.293632 -1.107943,0.440227 -0.418674,0.172824 -0.843571,0.344139 -1.202388,0.62774 -0.06068,0.04957 -0.122931,0.09728 -0.182044,0.148717 -0.129969,0.113078 -0.211722,0.196797 -0.32806,0.323011 -0.05025,0.05452 -0.104642,0.105937 -0.147846,0.166196 -0.05227,0.0729 -0.118216,0.238551 -0.15286,0.319071 -0.04569,0.146595 -0.07494,0.216948 -0.09258,0.372428 -0.03235,0.285096 0.03036,0.568616 0.121118,0.837242 0.06812,0.189852 0.142758,0.377301 0.186568,0.574739 0.01865,0.08405 0.03147,0.150881 0.024,0.235368 -0.0019,0.02013 -0.0095,0.03931 -0.01418,0.05897 z" />
    <path
       style="fill:#82ff79;fill-opacity:0.616695;stroke:#000000;stroke-width:0;stroke-dasharray:none;stroke-opacity:1"
       id="path18"
       d="m 54.302966,59.072573 c 0.01831,-0.212799 0.127984,-0.360688 0.262607,-0.516943 0.139131,-0.138467 0.312444,-0.231566 0.478105,-0.333224 0.269092,-0.165127 -0.03175,0.01495 0.277791,-0.16872 0.516491,-0.2883 1.025919,-0.589102 1.536219,-0.888248 0.460584,-0.276281 0.868103,-0.627584 1.22524,-1.027557 0.05215,-0.05841 0.100142,-0.120412 0.150212,-0.180618 0.115271,-0.178369 0.246655,-0.35719 0.280379,-0.573474 0.04574,-0.293338 -0.01617,-0.594524 -0.06373,-0.882515 -0.05262,-0.315238 -0.123796,-0.62824 -0.249923,-0.922967 -0.06031,-0.140928 -0.116948,-0.244451 -0.18693,-0.379458 -0.157584,-0.331279 -0.416703,-0.589727 -0.663909,-0.854014 -0.187256,-0.199988 -0.381648,-0.399899 -0.519753,-0.638828 -0.02434,-0.04212 -0.04437,-0.08659 -0.06656,-0.129887 -0.09759,-0.21745 -0.134051,-0.449106 -0.115054,-0.686469 0.0047,-0.05858 0.01593,-0.116454 0.02389,-0.174681 0.047,-0.245623 0.155789,-0.466524 0.346395,-0.632259 0.103928,-0.09037 0.206822,-0.145367 0.324313,-0.216484 0.305607,-0.169056 0.63246,-0.307139 0.971759,-0.393266 0.07169,-0.0182 0.1447,-0.03076 0.217051,-0.04614 0.294899,-0.04739 0.149518,-0.02844 0.436017,-0.05779 0,0 -1.865799,-1.311748 -1.865799,-1.311748 v 0 c -0.266285,0.05768 -0.12732,0.02876 -0.417018,0.08619 -0.164931,0.03532 -0.303022,0.05936 -0.462449,0.114786 -0.118065,0.04105 -0.262343,0.116451 -0.374301,0.17003 -0.06991,0.03345 -0.141023,0.06442 -0.210201,0.09936 -0.06782,0.03425 -0.133768,0.07209 -0.200649,0.108133 -0.142507,0.08827 -0.248187,0.144171 -0.372084,0.259088 -0.213196,0.197744 -0.333719,0.462859 -0.421576,0.734774 -0.09508,0.359421 -0.142089,0.620406 -0.0024,0.977792 0.05549,0.134429 0.06682,0.174966 0.140883,0.301368 0.120928,0.206383 0.282739,0.385913 0.452295,0.553016 0.246004,0.257133 0.493257,0.516403 0.694991,0.810654 0.03759,0.05735 0.07784,0.113033 0.112763,0.172043 0.201528,0.340513 0.339939,0.716957 0.443061,1.097399 0.03739,0.207214 0.0704,0.320403 0.0609,0.530315 -0.01196,0.263872 -0.129659,0.51131 -0.255739,0.737269 -0.08156,0.134258 -0.156427,0.26606 -0.254563,0.38984 -0.26211,0.330592 -0.597376,0.591661 -0.955813,0.809845 -0.10256,0.05674 -0.204155,0.115252 -0.307678,0.170211 -0.441852,0.234575 -0.900288,0.436743 -1.367962,0.613752 -0.106982,0.04635 -0.238353,0.09864 -0.340149,0.159144 -0.177996,0.105799 -0.322776,0.26275 -0.493122,0.379267 -0.04234,0.0371 -0.08795,0.07076 -0.127027,0.111281 -0.122483,0.127011 -0.186928,0.295521 -0.294142,0.433258 z" />
    <path
       style="fill:#82ff79;fill-opacity:0.616695;stroke:#000000;stroke-width:0;stroke-dasharray:none;stroke-opacity:1"
       id="path19"
       d="m 54.693946,63.92166 c 0.07923,-0.335769 0.243867,-0.651695 0.434031,-0.937826 0.05548,-0.08347 0.118155,-0.16193 0.177231,-0.242895 0.226568,-0.293587 0.461399,-0.559239 0.766969,-0.773454 0.130677,-0.09161 0.264139,-0.159036 0.40386,-0.234926 0.06664,-0.03371 0.132553,-0.0689 0.199919,-0.101135 0.0615,-0.02943 0.126177,-0.05218 0.186576,-0.0838 0.24801,-0.129839 0.468916,-0.311603 0.68644,-0.485542 0.423101,-0.624824 0.886479,-1.221044 1.321226,-1.837709 0.187479,-0.271139 0.321414,-0.5135 0.398767,-0.836057 0.07226,-0.301318 0.08621,-0.611256 0.101243,-0.919136 0.01754,-0.376486 -0.03342,-0.747474 -0.134088,-1.109757 -0.04794,-0.172503 -0.10459,-0.326459 -0.163425,-0.494896 -0.0996,-0.295944 -0.229008,-0.582795 -0.309531,-0.885105 -0.01487,-0.05586 -0.02596,-0.112665 -0.03895,-0.168997 -0.0177,-0.122386 -0.03372,-0.197229 -0.03129,-0.321141 0.0039,-0.1978 0.05918,-0.406522 0.100203,-0.599268 0.08596,-0.377716 0.292361,-0.702625 0.479313,-1.035473 0.221311,-0.340537 0.520526,-0.618231 0.86404,-0.832707 0.06226,-0.03888 0.127404,-0.07294 0.191106,-0.109416 0.314925,-0.162478 0.648824,-0.290365 0.995325,-0.367176 0.07151,-0.01585 0.144103,-0.0264 0.216154,-0.03961 0.270854,-0.03913 0.139131,-0.02082 0.395142,-0.05516 0,0 -1.894552,-1.322109 -1.894552,-1.322109 v 0 c -0.224184,0.05853 -0.106076,0.02936 -0.354565,0.0865 -0.129754,0.02913 -0.322554,0.06994 -0.449379,0.108527 -0.282123,0.08584 -0.547193,0.219356 -0.802278,0.365236 -0.06578,0.04238 -0.133471,0.08192 -0.197331,0.127143 -0.347369,0.245957 -0.62901,0.570632 -0.89344,0.90057 -0.05478,0.06323 -0.113456,0.123288 -0.164346,0.189688 -0.198567,0.259088 -0.293949,0.580782 -0.418491,0.877634 -0.019,0.05572 -0.0405,0.110648 -0.05702,0.167155 -0.04668,0.159708 -0.06527,0.323877 -0.07324,0.489551 -0.003,0.06162 -0.0076,0.123396 -0.0046,0.185012 0.0029,0.06035 0.01498,0.119907 0.02246,0.179862 0.02453,0.131553 0.0401,0.23138 0.07636,0.36042 0.07532,0.267991 0.21459,0.509368 0.326628,0.762551 0.106368,0.240942 0.212164,0.482856 0.273643,0.740243 0.06284,0.263078 0.08487,0.536099 0.104563,0.804892 -7.94e-4,0.239066 0.0063,0.344995 -0.02506,0.583247 -0.05086,0.386649 -0.186092,0.755613 -0.360228,1.102667 -0.05818,0.102439 -0.113154,0.206761 -0.17454,0.307311 -0.268944,0.440531 -0.60062,0.87308 -0.999225,1.204785 -0.07835,0.0652 -0.165889,0.118481 -0.248833,0.177721 -0.105029,0.08176 -0.211347,0.167291 -0.321609,0.242117 -0.194146,0.131752 -0.144013,0.08713 -0.347673,0.204087 -0.121198,0.0696 -0.236683,0.148886 -0.359778,0.215315 -0.173958,0.109445 -0.245888,0.146722 -0.405551,0.280162 -0.28879,0.241364 -0.530029,0.538779 -0.748913,0.842727 -0.198163,0.262091 -0.17176,0.229643 -0.373394,0.486561 -0.154172,0.196445 -0.303797,0.402288 -0.495776,0.564253 z" />
    <path
       style="fill:#82ff79;fill-opacity:0.616695;stroke:#000000;stroke-width:0;stroke-dasharray:none;stroke-opacity:1"
       id="path20"
       d="m 54.601673,63.752152 c 0.05145,-0.218276 0.114099,-0.435239 0.184578,-0.648446 0.08322,-0.286284 0.191781,-0.560885 0.335291,-0.821978 0.173408,-0.340373 0.446455,-0.615638 0.710129,-0.88709 0.285403,-0.29891 0.571335,-0.595394 0.883192,-0.867029 0.184594,-0.159985 0.382542,-0.307147 0.552498,-0.483566 0.102197,-0.106084 0.145433,-0.171309 0.234979,-0.290142 0.188145,-0.282273 0.370189,-0.56973 0.530534,-0.868923 0.04288,-0.08002 0.08812,-0.159142 0.123516,-0.242745 0.04057,-0.09584 0.06927,-0.196291 0.103901,-0.294439 0.231302,-0.774533 0.253096,-1.589375 0.266005,-2.391706 0.0048,-0.369398 -0.01807,-0.740603 -0.109265,-1.099886 -0.03697,-0.145653 -0.08622,-0.280879 -0.134689,-0.422693 -0.144883,-0.38408 -0.297109,-0.765209 -0.441492,-1.14953 -0.183869,-0.451448 -0.36612,-0.903504 -0.550391,-1.354817 -0.181933,-0.456954 -0.331153,-0.924701 -0.464468,-1.397762 -0.142259,-0.462934 -0.231789,-0.937946 -0.283144,-1.418839 -0.01363,-0.437732 0.0073,-0.877747 0.06797,-1.311518 0.05998,-0.35001 0.145108,-0.694145 0.256452,-1.031182 0.09797,-0.282879 0.23884,-0.548833 0.395182,-0.803357 0.120031,-0.191815 0.281062,-0.349065 0.450038,-0.496975 0.266845,-0.252947 0.525121,-0.514345 0.786209,-0.773128 0.259895,-0.251389 0.544775,-0.474523 0.809583,-0.720672 0.149939,-0.143066 0.302874,-0.283065 0.434888,-0.443445 0.02479,-0.03011 0.0514,-0.05924 0.07128,-0.0928 0.02598,-0.04384 0.04367,-0.09207 0.0655,-0.13811 0.156181,-0.333144 0.315606,-0.66417 0.464352,-1.00072 0.09797,-0.22774 0.189521,-0.457822 0.234545,-0.70208 0,0 -2.126618,-1.126659 -2.126618,-1.126659 v 0 c -0.03083,0.229412 -0.07455,0.456867 -0.167065,0.670766 -0.14146,0.330224 -0.2778,0.664904 -0.480042,0.964097 -0.151085,0.223173 -0.299177,0.448757 -0.504039,0.628232 -0.135599,0.124904 -0.281001,0.234474 -0.420283,0.354809 -0.0933,0.08062 -0.163499,0.154591 -0.250063,0.24257 -0.04464,0.04537 -0.0891,0.09092 -0.133657,0.136374 -0.261135,0.259493 -0.527404,0.514332 -0.825558,0.731724 -0.189172,0.166449 -0.373681,0.341831 -0.495546,0.565457 -0.142991,0.280696 -0.270857,0.569682 -0.374369,0.867389 -0.115335,0.352612 -0.24003,0.706231 -0.267404,1.079161 -0.01349,0.143806 -0.03235,0.287144 -0.0425,0.431223 -0.02199,0.311883 -0.02101,0.626015 -0.01879,0.938395 0.01225,0.151276 0.02548,0.343781 0.04694,0.494337 0.04606,0.322974 0.136652,0.638133 0.210203,0.955331 0.08069,0.316256 0.178779,0.626179 0.291272,0.932699 0.03011,0.08204 0.06509,0.162229 0.09519,0.244268 0.03064,0.08351 0.058,0.168191 0.087,0.252283 0.163171,0.447432 0.350655,0.885124 0.509283,1.33431 0.148103,0.385 0.294534,0.770654 0.450157,1.152731 0.199236,0.48369 0.357179,0.983702 0.392628,1.509485 0.01942,0.319146 0.03699,0.475483 0.02252,0.800066 -0.02257,0.506732 -0.123862,1.008753 -0.30172,1.483664 -0.08665,0.196982 -0.131101,0.309594 -0.232121,0.496358 -0.156427,0.2892 -0.344798,0.561028 -0.564185,0.80599 -0.233465,0.267361 -0.488262,0.514024 -0.753258,0.750107 -0.309494,0.282744 -0.610415,0.573405 -0.898596,0.87799 -0.279623,0.291206 -0.547624,0.593003 -0.78146,0.922909 -0.138666,0.274683 -0.258371,0.556901 -0.351364,0.850628 -0.08085,0.20629 -0.140002,0.425947 -0.259988,0.613836 z" />
    <path
       style="fill:#82ff79;fill-opacity:0.616695;stroke:#000000;stroke-width:0;stroke-dasharray:none;stroke-opacity:1"
       id="path21"
       d="m 54.828736,60.648079 c 0.151831,-0.430469 0.362354,-0.838102 0.573833,-1.241663 0.208354,-0.392525 0.444794,-0.770673 0.713796,-1.124659 0.113593,-0.149476 0.296574,-0.368146 0.416205,-0.513045 0.211728,-0.245013 0.427451,-0.4904 0.660802,-0.715423 0.280356,-0.270349 0.587682,-0.513705 0.890016,-0.758481 0.2843,-0.230735 0.576234,-0.457155 0.826334,-0.726337 0.09253,-0.09959 0.177546,-0.205938 0.263422,-0.311314 0.08701,-0.106773 0.178956,-0.21028 0.255148,-0.325022 0.08737,-0.13157 0.156123,-0.27459 0.234183,-0.411882 0.225536,-0.43307 0.443923,-0.868974 0.646117,-1.313418 0.126196,-0.277395 0.206616,-0.448117 0.308187,-0.730965 0.0375,-0.104431 0.06819,-0.211182 0.102283,-0.316772 0.109696,-0.435576 0.184933,-0.902814 0.181332,-1.353622 -7.94e-4,-0.08386 -0.0089,-0.167489 -0.01336,-0.251235 -0.05428,-0.527711 -0.267909,-1.018159 -0.436181,-1.516073 -0.155625,-0.429358 -0.228277,-0.879335 -0.314743,-1.325592 -0.09748,-0.416522 -0.137443,-0.840147 -0.137454,-1.267028 -0.01037,-0.582996 0.105206,-1.143074 0.271703,-1.698173 0.108398,-0.318635 0.256207,-0.622588 0.439709,-0.904655 0.02402,-0.03693 0.201091,-0.288436 0.227872,-0.326573 0.199568,-0.2536 0.468757,-0.427974 0.766715,-0.543602 0,0 -1.993429,-1.320451 -1.993429,-1.320451 v 0 c -0.312068,0.165442 -0.590074,0.382424 -0.794496,0.674431 -0.0397,0.05768 -0.08268,0.113239 -0.119102,0.173046 -0.0359,0.05894 -0.06473,0.121901 -0.09751,0.182631 -0.168847,0.312862 -0.324988,0.633148 -0.427024,0.975193 -0.02735,0.09677 -0.05732,0.192844 -0.08206,0.290319 -0.04096,0.161412 -0.0989,0.450215 -0.132842,0.612156 -0.05714,0.272603 -0.117346,0.545301 -0.132453,0.824466 -0.01643,0.43783 0.0095,0.878229 0.101073,1.307674 0.102995,0.45898 0.187034,0.922893 0.342556,1.368615 0.06917,0.210381 0.09474,0.292897 0.169439,0.501224 0.112189,0.312891 0.239742,0.621972 0.279226,0.9553 0.04176,0.524261 0.02265,1.050792 -0.07543,1.568717 -0.0639,0.298093 -0.07355,0.374375 -0.167299,0.674621 -0.183896,0.588923 -0.447405,1.152398 -0.768836,1.678456 -0.181804,0.259556 -0.300382,0.446177 -0.508977,0.680736 -0.327694,0.368477 -0.71951,0.673444 -1.081542,1.005853 -0.302991,0.25387 -0.605793,0.508 -0.909249,0.761309 -0.09892,0.08257 -0.204515,0.157573 -0.297765,0.246492 -0.09276,0.08845 -0.327191,0.383323 -0.405968,0.48021 -0.210201,0.263327 -0.429284,0.521693 -0.620406,0.799582 -0.140216,0.203872 -0.22851,0.360518 -0.351195,0.575434 -0.05715,0.100113 -0.113061,0.200935 -0.169592,0.3014 -0.230164,0.389983 -0.460055,0.787268 -0.774502,1.116939 z" />
    <path
       style="fill:#82ff79;fill-opacity:0.616695;stroke:#000000;stroke-width:0;stroke-dasharray:none;stroke-opacity:1"
       id="path22"
       d="m 54.652513,59.104916 c -0.0056,-0.311087 0.02016,-0.62166 0.03025,-0.932532 2.64e-4,-0.382889 0.0093,-0.76426 0.107029,-1.137029 0.07117,-0.271322 0.111966,-0.338772 0.221628,-0.588007 0.04713,-0.07499 0.08835,-0.154043 0.141391,-0.224975 0.225507,-0.301548 0.562303,-0.51562 0.898737,-0.673378 0.0948,-0.04445 0.193415,-0.08027 0.290123,-0.120399 0.504015,-0.191786 1.033738,-0.304543 1.541,-0.485735 0.09315,-0.03327 0.184549,-0.07124 0.276825,-0.106852 0.465638,-0.188632 0.915477,-0.436756 1.298255,-0.765244 0.08836,-0.07583 0.169743,-0.159416 0.254614,-0.239128 0.246856,-0.330456 0.461042,-0.685797 0.644776,-1.055028 0.09488,-0.19068 0.219657,-0.466384 0.267486,-0.676754 0.02824,-0.124195 0.03321,-0.252553 0.04981,-0.37883 -0.0051,-0.133189 0.0021,-0.267404 -0.01516,-0.399564 -0.06522,-0.499218 -0.28557,-1.013727 -0.528738,-1.45148 -0.04841,-0.08715 -0.103605,-0.170349 -0.155408,-0.255524 -0.175776,-0.282257 -0.427408,-0.501975 -0.636619,-0.756798 -0.151577,-0.199732 -0.167762,-0.449138 -0.187947,-0.690052 -0.01836,-0.438978 0.01093,-0.877618 0.02053,-1.316358 -0.0061,-0.395094 -0.01545,-0.799121 0.0718,-1.187452 0.01447,-0.06441 0.03598,-0.12704 0.05398,-0.190559 0.05523,-0.125243 0.08564,-0.272491 0.178258,-0.378846 0.07073,-0.08123 0.176109,-0.125788 0.271481,-0.168516 0.127675,-0.05389 0.06486,-0.03046 0.188079,-0.07125 0,0 -2.019101,-1.345729 -2.019101,-1.345729 v 0 c -0.121582,0.06394 -0.05936,0.02997 -0.186434,0.102299 -0.122356,0.08027 -0.248724,0.161046 -0.3342,0.283876 -0.09584,0.137737 -0.109233,0.309703 -0.158295,0.465172 -0.02994,0.141335 -0.0682,0.309303 -0.08677,0.451837 -0.04204,0.322614 -0.03797,0.650084 -0.05994,0.974154 -0.0058,0.436975 -0.0042,0.874336 -0.0433,1.310081 -0.02061,0.266957 -0.04279,0.543597 0.0735,0.793118 0.01995,0.03421 0.03686,0.07038 0.05985,0.102619 0.06376,0.08941 0.127225,0.14338 0.208394,0.218659 0.173825,0.161221 0.35565,0.314635 0.508542,0.497033 0.06291,0.08308 0.130069,0.163089 0.188714,0.249224 0.276714,0.406432 0.524023,0.878885 0.599271,1.370082 0.01818,0.118647 0.01352,0.23968 0.02027,0.359518 -0.01333,0.113102 -0.01762,0.227642 -0.04003,0.339302 -0.02225,0.110985 -0.0578,0.219048 -0.09354,0.326453 -0.118311,0.355524 -0.280977,0.714103 -0.508336,1.014304 -0.07708,0.10178 -0.171074,0.189574 -0.256611,0.284361 -0.08257,0.07213 -0.161235,0.149014 -0.247724,0.216403 -0.388485,0.302704 -0.84717,0.497229 -1.292292,0.698667 -0.279135,0.111299 -0.558199,0.212516 -0.845484,0.301196 -0.01791,0.0055 -0.64413,0.192588 -0.658021,0.1973 -0.100565,0.03413 -0.19835,0.07595 -0.297524,0.113932 -0.479584,0.21227 -0.985239,0.452972 -1.292032,0.901353 -0.05618,0.0821 -0.09346,0.175647 -0.140192,0.26347 -0.03591,0.100026 -0.07491,0.199001 -0.107741,0.30008 -0.0868,0.267224 -0.115136,0.409183 -0.190196,0.681146 -0.02968,0.107534 -0.0673,0.212952 -0.0926,0.321598 -0.03488,0.149794 -0.04371,0.294622 -0.05774,0.446537 -0.01431,0.284636 -0.01323,0.584198 -0.118176,0.852784 z" />
    <path
       style="fill:#82ff79;fill-opacity:0.616695;stroke:#000000;stroke-width:0;stroke-dasharray:none;stroke-opacity:1"
       id="path23"
       d="m 55.069673,62.089826 c -0.07136,-0.326523 -0.282935,-0.592416 -0.460975,-0.866651 -0.04233,-0.06521 -0.08227,-0.131934 -0.123407,-0.197903 -0.271042,-0.463278 -0.293791,-0.888376 -0.289619,-1.408449 0.0057,-0.447902 -0.02521,-0.898159 0.03934,-1.343546 0.01588,-0.109646 0.04205,-0.217553 0.06308,-0.326332 0.119544,-0.539802 0.331533,-1.053549 0.641982,-1.512003 0.05892,-0.087 0.125511,-0.168553 0.188265,-0.252828 0.338992,-0.405048 0.780118,-0.694555 1.249399,-0.925891 0.290909,-0.152165 0.590704,-0.288772 0.874168,-0.454565 0.198762,-0.118679 0.403214,-0.25209 0.552026,-0.433366 0.03482,-0.04241 0.06389,-0.08924 0.09584,-0.133858 0.178864,-0.264224 0.321204,-0.551344 0.456592,-0.839679 0.127905,-0.25563 0.169354,-0.534382 0.217196,-0.812353 0.07005,-0.295336 0.118377,-0.595238 0.183184,-0.891611 0.07725,-0.277112 0.129784,-0.559597 0.215406,-0.834308 0.100711,-0.300141 0.202234,-0.600136 0.312814,-0.896821 0.146513,-0.402717 0.389816,-0.606994 0.730567,-0.846302 0.309147,-0.238289 0.661885,-0.403839 1.021639,-0.549304 0.198075,-0.05684 0.385397,-0.144378 0.580072,-0.210476 0.04606,-0.01564 0.09314,-0.02809 0.139708,-0.04214 0.04764,-0.01685 0.09527,-0.03371 0.142912,-0.05057 0,0 -1.97531,-1.33731 -1.97531,-1.33731 v 0 c -0.288531,0.09675 -0.576345,0.198644 -0.848908,0.335145 -0.364575,0.171032 -0.730827,0.345427 -1.044403,0.602771 -0.171413,0.14341 -0.344789,0.284536 -0.500015,0.445934 -0.0539,0.05604 -0.109812,0.110948 -0.155599,0.173797 -0.02072,0.02842 -0.149711,0.281784 -0.166235,0.31386 -0.02368,0.0503 -0.0505,0.09924 -0.07106,0.150902 -0.09954,0.250148 -0.1333,0.523319 -0.234892,0.772975 -0.09453,0.277963 -0.217443,0.548209 -0.259622,0.841108 -0.02772,0.145079 -0.0404,0.291073 -0.06712,0.436271 -0.02728,0.148246 -0.03707,0.164526 -0.0702,0.311499 -0.01156,0.05134 -0.0217,0.102997 -0.03253,0.154496 -0.05387,0.257328 -0.105616,0.515533 -0.21304,0.757211 -0.104171,0.278461 -0.215992,0.557138 -0.405899,0.790324 -0.177919,0.188809 -0.370936,0.363921 -0.59803,0.492527 -0.285128,0.152283 -0.572352,0.301238 -0.846074,0.473728 -0.455692,0.290769 -0.875742,0.641718 -1.220891,1.059342 -0.06505,0.09114 -0.134797,0.179112 -0.195162,0.273425 -0.08146,0.12727 -0.265776,0.473565 -0.331478,0.605094 -0.05351,0.107128 -0.109786,0.213284 -0.153881,0.324615 -0.06651,0.167915 -0.143098,0.477388 -0.188971,0.650161 -0.02558,0.119673 -0.117515,0.54212 -0.137607,0.66503 -0.05444,0.332973 -0.06461,0.672306 -0.06462,1.008946 0.01008,0.252024 0.02159,0.50364 0.04933,0.754507 0.01027,0.09289 0.01812,0.186336 0.03618,0.278032 0.04192,0.21281 0.08262,0.289825 0.161197,0.488167 0.03879,0.06979 0.07496,0.141105 0.116377,0.209367 0.137549,0.226693 0.329353,0.438537 0.387898,0.703366 z" />
    <path
       style="fill:#000000;fill-opacity:1;stroke:#000000;stroke-width:0;stroke-dasharray:none;stroke-opacity:1"
       d="m 11.589406,56.771551 c 0,0 -1.406912,-0.141782 -1.810444,-0.267203 -0.4035344,-0.125423 -0.4918894,7.033681 -0.4918894,7.033681 0,0 1.8758534,0.463021 2.1032314,0.487825 0.227375,0.02479 0.199102,-7.254303 0.199102,-7.254303 z"
       id="path13-7" />
    <path
       style="fill:#71ea76;fill-opacity:0.737649;stroke:#000000;stroke-width:0;stroke-dasharray:none;stroke-opacity:1"
       d="m 9.7466606,63.615579 c 0,0 1.1876534,-11.876534 0.9897104,-12.536342 -0.197941,-0.659809 -4.4207099,-11.24972 -4.4207099,-11.24972 0,0 -3.5299701,-1.385596 -4.2227679,-1.847458 -0.6927978,-0.461867 -1.31961512,-1.286627 -1.0886822,-1.451578 0.2309324,-0.164952 1.1876532,0.428876 2.1113839,0.527846 0.9237304,0.09897 1.4185862,0.131969 1.3855957,-0.296913 -0.032991,-0.428874 -4.5856622,-2.441289 -4.71762369,-2.903155 -0.13196104,-0.461862 -0.62681714,-1.055689 0.0659807,-0.923729 0.69279828,0.131956 5.04752789,3.134084 5.17948919,2.7382 0.1319611,-0.395884 -5.74032544,-3.463987 -5.41042165,-3.958844 0.3299037,-0.494853 5.50939295,3.365018 5.90527725,3.134084 0.3958846,-0.230929 -3.760903,-2.441284 -3.9258546,-3.002124 -0.164952,-0.560836 0.5278458,-0.461863 0.8577497,-0.362893 0.3299037,0.09897 3.2330569,2.573249 3.7279125,2.63923 0.4948555,0.06598 0.2309325,-1.550546 0.2969133,-2.243345 0.065981,-0.692798 0.098971,-0.92373 0.4618653,-0.857748 0.3628942,0.06598 0.131961,2.111383 0.3958845,3.365018 0.2639231,1.253632 1.3526053,3.299036 1.9794225,4.420711 0.6268174,1.121671 3.5959514,9.534217 3.6289414,11.348688 0.033,1.814471 -1.385595,13.921939 -1.979423,13.822969 -0.593827,-0.09897 -1.2206434,-0.362897 -1.2206434,-0.362897 z"
       id="path26" />
    <path
       style="fill:#ea0000;fill-opacity:0.833049;stroke:#000000;stroke-width:0;stroke-dasharray:none;stroke-opacity:1"
       d="m 11.419242,63.930771 -0.719336,-0.28112 0.04134,-0.504362 0.760677,-0.132291 -0.694531,-0.297657 0.04134,-0.60358 0.686263,-0.173633 -0.644922,-0.380339 0.01654,-0.496093 0.636654,-0.07441 -0.595313,-0.405144 0.0083,-0.545703 0.587045,-0.06615 -0.56224,-0.02479 v -0.636654 l 0.570508,0.02479 -0.529167,-0.214974 v -0.520898 l 0.545703,-0.206705 -0.537434,-0.231511 0.02479,-0.487825 0.520898,-0.165365 -0.487825,-0.264583 0.02479,-0.51263 c 0,0 0.363802,0.04961 0.42168,0.05788 0.05788,0.0083 0.07441,0.611849 0.09095,0.735873 0.01654,0.124023 -0.07442,3.960481 -0.07442,4.0597 0,0.09922 0,1.265039 -0.02479,1.438672 -0.02479,0.173633 -0.107487,0.909505 -0.107487,0.909505 z"
       id="path24-6" />
    <path
       style="fill:#ea0000;fill-opacity:0.833049;stroke:#000000;stroke-width:0;stroke-dasharray:none;stroke-opacity:1"
       d="m 9.6877682,56.437786 0.7094638,0.305177 -0.0583,0.502685 -0.7646989,0.106602 0.6841159,0.32087 -0.06164,0.601847 -0.6917187,0.150431 0.6317517,0.401835 -0.03323,0.495255 -0.6387982,0.05293 0.5813362,0.424956 -0.02667,0.545115 -0.5889398,0.04635 0.5610881,0.04371 -0.02143,0.636293 -0.5693508,-0.04398 0.5216298,0.232667 -0.01754,0.520602 -0.5523527,0.188217 0.5293357,0.249472 -0.0412,0.486714 -0.5261703,0.147735 0.4786414,0.280856 -0.042034,0.511504 c 0,0 -0.361926,-0.06182 -0.4194928,-0.07204 -0.057568,-0.01025 -0.053769,-0.614008 -0.066125,-0.738518 -0.012353,-0.12451 0.2077113,-3.955731 0.2110516,-4.054894 0.00334,-0.09917 0.042588,-1.264321 0.07321,-1.437021 0.030622,-0.172701 0.1380455,-0.905371 0.1380455,-0.905371 z"
       id="path24-2-3" />
    <path
       style="fill:#71ea76;fill-opacity:1;stroke:#000000;stroke-width:0;stroke-dasharray:none;stroke-opacity:1"
       d="m 20.372916,57.811458 c 0,0 -0.496093,0.06614 -0.892968,0.595312 -0.396875,0.529167 -0.727604,1.35599 -0.727604,1.35599 0,0 -0.628386,0 -0.760678,-0.56224 -0.132291,-0.562239 0.09922,-1.389062 0.09922,-1.389062 0,0 0.595313,-0.297657 1.058334,-0.297657 0.46302,0 1.223697,0.297657 1.223697,0.297657 z"
       id="path25" />
    <path
       style="fill:#71ea76;fill-opacity:1;stroke:#000000;stroke-width:0;stroke-dasharray:none;stroke-opacity:1"
       d="m 20.579112,62.904686 c 0,0 -0.496093,-0.06614 -0.892968,-0.595312 -0.396875,-0.529167 -0.727604,-1.35599 -0.727604,-1.35599 0,0 -0.628386,0 -0.760678,0.56224 -0.132291,0.562239 0.09922,1.389062 0.09922,1.389062 0,0 0.595313,0.297657 1.058334,0.297657 0.46302,0 1.223697,-0.297657 1.223697,-0.297657 z"
       id="path25-1" />
    <path
       style="fill:#18ffc6;fill-opacity:1;stroke:#000000;stroke-width:0;stroke-dasharray:none;stroke-opacity:1"
       d="m 32.312239,69.883072 -2.678906,-4.927864 2.778125,-5.953125 2.645833,5.886979 -2.513542,6.283854 z"
       id="path30" />
    <path
       style="fill:#83ff78;fill-opacity:0.522998;stroke:#000000;stroke-width:0;stroke-dasharray:none;stroke-opacity:1"
       id="path43"
       d="m 60.78526,45.507417 c -0.0044,-1.082241 0.594501,-1.962732 1.168279,-2.831417 1.23186,-1.690201 3.010778,-2.792299 4.789731,-3.822758 0.622699,-0.364443 1.281885,-0.683639 1.83774,-1.150985 0.253621,-0.213236 0.400542,-0.377447 0.629438,-0.614461 0.15843,-0.19618 0.365996,-0.431667 0.483455,-0.659347 0.288131,-0.558498 0.372536,-1.194929 0.448127,-1.808199 0.0485,-0.544833 0.06948,-1.091531 0.09624,-1.637705 0,0 -2.047266,-1.051988 -2.047266,-1.051988 v 0 c -0.01061,0.539459 -0.02275,1.079441 -0.0897,1.615678 -0.129275,0.903189 -0.261051,1.619911 -0.886518,2.323719 -0.259853,0.270356 -0.317656,0.345027 -0.607613,0.58752 -0.532831,0.445611 -1.124985,0.816391 -1.689113,1.219213 -1.721509,1.154137 -3.51808,2.263498 -4.838026,3.894881 -0.173392,0.230982 -0.355933,0.455369 -0.52017,0.692944 -0.439733,0.636085 -0.797201,1.323737 -0.960181,2.083446 z" />
    <path
       style="fill:#83ff78;fill-opacity:0.522998;stroke:#000000;stroke-width:0;stroke-dasharray:none;stroke-opacity:1"
       id="path44"
       d="m 60.708238,48.967538 c 0.310091,-0.593204 0.698481,-1.140497 1.125381,-1.654361 0.38317,-0.458983 0.760775,-0.920596 1.165024,-1.361326 0.558361,-0.617596 0.950473,-1.349851 1.34938,-2.073733 0.230878,-0.437435 0.453004,-0.879895 0.654175,-1.331891 0.05471,-0.122915 0.113855,-0.244306 0.158199,-0.371329 0.0605,-0.17331 0.193083,-0.710714 0.236977,-0.883137 0.16587,-0.559049 0.350022,-1.118907 0.616349,-1.639726 0.138404,-0.270653 0.25014,-0.428747 0.415357,-0.683834 0.323254,-0.484656 0.721883,-0.902447 1.191733,-1.246569 0.26719,-0.195694 0.530506,-0.350544 0.811496,-0.523616 0.416679,-0.253666 0.825296,-0.520165 1.238014,-0.780134 0.09056,-0.05705 0.186127,-0.106439 0.273362,-0.168452 0.105008,-0.07464 0.201557,-0.160526 0.302337,-0.240787 0.549828,-0.545288 1.063731,-1.134835 1.520664,-1.760858 0.03919,-0.06672 0.07838,-0.133434 0.117575,-0.200152 0,0 -2.095574,-1.20211 -2.095574,-1.20211 v 0 c -0.03086,0.06282 -0.06173,0.12565 -0.09259,0.188476 -0.388839,0.638778 -0.862774,1.235808 -1.439709,1.714616 -0.588338,0.404154 -1.196268,0.779955 -1.778828,1.193239 -0.41298,0.277104 -0.847741,0.54319 -1.228013,0.865198 -0.331057,0.280334 -0.596638,0.625549 -0.843889,0.978879 -0.1794,0.276098 -0.284601,0.42046 -0.431231,0.716222 -0.265557,0.535641 -0.442132,1.112853 -0.619741,1.681464 -0.07883,0.287795 -0.150204,0.564571 -0.24443,0.84758 -0.196157,0.589163 -0.467815,1.151133 -0.75166,1.702009 -0.192186,0.338941 -0.316966,0.577011 -0.537798,0.896731 -0.26248,0.380015 -0.570449,0.728744 -0.874281,1.075444 -0.410178,0.440496 -0.743019,0.938895 -1.133205,1.396288 -0.43415,0.530788 -0.810088,1.102876 -1.234173,1.641313 z" />
    <path
       style="fill:#83ff78;fill-opacity:0.522998;stroke:#000000;stroke-width:0;stroke-dasharray:none;stroke-opacity:1"
       id="path45"
       d="m 58.634066,43.688582 c 0.269928,-0.559692 0.579736,-1.098148 0.900332,-1.62994 0.679267,-1.070157 1.579811,-1.979117 2.645404,-2.667513 0.228645,-0.147711 0.472282,-0.270811 0.708422,-0.406217 0.921031,-0.413465 1.939206,-0.847768 2.97434,-0.681712 0.125781,0.02019 0.246603,0.06402 0.369901,0.09602 0.378661,0.120087 0.736341,0.362376 1.141013,0.39374 0.311856,0.02418 0.412491,-0.03323 0.725628,-0.114512 1.472639,-0.474781 2.77173,-1.340744 4.036957,-2.209011 0.570081,-0.450909 1.26107,-0.839158 1.647549,-1.481567 0.189805,-0.315489 0.221316,-0.514717 0.321892,-0.865769 0.113242,-0.69301 0.06431,-0.331542 0.141912,-1.085048 0,0 -2.018051,-1.06053 -2.018051,-1.06053 v 0 c -0.109093,0.719032 -0.05268,0.375293 -0.167219,1.031542 -0.09667,0.337185 -0.116128,0.485143 -0.290761,0.788807 -0.353529,0.614752 -0.953953,1.048568 -1.482826,1.496785 -0.216582,0.157912 -0.427691,0.32362 -0.64975,0.473734 -1.054439,0.712811 -2.209578,1.303047 -3.461875,1.566836 -0.132574,0.01389 -0.264424,0.04059 -0.397719,0.04169 -0.504253,0.0042 -0.940681,-0.310706 -1.42603,-0.398254 -0.123489,-0.01619 -0.24606,-0.04269 -0.370467,-0.0486 -1.038468,-0.04928 -2.020289,0.429591 -2.929847,0.866699 -0.235667,0.143663 -0.47747,0.277709 -0.706996,0.43099 -0.717373,0.479073 -1.355722,1.046168 -1.9577,1.661724 -0.177242,0.181242 -0.354973,0.362656 -0.518387,0.556455 -0.119468,0.141682 -0.219229,0.298871 -0.328843,0.448308 -0.359436,0.511535 -0.681749,1.047705 -1.048343,1.554157 z" />
    <path
       style="fill:#83ff78;fill-opacity:0.522998;stroke:#000000;stroke-width:0;stroke-dasharray:none;stroke-opacity:1"
       id="path46"
       d="m 57.691186,45.453326 c -0.140425,-0.404773 -0.212344,-0.83711 -0.220668,-1.264671 0.05918,-0.580218 0.380386,-1.058019 0.71065,-1.518751 0.143679,-0.169966 0.279709,-0.354134 0.461005,-0.487601 0.164935,-0.121422 0.359476,-0.219636 0.536127,-0.323088 0.22832,-0.128137 0.487524,-0.180572 0.72793,-0.279336 0.137245,-0.05639 0.239202,-0.113959 0.369993,-0.182819 0.480555,-0.232339 0.894893,-0.566944 1.306836,-0.901012 0.864967,-0.667803 1.701128,-1.371876 2.586572,-2.012675 0.422814,-0.306348 0.849839,-0.612392 1.315026,-0.852292 0.131919,-0.06803 0.44468,-0.210754 0.578496,-0.272584 0.687522,-0.310288 1.431454,-0.430528 2.175706,-0.505428 0.774557,-0.04766 1.542798,-0.162423 2.313056,-0.25408 0.607666,-0.05622 1.210672,-0.151783 1.818158,-0.20892 0.02717,-0.0021 0.349361,-0.02704 0.38331,-0.02413 0.256487,0.02204 0.503666,0.19426 0.725062,0.306287 0.109511,0.05541 0.219625,0.109625 0.329438,0.164438 0.414258,0.180981 0.832646,0.483137 1.308481,0.416915 0.263408,-0.03666 0.440541,-0.143899 0.674552,-0.2564 0.09136,-0.06297 0.182716,-0.125934 0.274071,-0.188899 0,0 -2.005991,-1.283332 -2.005991,-1.283332 v 0 c -0.08101,0.0529 -0.162026,0.105801 -0.243038,0.158705 -0.239213,0.09429 -0.342773,0.162869 -0.60814,0.156138 -0.448638,-0.01138 -0.842864,-0.313179 -1.242184,-0.47594 -0.309028,-0.152723 -0.624157,-0.342249 -0.96856,-0.403831 -0.198734,-0.03554 -0.402178,0.01662 -0.599268,0.0325 -0.583261,0.08454 -1.164503,0.182377 -1.748986,0.258643 -0.776711,0.09641 -1.557092,0.153057 -2.335191,0.236829 -0.76227,0.100134 -1.523802,0.248952 -2.231909,0.559162 -0.23499,0.110848 -0.360053,0.164341 -0.58588,0.292735 -0.455081,0.258742 -0.862777,0.590595 -1.274075,0.911884 -0.861959,0.6741 -1.704445,1.375738 -2.611011,1.990225 -0.448972,0.282207 -0.881219,0.594686 -1.361459,0.82364 -0.360426,0.177258 -0.753678,0.275119 -1.101574,0.479036 -0.188727,0.114657 -0.389559,0.225589 -0.560284,0.366816 -0.186145,0.153985 -0.326557,0.351811 -0.473374,0.541038 -0.343958,0.504582 -0.666057,1.03273 -0.773576,1.644354 -0.0062,0.09805 -0.0204,0.195919 -0.0186,0.294148 0.0062,0.339339 0.112432,0.672438 0.130821,1.011012 z" />
    <path
       style="fill:#83ff78;fill-opacity:0.522998;stroke:#000000;stroke-width:0;stroke-dasharray:none;stroke-opacity:1"
       id="path47"
       d="m 61.019065,48.470613 c -0.423069,-0.25609 -0.487143,-0.769244 -0.248481,-1.18845 0.07561,-0.132816 0.184661,-0.243576 0.276992,-0.365366 0.620244,-0.686657 1.433881,-1.146924 2.136794,-1.735905 0.107995,-0.09049 0.206465,-0.191778 0.309697,-0.287665 0.43923,-0.453615 0.673741,-1.034987 0.922121,-1.603238 0.08162,-0.155839 0.16416,-0.333925 0.279738,-0.469164 0.315127,-0.368734 0.764398,-0.605229 1.184289,-0.829866 0.29923,-0.133683 0.609311,-0.262847 0.939482,-0.29437 0.287824,-0.02748 0.583883,0.01929 0.867318,0.06129 0.635063,0.0846 1.235,0.319897 1.834448,0.534289 0.378622,0.125992 0.792488,0.246906 1.197581,0.197175 0.120722,-0.01482 0.238191,-0.04939 0.357286,-0.07408 1.173146,-0.353894 2.175219,-1.092462 3.15074,-1.809007 0.801179,-0.614648 1.559996,-1.283359 2.280862,-1.989971 0,0 -1.985309,-1.21136 -1.985309,-1.21136 v 0 c -0.662594,0.731451 -1.381612,1.41278 -2.165382,2.014103 -0.979255,0.696863 -2.01159,1.390505 -3.209256,1.63321 -0.121467,0.0068 -0.242744,0.02064 -0.364402,0.0204 -0.39452,-7.94e-4 -0.777494,-0.129505 -1.147681,-0.250102 -0.607687,-0.208905 -1.223295,-0.418637 -1.864873,-0.491072 -0.236376,-0.02051 -0.358333,-0.03962 -0.596699,-0.02585 -0.451694,0.02611 -0.87167,0.189521 -1.268857,0.397835 -0.443936,0.253783 -0.920403,0.52373 -1.268116,0.907812 -0.134996,0.149114 -0.216945,0.329562 -0.309266,0.504645 -0.232683,0.53916 -0.439523,1.099212 -0.830448,1.548876 -0.09328,0.09357 -0.182165,0.191746 -0.279842,0.280718 -0.689446,0.628004 -1.485667,1.131102 -2.15352,1.784268 -0.115538,0.134829 -0.249293,0.255971 -0.346618,0.404484 -0.24543,0.374521 -0.302876,0.914765 -0.09701,1.320652 0.02477,0.04881 0.07005,0.0841 0.105082,0.126151 z" />
    <path
       style="fill:#83ff78;fill-opacity:0.522998;stroke:#000000;stroke-width:0;stroke-dasharray:none;stroke-opacity:1"
       id="path48"
       d="m 59.33464,44.262561 c -0.158552,0.08255 -0.357857,0.180332 -0.543407,0.149045 -0.04207,-0.0071 -0.08047,-0.02837 -0.12071,-0.04255 -0.634506,-0.694144 0.232198,0.27545 1.915623,1.029201 0.06705,0.03002 -0.0016,-0.152377 0.03105,-0.218181 0.08366,-0.168611 0.190688,-0.326575 0.311053,-0.471287 0.446796,-0.537167 0.738084,-0.726104 1.286335,-1.170561 1.079032,-0.782355 2.210438,-1.506212 3.42097,-2.068359 0.124531,-0.04661 0.248065,-0.09596 0.373591,-0.139819 0.440124,-0.153773 0.245383,-0.06253 0.681096,-0.233003 0.380722,-0.14896 0.751774,-0.322223 1.121344,-0.496374 1.05069,-0.455049 2.03771,-1.029499 3.004981,-1.638284 0.832014,-0.543878 1.669646,-1.079103 2.498141,-1.628355 0.112397,-0.06822 0.25659,-0.164435 0.383574,-0.211513 0.228081,-0.08455 0.481748,-0.08672 0.718693,-0.128185 0.09735,-0.01704 0.19354,-0.04011 0.290309,-0.06017 0.183949,-0.07707 0.387596,-0.138015 0.526872,-0.294945 0.295903,-0.333401 0.483706,-0.912116 0.644002,-1.320397 0,0 -2.00949,-1.123138 -2.00949,-1.123138 v 0 c -0.166968,0.40074 -0.317595,0.851437 -0.650091,1.15335 -0.142278,0.129188 -0.294249,0.159121 -0.469826,0.21794 -0.552532,0.09658 -1.006375,0.09317 -1.448679,0.486532 -0.767051,0.592952 -1.533496,1.189847 -2.362631,1.695543 -0.988375,0.589544 -2.006955,1.119481 -3.070598,1.561449 -0.375216,0.16356 -0.751144,0.322114 -1.134965,0.464664 -0.237341,0.08815 -0.441401,0.152114 -0.674925,0.250552 -0.123119,0.0519 -0.24315,0.110837 -0.364726,0.166256 -1.163045,0.632508 -2.231474,1.417844 -3.294295,2.203794 -0.530185,0.409625 -0.925385,0.694269 -1.412912,1.14944 -0.164457,0.153543 -0.333666,0.305901 -0.467971,0.486413 -0.674304,0.906288 1.222039,1.641081 2.113716,1.801974 0.278712,-0.0098 0.537956,-0.09059 0.781982,-0.22646 z" />
    <path
       style="fill:#000000;fill-opacity:0.229983;stroke:#000000;stroke-width:0;stroke-dasharray:none;stroke-opacity:1"
       d="m 23.91227,58.196269 c 0,0 -4.162722,5.589272 -4.65383,5.752975 -0.491108,0.163703 -2.794637,0.68989 -3.566378,0.619733 -0.771741,-0.07016 -3.975634,-0.397563 -5.028008,-0.654812 -1.0523737,-0.257247 -4.209495,-1.192689 -4.3965837,-1.753955 -0.1870887,-0.561266 0.023386,-4.65383 0.023386,-4.65383 0,0 5.3320277,-0.654812 6.0803827,-0.654812 0.748354,0 5.513384,0.06849 7.34323,0.187089 3.788545,0.245555 4.197802,1.157612 4.197801,1.157612 z"
       id="path50"
       sodipodi:nodetypes="csssscssc" />
  </g>
</svg>
