<?xml version="1.0" encoding="UTF-8" standalone="no"?>
<!-- Created with Inkscape (http://www.inkscape.org/) -->

<svg
   width="256"
   height="256"
   viewBox="0 0 67.733334 67.733334"
   version="1.1"
   id="svg1"
   xml:space="preserve"
   inkscape:version="1.3 (0e150ed6c4, 2023-07-21)"
   sodipodi:docname="Nightmare.svg"
   inkscape:export-filename="..\Assets\Sprites\Units\Nightmare.png"
   inkscape:export-xdpi="96"
   inkscape:export-ydpi="96"
   xmlns:inkscape="http://www.inkscape.org/namespaces/inkscape"
   xmlns:sodipodi="http://sodipodi.sourceforge.net/DTD/sodipodi-0.dtd"
   xmlns="http://www.w3.org/2000/svg"
   xmlns:svg="http://www.w3.org/2000/svg"><sodipodi:namedview
     id="namedview1"
     pagecolor="#505050"
     bordercolor="#ffffff"
     borderopacity="1"
     inkscape:showpageshadow="0"
     inkscape:pageopacity="0"
     inkscape:pagecheckerboard="1"
     inkscape:deskcolor="#505050"
     inkscape:document-units="px"
     inkscape:zoom="1"
     inkscape:cx="41.5"
     inkscape:cy="95.5"
     inkscape:window-width="1920"
     inkscape:window-height="1009"
     inkscape:window-x="-8"
     inkscape:window-y="-8"
     inkscape:window-maximized="1"
     inkscape:current-layer="layer1" /><defs
     id="defs1"><inkscape:path-effect
       effect="fillet_chamfer"
       id="path-effect3"
       is_visible="true"
       lpeversion="1"
       nodesatellites_param="F,0,0,1,0,8.9958333,0,1 @ F,0,0,1,0,8.9958333,0,1 @ F,0,0,1,0,8.9958333,0,1 @ F,0,0,1,0,8.9958333,0,1 @ F,0,0,1,0,8.9958333,0,1 @ F,0,0,1,0,8.9958333,0,1 @ F,0,0,1,0,8.9958333,0,1 @ F,0,0,1,0,8.9958333,0,1"
       radius="34"
       unit="px"
       method="auto"
       mode="F"
       chamfer_steps="1"
       flexible="false"
       use_knot_distance="true"
       apply_no_radius="true"
       apply_with_radius="true"
       only_selected="false"
       hide_knots="false" /></defs><g
     inkscape:label="Шар 1"
     inkscape:groupmode="layer"
     id="layer1"><path
       id="path3-8"
       style="fill:#501616;stroke-width:0.0678678"
       d="m 24.356458,6.0615616 a 10.049054,12.018409 0 0 0 -4.03198,8.4502124 10.049054,12.018409 0 0 0 6.905215,12.60245 z" /><path
       style="fill:#ff6600;fill-opacity:1;stroke-width:0.124164"
       d="m 35.039754,41.796696 c 0,0 -4.556267,-2.804404 -3.557003,-7.6505 0.999257,-4.846108 4.067895,-2.9269 6.800213,-7.322113 2.732321,-4.395226 2.730175,-4.893933 2.730175,-4.893933 0,0 -1.670449,6.913175 0.0039,8.096036 1.674386,1.18285 4.133004,-2.162727 4.832452,-4.845143 0.699444,-2.682416 -0.186409,-7.396263 -0.186409,-7.396263 0,0 5.240321,3.729599 4.736221,8.704529 -0.5041,4.974929 -1.053637,6.575504 -4.276823,11.839314 -3.223186,5.263821 -11.08277,3.468072 -11.08277,3.468072 z"
       id="path20" /><rect
       style="fill:#280b0b;stroke-width:0.0802628"
       id="rect5"
       width="58.137886"
       height="25.189663"
       x="23.586979"
       y="13.197681"
       ry="10.325492"
       transform="matrix(0.92120854,0.38906919,-0.3897677,0.92091321,0,0)" /><rect
       style="fill:#280b0b;stroke-width:0.0802628"
       id="rect5-4"
       width="58.094681"
       height="25.208397"
       x="-65.018486"
       y="23.202776"
       ry="10.333172"
       transform="matrix(0.38135006,-0.92443071,0.92471449,0.38066142,0,0)" /><path
       style="fill:#ff6600;fill-opacity:1;stroke-width:0.124164"
       d="m 31.082516,28.301268 c 0,0 -4.274565,-3.216831 -2.827218,-7.948676 1.447345,-4.731857 4.323414,-2.535011 7.454168,-6.656414 3.130751,-4.1214037 3.175178,-4.6181388 3.175178,-4.6181388 0,0 -2.308595,6.7273598 -0.751946,8.0611098 1.55665,1.33375 4.316895,-1.76809 5.263731,-4.373625 0.946835,-2.605537 0.504943,-7.3814046 0.504943,-7.3814046 0,0 4.869262,4.2017397 3.902888,9.1080056 -0.966373,4.906266 -1.662946,6.448647 -5.363524,11.389112 -3.700567,4.940466 -11.35822,2.420031 -11.35822,2.420031 z"
       id="path20-14" /><path
       style="fill:#ff6600;fill-opacity:1;stroke-width:0.124164"
       d="m 17.385717,31.237331 c 0,0 -5.342727,0.311195 -7.304963,-4.231769 -1.9622467,-4.542965 1.653543,-4.727607 1.370108,-9.893523 -0.283435,-5.165916 -0.571388,-5.573322 -0.571388,-5.573322 0,0 2.598507,6.621012 4.649291,6.631407 2.050781,0.01048 2.145432,-4.138748 1.179199,-6.737159 -0.966231,-2.598423 -4.397226,-5.9535592 -4.397226,-5.9535592 0,0 6.43418,0.05513 8.876084,4.4201592 2.441904,4.364971 2.910131,5.991112 3.289817,12.149821 0.379689,6.158709 -7.090922,9.187945 -7.090922,9.187945 z"
       id="path20-1" /><path
       style="fill:#ff6600;fill-opacity:1;stroke-width:0.124164"
       d="m 12.443365,34.53069 c 0,0 -4.6089723,2.717258 -8.4336175,-0.426573 -3.82465665,-3.14384 -0.6935627,-4.959701 -3.31037319,-9.42441 -2.61680921,-4.464719 -3.05938521,-4.695496 -3.05938521,-4.695496 0,0 5.3417396,4.701255 7.1703144,3.773718 1.8285735,-0.927523 0.013441,-4.660713 -2.0353028,-6.530175 -2.04874107,-1.869473 -6.6358558,-3.286035 -6.6358558,-3.286035 0,0 5.7473383,-2.890008 9.9170925,-0.12356 4.1697516,2.766443 5.3305376,3.998727 8.4874066,9.302388 3.156866,5.303661 -2.100279,11.410148 -2.100279,11.410148 z"
       id="path20-1-0" /><path
       style="fill:#ff6600;fill-opacity:1;stroke-width:0.124164"
       d="m 10.570066,40.323764 c 0,0 -3.1613462,4.313741 -7.9175844,2.932908 -4.7562496,-1.380832 -2.59670679,-4.2837 -6.7649917,-7.354365 -4.1682821,-3.070665 -4.6661107,-3.108228 -4.6661107,-3.108228 0,0 6.7654832,2.213735 8.07918811,0.6406 1.31370614,-1.573135 -1.82896831,-4.287694 -4.44998601,-5.197733 -2.6210191,-0.910028 -7.3954403,-0.403201 -7.3954403,-0.403201 0,0 4.139063,-4.92124 9.0632986,-4.023219 4.9242385,0.89802 6.4776447,1.572656 11.4735969,5.201261 4.9959475,3.628593 2.5780295,11.311977 2.5780295,11.311977 z"
       id="path20-1-0-8" /><path
       style="fill:#ff6600;fill-opacity:1;stroke-width:0.124164"
       d="m 7.3501644,49.676037 c 0,0 -3.1613458,4.31373 -7.91758395,2.932897 -4.75624965,-1.380832 -2.59670685,-4.283699 -6.76499105,-7.354365 -4.1682834,-3.070664 -4.6661104,-3.108228 -4.6661104,-3.108228 0,0 6.765481,2.213735 8.0791871,0.6406 1.3137062,-1.573136 -1.8289682,-4.287694 -4.449986,-5.197733 -2.6210191,-0.910027 -7.3954391,-0.403188 -7.3954391,-0.403188 0,0 4.139061,-4.921253 9.0632985,-4.023232 4.9242361,0.89802 6.47764358,1.572656 11.4735959,5.201261 4.9959471,3.628593 2.578029,11.311988 2.578029,11.311988 z"
       id="path20-1-0-8-8" /><path
       style="fill:#ff6600;fill-opacity:1;stroke-width:0.124164"
       d="m 3.6090818,57.772596 c 0,0 -3.1613458,4.31373 -7.917584,2.932897 -4.7562495,-1.38082 -2.5967077,-4.283687 -6.7649918,-7.354364 -4.168283,-3.070653 -4.666111,-3.108228 -4.666111,-3.108228 0,0 6.7654834,2.213735 8.0791888,0.640599 1.3137053,-1.573135 -1.8289679,-4.287694 -4.4499868,-5.197722 -2.621019,-0.910038 -7.39544,-0.403199 -7.39544,-0.403199 0,0 4.139063,-4.921253 9.063299,-4.023232 4.9242383,0.89802 6.4776445,1.572656 11.4735955,5.201261 4.9959471,3.628604 2.5780303,11.311988 2.5780303,11.311988 z"
       id="path20-1-0-8-8-8" /><path
       style="fill:#ff6600;fill-opacity:1;stroke-width:0.124164"
       d="m 27.953649,27.712271 c 0,0 -5.342726,0.311196 -7.304964,-4.231769 -1.962244,-4.542965 1.653546,-4.727605 1.370111,-9.893523 -0.283437,-5.1659162 -0.57139,-5.5733215 -0.57139,-5.5733215 0,0 2.598507,6.6210125 4.64929,6.6314075 2.050782,0.01048 2.145434,-4.138749 1.179199,-6.7371601 C 26.309665,5.3094829 22.87867,1.954347 22.87867,1.954347 c 0,0 6.434182,0.05513 8.876085,4.4201595 2.441901,4.3649705 2.910128,5.9911105 3.289816,12.1498195 0.379689,6.158711 -7.090922,9.187945 -7.090922,9.187945 z"
       id="path20-1-6" /><path
       id="path3"
       style="fill:#501616;stroke-width:0.0802628;fill-opacity:1"
       d="M 21.667489,7.0631425 A 13.003622,12.989883 0 0 0 16.450047,16.196401 13.003622,12.989883 0 0 0 25.385496,29.81754 Z" /><ellipse
       style="fill:#ff0000;stroke-width:0.0802628"
       id="path5"
       cx="30.390621"
       cy="34.369415"
       rx="3.0663562"
       ry="3.0631163" /><ellipse
       style="fill:#aa0000;stroke-width:0.0802628"
       id="path6"
       cx="74.433228"
       cy="28.829697"
       rx="0.96524531"
       ry="1.6451588"
       transform="matrix(0.95542461,0.29523518,-0.29580545,0.95524821,0,0)" /><path
       d="m 64.198768,57.928434 -17.946022,-7.06111 c -0.17572,-0.06915 -0.360685,-0.123254 -0.552098,-0.163115 -0.191414,-0.03982 -0.389193,-0.0654 -0.590369,-0.07721 -0.201181,-0.01176 -0.405902,-0.0093 -0.610918,0.0059 -0.205016,0.01506 -0.410345,0.04334 -0.613268,0.08409 -0.202921,0.04077 -0.40331,0.09414 -0.598208,0.159505 -0.194905,0.06529 -0.384326,0.142486 -0.565274,0.231104 -0.18095,0.08866 -0.353541,0.188682 -0.514616,0.29941 -0.161067,0.110732 -0.310652,0.232155 -0.445912,0.363814 -0.135263,0.131671 -0.249493,0.26715 -0.343182,0.404393 -0.09369,0.137242 -0.166849,0.276201 -0.219738,0.415208 -0.05289,0.138994 -0.08564,0.277952 -0.09849,0.414891 -0.01288,0.136927 -0.0059,0.27195 0.02054,0.402979 0.0264,0.131028 0.0722,0.258027 0.137084,0.379314 0.06488,0.121312 0.148978,0.236804 0.251582,0.344555 0.102595,0.107692 0.223865,0.207801 0.363412,0.298159 0.139548,0.09029 0.297329,0.171045 0.473049,0.240181 l 18.528551,7.290194 c 0.137747,-0.09917 0.279779,-0.191813 0.412817,-0.298009 0.260266,-0.207768 0.511208,-0.428885 0.751763,-0.662758 0.240556,-0.233873 0.470731,-0.480453 0.689339,-0.739532 0.218607,-0.259078 0.42559,-0.530584 0.620013,-0.813957 0.194426,-0.283374 0.376254,-0.578637 0.544257,-0.885394 0.111282,-0.203189 0.20682,-0.418933 0.305696,-0.632051 z"
       style="fill:#550000;stroke-width:0.0516013"
       id="path7" /><path
       sodipodi:type="star"
       style="fill:#ffcc00;stroke-width:0.264583"
       id="path8"
       inkscape:flatsided="false"
       sodipodi:sides="3"
       sodipodi:cx="190.45627"
       sodipodi:cy="87.183319"
       sodipodi:r1="22.463108"
       sodipodi:r2="1.9637372"
       sodipodi:arg1="2.6183143"
       sodipodi:arg2="-2.0196336"
       inkscape:rounded="0"
       inkscape:randomized="0"
       d="m 170.99905,98.408639 18.60512,-12.994553 0.8593,-20.693874 1.95105,22.609782 17.49177,11.091112 -20.55617,-9.615229 z"
       inkscape:transform-center-x="-0.093888123"
       inkscape:transform-center-y="0.34793452"
       transform="matrix(0.12545918,0,0,0.13249766,6.5522762,22.580566)" /><path
       sodipodi:type="star"
       style="fill:#ffcc00;stroke-width:0.264583"
       id="path9"
       inkscape:flatsided="false"
       sodipodi:sides="3"
       sodipodi:cx="221.13881"
       sodipodi:cy="84.938255"
       sodipodi:r1="12.370509"
       sodipodi:r2="2.7572303"
       sodipodi:arg1="1.5102643"
       sodipodi:arg2="2.5574618"
       inkscape:rounded="0"
       inkscape:randomized="0"
       d="m 221.88716,97.286108 -3.04841,-10.82731 -8.76767,-7.046375 10.90093,2.773652 10.48618,-4.06984 -7.85252,8.053658 z"
       inkscape:transform-center-x="1.2376348"
       inkscape:transform-center-y="-0.79782031"
       transform="matrix(0.24907061,0,0,0.25088624,-24.729009,13.023609)" /><path
       d="m 44.56081,50.488301 0.476498,2.325773 1.926857,-1.706734 -0.94437,-0.371641 c -0.08786,-0.03457 -0.178116,-0.0654 -0.270246,-0.09263 -0.09213,-0.02721 -0.186145,-0.05058 -0.281857,-0.07055 -0.09571,-0.01997 -0.193053,-0.03632 -0.291574,-0.04918 -0.09852,-0.01285 -0.1982,-0.02219 -0.298791,-0.02803 -0.100588,-0.0059 -0.202014,-0.0082 -0.30397,-0.007 -0.0042,3.4e-5 -0.0084,3.04e-4 -0.01252,7.36e-4 z"
       style="fill:#280b0b;stroke-width:0.0802628"
       id="path11" /><path
       d="m 47.084936,51.15482 0.497048,2.42635 1.743812,-1.544706 z"
       style="fill:#280b0b;stroke-width:0.0802628"
       id="path12" /><path
       d="m 51.502665,52.893032 -2.045589,-0.804871 0.453756,2.214998 z"
       style="fill:#280b0b;stroke-width:0.0802628"
       id="path13" /><path
       d="m 53.568487,53.705891 -1.913995,-0.753162 0.424581,2.072406 z"
       style="fill:#280b0b;stroke-width:0.0802628"
       id="path14" /><path
       d="m 54.322442,54.002486 0.406706,1.985295 1.426829,-1.263937 z"
       style="fill:#280b0b;stroke-width:0.0802628"
       id="path15" /><path
       d="m 58.917252,55.810429 -1.770167,-0.696455 0.392747,1.916673 z"
       style="fill:#280b0b;stroke-width:0.0802628"
       id="path16" /><path
       d="m 59.727677,56.129262 0.381921,1.864032 1.339623,-1.186696 z"
       style="fill:#280b0b;stroke-width:0.0802628"
       id="path17" /><path
       d="M 63.737295,57.706884 62.274548,57.1314 62.599059,58.715282 Z"
       style="fill:#280b0b;stroke-width:0.0802628"
       id="path18" /><path
       d="m 61.024517,61.915152 -0.53653,-2.312689 -1.882046,1.755918 0.953674,0.347124 c 0.08872,0.03223 0.179747,0.06085 0.272552,0.08561 0.0928,0.02476 0.187392,0.04579 0.283584,0.06319 0.09619,0.01752 0.193937,0.0313 0.292749,0.0417 0.09881,0.01048 0.198711,0.01706 0.299424,0.02033 0.100703,0.0035 0.202159,0.0035 0.304059,-3.04e-4 0.0041,-1.4e-4 0.0084,-7.36e-4 0.01252,-7.36e-4 z"
       style="fill:#280b0b;stroke-width:0.0802628"
       id="path11-1" /><path
       d="m 58.483984,61.314032 -0.559673,-2.412708 -1.703254,1.589231 z"
       style="fill:#280b0b;stroke-width:0.0802628"
       id="path12-2" /><path
       d="m 54.022748,59.690484 2.065738,0.751772 -0.510927,-2.202534 z"
       style="fill:#280b0b;stroke-width:0.0802628"
       id="path13-4" /><path
       d="m 51.936582,58.931248 1.932847,0.703475 -0.478071,-2.060748 z"
       style="fill:#280b0b;stroke-width:0.0802628"
       id="path14-0" /><path
       d="m 51.175199,58.654217 -0.457938,-1.974128 -1.393644,1.300356 z"
       style="fill:#280b0b;stroke-width:0.0802628"
       id="path15-2" /><path
       d="m 46.535146,56.965541 1.787594,0.650505 -0.442214,-1.905892 z"
       style="fill:#280b0b;stroke-width:0.0802628"
       id="path16-4" /><path
       d="M 45.716738,56.667732 45.286709,54.81419 43.978241,56.035085 Z"
       style="fill:#280b0b;stroke-width:0.0802628"
       id="path17-1" /><path
       d="m 41.667635,55.194193 1.477152,0.537511 -0.365393,-1.574969 z"
       style="fill:#280b0b;stroke-width:0.0802628"
       id="path18-4" /><path
       d="m 45.938182,34.572594 c 0.07284,-0.184496 0.130293,-0.326741 0.222799,-0.565435 2.088545,-5.484038 4.167282,-10.971733 6.242885,-16.460325 2.075603,-5.488592 4.148136,-10.9780168 6.224423,-16.4663417 L 33.913465,30.266868 a 19.446877,19.116146 82.84885 0 0 1.303814,1.03117 19.446877,19.116146 82.84885 0 0 2.373874,1.378151 19.446877,19.116146 82.84885 0 0 2.540555,1.021313 19.446877,19.116146 82.84885 0 0 2.656271,0.644306 19.446877,19.116146 82.84885 0 0 2.717624,0.253288 19.446877,19.116146 82.84885 0 0 0.432578,-0.0225 z"
       style="fill:#280b0b;fill-opacity:1;stroke-width:0.330311"
       id="path23" /></g></svg>
