<?xml version="1.0" encoding="UTF-8" standalone="no"?>
<!-- Created with Inkscape (http://www.inkscape.org/) -->

<svg
   width="200"
   height="200"
   viewBox="0 0 52.916665 52.916666"
   version="1.1"
   id="svg1"
   inkscape:version="1.3 (0e150ed6c4, 2023-07-21)"
   sodipodi:docname="RangedImp.svg"
   inkscape:export-filename="..\Assets\Sprites\Units\Summons\MeleeImp.png"
   inkscape:export-xdpi="96"
   inkscape:export-ydpi="96"
   xmlns:inkscape="http://www.inkscape.org/namespaces/inkscape"
   xmlns:sodipodi="http://sodipodi.sourceforge.net/DTD/sodipodi-0.dtd"
   xmlns="http://www.w3.org/2000/svg"
   xmlns:svg="http://www.w3.org/2000/svg">
  <sodipodi:namedview
     id="namedview1"
     pagecolor="#505050"
     bordercolor="#ffffff"
     borderopacity="1"
     inkscape:showpageshadow="0"
     inkscape:pageopacity="0"
     inkscape:pagecheckerboard="1"
     inkscape:deskcolor="#505050"
     inkscape:document-units="mm"
     inkscape:zoom="2.1442755"
     inkscape:cx="31.945522"
     inkscape:cy="55.729779"
     inkscape:window-width="1920"
     inkscape:window-height="1009"
     inkscape:window-x="-8"
     inkscape:window-y="-8"
     inkscape:window-maximized="1"
     inkscape:current-layer="layer1" />
  <defs
     id="defs1" />
  <g
     inkscape:label="Шар 1"
     inkscape:groupmode="layer"
     id="layer1">
    <path
       style="fill:#1c6100;fill-opacity:1;stroke:#000000;stroke-width:0"
       d="m 17.762261,26.714981 c 1.984551,1.945449 11.904338,6.068139 13.369876,6.012597 1.465537,-0.05554 1.761701,-0.0774 1.850257,-0.899658 0.08855,-0.822252 -11.339507,-5.504615 -12.026476,-5.638106 -0.686966,-0.133492 -2.076171,-0.346719 -3.193657,0.525167 z"
       id="path9-9" />
    <path
       style="fill:#ffd010;fill-opacity:1;stroke:#000000;stroke-width:0"
       d="M 37.658252,30.995859 17.16965,30.681457 c -0.847715,-0.01294 -0.863282,0.912413 -0.02691,0.939827 l 20.510487,0.672276 -0.0034,1.24867 5.234878,0.117355 -3.872641,-0.691606 0.01165,-0.887322 3.902259,-0.263917 -3.885272,-0.438491 0.01418,-0.632193 3.754431,-0.675118 -5.127877,-0.114956 z"
       id="path10-3"
       sodipodi:nodetypes="cssccccccccccc" />
    <path
       style="fill:#8ecb24;fill-opacity:1;stroke:#000000;stroke-width:0"
       d="M 21.393582,9.1900481 C 18.953317,8.213941 13.682343,3.6750491 13.682343,3.6750491 L 11.046858,16.559648 c 0,0 8.443316,-2.342655 9.907475,-2.245044 1.464159,0.09761 1.708187,-4.3924772 0.439249,-5.1245559 z"
       id="path8-2" />
    <path
       style="fill:#165100;fill-opacity:1;stroke:#000000;stroke-width:0"
       d="m 37.278865,8.866264 c 3.695582,0.7990456 7.890569,5.493435 7.890569,5.493435 0,0 -3.895344,0.29964 -6.092717,1.498209 -2.197376,1.198567 -3.196181,2.097492 -2.297254,2.696776 0.898924,0.599283 8.989256,-2.197374 8.989256,-0.898925 0,1.298447 -1.09869,7.491044 -6.692002,8.19021 -5.593314,0.699163 -11.086749,-0.09988 -13.284122,-1.198568 -2.197374,-1.098685 -2.397135,-3.49582 -3.196181,-3.595703 -0.799044,-0.09988 -0.499401,3.895343 0.699165,4.694389 1.198567,0.799045 3.895345,2.297258 5.393554,4.494628 1.49821,2.197374 2.696776,3.795464 1.79785,6.492241 -0.898925,2.696776 -2.896538,5.193792 -4.694388,5.193792 -1.797852,0 -2.297255,-1.797851 -3.595702,-2.197374 -1.298449,-0.399522 -2.497015,-1.498208 -3.395941,-0.599284 -0.898927,0.898925 3.695583,8.29009 3.395941,9.588539 -0.299643,1.298448 -1.697971,2.297255 -2.497015,1.997614 C 18.900832,50.4166 17.402623,40.82806 16.303937,40.52842 c -1.098687,-0.299644 -1.398329,0.399523 -1.598091,1.098685 -0.199761,0.699167 0.599284,9.58854 -0.499402,10.187823 -1.098687,0.599285 -2.397136,1.797852 -3.296061,0.599285 -0.898925,-1.198568 1.498208,-13.783527 2.397133,-15.381615 0.898928,-1.598089 3.395942,-5.892955 3.495822,-8.290092 0.09988,-2.397134 0.499405,-7.590925 -0.699163,-8.589732 -1.198567,-0.998807 -3.096299,-4.894151 -2.097494,-6.891763 0.998808,-1.997612 4.194987,-5.0939113 6.39236,-5.3935533 2.197373,-0.2996408 6.29248,-1.3983288 9.288898,-0.9988051 2.996418,0.3995223 7.590926,1.9976114 7.590926,1.9976114 z"
       id="path1" />
    <path
       style="fill:#165100;fill-opacity:1;stroke:#000000;stroke-width:0"
       d="m 36.588761,8.95474 c 0,0 2.048161,-2.2247269 2.930991,-2.6484843 0.882828,-0.4237575 2.61317,-0.7415756 3.813815,-0.7415756 1.20065,0 2.401295,0.7768886 3.001617,1.3418984 0.600323,0.565011 1.130018,1.2006468 0.741576,1.3418998 C 46.688317,8.3897302 46.123304,7.224397 45.38173,6.9772056 44.640153,6.7300131 43.474821,6.1650033 42.380114,6.4475084 41.285406,6.7300131 40.932276,6.6947007 39.943508,7.2950229 38.954742,7.8953463 37.82472,9.0606797 37.506903,9.2372452 37.189083,9.4138114 36.588761,8.95474 36.588761,8.95474 Z"
       id="path2" />
    <circle
       style="fill:#ffffff;fill-opacity:1;stroke:#000000;stroke-width:0"
       id="path3"
       cx="47.165043"
       cy="8.0542564"
       r="1.1476768" />
    <path
       style="fill:#c6c6c6;fill-opacity:1;stroke:#000000;stroke-width:0"
       d="m 35.20552,8.5773518 c 1.306586,0.141253 2.012849,-3.7431914 1.800973,-4.5907074 -0.21188,-0.8475148 -0.670951,-1.9775349 -1.412526,-2.5425448 -0.741576,-0.56501 -3.496001,-1.34189886 -3.496001,-1.34189886 0,0 1.659716,1.41252476 1.90691,1.76565616 0.247192,0.3531313 0.635634,1.4125256 0.600322,1.8715962 -0.03531,0.4590703 -0.03531,0.4590703 -0.03531,0.4590703 0,0 -1.02408,1.4831517 -1.306586,2.2247269 -0.282502,0.7415769 -0.282502,1.3772126 0.07062,1.624404 0.353131,0.2471925 0.988767,0.706263 1.871594,0.5296975 z"
       id="path4-3" />
    <path
       style="fill:#ffffff;fill-opacity:1;stroke:#000000;stroke-width:0"
       d="m 33.55183,9.4844372 c 1.306586,0.1412536 2.012848,-3.7431915 1.800973,-4.5907066 -0.211881,-0.8475151 -0.67095,-1.9775355 -1.412526,-2.5425452 -0.741576,-0.5650102 -3.496,-1.341899 -3.496,-1.341899 0,0 1.659714,1.4125249 1.906908,1.7656563 0.247193,0.3531312 0.635636,1.4125252 0.600322,1.8715961 -0.03531,0.4590705 -0.03531,0.4590705 -0.03531,0.4590705 0,0 -1.024079,1.4831515 -1.306586,2.2247272 -0.282501,0.7415763 -0.282501,1.3772121 0.07063,1.6244035 0.353132,0.2471929 0.988769,0.7062632 1.871594,0.5296972 z"
       id="path4" />
    <path
       style="fill:#b6f09c;fill-opacity:1;stroke:#000000;stroke-width:0"
       d="m 45.156949,14.347212 c 0.524371,-0.01248 0.549341,0.124852 0.499403,0.249703 -0.04995,0.124851 -0.848987,0.212246 -1.236022,0.274672 -0.38704,0.06243 -1.960156,0.299641 -2.347195,0.399521 -0.387037,0.09988 -2.434591,0.78656 -3.008903,1.023777 -0.574316,0.237217 -2.472045,1.585604 -2.297254,1.822821 0.174789,0.237216 2.272284,-0.06242 2.584408,-0.162306 0.31213,-0.09988 2.571927,-0.611768 2.933996,-0.699164 0.362065,-0.08739 1.772879,-0.337098 2.222344,-0.362068 0.449462,-0.02497 1.0862,-0.04994 1.273477,0.08739 0.187276,0.137336 0.337095,0.06242 0.312124,0.312128 -0.02496,0.2497 -1.648029,0.224731 -1.972639,0.312126 -0.324613,0.08739 -2.546958,0.574314 -3.008904,0.661708 -0.461948,0.08739 -2.659321,0.499404 -2.996421,0.51189 -0.337095,0.01248 -1.797851,0 -1.985124,-0.324612 -0.187277,-0.324612 -0.0749,-0.873955 0.11237,-1.086202 0.187276,-0.212246 1.435783,-1.248507 1.935189,-1.473241 0.499402,-0.22473 1.860275,-0.774072 2.322223,-0.898923 0.461947,-0.124852 1.398328,-0.461949 2.060037,-0.561829 0.661708,-0.09988 1.772882,-0.249702 2.010098,-0.249702 0.237216,0 0.586798,0.162307 0.586798,0.162307 z"
       id="path5" />
    <circle
       style="fill:#b2e039;fill-opacity:1;stroke:#000000;stroke-width:0"
       id="path6"
       cx="35.441078"
       cy="11.620882"
       r="0.86517167" />
    <ellipse
       style="fill:#b2e039;fill-opacity:1;stroke:#000000;stroke-width:0"
       id="path7"
       cx="43.275948"
       cy="21.940285"
       rx="0.20305049"
       ry="0.40610099"
       transform="rotate(27.795094)" />
    <path
       style="fill:#8ecb24;fill-opacity:1;stroke:#000000;stroke-width:0"
       d="M 19.999518,10.214653 C 17.502502,9.2158463 12.10895,4.5713975 12.10895,4.5713975 L 9.4121732,17.75564 c 0,0 8.6396728,-2.397137 10.1378808,-2.297255 1.498212,0.09988 1.747912,-4.494628 0.449464,-5.243732 z"
       id="path8" />
    <path
       style="fill:#165100;fill-opacity:1;stroke:#000000;stroke-width:0"
       d="m 23.027761,25.510996 c 0,0 -0.663224,-1.079668 -0.956277,-1.311025 -0.293052,-0.231357 -3.377816,5.737662 -3.377816,5.737662 l 0.6478,0.956275 z"
       id="path11" />
    <path
       style="fill:#ffd010;fill-opacity:1;stroke:#000000;stroke-width:0"
       d="M 31.734714,15.622359 11.352576,13.512827 c -0.843317,-0.08721 -0.939953,0.833211 -0.109204,0.933848 l 20.372561,2.467947 -0.112862,1.243563 5.20443,0.575872 -3.797091,-1.028476 0.0894,-0.882884 3.91037,0.07923 -3.831865,-0.777444 0.06955,-0.628516 3.799164,-0.343347 -5.098051,-0.564102 z"
       id="path10"
       sodipodi:nodetypes="cssccccccccccc" />
    <path
       style="fill:#1d6900;fill-opacity:1;stroke:#000000;stroke-width:0"
       d="m 18.51994,30.457687 c 2.254796,-2.154166 7.39617,-13.00406 7.428532,-14.616773 0.03236,-1.612713 0.02727,-1.938774 -0.866808,-2.04825 -0.89407,-0.109475 -6.743676,12.391099 -6.933397,13.14471 -0.189715,0.753616 -0.511315,2.278422 0.371673,3.520313 z"
       id="path9" />
  </g>
</svg>
