<?xml version="1.0" encoding="UTF-8" standalone="no"?>
<!-- Created with Inkscape (http://www.inkscape.org/) -->

<svg
   version="1.1"
   id="svg1"
   width="512"
   height="512"
   viewBox="0 0 512 512"
   sodipodi:docname="Raptor.svg"
   inkscape:version="1.3 (0e150ed6c4, 2023-07-21)"
   inkscape:export-filename="..\Assets\Sprites\Units\Raptor.png"
   inkscape:export-xdpi="96"
   inkscape:export-ydpi="96"
   xmlns:inkscape="http://www.inkscape.org/namespaces/inkscape"
   xmlns:sodipodi="http://sodipodi.sourceforge.net/DTD/sodipodi-0.dtd"
   xmlns="http://www.w3.org/2000/svg"
   xmlns:svg="http://www.w3.org/2000/svg">
  <defs
     id="defs1" />
  <sodipodi:namedview
     id="namedview1"
     pagecolor="#505050"
     bordercolor="#ffffff"
     borderopacity="1"
     inkscape:showpageshadow="0"
     inkscape:pageopacity="0"
     inkscape:pagecheckerboard="1"
     inkscape:deskcolor="#505050"
     inkscape:export-bgcolor="#1200eb00"
     inkscape:zoom="0.83105469"
     inkscape:cx="6.6180964"
     inkscape:cy="277.3584"
     inkscape:window-width="1920"
     inkscape:window-height="1009"
     inkscape:window-x="-8"
     inkscape:window-y="-8"
     inkscape:window-maximized="1"
     inkscape:current-layer="g1" />
  <g
     inkscape:groupmode="layer"
     inkscape:label="Image"
     id="g1">
    <path
       style="fill:#dedede;fill-opacity:1;stroke:#000000;stroke-width:0;stroke-dasharray:none"
       d="m 492.0447,117.58817 -3.17178,12.29065 -4.75767,-11.49768 -4.06385,10.80386 -3.37,-10.11008 -3.46917,9.71362 -3.2709,-9.51535 -4.4603,10.01092 -3.0727,-9.61447 -4.702,9.51707 -3.22398,-9.67202 c 0,0 10.09256,-10.9336 17.52179,-11.07379 7.42923,-0.14024 20.04056,9.14727 20.04056,9.14727 z"
       id="path6" />
    <path
       style="fill:#dedede;fill-opacity:1;stroke:#000000;stroke-width:0;stroke-dasharray:none"
       d="m 453.77478,116.57936 -4.84575,11.73196 -3.11704,-12.04641 -5.523,10.13581 -1.93523,-10.47976 -4.78285,9.13859 -1.91958,-9.87704 -5.80564,9.29556 -1.70954,-9.94771 -5.97651,8.77295 -1.85138,-10.02568 c 0,0 11.51143,-9.42817 18.88831,-8.53662 7.37688,0.8915 18.57821,11.83835 18.57821,11.83835 z"
       id="path6-9" />
    <path
       style="fill:#dedede;fill-opacity:1;stroke:#000000;stroke-width:0;stroke-dasharray:none"
       d="m 416.11153,112.9639 -5.77645,11.30278 -2.13502,-12.25861 -6.32272,9.65719 -1.08345,-10.60172 -5.50453,8.72293 -1.11648,-9.99971 -6.53665,8.79689 -0.90142,-10.05321 -6.6648,8.26219 -1.0365,-10.14236 c 0,0 12.23453,-8.468735 19.51544,-6.98495 7.28091,1.48373 17.56258,13.29858 17.56258,13.29858 z"
       id="path6-9-8" />
    <path
       style="fill:#dedede;fill-opacity:1;stroke:#000000;stroke-width:0;stroke-dasharray:none"
       d="m 378.73774,104.74598 -5.26088,11.55177 -2.68564,-12.14987 -5.88081,9.93248 -1.56042,-10.54207 -5.10558,8.96227 -1.56627,-9.93919 -6.13331,9.0827 -1.35384,-10.00233 -6.28545,8.55433 -1.4928,-10.08531 c 0,0 11.84019,-9.01182 19.18061,-7.857864 7.34041,1.153897 18.14439,12.493084 18.14439,12.493084 z"
       id="path6-9-8-6" />
    <path
       style="fill:#ffffff;fill-opacity:1;stroke:#000000;stroke-width:0;stroke-dasharray:none"
       d="m 344.27165,136.56251 1.29029,-12.62756 6.43018,10.65293 2.39551,-11.29159 4.84988,9.48943 1.97128,-10.12441 4.6626,8.91632 2.90653,-10.56717 4.48153,9.04408 3.21964,-10.1152 4.63975,9.07825 c 0,0 -8.33638,12.32511 -15.66033,13.57926 -7.32394,1.25419 -21.18686,-6.03434 -21.18686,-6.03434 z"
       id="path6-2" />
    <path
       style="fill:#ffffff;fill-opacity:1;stroke:#000000;stroke-width:0;stroke-dasharray:none"
       d="m 382.25915,131.8134 3.02917,-12.32657 4.89055,11.44179 3.93842,-10.85021 3.48689,10.07035 3.35641,-9.75315 3.38092,9.47682 4.34403,-10.06192 3.18387,9.57822 4.59143,-9.5709 3.33581,9.63402 c 0,0 -9.96521,11.04979 -17.39232,11.27604 -7.42711,0.22629 -20.14518,-8.91449 -20.14518,-8.91449 z"
       id="path6-9-0" />
    <path
       style="fill:#ffffff;fill-opacity:1;stroke:#000000;stroke-width:0;stroke-dasharray:none"
       d="m 420.03826,129.73248 4.01377,-12.042 3.95153,11.79903 4.80095,-10.4971 2.66307,10.31883 4.13233,-9.45057 2.60533,9.71869 5.14163,-9.67867 2.40076,9.80388 5.34861,-9.16929 2.5477,9.87174 c 0,0 -10.82419,10.20981 -18.24534,9.83612 -7.42115,-0.37363 -19.36034,-10.51066 -19.36034,-10.51066 z"
       id="path6-9-8-0" />
    <path
       style="fill:#ffffff;fill-opacity:1;stroke:#000000;stroke-width:0;stroke-dasharray:none"
       d="m 458.22229,132.2453 3.46666,-12.21075 4.47958,11.60885 4.3227,-10.70291 3.1257,10.18824 3.70194,-9.6273 3.04095,9.59132 4.69994,-9.90069 2.84041,9.68564 4.9297,-9.40114 2.99025,9.74681 c 0,0 -10.35277,10.68753 -17.78323,10.64887 -7.43045,-0.0386 -19.8146,-9.62694 -19.8146,-9.62694 z"
       id="path6-9-8-6-8" />
    <g
       id="g6"
       transform="matrix(0.95347186,0,0,0.95347186,27.384523,7.9045397)">
      <path
         style="display:inline;fill:#506800;fill-opacity:1;stroke:#000000;stroke-width:0"
         d="m -152.29758,295.23004 c 0,0 25.01195,-4.44657 60.584485,-18.89792 35.572541,-14.45134 78.926578,-22.23284 78.926578,-22.23284 0,0 77.814933,-13.89552 110.608363,4.44657 32.793434,18.34209 54.470454,-41.13075 53.358804,-63.36359 -1.11164,-22.23283 -17.78626,-86.15224 3.33493,-116.166573 21.1212,-30.01433 41.13075,-57.805377 82.2615,-64.475228 41.13075,-6.6698514 39.20135,4.784275 50.37646,-2.40658 L 302.78938,2.0726713 c 0,0 11.54517,-1.87044796 17.16337,-1.55130861 7.98592,0.45363629 16.23483,7.26308451 21.51245,7.58788151 24.25802,1.4928954 30.25192,2.6696508 40.52066,8.1613178 26.30327,14.066846 46.37692,23.581484 55.02347,28.690807 8.64653,5.109321 51.87927,26.725683 55.41649,47.555995 3.53721,20.830316 6.74975,23.060596 0,24.367536 -33.74256,6.53351 -169.64055,-13.17835 -170.05742,-10.12133 -0.41686,3.05701 65.92314,18.08594 67.93799,19.1281 2.01484,1.04217 98.46601,-0.11755 100.13347,2.24469 1.66746,2.36225 7.50358,8.47628 1.66746,17.92523 -5.83611,9.44896 -22.78866,14.45134 -28.69425,16.25776 -5.9056,1.80642 -61.83509,-0.76425 -73.50732,2.01486 -11.67224,2.77909 -15.28508,3.05701 -22.23284,7.78149 -31.62006,21.50158 -12.48132,5.83708 -42.80415,28.07785 -9.56318,7.01427 -16.11287,11.10752 -20.00361,15.27618 -3.89076,4.16866 -13.33971,12.50597 -15.56299,23.06657 -4.39793,17.24679 -7.5769,42.96124 -15.00717,59.19493 -4.44657,8.33731 -32.01227,42.91691 -34.46089,46.96687 -5.06023,8.3695 -2.31019,4.78916 -8.33731,13.3397 -2.33131,3.30737 -13.89554,22.51074 -14.72927,30.57015 -0.83373,8.05941 -2.50119,33.62716 -6.11403,41.13074 -3.61283,7.50359 -19.17581,34.183 -23.62238,38.62956 -4.44657,4.44657 -10.00478,6.11404 -4.72448,7.22568 5.2803,1.11163 24.73403,-11.11643 29.73642,-13.06179 5.00238,-1.94538 7.22566,1.94536 11.67223,1.38955 4.44657,-0.55582 5.0024,0.55581 6.39195,-1.94538 1.38956,-2.50119 0.83373,-5.00239 4.72448,-2.77911 3.89074,2.22329 14.72924,15.28509 16.39672,22.23285 1.66746,6.94776 -6.11403,20.00955 -6.39195,27.23522 -0.27791,7.22567 0.55582,36.12836 -2.7791,42.2424 -3.33493,6.11403 -2.77911,7.78149 -6.66985,8.89312 -3.89074,1.11165 -6.11403,2.50121 -8.05941,6.66986 -1.94538,4.16866 -0.55582,13.06179 -5.2803,16.39672 -4.72447,3.33492 -14.17343,9.44895 -19.45373,15.28507 -5.2803,5.83613 -8.33732,11.11642 -11.39433,16.67463 -3.05702,5.5582 -5.2803,4.16866 -8.33732,7.78149 -3.05701,3.61284 -3.61282,11.11642 -5.83611,14.17344 -2.22328,3.05701 -25.84568,26.12359 -41.96448,26.6794 -16.11881,0.55582 -28.34687,-17.50836 -30.84807,-23.34448 -2.50119,-5.83611 1.94538,-6.39194 4.72449,-4.16865 2.77909,2.22328 13.61761,11.95015 19.45372,11.39432 5.83613,-0.55582 11.39433,-1.66746 12.22806,-5.00239 0.83374,-3.33492 -0.55581,-11.11641 -3.61283,-12.78387 -3.05701,-1.66747 7.22567,-7.50358 5.2803,-10.00479 -1.94537,-2.50119 -12.50597,-2.22328 -16.95254,-6.66985 -4.44657,-4.44656 -11.39433,-15.00715 -8.89314,-20.84328 2.5012,-5.83612 8.05941,8.61522 13.33971,9.72687 5.2803,1.11164 10.28269,6.94776 11.67224,2.22329 1.38955,-4.72449 0.27791,-14.72927 5.2803,-20.00957 5.00238,-5.28029 -2.5012,-1.38955 -2.5012,-6.39193 0,-5.00239 -1.38955,-16.67463 1.11165,-19.45374 2.50119,-2.77911 5.00238,-5.00239 6.94776,-1.11163 1.94536,3.89074 -0.83373,15.84089 2.50119,18.06418 3.33493,2.22327 15.00717,-5.00239 15.8409,-9.44896 0.83373,-4.44657 -0.27791,-14.72925 2.50119,-16.95254 2.7791,-2.22328 12.78388,-5.55821 13.0618,-8.89313 0.2779,-3.33494 -1.66748,-6.94776 0.2779,-9.44897 1.94538,-2.50119 6.94776,-8.61522 4.16867,-9.72685 -2.77911,-1.11165 -38.35165,19.45372 -47.80061,21.67701 -9.44895,2.22328 -23.62239,6.11402 -39.74119,4.44656 -16.118808,-1.66746 -31.681799,-4.72447 -34.738814,-7.78148 -3.057015,-3.05702 -3.890745,-5.2803 -7.225678,-5.55822 -3.33492,-0.27791 -16.952533,12.22807 -29.736416,13.3397 -12.783883,1.11165 -38.6295544,7.78149 -51.413437,15.00717 -12.783881,7.22567 -33.071344,16.1188 -36.684181,20.00955 -3.612835,3.89074 -1.389552,21.39912 -1.667463,26.4015 -0.277909,5.00239 -1.389552,30.84806 -3.612835,37.79582 -2.223284,6.94776 -9.448956,20.56537 -11.67224,23.06658 -2.223284,2.50119 -79.664936,0 -79.664936,0 z"
         id="path1"
         sodipodi:nodetypes="cscssssscsssssssssssssssssssssssssssssssssssssssssssssssssssssssssssssssssssscc" />
      <path
         style="display:inline;fill:#d3c13d;fill-opacity:1;stroke:#000000;stroke-width:0"
         d="m 299.8761,27.13438 c 9.14495,-10.803009 28.29756,-3.032423 33.81901,0.568579 5.52149,3.601007 15.18408,9.85538 13.97627,19.52123 -1.20784,9.665852 -1.03527,12.50875 -10.52532,14.024961 -9.49003,1.516213 -21.91336,-1.705739 -28.81522,-7.960114 -6.90184,-6.254373 -11.56057,-8.149639 -11.56057,-14.024959 0,-5.875321 3.10583,-12.129697 3.10583,-12.129697 z"
         id="path3" />
      <path
         style="fill:#000000;fill-opacity:1;stroke:#000000;stroke-width:0"
         d="m 318.79697,57.821448 c 0,0 8.09652,-9.707011 8.58696,-17.338471 0.49034,-7.63148 -6.10257,-17.208503 -6.10257,-17.208503 0,0 -5.34277,11.04044 -5.00498,16.730156 0.3378,5.689703 2.52059,17.816818 2.52059,17.816818 z"
         id="path4" />
    </g>
    <circle
       style="fill:#000000;fill-opacity:1;stroke:#000000;stroke-width:0;stroke-dasharray:none"
       id="path7"
       cx="474.54761"
       cy="87.990601"
       r="5.5652175" />
  </g>
</svg>
