<?xml version="1.0" encoding="UTF-8" standalone="no"?>
<!-- Created with Inkscape (http://www.inkscape.org/) -->

<svg
   width="256"
   height="256"
   viewBox="0 0 67.733332 67.733333"
   version="1.1"
   id="svg1"
   inkscape:version="1.3 (0e150ed6c4, 2023-07-21)"
   sodipodi:docname="Rider.svg"
   inkscape:export-filename="..\Assets\Sprites\Units\Rider.png"
   inkscape:export-xdpi="96"
   inkscape:export-ydpi="96"
   xmlns:inkscape="http://www.inkscape.org/namespaces/inkscape"
   xmlns:sodipodi="http://sodipodi.sourceforge.net/DTD/sodipodi-0.dtd"
   xmlns="http://www.w3.org/2000/svg"
   xmlns:svg="http://www.w3.org/2000/svg">
  <sodipodi:namedview
     id="namedview1"
     pagecolor="#505050"
     bordercolor="#ffffff"
     borderopacity="1"
     inkscape:showpageshadow="0"
     inkscape:pageopacity="0"
     inkscape:pagecheckerboard="1"
     inkscape:deskcolor="#505050"
     inkscape:document-units="mm"
     inkscape:zoom="2.9683221"
     inkscape:cx="144.86298"
     inkscape:cy="107.63657"
     inkscape:window-width="1920"
     inkscape:window-height="1009"
     inkscape:window-x="-8"
     inkscape:window-y="-8"
     inkscape:window-maximized="1"
     inkscape:current-layer="layer1" />
  <defs
     id="defs1" />
  <g
     inkscape:label="Шар 1"
     inkscape:groupmode="layer"
     id="layer1">
    <rect
       style="fill:#894f00;fill-opacity:1;stroke:#939393;stroke-width:0;stroke-dasharray:none"
       id="rect3"
       width="20.719362"
       height="2.3706093"
       x="46.164375"
       y="37.346695"
       rx="0.60274506"
       ry="0.75859511" />
    <rect
       style="fill:#894f00;fill-opacity:1;stroke:#939393;stroke-width:0;stroke-dasharray:none"
       id="rect3-7"
       width="21.411873"
       height="2.0430245"
       x="-23.690823"
       y="75.461029"
       rx="0.62289083"
       ry="0.65376794"
       transform="matrix(0.50221044,-0.86474544,0.8824633,0.47038125,0,0)" />
    <rect
       style="fill:#894f00;fill-opacity:1;stroke:#939393;stroke-width:0;stroke-dasharray:none"
       id="rect3-7-1-7-7"
       width="24.124121"
       height="2.2238908"
       x="-60.090542"
       y="28.365475"
       rx="0.70179266"
       ry="0.71164507"
       transform="matrix(0.47788397,-0.87842297,0.86914128,0.49456389,0,0)" />
    <rect
       style="fill:#a25e00;fill-opacity:1;stroke:#939393;stroke-width:0;stroke-dasharray:none"
       id="MAIN"
       width="43.906799"
       height="17.46316"
       x="-11.464118"
       y="41.160118"
       rx="20.637842"
       ry="8.6383209"
       transform="matrix(0.95938002,-0.28211697,0.36870596,0.92954608,0,0)" />
    <rect
       style="fill:#a25e00;fill-opacity:1;stroke:#939393;stroke-width:0;stroke-dasharray:none"
       id="rect3-9"
       width="22.933506"
       height="2.6239407"
       x="38.534702"
       y="40.006985"
       rx="0.66715646"
       ry="0.83966124" />
    <rect
       style="fill:#a25e00;fill-opacity:1;stroke:#939393;stroke-width:0;stroke-dasharray:none"
       id="rect3-7-1"
       width="23.70002"
       height="2.2613492"
       x="-30.960724"
       y="71.985344"
       rx="0.68945509"
       ry="0.72363186"
       transform="matrix(0.50221045,-0.86474543,0.88246331,0.47038124,0,0)" />
    <rect
       style="fill:#a25e00;fill-opacity:1;stroke:#939393;stroke-width:0;stroke-dasharray:none"
       id="rect3-7-1-7"
       width="27.44072"
       height="2.5296326"
       x="-64.597092"
       y="35.311016"
       rx="0.79827553"
       ry="0.80948246"
       transform="matrix(0.47788397,-0.87842297,0.86914128,0.49456389,0,0)" />
    <path
       d="m -1.0108808,65.861128 c -0.00389,-0.0029 -0.00703,-0.0065 -0.010995,-0.0094 -0.038088,-0.02707 -0.079208,-0.05024 -0.1236926,-0.06982 l -1.8988178,-0.835611 -0.6816834,1.252867 c -0.023224,0.04269 -0.041864,0.08651 -0.055524,0.131389 -0.01366,0.04487 -0.02247,0.09055 -0.026937,0.136337 -0.00447,0.04579 -0.00435,0.09202 0,0.137436 0.00435,0.04541 0.013044,0.08983 0.025838,0.133588 0.012795,0.04376 0.029711,0.08671 0.050576,0.127541 0.020865,0.04083 0.045654,0.07993 0.074215,0.116546 0.028561,0.03663 0.060871,0.07056 0.096754,0.101701 0.035884,0.03114 0.075363,0.05919 0.1181951,0.08356 l 0.6959768,0.396366 c 0.042833,0.02437 0.086599,0.04351 0.1313888,0.05828 0.04479,0.01477 0.090299,0.02472 0.135787,0.03023 0.045487,0.0055 0.090862,0.0067 0.1357869,0.0033 0.044925,-0.0034 0.089384,-0.01114 0.1324884,-0.02309 0.043104,-0.01196 0.084769,-0.02821 0.1247921,-0.04837 0.040023,-0.02016 0.078663,-0.044 0.1143469,-0.07202 0.035684,-0.02802 0.068871,-0.06013 0.098954,-0.09566 0.030084,-0.03553 0.057038,-0.07496 0.080263,-0.117646 z"
       style="fill:#000000;fill-opacity:1;stroke:#939393;stroke-width:0"
       id="path4" />
    <path
       d="m 3.2847127,73.130544 c -0.00448,-0.0033 -0.00799,-0.0074 -0.0125,-0.01069 -0.043321,-0.03079 -0.090102,-0.05715 -0.140698,-0.07942 L 0.97164587,72.089986 0.19624399,73.515098 c -0.0264169,0.04856 -0.0476195,0.0984 -0.0631575,0.149453 -0.0155368,0.05104 -0.0255592,0.102999 -0.0306403,0.155081 -0.0050845,0.05209 -0.004948,0.104671 0,0.156331 0.004948,0.05165 0.0148373,0.10218 0.0293902,0.151952 0.0145541,0.04979 0.0337957,0.09863 0.0575292,0.145077 0.0237335,0.04644 0.0519305,0.09091 0.0844181,0.132567 0.0324876,0.04167 0.0692396,0.08026 0.1100558,0.115685 0.0408173,0.03542 0.085724,0.06733 0.13444452,0.09505 L 1.3099382,75.06715 c 0.048717,0.02772 0.0985,0.04949 0.1494528,0.06629 0.050944,0.0168 0.1027111,0.02812 0.154454,0.03439 0.051743,0.0063 0.1033527,0.0076 0.1544555,0.0038 0.051101,-0.0039 0.1016703,-0.01267 0.1507028,-0.02625 0.049032,-0.0136 0.096419,-0.03209 0.1419491,-0.05502 0.045523,-0.02293 0.089473,-0.05005 0.1300674,-0.08192 0.040586,-0.03187 0.078341,-0.0684 0.1125616,-0.108812 0.034221,-0.04041 0.064884,-0.08526 0.0913,-0.13382 z"
       style="fill:#000000;fill-opacity:1;stroke:#939393;stroke-width:0"
       id="path4-9" />
    <path
       d="m 51.102767,59.758005 c -0.0039,-0.0031 -0.007,-0.0069 -0.01085,-0.01 -0.03789,-0.02894 -0.07901,-0.05399 -0.12368,-0.0755 l -1.906878,-0.918315 -0.73881,1.25363 c -0.02516,0.04272 -0.0457,0.08674 -0.0612,0.132028 -0.01551,0.04527 -0.02608,0.09155 -0.03223,0.138069 -0.0061,0.04652 -0.0076,0.09368 -0.0049,0.140131 0.0029,0.04647 0.01007,0.09205 0.0217,0.137111 0.01153,0.04507 0.02727,0.08946 0.04711,0.13181 0.01986,0.04236 0.04375,0.08309 0.07159,0.121423 0.02785,0.03834 0.0596,0.07407 0.09509,0.107077 0.03549,0.03301 0.07477,0.06297 0.117597,0.08932 l 0.695782,0.428446 c 0.04282,0.02635 0.08678,0.04738 0.13193,0.06401 0.04515,0.01661 0.09119,0.02836 0.137394,0.03559 0.04619,0.0072 0.09241,0.01 0.138334,0.0081 0.04592,-0.0019 0.09153,-0.0082 0.135893,-0.01892 0.04439,-0.01074 0.08742,-0.0258 0.128927,-0.04496 0.04152,-0.01916 0.08174,-0.04212 0.119102,-0.06943 0.03736,-0.02733 0.07232,-0.05891 0.104244,-0.09408 0.03192,-0.03519 0.06077,-0.07443 0.08595,-0.117151 z"
       style="fill:#000000;fill-opacity:1;stroke:#939393;stroke-width:0"
       id="path4-7" />
    <path
       d="m 57.533954,55.167651 c -0.0035,-0.0028 -0.0063,-0.0062 -0.0098,-0.009 -0.03423,-0.02615 -0.07138,-0.04878 -0.111739,-0.06821 l -1.722764,-0.8297 -0.66748,1.132597 c -0.02273,0.0386 -0.04129,0.07837 -0.05529,0.119281 -0.01401,0.0409 -0.02356,0.08271 -0.02912,0.124739 -0.0055,0.04203 -0.0069,0.08464 -0.0044,0.126603 0.0026,0.04198 0.0091,0.08316 0.0196,0.123872 0.01043,0.04072 0.02464,0.08082 0.04256,0.119084 0.01794,0.03827 0.03953,0.07507 0.06468,0.1097 0.02516,0.03464 0.05385,0.06692 0.08591,0.09674 0.03206,0.02982 0.06755,0.05689 0.106244,0.0807 l 0.628606,0.387081 c 0.03869,0.02381 0.0784,0.04281 0.119194,0.05783 0.04079,0.01501 0.08239,0.02562 0.124129,0.03215 0.04173,0.0065 0.08349,0.009 0.124977,0.0073 0.04149,-0.0017 0.08269,-0.0074 0.122774,-0.01708 0.0401,-0.0097 0.07898,-0.02331 0.11648,-0.04062 0.03751,-0.01731 0.07385,-0.03805 0.107603,-0.06273 0.03374,-0.02469 0.06534,-0.05322 0.09418,-0.085 0.02884,-0.03179 0.0549,-0.06724 0.07765,-0.105839 z"
       style="fill:#000000;fill-opacity:1;stroke:#939393;stroke-width:0"
       id="path4-7-9" />
    <path
       style="fill:#a25e00;fill-opacity:1;stroke:#939393;stroke-width:0;stroke-dasharray:none"
       d="m 21.711387,36.402075 c 0,0 -11.9553332,2.570461 -14.8485122,7.919668 -1.9535088,3.611849 0.938266,6.036627 0.938266,6.036627 z"
       id="path5"
       sodipodi:nodetypes="cscc" />
    <rect
       style="fill:#ffab01;fill-opacity:1;stroke:#939393;stroke-width:0;stroke-dasharray:none"
       id="rect29-2-3-5"
       width="2.1202533"
       height="9.0614643"
       x="-7.082684"
       y="37.63924"
       rx="1.0601267"
       ry="1.4620452"
       transform="matrix(0.41562848,-0.90953447,0.91417275,0.40532481,0,0)" />
    <rect
       style="fill:#ffab01;fill-opacity:1;stroke:#939393;stroke-width:0;stroke-dasharray:none"
       id="rect29-2-3-5-6"
       width="1.908265"
       height="7.9472418"
       x="-45.894135"
       y="9.1176739"
       rx="0.9541325"
       ry="1.2822682"
       transform="matrix(-0.71978634,-0.69419565,0.68689802,-0.7267538,0,0)" />
    <path
       style="fill:#3c2800;fill-opacity:1;stroke:#939393;stroke-width:0;stroke-dasharray:none"
       d="m 43.062406,18.83597 c 7.189714,2.574521 6.684712,2.637511 6.684712,2.637511 l 1.996129,1.342733 c 0,0 -1.610449,-0.314393 -4.147741,-1.46469 -6.19563,-2.808826 -4.5331,-2.515554 -4.5331,-2.515554 z"
       id="path32"
       sodipodi:nodetypes="cccsc" />
    <g
       id="g10"
       transform="matrix(1.0953376,0.361245,-0.361245,1.0953376,-2.3014762,-14.519811)">
      <path
         style="fill:#ffc758;fill-opacity:1;stroke:#939393;stroke-width:0;stroke-dasharray:none"
         id="path20-5"
         transform="rotate(-18.252681)"
         sodipodi:type="arc"
         sodipodi:cx="30.954693"
         sodipodi:cy="23.208864"
         sodipodi:rx="0.63758302"
         sodipodi:ry="0.94671422"
         sodipodi:start="0"
         sodipodi:end="5.9226831"
         sodipodi:open="true"
         sodipodi:arc-type="arc"
         d="m 31.592276,23.208864 a 0.63758302,0.94671422 0 0 1 -0.580198,0.942872 0.63758302,0.94671422 0 0 1 -0.684639,-0.773148 0.63758302,0.94671422 0 0 1 0.456959,-1.082044 0.63758302,0.94671422 0 0 1 0.766894,0.578372" />
      <path
         style="fill:#31291b;fill-opacity:1;stroke:#939393;stroke-width:0;stroke-dasharray:none"
         d="m 29.533651,18.067892 -1.180383,0.805987 0.437268,-1.291695 -1.286749,-0.04486 0.990412,-0.383525 -1.005843,-0.479184 c 0,0 0.780668,0.06467 0.719189,0.05416 -0.06148,-0.01052 -1.312456,-0.596409 -1.20551,-0.591861 0.106947,0.0045 0.939414,0.0763 0.939414,0.0763 l -0.852001,-0.859975 0.847494,0.4351 c 0,0 -0.816069,-1.151325 -0.745298,-1.105066 0.07082,0.04618 1.050918,0.505667 0.912731,0.403471 -0.138137,-0.102265 -0.950696,-1.013533 -0.950696,-1.013533 0,0 0.91016,0.348316 0.861726,0.331513 -0.04846,-0.01677 -0.645859,-1.016306 -0.578445,-0.960364 0.0674,0.05595 0.984098,0.666988 0.945354,0.653544 -0.03875,-0.01343 -0.953465,-1.318368 -0.882693,-1.27211 0.07082,0.04618 1.019879,0.657697 1.019879,0.657697 0,0 -0.562038,-0.976374 -0.513999,-0.927149 0.04803,0.04923 1.131968,0.772551 1.081757,0.635747 -0.05022,-0.136805 -0.62036,-1.246214 -0.578648,-1.210039 0.04163,0.03624 1.129597,0.967079 1.107655,0.905202 -0.02194,-0.06188 -0.843157,-1.323508 -0.749649,-1.280216 0.09352,0.04328 0.97678,0.469103 0.97678,0.469103 0,0 -0.220827,-0.771177 -0.08264,-0.668973 0.138136,0.102265 0.691518,0.728276 0.691518,0.728276 0,0 -0.197502,-1.088666 -0.120798,-0.99694 0.0767,0.09173 0.636962,0.948104 0.636962,0.948104 l 0.181483,0.540476 0.718394,-0.412783 -0.141346,0.688945 c 0,0 -0.819806,0.486123 -1.035478,0.888817 -0.215673,0.402692 -0.56241,1.183168 -0.659866,1.464085 -0.09746,0.280912 -0.314112,1.03055 -0.344523,1.399838 -0.03045,0.369279 -0.153391,1.411887 -0.153391,1.411887 z"
         id="path21-9" />
      <path
         style="fill:#31291b;fill-opacity:1;stroke:#939393;stroke-width:0;stroke-dasharray:none"
         d="m 30.76798,10.771365 1.18038,-0.8059899 -0.437267,1.2916949 1.286748,0.04486 -0.990412,0.383525 1.005844,0.479185 c 0,0 -0.780669,-0.06467 -0.719189,-0.05416 0.06148,0.01052 1.312456,0.596409 1.205509,0.591861 -0.106949,-0.0045 -0.939414,-0.0763 -0.939414,-0.0763 l 0.852002,0.859975 -0.847495,-0.435099 c 0,0 0.816072,1.151323 0.745298,1.105065 -0.07082,-0.04618 -1.050917,-0.505666 -0.91273,-0.40347 0.138138,0.102263 0.950696,1.013532 0.950696,1.013532 0,0 -0.910161,-0.348315 -0.861726,-0.331512 0.04846,0.01677 0.645856,1.016308 0.578444,0.960363 -0.0674,-0.05595 -0.984097,-0.666988 -0.945354,-0.653544 0.03875,0.01343 0.953464,1.31837 0.88269,1.272113 -0.07082,-0.04618 -1.019878,-0.657697 -1.019878,-0.657697 0,0 0.562038,0.976374 0.513998,0.927149 -0.04801,-0.04924 -1.131968,-0.772551 -1.081757,-0.635747 0.05022,0.136806 0.62036,1.246214 0.578648,1.210039 -0.04162,-0.03624 -1.129597,-0.967079 -1.107655,-0.905202 0.02194,0.06188 0.843158,1.323508 0.749649,1.280216 -0.09351,-0.04328 -0.976779,-0.469103 -0.976779,-0.469103 0,0 0.220826,0.771177 0.08264,0.668973 -0.138139,-0.102263 -0.691518,-0.728276 -0.691518,-0.728276 0,0 0.197502,1.088666 0.120798,0.99694 -0.07672,-0.09172 -0.636965,-0.948101 -0.636965,-0.948101 l -0.181484,-0.540478 -0.718396,0.412779 0.141346,-0.688945 c 0,0 0.819803,-0.486126 1.035477,-0.888818 0.215672,-0.402692 0.562409,-1.183169 0.659865,-1.464086 0.09746,-0.280911 0.314113,-1.030549 0.344524,-1.399837 0.03045,-0.369279 0.15339,-1.411888 0.15339,-1.411888 z"
         id="path21-9-4" />
      <path
         style="fill:#a25e00;fill-opacity:1;stroke:#939393;stroke-width:0;stroke-dasharray:none"
         d="m 44.224885,28.213275 c 0,0 2.438169,-9.624535 4.566024,-12.257622 2.127852,-2.633087 5.929053,-5.333607 6.618834,-5.477732 0.689785,-0.144126 0.268256,-0.176994 0.748178,-0.167845 0.479925,0.0091 7.445914,0.707953 8.26814,0.927413 1.13154,0.302018 2.914106,2.149764 1.762587,3.501886 -1.151517,1.352123 -1.176116,1.721111 -3.821693,2.330999 -1.982561,0.457043 -4.508001,-1.066816 -6.955837,2.454925 -3.008294,4.328081 0.688488,8.593807 0.688488,8.593807 0,0 -3.2767,4.294656 -7.364344,5.955024 -4.087645,1.660369 -9.555818,-2.406552 -9.555818,-2.406552 z"
         id="path6"
         sodipodi:nodetypes="csscsssscscc" />
      <path
         style="fill:#000000;fill-opacity:1;stroke:#939393;stroke-width:0;stroke-dasharray:none"
         id="path8"
         sodipodi:type="arc"
         sodipodi:cx="57.98164"
         sodipodi:cy="11.821629"
         sodipodi:rx="0.87049395"
         sodipodi:ry="0.52646703"
         sodipodi:start="0"
         sodipodi:end="5.9226831"
         sodipodi:arc-type="arc"
         d="m 58.852134,11.821629 a 0.87049395,0.52646703 0 0 1 -0.792147,0.52433 0.87049395,0.52646703 0 0 1 -0.934738,-0.429947 0.87049395,0.52646703 0 0 1 0.623887,-0.601724 0.87049395,0.52646703 0 0 1 1.047042,0.321632"
         sodipodi:open="true" />
      <path
         style="fill:#000000;fill-opacity:1;stroke:#939393;stroke-width:0;stroke-dasharray:none"
         d="m 66.400446,14.480781 c 0,0 -5.026517,-0.677556 -5.514988,-0.567256 -0.488471,0.1103 -0.504227,0.220599 -0.362413,0.409685 0.141814,0.189085 5.641044,0.425441 5.641044,0.425441 0,0 0.220599,-0.157571 0.236357,-0.26787 z"
         id="path9" />
      <path
         style="fill:#000000;fill-opacity:1;stroke:#939393;stroke-width:0;stroke-dasharray:none"
         id="path10"
         sodipodi:type="arc"
         sodipodi:cx="64.399918"
         sodipodi:cy="11.955925"
         sodipodi:rx="0.28567976"
         sodipodi:ry="0.28567976"
         sodipodi:start="0"
         sodipodi:end="5.9226831"
         sodipodi:open="true"
         sodipodi:arc-type="arc"
         d="m 64.685597,11.955925 a 0.28567976,0.28567976 0 0 1 -0.259967,0.28452 0.28567976,0.28567976 0 0 1 -0.306764,-0.233304 0.28567976,0.28567976 0 0 1 0.204748,-0.326517 0.28567976,0.28567976 0 0 1 0.34362,0.174529" />
      <path
         style="fill:#8e5200;fill-opacity:1;stroke:#939393;stroke-width:0;stroke-dasharray:none"
         d="m 58.544668,11.611693 c -0.490246,-1.559874 -0.08913,-3.5208591 0.356545,-3.2534521 0.445677,0.267407 0.846788,1.2924668 0.623948,1.7827131 -0.22284,0.490246 0.267406,1.426171 -0.356542,1.64901 -0.623951,0.222839 -0.623951,-0.178271 -0.623951,-0.178271 z"
         id="path11-8"
         transform="rotate(-18.25268,54.374608,21.534998)" />
      <path
         style="fill:#5b3400;fill-opacity:1;stroke:#939393;stroke-width:0;stroke-dasharray:none"
         d="m 58.953348,11.608335 c 2.317528,0.668518 1.916417,1.158764 2.540365,0.713086 0.623951,-0.445679 -2.495796,-1.381603 -2.495796,-1.381603 0,0 -4.144809,1.069628 -5.169868,1.515306 -1.025062,0.445678 -2.228393,0.757653 -3.520858,1.782713 -1.292469,1.02506 -1.381604,2.139256 -2.89691,3.743698 -1.515306,1.604441 -2.543281,3.316599 -3.3455,4.430795 -0.802222,1.114195 -3.117675,2.718246 -3.565712,2.843821 -0.349313,0.09791 0.850593,0.704406 1.451389,0.455874 0.986068,-0.40791 2.697953,-1.882025 3.587975,-2.872597 0.720444,-0.801836 1.194487,-2.262589 2.094688,-3.431723 0.919409,-1.194079 1.837577,-2.293427 2.533201,-2.850762 0.89002,-0.713085 1.597276,-1.207582 2.444065,-1.65326 0.846788,-0.445678 1.158764,-0.733244 2.523121,-1.352944 1.270948,-0.577272 3.062187,-1.363022 3.329593,-1.585861 0.267407,-0.222839 0.490247,-0.356543 0.490247,-0.356543 z"
         id="path12"
         transform="rotate(-18.25268,54.374608,21.534998)"
         sodipodi:nodetypes="cscssssssssssssc" />
      <path
         style="fill:#5b3400;fill-opacity:1;stroke:#939393;stroke-width:0;stroke-dasharray:none"
         d="m 36.573117,32.245617 -0.628265,-1.858673 1.226892,1.327317 c 0,0 0.29086,-3.232701 0.29086,-3.054427 0,0.178271 1.097478,1.823295 1.097478,1.823295 l 0.704175,-3.341322 0.935924,1.2479 0.178271,-3.387156 0.579382,0.891356 0.311975,-2.540366 0.623949,1.426171 c 0,0 0.08913,-2.718638 0.22284,-2.406663 0.133702,0.311975 1.069628,1.158764 1.069628,1.158764 l -0.133704,-3.119748 1.025059,1.515306 0.668517,-2.317527 0.401111,1.247899 1.2479,-2.718637 0.178271,1.470738 1.247899,-2.451231 -0.04457,1.515306 1.559875,-2.05012 c 0,0 -0.311976,1.960985 -0.133702,1.782713 0.178271,-0.178271 1.649007,-2.139255 1.649007,-2.139255 l -0.04457,1.649009 c 0,0 1.559872,-2.986044 1.515306,-2.674069 -0.04457,0.311975 0,1.827281 0,1.827281 l 1.470737,-2.807773 -0.311973,2.005552 1.470736,-2.005552 -0.222837,2.139255 2.094688,-2.317527 -0.267407,2.094688 1.693577,-0.980492 c 0,0 0.490246,1.515306 0.222837,2.139256 -0.267406,0.623949 -0.935923,0.623949 -0.935923,0.623949 l -2.183824,-1.02506 -8.735292,3.520858 z"
         id="path14"
         transform="matrix(0.84907259,-0.28002619,0.28002619,0.84907259,3.756847,11.49512)"
         sodipodi:nodetypes="cccscccccccsccccccccccsccsccccccccscccc" />
      <path
         style="fill:#a25e00;fill-opacity:1;stroke:#939393;stroke-width:0;stroke-dasharray:none"
         d="m 57.626199,11.944178 c -0.490246,-1.559874 -0.08913,-3.5208587 0.356545,-3.2534517 0.445677,0.267407 0.846788,1.2924668 0.623948,1.7827127 -0.22284,0.490246 0.267406,1.426171 -0.356542,1.64901 -0.623951,0.222839 -0.623951,-0.178271 -0.623951,-0.178271 z"
         id="path11"
         transform="rotate(-18.25268,54.374608,21.534998)" />
      <path
         d="m 66.298045,14.63759 -5.854814,-0.436841 c 0.0024,0.008 0.0052,0.01615 0.0089,0.02454 0.0044,0.01017 0.0098,0.02066 0.01591,0.03133 0.01223,0.02138 0.02772,0.04357 0.04552,0.06726 0.0022,0.0029 0.0054,0.006 0.01023,0.009 0.0048,0.0028 0.01115,0.0059 0.01845,0.0088 0.01459,0.0061 0.03385,0.01217 0.05796,0.01823 0.02411,0.0061 0.05279,0.01197 0.08572,0.01806 0.03294,0.0061 0.07037,0.01244 0.111468,0.0185 0.08221,0.01223 0.180049,0.02464 0.290937,0.0369 0.110884,0.01224 0.234871,0.02424 0.369118,0.03639 0.134255,0.01208 0.278611,0.02384 0.430907,0.03574 0.152304,0.01181 0.312419,0.02369 0.477454,0.03509 0.330068,0.02285 0.68044,0.04469 1.029545,0.0651 0.349108,0.02042 0.6968,0.03941 1.022419,0.05634 0.325621,0.01692 0.628958,0.03192 0.888562,0.04428 0.519212,0.0247 0.863953,0.03923 0.863953,0.03923 0,0 0.01395,-0.01 0.03491,-0.02658 0.02098,-0.01657 0.0489,-0.03992 0.0775,-0.06659 0.0049,-0.0048 0.01014,-0.0099 0.01523,-0.01483 z"
         style="fill:#ffffff;fill-opacity:1;stroke:#939393;stroke-width:0"
         id="path15" />
      <path
         style="fill:#ffd888;fill-opacity:1;stroke:#939393;stroke-width:0;stroke-dasharray:none"
         id="path16"
         transform="rotate(-18.252681)"
         sodipodi:type="arc"
         sodipodi:cx="28.078379"
         sodipodi:cy="23.679111"
         sodipodi:rx="3.2845185"
         sodipodi:ry="3.8254983"
         sodipodi:start="0"
         sodipodi:end="6.2811828"
         sodipodi:open="true"
         sodipodi:arc-type="arc"
         d="m 31.362897,23.679111 a 3.2845185,3.8254983 0 0 1 -3.282874,3.825498 3.2845185,3.8254983 0 0 1 -3.286161,-3.821667 3.2845185,3.8254983 0 0 1 3.279584,-3.829325 3.2845185,3.8254983 0 0 1 3.289445,3.817834" />
      <path
         style="fill:#ffffff;fill-opacity:1;stroke:#939393;stroke-width:0;stroke-dasharray:none"
         id="path17"
         transform="rotate(-18.252681)"
         sodipodi:type="arc"
         sodipodi:cx="30.203371"
         sodipodi:cy="22.179518"
         sodipodi:rx="0.57963377"
         sodipodi:ry="0.21254355"
         sodipodi:start="0"
         sodipodi:end="5.9226831"
         sodipodi:open="true"
         sodipodi:arc-type="arc"
         d="m 30.783005,22.179518 a 0.57963377,0.21254355 0 0 1 -0.527465,0.211681 0.57963377,0.21254355 0 0 1 -0.622412,-0.173577 0.57963377,0.21254355 0 0 1 0.415426,-0.242926 0.57963377,0.21254355 0 0 1 0.697192,0.129848" />
      <path
         style="fill:#000000;fill-opacity:1;stroke:#939393;stroke-width:0;stroke-dasharray:none"
         id="path17-7"
         transform="rotate(-18.252681)"
         sodipodi:type="arc"
         sodipodi:cx="30.469955"
         sodipodi:cy="22.191113"
         sodipodi:rx="0.18357857"
         sodipodi:ry="0.16828117"
         sodipodi:start="0"
         sodipodi:end="5.9226831"
         sodipodi:open="true"
         sodipodi:arc-type="arc"
         d="m 30.653534,22.191113 a 0.18357857,0.16828117 0 0 1 -0.167056,0.167598 0.18357857,0.16828117 0 0 1 -0.197127,-0.13743 0.18357857,0.16828117 0 0 1 0.131572,-0.192336 0.18357857,0.16828117 0 0 1 0.220811,0.102807" />
      <path
         style="fill:#ffffff;fill-opacity:1;stroke:#939393;stroke-width:0;stroke-dasharray:none"
         id="path17-0"
         transform="rotate(-18.252681)"
         sodipodi:type="arc"
         sodipodi:cx="28.255981"
         sodipodi:cy="22.199062"
         sodipodi:rx="0.57963377"
         sodipodi:ry="0.21254355"
         sodipodi:start="0"
         sodipodi:end="5.9226831"
         sodipodi:open="true"
         sodipodi:arc-type="arc"
         d="m 28.835615,22.199062 a 0.57963377,0.21254355 0 0 1 -0.527464,0.211681 0.57963377,0.21254355 0 0 1 -0.622413,-0.173577 0.57963377,0.21254355 0 0 1 0.415426,-0.242926 0.57963377,0.21254355 0 0 1 0.697192,0.129849" />
      <path
         style="fill:#000000;fill-opacity:1;stroke:#939393;stroke-width:0;stroke-dasharray:none"
         id="path17-7-8"
         transform="rotate(-18.252681)"
         sodipodi:type="arc"
         sodipodi:cx="28.522566"
         sodipodi:cy="22.210657"
         sodipodi:rx="0.18357857"
         sodipodi:ry="0.16828117"
         sodipodi:start="0"
         sodipodi:end="5.9226831"
         sodipodi:open="true"
         sodipodi:arc-type="arc"
         d="m 28.706144,22.210657 a 0.18357857,0.16828117 0 0 1 -0.167055,0.167598 0.18357857,0.16828117 0 0 1 -0.197128,-0.137429 0.18357857,0.16828117 0 0 1 0.131572,-0.192336 0.18357857,0.16828117 0 0 1 0.220811,0.102807" />
      <path
         style="fill:#ffc758;fill-opacity:1;stroke:#939393;stroke-width:0;stroke-dasharray:none"
         d="m 35.017587,12.525112 c 0.418224,0.264866 0.410026,0.21694 0.646385,0.520487 0.249555,0.320494 0.603592,0.390744 0.183849,0.601102 -0.419734,0.210357 -0.501447,0.09345 -0.501447,0.09345 z"
         id="path18"
         sodipodi:nodetypes="csscc" />
      <path
         style="fill:#000000;fill-opacity:1;stroke:#939393;stroke-width:0;stroke-dasharray:none"
         d="m 36.597474,14.460617 c -1.00092,0.466086 -1.203356,0.402961 -1.131508,0.808463 0.07185,0.405492 0.366736,1.09964 0.734745,0.837232 0.368003,-0.262408 0.900965,-1.135235 0.840987,-1.440133 -0.05998,-0.304899 -0.444224,-0.205562 -0.444224,-0.205562 z"
         id="path19" />
      <path
         style="fill:#ffc758;fill-opacity:1;stroke:#939393;stroke-width:0;stroke-dasharray:none"
         id="path20"
         transform="rotate(-18.252681)"
         sodipodi:type="arc"
         sodipodi:cx="25.875818"
         sodipodi:cy="23.35066"
         sodipodi:rx="0.63758302"
         sodipodi:ry="0.94671422"
         sodipodi:start="0"
         sodipodi:end="5.9226831"
         sodipodi:open="true"
         sodipodi:arc-type="arc"
         d="m 26.513401,23.35066 a 0.63758302,0.94671422 0 0 1 -0.580198,0.942872 0.63758302,0.94671422 0 0 1 -0.684638,-0.773148 0.63758302,0.94671422 0 0 1 0.456958,-1.082044 0.63758302,0.94671422 0 0 1 0.766894,0.578372" />
      <path
         style="fill:#31291b;fill-opacity:1;stroke:#939393;stroke-width:0;stroke-dasharray:none"
         d="m 30.804773,12.970688 -1.403969,-0.267939 1.223937,-0.601382 -0.875999,-0.943591 0.970539,0.431347 -0.370008,-1.050918 c 0,0 0.504951,0.598873 0.468999,0.54791 -0.03595,-0.05096 -0.503243,-1.3509227 -0.431011,-1.27192 0.07223,0.079004 0.608676,0.719605 0.608676,0.719605 l 0.0084,-1.2105346 0.289536,0.9075936 c 0,0 0.240233,-1.3906135 0.257377,-1.3078201 0.01719,0.082786 0.383036,1.1015491 0.357978,0.9315124 -0.02498,-0.1700473 0.0476,-1.3888141 0.0476,-1.3888141 0,0 0.395253,0.8907795 0.372992,0.8445995 -0.02227,-0.04618 0.264625,-1.1747275 0.272537,-1.087483 0.0079,0.087247 0.221569,1.1680017 0.203767,1.1310569 -0.0178,-0.036945 0.261687,-1.6058364 0.278832,-1.5230428 0.01719,0.082786 0.253399,1.1868046 0.253399,1.1868046 0,0 0.295458,-1.0871499 0.294464,-1.0183774 -10e-4,0.068779 0.251074,1.3472759 0.312603,1.2151764 0.06153,-0.1320994 0.445554,-1.3188558 0.449344,-1.2637716 0.0037,0.055084 0.111537,1.4828326 0.13991,1.4236271 0.02837,-0.059205 0.343152,-1.5312843 0.378439,-1.4344721 0.03529,0.096812 0.356653,1.023209 0.356653,1.023209 0,0 0.390754,-0.7005633 0.415809,-0.5305254 0.02498,0.1700464 -0.02828,1.0038846 -0.02828,1.0038846 0,0 0.63222,-0.9080193 0.621326,-0.7889457 -0.0109,0.1190743 -0.222566,1.120306 -0.222566,1.120306 l -0.255009,0.5099227 0.799368,0.217923 -0.587982,0.385877 c 0,0 -0.922891,-0.238054 -1.360441,-0.106808 -0.437552,0.131244 -1.235308,0.436129 -1.503153,0.565243 -0.267846,0.129109 -0.951974,0.504428 -1.235164,0.743381 -0.283191,0.238952 -1.108843,0.887366 -1.108843,0.887366 z"
         id="path21" />
      <path
         style="fill:#31291b;fill-opacity:1;stroke:#939393;stroke-width:0;stroke-dasharray:none"
         d="m 33.250568,11.85633 c 0.742994,0.02829 0.541616,0.181014 0.786128,0.05002 0.244512,-0.13099 0.393716,-0.180198 0.13899,-0.232852 -0.254728,-0.05265 -0.721257,-0.07142 -0.82091,0.01899 -0.09965,0.09041 -0.104208,0.163839 -0.104208,0.163839 z"
         id="path22" />
      <path
         style="fill:#31291b;fill-opacity:1;stroke:#939393;stroke-width:0;stroke-dasharray:none"
         d="m 35.785816,10.918719 c -0.58039,0.464745 -0.327667,0.467705 -0.602134,0.507872 -0.274464,0.04017 -0.423669,0.08938 -0.250243,-0.104482 0.173429,-0.193857 0.537259,-0.486482 0.671145,-0.473093 0.133884,0.01339 0.18123,0.0697 0.18123,0.0697 z"
         id="path22-2" />
      <path
         style="fill:#31291b;fill-opacity:1;stroke:#939393;stroke-width:0;stroke-dasharray:none"
         d="m 30.706415,12.741661 -0.479297,0.859953 0.362585,0.297477 -0.276784,0.579548 0.232383,-0.06647 c 0,0 -0.177227,0.973945 -0.131258,0.928268 0.04597,-0.04568 0.349789,-0.481559 0.343543,-0.43881 -0.0062,0.04275 -0.0766,1.032307 -0.0766,1.032307 l 0.242431,-0.344431 0.163291,0.52596 -0.01668,0.442906 c 0,0 0.352134,-0.258545 0.336714,-0.212771 -0.01542,0.04577 -0.122084,0.925242 -0.03005,0.803339 0.09203,-0.121902 0.243015,-0.527722 0.258143,-0.481851 0.01513,0.04587 0.217462,0.782743 0.217462,0.782743 l 0.255409,-0.582671 0.258435,-0.573496 c 0,0 -0.258935,-0.22994 -0.450719,-0.441338 -0.191786,-0.211397 -0.3377,-0.437922 -0.416562,-0.615357 -0.07886,-0.177436 -0.248788,-0.538451 -0.309302,-0.721937 -0.06051,-0.183485 -0.193456,-0.648249 -0.241867,-0.795038 -0.04841,-0.146788 -0.07838,-0.330177 -0.108051,-0.605211 -0.02967,-0.275034 -0.133225,-0.373121 -0.133225,-0.373121 z"
         id="path23" />
    </g>
    <path
       style="fill:#422000;fill-opacity:1;stroke:#939393;stroke-width:0;stroke-dasharray:none"
       d="m 35.074881,34.317225 0.222837,-4.278511 c 0,0 -0.133702,-0.802219 -0.267406,-0.490246 -0.133705,0.311975 -0.178271,2.941479 -0.178271,2.941479 z"
       id="path35" />
    <path
       style="fill:#422000;fill-opacity:1;stroke:#939393;stroke-width:0;stroke-dasharray:none"
       d="m 25.180823,35.07488 c 0,0 0.802221,3.654562 1.337035,4.679621 0.534812,1.025062 4.545917,2.852341 5.392708,2.763206 0.846788,-0.08914 3.119747,-2.495799 3.342587,-3.65456 0.222837,-1.158764 -0.401111,-6.77431 -0.401111,-6.77431 0,0 -3.966538,1.337035 -5.214438,1.738143 -1.247899,0.401111 -4.456781,1.2479 -4.456781,1.2479 z"
       id="path33" />
    <path
       style="fill:#5b3400;fill-opacity:1;stroke:#939393;stroke-width:0;stroke-dasharray:none"
       d="m 9.9763463,44.88637 c -0.860027,-0.888865 -8.5617748,2.654386 -10.25813018,4.304757 -1.69635452,1.65037 -4.49444332,3.547117 -4.19793252,4.80645 0.2965109,1.259332 1.2949409,4.725013 2.2978427,4.058862 1.0028949,-0.666157 3.2924322,-3.615935 3.8884904,-5.124514 0.5960537,-1.508582 2.0635545,-3.573273 3.3010548,-4.243446 2.2088688,-1.196226 4.9686748,-3.802109 4.9686748,-3.802109 z"
       id="path13-1"
       sodipodi:nodetypes="csssssc" />
    <g
       id="g28"
       transform="translate(1.526584,32.624729)">
      <path
         d="m 30.024476,-15.76949 a 4.3647184,5.0895452 0 0 1 -0.116788,0.05633 4.3647184,5.0895452 0 0 1 -0.66611,0.186552 4.3647184,5.0895452 0 0 1 -0.682645,0.06253 4.3647184,5.0895452 0 0 1 -0.682646,-0.06253 4.3647184,5.0895452 0 0 1 -0.666109,-0.186552 4.3647184,5.0895452 0 0 1 -0.148312,-0.07183 v 3.535701 c 0,0.05129 0.0027,0.101499 0.0078,0.151412 0.005,0.04991 0.01239,0.0995 0.02222,0.147795 0.0098,0.0483 0.02231,0.09567 0.03669,0.14211 0.01438,0.04644 0.03092,0.09158 0.04961,0.135909 0.01869,0.04433 0.03926,0.08773 0.06201,0.129708 0.02275,0.04198 0.04785,0.08257 0.07441,0.121956 0.02657,0.03939 0.05461,0.07766 0.08475,0.114205 0.03014,0.03655 0.06214,0.07144 0.0956,0.104903 0.03347,0.03347 0.06836,0.06546 0.104903,0.0956 0.03655,0.03014 0.07482,0.0587 0.114205,0.08527 0.03939,0.02656 0.07998,0.05115 0.121956,0.0739 0.04198,0.02275 0.08538,0.04332 0.129708,0.06201 0.04433,0.01869 0.08999,0.03523 0.136426,0.04961 0.04644,0.01438 0.09381,0.02686 0.14211,0.03669 0.0483,0.0098 0.09736,0.01718 0.147278,0.02222 0.04991,0.005 0.100643,0.0078 0.151929,0.0078 0.05129,0 0.102015,-0.0027 0.151928,-0.0078 0.04991,-0.005 0.09898,-0.01239 0.147278,-0.02222 0.0483,-0.0098 0.09567,-0.02231 0.142111,-0.03669 0.04644,-0.01438 0.09158,-0.03092 0.135909,-0.04961 0.04433,-0.01869 0.08773,-0.03926 0.129707,-0.06201 0.04198,-0.02275 0.08257,-0.04733 0.121957,-0.0739 0.03939,-0.02657 0.07766,-0.05513 0.114205,-0.08527 0.03655,-0.03014 0.07144,-0.06214 0.104903,-0.0956 0.03346,-0.03346 0.06546,-0.06835 0.0956,-0.104903 0.03014,-0.03655 0.0587,-0.07482 0.08527,-0.114205 0.02657,-0.03939 0.05115,-0.07998 0.0739,-0.121956 0.02275,-0.04198 0.04332,-0.08538 0.06201,-0.129708 0.01869,-0.04433 0.03523,-0.08947 0.04961,-0.135909 0.01438,-0.04644 0.02686,-0.09381 0.03669,-0.14211 0.0098,-0.0483 0.01718,-0.09788 0.02222,-0.147795 0.005,-0.04991 0.0078,-0.100126 0.0078,-0.151412 z"
         style="fill:#ffd888;stroke:#939393;stroke-width:0"
         id="path26-6" />
      <path
         d="m 30.025227,-14.156538 v -1.614372 a 4.3647184,5.0895452 0 0 1 -0.116789,0.05633 4.3647184,5.0895452 0 0 1 -0.329696,0.10852 4.3647184,5.0895452 0 0 1 -0.336413,0.07803 4.3647184,5.0895452 0 0 1 -0.340031,0.04651 4.3647184,5.0895452 0 0 1 -0.342615,0.01602 4.3647184,5.0895452 0 0 1 -0.342615,-0.01602 4.3647184,5.0895452 0 0 1 -0.340031,-0.04651 4.3647184,5.0895452 0 0 1 -0.336413,-0.07803 4.3647184,5.0895452 0 0 1 -0.329696,-0.10852 4.3647184,5.0895452 0 0 1 -0.148311,-0.07183 v 1.506368 a 2.5447726,2.5447726 0 0 0 0.07235,0.0615 2.5447726,2.5447726 0 0 0 0.340547,0.208773 2.5447726,2.5447726 0 0 0 0.36897,0.152962 2.5447726,2.5447726 0 0 0 0.38809,0.09302 2.5447726,2.5447726 0 0 0 0.397909,0.03152 2.5447726,2.5447726 0 0 0 0.398425,-0.03152 2.5447726,2.5447726 0 0 0 0.38809,-0.09302 2.5447726,2.5447726 0 0 0 0.36897,-0.152962 2.5447726,2.5447726 0 0 0 0.239262,-0.146761 z"
         style="fill:#ffcb62;fill-opacity:1;stroke:#939393;stroke-width:0"
         id="path28" />
    </g>
    <rect
       style="fill:#ffcb62;fill-opacity:1;stroke:#939393;stroke-width:0;stroke-dasharray:none"
       id="rect29"
       width="9.0760937"
       height="15.820134"
       x="25.715597"
       y="19.349728"
       rx="4.5380468"
       ry="2.5525403" />
    <rect
       style="fill:#ffcb62;fill-opacity:1;stroke:#939393;stroke-width:0;stroke-dasharray:none"
       id="rect29-2"
       width="3.6556489"
       height="11.6108"
       x="-4.7379532"
       y="43.821613"
       rx="1.8278245"
       ry="1.8733745"
       transform="rotate(-47.731994)" />
    <rect
       style="fill:#5c5c5c;fill-opacity:1;stroke:#939393;stroke-width:0;stroke-dasharray:none"
       id="rect30-2"
       width="3.0868926"
       height="0.53477627"
       x="-4.4005156"
       y="40.871479"
       rx="0.36003533"
       ry="0.53477627"
       transform="matrix(0.33091634,-0.94366009,0.94306649,0.33260427,0,0)" />
    <rect
       style="fill:#ffbc35;fill-opacity:1;stroke:#939393;stroke-width:0;stroke-dasharray:none"
       id="rect29-2-3"
       width="2.7362411"
       height="14.320459"
       x="-32.574631"
       y="13.62133"
       rx="1.3681206"
       ry="2.3105714"
       transform="matrix(-0.4315171,-0.90210476,0.8964817,-0.44308077,0,0)" />
    <rect
       style="fill:#ffcb62;fill-opacity:1;stroke:#939393;stroke-width:0;stroke-dasharray:none"
       id="rect29-2-0"
       width="2.5789132"
       height="13.840438"
       x="-55.93029"
       y="-2.5367765"
       rx="1.2894566"
       ry="2.2331212"
       transform="matrix(-0.56483415,-0.82520445,0.74688226,-0.66495631,0,0)" />
    <rect
       style="fill:#372500;fill-opacity:1;stroke:#939393;stroke-width:0;stroke-dasharray:none"
       id="rect29-2-0-0"
       width="2.4946003"
       height="5.8325186"
       x="35.989395"
       y="-45.939632"
       rx="1.2473001"
       ry="1.2473004"
       transform="matrix(-0.27503059,0.96143548,-0.96865951,-0.24839233,0,0)" />
    <rect
       style="fill:#5c5c5c;fill-opacity:1;stroke:#939393;stroke-width:0;stroke-dasharray:none"
       id="rect30"
       width="3.6241345"
       height="0.72482687"
       x="39.277836"
       y="3.0505805"
       rx="0.42269573"
       ry="0.72482687"
       transform="rotate(16.40071)" />
    <path
       style="fill:#5c5c5c;fill-opacity:1;stroke:#939393;stroke-width:0;stroke-dasharray:none"
       d="m 37.629313,16.225747 c -0.234538,0.593972 -0.24721,0.606214 -0.218869,0.696408 0.02834,0.09019 0.06659,0.185537 0.140863,0.211747 0.0743,0.0262 0.188972,0.0232 0.287547,-0.05733 0.09857,-0.08052 0.341058,-0.701769 0.341058,-0.701769 z"
       id="path30" />
    <rect
       style="fill:#929292;fill-opacity:1;stroke:#939393;stroke-width:0;stroke-dasharray:none"
       id="rect31"
       width="0.64992231"
       height="12.090011"
       x="41.079369"
       y="-11.341193"
       rx="0"
       ry="0"
       transform="matrix(0.94183356,0.33607967,-0.27494968,0.96145862,0,0)" />
    <rect
       style="fill:#838383;fill-opacity:1;stroke:#939393;stroke-width:0;stroke-dasharray:none"
       id="rect31-5"
       width="0.64979881"
       height="12.091929"
       x="40.457748"
       y="-11.214525"
       rx="0"
       ry="0"
       transform="matrix(0.94282627,0.3332846,-0.27256796,0.96213653,0,0)" />
    <path
       style="fill:#929292;fill-opacity:1;stroke:#939393;stroke-width:0;stroke-dasharray:none"
       d="M 41.202955,2.6963534 42.715478,2.1141863 42.420213,3.1225335 Z"
       id="path31"
       sodipodi:nodetypes="cccc" />
    <path
       style="fill:#838383;fill-opacity:1;stroke:#939393;stroke-width:0;stroke-dasharray:none"
       d="M 41.199792,2.6982648 41.96302,2.4045002 41.814027,2.9133177 Z"
       id="path31-1"
       sodipodi:nodetypes="cccc" />
    <path
       style="fill:#3c2800;fill-opacity:1;stroke:#939393;stroke-width:0;stroke-dasharray:none"
       d="m 54.5461,17.126602 c -1.512074,8.820292 -1.512074,8.820292 -1.512074,8.820292 l 0.620608,-0.134148 1.423481,-8.73103 z"
       id="path32-2" />
    <path
       style="fill:#3c2800;fill-opacity:1;stroke:#939393;stroke-width:0;stroke-dasharray:none"
       d="m 60.929997,19.521982 c -1.512074,7.268317 -1.512074,7.268317 -1.512074,7.268317 l 0.620608,-0.110545 1.423481,-7.19476 z"
       id="path32-2-8" />
    <path
       style="fill:#422000;fill-opacity:1;stroke:#939393;stroke-width:0;stroke-dasharray:none"
       d="m 25.269958,35.698829 -0.62395,-3.298018 c 0,0 0.534814,0.311973 0.802221,0.802219 0.267407,0.490247 1.203332,2.050122 1.203332,2.050122 z"
       id="path34" />
  </g>
</svg>
