<?xml version="1.0" encoding="UTF-8" standalone="no"?>
<!-- Created with Inkscape (http://www.inkscape.org/) -->

<svg
   width="256"
   height="256"
   viewBox="0 0 67.733332 67.733333"
   version="1.1"
   id="svg1"
   xml:space="preserve"
   inkscape:version="1.3 (0e150ed6c4, 2023-07-21)"
   sodipodi:docname="Sceleton.svg"
   inkscape:export-filename="..\Assets\Sprites\Units\Summons\Sceleton.png"
   inkscape:export-xdpi="96"
   inkscape:export-ydpi="96"
   xmlns:inkscape="http://www.inkscape.org/namespaces/inkscape"
   xmlns:sodipodi="http://sodipodi.sourceforge.net/DTD/sodipodi-0.dtd"
   xmlns="http://www.w3.org/2000/svg"
   xmlns:svg="http://www.w3.org/2000/svg"><sodipodi:namedview
     id="namedview1"
     pagecolor="#505050"
     bordercolor="#ffffff"
     borderopacity="1"
     inkscape:showpageshadow="0"
     inkscape:pageopacity="0"
     inkscape:pagecheckerboard="1"
     inkscape:deskcolor="#505050"
     inkscape:document-units="mm"
     inkscape:zoom="2.1442756"
     inkscape:cx="262.32636"
     inkscape:cy="142.47236"
     inkscape:window-width="1920"
     inkscape:window-height="1009"
     inkscape:window-x="-8"
     inkscape:window-y="-8"
     inkscape:window-maximized="1"
     inkscape:current-layer="layer1" /><defs
     id="defs1" /><g
     inkscape:label="Шар 1"
     inkscape:groupmode="layer"
     id="layer1"><path
       style="fill:#d4d4d4;fill-opacity:1;stroke:#01ffc8;stroke-width:0"
       d="m 17.88631,4.8312739 c 0,0 -1.832256,2.4430082 -2.530258,6.0202701 -0.698003,3.577262 -1.221505,7.765276 -1.047004,10.644536 0.174501,2.879259 1.308754,4.275265 0.872503,5.147766 -0.436252,0.872503 -0.174501,2.704761 0.872503,4.886018 1.047003,2.181257 1.657756,2.181257 1.396005,3.05376 -0.261751,0.872503 -0.698003,2.704759 0.436251,3.49001 1.134254,0.785254 2.006757,-0.08725 2.094007,1.308756 0.08725,1.396005 0.261751,5.060516 0.523502,6.10752 0.261751,1.047004 0.698002,1.483254 2.530258,2.094008 1.832257,0.610751 3.926263,0.785251 4.188015,1.396005 0.26175,0.610751 1.047002,1.047001 0.959753,2.006756 -0.08725,0.959752 -0.698003,0.698003 -0.785252,2.094008 -0.08725,1.396002 0.872501,0.959752 0.785252,1.919504 -0.08725,0.959755 0.1745,2.61751 -0.174501,3.05376 -0.349001,0.436253 12.564041,0.872503 12.825793,0.261753 0.26175,-0.610754 -1.396005,-0.610754 -1.221504,-1.308754 0.174501,-0.698003 -0.174501,-2.443009 0.349001,-2.61751 0.523502,-0.1745 1.134253,0.349002 1.047004,-0.698002 -0.08725,-1.047004 -0.959755,-0.43625 -1.134255,-1.134253 -0.174498,-0.698003 0.349001,-0.436253 0.349001,-1.134256 0,-0.698002 -0.43625,-0.1745 0.08725,-0.959752 0.523502,-0.785254 0.785252,-0.1745 0.698003,-0.872503 -0.08725,-0.698003 2.639322,-1.330566 3.424574,-1.592318 0.785251,-0.26175 4.985702,-1.109948 5.602655,-2.220463 0.616952,-1.110514 -0.493562,-5.059013 0,-6.41631 0.493561,-1.357293 1.295601,-1.850858 1.17221,-3.084763 -0.123391,-1.233906 0,-2.221029 0.431866,-3.51663 0.431869,-1.295601 1.850858,-3.763412 1.974249,-4.565449 0.123391,-0.80204 -0.493561,-0.370173 -0.246779,-1.789163 0.246779,-1.418992 1.233905,-6.231224 0.616952,-11.166846 C 53.366413,10.30311 51.885725,6.1078321 50.775211,4.7505361 49.664696,3.39324 45.592806,0.12339052 44.112121,-0.30847638 42.631434,-0.74034328 27.084226,-1.789163 24.061157,-0.74034328 21.038088,0.30847632 17.88631,4.8312739 17.88631,4.8312739 Z"
       id="path1" /><path
       style="fill:#767676;fill-opacity:0.679727;stroke:#01ffc8;stroke-width:0"
       d="m 22.554201,36.754184 c 0,0 -0.632565,-2.682945 -0.76344,-3.271883 -0.130876,-0.588942 -0.261751,-1.963132 -0.261751,-1.963132 0,0 1.679568,0.109061 2.137632,0.305374 0.458064,0.196313 1.265129,1.068816 1.461442,1.592318 0.196313,0.523502 0.283564,1.330569 0.239939,1.657758 -0.04363,0.327186 0.283563,0.610751 0.218125,0.828876 -0.06544,0.218125 0.283564,2.399384 0.283564,2.399384 l -0.610752,1.723192 z"
       id="path12"
       sodipodi:nodetypes="cscssssccc" /><path
       style="fill:#767676;fill-opacity:0.67972714;stroke:#01ffc8;stroke-width:0"
       d="m 19.495707,33.438838 c 0.370171,-0.555258 1.17221,-1.233906 0.616952,-1.604076 -0.555257,-0.370174 -1.974249,-0.80204 -1.912553,-0.431867 0.06169,0.370171 1.295601,2.035943 1.295601,2.035943 z"
       id="path15" /><path
       style="fill:#767676;fill-opacity:0.67972714;stroke:#01ffc8;stroke-width:0"
       d="m 48.492486,31.649675 c 0,0.678648 0,2.406115 0.493562,2.09764 0.493561,-0.308477 1.912554,-2.035945 1.54238,-2.159336 -0.37017,-0.123391 -2.035942,0.0617 -2.035942,0.0617 z"
       id="path14" /><path
       style="fill:#767676;fill-opacity:0.679727;stroke:#01ffc8;stroke-width:0"
       d="m 43.001607,35.906649 c 0,0 0.223644,-0.03085 0.37017,-0.555258 0.315447,-1.128968 -0.185086,-1.727467 0.616953,-2.467811 0.80204,-0.740343 1.048819,-1.233905 1.97425,-1.233905 0.925427,0 1.850858,-0.802037 1.480685,0.123391 -0.370171,0.925428 -0.670961,1.602777 -0.820108,2.390824 -0.1745,0.922008 -0.643471,2.105767 -0.965633,2.627343 -0.719871,1.165459 -2.162756,3.434085 -2.718013,3.434085 -0.555257,0 -1.418992,-3.146459 -1.418992,-3.146459 z"
       id="path13"
       sodipodi:nodetypes="cssssssscc" /><path
       style="fill:#000000;fill-opacity:1;stroke:#01ffc8;stroke-width:0"
       d="m 31.410105,19.009446 c -0.04362,-1.265129 -0.523502,-2.966509 -1.439629,-3.620887 -0.916128,-0.654377 -3.751763,-0.828877 -5.191393,-0.828877 -1.43963,0 -3.926263,1.047003 -4.449765,1.919506 -0.523502,0.872503 -0.785253,2.573884 -0.785253,3.751763 0,1.177879 -0.654377,3.882637 0.698003,4.275263 1.352379,0.392628 3.577262,0.698002 5.671269,-0.1745 2.094007,-0.872503 2.96651,-0.872503 3.620888,-1.657755 0.654376,-0.785253 1.570503,-1.832256 1.745004,-2.704759 0.174501,-0.872503 0.130876,-0.959754 0.130876,-0.959754 z"
       id="path2" /><path
       style="fill:#000000;fill-opacity:1;stroke:#01ffc8;stroke-width:0"
       d="m 41.007638,23.851838 c 0,0 -1.43963,-0.08725 -2.181257,-1.177879 -0.741629,-1.090629 -1.919507,-2.224883 -1.788631,-3.402762 0.130874,-1.177879 0.305375,-2.224882 0.959753,-3.14101 0.654378,-0.916128 3.271885,-1.52688 4.798766,-1.52688 1.526879,0 4.013512,1.003378 4.711515,1.483255 0.698002,0.479876 1.439629,2.573883 1.483256,3.359136 0.04362,0.785253 0.04362,3.926263 -0.392628,4.58064 -0.43625,0.654376 -1.832255,1.26513 -3.402761,1.090629 -1.570503,-0.1745 -4.188013,-1.265129 -4.188013,-1.265129 z"
       id="path3" /><path
       style="fill:#000000;fill-opacity:1;stroke:#01ffc8;stroke-width:0"
       d="m 34.071239,20.1437 c 0,0 -0.392625,0.218126 -0.43625,-0.130875 -0.04363,-0.349001 -0.218128,0.523502 -0.436253,0.741627 -0.218125,0.218126 -0.479877,0.305376 -0.785251,0.916128 -0.305377,0.610753 -2.268509,5.496768 -1.875883,6.19477 0.392626,0.698003 0.959755,1.17788 1.43963,1.134256 0.479877,-0.04363 1.61413,-0.04363 1.745006,-0.654378 0.130876,-0.610751 0.349001,-8.201528 0.349001,-8.201528 z"
       id="path4" /><path
       style="fill:#000000;fill-opacity:1;stroke:#01ffc8;stroke-width:0"
       d="m 34.24574,20.1437 c 0,0 0,7.023648 0.26175,7.54715 0.261752,0.523502 0.567129,1.090628 1.090631,1.17788 0.523499,0.08725 1.483254,0.349001 1.832255,-0.305377 0.349001,-0.654378 0.08725,-1.483254 -0.1745,-2.312133 -0.261753,-0.828876 -1.00338,-4.493389 -1.396006,-4.973266 -0.392625,-0.479877 -0.785251,-1.788631 -0.959752,-1.483255 -0.1745,0.305376 -0.654378,0.349001 -0.654378,0.349001 z"
       id="path5" /><path
       style="fill:#000000;fill-opacity:1;stroke:#01ffc8;stroke-width:0"
       d="m 25.302585,40.211266 c 0,0 -1.919506,-1.570503 -2.224882,-2.355757 -0.305377,-0.785252 -0.828878,-1.221504 -0.349002,-1.396005 0.479877,-0.174501 1.221504,1.352381 1.657756,1.483257 0.436251,0.130873 1.221504,0.392625 1.221504,0.392625 0,0 -0.130875,-0.08725 -0.218126,0.436251 -0.08725,0.523502 -0.04363,1.745006 -0.04363,1.745006 z"
       id="path6" /><path
       style="fill:#000000;fill-opacity:1;stroke:#01ffc8;stroke-width:0"
       d="m 42.97077,40.298518 c 0,0 0.349001,-1.265129 0.1745,-1.61413 -0.1745,-0.349002 -0.349001,-0.741627 -0.349001,-0.741627 0,0 1.177877,0.1745 1.701379,-0.349002 0.523502,-0.523502 1.090631,-0.698002 1.090631,-0.698002 0,0 -0.261752,1.352378 -0.872503,2.006756 -0.610754,0.654378 -1.745006,1.396005 -1.745006,1.396005 z"
       id="path7" /><path
       style="fill:#ffffff;fill-opacity:1;stroke:#01ffc8;stroke-width:0"
       d="m 25.695211,35.543376 c 0,0 -0.567127,2.137632 -0.218125,2.443009 0.349001,0.305377 3.882639,-1.570506 8.506902,-1.483254 4.624266,0.08725 8.943157,2.137632 8.89953,1.832255 -0.04363,-0.305376 0.218128,-2.181256 -0.08725,-2.617509 -0.305377,-0.43625 -3.162831,-2.276235 -3.349459,-2.286576 -0.407195,-0.02256 -0.897605,0.657022 -0.897605,0.657022 0,0 -0.408202,-0.784394 -0.682579,-0.813453 -0.678192,-0.07183 -1.134252,0.872501 -1.134252,0.872501 0,0 -0.727906,-1.106276 -1.352381,-1.090628 -1.098183,0.02752 -1.147485,2.090453 -1.177877,1.875882 -0.116081,-0.819551 -0.784477,-1.885506 -1.265129,-1.919507 -1.127678,-0.07977 -1.00338,1.832256 -1.265129,1.745007 -0.261753,-0.08725 -0.173222,-1.524653 -0.916131,-1.526882 -0.880441,-0.0026 -0.598615,1.054074 -0.828876,1.00338 -0.276576,-0.06089 -0.130876,-1.00338 -0.785254,-0.785252 -0.654376,0.218125 -0.785252,0.654376 -0.785252,0.654376 z"
       id="path8"
       sodipodi:nodetypes="cssssscscssssssscc" /><path
       style="fill:#ffffff;fill-opacity:1;stroke:#01ffc8;stroke-width:0"
       d="m 25.757777,38.00429 c 0,0 -0.339324,0.277627 -0.370172,0.956275 -0.03085,0.678648 -0.12339,1.388144 0.09254,1.388144 0.215933,0 0.09254,0.185084 0.431867,0.123392 0.339324,-0.0617 0.431867,-0.308478 0.555258,-0.431869 0.123389,-0.123391 2.560352,-0.555257 3.023069,-0.52441 0.462713,0.03085 0.740343,-0.215934 1.048818,-0.431866 0.308478,-0.215934 0.586105,0.154239 0.987124,0.123391 0.401021,-0.03085 0.987126,-0.339325 0.987126,-0.339325 0,0 0.308475,0.493561 0.832884,0.215934 0.524412,-0.27763 0.709496,-0.616953 1.203058,-0.401021 0.493564,0.215935 1.203058,0.431869 1.295601,0.27763 0.09254,-0.154239 0.370173,0.0617 0.80204,0.154239 0.431866,0.09254 0.771191,-0.154239 0.771191,-0.154239 0,0 0.185084,0.09254 0.647801,0 0.462714,-0.09254 0.616952,0.09254 0.89458,0.154239 0.27763,0.0617 -0.339323,-0.462714 0.6478,-0.185087 0.987126,0.27763 2.899677,1.388145 3.115612,1.418992 0.215934,0.03085 0.462714,-1.203057 0.462714,-1.203057 0.03085,-0.339325 0,0 0,0 0,0 4e-6,-0.616953 -0.33932,-0.740344 -0.339324,-0.12339 -5.63697,-1.912553 -9.022934,-1.912553 -3.199525,0 -8.066657,1.511535 -8.066657,1.511535 z"
       id="path9"
       sodipodi:nodetypes="cssssssscsssscssssccssc" /><path
       style="fill:#d4d4d4;fill-opacity:1;stroke:#01ffc8;stroke-width:0"
       d="m 40.71888,58.055253 c 0,0 -0.802037,0.370171 -0.987124,0.987124 -0.185086,0.616952 -0.555257,1.542383 -0.0617,1.665771 0.493561,0.123391 1.542383,0.616953 1.295601,0.925431 -0.246782,0.308475 -1.233906,0.431866 -1.295601,0.925428 -0.0617,0.493561 -10.858368,0.431868 -11.351929,0.308477 -0.493565,-0.123391 -1.233906,-0.616952 -1.295602,-1.048819 -0.0617,-0.431868 0.0617,-0.246782 0.493562,-0.678648 0.431866,-0.431869 0.987124,-1.048821 0.678648,-1.604079 -0.308477,-0.555257 -0.555257,-1.110514 -0.308477,-1.418989 0.246782,-0.308478 12.462446,-0.246782 12.462446,-0.246782 z"
       id="path10" /><path
       style="fill:#d4d4d4;fill-opacity:1;stroke:#01ffc8;stroke-width:0"
       d="m 26.367757,62.626819 c 0,0 0.86954,0.401325 1.070205,1.070204 0.200663,0.668877 0.601989,1.672195 0.06689,1.805968 -0.535101,0.133776 -1.672197,0.668878 -1.404644,1.00332 0.267552,0.334437 1.337756,0.468213 1.404644,1.003315 0.06689,0.535101 11.77225,0.468215 12.307351,0.334439 0.535105,-0.133775 1.337755,-0.668877 1.404644,-1.137092 0.06689,-0.468215 -0.06689,-0.267551 -0.535102,-0.735765 -0.468213,-0.468217 -1.070204,-1.137094 -0.735766,-1.739085 0.33444,-0.601989 0.60199,-1.203979 0.33444,-1.538416 -0.267552,-0.334441 -13.511333,-0.267552 -13.511333,-0.267552 z"
       id="path10-2" /><path
       style="fill:#d4d4d4;fill-opacity:1;stroke:#01ffc8;stroke-width:0"
       d="m 40.410405,61.201712 c 0.246779,0 11.783798,0.555257 14.436693,2.34442 2.652897,1.789163 5.305795,9.315987 4.627147,10.611588 -0.678649,1.295598 -11.907189,12.153969 -11.907189,12.153969 0,0 6.971567,-10.303111 7.341737,-11.598712 0.370174,-1.295601 0.80204,-2.529506 0.493562,-3.763412 C 55.09388,69.71566 54.476927,66.815982 53.859974,66.19903 53.243022,65.582077 50.281649,64.841733 48.67757,64.533255 47.073494,64.22478 39.670061,63.731219 39.670061,63.731219 c 0,0 -2.529507,-1.048822 -1.480688,-1.665775 1.048822,-0.616953 2.221032,-0.863732 2.221032,-0.863732 z"
       id="path11" /><path
       style="fill:#d4d4d4;fill-opacity:1;stroke:#01ffc8;stroke-width:0"
       d="m 26.799714,61.043865 c -0.246779,0 -11.783798,0.555257 -14.436693,2.34442 -2.6528966,1.789163 -5.3057946,9.315987 -4.6271466,10.611588 0.678649,1.295598 11.9071886,12.153969 11.9071886,12.153969 0,0 -6.971567,-10.303111 -7.341737,-11.598712 -0.370174,-1.295601 -0.80204,-2.529506 -0.493562,-3.763412 0.308475,-1.233905 0.925428,-4.133583 1.542381,-4.750535 0.616952,-0.616953 3.578325,-1.357297 5.182404,-1.665775 1.604076,-0.308475 9.007509,-0.802036 9.007509,-0.802036 0,0 2.529507,-1.048822 1.480688,-1.665775 -1.048822,-0.616953 -2.221032,-0.863732 -2.221032,-0.863732 z"
       id="path11-1" /><path
       style="fill:#d4d4d4;fill-opacity:1;stroke:#01ffc8;stroke-width:0"
       d="m 40.309439,65.260218 c 0.366931,0 17.521094,0.8256 21.465631,3.485871 3.94454,2.660271 7.889081,13.851755 6.880013,15.778159 -1.00907,1.926398 -17.704562,18.071492 -17.704562,18.071492 0,0 10.365884,-15.319489 10.916282,-17.245892 0.550404,-1.926403 1.192537,-3.761072 0.733868,-5.595742 -0.458666,-1.834669 -1.376001,-6.146142 -2.293336,-7.063476 -0.917334,-0.917335 -5.32054,-2.018138 -7.705613,-2.476807 -2.385069,-0.458666 -13.393086,-1.192532 -13.393086,-1.192532 0,0 -3.761073,-1.559472 -2.201605,-2.476807 1.559473,-0.917335 3.302408,-1.284266 3.302408,-1.284266 z"
       id="path11-5" /><path
       style="fill:#d4d4d4;fill-opacity:1;stroke:#01ffc8;stroke-width:0"
       d="m 26.364892,64.902127 c -0.36693,0 -17.5210932,0.825601 -21.4656301,3.485872 -3.94453917,2.66027 -7.8890806,13.851755 -6.8800126,15.778158 1.00907003,1.926399 17.7045617,18.071493 17.7045617,18.071493 0,0 -10.3658838,-15.319489 -10.9162822,-17.245892 -0.5504043,-1.926404 -1.1925374,-3.761072 -0.7338675,-5.595743 0.4586653,-1.834668 1.3760004,-6.146142 2.2933355,-7.063475 0.917334,-0.917335 5.3205402,-2.018138 7.7056122,-2.476808 2.385069,-0.458665 13.393086,-1.192531 13.393086,-1.192531 0,0 3.761074,-1.559473 2.201605,-2.476808 -1.559472,-0.917335 -3.302408,-1.284266 -3.302408,-1.284266 z"
       id="path11-1-2" /><circle
       style="fill:#68ffd8;fill-opacity:1;stroke:#01ffc8;stroke-width:0"
       id="path16"
       cx="25.139179"
       cy="20.033741"
       r="2.7590373" /><circle
       style="fill:#68ffd8;fill-opacity:1;stroke:#01ffc8;stroke-width:0"
       id="path16-0"
       cx="43.616425"
       cy="20.130512"
       r="2.7590373" /><path
       style="fill:#8c9190;fill-opacity:1;stroke:#01ffc8;stroke-width:0"
       d="M 55.428639,84.117467 C 38.636623,52.609917 4.1434212,41.966783 4.1434212,41.966783 l 7.1929598,-2.955539 c 0,0 19.47883,6.218659 39.611518,29.903567 2.450791,2.883211 11.113935,14.158596 11.113935,14.158596 z"
       id="path17"
       sodipodi:nodetypes="cccscc" /><path
       style="fill:#505453;fill-opacity:1;stroke:#01ffc8;stroke-width:0"
       d="m 56.343411,83.4274 c -0.175944,0.128929 -5.329696,0.638812 -6.214749,1.7633 -0.885054,1.124486 -1.204471,2.386145 -0.288884,2.439948 0.915586,0.0538 8.988647,-0.118239 11.132451,-0.661577 2.143802,-0.543336 6.346103,-1.805465 6.792023,-2.673068 0.445922,-0.8676 0.805568,-1.823414 -1.111396,-2.062861 C 64.735891,81.993698 56.343411,83.4274 56.343411,83.4274 Z"
       id="path18" /></g></svg>
