<?xml version="1.0" encoding="UTF-8" standalone="no"?>
<!-- Created with Inkscape (http://www.inkscape.org/) -->

<svg
   width="256"
   height="256"
   viewBox="0 0 67.733332 67.733333"
   version="1.1"
   id="svg1"
   inkscape:version="1.3 (0e150ed6c4, 2023-07-21)"
   sodipodi:docname="SpaceMage.svg"
   inkscape:export-filename="..\Assets\Sprites\Units\SpaceMage.png"
   inkscape:export-xdpi="96"
   inkscape:export-ydpi="96"
   xmlns:inkscape="http://www.inkscape.org/namespaces/inkscape"
   xmlns:sodipodi="http://sodipodi.sourceforge.net/DTD/sodipodi-0.dtd"
   xmlns="http://www.w3.org/2000/svg"
   xmlns:svg="http://www.w3.org/2000/svg">
  <sodipodi:namedview
     id="namedview1"
     pagecolor="#505050"
     bordercolor="#ffffff"
     borderopacity="1"
     inkscape:showpageshadow="0"
     inkscape:pageopacity="0"
     inkscape:pagecheckerboard="1"
     inkscape:deskcolor="#505050"
     inkscape:document-units="mm"
     inkscape:zoom="2.9683221"
     inkscape:cx="73.9475"
     inkscape:cy="128.1869"
     inkscape:window-width="1920"
     inkscape:window-height="1009"
     inkscape:window-x="-8"
     inkscape:window-y="-8"
     inkscape:window-maximized="1"
     inkscape:current-layer="layer1" />
  <defs
     id="defs1" />
  <g
     inkscape:label="Шар 1"
     inkscape:groupmode="layer"
     id="layer1">
    <path
       d="M 50.697164,23.068359 19.238619,23.248193 7.8155436,61.136837 H 47.308223 l -0.0031,-0.01395 c -0.03004,-0.143785 -0.05043,-0.286813 -0.06201,-0.426847 -3.65e-4,-0.0044 -1.69e-4,-0.0085 -5.17e-4,-0.01292 -5.31e-4,0 -0.001,-10e-7 -0.0015,0 -0.133247,6.5e-5 -0.270075,-0.0097 -0.409277,-0.02997 -0.139203,-0.02025 -0.280815,-0.05136 -0.422713,-0.09302 l -7.493083,-2.199866 c -0.141899,-0.04166 -0.277603,-0.09217 -0.40566,-0.150378 -0.128058,-0.05821 -0.248636,-0.123769 -0.360702,-0.195854 -0.112065,-0.07209 -0.21562,-0.150819 -0.309541,-0.234094 -0.09392,-0.08328 -0.178038,-0.17125 -0.251665,-0.263033 -0.07363,-0.09178 -0.136404,-0.187127 -0.187585,-0.284737 -0.05118,-0.09761 -0.09072,-0.197418 -0.117306,-0.298173 -0.02658,-0.100756 -0.04047,-0.20264 -0.04031,-0.303858 1.65e-4,-0.101218 0.01434,-0.201757 0.04341,-0.300757 0.02906,-0.099 0.07151,-0.191742 0.12609,-0.276985 0.05458,-0.08524 0.121091,-0.163184 0.197921,-0.233578 0.07683,-0.07039 0.164109,-0.133134 0.259933,-0.187585 0.09582,-0.05445 0.20005,-0.10056 0.311609,-0.137976 0.111558,-0.03742 0.230467,-0.06598 0.3545,-0.08527 0.124032,-0.01929 0.253292,-0.02939 0.38654,-0.02945 0.133247,-6.5e-5 0.270591,0.0097 0.409794,0.02997 0.139202,0.02025 0.280298,0.05084 0.422196,0.0925 l 7.493083,2.199866 c 0.141898,0.04166 0.277602,0.09268 0.40566,0.150895 0.128057,0.05821 0.248636,0.123769 0.360701,0.195854 0.112066,0.07209 0.21562,0.150302 0.309542,0.233577 0.09392,0.08328 0.178037,0.171766 0.251664,0.26355 0.05479,0.06831 0.09753,0.140149 0.140043,0.211873 0.06464,0.0285 0.129394,0.05745 0.19172,0.09974 0.08246,0.05595 0.162306,0.123462 0.238745,0.201538 0.07644,0.07808 0.149369,0.166658 0.217558,0.264583 0.06819,0.09793 0.131948,0.205418 0.189652,0.320911 0.0577,0.115493 0.109526,0.239223 0.154513,0.370003 0.04499,0.13078 0.08313,0.268593 0.113171,0.412378 l 0.148312,0.711068 h 5.999634 z"
       style="fill:#dc8add;stroke-width:0.372862"
       id="path22" />
    <path
       d="M 38.858093,56.659074 H 26.187549 a 8.6348944,8.6348944 0 0 0 0.229443,0.248047 8.6348944,8.6348944 0 0 0 0.498161,0.45992 8.6348944,8.6348944 0 0 0 0.532267,0.419613 8.6348944,8.6348944 0 0 0 0.56379,0.376721 8.6348944,8.6348944 0 0 0 0.591179,0.331246 8.6348944,8.6348944 0 0 0 0.615983,0.283703 8.6348944,8.6348944 0 0 0 0.636136,0.235128 8.6348944,8.6348944 0 0 0 1.09244,0.262516 v -0.659391 h 3.27732 v 0.628902 a 8.6348944,8.6348944 0 0 0 0.966866,-0.232027 8.6348944,8.6348944 0 0 0 0.636137,-0.235128 8.6348944,8.6348944 0 0 0 0.615466,-0.283703 8.6348944,8.6348944 0 0 0 0.591695,-0.331246 8.6348944,8.6348944 0 0 0 0.56379,-0.376721 8.6348944,8.6348944 0 0 0 0.532267,-0.419613 8.6348944,8.6348944 0 0 0 0.498161,-0.45992 8.6348944,8.6348944 0 0 0 0.229443,-0.248047 z"
       style="fill:#ce5acf;stroke-width:0.264583"
       id="path21" />
    <path
       d="m 34.224268,61.1203 v -2.568318 a 8.6348944,8.6348944 0 0 1 -0.350883,0.08423 8.6348944,8.6348944 0 0 1 -1.350822,0.106454 8.6348944,8.6348944 0 0 1 -1.350822,-0.106454 8.6348944,8.6348944 0 0 1 -0.224793,-0.05374 V 61.1203 Z"
       style="fill:#ce5acf;stroke-width:0.264583;fill-opacity:1"
       id="path19" />
    <path
       d="m 30.946948,58.582471 a 8.6348944,8.6348944 0 0 0 0.224793,0.05374 8.6348944,8.6348944 0 0 0 1.350822,0.106454 8.6348944,8.6348944 0 0 0 1.350822,-0.106454 8.6348944,8.6348944 0 0 0 0.350883,-0.08423 v -0.628903 h -3.27732 z"
       style="fill:#ce5acf;stroke-width:0.264583;fill-opacity:1"
       id="path18" />
    <path
       d="m 38.858093,57.289358 a 8.6348944,8.6348944 0 0 0 0.230994,-0.250114 8.6348944,8.6348944 0 0 0 0.419613,-0.532267 8.6348944,8.6348944 0 0 0 0.376721,-0.56379 8.6348944,8.6348944 0 0 0 0.331246,-0.591695 8.6348944,8.6348944 0 0 0 0.283703,-0.615983 8.6348944,8.6348944 0 0 0 0.234611,-0.635621 8.6348944,8.6348944 0 0 0 0.183968,-0.652673 8.6348944,8.6348944 0 0 0 0.132292,-0.665076 8.6348944,8.6348944 0 0 0 0.07958,-0.673343 8.6348944,8.6348944 0 0 0 0.02687,-0.677478 8.6348944,8.6348944 0 0 0 -0.01395,-0.484209 8.6348944,8.6348944 0 0 0 -0.04031,-0.482658 8.6348944,8.6348944 0 0 0 -0.0677,-0.479557 8.6348944,8.6348944 0 0 0 -0.09457,-0.474906 8.6348944,8.6348944 0 0 0 -0.120923,-0.469222 8.6348944,8.6348944 0 0 0 -0.147277,-0.461471 8.6348944,8.6348944 0 0 0 -0.1726,-0.452169 8.6348944,8.6348944 0 0 0 -0.19792,-0.44235 8.6348944,8.6348944 0 0 0 -0.222209,-0.430464 8.6348944,8.6348944 0 0 0 -0.24598,-0.417029 8.6348944,8.6348944 0 0 0 -0.269234,-0.40256 8.6348944,8.6348944 0 0 0 -0.291455,-0.387056 8.6348944,8.6348944 0 0 0 -0.312126,-0.370003 8.6348944,8.6348944 0 0 0 -0.332796,-0.351917 8.6348944,8.6348944 0 0 0 -0.351917,-0.332796 8.6348944,8.6348944 0 0 0 -0.37052,-0.312643 8.6348944,8.6348944 0 0 0 -0.386539,-0.291455 8.6348944,8.6348944 0 0 0 -0.403077,-0.268717 8.6348944,8.6348944 0 0 0 -0.417028,-0.24598 8.6348944,8.6348944 0 0 0 -0.430465,-0.222725 8.6348944,8.6348944 0 0 0 -0.441833,-0.197404 8.6348944,8.6348944 0 0 0 -0.452686,-0.173116 8.6348944,8.6348944 0 0 0 -0.461471,-0.146761 8.6348944,8.6348944 0 0 0 -0.469222,-0.120923 8.6348944,8.6348944 0 0 0 -0.474906,-0.09457 8.6348944,8.6348944 0 0 0 -0.479557,-0.0677 8.6348944,8.6348944 0 0 0 -0.482658,-0.04082 8.6348944,8.6348944 0 0 0 -0.484208,-0.01344 8.6348944,8.6348944 0 0 0 -0.677478,0.02636 8.6348944,8.6348944 0 0 0 -0.673344,0.07958 8.6348944,8.6348944 0 0 0 -0.665076,0.132292 8.6348944,8.6348944 0 0 0 -0.652157,0.183968 8.6348944,8.6348944 0 0 0 -0.636136,0.234611 8.6348944,8.6348944 0 0 0 -0.615983,0.28422 8.6348944,8.6348944 0 0 0 -0.591179,0.331246 8.6348944,8.6348944 0 0 0 -0.56379,0.376721 8.6348944,8.6348944 0 0 0 -0.532267,0.419613 8.6348944,8.6348944 0 0 0 -0.498161,0.460437 8.6348944,8.6348944 0 0 0 -0.460437,0.497644 8.6348944,8.6348944 0 0 0 -0.419612,0.532267 8.6348944,8.6348944 0 0 0 -0.376722,0.56379 8.6348944,8.6348944 0 0 0 -0.331246,0.591695 8.6348944,8.6348944 0 0 0 -0.28422,0.615467 8.6348944,8.6348944 0 0 0 -0.234611,0.636653 8.6348944,8.6348944 0 0 0 -0.183968,0.652157 8.6348944,8.6348944 0 0 0 -0.132292,0.665076 8.6348944,8.6348944 0 0 0 -0.07958,0.673344 8.6348944,8.6348944 0 0 0 -0.02635,0.677478 8.6348944,8.6348944 0 0 0 0.02635,0.677478 8.6348944,8.6348944 0 0 0 0.07958,0.673343 8.6348944,8.6348944 0 0 0 0.132292,0.665076 8.6348944,8.6348944 0 0 0 0.183968,0.652673 8.6348944,8.6348944 0 0 0 0.234611,0.635621 8.6348944,8.6348944 0 0 0 0.28422,0.615983 8.6348944,8.6348944 0 0 0 0.331246,0.591695 8.6348944,8.6348944 0 0 0 0.376722,0.56379 8.6348944,8.6348944 0 0 0 0.419612,0.532267 8.6348944,8.6348944 0 0 0 0.230994,0.250114 z"
       style="fill:#ce5acf;stroke-width:0.238093"
       id="path20" />
    <ellipse
       style="fill:#ce5acf;fill-opacity:1;stroke-width:0.193232"
       id="path8-2-6-6"
       cx="78.348801"
       cy="-52.105503"
       rx="3.5383387"
       ry="7.1268511"
       transform="matrix(0.99037762,0.13839132,0.7679508,-0.64050884,0,0)" />
    <ellipse
       style="fill:#ce5acf;fill-opacity:1;stroke-width:0.193232"
       id="path8-2-6-6-3"
       cx="21.853521"
       cy="-64.169487"
       rx="3.5383387"
       ry="7.1268511"
       transform="matrix(-0.99037762,0.13839132,-0.7679508,-0.64050884,0,0)" />
    <path
       style="display:none;fill:#c061cb;stroke-width:0.264583"
       d="M 61.121192,42.715355 24.060479,59.354859 11.328736,31.496294 40.699984,25.445566 Z"
       id="path1"
       sodipodi:nodetypes="ccccc" />
    <ellipse
       style="fill:#ffa348;stroke-width:0.520276"
       id="path2"
       cx="32.746094"
       cy="16.095812"
       rx="6.4448228"
       ry="7.8081508" />
    <ellipse
       style="fill:#ffa348;stroke-width:0.102553"
       id="path2-0-9"
       cx="39.399178"
       cy="14.228354"
       rx="1.1098571"
       ry="1.7616439" />
    <ellipse
       style="fill:#ffa348;stroke-width:0.102553"
       id="path2-0-9-9"
       cx="26.262779"
       cy="14.097633"
       rx="1.1098571"
       ry="1.7616439" />
    <ellipse
       style="fill:#f6f5f4;stroke-width:0.520276"
       id="path4"
       cx="30.049393"
       cy="12.517115"
       rx="0.60251147"
       ry="1.1064302" />
    <ellipse
       style="fill:#000000;stroke-width:0.358743"
       id="path4-5"
       cx="30.051094"
       cy="12.534342"
       rx="0.40319267"
       ry="0.78609633" />
    <ellipse
       style="fill:#000000;stroke-width:0.222644"
       id="path4-5-3"
       cx="30.0457"
       cy="12.556007"
       rx="0.24211873"
       ry="0.50421697" />
    <ellipse
       style="fill:#f6f5f4;stroke-width:0.520276"
       id="path4-7"
       cx="35.28817"
       cy="12.439833"
       rx="0.60251147"
       ry="1.1064302" />
    <ellipse
       style="fill:#000000;stroke-width:0.358743"
       id="path4-5-4"
       cx="35.268871"
       cy="12.462143"
       rx="0.40319267"
       ry="0.78609633" />
    <ellipse
       style="fill:#000000;stroke-width:0.222644"
       id="path4-5-3-5"
       cx="35.263477"
       cy="12.48381"
       rx="0.24211873"
       ry="0.50421697" />
    <rect
       style="fill:#000000;stroke-width:0.520276"
       id="rect4"
       width="4.2504444"
       height="0.19718559"
       x="30.520451"
       y="19.079014"
       ry="0.098592795" />
    <path
       sodipodi:type="star"
       style="fill:#ff8d1c;fill-opacity:1;stroke-width:0.264583"
       id="path5"
       inkscape:flatsided="true"
       sodipodi:sides="3"
       sodipodi:cx="34.6292"
       sodipodi:cy="21.559687"
       sodipodi:r1="0.6477685"
       sodipodi:r2="0.32388425"
       sodipodi:arg1="3.1415927"
       sodipodi:arg2="4.1887902"
       inkscape:rounded="0"
       inkscape:randomized="0"
       d="m 33.981431,21.559687 0.971653,-0.560984 0,1.121968 z"
       inkscape:transform-center-x="0.25336514"
       transform="matrix(1.5645508,-0.22603812,0,1.9663969,-21.931105,-19.234895)"
       inkscape:transform-center-y="-0.073211697" />
    <path
       d="m 34.582785,23.482292 a 6.4448226,7.8081509 0 0 1 -0.04226,0.02113 6.4448226,7.8081509 0 0 1 -0.983209,0.286577 6.4448226,7.8081509 0 0 1 -1.008301,0.09574 6.4448226,7.8081509 0 0 1 -1.008301,-0.09574 6.4448226,7.8081509 0 0 1 -0.760683,-0.221866 c -0.01445,0.05381 -0.02842,0.107615 -0.03896,0.163098 -0.01324,0.06964 -0.02294,0.140655 -0.02971,0.212621 -0.0068,0.07197 -0.01061,0.145281 -0.01061,0.219224 v 4.726537 c 0,0.07395 0.0038,0.147259 0.01061,0.219224 0.0068,0.07196 0.01648,0.142327 0.02971,0.211962 0.01324,0.06964 0.0295,0.138406 0.04886,0.205357 0.01936,0.06696 0.04154,0.132198 0.06669,0.196114 0.02515,0.06392 0.05325,0.126348 0.08386,0.18687 0.03062,0.06053 0.06397,0.119512 0.09971,0.176304 0.03575,0.05678 0.07434,0.111065 0.114898,0.163758 0.04056,0.0527 0.08307,0.103628 0.128101,0.151872 0.04503,0.04825 0.09213,0.09389 0.141308,0.137346 0.04918,0.04346 0.100856,0.08451 0.153854,0.122821 0.053,0.03831 0.107257,0.07417 0.163757,0.106976 0.05649,0.0328 0.114669,0.06285 0.174324,0.0898 0.05966,0.02695 0.121083,0.05057 0.183568,0.07131 0.06248,0.02074 0.126501,0.03865 0.19149,0.05282 0.06499,0.01418 0.130928,0.02443 0.198095,0.03169 0.06717,0.0073 0.135684,0.01125 0.204697,0.01125 0.06901,0 0.136871,-0.004 0.204039,-0.01125 0.06716,-0.0073 0.133101,-0.01752 0.198094,-0.03169 0.06499,-0.01418 0.129003,-0.03209 0.191492,-0.05282 0.06248,-0.02074 0.123907,-0.04437 0.183567,-0.07131 0.05966,-0.02695 0.117825,-0.057 0.174323,-0.0898 0.05649,-0.0328 0.110759,-0.06867 0.163758,-0.106976 0.053,-0.03831 0.104676,-0.07936 0.153853,-0.122821 0.04918,-0.04346 0.09627,-0.0891 0.141308,-0.137346 0.04503,-0.04825 0.08754,-0.09918 0.128101,-0.151872 0.04056,-0.0527 0.07915,-0.106964 0.114899,-0.163758 0.03575,-0.05678 0.06909,-0.11578 0.09971,-0.176304 0.03062,-0.06053 0.05871,-0.122949 0.08386,-0.18687 0.02515,-0.06392 0.04734,-0.129161 0.06669,-0.196114 0.01936,-0.06696 0.03563,-0.135723 0.04886,-0.205357 0.01324,-0.06964 0.0236,-0.139996 0.03037,-0.211962 0.0068,-0.07196 0.01,-0.145281 0.01,-0.219224 v -4.726537 c 0,-0.07395 -0.0031,-0.147259 -0.01,-0.219224 -0.0068,-0.07196 -0.01715,-0.142987 -0.03037,-0.212621 -0.01324,-0.06964 -0.0295,-0.137747 -0.04886,-0.204698 -0.0043,-0.01508 -0.01048,-0.02931 -0.01519,-0.04424 z"
       style="fill:#ffa348;fill-opacity:1;stroke-width:0.326617"
       id="path6-0" />
    <path
       d="m 34.686411,24.735227 v -0.594284 c 0,-0.07395 -0.0031,-0.147258 -0.01,-0.219224 -0.0068,-0.07196 -0.01715,-0.142987 -0.03037,-0.212621 -0.01324,-0.06964 -0.0295,-0.137747 -0.04886,-0.204698 -0.0043,-0.01508 -0.01048,-0.02931 -0.01519,-0.04424 a 6.4448226,7.8081509 0 0 1 -0.04226,0.02114 6.4448226,7.8081509 0 0 1 -0.983209,0.286577 6.4448226,7.8081509 0 0 1 -1.008301,0.09575 6.4448226,7.8081509 0 0 1 -1.008302,-0.09575 6.4448226,7.8081509 0 0 1 -0.760682,-0.221866 c -0.01445,0.05381 -0.02842,0.107615 -0.03896,0.163098 -0.01324,0.06964 -0.02295,0.140655 -0.02971,0.212621 -0.0068,0.07197 -0.01061,0.145282 -0.01061,0.219224 v 0.67022 a 6.4448226,7.8081509 0 0 0 0.889444,0.258844 6.4448226,7.8081509 0 0 0 1.008302,0.09641 6.4448226,7.8081509 0 0 0 1.008301,-0.09641 6.4448226,7.8081509 0 0 0 0.98321,-0.285916 6.4448226,7.8081509 0 0 0 0.09706,-0.04886 z"
       style="fill:#ff8c1b;fill-opacity:1;stroke-width:0.326617"
       id="path7" />
    <ellipse
       style="fill:#613583;fill-opacity:1;stroke-width:0.361226"
       id="path8"
       cx="32.845451"
       cy="35.021191"
       rx="9.0805426"
       ry="9.7047043" />
    <ellipse
       style="fill:#502b6d;fill-opacity:1;stroke-width:0.193232"
       id="path8-2-6"
       cx="74.598755"
       cy="-46.380295"
       rx="3.5383387"
       ry="7.1268511"
       transform="matrix(0.99037763,0.13839132,0.7679508,-0.64050884,0,0)" />
    <ellipse
       style="fill:#4e2a69;fill-opacity:1;stroke-width:0.193232"
       id="path8-2"
       cx="18.084219"
       cy="-58.92823"
       rx="3.5383387"
       ry="7.1268511"
       transform="matrix(-0.99037763,0.13839132,-0.76795079,-0.64050885,0,0)" />
    <ellipse
       style="fill:#5b327b;fill-opacity:1;stroke-width:0.275336"
       id="path8-2-7"
       cx="93.782417"
       cy="47.247578"
       rx="6.6159801"
       ry="7.7387762"
       transform="matrix(0.79111245,0.61167073,-0.93846382,-0.34537757,0,0)" />
    <ellipse
       style="fill:#613583;fill-opacity:1;stroke-width:0.275336"
       id="path8-2-7-6"
       cx="168.43875"
       cy="180.09073"
       rx="6.6159801"
       ry="7.7387762"
       transform="matrix(-0.79111245,0.61167073,0.93846382,-0.34537757,0,0)" />
    <ellipse
       style="fill:#000000;fill-opacity:1;stroke-width:0.0666748"
       id="path8-2-7-8-4"
       cx="41.219776"
       cy="-18.410173"
       rx="2.0843842"
       ry="1.4404038"
       transform="matrix(0.73572713,0.67727808,0.11725197,-0.9931022,0,0)" />
    <ellipse
       style="fill:#000000;fill-opacity:1;stroke-width:0.0666748"
       id="path8-2-7-8-4-1"
       cx="-39.628395"
       cy="-73.654404"
       rx="2.0843842"
       ry="1.4404038"
       transform="matrix(-0.73572713,0.67727808,-0.11725197,-0.9931022,0,0)" />
    <rect
       style="fill:#613583;fill-opacity:1;stroke-width:0.338081"
       id="rect9"
       width="12.080544"
       height="2.9798677"
       x="29.039587"
       y="38.005829"
       rx="2.1355586"
       ry="2.1355586"
       transform="rotate(-16.361445)" />
    <rect
       style="fill:#613583;fill-opacity:1;stroke-width:0.315364"
       id="rect9-2"
       width="11.998975"
       height="2.6104984"
       x="-13.076671"
       y="53.178959"
       rx="2.121139"
       ry="1.8708457"
       transform="matrix(0.20448305,-0.9788701,0.96369779,0.26699545,0,0)" />
    <path
       d="m 47.242594,60.683118 c -0.01067,-0.135458 -0.01335,-0.268503 -0.0078,-0.397392 0.0058,-0.133081 0.01981,-0.262063 0.04186,-0.38499 0.02205,-0.122926 0.05216,-0.239761 0.0894,-0.349332 0.03724,-0.109571 0.08147,-0.211877 0.132809,-0.304891 0.05134,-0.09301 0.109799,-0.176859 0.174149,-0.250114 0.06435,-0.07325 0.134567,-0.13574 0.21084,-0.186035 0.07627,-0.05029 0.158356,-0.08852 0.245463,-0.112655 0.08711,-0.02413 0.175243,-0.03326 0.263033,-0.02842 0.08779,0.0048 0.175243,0.02376 0.261483,0.05529 0.02105,0.0077 0.04113,0.02284 0.06201,0.03204 -0.04251,-0.07172 -0.08525,-0.143565 -0.140043,-0.211873 -0.07363,-0.09178 -0.157742,-0.180275 -0.251664,-0.26355 -0.09392,-0.08328 -0.197476,-0.161492 -0.309542,-0.233577 -0.112065,-0.07209 -0.232644,-0.137641 -0.360701,-0.195854 -0.128058,-0.05821 -0.263762,-0.109236 -0.40566,-0.150895 l -7.493083,-2.199866 c -0.141898,-0.04166 -0.282994,-0.07225 -0.422196,-0.0925 -0.139203,-0.02025 -0.276547,-0.03004 -0.409794,-0.02997 -0.133248,6.5e-5 -0.262508,0.01017 -0.38654,0.02945 -0.124033,0.01929 -0.242942,0.04785 -0.3545,0.08527 -0.111559,0.03742 -0.215785,0.08352 -0.311609,0.137976 -0.09582,0.05445 -0.183102,0.117191 -0.259933,0.187585 -0.07683,0.07039 -0.143343,0.148334 -0.197921,0.233578 -0.05458,0.08524 -0.09703,0.177986 -0.12609,0.276985 -0.02907,0.099 -0.04324,0.199539 -0.04341,0.300757 -1.65e-4,0.101218 0.01372,0.203102 0.04031,0.303858 0.02658,0.100755 0.06612,0.200562 0.117306,0.298173 0.05118,0.09761 0.113958,0.192953 0.187585,0.284737 0.07363,0.09178 0.157743,0.179758 0.251665,0.263033 0.09392,0.08328 0.197476,0.162009 0.309541,0.234094 0.112066,0.07209 0.232644,0.137641 0.360702,0.195854 0.128057,0.05821 0.263761,0.108719 0.40566,0.150378 l 7.493083,2.199866 c 0.141898,0.04166 0.28351,0.07277 0.422713,0.09302 0.139202,0.02025 0.27603,0.03004 0.409277,0.02997 5.31e-4,-10e-7 0.001,0 0.0015,0 z"
       style="fill:#ce5acf;stroke-width:0.338081;fill-opacity:1"
       id="path23" />
    <path
       d="m 49.96956,61.136837 -0.148312,-0.711068 c -0.03004,-0.143785 -0.06818,-0.281598 -0.113171,-0.412378 -0.04499,-0.13078 -0.09681,-0.25451 -0.154513,-0.370003 -0.0577,-0.115493 -0.121463,-0.222986 -0.189652,-0.320911 -0.06819,-0.09792 -0.141119,-0.186507 -0.217558,-0.264583 -0.07644,-0.07808 -0.156289,-0.145593 -0.238745,-0.201538 -0.06233,-0.04229 -0.127076,-0.07124 -0.19172,-0.09974 0.01461,0.02465 0.03497,0.0479 0.04806,0.07286 0.05118,0.09761 0.09072,0.197418 0.117305,0.298173 0.02658,0.100755 0.03996,0.202639 0.03979,0.303857 -1.65e-4,0.101219 -0.01434,0.201758 -0.04341,0.300757 -0.02907,0.099 -0.07151,0.191226 -0.126091,0.276469 -0.05458,0.08524 -0.12109,0.1637 -0.197921,0.234094 -0.07683,0.07039 -0.164108,0.133134 -0.259932,0.187586 -0.09582,0.05445 -0.200051,0.10056 -0.311609,0.137976 -0.111558,0.03742 -0.230468,0.06598 -0.3545,0.08527 -0.123538,0.01921 -0.252304,0.02931 -0.38499,0.02946 3.48e-4,0.0044 1.52e-4,0.0085 5.17e-4,0.01292 0.01159,0.140034 0.03198,0.283062 0.06201,0.426847 l 0.0031,0.01395 z"
       style="fill:#ce5acf;stroke-width:0.315364;fill-opacity:1"
       id="path25" />
    <path
       d="m 47.242594,60.683118 c 0.132686,-1.43e-4 0.261452,-0.01025 0.38499,-0.02946 0.124032,-0.01929 0.242942,-0.04785 0.3545,-0.08527 0.111558,-0.03742 0.215785,-0.08352 0.311609,-0.137976 0.09582,-0.05445 0.183102,-0.117191 0.259932,-0.187586 0.07683,-0.07039 0.143344,-0.14885 0.197921,-0.234094 0.05458,-0.08524 0.09703,-0.177469 0.126091,-0.276469 0.02906,-0.099 0.04324,-0.199538 0.04341,-0.300757 1.65e-4,-0.101218 -0.01321,-0.203102 -0.03979,-0.303857 -0.02658,-0.100755 -0.06612,-0.200563 -0.117305,-0.298173 -0.01309,-0.02497 -0.03345,-0.04821 -0.04806,-0.07286 -0.02088,-0.0092 -0.04096,-0.02434 -0.06201,-0.03204 -0.08624,-0.03153 -0.173693,-0.05045 -0.261483,-0.05529 -0.08779,-0.0048 -0.175926,0.0043 -0.263033,0.02842 -0.08711,0.02413 -0.169191,0.06236 -0.245463,0.112655 -0.07627,0.05029 -0.14649,0.11278 -0.21084,0.186035 -0.06435,0.07326 -0.12281,0.1571 -0.174149,0.250114 -0.05134,0.09301 -0.09557,0.19532 -0.132809,0.304891 -0.03724,0.109571 -0.06735,0.226406 -0.0894,0.349332 -0.02205,0.122927 -0.03608,0.251909 -0.04186,0.38499 -0.0056,0.128889 -0.0029,0.261934 0.0078,0.397392 z"
       style="fill:#ce5acf;stroke-width:0.315364;fill-opacity:1"
       id="path24" />
    <path
       d="m 18.877882,60.702256 c 0.01067,-0.135458 0.01335,-0.268503 0.0078,-0.397392 -0.0058,-0.133081 -0.01981,-0.262063 -0.04186,-0.38499 -0.02205,-0.122926 -0.05216,-0.239761 -0.0894,-0.349332 -0.03724,-0.109571 -0.08147,-0.211877 -0.132809,-0.304891 -0.05134,-0.09301 -0.109799,-0.176859 -0.174149,-0.250114 -0.06435,-0.07325 -0.134567,-0.13574 -0.21084,-0.186035 -0.07627,-0.05029 -0.158356,-0.08852 -0.245463,-0.112655 -0.08711,-0.02413 -0.175243,-0.03326 -0.263033,-0.02842 -0.08779,0.0048 -0.175243,0.02376 -0.261483,0.05529 -0.02105,0.0077 -0.04113,0.02284 -0.06201,0.03204 0.04251,-0.07172 0.08525,-0.143565 0.140043,-0.211873 0.07363,-0.09178 0.157742,-0.180275 0.251664,-0.26355 0.09392,-0.08328 0.197476,-0.161492 0.309542,-0.233577 0.112065,-0.07209 0.232644,-0.137641 0.360701,-0.195854 0.128058,-0.05821 0.263762,-0.109236 0.40566,-0.150895 l 7.493083,-2.199866 c 0.141898,-0.04166 0.282994,-0.07225 0.422196,-0.0925 0.139203,-0.02025 0.276547,-0.03004 0.409794,-0.02997 0.133248,6.5e-5 0.262508,0.01017 0.38654,0.02945 0.124033,0.01929 0.242942,0.04785 0.3545,0.08527 0.111559,0.03742 0.215785,0.08352 0.311609,0.137976 0.09582,0.05445 0.183102,0.117191 0.259933,0.187585 0.07683,0.07039 0.143343,0.148334 0.197921,0.233578 0.05458,0.08524 0.09703,0.177986 0.12609,0.276985 0.02907,0.099 0.04324,0.199539 0.04341,0.300757 1.65e-4,0.101218 -0.01372,0.203102 -0.04031,0.303858 -0.02658,0.100755 -0.06612,0.200562 -0.117306,0.298173 -0.05118,0.09761 -0.113958,0.192953 -0.187585,0.284737 -0.07363,0.09178 -0.157743,0.179758 -0.251665,0.263033 -0.09392,0.08328 -0.197476,0.162009 -0.309541,0.234094 -0.112066,0.07209 -0.232644,0.137641 -0.360702,0.195854 -0.128057,0.05821 -0.263761,0.108719 -0.40566,0.150378 l -7.493083,2.199866 c -0.141898,0.04166 -0.28351,0.07277 -0.422713,0.09302 -0.139202,0.02025 -0.27603,0.03004 -0.409277,0.02997 -5.31e-4,-10e-7 -0.001,0 -0.0015,0 z"
       style="fill:#ce5acf;fill-opacity:1;stroke-width:0.338081"
       id="path23-6" />
    <path
       d="m 16.150916,61.155975 0.148312,-0.711068 c 0.03004,-0.143785 0.06818,-0.281598 0.113171,-0.412378 0.04499,-0.13078 0.09681,-0.25451 0.154513,-0.370003 0.0577,-0.115493 0.121463,-0.222986 0.189652,-0.320911 0.06819,-0.09792 0.141119,-0.186507 0.217558,-0.264583 0.07644,-0.07808 0.156289,-0.145593 0.238745,-0.201538 0.06233,-0.04229 0.127076,-0.07124 0.19172,-0.09974 -0.01461,0.02465 -0.03497,0.0479 -0.04806,0.07286 -0.05118,0.09761 -0.09072,0.197418 -0.117305,0.298173 -0.02658,0.100755 -0.03996,0.202639 -0.03979,0.303857 1.65e-4,0.101219 0.01434,0.201758 0.04341,0.300757 0.02907,0.099 0.07151,0.191226 0.126091,0.276469 0.05458,0.08524 0.12109,0.1637 0.197921,0.234094 0.07683,0.07039 0.164108,0.133134 0.259932,0.187586 0.09582,0.05445 0.200051,0.10056 0.311609,0.137976 0.111558,0.03742 0.230468,0.06598 0.3545,0.08527 0.123538,0.01921 0.252304,0.02931 0.38499,0.02946 -3.48e-4,0.0044 -1.52e-4,0.0085 -5.17e-4,0.01292 -0.01159,0.140034 -0.03198,0.283062 -0.06201,0.426847 l -0.0031,0.01395 z"
       style="fill:#ce5acf;fill-opacity:1;stroke-width:0.315364"
       id="path25-9" />
    <path
       d="m 18.877882,60.702256 c -0.132686,-1.43e-4 -0.261452,-0.01025 -0.38499,-0.02946 -0.124032,-0.01929 -0.242942,-0.04785 -0.3545,-0.08527 -0.111558,-0.03742 -0.215785,-0.08352 -0.311609,-0.137976 -0.09582,-0.05445 -0.183102,-0.117191 -0.259932,-0.187586 -0.07683,-0.07039 -0.143344,-0.14885 -0.197921,-0.234094 -0.05458,-0.08524 -0.09703,-0.177469 -0.126091,-0.276469 -0.02906,-0.099 -0.04324,-0.199538 -0.04341,-0.300757 -1.65e-4,-0.101218 0.01321,-0.203102 0.03979,-0.303857 0.02658,-0.100755 0.06612,-0.200563 0.117305,-0.298173 0.01309,-0.02497 0.03345,-0.04821 0.04806,-0.07286 0.02088,-0.0092 0.04096,-0.02434 0.06201,-0.03204 0.08624,-0.03153 0.173693,-0.05045 0.261483,-0.05529 0.08779,-0.0048 0.175926,0.0043 0.263033,0.02842 0.08711,0.02413 0.169191,0.06236 0.245463,0.112655 0.07627,0.05029 0.14649,0.11278 0.21084,0.186035 0.06435,0.07326 0.12281,0.1571 0.174149,0.250114 0.05134,0.09301 0.09557,0.19532 0.132809,0.304891 0.03724,0.109571 0.06735,0.226406 0.0894,0.349332 0.02205,0.122927 0.03608,0.251909 0.04186,0.38499 0.0056,0.128889 0.0029,0.261934 -0.0078,0.397392 z"
       style="fill:#ce5acf;fill-opacity:1;stroke-width:0.315364"
       id="path24-3" />
    <rect
       style="fill:#613583;fill-opacity:1;stroke-width:0.338081"
       id="rect9-1"
       width="12.080544"
       height="2.9798677"
       x="-34.252441"
       y="19.509441"
       rx="2.1355586"
       ry="2.1355586"
       transform="matrix(-0.95950375,-0.28169586,-0.28169586,0.95950375,0,0)" />
    <rect
       style="fill:#613583;fill-opacity:1;stroke-width:0.315364"
       id="rect9-2-1"
       width="11.998975"
       height="2.6104984"
       x="-30.797607"
       y="-11.484115"
       rx="2.121139"
       ry="1.8708457"
       transform="matrix(-0.20448305,-0.9788701,-0.96369779,0.26699545,0,0)" />
    <path
       style="fill:#ffa348;fill-opacity:1;stroke-width:0.309478"
       d="m 51.272626,14.884693 c -0.854223,-1.097547 -1.195913,-1.383863 -1.195913,-1.383863 0,0 -0.711854,-0.524915 -0.740327,-0.14316 -0.02847,0.381757 1.195913,2.624573 1.87929,2.86317 0.68338,0.238598 1.99319,0.310177 1.99319,0.310177 0,0 2.534197,-1.861061 2.56267,-2.338256 0.02847,-0.477194 0.14237,-1.025968 -0.08542,-1.192988 -0.227795,-0.167017 -0.313219,-0.214737 -0.313219,-0.214737 0,0 -0.341689,-0.620353 -0.882696,-0.548774 -0.541008,0.07158 -0.711855,-0.286317 -1.16744,0.119294 -0.455585,0.405616 -2.050135,2.529132 -2.050135,2.529132 z"
       id="path9" />
    <path
       d="m 51.275584,14.873786 c -6.3e-5,8.3e-5 -0.0046,0.006 -0.0046,0.006 -0.106772,-0.137194 -0.205387,-0.262192 -0.296481,-0.375059 -0.09109,-0.112867 -0.17484,-0.213814 -0.25092,-0.304406 -0.07608,-0.09059 -0.144287,-0.170648 -0.206019,-0.241015 -0.06173,-0.07037 -0.117032,-0.131375 -0.165078,-0.183567 -0.0961,-0.104383 -0.16526,-0.174573 -0.210641,-0.218565 -0.04537,-0.04399 -0.06669,-0.06141 -0.06669,-0.06141 0,0 -0.04442,-0.03269 -0.111589,-0.07594 -0.03359,-0.02162 -0.07268,-0.04595 -0.114899,-0.07 -0.0422,-0.02405 -0.08735,-0.04779 -0.132724,-0.06867 -0.04539,-0.02088 -0.09094,-0.03939 -0.134043,-0.05151 -0.02156,-0.006 -0.04277,-0.01035 -0.06273,-0.0132 -0.01996,-0.0028 -0.0391,-0.0037 -0.05679,-0.0027 -0.01768,0.0011 -0.03413,0.0041 -0.04886,0.01 -0.01473,0.0058 -0.02787,0.014 -0.03896,0.0251 -0.01112,0.01112 -0.01964,0.02513 -0.02641,0.04226 -0.0068,0.01712 -0.01137,0.03755 -0.01321,0.06141 -8.9e-4,0.01188 -8.43e-4,0.02549 6.6e-4,0.04094 0.0015,0.01545 0.0041,0.03278 0.0079,0.05151 0.0075,0.03745 0.01961,0.08092 0.03566,0.130083 0.01605,0.04917 0.03644,0.104114 0.06009,0.163097 0.02364,0.05898 0.05086,0.122591 0.08122,0.189511 0.03036,0.06692 0.06349,0.137015 0.09971,0.20998 0.03621,0.07296 0.0757,0.148703 0.116879,0.225827 0.04118,0.07713 0.08414,0.155676 0.129422,0.235073 0.04527,0.0794 0.09281,0.159253 0.141307,0.239034 0.04849,0.07978 0.09839,0.159435 0.149231,0.237713 0.05084,0.07828 0.102211,0.155562 0.154514,0.230451 0.0523,0.07489 0.105584,0.147633 0.158476,0.217243 0.0529,0.06961 0.105864,0.13565 0.158476,0.198095 0.05261,0.06245 0.104382,0.12093 0.155834,0.174322 0.05144,0.0534 0.102466,0.10216 0.151873,0.14461 0.02471,0.02122 0.04861,0.04063 0.07263,0.05877 0.02403,0.01814 0.04806,0.0347 0.07131,0.04953 0.02324,0.01481 0.04632,0.0277 0.06867,0.03896 0.02236,0.01124 0.04402,0.02094 0.06537,0.02839 0.04272,0.01491 0.08757,0.02929 0.134705,0.04292 0.04714,0.01363 0.09664,0.02656 0.147249,0.03896 0.101214,0.02479 0.208165,0.04721 0.317613,0.06735 0.109442,0.02013 0.221362,0.03764 0.331477,0.05349 0.01112,0.0015 0.02133,0.0024 0.03235,0.004 z"
       style="fill:#ffa348;fill-opacity:1;stroke-width:0.338081"
       id="path10" />
    <path
       style="fill:#ffa348;fill-opacity:1;stroke-width:0.309478"
       d="m 14.785041,15.335551 c 0.854223,-1.097547 1.195913,-1.383864 1.195913,-1.383864 0,0 0.711854,-0.524915 0.740327,-0.143159 0.02847,0.381757 -1.195913,2.624572 -1.87929,2.86317 -0.68338,0.238597 -1.99319,0.310176 -1.99319,0.310176 0,0 -2.534197,-1.861061 -2.56267,-2.338256 -0.02847,-0.477194 -0.14237,-1.025968 0.08542,-1.192987 0.227795,-0.167017 0.313219,-0.214738 0.313219,-0.214738 0,0 0.341689,-0.620353 0.882696,-0.548774 0.541008,0.07158 0.711855,-0.286316 1.16744,0.119294 0.455585,0.405616 2.050135,2.529132 2.050135,2.529132 z"
       id="path9-0" />
    <path
       d="m 14.782083,15.324643 c 6.3e-5,8.3e-5 0.0046,0.006 0.0046,0.006 0.106772,-0.137194 0.205387,-0.262192 0.296481,-0.375059 0.09109,-0.112867 0.17484,-0.213813 0.25092,-0.304406 0.07608,-0.0906 0.144287,-0.170647 0.206019,-0.241015 0.06173,-0.07037 0.117032,-0.131375 0.165078,-0.183567 0.0961,-0.104383 0.165261,-0.174573 0.210641,-0.218564 0.04537,-0.04399 0.06669,-0.06141 0.06669,-0.06141 0,0 0.04442,-0.03269 0.111589,-0.07594 0.03359,-0.02162 0.07268,-0.04595 0.114899,-0.07 0.0422,-0.02405 0.08735,-0.04779 0.132724,-0.06867 0.04539,-0.02088 0.09094,-0.03939 0.134043,-0.05151 0.02156,-0.006 0.04277,-0.01035 0.06273,-0.0132 0.01996,-0.0028 0.0391,-0.0037 0.05679,-0.0027 0.01769,0.0011 0.03413,0.0041 0.04886,0.01 0.01473,0.0057 0.02787,0.014 0.03896,0.0251 0.01112,0.01112 0.01964,0.02513 0.02641,0.04226 0.0068,0.01712 0.01137,0.03755 0.01321,0.06141 8.89e-4,0.01188 8.42e-4,0.02549 -6.61e-4,0.04094 -0.0015,0.01545 -0.0041,0.03278 -0.0079,0.05151 -0.0075,0.03745 -0.01961,0.08092 -0.03566,0.130083 -0.01605,0.04917 -0.03644,0.104114 -0.0601,0.163097 -0.02364,0.05898 -0.05086,0.122591 -0.08122,0.189511 -0.03036,0.06692 -0.06349,0.137015 -0.09971,0.20998 -0.03621,0.07296 -0.0757,0.148703 -0.116879,0.225828 -0.04118,0.07713 -0.08414,0.155675 -0.129422,0.235072 -0.04527,0.0794 -0.09281,0.159253 -0.141307,0.239034 -0.04849,0.07979 -0.09839,0.159435 -0.149231,0.237714 -0.05084,0.07828 -0.102211,0.155561 -0.154514,0.23045 -0.0523,0.07489 -0.105584,0.147633 -0.158475,0.217243 -0.0529,0.06961 -0.105865,0.13565 -0.158477,0.198095 -0.05261,0.06245 -0.104382,0.12093 -0.155834,0.174323 -0.05144,0.0534 -0.102466,0.102159 -0.151872,0.14461 -0.02471,0.02122 -0.04861,0.04063 -0.07263,0.05876 -0.02404,0.01815 -0.04806,0.03471 -0.07131,0.04953 -0.02324,0.01481 -0.04632,0.0277 -0.06867,0.03896 -0.02236,0.01124 -0.04402,0.02094 -0.06537,0.02839 -0.04272,0.01491 -0.08757,0.02929 -0.134705,0.04292 -0.04714,0.01363 -0.09664,0.02657 -0.147249,0.03896 -0.101214,0.02479 -0.208165,0.04721 -0.317612,0.06735 -0.109443,0.02013 -0.221363,0.03764 -0.331478,0.05349 -0.01112,0.0015 -0.02133,0.0024 -0.03235,0.004 z"
       style="fill:#ffa348;fill-opacity:1;stroke-width:0.338081"
       id="path10-1" />
    <path
       style="fill:#3622ff;fill-opacity:1;stroke-width:0.211294"
       d="m 47.891125,8.3362539 c 0,0 1.492799,-2.5649059 4.351972,-2.8945128 1.857341,-0.2141169 3.577193,0.5928148 3.792826,2.4935158 0.105532,0.92992 -1.387899,2.1521531 -2.239706,2.2471791 -1.542507,0.172121 -1.641363,-1.4796921 -2.405499,-2.5533471 -0.988308,-1.388631 -3.499593,0.707165 -3.499593,0.707165 z"
       id="path11"
       sodipodi:nodetypes="cssssc" />
    <path
       style="fill:#ff2626;fill-opacity:1;stroke-width:0.211294"
       d="m 17.694148,7.4693462 c 0,0 -1.492799,2.5649048 -4.351972,2.8945128 -1.857342,0.214116 -3.5771932,-0.5928158 -3.7928262,-2.4935168 -0.105533,-0.92992 1.3878992,-2.1521521 2.2397052,-2.2471791 1.542507,-0.172121 1.641364,1.4796921 2.4055,2.5533471 0.988308,1.388631 3.499593,-0.707164 3.499593,-0.707164 z"
       id="path11-3"
       sodipodi:nodetypes="cssssc" />
    <path
       id="path3"
       style="fill:#63452c;stroke-width:0.520276"
       d="m 26.40953,17.467371 a 6.4448226,7.8081509 0 0 0 0.207298,1.049698 6.4448226,7.8081509 0 0 0 0.387159,1.132006 6.4448226,7.8081509 0 0 0 0.528403,1.044616 6.4448226,7.8081509 0 0 0 0.656443,0.931823 6.4448226,7.8081509 0 0 0 0.769236,0.795654 6.4448226,7.8081509 0 0 0 0.861707,0.640185 6.4448226,7.8081509 0 0 0 0.934871,0.469468 6.4448226,7.8081509 0 0 0 0.983646,0.285542 6.4448226,7.8081509 0 0 0 1.008034,0.09654 6.4448226,7.8081509 0 0 0 1.008035,-0.09654 6.4448226,7.8081509 0 0 0 0.983646,-0.285542 6.4448226,7.8081509 0 0 0 0.933856,-0.469468 6.4448226,7.8081509 0 0 0 0.862724,-0.640185 6.4448226,7.8081509 0 0 0 0.768216,-0.795654 6.4448226,7.8081509 0 0 0 0.657459,-0.931823 6.4448226,7.8081509 0 0 0 0.528405,-1.044616 6.4448226,7.8081509 0 0 0 0.387161,-1.132006 6.4448226,7.8081509 0 0 0 0.207294,-1.049698 z m 6.305296,0.768219 c 1.553646,0 2.804612,0.400638 2.804612,0.898291 0,0.497651 -1.250966,0.898287 -2.804612,0.898287 -1.553644,0 -2.80461,-0.400636 -2.80461,-0.898287 0,-0.497653 1.250966,-0.898291 2.80461,-0.898291 z" />
  </g>
</svg>
