<?xml version="1.0" encoding="UTF-8" standalone="no"?>
<!-- Created with Inkscape (http://www.inkscape.org/) -->

<svg
   width="256"
   height="256"
   viewBox="0 0 67.733332 67.733333"
   version="1.1"
   id="svg1"
   inkscape:version="1.3 (0e150ed6c4, 2023-07-21)"
   sodipodi:docname="Swordsman.svg"
   inkscape:export-filename="..\Assets\Sprites\Units\SwordsMan.png"
   inkscape:export-xdpi="96"
   inkscape:export-ydpi="96"
   xmlns:inkscape="http://www.inkscape.org/namespaces/inkscape"
   xmlns:sodipodi="http://sodipodi.sourceforge.net/DTD/sodipodi-0.dtd"
   xmlns="http://www.w3.org/2000/svg"
   xmlns:svg="http://www.w3.org/2000/svg">
  <sodipodi:namedview
     id="namedview1"
     pagecolor="#505050"
     bordercolor="#ffffff"
     borderopacity="1"
     inkscape:showpageshadow="0"
     inkscape:pageopacity="0"
     inkscape:pagecheckerboard="1"
     inkscape:deskcolor="#505050"
     inkscape:document-units="mm"
     inkscape:zoom="1.0494603"
     inkscape:cx="350.65641"
     inkscape:cy="166.27593"
     inkscape:window-width="1920"
     inkscape:window-height="1009"
     inkscape:window-x="-8"
     inkscape:window-y="-8"
     inkscape:window-maximized="1"
     inkscape:current-layer="layer1" />
  <defs
     id="defs1" />
  <g
     inkscape:label="Шар 1"
     inkscape:groupmode="layer"
     id="layer1">
    <ellipse
       style="fill:#e6bc88;fill-opacity:1;stroke:#844e0b;stroke-width:0"
       id="path1"
       cx="37.770279"
       cy="27.186373"
       rx="13.792785"
       ry="15.242196" />
    <ellipse
       style="fill:#e6bc88;fill-opacity:1;stroke:#844e0b;stroke-width:0"
       id="path1-5"
       cx="24.081903"
       cy="27.79155"
       rx="2.7827547"
       ry="3.0751796" />
    <ellipse
       style="fill:#e6bc88;fill-opacity:1;stroke:#844e0b;stroke-width:0"
       id="path1-5-3"
       cx="52.201988"
       cy="27.685858"
       rx="2.7827547"
       ry="3.0751796" />
    <path
       style="fill:#311f09;fill-opacity:1;stroke:#844e0b;stroke-width:0"
       d="m 25.921654,19.216938 -4.233943,-3.119747 3.832833,-0.980493 -2.005552,-5.036164 4.055672,2.584934 0.846789,-3.8773999 1.916416,2.4066609 1.559875,-3.1643144 1.604442,3.1643144 1.782712,-3.2534501 1.515306,3.0306121 3.164316,-3.9665365 0.713086,4.6796215 3.075178,-3.9219683 1.559875,4.7241893 2.451229,-3.5208579 0.846789,3.9219679 3.565427,-1.069628 -0.757653,2.896909 4.501351,1.604442 -4.635056,3.208883 c 0,0 -8.913563,-5.080732 -12.077879,-5.169868 -3.164316,-0.08914 -13.281213,4.857893 -13.281213,4.857893 z"
       id="path3-2" />
    <path
       style="fill:#452c0d;fill-opacity:1;stroke:#844e0b;stroke-width:0"
       d="m 24.957983,20.189225 -4.233943,-3.119747 3.832833,-0.980493 -2.005552,-5.036164 4.055672,2.584934 0.846789,-3.8774009 1.916416,2.4066619 1.559875,-3.164315 1.604442,3.164315 1.782712,-3.2534507 1.515306,3.0306127 3.164316,-3.9665371 0.713086,4.6796221 3.075178,-3.9219689 1.559875,4.7241899 2.451229,-3.5208589 0.846789,3.9219689 3.565427,-1.069628 -0.757653,2.896909 4.501351,1.604442 -4.635056,3.208883 c 0,0 -8.913563,-5.080732 -12.077879,-5.169868 -3.164316,-0.08914 -13.281213,4.857893 -13.281213,4.857893 z"
       id="path3" />
    <path
       style="fill:#5c3b12;fill-opacity:1;stroke:#844e0b;stroke-width:0"
       d="m 26.116746,20.233793 -6.373199,4.011105 3.565426,-6.417767 -5.259003,-2.852341 7.487394,-0.401111 -0.04457,-6.2394954 2.67407,4.5013504 0.668518,-4.6350539 2.094687,3.8328329 2.228392,-4.3230788 1.827282,3.6991298 2.807771,-4.5904865 c 0,0 0.846789,2.9414766 0.846789,3.1643158 0,0.2228387 3.030614,-2.4957984 3.030614,-2.4957984 l 0.267406,3.1197481 4.456782,-2.2729594 -1.114195,3.5208584 5.526411,-1.337035 -2.139257,4.144808 4.991597,-0.935924 -1.515306,4.590486 3.832834,4.679622 c 0,0 -6.061226,-2.406663 -6.462337,-2.005553 -0.401108,0.401111 -10.250598,-4.991596 -11.141956,-5.036164 -0.891357,-0.04457 -12.256152,4.278511 -12.256152,4.278511 z"
       id="path2" />
    <circle
       style="fill:#ffffff;fill-opacity:1;stroke:#844e0b;stroke-width:0"
       id="path4"
       cx="30.350687"
       cy="24.289467"
       r="2.0946879" />
    <circle
       style="fill:#ffffff;fill-opacity:1;stroke:#844e0b;stroke-width:0"
       id="path4-0"
       cx="44.111618"
       cy="24.503607"
       r="2.0946879" />
    <circle
       style="fill:#000000;fill-opacity:1;stroke:#844e0b;stroke-width:0"
       id="path4-0-8-0-1"
       cx="30.207373"
       cy="24.336325"
       r="1.0919122" />
    <circle
       style="fill:#000000;fill-opacity:1;stroke:#844e0b;stroke-width:0"
       id="path4-0-8-0-1-3"
       cx="44.086517"
       cy="24.506126"
       r="1.0919122" />
    <path
       style="fill:#000000;fill-opacity:1;stroke:#844e0b;stroke-width:0"
       d="m 30.618096,21.347989 -2.094687,-1.158764 c 0,0 1.381603,-0.534813 2.763205,0.133704 1.381604,0.668517 3.342587,1.604442 2.674069,2.05012 -0.668517,0.445678 -3.342587,-1.02506 -3.342587,-1.02506 z"
       id="path5" />
    <path
       style="fill:#000000;fill-opacity:1;stroke:#844e0b;stroke-width:0"
       d="m 44.246211,21.294793 2.094687,-1.158764 c 0,0 -1.381603,-0.534813 -2.763205,0.133704 -1.381604,0.668517 -3.342587,1.604442 -2.674069,2.05012 0.668517,0.445678 3.342587,-1.02506 3.342587,-1.02506 z"
       id="path5-2" />
    <path
       style="fill:#dfaa68;fill-opacity:1;stroke:#844e0b;stroke-width:0"
       d="m 36.864421,27.408235 c 0,0 -1.819608,1.760982 -1.881445,2.723144 -0.06184,0.962166 -0.640179,1.866362 0.293002,2.18645 0.933179,0.320089 1.651244,0.08699 1.651244,0.08699 z"
       id="path6"
       sodipodi:nodetypes="csscc" />
    <path
       style="fill:#dfa966;fill-opacity:1;stroke:#844e0b;stroke-width:0"
       d="m 31.55402,36.991295 c 0,0 3.743698,-0.846789 4.590486,-0.802219 0.846789,0.04457 3.966538,1.025059 3.966538,1.025059 0,0 -2.85234,0.846788 -4.100239,0.757653 -1.2479,-0.08914 -4.456785,-0.980493 -4.456785,-0.980493 z"
       id="path7" />
    <rect
       style="fill:#af7d48;fill-opacity:1;stroke:#844e0b;stroke-width:0"
       id="rect10-7-2"
       width="8.1936932"
       height="29.597828"
       x="17.035814"
       y="37.168076"
       rx="4.0968466"
       ry="4.2159696"
       transform="rotate(22.067701)" />
    <rect
       style="fill:#3e3e3e;fill-opacity:1;stroke:#844e0b;stroke-width:0"
       id="rect11"
       width="3.1514211"
       height="13.705017"
       x="8.1936951"
       y="39.101276"
       rx="4.7637749"
       ry="1.9707348" />
    <rect
       style="fill:#3e3e3e;fill-opacity:1;stroke:#844e0b;stroke-width:0"
       id="rect11-8"
       width="2.1368995"
       height="9.2930279"
       x="-46.803837"
       y="2.2228687"
       rx="3.230196"
       ry="1.3363057"
       transform="rotate(-88.749996)" />
    <rect
       style="fill:#3e3e3e;fill-opacity:1;stroke:#844e0b;stroke-width:0"
       id="rect11-8-2"
       width="2.1368995"
       height="9.2930279"
       x="-46.786129"
       y="1.5182909"
       rx="3.230196"
       ry="1.3363057"
       transform="rotate(-88.749996)" />
    <rect
       style="fill:#979797;fill-opacity:1;stroke:#844e0b;stroke-width:0"
       id="rect12"
       width="54.14698"
       height="3.6556485"
       x="11.35593"
       y="44.134533"
       rx="0"
       ry="0" />
    <rect
       style="fill:#7a7a7a;fill-opacity:1;stroke:#844e0b;stroke-width:0"
       id="rect12-9"
       width="54.14698"
       height="1.9223671"
       x="11.350129"
       y="44.138035"
       rx="0"
       ry="0" />
    <path
       style="fill:#979797;fill-opacity:1;stroke:#844e0b;stroke-width:0"
       d="m 65.455019,44.088383 2.124453,3.679658 h -3.826219 z"
       id="path12" />
    <path
       style="fill:#7a7a7a;fill-opacity:1;stroke:#844e0b;stroke-width:0"
       d="m 65.453023,44.089806 1.140204,1.974891 h -2.053551 z"
       id="path12-2" />
    <path
       d="m 42.663528,41.378585 a 13.792785,15.242196 0 0 1 -0.573092,0.261999 13.792785,15.242196 0 0 1 -2.104264,0.558106 13.792785,15.242196 0 0 1 -2.158008,0.188102 13.792785,15.242196 0 0 1 -2.157491,-0.188102 13.792785,15.242196 0 0 1 -2.104264,-0.558106 13.792785,15.242196 0 0 1 -1.537374,-0.703316 c -0.0079,0.04233 -0.01965,0.08293 -0.02687,0.125574 -0.03599,0.212465 -0.06321,0.428446 -0.08165,0.648022 -0.01844,0.219576 -0.02791,0.442565 -0.02791,0.668177 v 8.713163 c 0,0.225611 0.0095,0.4486 0.02791,0.668176 0.01844,0.219576 0.04566,0.435557 0.08165,0.648023 0.03598,0.212465 0.08069,0.421005 0.133325,0.625284 0.05264,0.20428 0.112994,0.404429 0.181384,0.599447 0.06839,0.195018 0.144642,0.38531 0.227893,0.569991 0.08325,0.184681 0.173566,0.36365 0.270785,0.536918 0.09722,0.173269 0.201318,0.340481 0.311609,0.501262 0.11029,0.16078 0.226865,0.315286 0.349333,0.462504 0.122468,0.147217 0.250721,0.28755 0.384472,0.420129 0.133751,0.132579 0.27289,0.257272 0.417029,0.374137 0.144139,0.116866 0.293368,0.225486 0.447001,0.325562 0.153633,0.100076 0.311641,0.191673 0.473873,0.273885 0.162232,0.08221 0.328741,0.155319 0.498678,0.218591 0.169936,0.06327 0.343635,0.116941 0.520381,0.160197 0.176747,0.04326 0.356324,0.07602 0.538985,0.09819 0.182662,0.02217 0.368356,0.03359 0.556039,0.03359 0.187683,0 0.37286,-0.01142 0.555522,-0.03359 0.182661,-0.02217 0.362755,-0.05493 0.539501,-0.09819 0.176747,-0.04326 0.350446,-0.09692 0.520382,-0.160197 0.169937,-0.06327 0.335929,-0.136379 0.498161,-0.218591 0.162232,-0.08221 0.320757,-0.173809 0.47439,-0.273885 0.153633,-0.100076 0.302345,-0.208696 0.446484,-0.325562 0.144139,-0.116865 0.283278,-0.241558 0.417029,-0.374137 0.133751,-0.132579 0.262004,-0.272912 0.384472,-0.420129 0.122469,-0.147218 0.239559,-0.301724 0.34985,-0.462504 0.11029,-0.160781 0.213873,-0.327993 0.311092,-0.501262 0.09722,-0.173268 0.188049,-0.352237 0.271301,-0.536918 0.08325,-0.184681 0.158986,-0.374973 0.227377,-0.569991 0.06839,-0.195018 0.129266,-0.395167 0.181901,-0.599447 0.05264,-0.204279 0.09734,-0.412819 0.133325,-0.625284 0.03599,-0.212466 0.06321,-0.428447 0.08165,-0.648023 0.01844,-0.219576 0.0279,-0.442565 0.0279,-0.668176 v -8.713163 c 0,-0.225612 -0.0095,-0.448601 -0.0279,-0.668177 -0.0095,-0.112589 -0.02773,-0.221491 -0.04186,-0.332279 z"
       style="fill:#e6bc88;stroke:#844e0b;stroke-width:0"
       id="path8" />
    <path
       d="M 42.733197,44.486339 V 42.40998 c 0,-0.225611 -0.0095,-0.4486 -0.02791,-0.668176 -0.0095,-0.112589 -0.02773,-0.221491 -0.04186,-0.332279 a 13.792785,15.242196 0 0 1 -0.573092,0.261999 13.792785,15.242196 0 0 1 -2.104264,0.558106 13.792785,15.242196 0 0 1 -2.158008,0.188102 13.792785,15.242196 0 0 1 -2.157491,-0.188102 13.792785,15.242196 0 0 1 -2.104264,-0.558106 13.792785,15.242196 0 0 1 -1.537374,-0.703316 c -0.0079,0.04233 -0.01965,0.08293 -0.02687,0.125574 -0.03599,0.212464 -0.06321,0.428446 -0.08165,0.648022 -0.01844,0.219576 -0.02791,0.442565 -0.02791,0.668176 v 1.773019 a 13.792785,15.242196 0 0 0 1.489315,0.681612 13.792785,15.242196 0 0 0 2.104264,0.558622 13.792785,15.242196 0 0 0 2.158008,0.187586 13.792785,15.242196 0 0 0 2.157491,-0.187586 13.792785,15.242196 0 0 0 2.104781,-0.558622 13.792785,15.242196 0 0 0 0.826823,-0.378272 z"
       style="fill:#e2b175;fill-opacity:1;stroke:#844e0b;stroke-width:0"
       id="path9" />
    <rect
       style="fill:#986d3f;fill-opacity:1;stroke:#844e0b;stroke-width:0"
       id="rect10"
       width="49.792454"
       height="61.893913"
       x="12.47963"
       y="48.153717"
       rx="24.896227"
       ry="16.198301" />
    <circle
       style="fill:#834800;fill-opacity:1;stroke:#844e0b;stroke-width:0"
       id="path13-1"
       cx="47.771458"
       cy="63.771461"
       r="21.258854" />
    <circle
       style="fill:#7a7a7a;fill-opacity:1;stroke:#844e0b;stroke-width:0"
       id="path13"
       cx="47.967083"
       cy="63.488861"
       r="17.742758" />
    <rect
       style="fill:#986d3f;fill-opacity:1;stroke:#844e0b;stroke-width:0"
       id="rect10-7"
       width="10.500348"
       height="37.930084"
       x="-61.609497"
       y="-57.323322"
       rx="5.250174"
       ry="5.4028316"
       transform="rotate(-134.71998)" />
    <path
       d="m 6.6109162,50.855959 1.2273153,-3.027722 c 0.054844,-0.135283 0.1021658,-0.271343 0.142627,-0.408244 0.040461,-0.1369 0.073809,-0.274759 0.1002522,-0.412377 0.026443,-0.137619 0.046121,-0.27494 0.058911,-0.412378 0.012791,-0.137439 0.0191,-0.274986 0.018603,-0.411345 -4.968e-4,-0.136359 -0.00777,-0.271796 -0.021187,-0.406177 -0.013419,-0.13438 -0.032935,-0.267438 -0.058911,-0.398942 C 8.0525507,45.247271 8.0200597,45.117378 7.9818917,44.989651 7.9437237,44.861924 7.8995947,44.736499 7.8496,44.613446 7.799605,44.490394 7.7436245,44.369707 7.6821684,44.252228 7.6207124,44.13475 7.5536995,44.020103 7.4811471,43.909097 7.4085951,43.798091 7.3308531,43.690787 7.2475696,43.587152 7.1642856,43.483518 7.0756021,43.383827 6.9819527,43.288463 6.8883037,43.193093 6.7894969,43.101806 6.6858468,43.015611 6.5821967,42.929411 6.4735709,42.848342 6.3602852,42.772215 6.2469996,42.696085 6.1288576,42.624985 6.0063017,42.559825 5.8837457,42.494665 5.7569075,42.435353 5.6254464,42.382058 5.4939853,42.328768 5.3613873,42.282658 5.2280546,42.244082 5.0947219,42.205502 4.960845,42.174282 4.8265287,42.150032 4.6922125,42.125782 4.5573476,42.108672 4.4229358,42.098352 4.288524,42.088032 4.1545124,42.084792 4.0208932,42.088012 c -0.1336193,0.0032 -0.2670033,0.01307 -0.3989421,0.02946 -0.1319388,0.01638 -0.2628535,0.03907 -0.3922245,0.06821 -0.12937,0.02915 -0.257008,0.06442 -0.382922,0.105936 -0.125914,0.04152 -0.249984,0.08913 -0.371554,0.142627 -0.121569,0.0535 -0.240747,0.113193 -0.357084,0.178284 -0.116336,0.06509 -0.229815,0.135583 -0.340031,0.211873 -0.110216,0.07629 -0.217186,0.158364 -0.320393,0.245463 -0.103208,0.0871 -0.202346,0.179468 -0.297657,0.276986 -0.09531,0.09752 -0.18684187,0.199929 -0.27336787,0.307475 -0.08653,0.107546 -0.168093,0.220264 -0.244946,0.337447 -0.07685,0.117182 -0.148681,0.238924 -0.214974,0.365352 -0.06629,0.126429 -0.127057,0.257458 -0.181901,0.392741 l -1.33635313,3.296957 a 6.1925426,6.1925426 0 0 0 0.26820113,0.502295 6.1925426,6.1925426 0 0 0 0.770495,0.938444 6.1925426,6.1925426 0 0 0 0.938444,0.769978 6.1925426,6.1925426 0 0 0 1.07021887,0.572575 6.1925426,6.1925426 0 0 0 1.161687,0.352433 6.1925426,6.1925426 0 0 0 1.2081945,0.118856 6.1925426,6.1925426 0 0 0 1.208195,-0.118856 6.1925426,6.1925426 0 0 0 1.0769368,-0.326595 z"
       style="fill:#be9262;fill-opacity:1;stroke:#844e0b;stroke-width:0"
       id="path15" />
    <path
       style="fill:#3e3e3e;fill-opacity:1;stroke:#844e0b;stroke-width:0"
       d="m 2.1615397,44.879801 c 0,0 -1.96098454,0.111419 -1.96098454,1.114195 0,1.002776 1.96215554,1.132853 1.96215554,1.132853 z"
       id="path16" />
  </g>
</svg>
