<?xml version="1.0" encoding="UTF-8" standalone="no"?>
<!-- Created with Inkscape (http://www.inkscape.org/) -->

<svg
   width="256"
   height="256"
   viewBox="0 0 67.733332 67.733333"
   version="1.1"
   id="svg1"
   inkscape:version="1.3 (0e150ed6c4, 2023-07-21)"
   sodipodi:docname="Whale.svg"
   inkscape:export-filename="..\Assets\Sprites\Units\Whale.png"
   inkscape:export-xdpi="96"
   inkscape:export-ydpi="96"
   xmlns:inkscape="http://www.inkscape.org/namespaces/inkscape"
   xmlns:sodipodi="http://sodipodi.sourceforge.net/DTD/sodipodi-0.dtd"
   xmlns="http://www.w3.org/2000/svg"
   xmlns:svg="http://www.w3.org/2000/svg">
  <sodipodi:namedview
     id="namedview1"
     pagecolor="#505050"
     bordercolor="#ffffff"
     borderopacity="1"
     inkscape:showpageshadow="0"
     inkscape:pageopacity="0"
     inkscape:pagecheckerboard="1"
     inkscape:deskcolor="#505050"
     inkscape:document-units="mm"
     inkscape:zoom="1.4142136"
     inkscape:cx="91.570328"
     inkscape:cy="93.691648"
     inkscape:window-width="1920"
     inkscape:window-height="1009"
     inkscape:window-x="-8"
     inkscape:window-y="-8"
     inkscape:window-maximized="1"
     inkscape:current-layer="layer1" />
  <defs
     id="defs1" />
  <g
     inkscape:label="Шар 1"
     inkscape:groupmode="layer"
     id="layer1">
    <path
       style="fill:#194fff;fill-opacity:1;stroke:#3d81ff;stroke-width:0;stroke-dasharray:none;stroke-opacity:1"
       d="m 20.470867,40.965516 c 0,0 10.762748,-9.481469 23.746379,-19.817126 12.983634,-10.335654 16.4858,-10.335654 17.767078,-8.20019 1.28128,2.135466 -7.943931,35.619575 -1.964628,44.844788 5.979306,9.225212 17.339983,5.46679 17.339983,5.46679 0,0 2.47714,2.05005 -3.416746,2.904236 C 68.049048,67.0182 9.2810242,56.597125 9.2810242,56.597125 L 3.6433951,49.934471 Z"
       id="path7" />
    <path
       style="fill:#8cfff9;fill-opacity:0.38820302;stroke:#3d81ff;stroke-width:0;stroke-dasharray:none;stroke-opacity:1"
       d="m 47.595035,58.174133 c 0,0 1.047004,0.218125 1.592318,1.963131 0.545315,1.745007 0.370814,3.141012 0.370814,3.141012 L 35.042916,60.893234 c 0,0 1.17221,-1.110514 -1.048821,-2.529506 -2.221029,-1.41899 -3.269848,-2.282725 -3.269848,-2.282725 z"
       id="path8" />
    <path
       style="fill:#194fff;fill-opacity:1;stroke:#3d81ff;stroke-width:0;stroke-dasharray:none;stroke-opacity:1"
       d="m 4.6827901,49.12207 c -1.6412238,3.100087 -16.3671511,5.211356 -16.3671511,5.211356 0,0 17.688745,1.762795 21.761413,2.674583 4.072666,0.911792 -3.1451766,-3.387772 -5.3942619,-7.885939 z"
       id="path6"
       sodipodi:nodetypes="ccsc" />
    <path
       style="fill:#53fff2;fill-opacity:1;stroke:#3d81ff;stroke-width:0;stroke-dasharray:none;stroke-opacity:1"
       d="M 24.881937,27.86781 C 21.427002,32.309871 4.8926685,37.985834 4.8926685,37.985834 c 0,0 3.2081541,1.604079 10.2414155,0.863735 7.033262,-0.740344 16.657724,-3.948499 16.657724,-3.948499 0,0 -1.480685,-4.442058 -6.909871,-7.03326 z"
       id="path5-5" />
    <path
       style="fill:#8cfff9;fill-opacity:1;stroke:#000000;stroke-width:0.2"
       d="M 19.282314,31.061103 C 26.87309,13.174794 29.054347,11.386163 44.7594,11.255288 c 18.487364,-0.154061 7.154524,21.987072 2.879259,23.993831 -4.275264,2.006756 -25.477085,-2.094008 -21.02732,11.691538 4.449765,13.785548 21.550822,-7.329025 21.550822,-7.329025 0,0 6.10752,17.973561 -1.396005,18.758813 C 39.262631,59.155699 18.846063,54.618682 18.497062,53.65893 18.14806,52.699178 10.555675,47.862166 14.9198,39.437132 c 4.395233,-8.48509 4.362514,-8.376029 4.362514,-8.376029 z"
       id="path1"
       sodipodi:nodetypes="cssscsssc" />
    <path
       style="fill:#000000;fill-opacity:1;stroke:#1265ff;stroke-width:0;stroke-dasharray:none;stroke-opacity:1"
       d="m 51.868105,30.881312 c 0,0 -4.927448,0.965044 -8.94096,0.09254 -4.013515,-0.872503 -7.154526,-4.275264 -7.154526,-4.275264 0,0 0.349001,3.577261 2.704761,5.322265 2.355757,1.745007 10.557285,2.18126 10.557285,2.18126 0,0 1.996171,-1.975001 2.83344,-3.320804 z"
       id="path4"
       sodipodi:nodetypes="cscscc" />
    <path
       style="fill:#fefefe;fill-opacity:1;stroke:#3d81ff;stroke-width:0;stroke-dasharray:none;stroke-opacity:1"
       d="m 36.431058,27.300158 0.03085,1.357296 1.264753,-0.277627 0.0617,1.758315 1.511535,-0.678648 v 1.511533 l 1.357294,-0.802037 0.215935,1.449837 1.295601,-0.89458 0.431866,1.295601 1.295601,-0.894583 0.493562,1.264754 1.079669,-1.110515 0.740341,1.233906 0.894583,-1.17221 0.616953,1.264753 0.89458,-1.388144 0.6478,1.357296 0.709496,-1.44984 0.493562,1.203058 1.048821,-1.418992 z"
       id="path13" />
    <path
       style="fill:#b9fffa;fill-opacity:1;stroke:#3d81ff;stroke-width:0;stroke-dasharray:none;stroke-opacity:1"
       d="M 23.567594,29.983903 C 20.112659,34.425964 3.5783258,40.101927 3.5783258,40.101927 c 0,0 3.2081543,1.604079 10.2414152,0.863735 7.033262,-0.740344 16.657724,-3.948499 16.657724,-3.948499 0,0 -1.480685,-4.442058 -6.909871,-7.03326 z"
       id="path5" />
    <path
       style="fill:#8cfff9;fill-opacity:0.388203;stroke:#3d81ff;stroke-width:0;stroke-dasharray:none;stroke-opacity:1"
       d="m 33.722238,58.239569 c 0,0 -14.745299,-2.530258 -15.923178,-3.446385 -1.177879,-0.916128 -4.711516,-4.886016 -5.060517,-6.500146 -0.349002,-1.61413 -0.261751,-3.141012 -0.261751,-3.141012 l 1.875881,-0.959752 18.933315,12.913042 z"
       id="path9" />
    <path
       style="fill:#8cfff9;fill-opacity:0.388203;stroke:#3d81ff;stroke-width:0;stroke-dasharray:none;stroke-opacity:1"
       d="M 12.651292,47.63866 C 10.121034,48.947413 8.376028,49.907168 6.7182727,49.645416 5.0605171,49.383666 4.5370151,49.296415 4.5370151,49.296415 l 7.9397769,-4.013513 z"
       id="path10" />
    <path
       style="fill:#000000;fill-opacity:0.38820302;stroke:#3d81ff;stroke-width:0;stroke-dasharray:none;stroke-opacity:1"
       d="m 30.292378,36.893775 c 0,0 0.493565,0.37017 0.123391,0.863732 -0.37017,0.493562 -16.842809,5.737661 -16.842809,5.737661 0,0 0.246781,-2.406115 0.616953,-2.529506 0.370172,-0.123391 4.935622,-0.863735 5.922746,-1.048819 0.987125,-0.185087 7.58852,-1.974249 8.205473,-2.159336 0.616952,-0.185087 1.974246,-0.863732 1.974246,-0.863732 z"
       id="path11" />
    <path
       style="fill:#000000;fill-opacity:0.388203;stroke:#3d81ff;stroke-width:0;stroke-dasharray:none;stroke-opacity:1"
       d="m 18.53943,32.297475 -1.943401,0.956279 -0.52441,1.203057 -9.3776819,4.071888 -0.041102,0.01413 0.7307212,0.158142 6.3801777,-2.644775 3.926263,-1.919507 z"
       id="path12" />
    <path
       style="fill:#8cfff9;fill-opacity:1;stroke:#3d81ff;stroke-width:0;stroke-dasharray:none;stroke-opacity:1"
       d="m 35.750806,26.698591 c 0,0 1.55941,1.727506 1.991278,1.974289 0.431867,0.246779 1.97425,1.49611 3.100187,1.773737 1.125939,0.27763 2.051367,0.60153 3.161882,0.755767 1.110517,0.154238 2.637475,0.370173 3.501207,0.3239 0.863735,-0.04627 4.241551,-0.616953 4.241551,-0.616953 z"
       id="path14" />
    <path
       style="fill:#ffffff;fill-opacity:1;stroke:#3d81ff;stroke-width:0;stroke-dasharray:none;stroke-opacity:1"
       d="m 36.554449,29.521189 0.971701,0.03085 -0.246782,1.249328 1.341874,-0.107966 v 1.449838 l 1.388144,-0.57068 0.323898,1.264753 1.357297,-0.817462 0.493561,1.295599 1.326449,-1.079667 0.478139,1.388144 1.249328,-0.92543 0.586108,1.218483 1.141362,-1.017971 0.508984,1.17221 0.971701,-1.017974 0.539835,1.141365 c 0,0 -2.113063,-0.0617 -2.853407,-0.138817 -0.740344,-0.07712 -4.96647,-0.755766 -5.876475,-1.033396 -0.910005,-0.277627 -2.591202,-1.465262 -2.930525,-1.866281 -0.339326,-0.401018 -0.771192,-1.634924 -0.771192,-1.634924 z"
       id="path15" />
    <path
       style="fill:#8cfff9;fill-opacity:1;stroke:#3d81ff;stroke-width:0;stroke-dasharray:none;stroke-opacity:1"
       d="m 36.536061,29.479692 c 0,0 0.621657,1.396005 1.101534,1.908601 0.479878,0.512596 1.87588,1.286941 3.260979,1.668661 1.385099,0.38172 6.194772,0.927034 6.674649,0.981567 0.479875,0.05453 1.417817,0.152688 1.417817,0.152688 0,0 -1.319662,0.665282 -2.115819,0.698003 -0.796161,0.03272 -8.562457,-0.956813 -10.012294,-1.789697 -1.44984,-0.832887 -0.326866,-3.619823 -0.326866,-3.619823 z"
       id="path16" />
    <ellipse
       style="fill:#5dd0ff;fill-opacity:1;stroke:#3d81ff;stroke-width:0.2;stroke-dasharray:none;stroke-opacity:1"
       id="path19"
       cx="45.58828"
       cy="17.799059"
       rx="3.5336368"
       ry="1.3087543" />
    <ellipse
       style="fill:#000000;fill-opacity:1;stroke:#3d81ff;stroke-width:0;stroke-dasharray:none;stroke-opacity:1"
       id="path18"
       cx="46.250057"
       cy="17.777246"
       rx="1.4470328"
       ry="0.89431554" />
    <path
       style="fill:#8cfff9;fill-opacity:0.3882353;stroke:#000000;stroke-width:0;stroke-dasharray:none;stroke-opacity:1"
       d="m 33.392567,57.361182 c 0,0 5.346563,0.900202 6.895256,0.954733 1.548694,0.05453 4.100764,0.349001 5.791237,0.218125 1.690476,-0.130876 1.698146,-0.297558 1.698146,-0.297558 0,0 1.110224,0.390263 1.568289,2.451549 0.458062,2.06129 0.212672,2.590245 0.212672,2.590245 L 35.041789,60.893441 c 0,0 0.288354,-0.312127 0.309023,-0.646991 0.02066,-0.334862 -0.165365,-0.859896 -0.413411,-1.099675 -0.248047,-0.239778 -0.62425,-0.682127 -1.240235,-0.983919 -0.615982,-0.301789 -0.304599,-0.801674 -0.304599,-0.801674 z"
       id="path20" />
    <path
       style="fill:#8cfff9;fill-opacity:1;stroke:#000000;stroke-width:0;stroke-dasharray:none;stroke-opacity:1"
       d="m 33.306168,57.164358 0.0877,0.219245 c 0,0 5.599102,0.841266 6.425925,0.890875 0.826823,0.04961 3.323828,0.314193 4.497917,0.297657 1.174088,-0.01654 1.918229,0.01654 2.728515,-0.132292 0.810287,-0.148828 0.731544,-0.205573 0.731544,-0.205573 l -0.20261,-0.333625 c 0,0 -0.767911,-0.189637 -1.14209,-0.131172 -0.374176,0.05847 -1.935197,-0.157856 -2.929107,-0.228019 -0.993907,-0.07016 -10.213871,-0.537878 -10.213871,-0.537878 z"
       id="path21"
       sodipodi:nodetypes="ccsssccsscc" />
    <path
       style="fill:#8cfff9;fill-opacity:1;stroke:#000000;stroke-width:0;stroke-dasharray:none;stroke-opacity:1"
       d="m 32.220177,57.173127 -0.28648,-0.2514 1.753955,0.222168 -0.204626,0.251399 -1.210231,-0.198781 z"
       id="path22" />
  </g>
</svg>
