<?xml version="1.0" encoding="UTF-8" standalone="no"?>
<!-- Created with Inkscape (http://www.inkscape.org/) -->

<svg
   width="200"
   height="200"
   viewBox="0 0 52.916665 52.916666"
   version="1.1"
   id="svg1"
   inkscape:version="1.3 (0e150ed6c4, 2023-07-21)"
   sodipodi:docname="AttackFrontIcon.svg"
   inkscape:export-filename="..\..\..\Assets\Sprites\UI\Icons\AttackFrontIcon.png"
   inkscape:export-xdpi="96"
   inkscape:export-ydpi="96"
   xmlns:inkscape="http://www.inkscape.org/namespaces/inkscape"
   xmlns:sodipodi="http://sodipodi.sourceforge.net/DTD/sodipodi-0.dtd"
   xmlns="http://www.w3.org/2000/svg"
   xmlns:svg="http://www.w3.org/2000/svg">
  <sodipodi:namedview
     id="namedview1"
     pagecolor="#505050"
     bordercolor="#ffffff"
     borderopacity="1"
     inkscape:showpageshadow="0"
     inkscape:pageopacity="0"
     inkscape:pagecheckerboard="1"
     inkscape:deskcolor="#505050"
     inkscape:document-units="mm"
     inkscape:zoom="1.5162318"
     inkscape:cx="245.67484"
     inkscape:cy="13.52036"
     inkscape:window-width="1920"
     inkscape:window-height="1009"
     inkscape:window-x="-8"
     inkscape:window-y="-8"
     inkscape:window-maximized="1"
     inkscape:current-layer="layer1" />
  <defs
     id="defs1" />
  <g
     inkscape:label="Шар 1"
     inkscape:groupmode="layer"
     id="layer1">
    <g
       id="g17"
       transform="matrix(4.4930669,0.79032158,-0.79032158,4.4930669,-251.52623,-1024.643)">
      <path
         style="fill:#7c7c7c;fill-opacity:1;stroke:#373737;stroke-width:0.6;stroke-dasharray:none;stroke-opacity:1"
         d="m 100.13579,220.58378 -1.521703,-5.67908 -2.3059,0.61786 2.55496,-4.42532 4.352943,2.51316 -1.97629,0.52955 1.65686,6.18345 z"
         id="path43-0" />
      <g
         id="fist"
         transform="matrix(1.4451076,-0.30417344,0.30417344,1.4451076,-225.01761,26.095187)"
         style="stroke:#000000;stroke-width:0.16185;stroke-dasharray:none;stroke-opacity:1">
        <path
           style="fill:#616161;fill-opacity:1;stroke:#000000;stroke-width:0.16185;stroke-dasharray:none;stroke-opacity:1"
           d="m 187.38351,175.19539 c 0,0 0.063,-0.26788 0.0236,-0.51211 -0.0394,-0.24424 -0.27574,-0.42544 -0.27574,-0.42544 0,0 -0.60665,-0.96119 -0.60665,-1.00846 0,-0.0473 0.30726,-1.02421 0.37817,-1.0636 0.0709,-0.0394 0.0709,-0.008 0.13393,0 0.063,0.008 1.05573,0.4018 1.07149,0.44907 0.0158,0.0473 -0.063,0.27576 -0.16545,0.33878 -0.10242,0.063 -0.35454,0.0551 -0.4806,0.0236 -0.12605,-0.0315 -0.33877,-0.0945 -0.33877,-0.0945 0,0 0.41756,0.14969 0.48059,0.1812 0.063,0.0315 0.26787,0.14182 0.35454,0.20484 0.0867,0.063 0.1812,0.27575 0.23635,0.24424 0.0551,-0.0315 -0.45696,-0.52786 -0.47271,-0.46483 -0.0158,0.063 0.35453,-0.0315 0.32302,-0.0945 -0.0315,-0.063 0.0236,0.24424 0.21272,0.26787 0.18908,0.0236 0.0867,0.0473 0.22848,-0.0394 0.14181,-0.0867 0.13393,-0.16545 0.13393,-0.16545 0,0 0.0709,0.18121 0.23636,0.21272 0.16545,0.0315 0.21272,-0.0551 0.29938,-0.13393 0.0867,-0.0788 0.13394,-0.51211 0.13394,-0.51211 0,0 -0.0788,0.86664 -0.0473,0.91391 0.0315,0.0473 -0.0236,1.03209 -0.16545,1.07149 -0.14182,0.0394 -0.0315,0.6618 -0.0315,0.6618 z"
           id="path45" />
        <path
           style="fill:#616161;fill-opacity:1;stroke:#000000;stroke-width:0.16185;stroke-dasharray:none;stroke-opacity:1"
           d="m 187.07902,172.1488 c 0,0 0.12257,-0.48467 0.19499,-0.51253 0.0724,-0.0279 0.40111,0.0613 0.41225,0.12813 0.0111,0.0669 -0.11699,0.57381 -0.11699,0.57381 z"
           id="path46" />
        <path
           style="fill:#616161;fill-opacity:1;stroke:#000000;stroke-width:0.16185;stroke-dasharray:none;stroke-opacity:1"
           d="m 187.61941,172.37164 c 0,0 0.0947,-0.58495 0.20055,-0.60724 0.10585,-0.0223 0.3844,0.078 0.39554,0.13371 0.0111,0.0557 -0.0557,0.60723 -0.11142,0.66294 -0.0557,0.0557 -0.48467,-0.18941 -0.48467,-0.18941 z"
           id="path47" />
        <path
           style="fill:#616161;fill-opacity:1;stroke:#000000;stroke-width:0.16185;stroke-dasharray:none;stroke-opacity:1"
           d="m 188.07066,173.00673 c 0,0 0.11699,-1.10305 0.33426,-1.09748 0.21726,0.006 0.33983,0.0724 0.36768,0.15042 0.0279,0.078 -0.15599,0.96935 -0.23955,1.06405 -0.0836,0.0947 -0.22841,0.13371 -0.22841,0.13371 z"
           id="path48" />
        <path
           style="fill:#616161;fill-opacity:1;stroke:#000000;stroke-width:0.16185;stroke-dasharray:none;stroke-opacity:1"
           d="m 188.64447,173.04573 c 0,0 0.16713,-0.84679 0.2117,-0.89693 0.0446,-0.0501 0.0501,-0.0613 0.11142,-0.0613 0.0613,0 0.23955,0.0223 0.29526,0.0836 0.0557,0.0613 0.0501,0.0557 0.0446,0.1337 -0.006,0.078 -0.11141,0.72423 -0.17269,0.77994 -0.0613,0.0557 -0.0669,0.0836 -0.15042,0.10027 -0.0836,0.0167 -0.19499,-0.0111 -0.26184,-0.0501 -0.0669,-0.039 -0.078,-0.0891 -0.078,-0.0891 z"
           id="path49" />
      </g>
    </g>
  </g>
</svg>
