<?xml version="1.0" encoding="UTF-8" standalone="no"?>
<!-- Created with Inkscape (http://www.inkscape.org/) -->

<svg
   width="200"
   height="200"
   viewBox="0 0 52.916665 52.916666"
   version="1.1"
   id="svg1"
   inkscape:version="1.3 (0e150ed6c4, 2023-07-21)"
   sodipodi:docname="HeroAttackerIcon.svg"
   inkscape:export-filename="..\..\..\Assets\Resources\SkillsSprites\HeroAttacker.png"
   inkscape:export-xdpi="96"
   inkscape:export-ydpi="96"
   xmlns:inkscape="http://www.inkscape.org/namespaces/inkscape"
   xmlns:sodipodi="http://sodipodi.sourceforge.net/DTD/sodipodi-0.dtd"
   xmlns="http://www.w3.org/2000/svg"
   xmlns:svg="http://www.w3.org/2000/svg">
  <sodipodi:namedview
     id="namedview1"
     pagecolor="#505050"
     bordercolor="#ffffff"
     borderopacity="1"
     inkscape:showpageshadow="0"
     inkscape:pageopacity="0"
     inkscape:pagecheckerboard="1"
     inkscape:deskcolor="#505050"
     inkscape:document-units="px"
     inkscape:zoom="2.1442755"
     inkscape:cx="70.186876"
     inkscape:cy="86.043047"
     inkscape:window-width="1920"
     inkscape:window-height="1009"
     inkscape:window-x="-8"
     inkscape:window-y="-8"
     inkscape:window-maximized="1"
     inkscape:current-layer="layer1" />
  <defs
     id="defs1" />
  <g
     inkscape:label="Шар 1"
     inkscape:groupmode="layer"
     id="layer1">
    <path
       sodipodi:type="star"
       style="fill:#7c7c7c;fill-opacity:1;stroke:#373737;stroke-width:0.473931;stroke-dasharray:none;stroke-opacity:1"
       id="path5"
       inkscape:flatsided="true"
       sodipodi:sides="3"
       sodipodi:cx="31.759106"
       sodipodi:cy="33.416862"
       sodipodi:r1="1.572927"
       sodipodi:r2="0.7864635"
       sodipodi:arg1="0"
       sodipodi:arg2="1.0471976"
       inkscape:rounded="0"
       inkscape:randomized="0"
       d="m 33.332033,33.416862 -2.359391,1.362195 v -2.724389 z"
       inkscape:transform-center-x="-1.4399703"
       transform="matrix(3.6618799,0,0,3.6618799,-71.114454,-96.420106)"
       inkscape:transform-center-y="4.1867245e-06" />
    <path
       sodipodi:type="star"
       style="fill:#7c7c7c;fill-opacity:1;stroke:#373737;stroke-width:0.473931;stroke-dasharray:none;stroke-opacity:1"
       id="path5-2"
       inkscape:flatsided="true"
       sodipodi:sides="3"
       sodipodi:cx="31.759106"
       sodipodi:cy="33.416862"
       sodipodi:r1="1.572927"
       sodipodi:r2="0.7864635"
       sodipodi:arg1="0"
       sodipodi:arg2="1.0471976"
       inkscape:rounded="0"
       inkscape:randomized="0"
       d="m 33.332033,33.416862 -2.359391,1.362195 v -2.724389 z"
       inkscape:transform-center-x="3.5248966e-06"
       transform="matrix(0,3.6618799,-3.6618799,0,148.12309,-72.326346)"
       inkscape:transform-center-y="1.4399704" />
    <path
       sodipodi:type="star"
       style="fill:#7c7c7c;fill-opacity:1;stroke:#373737;stroke-width:0.473931;stroke-dasharray:none;stroke-opacity:1"
       id="path5-6"
       inkscape:flatsided="true"
       sodipodi:sides="3"
       sodipodi:cx="31.759106"
       sodipodi:cy="33.416862"
       sodipodi:r1="1.572927"
       sodipodi:r2="0.7864635"
       sodipodi:arg1="0"
       sodipodi:arg2="1.0471976"
       inkscape:rounded="0"
       inkscape:randomized="0"
       d="m 33.332033,33.416862 -2.359391,1.362195 v -2.724389 z"
       inkscape:transform-center-x="1.4399703"
       transform="matrix(-3.6618799,0,0,-3.6618799,124.2081,148.58544)"
       inkscape:transform-center-y="-4.8600452e-06" />
    <path
       sodipodi:type="star"
       style="fill:#7c7c7c;fill-opacity:1;stroke:#373737;stroke-width:0.473931;stroke-dasharray:none;stroke-opacity:1"
       id="path5-2-0"
       inkscape:flatsided="true"
       sodipodi:sides="3"
       sodipodi:cx="31.759106"
       sodipodi:cy="33.416862"
       sodipodi:r1="1.572927"
       sodipodi:r2="0.7864635"
       sodipodi:arg1="0"
       sodipodi:arg2="1.0471976"
       inkscape:rounded="0"
       inkscape:randomized="0"
       d="m 33.332033,33.416862 -2.359391,1.362195 v -2.724389 z"
       inkscape:transform-center-x="-5.1622568e-06"
       transform="matrix(0,-3.6618799,3.6618799,0,-96.868131,125.24879)"
       inkscape:transform-center-y="-1.4399671" />
    <path
       sodipodi:type="star"
       style="fill:#7c7c7c;fill-opacity:1;stroke:#373737;stroke-width:0.473931;stroke-dasharray:none;stroke-opacity:1"
       id="path5-7"
       inkscape:flatsided="true"
       sodipodi:sides="3"
       sodipodi:cx="31.759106"
       sodipodi:cy="33.416862"
       sodipodi:r1="1.572927"
       sodipodi:r2="0.7864635"
       sodipodi:arg1="0"
       sodipodi:arg2="1.0471976"
       inkscape:rounded="0"
       inkscape:randomized="0"
       d="m 33.332033,33.416862 -2.359391,1.362195 v -2.724389 z"
       inkscape:transform-center-x="0.74538353"
       transform="matrix(2.5893401,2.5893401,-2.5893401,2.5893401,44.412291,-129.1863)"
       inkscape:transform-center-y="-0.745379" />
    <path
       sodipodi:type="star"
       style="fill:#7c7c7c;fill-opacity:1;stroke:#373737;stroke-width:0.473931;stroke-dasharray:none;stroke-opacity:1"
       id="path5-2-9"
       inkscape:flatsided="true"
       sodipodi:sides="3"
       sodipodi:cx="31.759106"
       sodipodi:cy="33.416862"
       sodipodi:r1="1.572927"
       sodipodi:r2="0.7864635"
       sodipodi:arg1="0"
       sodipodi:arg2="1.0471976"
       inkscape:rounded="0"
       inkscape:randomized="0"
       d="m 33.332033,33.416862 -2.359391,1.362195 v -2.724389 z"
       inkscape:transform-center-x="-0.74538149"
       transform="matrix(-2.5893401,2.5893401,-2.5893401,-2.5893401,182.39979,42.874917)"
       inkscape:transform-center-y="-0.74538312" />
    <path
       sodipodi:type="star"
       style="fill:#7c7c7c;fill-opacity:1;stroke:#373737;stroke-width:0.473931;stroke-dasharray:none;stroke-opacity:1"
       id="path5-6-1"
       inkscape:flatsided="true"
       sodipodi:sides="3"
       sodipodi:cx="31.759106"
       sodipodi:cy="33.416862"
       sodipodi:r1="1.572927"
       sodipodi:r2="0.7864635"
       sodipodi:arg1="0"
       sodipodi:arg2="1.0471976"
       inkscape:rounded="0"
       inkscape:randomized="0"
       d="m 33.332033,33.416862 -2.359391,1.362195 v -2.724389 z"
       inkscape:transform-center-x="-0.74538338"
       transform="matrix(-2.5893401,-2.5893401,2.5893401,-2.5893401,9.2811094,182.17269)"
       inkscape:transform-center-y="0.74537829" />
    <path
       sodipodi:type="star"
       style="fill:#7c7c7c;fill-opacity:1;stroke:#373737;stroke-width:0.473931;stroke-dasharray:none;stroke-opacity:1"
       id="path5-2-0-8"
       inkscape:flatsided="true"
       sodipodi:sides="3"
       sodipodi:cx="31.759106"
       sodipodi:cy="33.416862"
       sodipodi:r1="1.572927"
       sodipodi:r2="0.7864635"
       sodipodi:arg1="0"
       sodipodi:arg2="1.0471976"
       inkscape:rounded="0"
       inkscape:randomized="0"
       d="m 33.332033,33.416862 -2.359391,1.362195 v -2.724389 z"
       inkscape:transform-center-x="0.74537363"
       transform="matrix(2.5893401,-2.5893401,2.5893401,2.5893401,-130.54188,9.3466835)"
       inkscape:transform-center-y="0.74538291" />
    <path
       style="fill:#7c7c7c;fill-opacity:1;stroke:#373737;stroke-width:0.879927;stroke-dasharray:none;stroke-opacity:1"
       d="m 23.055788,35.941636 c 0,0 0.292897,-1.467164 0.0335,-2.786933 -0.259249,-1.3198 -1.576927,-2.26064 -1.576927,-2.26064 0,0 -3.47403,-5.11045 -3.48277,-5.367294 -0.0088,-0.257003 1.480071,-5.621903 1.858076,-5.849049 0.377935,-0.227183 0.383763,-0.05658 0.727714,-0.02467 0.343811,0.03166 5.810659,1.987928 5.905033,2.241857 0.09461,0.254094 -0.291424,1.509979 -0.836317,1.871373 -0.544852,0.361262 -1.916217,0.36498 -2.606995,0.217133 -0.690708,-0.147921 -1.85819,-0.450817 -1.85819,-0.450817 0,0 2.296508,0.736123 2.644811,0.895666 0.348155,0.159517 1.481713,0.721039 1.964294,1.04743 0.482738,0.326288 1.035553,1.464786 1.329385,1.283371 0.29356,-0.181349 -2.580536,-2.78362 -2.654453,-2.438233 -0.07433,0.34521 1.920521,-0.236718 1.73766,-0.573215 -0.182785,-0.336485 0.173396,1.322719 1.205364,1.416136 1.031736,0.09325 0.479834,0.240951 1.234165,-0.25634 0.754493,-0.497313 0.697114,-0.923748 0.697114,-0.923748 0,0 0.418751,0.971497 1.323609,1.112103 0.904799,0.140558 1.145629,-0.338731 1.60192,-0.783083 0.456512,-0.444198 0.633056,-2.807337 0.633056,-2.807337 0,0 -0.267862,4.723488 -0.08799,4.974504 0.179912,0.251186 0.06266,5.612258 -0.700784,5.85258 -0.763299,0.240326 -0.04874,3.601733 -0.04874,3.601733 z"
       id="path45" />
    <path
       style="fill:#7c7c7c;fill-opacity:1;stroke:#373737;stroke-width:0.879927;stroke-dasharray:none;stroke-opacity:1"
       d="m 20.83785,19.444212 c 0,0 0.576336,-2.656139 0.964689,-2.82091 0.388228,-0.164966 2.190777,0.25888 2.263666,0.619965 0.07267,0.361445 -0.529449,3.139467 -0.529449,3.139467 z"
       id="path46" />
    <path
       style="fill:#7c7c7c;fill-opacity:1;stroke:#373737;stroke-width:0.879927;stroke-dasharray:none;stroke-opacity:1"
       d="m 23.815288,20.555074 c 0,0 0.406381,-3.195856 0.977383,-3.33655 0.571016,-0.140742 2.103073,0.352757 2.173912,0.653348 0.07061,0.300591 -0.190331,3.309705 -0.482808,3.62271 -0.292345,0.312961 -2.668502,-0.939523 -2.668502,-0.939523 z"
       id="path47" />
    <path
       style="fill:#7c7c7c;fill-opacity:1;stroke:#373737;stroke-width:0.879927;stroke-dasharray:none;stroke-opacity:1"
       d="m 26.384637,23.922393 c 0,0 0.431651,-6.015094 1.613222,-6.025016 1.181597,-0.0077 1.859843,0.330669 2.025623,0.74931 0.165997,0.418651 -0.668284,5.295844 -1.104802,5.825852 -0.436742,0.530016 -1.216343,0.768766 -1.216343,0.768766 z"
       id="path48" />
    <path
       style="fill:#7c7c7c;fill-opacity:1;stroke:#373737;stroke-width:0.879927;stroke-dasharray:none;stroke-opacity:1"
       d="m 29.509661,24.028172 c 0,0 0.751489,-4.63197 0.9844,-4.912652 0.233073,-0.28049 0.260868,-0.342338 0.594066,-0.353677 0.333061,-0.01141 1.305724,0.07687 1.619764,0.399629 0.313991,0.322754 0.282515,0.293376 0.267053,0.718216 -0.01804,0.424925 -0.471407,3.955727 -0.794065,4.269766 -0.322753,0.313992 -0.348045,0.466614 -0.798766,0.57264 -0.451155,0.10621 -1.061537,-0.0243 -1.431955,-0.223943 -0.370715,-0.199535 -0.440295,-0.469699 -0.440295,-0.469699 z"
       id="path49" />
  </g>
</svg>
